<?xml version="1.0" encoding="UTF-8" standalone="no"?>
<!DOCTYPE svg PUBLIC "-//W3C//DTD SVG 1.1//EN"
 "http://www.w3.org/Graphics/SVG/1.1/DTD/svg11.dtd">
<!-- Generated by graphviz version 2.47.1 (20210515.0534)
 -->
<!-- Title: oneDegreeRelationshipsDiagram Pages: 1 -->
<svg width="519pt" height="379pt"
 viewBox="0.00 0.00 519.00 379.00" xmlns="http://www.w3.org/2000/svg" xmlns:xlink="http://www.w3.org/1999/xlink">
<g id="graph0" class="graph" transform="scale(1 1) rotate(0) translate(4 375)">
<title>oneDegreeRelationshipsDiagram</title>
<polygon fill="#ffffff" stroke="transparent" points="-4,4 -4,-375 515,-375 515,4 -4,4"/>
<text text-anchor="middle" x="73.5" y="-7.2" font-family="Helvetica,sans-Serif" font-size="11.00">Generated by SchemaSpy</text>
<!-- tdh_od.organisation -->
<g id="node1" class="node">
<title>tdh_od.organisation</title>
<g id="a_node1"><a xlink:href="../../../tdh_od/tables/organisation.html" xlink:title="tdh_od.organisation" target="_top">
<polygon fill="#ffffff" stroke="transparent" points="340,-263 340,-365 503,-365 503,-263 340,-263"/>
<polygon fill="#f5f5f5" stroke="transparent" points="340.5,-343 340.5,-365 503.5,-365 503.5,-343 340.5,-343"/>
<polygon fill="none" stroke="black" points="340.5,-343 340.5,-365 503.5,-365 503.5,-343 340.5,-343"/>
<text text-anchor="start" x="345.5" y="-352.2" font-family="Helvetica,sans-Serif" font-weight="bold" font-size="11.00">tdh_od.organisation</text>
<text text-anchor="start" x="464.5" y="-351.2" font-family="Helvetica,sans-Serif" font-size="11.00">[table]</text>
<polygon fill="none" stroke="black" points="340.5,-321 340.5,-343 503.5,-343 503.5,-321 340.5,-321"/>
<image xlink:href="../../images/foreignKeys.png" width="11px" height="12px" preserveAspectRatio="xMinYMin meet" x="345.5" y="-338"/>
<text text-anchor="start" x="368.5" y="-329.2" font-family="Helvetica,sans-Serif" font-size="11.00">organisation_type</text>
<polygon fill="none" stroke="black" points="340.5,-299 340.5,-321 503.5,-321 503.5,-299 340.5,-299"/>
<image xlink:href="../../images/foreignKeys.png" width="11px" height="12px" preserveAspectRatio="xMinYMin meet" x="345.5" y="-316"/>
<text text-anchor="start" x="368.5" y="-307.2" font-family="Helvetica,sans-Serif" font-size="11.00">status</text>
<polygon fill="none" stroke="black" points="340.5,-281 340.5,-299 503.5,-299 503.5,-281 340.5,-281"/>
<text text-anchor="start" x="343.5" y="-287.2" font-family="Helvetica,sans-Serif" font-size="11.00">...</text>
<polygon fill="#ffffff" stroke="transparent" points="340.5,-263 340.5,-281 406.5,-281 406.5,-263 340.5,-263"/>
<polygon fill="none" stroke="black" points="340.5,-263 340.5,-281 406.5,-281 406.5,-263 340.5,-263"/>
<text text-anchor="start" x="343.5" y="-269.2" font-family="Helvetica,sans-Serif" font-size="11.00">&lt; 2</text>
<polygon fill="#ffffff" stroke="transparent" points="406.5,-263 406.5,-281 468.5,-281 468.5,-263 406.5,-263"/>
<polygon fill="none" stroke="black" points="406.5,-263 406.5,-281 468.5,-281 468.5,-263 406.5,-263"/>
<text text-anchor="start" x="431.5" y="-269.2" font-family="Helvetica,sans-Serif" font-size="11.00">0 rows</text>
<polygon fill="#ffffff" stroke="transparent" points="468.5,-263 468.5,-281 503.5,-281 503.5,-263 468.5,-263"/>
<polygon fill="none" stroke="black" points="468.5,-263 468.5,-281 503.5,-281 503.5,-263 468.5,-263"/>
<text text-anchor="start" x="493.5" y="-269.2" font-family="Helvetica,sans-Serif" font-size="11.00"> &#160;</text>
</a>
</g>
</g>
<!-- organisation_organisation_type -->
<g id="node2" class="node">
<title>organisation_organisation_type</title>
<g id="a_node2"><a xlink:href="../../tables/organisation_organisation_type.html" xlink:title="organisation_organisation_type" target="_top">
<polygon fill="#ffffff" stroke="transparent" points="8,-37 8,-367 291,-367 291,-37 8,-37"/>
<polygon fill="#f5f5f5" stroke="transparent" points="10.5,-343 10.5,-365 289.5,-365 289.5,-343 10.5,-343"/>
<polygon fill="none" stroke="black" points="10.5,-343 10.5,-365 289.5,-365 289.5,-343 10.5,-343"/>
<text text-anchor="start" x="15.5" y="-352.2" font-family="Helvetica,sans-Serif" font-weight="bold" font-size="11.00">organisation_organisation_type</text>
<text text-anchor="start" x="250.5" y="-351.2" font-family="Helvetica,sans-Serif" font-size="11.00">[table]</text>
<polygon fill="none" stroke="black" points="10.5,-321 10.5,-343 219.5,-343 219.5,-321 10.5,-321"/>
<image xlink:href="../../images/primaryKeys.png" width="11px" height="12px" preserveAspectRatio="xMinYMin meet" x="15.5" y="-338"/>
<text text-anchor="start" x="30.5" y="-329.2" font-family="Helvetica,sans-Serif" font-size="11.00">code</text>
<polygon fill="none" stroke="black" points="219.5,-321 219.5,-343 289.5,-343 289.5,-321 219.5,-321"/>
<text text-anchor="start" x="222.5" y="-329.2" font-family="Helvetica,sans-Serif" font-size="11.00">int4[10]</text>
<polygon fill="none" stroke="black" points="10.5,-299 10.5,-321 219.5,-321 219.5,-299 10.5,-299"/>
<text text-anchor="start" x="30.5" y="-307.2" font-family="Helvetica,sans-Serif" font-size="11.00">vsacode</text>
<polygon fill="none" stroke="black" points="219.5,-299 219.5,-321 289.5,-321 289.5,-299 219.5,-299"/>
<text text-anchor="start" x="222.5" y="-307.2" font-family="Helvetica,sans-Serif" font-size="11.00">int4[10]</text>
<polygon fill="none" stroke="black" points="10.5,-277 10.5,-299 219.5,-299 219.5,-277 10.5,-277"/>
<text text-anchor="start" x="30.5" y="-285.2" font-family="Helvetica,sans-Serif" font-size="11.00">value_en</text>
<polygon fill="none" stroke="black" points="219.5,-277 219.5,-299 289.5,-299 289.5,-277 219.5,-277"/>
<text text-anchor="start" x="222.5" y="-285.2" font-family="Helvetica,sans-Serif" font-size="11.00">varchar[100]</text>
<polygon fill="none" stroke="black" points="10.5,-255 10.5,-277 219.5,-277 219.5,-255 10.5,-255"/>
<text text-anchor="start" x="30.5" y="-263.2" font-family="Helvetica,sans-Serif" font-size="11.00">value_de</text>
<polygon fill="none" stroke="black" points="219.5,-255 219.5,-277 289.5,-277 289.5,-255 219.5,-255"/>
<text text-anchor="start" x="222.5" y="-263.2" font-family="Helvetica,sans-Serif" font-size="11.00">varchar[100]</text>
<polygon fill="none" stroke="black" points="10.5,-233 10.5,-255 219.5,-255 219.5,-233 10.5,-233"/>
<text text-anchor="start" x="30.5" y="-241.2" font-family="Helvetica,sans-Serif" font-size="11.00">value_fr</text>
<polygon fill="none" stroke="black" points="219.5,-233 219.5,-255 289.5,-255 289.5,-233 219.5,-233"/>
<text text-anchor="start" x="222.5" y="-241.2" font-family="Helvetica,sans-Serif" font-size="11.00">varchar[100]</text>
<polygon fill="none" stroke="black" points="10.5,-211 10.5,-233 219.5,-233 219.5,-211 10.5,-211"/>
<text text-anchor="start" x="30.5" y="-219.2" font-family="Helvetica,sans-Serif" font-size="11.00">value_it</text>
<polygon fill="none" stroke="black" points="219.5,-211 219.5,-233 289.5,-233 289.5,-211 219.5,-211"/>
<text text-anchor="start" x="222.5" y="-219.2" font-family="Helvetica,sans-Serif" font-size="11.00">varchar[100]</text>
<polygon fill="none" stroke="black" points="10.5,-189 10.5,-211 219.5,-211 219.5,-189 10.5,-189"/>
<text text-anchor="start" x="30.5" y="-197.2" font-family="Helvetica,sans-Serif" font-size="11.00">value_ro</text>
<polygon fill="none" stroke="black" points="219.5,-189 219.5,-211 289.5,-211 289.5,-189 219.5,-189"/>
<text text-anchor="start" x="222.5" y="-197.2" font-family="Helvetica,sans-Serif" font-size="11.00">varchar[100]</text>
<polygon fill="none" stroke="black" points="10.5,-167 10.5,-189 219.5,-189 219.5,-167 10.5,-167"/>
<text text-anchor="start" x="30.5" y="-175.2" font-family="Helvetica,sans-Serif" font-size="11.00">abbr_en</text>
<polygon fill="none" stroke="black" points="219.5,-167 219.5,-189 289.5,-189 289.5,-167 219.5,-167"/>
<text text-anchor="start" x="222.5" y="-175.2" font-family="Helvetica,sans-Serif" font-size="11.00">varchar[3]</text>
<polygon fill="none" stroke="black" points="10.5,-145 10.5,-167 219.5,-167 219.5,-145 10.5,-145"/>
<text text-anchor="start" x="30.5" y="-153.2" font-family="Helvetica,sans-Serif" font-size="11.00">abbr_de</text>
<polygon fill="none" stroke="black" points="219.5,-145 219.5,-167 289.5,-167 289.5,-145 219.5,-145"/>
<text text-anchor="start" x="222.5" y="-153.2" font-family="Helvetica,sans-Serif" font-size="11.00">varchar[3]</text>
<polygon fill="none" stroke="black" points="10.5,-123 10.5,-145 219.5,-145 219.5,-123 10.5,-123"/>
<text text-anchor="start" x="30.5" y="-131.2" font-family="Helvetica,sans-Serif" font-size="11.00">abbr_fr</text>
<polygon fill="none" stroke="black" points="219.5,-123 219.5,-145 289.5,-145 289.5,-123 219.5,-123"/>
<text text-anchor="start" x="222.5" y="-131.2" font-family="Helvetica,sans-Serif" font-size="11.00">varchar[3]</text>
<polygon fill="none" stroke="black" points="10.5,-101 10.5,-123 219.5,-123 219.5,-101 10.5,-101"/>
<text text-anchor="start" x="30.5" y="-109.2" font-family="Helvetica,sans-Serif" font-size="11.00">abbr_it</text>
<polygon fill="none" stroke="black" points="219.5,-101 219.5,-123 289.5,-123 289.5,-101 219.5,-101"/>
<text text-anchor="start" x="222.5" y="-109.2" font-family="Helvetica,sans-Serif" font-size="11.00">varchar[3]</text>
<polygon fill="none" stroke="black" points="10.5,-79 10.5,-101 219.5,-101 219.5,-79 10.5,-79"/>
<text text-anchor="start" x="30.5" y="-87.2" font-family="Helvetica,sans-Serif" font-size="11.00">abbr_ro</text>
<polygon fill="none" stroke="black" points="219.5,-79 219.5,-101 289.5,-101 289.5,-79 219.5,-79"/>
<text text-anchor="start" x="222.5" y="-87.2" font-family="Helvetica,sans-Serif" font-size="11.00">varchar[3]</text>
<polygon fill="none" stroke="black" points="10.5,-57 10.5,-79 219.5,-79 219.5,-57 10.5,-57"/>
<text text-anchor="start" x="30.5" y="-65.2" font-family="Helvetica,sans-Serif" font-size="11.00">active</text>
<polygon fill="none" stroke="black" points="219.5,-57 219.5,-79 289.5,-79 289.5,-57 219.5,-57"/>
<text text-anchor="start" x="222.5" y="-65.2" font-family="Helvetica,sans-Serif" font-size="11.00">bool[1]</text>
<polygon fill="#ffffff" stroke="transparent" points="10.5,-39 10.5,-57 119.5,-57 119.5,-39 10.5,-39"/>
<polygon fill="none" stroke="black" points="10.5,-39 10.5,-57 119.5,-57 119.5,-39 10.5,-39"/>
<text text-anchor="start" x="13.5" y="-45.2" font-family="Helvetica,sans-Serif" font-size="11.00">&lt; 0</text>
<polygon fill="#ffffff" stroke="transparent" points="119.5,-39 119.5,-57 219.5,-57 219.5,-39 119.5,-39"/>
<polygon fill="none" stroke="black" points="119.5,-39 119.5,-57 219.5,-57 219.5,-39 119.5,-39"/>
<text text-anchor="start" x="209.5" y="-45.2" font-family="Helvetica,sans-Serif" font-size="11.00"> &#160;</text>
<polygon fill="#ffffff" stroke="transparent" points="219.5,-39 219.5,-57 289.5,-57 289.5,-39 219.5,-39"/>
<polygon fill="none" stroke="black" points="219.5,-39 219.5,-57 289.5,-57 289.5,-39 219.5,-39"/>
<text text-anchor="start" x="270.5" y="-45.2" font-family="Helvetica,sans-Serif" font-size="11.00">1 &gt;</text>
<polygon fill="none" stroke="black" stroke-width="2" points="9,-38 9,-366 290,-366 290,-38 9,-38"/>
</a>
</g>
</g>
<!-- tdh_od.organisation&#45;&gt;organisation_organisation_type -->
<g id="edge1" class="edge">
<title>tdh_od.organisation:w&#45;&gt;organisation_organisation_type:e</title>
<path fill="none" stroke="black" d="M324.99,-332C313.68,-332 306.49,-332 290.5,-332"/>
<polygon fill="black" stroke="black" points="331.5,-332 339.5,-335.6 335.5,-332 339.5,-332 339.5,-332 339.5,-332 335.5,-332 339.5,-328.4 331.5,-332 331.5,-332"/>
<ellipse fill="none" stroke="black" cx="328.3" cy="-332" rx="3.2" ry="3.2"/>
</g>
</g>
</svg>
