<?xml version="1.0" encoding="UTF-8" standalone="no"?>
<!DOCTYPE svg PUBLIC "-//W3C//DTD SVG 1.1//EN"
 "http://www.w3.org/Graphics/SVG/1.1/DTD/svg11.dtd">
<!-- Generated by graphviz version 2.43.0 (0)
 -->
<!-- Title: oneDegreeRelationshipsDiagram Pages: 1 -->
<svg width="678pt" height="399pt"
 viewBox="0.00 0.00 678.00 399.00" xmlns="http://www.w3.org/2000/svg" xmlns:xlink="http://www.w3.org/1999/xlink">
<g id="graph0" class="graph" transform="scale(1 1) rotate(0) translate(4 395)">
<title>oneDegreeRelationshipsDiagram</title>
<polygon fill="#ffffff" stroke="transparent" points="-4,4 -4,-395 674,-395 674,4 -4,4"/>
<text text-anchor="middle" x="79.5" y="-7.2" font-family="Helvetica,sans-Serif" font-size="11.00">Generated by SchemaSpy</text>
<!-- tdh_od.pipe_point_normal -->
<g id="node1" class="node">
<title>tdh_od.pipe_point_normal</title>
<g id="a_node1"><a xlink:href="../../../tdh_od/tables/pipe_point_normal.html" xlink:title="tdh_od.pipe_point_normal" target="_top">
<polygon fill="#ffffff" stroke="transparent" points="427,-263 427,-387 662,-387 662,-263 427,-263"/>
<polygon fill="#f5f5f5" stroke="transparent" points="427.5,-365 427.5,-387 662.5,-387 662.5,-365 427.5,-365"/>
<polygon fill="none" stroke="black" points="427.5,-365 427.5,-387 662.5,-387 662.5,-365 427.5,-365"/>
<text text-anchor="start" x="432.5" y="-374.2" font-family="Helvetica,sans-Serif" font-weight="bold" font-size="11.00">tdh_od.pipe_point_normal</text>
<text text-anchor="start" x="620.5" y="-373.2" font-family="Helvetica,sans-Serif" font-size="11.00">[table]</text>
<polygon fill="none" stroke="black" points="427.5,-343 427.5,-365 662.5,-365 662.5,-343 427.5,-343"/>
<image xlink:href="../../images/foreignKeys.png" width="11px" height="12px" preserveAspectRatio="xMinYMin meet" x="432.5" y="-360"/>
<text text-anchor="start" x="487.5" y="-351.2" font-family="Helvetica,sans-Serif" font-size="11.00">kind</text>
<polygon fill="none" stroke="black" points="427.5,-321 427.5,-343 662.5,-343 662.5,-321 427.5,-321"/>
<image xlink:href="../../images/foreignKeys.png" width="11px" height="12px" preserveAspectRatio="xMinYMin meet" x="432.5" y="-338"/>
<text text-anchor="start" x="487.5" y="-329.2" font-family="Helvetica,sans-Serif" font-size="11.00">armature_setting</text>
<polygon fill="none" stroke="black" points="427.5,-299 427.5,-321 662.5,-321 662.5,-299 427.5,-299"/>
<image xlink:href="../../images/foreignKeys.png" width="11px" height="12px" preserveAspectRatio="xMinYMin meet" x="432.5" y="-316"/>
<text text-anchor="start" x="487.5" y="-307.2" font-family="Helvetica,sans-Serif" font-size="11.00">material</text>
<polygon fill="none" stroke="black" points="427.5,-281 427.5,-299 662.5,-299 662.5,-281 427.5,-281"/>
<text text-anchor="start" x="430.5" y="-287.2" font-family="Helvetica,sans-Serif" font-size="11.00">...</text>
<polygon fill="#ffffff" stroke="transparent" points="427.5,-263 427.5,-281 662.5,-281 662.5,-263 427.5,-263"/>
<polygon fill="none" stroke="black" points="427.5,-263 427.5,-281 662.5,-281 662.5,-263 427.5,-263"/>
<polygon fill="#ffffff" stroke="transparent" points="428.5,-264 428.5,-280 504.5,-280 504.5,-264 428.5,-264"/>
<text text-anchor="start" x="430.5" y="-269.2" font-family="Helvetica,sans-Serif" font-size="11.00">&lt; 3</text>
<polygon fill="#ffffff" stroke="transparent" points="504.5,-264 504.5,-280 597.5,-280 597.5,-264 504.5,-264"/>
<text text-anchor="start" x="532.5" y="-269.2" font-family="Helvetica,sans-Serif" font-size="11.00">0 rows</text>
<polygon fill="#ffffff" stroke="transparent" points="597.5,-264 597.5,-280 661.5,-280 661.5,-264 597.5,-264"/>
<text text-anchor="start" x="651.5" y="-269.2" font-family="Helvetica,sans-Serif" font-size="11.00"> &#160;</text>
<polygon fill="black" stroke="black" points="504.5,-264 504.5,-280 504.5,-280 504.5,-264 504.5,-264"/>
<polygon fill="black" stroke="black" points="597.5,-264 597.5,-280 597.5,-280 597.5,-264 597.5,-264"/>
</a>
</g>
</g>
<!-- pipe_point_normal_armature_setting -->
<g id="node2" class="node">
<title>pipe_point_normal_armature_setting</title>
<g id="a_node2"><a xlink:href="../../tables/pipe_point_normal_armature_setting.html" xlink:title="pipe_point_normal_armature_setting" target="_top">
<polygon fill="#ffffff" stroke="transparent" points="8,-37 8,-367 378,-367 378,-37 8,-37"/>
<polygon fill="#f5f5f5" stroke="transparent" points="10,-343 10,-365 376,-365 376,-343 10,-343"/>
<polygon fill="none" stroke="black" points="10,-343 10,-365 376,-365 376,-343 10,-343"/>
<text text-anchor="start" x="15" y="-352.2" font-family="Helvetica,sans-Serif" font-weight="bold" font-size="11.00">pipe_point_normal_armature_setting</text>
<text text-anchor="start" x="334" y="-351.2" font-family="Helvetica,sans-Serif" font-size="11.00">[table]</text>
<polygon fill="none" stroke="black" points="10,-321 10,-343 298,-343 298,-321 10,-321"/>
<image xlink:href="../../images/primaryKeys.png" width="11px" height="12px" preserveAspectRatio="xMinYMin meet" x="15" y="-338"/>
<text text-anchor="start" x="30" y="-329.2" font-family="Helvetica,sans-Serif" font-size="11.00">code</text>
<polygon fill="none" stroke="black" points="298,-321 298,-343 376,-343 376,-321 298,-321"/>
<text text-anchor="start" x="301" y="-329.2" font-family="Helvetica,sans-Serif" font-size="11.00">int4[10]</text>
<polygon fill="none" stroke="black" points="10,-299 10,-321 298,-321 298,-299 10,-299"/>
<text text-anchor="start" x="30" y="-307.2" font-family="Helvetica,sans-Serif" font-size="11.00">vsacode</text>
<polygon fill="none" stroke="black" points="298,-299 298,-321 376,-321 376,-299 298,-299"/>
<text text-anchor="start" x="301" y="-307.2" font-family="Helvetica,sans-Serif" font-size="11.00">int4[10]</text>
<polygon fill="none" stroke="black" points="10,-277 10,-299 298,-299 298,-277 10,-277"/>
<text text-anchor="start" x="30" y="-285.2" font-family="Helvetica,sans-Serif" font-size="11.00">value_en</text>
<polygon fill="none" stroke="black" points="298,-277 298,-299 376,-299 376,-277 298,-277"/>
<text text-anchor="start" x="301" y="-285.2" font-family="Helvetica,sans-Serif" font-size="11.00">varchar[100]</text>
<polygon fill="none" stroke="black" points="10,-255 10,-277 298,-277 298,-255 10,-255"/>
<text text-anchor="start" x="30" y="-263.2" font-family="Helvetica,sans-Serif" font-size="11.00">value_de</text>
<polygon fill="none" stroke="black" points="298,-255 298,-277 376,-277 376,-255 298,-255"/>
<text text-anchor="start" x="301" y="-263.2" font-family="Helvetica,sans-Serif" font-size="11.00">varchar[100]</text>
<polygon fill="none" stroke="black" points="10,-233 10,-255 298,-255 298,-233 10,-233"/>
<text text-anchor="start" x="30" y="-241.2" font-family="Helvetica,sans-Serif" font-size="11.00">value_fr</text>
<polygon fill="none" stroke="black" points="298,-233 298,-255 376,-255 376,-233 298,-233"/>
<text text-anchor="start" x="301" y="-241.2" font-family="Helvetica,sans-Serif" font-size="11.00">varchar[100]</text>
<polygon fill="none" stroke="black" points="10,-211 10,-233 298,-233 298,-211 10,-211"/>
<text text-anchor="start" x="30" y="-219.2" font-family="Helvetica,sans-Serif" font-size="11.00">value_it</text>
<polygon fill="none" stroke="black" points="298,-211 298,-233 376,-233 376,-211 298,-211"/>
<text text-anchor="start" x="301" y="-219.2" font-family="Helvetica,sans-Serif" font-size="11.00">varchar[100]</text>
<polygon fill="none" stroke="black" points="10,-189 10,-211 298,-211 298,-189 10,-189"/>
<text text-anchor="start" x="30" y="-197.2" font-family="Helvetica,sans-Serif" font-size="11.00">value_ro</text>
<polygon fill="none" stroke="black" points="298,-189 298,-211 376,-211 376,-189 298,-189"/>
<text text-anchor="start" x="301" y="-197.2" font-family="Helvetica,sans-Serif" font-size="11.00">varchar[100]</text>
<polygon fill="none" stroke="black" points="10,-167 10,-189 298,-189 298,-167 10,-167"/>
<text text-anchor="start" x="30" y="-175.2" font-family="Helvetica,sans-Serif" font-size="11.00">abbr_en</text>
<polygon fill="none" stroke="black" points="298,-167 298,-189 376,-189 376,-167 298,-167"/>
<text text-anchor="start" x="301" y="-175.2" font-family="Helvetica,sans-Serif" font-size="11.00">varchar[3]</text>
<polygon fill="none" stroke="black" points="10,-145 10,-167 298,-167 298,-145 10,-145"/>
<text text-anchor="start" x="30" y="-153.2" font-family="Helvetica,sans-Serif" font-size="11.00">abbr_de</text>
<polygon fill="none" stroke="black" points="298,-145 298,-167 376,-167 376,-145 298,-145"/>
<text text-anchor="start" x="301" y="-153.2" font-family="Helvetica,sans-Serif" font-size="11.00">varchar[3]</text>
<polygon fill="none" stroke="black" points="10,-123 10,-145 298,-145 298,-123 10,-123"/>
<text text-anchor="start" x="30" y="-131.2" font-family="Helvetica,sans-Serif" font-size="11.00">abbr_fr</text>
<polygon fill="none" stroke="black" points="298,-123 298,-145 376,-145 376,-123 298,-123"/>
<text text-anchor="start" x="301" y="-131.2" font-family="Helvetica,sans-Serif" font-size="11.00">varchar[3]</text>
<polygon fill="none" stroke="black" points="10,-101 10,-123 298,-123 298,-101 10,-101"/>
<text text-anchor="start" x="30" y="-109.2" font-family="Helvetica,sans-Serif" font-size="11.00">abbr_it</text>
<polygon fill="none" stroke="black" points="298,-101 298,-123 376,-123 376,-101 298,-101"/>
<text text-anchor="start" x="301" y="-109.2" font-family="Helvetica,sans-Serif" font-size="11.00">varchar[3]</text>
<polygon fill="none" stroke="black" points="10,-79 10,-101 298,-101 298,-79 10,-79"/>
<text text-anchor="start" x="30" y="-87.2" font-family="Helvetica,sans-Serif" font-size="11.00">abbr_ro</text>
<polygon fill="none" stroke="black" points="298,-79 298,-101 376,-101 376,-79 298,-79"/>
<text text-anchor="start" x="301" y="-87.2" font-family="Helvetica,sans-Serif" font-size="11.00">varchar[3]</text>
<polygon fill="none" stroke="black" points="10,-57 10,-79 298,-79 298,-57 10,-57"/>
<text text-anchor="start" x="30" y="-65.2" font-family="Helvetica,sans-Serif" font-size="11.00">active</text>
<polygon fill="none" stroke="black" points="298,-57 298,-79 376,-79 376,-57 298,-57"/>
<text text-anchor="start" x="301" y="-65.2" font-family="Helvetica,sans-Serif" font-size="11.00">bool[1]</text>
<polygon fill="#ffffff" stroke="transparent" points="10,-39 10,-57 376,-57 376,-39 10,-39"/>
<polygon fill="none" stroke="black" points="10,-39 10,-57 376,-57 376,-39 10,-39"/>
<polygon fill="#ffffff" stroke="transparent" points="11,-40 11,-56 137,-56 137,-40 11,-40"/>
<text text-anchor="start" x="13" y="-45.2" font-family="Helvetica,sans-Serif" font-size="11.00">&lt; 0</text>
<polygon fill="#ffffff" stroke="transparent" points="137,-40 137,-56 250,-56 250,-40 137,-40"/>
<text text-anchor="start" x="189.5" y="-45.2" font-family="Helvetica,sans-Serif" font-size="11.00"> &#160;</text>
<polygon fill="#ffffff" stroke="transparent" points="250,-40 250,-56 375,-56 375,-40 250,-40"/>
<text text-anchor="start" x="353" y="-45.2" font-family="Helvetica,sans-Serif" font-size="11.00">1 &gt;</text>
<polygon fill="black" stroke="black" points="137,-40 137,-56 137,-56 137,-40 137,-40"/>
<polygon fill="black" stroke="black" points="250,-40 250,-56 250,-56 250,-40 250,-40"/>
<polygon fill="none" stroke="black" stroke-width="2" points="9,-38 9,-366 377,-366 377,-38 9,-38"/>
</a>
</g>
</g>
<!-- tdh_od.pipe_point_normal&#45;&gt;pipe_point_normal_armature_setting -->
<g id="edge1" class="edge">
<title>tdh_od.pipe_point_normal:w&#45;&gt;pipe_point_normal_armature_setting:e</title>
<path fill="none" stroke="black" d="M411.84,-332C400.41,-332 393.16,-332 377,-332"/>
<polygon fill="black" stroke="black" points="418.5,-332 426.5,-335.6 422.5,-332 426.5,-332 426.5,-332 426.5,-332 422.5,-332 426.5,-328.4 418.5,-332 418.5,-332"/>
<ellipse fill="none" stroke="black" cx="415.3" cy="-332" rx="3.2" ry="3.2"/>
</g>
</g>
</svg>
