<?xml version="1.0" encoding="UTF-8" standalone="no"?>
<!DOCTYPE svg PUBLIC "-//W3C//DTD SVG 1.1//EN"
 "http://www.w3.org/Graphics/SVG/1.1/DTD/svg11.dtd">
<!-- Generated by graphviz version 2.43.0 (0)
 -->
<!-- Title: oneDegreeRelationshipsDiagram Pages: 1 -->
<svg width="576pt" height="487pt"
 viewBox="0.00 0.00 576.00 487.00" xmlns="http://www.w3.org/2000/svg" xmlns:xlink="http://www.w3.org/1999/xlink">
<g id="graph0" class="graph" transform="scale(1 1) rotate(0) translate(4 483)">
<title>oneDegreeRelationshipsDiagram</title>
<polygon fill="#ffffff" stroke="transparent" points="-4,4 -4,-483 572,-483 572,4 -4,4"/>
<text text-anchor="middle" x="79.5" y="-7.2" font-family="Helvetica,sans-Serif" font-size="11.00">Generated by SchemaSpy</text>
<!-- tdh_od.pipe_section -->
<g id="node1" class="node">
<title>tdh_od.pipe_section</title>
<g id="a_node1"><a xlink:href="../../../tdh_od/tables/pipe_section.html" xlink:title="tdh_od.pipe_section" target="_top">
<polygon fill="#ffffff" stroke="transparent" points="368,-241 368,-475 560,-475 560,-241 368,-241"/>
<polygon fill="#f5f5f5" stroke="transparent" points="368,-453 368,-475 560,-475 560,-453 368,-453"/>
<polygon fill="none" stroke="black" points="368,-453 368,-475 560,-475 560,-453 368,-453"/>
<text text-anchor="start" x="373" y="-462.2" font-family="Helvetica,sans-Serif" font-weight="bold" font-size="11.00">tdh_od.pipe_section</text>
<text text-anchor="start" x="518" y="-461.2" font-family="Helvetica,sans-Serif" font-size="11.00">[table]</text>
<polygon fill="none" stroke="black" points="368,-431 368,-453 560,-453 560,-431 368,-431"/>
<image xlink:href="../../images/foreignKeys.png" width="11px" height="12px" preserveAspectRatio="xMinYMin meet" x="373" y="-448"/>
<text text-anchor="start" x="391" y="-439.2" font-family="Helvetica,sans-Serif" font-size="11.00">horizontal_positioning</text>
<polygon fill="none" stroke="black" points="368,-409 368,-431 560,-431 560,-409 368,-409"/>
<image xlink:href="../../images/foreignKeys.png" width="11px" height="12px" preserveAspectRatio="xMinYMin meet" x="373" y="-426"/>
<text text-anchor="start" x="391" y="-417.2" font-family="Helvetica,sans-Serif" font-size="11.00">status</text>
<polygon fill="none" stroke="black" points="368,-387 368,-409 560,-409 560,-387 368,-387"/>
<image xlink:href="../../images/foreignKeys.png" width="11px" height="12px" preserveAspectRatio="xMinYMin meet" x="373" y="-404"/>
<text text-anchor="start" x="391" y="-395.2" font-family="Helvetica,sans-Serif" font-size="11.00">function</text>
<polygon fill="none" stroke="black" points="368,-365 368,-387 560,-387 560,-365 368,-365"/>
<image xlink:href="../../images/foreignKeys.png" width="11px" height="12px" preserveAspectRatio="xMinYMin meet" x="373" y="-382"/>
<text text-anchor="start" x="391" y="-373.2" font-family="Helvetica,sans-Serif" font-size="11.00">pipe_type</text>
<polygon fill="none" stroke="black" points="368,-343 368,-365 560,-365 560,-343 368,-343"/>
<image xlink:href="../../images/foreignKeys.png" width="11px" height="12px" preserveAspectRatio="xMinYMin meet" x="373" y="-360"/>
<text text-anchor="start" x="391" y="-351.2" font-family="Helvetica,sans-Serif" font-size="11.00">fluent</text>
<polygon fill="none" stroke="black" points="368,-321 368,-343 560,-343 560,-321 368,-321"/>
<image xlink:href="../../images/foreignKeys.png" width="11px" height="12px" preserveAspectRatio="xMinYMin meet" x="373" y="-338"/>
<text text-anchor="start" x="391" y="-329.2" font-family="Helvetica,sans-Serif" font-size="11.00">insulation_kind</text>
<polygon fill="none" stroke="black" points="368,-299 368,-321 560,-321 560,-299 368,-299"/>
<image xlink:href="../../images/foreignKeys.png" width="11px" height="12px" preserveAspectRatio="xMinYMin meet" x="373" y="-316"/>
<text text-anchor="start" x="391" y="-307.2" font-family="Helvetica,sans-Serif" font-size="11.00">coating</text>
<polygon fill="none" stroke="black" points="368,-277 368,-299 560,-299 560,-277 368,-277"/>
<image xlink:href="../../images/foreignKeys.png" width="11px" height="12px" preserveAspectRatio="xMinYMin meet" x="373" y="-294"/>
<text text-anchor="start" x="391" y="-285.2" font-family="Helvetica,sans-Serif" font-size="11.00">pipeline_quality</text>
<polygon fill="none" stroke="black" points="368,-259 368,-277 560,-277 560,-259 368,-259"/>
<text text-anchor="start" x="371" y="-265.2" font-family="Helvetica,sans-Serif" font-size="11.00">...</text>
<polygon fill="#ffffff" stroke="transparent" points="368,-241 368,-259 560,-259 560,-241 368,-241"/>
<polygon fill="none" stroke="black" points="368,-241 368,-259 560,-259 560,-241 368,-241"/>
<polygon fill="#ffffff" stroke="transparent" points="369,-242 369,-258 431,-258 431,-242 369,-242"/>
<text text-anchor="start" x="371" y="-247.2" font-family="Helvetica,sans-Serif" font-size="11.00">&lt; 8</text>
<polygon fill="#ffffff" stroke="transparent" points="431,-242 431,-258 510,-258 510,-242 431,-242"/>
<text text-anchor="start" x="452" y="-247.2" font-family="Helvetica,sans-Serif" font-size="11.00">0 rows</text>
<polygon fill="#ffffff" stroke="transparent" points="510,-242 510,-258 559,-258 559,-242 510,-242"/>
<text text-anchor="start" x="549" y="-247.2" font-family="Helvetica,sans-Serif" font-size="11.00"> &#160;</text>
<polygon fill="black" stroke="black" points="431,-242 431,-258 431,-258 431,-242 431,-242"/>
<polygon fill="black" stroke="black" points="510,-242 510,-258 510,-258 510,-242 510,-242"/>
</a>
</g>
</g>
<!-- pipe_section_insulation_kind -->
<g id="node2" class="node">
<title>pipe_section_insulation_kind</title>
<g id="a_node2"><a xlink:href="../../tables/pipe_section_insulation_kind.html" xlink:title="pipe_section_insulation_kind" target="_top">
<polygon fill="#ffffff" stroke="transparent" points="8,-37 8,-367 319,-367 319,-37 8,-37"/>
<polygon fill="#f5f5f5" stroke="transparent" points="10.5,-343 10.5,-365 317.5,-365 317.5,-343 10.5,-343"/>
<polygon fill="none" stroke="black" points="10.5,-343 10.5,-365 317.5,-365 317.5,-343 10.5,-343"/>
<text text-anchor="start" x="15.5" y="-352.2" font-family="Helvetica,sans-Serif" font-weight="bold" font-size="11.00">pipe_section_insulation_kind</text>
<text text-anchor="start" x="275.5" y="-351.2" font-family="Helvetica,sans-Serif" font-size="11.00">[table]</text>
<polygon fill="none" stroke="black" points="10.5,-321 10.5,-343 239.5,-343 239.5,-321 10.5,-321"/>
<image xlink:href="../../images/primaryKeys.png" width="11px" height="12px" preserveAspectRatio="xMinYMin meet" x="15.5" y="-338"/>
<text text-anchor="start" x="30.5" y="-329.2" font-family="Helvetica,sans-Serif" font-size="11.00">code</text>
<polygon fill="none" stroke="black" points="239.5,-321 239.5,-343 317.5,-343 317.5,-321 239.5,-321"/>
<text text-anchor="start" x="242.5" y="-329.2" font-family="Helvetica,sans-Serif" font-size="11.00">int4[10]</text>
<polygon fill="none" stroke="black" points="10.5,-299 10.5,-321 239.5,-321 239.5,-299 10.5,-299"/>
<text text-anchor="start" x="30.5" y="-307.2" font-family="Helvetica,sans-Serif" font-size="11.00">vsacode</text>
<polygon fill="none" stroke="black" points="239.5,-299 239.5,-321 317.5,-321 317.5,-299 239.5,-299"/>
<text text-anchor="start" x="242.5" y="-307.2" font-family="Helvetica,sans-Serif" font-size="11.00">int4[10]</text>
<polygon fill="none" stroke="black" points="10.5,-277 10.5,-299 239.5,-299 239.5,-277 10.5,-277"/>
<text text-anchor="start" x="30.5" y="-285.2" font-family="Helvetica,sans-Serif" font-size="11.00">value_en</text>
<polygon fill="none" stroke="black" points="239.5,-277 239.5,-299 317.5,-299 317.5,-277 239.5,-277"/>
<text text-anchor="start" x="242.5" y="-285.2" font-family="Helvetica,sans-Serif" font-size="11.00">varchar[100]</text>
<polygon fill="none" stroke="black" points="10.5,-255 10.5,-277 239.5,-277 239.5,-255 10.5,-255"/>
<text text-anchor="start" x="30.5" y="-263.2" font-family="Helvetica,sans-Serif" font-size="11.00">value_de</text>
<polygon fill="none" stroke="black" points="239.5,-255 239.5,-277 317.5,-277 317.5,-255 239.5,-255"/>
<text text-anchor="start" x="242.5" y="-263.2" font-family="Helvetica,sans-Serif" font-size="11.00">varchar[100]</text>
<polygon fill="none" stroke="black" points="10.5,-233 10.5,-255 239.5,-255 239.5,-233 10.5,-233"/>
<text text-anchor="start" x="30.5" y="-241.2" font-family="Helvetica,sans-Serif" font-size="11.00">value_fr</text>
<polygon fill="none" stroke="black" points="239.5,-233 239.5,-255 317.5,-255 317.5,-233 239.5,-233"/>
<text text-anchor="start" x="242.5" y="-241.2" font-family="Helvetica,sans-Serif" font-size="11.00">varchar[100]</text>
<polygon fill="none" stroke="black" points="10.5,-211 10.5,-233 239.5,-233 239.5,-211 10.5,-211"/>
<text text-anchor="start" x="30.5" y="-219.2" font-family="Helvetica,sans-Serif" font-size="11.00">value_it</text>
<polygon fill="none" stroke="black" points="239.5,-211 239.5,-233 317.5,-233 317.5,-211 239.5,-211"/>
<text text-anchor="start" x="242.5" y="-219.2" font-family="Helvetica,sans-Serif" font-size="11.00">varchar[100]</text>
<polygon fill="none" stroke="black" points="10.5,-189 10.5,-211 239.5,-211 239.5,-189 10.5,-189"/>
<text text-anchor="start" x="30.5" y="-197.2" font-family="Helvetica,sans-Serif" font-size="11.00">value_ro</text>
<polygon fill="none" stroke="black" points="239.5,-189 239.5,-211 317.5,-211 317.5,-189 239.5,-189"/>
<text text-anchor="start" x="242.5" y="-197.2" font-family="Helvetica,sans-Serif" font-size="11.00">varchar[100]</text>
<polygon fill="none" stroke="black" points="10.5,-167 10.5,-189 239.5,-189 239.5,-167 10.5,-167"/>
<text text-anchor="start" x="30.5" y="-175.2" font-family="Helvetica,sans-Serif" font-size="11.00">abbr_en</text>
<polygon fill="none" stroke="black" points="239.5,-167 239.5,-189 317.5,-189 317.5,-167 239.5,-167"/>
<text text-anchor="start" x="242.5" y="-175.2" font-family="Helvetica,sans-Serif" font-size="11.00">varchar[3]</text>
<polygon fill="none" stroke="black" points="10.5,-145 10.5,-167 239.5,-167 239.5,-145 10.5,-145"/>
<text text-anchor="start" x="30.5" y="-153.2" font-family="Helvetica,sans-Serif" font-size="11.00">abbr_de</text>
<polygon fill="none" stroke="black" points="239.5,-145 239.5,-167 317.5,-167 317.5,-145 239.5,-145"/>
<text text-anchor="start" x="242.5" y="-153.2" font-family="Helvetica,sans-Serif" font-size="11.00">varchar[3]</text>
<polygon fill="none" stroke="black" points="10.5,-123 10.5,-145 239.5,-145 239.5,-123 10.5,-123"/>
<text text-anchor="start" x="30.5" y="-131.2" font-family="Helvetica,sans-Serif" font-size="11.00">abbr_fr</text>
<polygon fill="none" stroke="black" points="239.5,-123 239.5,-145 317.5,-145 317.5,-123 239.5,-123"/>
<text text-anchor="start" x="242.5" y="-131.2" font-family="Helvetica,sans-Serif" font-size="11.00">varchar[3]</text>
<polygon fill="none" stroke="black" points="10.5,-101 10.5,-123 239.5,-123 239.5,-101 10.5,-101"/>
<text text-anchor="start" x="30.5" y="-109.2" font-family="Helvetica,sans-Serif" font-size="11.00">abbr_it</text>
<polygon fill="none" stroke="black" points="239.5,-101 239.5,-123 317.5,-123 317.5,-101 239.5,-101"/>
<text text-anchor="start" x="242.5" y="-109.2" font-family="Helvetica,sans-Serif" font-size="11.00">varchar[3]</text>
<polygon fill="none" stroke="black" points="10.5,-79 10.5,-101 239.5,-101 239.5,-79 10.5,-79"/>
<text text-anchor="start" x="30.5" y="-87.2" font-family="Helvetica,sans-Serif" font-size="11.00">abbr_ro</text>
<polygon fill="none" stroke="black" points="239.5,-79 239.5,-101 317.5,-101 317.5,-79 239.5,-79"/>
<text text-anchor="start" x="242.5" y="-87.2" font-family="Helvetica,sans-Serif" font-size="11.00">varchar[3]</text>
<polygon fill="none" stroke="black" points="10.5,-57 10.5,-79 239.5,-79 239.5,-57 10.5,-57"/>
<text text-anchor="start" x="30.5" y="-65.2" font-family="Helvetica,sans-Serif" font-size="11.00">active</text>
<polygon fill="none" stroke="black" points="239.5,-57 239.5,-79 317.5,-79 317.5,-57 239.5,-57"/>
<text text-anchor="start" x="242.5" y="-65.2" font-family="Helvetica,sans-Serif" font-size="11.00">bool[1]</text>
<polygon fill="#ffffff" stroke="transparent" points="10.5,-39 10.5,-57 317.5,-57 317.5,-39 10.5,-39"/>
<polygon fill="none" stroke="black" points="10.5,-39 10.5,-57 317.5,-57 317.5,-39 10.5,-39"/>
<polygon fill="#ffffff" stroke="transparent" points="11.5,-40 11.5,-56 117.5,-56 117.5,-40 11.5,-40"/>
<text text-anchor="start" x="13.5" y="-45.2" font-family="Helvetica,sans-Serif" font-size="11.00">&lt; 0</text>
<polygon fill="#ffffff" stroke="transparent" points="117.5,-40 117.5,-56 211.5,-56 211.5,-40 117.5,-40"/>
<text text-anchor="start" x="160.5" y="-45.2" font-family="Helvetica,sans-Serif" font-size="11.00"> &#160;</text>
<polygon fill="#ffffff" stroke="transparent" points="211.5,-40 211.5,-56 316.5,-56 316.5,-40 211.5,-40"/>
<text text-anchor="start" x="294.5" y="-45.2" font-family="Helvetica,sans-Serif" font-size="11.00">1 &gt;</text>
<polygon fill="black" stroke="black" points="117.5,-40 117.5,-56 117.5,-56 117.5,-40 117.5,-40"/>
<polygon fill="black" stroke="black" points="211.5,-40 211.5,-56 211.5,-56 211.5,-40 211.5,-40"/>
<polygon fill="none" stroke="black" stroke-width="2" points="9,-38 9,-366 318,-366 318,-38 9,-38"/>
</a>
</g>
</g>
<!-- tdh_od.pipe_section&#45;&gt;pipe_section_insulation_kind -->
<g id="edge1" class="edge">
<title>tdh_od.pipe_section:w&#45;&gt;pipe_section_insulation_kind:e</title>
<path fill="none" stroke="black" d="M352.28,-332C341.29,-332 334.16,-332 318.5,-332"/>
<polygon fill="black" stroke="black" points="359,-332 367,-335.6 363,-332 367,-332 367,-332 367,-332 363,-332 367,-328.4 359,-332 359,-332"/>
<ellipse fill="none" stroke="black" cx="355.8" cy="-332" rx="3.2" ry="3.2"/>
</g>
</g>
</svg>
