<?xml version="1.0" encoding="UTF-8" standalone="no"?>
<!DOCTYPE svg PUBLIC "-//W3C//DTD SVG 1.1//EN"
 "http://www.w3.org/Graphics/SVG/1.1/DTD/svg11.dtd">
<!-- Generated by graphviz version 2.43.0 (0)
 -->
<!-- Title: oneDegreeRelationshipsDiagram Pages: 1 -->
<svg width="666pt" height="619pt"
 viewBox="0.00 0.00 666.00 619.00" xmlns="http://www.w3.org/2000/svg" xmlns:xlink="http://www.w3.org/1999/xlink">
<g id="graph0" class="graph" transform="scale(1 1) rotate(0) translate(4 615)">
<title>oneDegreeRelationshipsDiagram</title>
<polygon fill="#ffffff" stroke="transparent" points="-4,4 -4,-615 662,-615 662,4 -4,4"/>
<text text-anchor="middle" x="79.5" y="-7.2" font-family="Helvetica,sans-Serif" font-size="11.00">Generated by SchemaSpy</text>
<!-- tdh_od.pipe_point -->
<g id="node1" class="node">
<title>tdh_od.pipe_point</title>
<g id="a_node1"><a xlink:href="../../../tdh_od/tables/pipe_point.html" xlink:title="tdh_od.pipe_point" target="_top">
<polygon fill="#ffffff" stroke="transparent" points="450,-505 450,-607 650,-607 650,-505 450,-505"/>
<polygon fill="#f5f5f5" stroke="transparent" points="450,-585 450,-607 650,-607 650,-585 450,-585"/>
<polygon fill="none" stroke="black" points="450,-585 450,-607 650,-607 650,-585 450,-585"/>
<text text-anchor="start" x="455" y="-594.2" font-family="Helvetica,sans-Serif" font-weight="bold" font-size="11.00">tdh_od.pipe_point</text>
<text text-anchor="start" x="608" y="-593.2" font-family="Helvetica,sans-Serif" font-size="11.00">[table]</text>
<polygon fill="none" stroke="black" points="450,-563 450,-585 650,-585 650,-563 450,-563"/>
<image xlink:href="../../images/foreignKeys.png" width="11px" height="12px" preserveAspectRatio="xMinYMin meet" x="455" y="-580"/>
<text text-anchor="start" x="470" y="-571.2" font-family="Helvetica,sans-Serif" font-size="11.00">horizontal_positioning</text>
<polygon fill="none" stroke="black" points="450,-541 450,-563 650,-563 650,-541 450,-541"/>
<image xlink:href="../../images/foreignKeys.png" width="11px" height="12px" preserveAspectRatio="xMinYMin meet" x="455" y="-558"/>
<text text-anchor="start" x="470" y="-549.2" font-family="Helvetica,sans-Serif" font-size="11.00">elevation_determination</text>
<polygon fill="none" stroke="black" points="450,-523 450,-541 650,-541 650,-523 450,-523"/>
<text text-anchor="start" x="453" y="-529.2" font-family="Helvetica,sans-Serif" font-size="11.00">...</text>
<polygon fill="#ffffff" stroke="transparent" points="450,-505 450,-523 650,-523 650,-505 450,-505"/>
<polygon fill="none" stroke="black" points="450,-505 450,-523 650,-523 650,-505 450,-505"/>
<polygon fill="#ffffff" stroke="transparent" points="451,-506 451,-522 516,-522 516,-506 451,-506"/>
<text text-anchor="start" x="453" y="-511.2" font-family="Helvetica,sans-Serif" font-size="11.00">&lt; 2</text>
<polygon fill="#ffffff" stroke="transparent" points="516,-506 516,-522 597,-522 597,-506 516,-506"/>
<text text-anchor="start" x="538" y="-511.2" font-family="Helvetica,sans-Serif" font-size="11.00">0 rows</text>
<polygon fill="#ffffff" stroke="transparent" points="597,-506 597,-522 649,-522 649,-506 597,-506"/>
<text text-anchor="start" x="639" y="-511.2" font-family="Helvetica,sans-Serif" font-size="11.00"> &#160;</text>
<polygon fill="black" stroke="black" points="516,-506 516,-522 516,-522 516,-506 516,-506"/>
<polygon fill="black" stroke="black" points="597,-506 597,-522 597,-522 597,-506 597,-506"/>
</a>
</g>
</g>
<!-- pipe_point_elevation_determination -->
<g id="node2" class="node">
<title>pipe_point_elevation_determination</title>
<g id="a_node2"><a xlink:href="../../tables/pipe_point_elevation_determination.html" xlink:title="pipe_point_elevation_determination" target="_top">
<polygon fill="#ffffff" stroke="transparent" points="8,-37 8,-587 401,-587 401,-37 8,-37"/>
<polygon fill="#f5f5f5" stroke="transparent" points="10.5,-563 10.5,-585 399.5,-585 399.5,-563 10.5,-563"/>
<polygon fill="none" stroke="black" points="10.5,-563 10.5,-585 399.5,-585 399.5,-563 10.5,-563"/>
<text text-anchor="start" x="15.5" y="-572.2" font-family="Helvetica,sans-Serif" font-weight="bold" font-size="11.00">pipe_point_elevation_determination</text>
<text text-anchor="start" x="357.5" y="-571.2" font-family="Helvetica,sans-Serif" font-size="11.00">[table]</text>
<polygon fill="none" stroke="black" points="10.5,-541 10.5,-563 293.5,-563 293.5,-541 10.5,-541"/>
<image xlink:href="../../images/primaryKeys.png" width="11px" height="12px" preserveAspectRatio="xMinYMin meet" x="15.5" y="-558"/>
<text text-anchor="start" x="30.5" y="-549.2" font-family="Helvetica,sans-Serif" font-size="11.00">code</text>
<polygon fill="none" stroke="black" points="293.5,-541 293.5,-563 399.5,-563 399.5,-541 293.5,-541"/>
<text text-anchor="start" x="296.5" y="-549.2" font-family="Helvetica,sans-Serif" font-size="11.00">int4[10]</text>
<polygon fill="none" stroke="black" points="10.5,-519 10.5,-541 293.5,-541 293.5,-519 10.5,-519"/>
<text text-anchor="start" x="30.5" y="-527.2" font-family="Helvetica,sans-Serif" font-size="11.00">vsacode</text>
<polygon fill="none" stroke="black" points="293.5,-519 293.5,-541 399.5,-541 399.5,-519 293.5,-519"/>
<text text-anchor="start" x="296.5" y="-527.2" font-family="Helvetica,sans-Serif" font-size="11.00">int4[10]</text>
<polygon fill="none" stroke="black" points="10.5,-497 10.5,-519 293.5,-519 293.5,-497 10.5,-497"/>
<text text-anchor="start" x="30.5" y="-505.2" font-family="Helvetica,sans-Serif" font-size="11.00">value_en</text>
<polygon fill="none" stroke="black" points="293.5,-497 293.5,-519 399.5,-519 399.5,-497 293.5,-497"/>
<text text-anchor="start" x="296.5" y="-505.2" font-family="Helvetica,sans-Serif" font-size="11.00">varchar[100]</text>
<polygon fill="none" stroke="black" points="10.5,-475 10.5,-497 293.5,-497 293.5,-475 10.5,-475"/>
<text text-anchor="start" x="30.5" y="-483.2" font-family="Helvetica,sans-Serif" font-size="11.00">value_de</text>
<polygon fill="none" stroke="black" points="293.5,-475 293.5,-497 399.5,-497 399.5,-475 293.5,-475"/>
<text text-anchor="start" x="296.5" y="-483.2" font-family="Helvetica,sans-Serif" font-size="11.00">varchar[100]</text>
<polygon fill="none" stroke="black" points="10.5,-453 10.5,-475 293.5,-475 293.5,-453 10.5,-453"/>
<text text-anchor="start" x="30.5" y="-461.2" font-family="Helvetica,sans-Serif" font-size="11.00">value_fr</text>
<polygon fill="none" stroke="black" points="293.5,-453 293.5,-475 399.5,-475 399.5,-453 293.5,-453"/>
<text text-anchor="start" x="296.5" y="-461.2" font-family="Helvetica,sans-Serif" font-size="11.00">varchar[100]</text>
<polygon fill="none" stroke="black" points="10.5,-431 10.5,-453 293.5,-453 293.5,-431 10.5,-431"/>
<text text-anchor="start" x="30.5" y="-439.2" font-family="Helvetica,sans-Serif" font-size="11.00">value_it</text>
<polygon fill="none" stroke="black" points="293.5,-431 293.5,-453 399.5,-453 399.5,-431 293.5,-431"/>
<text text-anchor="start" x="296.5" y="-439.2" font-family="Helvetica,sans-Serif" font-size="11.00">varchar[100]</text>
<polygon fill="none" stroke="black" points="10.5,-409 10.5,-431 293.5,-431 293.5,-409 10.5,-409"/>
<text text-anchor="start" x="30.5" y="-417.2" font-family="Helvetica,sans-Serif" font-size="11.00">value_ro</text>
<polygon fill="none" stroke="black" points="293.5,-409 293.5,-431 399.5,-431 399.5,-409 293.5,-409"/>
<text text-anchor="start" x="296.5" y="-417.2" font-family="Helvetica,sans-Serif" font-size="11.00">varchar[100]</text>
<polygon fill="none" stroke="black" points="10.5,-387 10.5,-409 293.5,-409 293.5,-387 10.5,-387"/>
<text text-anchor="start" x="30.5" y="-395.2" font-family="Helvetica,sans-Serif" font-size="11.00">abbr_en</text>
<polygon fill="none" stroke="black" points="293.5,-387 293.5,-409 399.5,-409 399.5,-387 293.5,-387"/>
<text text-anchor="start" x="296.5" y="-395.2" font-family="Helvetica,sans-Serif" font-size="11.00">varchar[3]</text>
<polygon fill="none" stroke="black" points="10.5,-365 10.5,-387 293.5,-387 293.5,-365 10.5,-365"/>
<text text-anchor="start" x="30.5" y="-373.2" font-family="Helvetica,sans-Serif" font-size="11.00">abbr_de</text>
<polygon fill="none" stroke="black" points="293.5,-365 293.5,-387 399.5,-387 399.5,-365 293.5,-365"/>
<text text-anchor="start" x="296.5" y="-373.2" font-family="Helvetica,sans-Serif" font-size="11.00">varchar[3]</text>
<polygon fill="none" stroke="black" points="10.5,-343 10.5,-365 293.5,-365 293.5,-343 10.5,-343"/>
<text text-anchor="start" x="30.5" y="-351.2" font-family="Helvetica,sans-Serif" font-size="11.00">abbr_fr</text>
<polygon fill="none" stroke="black" points="293.5,-343 293.5,-365 399.5,-365 399.5,-343 293.5,-343"/>
<text text-anchor="start" x="296.5" y="-351.2" font-family="Helvetica,sans-Serif" font-size="11.00">varchar[3]</text>
<polygon fill="none" stroke="black" points="10.5,-321 10.5,-343 293.5,-343 293.5,-321 10.5,-321"/>
<text text-anchor="start" x="30.5" y="-329.2" font-family="Helvetica,sans-Serif" font-size="11.00">abbr_it</text>
<polygon fill="none" stroke="black" points="293.5,-321 293.5,-343 399.5,-343 399.5,-321 293.5,-321"/>
<text text-anchor="start" x="296.5" y="-329.2" font-family="Helvetica,sans-Serif" font-size="11.00">varchar[3]</text>
<polygon fill="none" stroke="black" points="10.5,-299 10.5,-321 293.5,-321 293.5,-299 10.5,-299"/>
<text text-anchor="start" x="30.5" y="-307.2" font-family="Helvetica,sans-Serif" font-size="11.00">abbr_ro</text>
<polygon fill="none" stroke="black" points="293.5,-299 293.5,-321 399.5,-321 399.5,-299 293.5,-299"/>
<text text-anchor="start" x="296.5" y="-307.2" font-family="Helvetica,sans-Serif" font-size="11.00">varchar[3]</text>
<polygon fill="none" stroke="black" points="10.5,-277 10.5,-299 293.5,-299 293.5,-277 10.5,-277"/>
<text text-anchor="start" x="30.5" y="-285.2" font-family="Helvetica,sans-Serif" font-size="11.00">description_en</text>
<polygon fill="none" stroke="black" points="293.5,-277 293.5,-299 399.5,-299 399.5,-277 293.5,-277"/>
<text text-anchor="start" x="296.5" y="-285.2" font-family="Helvetica,sans-Serif" font-size="11.00">text[2147483647]</text>
<polygon fill="none" stroke="black" points="10.5,-255 10.5,-277 293.5,-277 293.5,-255 10.5,-255"/>
<text text-anchor="start" x="30.5" y="-263.2" font-family="Helvetica,sans-Serif" font-size="11.00">description_de</text>
<polygon fill="none" stroke="black" points="293.5,-255 293.5,-277 399.5,-277 399.5,-255 293.5,-255"/>
<text text-anchor="start" x="296.5" y="-263.2" font-family="Helvetica,sans-Serif" font-size="11.00">text[2147483647]</text>
<polygon fill="none" stroke="black" points="10.5,-233 10.5,-255 293.5,-255 293.5,-233 10.5,-233"/>
<text text-anchor="start" x="30.5" y="-241.2" font-family="Helvetica,sans-Serif" font-size="11.00">description_fr</text>
<polygon fill="none" stroke="black" points="293.5,-233 293.5,-255 399.5,-255 399.5,-233 293.5,-233"/>
<text text-anchor="start" x="296.5" y="-241.2" font-family="Helvetica,sans-Serif" font-size="11.00">text[2147483647]</text>
<polygon fill="none" stroke="black" points="10.5,-211 10.5,-233 293.5,-233 293.5,-211 10.5,-211"/>
<text text-anchor="start" x="30.5" y="-219.2" font-family="Helvetica,sans-Serif" font-size="11.00">description_it</text>
<polygon fill="none" stroke="black" points="293.5,-211 293.5,-233 399.5,-233 399.5,-211 293.5,-211"/>
<text text-anchor="start" x="296.5" y="-219.2" font-family="Helvetica,sans-Serif" font-size="11.00">text[2147483647]</text>
<polygon fill="none" stroke="black" points="10.5,-189 10.5,-211 293.5,-211 293.5,-189 10.5,-189"/>
<text text-anchor="start" x="30.5" y="-197.2" font-family="Helvetica,sans-Serif" font-size="11.00">description_ro</text>
<polygon fill="none" stroke="black" points="293.5,-189 293.5,-211 399.5,-211 399.5,-189 293.5,-189"/>
<text text-anchor="start" x="296.5" y="-197.2" font-family="Helvetica,sans-Serif" font-size="11.00">text[2147483647]</text>
<polygon fill="none" stroke="black" points="10.5,-167 10.5,-189 293.5,-189 293.5,-167 10.5,-167"/>
<text text-anchor="start" x="30.5" y="-175.2" font-family="Helvetica,sans-Serif" font-size="11.00">display_en</text>
<polygon fill="none" stroke="black" points="293.5,-167 293.5,-189 399.5,-189 399.5,-167 293.5,-167"/>
<text text-anchor="start" x="296.5" y="-175.2" font-family="Helvetica,sans-Serif" font-size="11.00">varchar[100]</text>
<polygon fill="none" stroke="black" points="10.5,-145 10.5,-167 293.5,-167 293.5,-145 10.5,-145"/>
<text text-anchor="start" x="30.5" y="-153.2" font-family="Helvetica,sans-Serif" font-size="11.00">display_de</text>
<polygon fill="none" stroke="black" points="293.5,-145 293.5,-167 399.5,-167 399.5,-145 293.5,-145"/>
<text text-anchor="start" x="296.5" y="-153.2" font-family="Helvetica,sans-Serif" font-size="11.00">varchar[100]</text>
<polygon fill="none" stroke="black" points="10.5,-123 10.5,-145 293.5,-145 293.5,-123 10.5,-123"/>
<text text-anchor="start" x="30.5" y="-131.2" font-family="Helvetica,sans-Serif" font-size="11.00">display_fr</text>
<polygon fill="none" stroke="black" points="293.5,-123 293.5,-145 399.5,-145 399.5,-123 293.5,-123"/>
<text text-anchor="start" x="296.5" y="-131.2" font-family="Helvetica,sans-Serif" font-size="11.00">varchar[100]</text>
<polygon fill="none" stroke="black" points="10.5,-101 10.5,-123 293.5,-123 293.5,-101 10.5,-101"/>
<text text-anchor="start" x="30.5" y="-109.2" font-family="Helvetica,sans-Serif" font-size="11.00">display_it</text>
<polygon fill="none" stroke="black" points="293.5,-101 293.5,-123 399.5,-123 399.5,-101 293.5,-101"/>
<text text-anchor="start" x="296.5" y="-109.2" font-family="Helvetica,sans-Serif" font-size="11.00">varchar[100]</text>
<polygon fill="none" stroke="black" points="10.5,-79 10.5,-101 293.5,-101 293.5,-79 10.5,-79"/>
<text text-anchor="start" x="30.5" y="-87.2" font-family="Helvetica,sans-Serif" font-size="11.00">display_ro</text>
<polygon fill="none" stroke="black" points="293.5,-79 293.5,-101 399.5,-101 399.5,-79 293.5,-79"/>
<text text-anchor="start" x="296.5" y="-87.2" font-family="Helvetica,sans-Serif" font-size="11.00">varchar[100]</text>
<polygon fill="none" stroke="black" points="10.5,-57 10.5,-79 293.5,-79 293.5,-57 10.5,-57"/>
<text text-anchor="start" x="30.5" y="-65.2" font-family="Helvetica,sans-Serif" font-size="11.00">active</text>
<polygon fill="none" stroke="black" points="293.5,-57 293.5,-79 399.5,-79 399.5,-57 293.5,-57"/>
<text text-anchor="start" x="296.5" y="-65.2" font-family="Helvetica,sans-Serif" font-size="11.00">bool[1]</text>
<polygon fill="#ffffff" stroke="transparent" points="10.5,-39 10.5,-57 399.5,-57 399.5,-39 10.5,-39"/>
<polygon fill="none" stroke="black" points="10.5,-39 10.5,-57 399.5,-57 399.5,-39 10.5,-39"/>
<polygon fill="#ffffff" stroke="transparent" points="11.5,-40 11.5,-56 144.5,-56 144.5,-40 11.5,-40"/>
<text text-anchor="start" x="13.5" y="-45.2" font-family="Helvetica,sans-Serif" font-size="11.00">&lt; 0</text>
<polygon fill="#ffffff" stroke="transparent" points="144.5,-40 144.5,-56 265.5,-56 265.5,-40 144.5,-40"/>
<text text-anchor="start" x="201" y="-45.2" font-family="Helvetica,sans-Serif" font-size="11.00"> &#160;</text>
<polygon fill="#ffffff" stroke="transparent" points="265.5,-40 265.5,-56 398.5,-56 398.5,-40 265.5,-40"/>
<text text-anchor="start" x="376.5" y="-45.2" font-family="Helvetica,sans-Serif" font-size="11.00">1 &gt;</text>
<polygon fill="black" stroke="black" points="144.5,-40 144.5,-56 144.5,-56 144.5,-40 144.5,-40"/>
<polygon fill="black" stroke="black" points="265.5,-40 265.5,-56 265.5,-56 265.5,-40 265.5,-40"/>
<polygon fill="none" stroke="black" stroke-width="2" points="9,-38 9,-586 400,-586 400,-38 9,-38"/>
</a>
</g>
</g>
<!-- tdh_od.pipe_point&#45;&gt;pipe_point_elevation_determination -->
<g id="edge1" class="edge">
<title>tdh_od.pipe_point:w&#45;&gt;pipe_point_elevation_determination:e</title>
<path fill="none" stroke="black" d="M434.28,-552C423.29,-552 416.16,-552 400.5,-552"/>
<polygon fill="black" stroke="black" points="441,-552 449,-555.6 445,-552 449,-552 449,-552 449,-552 445,-552 449,-548.4 441,-552 441,-552"/>
<ellipse fill="none" stroke="black" cx="437.8" cy="-552" rx="3.2" ry="3.2"/>
</g>
</g>
</svg>
