<?xml version="1.0" encoding="UTF-8" standalone="no"?>
<!DOCTYPE svg PUBLIC "-//W3C//DTD SVG 1.1//EN"
 "http://www.w3.org/Graphics/SVG/1.1/DTD/svg11.dtd">
<!-- Generated by graphviz version 2.43.0 (0)
 -->
<!-- Title: oneDegreeRelationshipsDiagram Pages: 1 -->
<svg width="604pt" height="707pt"
 viewBox="0.00 0.00 604.00 707.00" xmlns="http://www.w3.org/2000/svg" xmlns:xlink="http://www.w3.org/1999/xlink">
<g id="graph0" class="graph" transform="scale(1 1) rotate(0) translate(4 703)">
<title>oneDegreeRelationshipsDiagram</title>
<polygon fill="#ffffff" stroke="transparent" points="-4,4 -4,-703 600,-703 600,4 -4,4"/>
<text text-anchor="middle" x="79.5" y="-7.2" font-family="Helvetica,sans-Serif" font-size="11.00">Generated by SchemaSpy</text>
<!-- tdh_od.pipe_section -->
<g id="node1" class="node">
<title>tdh_od.pipe_section</title>
<g id="a_node1"><a xlink:href="../../../tdh_od/tables/pipe_section.html" xlink:title="tdh_od.pipe_section" target="_top">
<polygon fill="#ffffff" stroke="transparent" points="396,-461 396,-695 588,-695 588,-461 396,-461"/>
<polygon fill="#f5f5f5" stroke="transparent" points="396,-673 396,-695 588,-695 588,-673 396,-673"/>
<polygon fill="none" stroke="black" points="396,-673 396,-695 588,-695 588,-673 396,-673"/>
<text text-anchor="start" x="401" y="-682.2" font-family="Helvetica,sans-Serif" font-weight="bold" font-size="11.00">tdh_od.pipe_section</text>
<text text-anchor="start" x="546" y="-681.2" font-family="Helvetica,sans-Serif" font-size="11.00">[table]</text>
<polygon fill="none" stroke="black" points="396,-651 396,-673 588,-673 588,-651 396,-651"/>
<image xlink:href="../../images/foreignKeys.png" width="11px" height="12px" preserveAspectRatio="xMinYMin meet" x="401" y="-668"/>
<text text-anchor="start" x="419" y="-659.2" font-family="Helvetica,sans-Serif" font-size="11.00">horizontal_positioning</text>
<polygon fill="none" stroke="black" points="396,-629 396,-651 588,-651 588,-629 396,-629"/>
<image xlink:href="../../images/foreignKeys.png" width="11px" height="12px" preserveAspectRatio="xMinYMin meet" x="401" y="-646"/>
<text text-anchor="start" x="419" y="-637.2" font-family="Helvetica,sans-Serif" font-size="11.00">status</text>
<polygon fill="none" stroke="black" points="396,-607 396,-629 588,-629 588,-607 396,-607"/>
<image xlink:href="../../images/foreignKeys.png" width="11px" height="12px" preserveAspectRatio="xMinYMin meet" x="401" y="-624"/>
<text text-anchor="start" x="419" y="-615.2" font-family="Helvetica,sans-Serif" font-size="11.00">function</text>
<polygon fill="none" stroke="black" points="396,-585 396,-607 588,-607 588,-585 396,-585"/>
<image xlink:href="../../images/foreignKeys.png" width="11px" height="12px" preserveAspectRatio="xMinYMin meet" x="401" y="-602"/>
<text text-anchor="start" x="419" y="-593.2" font-family="Helvetica,sans-Serif" font-size="11.00">pipe_type</text>
<polygon fill="none" stroke="black" points="396,-563 396,-585 588,-585 588,-563 396,-563"/>
<image xlink:href="../../images/foreignKeys.png" width="11px" height="12px" preserveAspectRatio="xMinYMin meet" x="401" y="-580"/>
<text text-anchor="start" x="419" y="-571.2" font-family="Helvetica,sans-Serif" font-size="11.00">fluent</text>
<polygon fill="none" stroke="black" points="396,-541 396,-563 588,-563 588,-541 396,-541"/>
<image xlink:href="../../images/foreignKeys.png" width="11px" height="12px" preserveAspectRatio="xMinYMin meet" x="401" y="-558"/>
<text text-anchor="start" x="419" y="-549.2" font-family="Helvetica,sans-Serif" font-size="11.00">insulation_kind</text>
<polygon fill="none" stroke="black" points="396,-519 396,-541 588,-541 588,-519 396,-519"/>
<image xlink:href="../../images/foreignKeys.png" width="11px" height="12px" preserveAspectRatio="xMinYMin meet" x="401" y="-536"/>
<text text-anchor="start" x="419" y="-527.2" font-family="Helvetica,sans-Serif" font-size="11.00">coating</text>
<polygon fill="none" stroke="black" points="396,-497 396,-519 588,-519 588,-497 396,-497"/>
<image xlink:href="../../images/foreignKeys.png" width="11px" height="12px" preserveAspectRatio="xMinYMin meet" x="401" y="-514"/>
<text text-anchor="start" x="419" y="-505.2" font-family="Helvetica,sans-Serif" font-size="11.00">pipeline_quality</text>
<polygon fill="none" stroke="black" points="396,-479 396,-497 588,-497 588,-479 396,-479"/>
<text text-anchor="start" x="399" y="-485.2" font-family="Helvetica,sans-Serif" font-size="11.00">...</text>
<polygon fill="#ffffff" stroke="transparent" points="396,-461 396,-479 588,-479 588,-461 396,-461"/>
<polygon fill="none" stroke="black" points="396,-461 396,-479 588,-479 588,-461 396,-461"/>
<polygon fill="#ffffff" stroke="transparent" points="397,-462 397,-478 459,-478 459,-462 397,-462"/>
<text text-anchor="start" x="399" y="-467.2" font-family="Helvetica,sans-Serif" font-size="11.00">&lt; 8</text>
<polygon fill="#ffffff" stroke="transparent" points="459,-462 459,-478 538,-478 538,-462 459,-462"/>
<text text-anchor="start" x="480" y="-467.2" font-family="Helvetica,sans-Serif" font-size="11.00">0 rows</text>
<polygon fill="#ffffff" stroke="transparent" points="538,-462 538,-478 587,-478 587,-462 538,-462"/>
<text text-anchor="start" x="577" y="-467.2" font-family="Helvetica,sans-Serif" font-size="11.00"> &#160;</text>
<polygon fill="black" stroke="black" points="459,-462 459,-478 459,-478 459,-462 459,-462"/>
<polygon fill="black" stroke="black" points="538,-462 538,-478 538,-478 538,-462 538,-462"/>
</a>
</g>
</g>
<!-- pipe_section_insulation_kind -->
<g id="node2" class="node">
<title>pipe_section_insulation_kind</title>
<g id="a_node2"><a xlink:href="../../tables/pipe_section_insulation_kind.html" xlink:title="pipe_section_insulation_kind" target="_top">
<polygon fill="#ffffff" stroke="transparent" points="8,-37 8,-587 347,-587 347,-37 8,-37"/>
<polygon fill="#f5f5f5" stroke="transparent" points="10.5,-563 10.5,-585 345.5,-585 345.5,-563 10.5,-563"/>
<polygon fill="none" stroke="black" points="10.5,-563 10.5,-585 345.5,-585 345.5,-563 10.5,-563"/>
<text text-anchor="start" x="15.5" y="-572.2" font-family="Helvetica,sans-Serif" font-weight="bold" font-size="11.00">pipe_section_insulation_kind</text>
<text text-anchor="start" x="303.5" y="-571.2" font-family="Helvetica,sans-Serif" font-size="11.00">[table]</text>
<polygon fill="none" stroke="black" points="10.5,-541 10.5,-563 239.5,-563 239.5,-541 10.5,-541"/>
<image xlink:href="../../images/primaryKeys.png" width="11px" height="12px" preserveAspectRatio="xMinYMin meet" x="15.5" y="-558"/>
<text text-anchor="start" x="30.5" y="-549.2" font-family="Helvetica,sans-Serif" font-size="11.00">code</text>
<polygon fill="none" stroke="black" points="239.5,-541 239.5,-563 345.5,-563 345.5,-541 239.5,-541"/>
<text text-anchor="start" x="242.5" y="-549.2" font-family="Helvetica,sans-Serif" font-size="11.00">int4[10]</text>
<polygon fill="none" stroke="black" points="10.5,-519 10.5,-541 239.5,-541 239.5,-519 10.5,-519"/>
<text text-anchor="start" x="30.5" y="-527.2" font-family="Helvetica,sans-Serif" font-size="11.00">vsacode</text>
<polygon fill="none" stroke="black" points="239.5,-519 239.5,-541 345.5,-541 345.5,-519 239.5,-519"/>
<text text-anchor="start" x="242.5" y="-527.2" font-family="Helvetica,sans-Serif" font-size="11.00">int4[10]</text>
<polygon fill="none" stroke="black" points="10.5,-497 10.5,-519 239.5,-519 239.5,-497 10.5,-497"/>
<text text-anchor="start" x="30.5" y="-505.2" font-family="Helvetica,sans-Serif" font-size="11.00">value_en</text>
<polygon fill="none" stroke="black" points="239.5,-497 239.5,-519 345.5,-519 345.5,-497 239.5,-497"/>
<text text-anchor="start" x="242.5" y="-505.2" font-family="Helvetica,sans-Serif" font-size="11.00">varchar[100]</text>
<polygon fill="none" stroke="black" points="10.5,-475 10.5,-497 239.5,-497 239.5,-475 10.5,-475"/>
<text text-anchor="start" x="30.5" y="-483.2" font-family="Helvetica,sans-Serif" font-size="11.00">value_de</text>
<polygon fill="none" stroke="black" points="239.5,-475 239.5,-497 345.5,-497 345.5,-475 239.5,-475"/>
<text text-anchor="start" x="242.5" y="-483.2" font-family="Helvetica,sans-Serif" font-size="11.00">varchar[100]</text>
<polygon fill="none" stroke="black" points="10.5,-453 10.5,-475 239.5,-475 239.5,-453 10.5,-453"/>
<text text-anchor="start" x="30.5" y="-461.2" font-family="Helvetica,sans-Serif" font-size="11.00">value_fr</text>
<polygon fill="none" stroke="black" points="239.5,-453 239.5,-475 345.5,-475 345.5,-453 239.5,-453"/>
<text text-anchor="start" x="242.5" y="-461.2" font-family="Helvetica,sans-Serif" font-size="11.00">varchar[100]</text>
<polygon fill="none" stroke="black" points="10.5,-431 10.5,-453 239.5,-453 239.5,-431 10.5,-431"/>
<text text-anchor="start" x="30.5" y="-439.2" font-family="Helvetica,sans-Serif" font-size="11.00">value_it</text>
<polygon fill="none" stroke="black" points="239.5,-431 239.5,-453 345.5,-453 345.5,-431 239.5,-431"/>
<text text-anchor="start" x="242.5" y="-439.2" font-family="Helvetica,sans-Serif" font-size="11.00">varchar[100]</text>
<polygon fill="none" stroke="black" points="10.5,-409 10.5,-431 239.5,-431 239.5,-409 10.5,-409"/>
<text text-anchor="start" x="30.5" y="-417.2" font-family="Helvetica,sans-Serif" font-size="11.00">value_ro</text>
<polygon fill="none" stroke="black" points="239.5,-409 239.5,-431 345.5,-431 345.5,-409 239.5,-409"/>
<text text-anchor="start" x="242.5" y="-417.2" font-family="Helvetica,sans-Serif" font-size="11.00">varchar[100]</text>
<polygon fill="none" stroke="black" points="10.5,-387 10.5,-409 239.5,-409 239.5,-387 10.5,-387"/>
<text text-anchor="start" x="30.5" y="-395.2" font-family="Helvetica,sans-Serif" font-size="11.00">abbr_en</text>
<polygon fill="none" stroke="black" points="239.5,-387 239.5,-409 345.5,-409 345.5,-387 239.5,-387"/>
<text text-anchor="start" x="242.5" y="-395.2" font-family="Helvetica,sans-Serif" font-size="11.00">varchar[3]</text>
<polygon fill="none" stroke="black" points="10.5,-365 10.5,-387 239.5,-387 239.5,-365 10.5,-365"/>
<text text-anchor="start" x="30.5" y="-373.2" font-family="Helvetica,sans-Serif" font-size="11.00">abbr_de</text>
<polygon fill="none" stroke="black" points="239.5,-365 239.5,-387 345.5,-387 345.5,-365 239.5,-365"/>
<text text-anchor="start" x="242.5" y="-373.2" font-family="Helvetica,sans-Serif" font-size="11.00">varchar[3]</text>
<polygon fill="none" stroke="black" points="10.5,-343 10.5,-365 239.5,-365 239.5,-343 10.5,-343"/>
<text text-anchor="start" x="30.5" y="-351.2" font-family="Helvetica,sans-Serif" font-size="11.00">abbr_fr</text>
<polygon fill="none" stroke="black" points="239.5,-343 239.5,-365 345.5,-365 345.5,-343 239.5,-343"/>
<text text-anchor="start" x="242.5" y="-351.2" font-family="Helvetica,sans-Serif" font-size="11.00">varchar[3]</text>
<polygon fill="none" stroke="black" points="10.5,-321 10.5,-343 239.5,-343 239.5,-321 10.5,-321"/>
<text text-anchor="start" x="30.5" y="-329.2" font-family="Helvetica,sans-Serif" font-size="11.00">abbr_it</text>
<polygon fill="none" stroke="black" points="239.5,-321 239.5,-343 345.5,-343 345.5,-321 239.5,-321"/>
<text text-anchor="start" x="242.5" y="-329.2" font-family="Helvetica,sans-Serif" font-size="11.00">varchar[3]</text>
<polygon fill="none" stroke="black" points="10.5,-299 10.5,-321 239.5,-321 239.5,-299 10.5,-299"/>
<text text-anchor="start" x="30.5" y="-307.2" font-family="Helvetica,sans-Serif" font-size="11.00">abbr_ro</text>
<polygon fill="none" stroke="black" points="239.5,-299 239.5,-321 345.5,-321 345.5,-299 239.5,-299"/>
<text text-anchor="start" x="242.5" y="-307.2" font-family="Helvetica,sans-Serif" font-size="11.00">varchar[3]</text>
<polygon fill="none" stroke="black" points="10.5,-277 10.5,-299 239.5,-299 239.5,-277 10.5,-277"/>
<text text-anchor="start" x="30.5" y="-285.2" font-family="Helvetica,sans-Serif" font-size="11.00">description_en</text>
<polygon fill="none" stroke="black" points="239.5,-277 239.5,-299 345.5,-299 345.5,-277 239.5,-277"/>
<text text-anchor="start" x="242.5" y="-285.2" font-family="Helvetica,sans-Serif" font-size="11.00">text[2147483647]</text>
<polygon fill="none" stroke="black" points="10.5,-255 10.5,-277 239.5,-277 239.5,-255 10.5,-255"/>
<text text-anchor="start" x="30.5" y="-263.2" font-family="Helvetica,sans-Serif" font-size="11.00">description_de</text>
<polygon fill="none" stroke="black" points="239.5,-255 239.5,-277 345.5,-277 345.5,-255 239.5,-255"/>
<text text-anchor="start" x="242.5" y="-263.2" font-family="Helvetica,sans-Serif" font-size="11.00">text[2147483647]</text>
<polygon fill="none" stroke="black" points="10.5,-233 10.5,-255 239.5,-255 239.5,-233 10.5,-233"/>
<text text-anchor="start" x="30.5" y="-241.2" font-family="Helvetica,sans-Serif" font-size="11.00">description_fr</text>
<polygon fill="none" stroke="black" points="239.5,-233 239.5,-255 345.5,-255 345.5,-233 239.5,-233"/>
<text text-anchor="start" x="242.5" y="-241.2" font-family="Helvetica,sans-Serif" font-size="11.00">text[2147483647]</text>
<polygon fill="none" stroke="black" points="10.5,-211 10.5,-233 239.5,-233 239.5,-211 10.5,-211"/>
<text text-anchor="start" x="30.5" y="-219.2" font-family="Helvetica,sans-Serif" font-size="11.00">description_it</text>
<polygon fill="none" stroke="black" points="239.5,-211 239.5,-233 345.5,-233 345.5,-211 239.5,-211"/>
<text text-anchor="start" x="242.5" y="-219.2" font-family="Helvetica,sans-Serif" font-size="11.00">text[2147483647]</text>
<polygon fill="none" stroke="black" points="10.5,-189 10.5,-211 239.5,-211 239.5,-189 10.5,-189"/>
<text text-anchor="start" x="30.5" y="-197.2" font-family="Helvetica,sans-Serif" font-size="11.00">description_ro</text>
<polygon fill="none" stroke="black" points="239.5,-189 239.5,-211 345.5,-211 345.5,-189 239.5,-189"/>
<text text-anchor="start" x="242.5" y="-197.2" font-family="Helvetica,sans-Serif" font-size="11.00">text[2147483647]</text>
<polygon fill="none" stroke="black" points="10.5,-167 10.5,-189 239.5,-189 239.5,-167 10.5,-167"/>
<text text-anchor="start" x="30.5" y="-175.2" font-family="Helvetica,sans-Serif" font-size="11.00">display_en</text>
<polygon fill="none" stroke="black" points="239.5,-167 239.5,-189 345.5,-189 345.5,-167 239.5,-167"/>
<text text-anchor="start" x="242.5" y="-175.2" font-family="Helvetica,sans-Serif" font-size="11.00">varchar[100]</text>
<polygon fill="none" stroke="black" points="10.5,-145 10.5,-167 239.5,-167 239.5,-145 10.5,-145"/>
<text text-anchor="start" x="30.5" y="-153.2" font-family="Helvetica,sans-Serif" font-size="11.00">display_de</text>
<polygon fill="none" stroke="black" points="239.5,-145 239.5,-167 345.5,-167 345.5,-145 239.5,-145"/>
<text text-anchor="start" x="242.5" y="-153.2" font-family="Helvetica,sans-Serif" font-size="11.00">varchar[100]</text>
<polygon fill="none" stroke="black" points="10.5,-123 10.5,-145 239.5,-145 239.5,-123 10.5,-123"/>
<text text-anchor="start" x="30.5" y="-131.2" font-family="Helvetica,sans-Serif" font-size="11.00">display_fr</text>
<polygon fill="none" stroke="black" points="239.5,-123 239.5,-145 345.5,-145 345.5,-123 239.5,-123"/>
<text text-anchor="start" x="242.5" y="-131.2" font-family="Helvetica,sans-Serif" font-size="11.00">varchar[100]</text>
<polygon fill="none" stroke="black" points="10.5,-101 10.5,-123 239.5,-123 239.5,-101 10.5,-101"/>
<text text-anchor="start" x="30.5" y="-109.2" font-family="Helvetica,sans-Serif" font-size="11.00">display_it</text>
<polygon fill="none" stroke="black" points="239.5,-101 239.5,-123 345.5,-123 345.5,-101 239.5,-101"/>
<text text-anchor="start" x="242.5" y="-109.2" font-family="Helvetica,sans-Serif" font-size="11.00">varchar[100]</text>
<polygon fill="none" stroke="black" points="10.5,-79 10.5,-101 239.5,-101 239.5,-79 10.5,-79"/>
<text text-anchor="start" x="30.5" y="-87.2" font-family="Helvetica,sans-Serif" font-size="11.00">display_ro</text>
<polygon fill="none" stroke="black" points="239.5,-79 239.5,-101 345.5,-101 345.5,-79 239.5,-79"/>
<text text-anchor="start" x="242.5" y="-87.2" font-family="Helvetica,sans-Serif" font-size="11.00">varchar[100]</text>
<polygon fill="none" stroke="black" points="10.5,-57 10.5,-79 239.5,-79 239.5,-57 10.5,-57"/>
<text text-anchor="start" x="30.5" y="-65.2" font-family="Helvetica,sans-Serif" font-size="11.00">active</text>
<polygon fill="none" stroke="black" points="239.5,-57 239.5,-79 345.5,-79 345.5,-57 239.5,-57"/>
<text text-anchor="start" x="242.5" y="-65.2" font-family="Helvetica,sans-Serif" font-size="11.00">bool[1]</text>
<polygon fill="#ffffff" stroke="transparent" points="10.5,-39 10.5,-57 345.5,-57 345.5,-39 10.5,-39"/>
<polygon fill="none" stroke="black" points="10.5,-39 10.5,-57 345.5,-57 345.5,-39 10.5,-39"/>
<polygon fill="#ffffff" stroke="transparent" points="11.5,-40 11.5,-56 126.5,-56 126.5,-40 11.5,-40"/>
<text text-anchor="start" x="13.5" y="-45.2" font-family="Helvetica,sans-Serif" font-size="11.00">&lt; 0</text>
<polygon fill="#ffffff" stroke="transparent" points="126.5,-40 126.5,-56 229.5,-56 229.5,-40 126.5,-40"/>
<text text-anchor="start" x="174" y="-45.2" font-family="Helvetica,sans-Serif" font-size="11.00"> &#160;</text>
<polygon fill="#ffffff" stroke="transparent" points="229.5,-40 229.5,-56 344.5,-56 344.5,-40 229.5,-40"/>
<text text-anchor="start" x="322.5" y="-45.2" font-family="Helvetica,sans-Serif" font-size="11.00">1 &gt;</text>
<polygon fill="black" stroke="black" points="126.5,-40 126.5,-56 126.5,-56 126.5,-40 126.5,-40"/>
<polygon fill="black" stroke="black" points="229.5,-40 229.5,-56 229.5,-56 229.5,-40 229.5,-40"/>
<polygon fill="none" stroke="black" stroke-width="2" points="9,-38 9,-586 346,-586 346,-38 9,-38"/>
</a>
</g>
</g>
<!-- tdh_od.pipe_section&#45;&gt;pipe_section_insulation_kind -->
<g id="edge1" class="edge">
<title>tdh_od.pipe_section:w&#45;&gt;pipe_section_insulation_kind:e</title>
<path fill="none" stroke="black" d="M380.28,-552C369.29,-552 362.16,-552 346.5,-552"/>
<polygon fill="black" stroke="black" points="387,-552 395,-555.6 391,-552 395,-552 395,-552 395,-552 391,-552 395,-548.4 387,-552 387,-552"/>
<ellipse fill="none" stroke="black" cx="383.8" cy="-552" rx="3.2" ry="3.2"/>
</g>
</g>
</svg>
