<?xml version="1.0" encoding="UTF-8" standalone="no"?>
<!DOCTYPE svg PUBLIC "-//W3C//DTD SVG 1.1//EN"
 "http://www.w3.org/Graphics/SVG/1.1/DTD/svg11.dtd">
<!-- Generated by graphviz version 2.43.0 (0)
 -->
<!-- Title: oneDegreeRelationshipsDiagram Pages: 1 -->
<svg width="610pt" height="751pt"
 viewBox="0.00 0.00 610.00 751.00" xmlns="http://www.w3.org/2000/svg" xmlns:xlink="http://www.w3.org/1999/xlink">
<g id="graph0" class="graph" transform="scale(1 1) rotate(0) translate(4 747)">
<title>oneDegreeRelationshipsDiagram</title>
<polygon fill="#ffffff" stroke="transparent" points="-4,4 -4,-747 606,-747 606,4 -4,4"/>
<text text-anchor="middle" x="79.5" y="-7.2" font-family="Helvetica,sans-Serif" font-size="11.00">Generated by SchemaSpy</text>
<!-- tdh_od.pipe_section -->
<g id="node1" class="node">
<title>tdh_od.pipe_section</title>
<g id="a_node1"><a xlink:href="../../../tdh_od/tables/pipe_section.html" xlink:title="tdh_od.pipe_section" target="_top">
<polygon fill="#ffffff" stroke="transparent" points="402,-417 402,-739 594,-739 594,-417 402,-417"/>
<polygon fill="#f5f5f5" stroke="transparent" points="402,-717 402,-739 594,-739 594,-717 402,-717"/>
<polygon fill="none" stroke="black" points="402,-717 402,-739 594,-739 594,-717 402,-717"/>
<text text-anchor="start" x="407" y="-726.2" font-family="Helvetica,sans-Serif" font-weight="bold" font-size="11.00">tdh_od.pipe_section</text>
<text text-anchor="start" x="552" y="-725.2" font-family="Helvetica,sans-Serif" font-size="11.00">[table]</text>
<polygon fill="none" stroke="black" points="402,-695 402,-717 594,-717 594,-695 402,-695"/>
<image xlink:href="../../images/foreignKeys.png" width="11px" height="12px" preserveAspectRatio="xMinYMin meet" x="407" y="-712"/>
<text text-anchor="start" x="425" y="-703.2" font-family="Helvetica,sans-Serif" font-size="11.00">horizontal_positioning</text>
<polygon fill="none" stroke="black" points="402,-673 402,-695 594,-695 594,-673 402,-673"/>
<image xlink:href="../../images/foreignKeys.png" width="11px" height="12px" preserveAspectRatio="xMinYMin meet" x="407" y="-690"/>
<text text-anchor="start" x="425" y="-681.2" font-family="Helvetica,sans-Serif" font-size="11.00">status</text>
<polygon fill="none" stroke="black" points="402,-651 402,-673 594,-673 594,-651 402,-651"/>
<image xlink:href="../../images/foreignKeys.png" width="11px" height="12px" preserveAspectRatio="xMinYMin meet" x="407" y="-668"/>
<text text-anchor="start" x="425" y="-659.2" font-family="Helvetica,sans-Serif" font-size="11.00">function</text>
<polygon fill="none" stroke="black" points="402,-629 402,-651 594,-651 594,-629 402,-629"/>
<image xlink:href="../../images/foreignKeys.png" width="11px" height="12px" preserveAspectRatio="xMinYMin meet" x="407" y="-646"/>
<text text-anchor="start" x="425" y="-637.2" font-family="Helvetica,sans-Serif" font-size="11.00">pipe_type</text>
<polygon fill="none" stroke="black" points="402,-607 402,-629 594,-629 594,-607 402,-607"/>
<image xlink:href="../../images/foreignKeys.png" width="11px" height="12px" preserveAspectRatio="xMinYMin meet" x="407" y="-624"/>
<text text-anchor="start" x="425" y="-615.2" font-family="Helvetica,sans-Serif" font-size="11.00">fluent</text>
<polygon fill="none" stroke="black" points="402,-585 402,-607 594,-607 594,-585 402,-585"/>
<image xlink:href="../../images/foreignKeys.png" width="11px" height="12px" preserveAspectRatio="xMinYMin meet" x="407" y="-602"/>
<text text-anchor="start" x="425" y="-593.2" font-family="Helvetica,sans-Serif" font-size="11.00">insulation_kind</text>
<polygon fill="none" stroke="black" points="402,-563 402,-585 594,-585 594,-563 402,-563"/>
<image xlink:href="../../images/foreignKeys.png" width="11px" height="12px" preserveAspectRatio="xMinYMin meet" x="407" y="-580"/>
<text text-anchor="start" x="425" y="-571.2" font-family="Helvetica,sans-Serif" font-size="11.00">coating</text>
<polygon fill="none" stroke="black" points="402,-541 402,-563 594,-563 594,-541 402,-541"/>
<image xlink:href="../../images/foreignKeys.png" width="11px" height="12px" preserveAspectRatio="xMinYMin meet" x="407" y="-558"/>
<text text-anchor="start" x="425" y="-549.2" font-family="Helvetica,sans-Serif" font-size="11.00">pipeline_quality</text>
<polygon fill="none" stroke="black" points="402,-519 402,-541 594,-541 594,-519 402,-519"/>
<image xlink:href="../../images/foreignKeys.png" width="11px" height="12px" preserveAspectRatio="xMinYMin meet" x="407" y="-536"/>
<text text-anchor="start" x="425" y="-527.2" font-family="Helvetica,sans-Serif" font-size="11.00">mg_material</text>
<polygon fill="none" stroke="black" points="402,-497 402,-519 594,-519 594,-497 402,-497"/>
<image xlink:href="../../images/foreignKeys.png" width="11px" height="12px" preserveAspectRatio="xMinYMin meet" x="407" y="-514"/>
<text text-anchor="start" x="425" y="-505.2" font-family="Helvetica,sans-Serif" font-size="11.00">mg_diameter</text>
<polygon fill="none" stroke="black" points="402,-475 402,-497 594,-497 594,-475 402,-475"/>
<image xlink:href="../../images/foreignKeys.png" width="11px" height="12px" preserveAspectRatio="xMinYMin meet" x="407" y="-492"/>
<text text-anchor="start" x="425" y="-483.2" font-family="Helvetica,sans-Serif" font-size="11.00">mg_trench_type</text>
<polygon fill="none" stroke="black" points="402,-453 402,-475 594,-475 594,-453 402,-453"/>
<image xlink:href="../../images/foreignKeys.png" width="11px" height="12px" preserveAspectRatio="xMinYMin meet" x="407" y="-470"/>
<text text-anchor="start" x="425" y="-461.2" font-family="Helvetica,sans-Serif" font-size="11.00">mg_signaling_band</text>
<polygon fill="none" stroke="black" points="402,-435 402,-453 594,-453 594,-435 402,-435"/>
<text text-anchor="start" x="405" y="-441.2" font-family="Helvetica,sans-Serif" font-size="11.00">...</text>
<polygon fill="#ffffff" stroke="transparent" points="402,-417 402,-435 594,-435 594,-417 402,-417"/>
<polygon fill="none" stroke="black" points="402,-417 402,-435 594,-435 594,-417 402,-417"/>
<polygon fill="#ffffff" stroke="transparent" points="403,-418 403,-434 470,-434 470,-418 403,-418"/>
<text text-anchor="start" x="405" y="-423.2" font-family="Helvetica,sans-Serif" font-size="11.00">&lt; 12</text>
<polygon fill="#ffffff" stroke="transparent" points="470,-418 470,-434 546,-434 546,-418 470,-418"/>
<text text-anchor="start" x="489.5" y="-423.2" font-family="Helvetica,sans-Serif" font-size="11.00">0 rows</text>
<polygon fill="#ffffff" stroke="transparent" points="546,-418 546,-434 593,-434 593,-418 546,-418"/>
<text text-anchor="start" x="583" y="-423.2" font-family="Helvetica,sans-Serif" font-size="11.00"> &#160;</text>
<polygon fill="black" stroke="black" points="470,-418 470,-434 470,-434 470,-418 470,-418"/>
<polygon fill="black" stroke="black" points="546,-418 546,-434 546,-434 546,-418 546,-418"/>
</a>
</g>
</g>
<!-- pipe_section_pipeline_quality -->
<g id="node2" class="node">
<title>pipe_section_pipeline_quality</title>
<g id="a_node2"><a xlink:href="../../tables/pipe_section_pipeline_quality.html" xlink:title="pipe_section_pipeline_quality" target="_top">
<polygon fill="#ffffff" stroke="transparent" points="8,-37 8,-587 353,-587 353,-37 8,-37"/>
<polygon fill="#f5f5f5" stroke="transparent" points="10.5,-563 10.5,-585 351.5,-585 351.5,-563 10.5,-563"/>
<polygon fill="none" stroke="black" points="10.5,-563 10.5,-585 351.5,-585 351.5,-563 10.5,-563"/>
<text text-anchor="start" x="15.5" y="-572.2" font-family="Helvetica,sans-Serif" font-weight="bold" font-size="11.00">pipe_section_pipeline_quality</text>
<text text-anchor="start" x="309.5" y="-571.2" font-family="Helvetica,sans-Serif" font-size="11.00">[table]</text>
<polygon fill="none" stroke="black" points="10.5,-541 10.5,-563 245.5,-563 245.5,-541 10.5,-541"/>
<image xlink:href="../../images/primaryKeys.png" width="11px" height="12px" preserveAspectRatio="xMinYMin meet" x="15.5" y="-558"/>
<text text-anchor="start" x="30.5" y="-549.2" font-family="Helvetica,sans-Serif" font-size="11.00">code</text>
<polygon fill="none" stroke="black" points="245.5,-541 245.5,-563 351.5,-563 351.5,-541 245.5,-541"/>
<text text-anchor="start" x="248.5" y="-549.2" font-family="Helvetica,sans-Serif" font-size="11.00">int4[10]</text>
<polygon fill="none" stroke="black" points="10.5,-519 10.5,-541 245.5,-541 245.5,-519 10.5,-519"/>
<text text-anchor="start" x="30.5" y="-527.2" font-family="Helvetica,sans-Serif" font-size="11.00">vsacode</text>
<polygon fill="none" stroke="black" points="245.5,-519 245.5,-541 351.5,-541 351.5,-519 245.5,-519"/>
<text text-anchor="start" x="248.5" y="-527.2" font-family="Helvetica,sans-Serif" font-size="11.00">int4[10]</text>
<polygon fill="none" stroke="black" points="10.5,-497 10.5,-519 245.5,-519 245.5,-497 10.5,-497"/>
<text text-anchor="start" x="30.5" y="-505.2" font-family="Helvetica,sans-Serif" font-size="11.00">value_en</text>
<polygon fill="none" stroke="black" points="245.5,-497 245.5,-519 351.5,-519 351.5,-497 245.5,-497"/>
<text text-anchor="start" x="248.5" y="-505.2" font-family="Helvetica,sans-Serif" font-size="11.00">varchar[100]</text>
<polygon fill="none" stroke="black" points="10.5,-475 10.5,-497 245.5,-497 245.5,-475 10.5,-475"/>
<text text-anchor="start" x="30.5" y="-483.2" font-family="Helvetica,sans-Serif" font-size="11.00">value_de</text>
<polygon fill="none" stroke="black" points="245.5,-475 245.5,-497 351.5,-497 351.5,-475 245.5,-475"/>
<text text-anchor="start" x="248.5" y="-483.2" font-family="Helvetica,sans-Serif" font-size="11.00">varchar[100]</text>
<polygon fill="none" stroke="black" points="10.5,-453 10.5,-475 245.5,-475 245.5,-453 10.5,-453"/>
<text text-anchor="start" x="30.5" y="-461.2" font-family="Helvetica,sans-Serif" font-size="11.00">value_fr</text>
<polygon fill="none" stroke="black" points="245.5,-453 245.5,-475 351.5,-475 351.5,-453 245.5,-453"/>
<text text-anchor="start" x="248.5" y="-461.2" font-family="Helvetica,sans-Serif" font-size="11.00">varchar[100]</text>
<polygon fill="none" stroke="black" points="10.5,-431 10.5,-453 245.5,-453 245.5,-431 10.5,-431"/>
<text text-anchor="start" x="30.5" y="-439.2" font-family="Helvetica,sans-Serif" font-size="11.00">value_it</text>
<polygon fill="none" stroke="black" points="245.5,-431 245.5,-453 351.5,-453 351.5,-431 245.5,-431"/>
<text text-anchor="start" x="248.5" y="-439.2" font-family="Helvetica,sans-Serif" font-size="11.00">varchar[100]</text>
<polygon fill="none" stroke="black" points="10.5,-409 10.5,-431 245.5,-431 245.5,-409 10.5,-409"/>
<text text-anchor="start" x="30.5" y="-417.2" font-family="Helvetica,sans-Serif" font-size="11.00">value_ro</text>
<polygon fill="none" stroke="black" points="245.5,-409 245.5,-431 351.5,-431 351.5,-409 245.5,-409"/>
<text text-anchor="start" x="248.5" y="-417.2" font-family="Helvetica,sans-Serif" font-size="11.00">varchar[100]</text>
<polygon fill="none" stroke="black" points="10.5,-387 10.5,-409 245.5,-409 245.5,-387 10.5,-387"/>
<text text-anchor="start" x="30.5" y="-395.2" font-family="Helvetica,sans-Serif" font-size="11.00">abbr_en</text>
<polygon fill="none" stroke="black" points="245.5,-387 245.5,-409 351.5,-409 351.5,-387 245.5,-387"/>
<text text-anchor="start" x="248.5" y="-395.2" font-family="Helvetica,sans-Serif" font-size="11.00">varchar[3]</text>
<polygon fill="none" stroke="black" points="10.5,-365 10.5,-387 245.5,-387 245.5,-365 10.5,-365"/>
<text text-anchor="start" x="30.5" y="-373.2" font-family="Helvetica,sans-Serif" font-size="11.00">abbr_de</text>
<polygon fill="none" stroke="black" points="245.5,-365 245.5,-387 351.5,-387 351.5,-365 245.5,-365"/>
<text text-anchor="start" x="248.5" y="-373.2" font-family="Helvetica,sans-Serif" font-size="11.00">varchar[3]</text>
<polygon fill="none" stroke="black" points="10.5,-343 10.5,-365 245.5,-365 245.5,-343 10.5,-343"/>
<text text-anchor="start" x="30.5" y="-351.2" font-family="Helvetica,sans-Serif" font-size="11.00">abbr_fr</text>
<polygon fill="none" stroke="black" points="245.5,-343 245.5,-365 351.5,-365 351.5,-343 245.5,-343"/>
<text text-anchor="start" x="248.5" y="-351.2" font-family="Helvetica,sans-Serif" font-size="11.00">varchar[3]</text>
<polygon fill="none" stroke="black" points="10.5,-321 10.5,-343 245.5,-343 245.5,-321 10.5,-321"/>
<text text-anchor="start" x="30.5" y="-329.2" font-family="Helvetica,sans-Serif" font-size="11.00">abbr_it</text>
<polygon fill="none" stroke="black" points="245.5,-321 245.5,-343 351.5,-343 351.5,-321 245.5,-321"/>
<text text-anchor="start" x="248.5" y="-329.2" font-family="Helvetica,sans-Serif" font-size="11.00">varchar[3]</text>
<polygon fill="none" stroke="black" points="10.5,-299 10.5,-321 245.5,-321 245.5,-299 10.5,-299"/>
<text text-anchor="start" x="30.5" y="-307.2" font-family="Helvetica,sans-Serif" font-size="11.00">abbr_ro</text>
<polygon fill="none" stroke="black" points="245.5,-299 245.5,-321 351.5,-321 351.5,-299 245.5,-299"/>
<text text-anchor="start" x="248.5" y="-307.2" font-family="Helvetica,sans-Serif" font-size="11.00">varchar[3]</text>
<polygon fill="none" stroke="black" points="10.5,-277 10.5,-299 245.5,-299 245.5,-277 10.5,-277"/>
<text text-anchor="start" x="30.5" y="-285.2" font-family="Helvetica,sans-Serif" font-size="11.00">description_en</text>
<polygon fill="none" stroke="black" points="245.5,-277 245.5,-299 351.5,-299 351.5,-277 245.5,-277"/>
<text text-anchor="start" x="248.5" y="-285.2" font-family="Helvetica,sans-Serif" font-size="11.00">text[2147483647]</text>
<polygon fill="none" stroke="black" points="10.5,-255 10.5,-277 245.5,-277 245.5,-255 10.5,-255"/>
<text text-anchor="start" x="30.5" y="-263.2" font-family="Helvetica,sans-Serif" font-size="11.00">description_de</text>
<polygon fill="none" stroke="black" points="245.5,-255 245.5,-277 351.5,-277 351.5,-255 245.5,-255"/>
<text text-anchor="start" x="248.5" y="-263.2" font-family="Helvetica,sans-Serif" font-size="11.00">text[2147483647]</text>
<polygon fill="none" stroke="black" points="10.5,-233 10.5,-255 245.5,-255 245.5,-233 10.5,-233"/>
<text text-anchor="start" x="30.5" y="-241.2" font-family="Helvetica,sans-Serif" font-size="11.00">description_fr</text>
<polygon fill="none" stroke="black" points="245.5,-233 245.5,-255 351.5,-255 351.5,-233 245.5,-233"/>
<text text-anchor="start" x="248.5" y="-241.2" font-family="Helvetica,sans-Serif" font-size="11.00">text[2147483647]</text>
<polygon fill="none" stroke="black" points="10.5,-211 10.5,-233 245.5,-233 245.5,-211 10.5,-211"/>
<text text-anchor="start" x="30.5" y="-219.2" font-family="Helvetica,sans-Serif" font-size="11.00">description_it</text>
<polygon fill="none" stroke="black" points="245.5,-211 245.5,-233 351.5,-233 351.5,-211 245.5,-211"/>
<text text-anchor="start" x="248.5" y="-219.2" font-family="Helvetica,sans-Serif" font-size="11.00">text[2147483647]</text>
<polygon fill="none" stroke="black" points="10.5,-189 10.5,-211 245.5,-211 245.5,-189 10.5,-189"/>
<text text-anchor="start" x="30.5" y="-197.2" font-family="Helvetica,sans-Serif" font-size="11.00">description_ro</text>
<polygon fill="none" stroke="black" points="245.5,-189 245.5,-211 351.5,-211 351.5,-189 245.5,-189"/>
<text text-anchor="start" x="248.5" y="-197.2" font-family="Helvetica,sans-Serif" font-size="11.00">text[2147483647]</text>
<polygon fill="none" stroke="black" points="10.5,-167 10.5,-189 245.5,-189 245.5,-167 10.5,-167"/>
<text text-anchor="start" x="30.5" y="-175.2" font-family="Helvetica,sans-Serif" font-size="11.00">display_en</text>
<polygon fill="none" stroke="black" points="245.5,-167 245.5,-189 351.5,-189 351.5,-167 245.5,-167"/>
<text text-anchor="start" x="248.5" y="-175.2" font-family="Helvetica,sans-Serif" font-size="11.00">varchar[100]</text>
<polygon fill="none" stroke="black" points="10.5,-145 10.5,-167 245.5,-167 245.5,-145 10.5,-145"/>
<text text-anchor="start" x="30.5" y="-153.2" font-family="Helvetica,sans-Serif" font-size="11.00">display_de</text>
<polygon fill="none" stroke="black" points="245.5,-145 245.5,-167 351.5,-167 351.5,-145 245.5,-145"/>
<text text-anchor="start" x="248.5" y="-153.2" font-family="Helvetica,sans-Serif" font-size="11.00">varchar[100]</text>
<polygon fill="none" stroke="black" points="10.5,-123 10.5,-145 245.5,-145 245.5,-123 10.5,-123"/>
<text text-anchor="start" x="30.5" y="-131.2" font-family="Helvetica,sans-Serif" font-size="11.00">display_fr</text>
<polygon fill="none" stroke="black" points="245.5,-123 245.5,-145 351.5,-145 351.5,-123 245.5,-123"/>
<text text-anchor="start" x="248.5" y="-131.2" font-family="Helvetica,sans-Serif" font-size="11.00">varchar[100]</text>
<polygon fill="none" stroke="black" points="10.5,-101 10.5,-123 245.5,-123 245.5,-101 10.5,-101"/>
<text text-anchor="start" x="30.5" y="-109.2" font-family="Helvetica,sans-Serif" font-size="11.00">display_it</text>
<polygon fill="none" stroke="black" points="245.5,-101 245.5,-123 351.5,-123 351.5,-101 245.5,-101"/>
<text text-anchor="start" x="248.5" y="-109.2" font-family="Helvetica,sans-Serif" font-size="11.00">varchar[100]</text>
<polygon fill="none" stroke="black" points="10.5,-79 10.5,-101 245.5,-101 245.5,-79 10.5,-79"/>
<text text-anchor="start" x="30.5" y="-87.2" font-family="Helvetica,sans-Serif" font-size="11.00">display_ro</text>
<polygon fill="none" stroke="black" points="245.5,-79 245.5,-101 351.5,-101 351.5,-79 245.5,-79"/>
<text text-anchor="start" x="248.5" y="-87.2" font-family="Helvetica,sans-Serif" font-size="11.00">varchar[100]</text>
<polygon fill="none" stroke="black" points="10.5,-57 10.5,-79 245.5,-79 245.5,-57 10.5,-57"/>
<text text-anchor="start" x="30.5" y="-65.2" font-family="Helvetica,sans-Serif" font-size="11.00">active</text>
<polygon fill="none" stroke="black" points="245.5,-57 245.5,-79 351.5,-79 351.5,-57 245.5,-57"/>
<text text-anchor="start" x="248.5" y="-65.2" font-family="Helvetica,sans-Serif" font-size="11.00">bool[1]</text>
<polygon fill="#ffffff" stroke="transparent" points="10.5,-39 10.5,-57 351.5,-57 351.5,-39 10.5,-39"/>
<polygon fill="none" stroke="black" points="10.5,-39 10.5,-57 351.5,-57 351.5,-39 10.5,-39"/>
<polygon fill="#ffffff" stroke="transparent" points="11.5,-40 11.5,-56 128.5,-56 128.5,-40 11.5,-40"/>
<text text-anchor="start" x="13.5" y="-45.2" font-family="Helvetica,sans-Serif" font-size="11.00">&lt; 0</text>
<polygon fill="#ffffff" stroke="transparent" points="128.5,-40 128.5,-56 233.5,-56 233.5,-40 128.5,-40"/>
<text text-anchor="start" x="177" y="-45.2" font-family="Helvetica,sans-Serif" font-size="11.00"> &#160;</text>
<polygon fill="#ffffff" stroke="transparent" points="233.5,-40 233.5,-56 350.5,-56 350.5,-40 233.5,-40"/>
<text text-anchor="start" x="328.5" y="-45.2" font-family="Helvetica,sans-Serif" font-size="11.00">1 &gt;</text>
<polygon fill="black" stroke="black" points="128.5,-40 128.5,-56 128.5,-56 128.5,-40 128.5,-40"/>
<polygon fill="black" stroke="black" points="233.5,-40 233.5,-56 233.5,-56 233.5,-40 233.5,-40"/>
<polygon fill="none" stroke="black" stroke-width="2" points="9,-38 9,-586 352,-586 352,-38 9,-38"/>
</a>
</g>
</g>
<!-- tdh_od.pipe_section&#45;&gt;pipe_section_pipeline_quality -->
<g id="edge1" class="edge">
<title>tdh_od.pipe_section:w&#45;&gt;pipe_section_pipeline_quality:e</title>
<path fill="none" stroke="black" d="M386.28,-552C375.29,-552 368.16,-552 352.5,-552"/>
<polygon fill="black" stroke="black" points="393,-552 401,-555.6 397,-552 401,-552 401,-552 401,-552 397,-552 401,-548.4 393,-552 393,-552"/>
<ellipse fill="none" stroke="black" cx="389.8" cy="-552" rx="3.2" ry="3.2"/>
</g>
</g>
</svg>
