<?xml version="1.0" encoding="UTF-8" standalone="no"?>
<!DOCTYPE svg PUBLIC "-//W3C//DTD SVG 1.1//EN"
 "http://www.w3.org/Graphics/SVG/1.1/DTD/svg11.dtd">
<!-- Generated by graphviz version 2.47.1 (20210515.0534)
 -->
<!-- Title: oneDegreeRelationshipsDiagram Pages: 1 -->
<svg width="475pt" height="379pt"
 viewBox="0.00 0.00 475.00 379.00" xmlns="http://www.w3.org/2000/svg" xmlns:xlink="http://www.w3.org/1999/xlink">
<g id="graph0" class="graph" transform="scale(1 1) rotate(0) translate(4 375)">
<title>oneDegreeRelationshipsDiagram</title>
<polygon fill="#ffffff" stroke="transparent" points="-4,4 -4,-375 471,-375 471,4 -4,4"/>
<text text-anchor="middle" x="73.5" y="-7.2" font-family="Helvetica,sans-Serif" font-size="11.00">Generated by SchemaSpy</text>
<!-- tdh_od.pipe_point_feed -->
<g id="node1" class="node">
<title>tdh_od.pipe_point_feed</title>
<g id="a_node1"><a xlink:href="../../../tdh_od/tables/pipe_point_feed.html" xlink:title="tdh_od.pipe_point_feed" target="_top">
<polygon fill="#ffffff" stroke="transparent" points="277,-263 277,-365 459,-365 459,-263 277,-263"/>
<polygon fill="#f5f5f5" stroke="transparent" points="277,-343 277,-365 459,-365 459,-343 277,-343"/>
<polygon fill="none" stroke="black" points="277,-343 277,-365 459,-365 459,-343 277,-343"/>
<text text-anchor="start" x="282" y="-352.2" font-family="Helvetica,sans-Serif" font-weight="bold" font-size="11.00">tdh_od.pipe_point_feed</text>
<text text-anchor="start" x="420" y="-351.2" font-family="Helvetica,sans-Serif" font-size="11.00">[table]</text>
<polygon fill="none" stroke="black" points="277,-321 277,-343 459,-343 459,-321 277,-321"/>
<image xlink:href="../../images/foreignKeys.png" width="11px" height="12px" preserveAspectRatio="xMinYMin meet" x="282" y="-338"/>
<text text-anchor="start" x="302" y="-329.2" font-family="Helvetica,sans-Serif" font-size="11.00">kind</text>
<polygon fill="none" stroke="black" points="277,-299 277,-321 459,-321 459,-299 277,-299"/>
<image xlink:href="../../images/foreignKeys.png" width="11px" height="12px" preserveAspectRatio="xMinYMin meet" x="282" y="-316"/>
<text text-anchor="start" x="302" y="-307.2" font-family="Helvetica,sans-Serif" font-size="11.00">category</text>
<polygon fill="none" stroke="black" points="277,-281 277,-299 459,-299 459,-281 277,-281"/>
<text text-anchor="start" x="280" y="-287.2" font-family="Helvetica,sans-Serif" font-size="11.00">...</text>
<polygon fill="#ffffff" stroke="transparent" points="277,-263 277,-281 352,-281 352,-263 277,-263"/>
<polygon fill="none" stroke="black" points="277,-263 277,-281 352,-281 352,-263 277,-263"/>
<text text-anchor="start" x="280" y="-269.2" font-family="Helvetica,sans-Serif" font-size="11.00">&lt; 2</text>
<polygon fill="#ffffff" stroke="transparent" points="352,-263 352,-281 419,-281 419,-263 352,-263"/>
<polygon fill="none" stroke="black" points="352,-263 352,-281 419,-281 419,-263 352,-263"/>
<text text-anchor="start" x="382" y="-269.2" font-family="Helvetica,sans-Serif" font-size="11.00">0 rows</text>
<polygon fill="#ffffff" stroke="transparent" points="419,-263 419,-281 459,-281 459,-263 419,-263"/>
<polygon fill="none" stroke="black" points="419,-263 419,-281 459,-281 459,-263 419,-263"/>
<text text-anchor="start" x="449" y="-269.2" font-family="Helvetica,sans-Serif" font-size="11.00"> &#160;</text>
</a>
</g>
</g>
<!-- pipe_point_feed_kind -->
<g id="node2" class="node">
<title>pipe_point_feed_kind</title>
<g id="a_node2"><a xlink:href="../../tables/pipe_point_feed_kind.html" xlink:title="pipe_point_feed_kind" target="_top">
<polygon fill="#ffffff" stroke="transparent" points="8,-37 8,-367 228,-367 228,-37 8,-37"/>
<polygon fill="#f5f5f5" stroke="transparent" points="10,-343 10,-365 226,-365 226,-343 10,-343"/>
<polygon fill="none" stroke="black" points="10,-343 10,-365 226,-365 226,-343 10,-343"/>
<text text-anchor="start" x="15" y="-352.2" font-family="Helvetica,sans-Serif" font-weight="bold" font-size="11.00">pipe_point_feed_kind</text>
<text text-anchor="start" x="187" y="-351.2" font-family="Helvetica,sans-Serif" font-size="11.00">[table]</text>
<polygon fill="none" stroke="black" points="10,-321 10,-343 156,-343 156,-321 10,-321"/>
<image xlink:href="../../images/primaryKeys.png" width="11px" height="12px" preserveAspectRatio="xMinYMin meet" x="15" y="-338"/>
<text text-anchor="start" x="30" y="-329.2" font-family="Helvetica,sans-Serif" font-size="11.00">code</text>
<polygon fill="none" stroke="black" points="156,-321 156,-343 226,-343 226,-321 156,-321"/>
<text text-anchor="start" x="159" y="-329.2" font-family="Helvetica,sans-Serif" font-size="11.00">int4[10]</text>
<polygon fill="none" stroke="black" points="10,-299 10,-321 156,-321 156,-299 10,-299"/>
<text text-anchor="start" x="30" y="-307.2" font-family="Helvetica,sans-Serif" font-size="11.00">vsacode</text>
<polygon fill="none" stroke="black" points="156,-299 156,-321 226,-321 226,-299 156,-299"/>
<text text-anchor="start" x="159" y="-307.2" font-family="Helvetica,sans-Serif" font-size="11.00">int4[10]</text>
<polygon fill="none" stroke="black" points="10,-277 10,-299 156,-299 156,-277 10,-277"/>
<text text-anchor="start" x="30" y="-285.2" font-family="Helvetica,sans-Serif" font-size="11.00">value_en</text>
<polygon fill="none" stroke="black" points="156,-277 156,-299 226,-299 226,-277 156,-277"/>
<text text-anchor="start" x="159" y="-285.2" font-family="Helvetica,sans-Serif" font-size="11.00">varchar[100]</text>
<polygon fill="none" stroke="black" points="10,-255 10,-277 156,-277 156,-255 10,-255"/>
<text text-anchor="start" x="30" y="-263.2" font-family="Helvetica,sans-Serif" font-size="11.00">value_de</text>
<polygon fill="none" stroke="black" points="156,-255 156,-277 226,-277 226,-255 156,-255"/>
<text text-anchor="start" x="159" y="-263.2" font-family="Helvetica,sans-Serif" font-size="11.00">varchar[100]</text>
<polygon fill="none" stroke="black" points="10,-233 10,-255 156,-255 156,-233 10,-233"/>
<text text-anchor="start" x="30" y="-241.2" font-family="Helvetica,sans-Serif" font-size="11.00">value_fr</text>
<polygon fill="none" stroke="black" points="156,-233 156,-255 226,-255 226,-233 156,-233"/>
<text text-anchor="start" x="159" y="-241.2" font-family="Helvetica,sans-Serif" font-size="11.00">varchar[100]</text>
<polygon fill="none" stroke="black" points="10,-211 10,-233 156,-233 156,-211 10,-211"/>
<text text-anchor="start" x="30" y="-219.2" font-family="Helvetica,sans-Serif" font-size="11.00">value_it</text>
<polygon fill="none" stroke="black" points="156,-211 156,-233 226,-233 226,-211 156,-211"/>
<text text-anchor="start" x="159" y="-219.2" font-family="Helvetica,sans-Serif" font-size="11.00">varchar[100]</text>
<polygon fill="none" stroke="black" points="10,-189 10,-211 156,-211 156,-189 10,-189"/>
<text text-anchor="start" x="30" y="-197.2" font-family="Helvetica,sans-Serif" font-size="11.00">value_ro</text>
<polygon fill="none" stroke="black" points="156,-189 156,-211 226,-211 226,-189 156,-189"/>
<text text-anchor="start" x="159" y="-197.2" font-family="Helvetica,sans-Serif" font-size="11.00">varchar[100]</text>
<polygon fill="none" stroke="black" points="10,-167 10,-189 156,-189 156,-167 10,-167"/>
<text text-anchor="start" x="30" y="-175.2" font-family="Helvetica,sans-Serif" font-size="11.00">abbr_en</text>
<polygon fill="none" stroke="black" points="156,-167 156,-189 226,-189 226,-167 156,-167"/>
<text text-anchor="start" x="159" y="-175.2" font-family="Helvetica,sans-Serif" font-size="11.00">varchar[3]</text>
<polygon fill="none" stroke="black" points="10,-145 10,-167 156,-167 156,-145 10,-145"/>
<text text-anchor="start" x="30" y="-153.2" font-family="Helvetica,sans-Serif" font-size="11.00">abbr_de</text>
<polygon fill="none" stroke="black" points="156,-145 156,-167 226,-167 226,-145 156,-145"/>
<text text-anchor="start" x="159" y="-153.2" font-family="Helvetica,sans-Serif" font-size="11.00">varchar[3]</text>
<polygon fill="none" stroke="black" points="10,-123 10,-145 156,-145 156,-123 10,-123"/>
<text text-anchor="start" x="30" y="-131.2" font-family="Helvetica,sans-Serif" font-size="11.00">abbr_fr</text>
<polygon fill="none" stroke="black" points="156,-123 156,-145 226,-145 226,-123 156,-123"/>
<text text-anchor="start" x="159" y="-131.2" font-family="Helvetica,sans-Serif" font-size="11.00">varchar[3]</text>
<polygon fill="none" stroke="black" points="10,-101 10,-123 156,-123 156,-101 10,-101"/>
<text text-anchor="start" x="30" y="-109.2" font-family="Helvetica,sans-Serif" font-size="11.00">abbr_it</text>
<polygon fill="none" stroke="black" points="156,-101 156,-123 226,-123 226,-101 156,-101"/>
<text text-anchor="start" x="159" y="-109.2" font-family="Helvetica,sans-Serif" font-size="11.00">varchar[3]</text>
<polygon fill="none" stroke="black" points="10,-79 10,-101 156,-101 156,-79 10,-79"/>
<text text-anchor="start" x="30" y="-87.2" font-family="Helvetica,sans-Serif" font-size="11.00">abbr_ro</text>
<polygon fill="none" stroke="black" points="156,-79 156,-101 226,-101 226,-79 156,-79"/>
<text text-anchor="start" x="159" y="-87.2" font-family="Helvetica,sans-Serif" font-size="11.00">varchar[3]</text>
<polygon fill="none" stroke="black" points="10,-57 10,-79 156,-79 156,-57 10,-57"/>
<text text-anchor="start" x="30" y="-65.2" font-family="Helvetica,sans-Serif" font-size="11.00">active</text>
<polygon fill="none" stroke="black" points="156,-57 156,-79 226,-79 226,-57 156,-57"/>
<text text-anchor="start" x="159" y="-65.2" font-family="Helvetica,sans-Serif" font-size="11.00">bool[1]</text>
<polygon fill="#ffffff" stroke="transparent" points="10,-39 10,-57 87,-57 87,-39 10,-39"/>
<polygon fill="none" stroke="black" points="10,-39 10,-57 87,-57 87,-39 10,-39"/>
<text text-anchor="start" x="13" y="-45.2" font-family="Helvetica,sans-Serif" font-size="11.00">&lt; 0</text>
<polygon fill="#ffffff" stroke="transparent" points="87,-39 87,-57 156,-57 156,-39 87,-39"/>
<polygon fill="none" stroke="black" points="87,-39 87,-57 156,-57 156,-39 87,-39"/>
<text text-anchor="start" x="146" y="-45.2" font-family="Helvetica,sans-Serif" font-size="11.00"> &#160;</text>
<polygon fill="#ffffff" stroke="transparent" points="156,-39 156,-57 226,-57 226,-39 156,-39"/>
<polygon fill="none" stroke="black" points="156,-39 156,-57 226,-57 226,-39 156,-39"/>
<text text-anchor="start" x="207" y="-45.2" font-family="Helvetica,sans-Serif" font-size="11.00">1 &gt;</text>
<polygon fill="none" stroke="black" stroke-width="2" points="9,-38 9,-366 227,-366 227,-38 9,-38"/>
</a>
</g>
</g>
<!-- tdh_od.pipe_point_feed&#45;&gt;pipe_point_feed_kind -->
<g id="edge1" class="edge">
<title>tdh_od.pipe_point_feed:w&#45;&gt;pipe_point_feed_kind:e</title>
<path fill="none" stroke="black" d="M261.49,-332C250.18,-332 242.99,-332 227,-332"/>
<polygon fill="black" stroke="black" points="268,-332 276,-335.6 272,-332 276,-332 276,-332 276,-332 272,-332 276,-328.4 268,-332 268,-332"/>
<ellipse fill="none" stroke="black" cx="264.8" cy="-332" rx="3.2" ry="3.2"/>
</g>
</g>
</svg>
