<?xml version="1.0" encoding="UTF-8" standalone="no"?>
<!DOCTYPE svg PUBLIC "-//W3C//DTD SVG 1.1//EN"
 "http://www.w3.org/Graphics/SVG/1.1/DTD/svg11.dtd">
<!-- Generated by graphviz version 2.43.0 (0)
 -->
<!-- Title: oneDegreeRelationshipsDiagram Pages: 1 -->
<svg width="622pt" height="379pt"
 viewBox="0.00 0.00 622.00 379.00" xmlns="http://www.w3.org/2000/svg" xmlns:xlink="http://www.w3.org/1999/xlink">
<g id="graph0" class="graph" transform="scale(1 1) rotate(0) translate(4 375)">
<title>oneDegreeRelationshipsDiagram</title>
<polygon fill="#ffffff" stroke="transparent" points="-4,4 -4,-375 618,-375 618,4 -4,4"/>
<text text-anchor="middle" x="79.5" y="-7.2" font-family="Helvetica,sans-Serif" font-size="11.00">Generated by SchemaSpy</text>
<!-- tdh_od.pipe_point -->
<g id="node1" class="node">
<title>tdh_od.pipe_point</title>
<g id="a_node1"><a xlink:href="../../../tdh_od/tables/pipe_point.html" xlink:title="tdh_od.pipe_point" target="_top">
<polygon fill="#ffffff" stroke="transparent" points="406,-263 406,-365 606,-365 606,-263 406,-263"/>
<polygon fill="#f5f5f5" stroke="transparent" points="406,-343 406,-365 606,-365 606,-343 406,-343"/>
<polygon fill="none" stroke="black" points="406,-343 406,-365 606,-365 606,-343 406,-343"/>
<text text-anchor="start" x="411" y="-352.2" font-family="Helvetica,sans-Serif" font-weight="bold" font-size="11.00">tdh_od.pipe_point</text>
<text text-anchor="start" x="564" y="-351.2" font-family="Helvetica,sans-Serif" font-size="11.00">[table]</text>
<polygon fill="none" stroke="black" points="406,-321 406,-343 606,-343 606,-321 406,-321"/>
<image xlink:href="../../images/foreignKeys.png" width="11px" height="12px" preserveAspectRatio="xMinYMin meet" x="411" y="-338"/>
<text text-anchor="start" x="426" y="-329.2" font-family="Helvetica,sans-Serif" font-size="11.00">horizontal_positioning</text>
<polygon fill="none" stroke="black" points="406,-299 406,-321 606,-321 606,-299 406,-299"/>
<image xlink:href="../../images/foreignKeys.png" width="11px" height="12px" preserveAspectRatio="xMinYMin meet" x="411" y="-316"/>
<text text-anchor="start" x="426" y="-307.2" font-family="Helvetica,sans-Serif" font-size="11.00">elevation_determination</text>
<polygon fill="none" stroke="black" points="406,-281 406,-299 606,-299 606,-281 406,-281"/>
<text text-anchor="start" x="409" y="-287.2" font-family="Helvetica,sans-Serif" font-size="11.00">...</text>
<polygon fill="#ffffff" stroke="transparent" points="406,-263 406,-281 606,-281 606,-263 406,-263"/>
<polygon fill="none" stroke="black" points="406,-263 406,-281 606,-281 606,-263 406,-263"/>
<polygon fill="#ffffff" stroke="transparent" points="407,-264 407,-280 472,-280 472,-264 407,-264"/>
<text text-anchor="start" x="409" y="-269.2" font-family="Helvetica,sans-Serif" font-size="11.00">&lt; 2</text>
<polygon fill="#ffffff" stroke="transparent" points="472,-264 472,-280 553,-280 553,-264 472,-264"/>
<text text-anchor="start" x="494" y="-269.2" font-family="Helvetica,sans-Serif" font-size="11.00">0 rows</text>
<polygon fill="#ffffff" stroke="transparent" points="553,-264 553,-280 605,-280 605,-264 553,-264"/>
<text text-anchor="start" x="595" y="-269.2" font-family="Helvetica,sans-Serif" font-size="11.00"> &#160;</text>
<polygon fill="black" stroke="black" points="472,-264 472,-280 472,-280 472,-264 472,-264"/>
<polygon fill="black" stroke="black" points="553,-264 553,-280 553,-280 553,-264 553,-264"/>
</a>
</g>
</g>
<!-- pipe_point_horizontal_positioning -->
<g id="node2" class="node">
<title>pipe_point_horizontal_positioning</title>
<g id="a_node2"><a xlink:href="../../tables/pipe_point_horizontal_positioning.html" xlink:title="pipe_point_horizontal_positioning" target="_top">
<polygon fill="#ffffff" stroke="transparent" points="8,-37 8,-367 357,-367 357,-37 8,-37"/>
<polygon fill="#f5f5f5" stroke="transparent" points="10.5,-343 10.5,-365 355.5,-365 355.5,-343 10.5,-343"/>
<polygon fill="none" stroke="black" points="10.5,-343 10.5,-365 355.5,-365 355.5,-343 10.5,-343"/>
<text text-anchor="start" x="15.5" y="-352.2" font-family="Helvetica,sans-Serif" font-weight="bold" font-size="11.00">pipe_point_horizontal_positioning</text>
<text text-anchor="start" x="313.5" y="-351.2" font-family="Helvetica,sans-Serif" font-size="11.00">[table]</text>
<polygon fill="none" stroke="black" points="10.5,-321 10.5,-343 277.5,-343 277.5,-321 10.5,-321"/>
<image xlink:href="../../images/primaryKeys.png" width="11px" height="12px" preserveAspectRatio="xMinYMin meet" x="15.5" y="-338"/>
<text text-anchor="start" x="30.5" y="-329.2" font-family="Helvetica,sans-Serif" font-size="11.00">code</text>
<polygon fill="none" stroke="black" points="277.5,-321 277.5,-343 355.5,-343 355.5,-321 277.5,-321"/>
<text text-anchor="start" x="280.5" y="-329.2" font-family="Helvetica,sans-Serif" font-size="11.00">int4[10]</text>
<polygon fill="none" stroke="black" points="10.5,-299 10.5,-321 277.5,-321 277.5,-299 10.5,-299"/>
<text text-anchor="start" x="30.5" y="-307.2" font-family="Helvetica,sans-Serif" font-size="11.00">vsacode</text>
<polygon fill="none" stroke="black" points="277.5,-299 277.5,-321 355.5,-321 355.5,-299 277.5,-299"/>
<text text-anchor="start" x="280.5" y="-307.2" font-family="Helvetica,sans-Serif" font-size="11.00">int4[10]</text>
<polygon fill="none" stroke="black" points="10.5,-277 10.5,-299 277.5,-299 277.5,-277 10.5,-277"/>
<text text-anchor="start" x="30.5" y="-285.2" font-family="Helvetica,sans-Serif" font-size="11.00">value_en</text>
<polygon fill="none" stroke="black" points="277.5,-277 277.5,-299 355.5,-299 355.5,-277 277.5,-277"/>
<text text-anchor="start" x="280.5" y="-285.2" font-family="Helvetica,sans-Serif" font-size="11.00">varchar[100]</text>
<polygon fill="none" stroke="black" points="10.5,-255 10.5,-277 277.5,-277 277.5,-255 10.5,-255"/>
<text text-anchor="start" x="30.5" y="-263.2" font-family="Helvetica,sans-Serif" font-size="11.00">value_de</text>
<polygon fill="none" stroke="black" points="277.5,-255 277.5,-277 355.5,-277 355.5,-255 277.5,-255"/>
<text text-anchor="start" x="280.5" y="-263.2" font-family="Helvetica,sans-Serif" font-size="11.00">varchar[100]</text>
<polygon fill="none" stroke="black" points="10.5,-233 10.5,-255 277.5,-255 277.5,-233 10.5,-233"/>
<text text-anchor="start" x="30.5" y="-241.2" font-family="Helvetica,sans-Serif" font-size="11.00">value_fr</text>
<polygon fill="none" stroke="black" points="277.5,-233 277.5,-255 355.5,-255 355.5,-233 277.5,-233"/>
<text text-anchor="start" x="280.5" y="-241.2" font-family="Helvetica,sans-Serif" font-size="11.00">varchar[100]</text>
<polygon fill="none" stroke="black" points="10.5,-211 10.5,-233 277.5,-233 277.5,-211 10.5,-211"/>
<text text-anchor="start" x="30.5" y="-219.2" font-family="Helvetica,sans-Serif" font-size="11.00">value_it</text>
<polygon fill="none" stroke="black" points="277.5,-211 277.5,-233 355.5,-233 355.5,-211 277.5,-211"/>
<text text-anchor="start" x="280.5" y="-219.2" font-family="Helvetica,sans-Serif" font-size="11.00">varchar[100]</text>
<polygon fill="none" stroke="black" points="10.5,-189 10.5,-211 277.5,-211 277.5,-189 10.5,-189"/>
<text text-anchor="start" x="30.5" y="-197.2" font-family="Helvetica,sans-Serif" font-size="11.00">value_ro</text>
<polygon fill="none" stroke="black" points="277.5,-189 277.5,-211 355.5,-211 355.5,-189 277.5,-189"/>
<text text-anchor="start" x="280.5" y="-197.2" font-family="Helvetica,sans-Serif" font-size="11.00">varchar[100]</text>
<polygon fill="none" stroke="black" points="10.5,-167 10.5,-189 277.5,-189 277.5,-167 10.5,-167"/>
<text text-anchor="start" x="30.5" y="-175.2" font-family="Helvetica,sans-Serif" font-size="11.00">abbr_en</text>
<polygon fill="none" stroke="black" points="277.5,-167 277.5,-189 355.5,-189 355.5,-167 277.5,-167"/>
<text text-anchor="start" x="280.5" y="-175.2" font-family="Helvetica,sans-Serif" font-size="11.00">varchar[3]</text>
<polygon fill="none" stroke="black" points="10.5,-145 10.5,-167 277.5,-167 277.5,-145 10.5,-145"/>
<text text-anchor="start" x="30.5" y="-153.2" font-family="Helvetica,sans-Serif" font-size="11.00">abbr_de</text>
<polygon fill="none" stroke="black" points="277.5,-145 277.5,-167 355.5,-167 355.5,-145 277.5,-145"/>
<text text-anchor="start" x="280.5" y="-153.2" font-family="Helvetica,sans-Serif" font-size="11.00">varchar[3]</text>
<polygon fill="none" stroke="black" points="10.5,-123 10.5,-145 277.5,-145 277.5,-123 10.5,-123"/>
<text text-anchor="start" x="30.5" y="-131.2" font-family="Helvetica,sans-Serif" font-size="11.00">abbr_fr</text>
<polygon fill="none" stroke="black" points="277.5,-123 277.5,-145 355.5,-145 355.5,-123 277.5,-123"/>
<text text-anchor="start" x="280.5" y="-131.2" font-family="Helvetica,sans-Serif" font-size="11.00">varchar[3]</text>
<polygon fill="none" stroke="black" points="10.5,-101 10.5,-123 277.5,-123 277.5,-101 10.5,-101"/>
<text text-anchor="start" x="30.5" y="-109.2" font-family="Helvetica,sans-Serif" font-size="11.00">abbr_it</text>
<polygon fill="none" stroke="black" points="277.5,-101 277.5,-123 355.5,-123 355.5,-101 277.5,-101"/>
<text text-anchor="start" x="280.5" y="-109.2" font-family="Helvetica,sans-Serif" font-size="11.00">varchar[3]</text>
<polygon fill="none" stroke="black" points="10.5,-79 10.5,-101 277.5,-101 277.5,-79 10.5,-79"/>
<text text-anchor="start" x="30.5" y="-87.2" font-family="Helvetica,sans-Serif" font-size="11.00">abbr_ro</text>
<polygon fill="none" stroke="black" points="277.5,-79 277.5,-101 355.5,-101 355.5,-79 277.5,-79"/>
<text text-anchor="start" x="280.5" y="-87.2" font-family="Helvetica,sans-Serif" font-size="11.00">varchar[3]</text>
<polygon fill="none" stroke="black" points="10.5,-57 10.5,-79 277.5,-79 277.5,-57 10.5,-57"/>
<text text-anchor="start" x="30.5" y="-65.2" font-family="Helvetica,sans-Serif" font-size="11.00">active</text>
<polygon fill="none" stroke="black" points="277.5,-57 277.5,-79 355.5,-79 355.5,-57 277.5,-57"/>
<text text-anchor="start" x="280.5" y="-65.2" font-family="Helvetica,sans-Serif" font-size="11.00">bool[1]</text>
<polygon fill="#ffffff" stroke="transparent" points="10.5,-39 10.5,-57 355.5,-57 355.5,-39 10.5,-39"/>
<polygon fill="none" stroke="black" points="10.5,-39 10.5,-57 355.5,-57 355.5,-39 10.5,-39"/>
<polygon fill="#ffffff" stroke="transparent" points="11.5,-40 11.5,-56 130.5,-56 130.5,-40 11.5,-40"/>
<text text-anchor="start" x="13.5" y="-45.2" font-family="Helvetica,sans-Serif" font-size="11.00">&lt; 0</text>
<polygon fill="#ffffff" stroke="transparent" points="130.5,-40 130.5,-56 236.5,-56 236.5,-40 130.5,-40"/>
<text text-anchor="start" x="179.5" y="-45.2" font-family="Helvetica,sans-Serif" font-size="11.00"> &#160;</text>
<polygon fill="#ffffff" stroke="transparent" points="236.5,-40 236.5,-56 354.5,-56 354.5,-40 236.5,-40"/>
<text text-anchor="start" x="332.5" y="-45.2" font-family="Helvetica,sans-Serif" font-size="11.00">1 &gt;</text>
<polygon fill="black" stroke="black" points="130.5,-40 130.5,-56 130.5,-56 130.5,-40 130.5,-40"/>
<polygon fill="black" stroke="black" points="236.5,-40 236.5,-56 236.5,-56 236.5,-40 236.5,-40"/>
<polygon fill="none" stroke="black" stroke-width="2" points="9,-38 9,-366 356,-366 356,-38 9,-38"/>
</a>
</g>
</g>
<!-- tdh_od.pipe_point&#45;&gt;pipe_point_horizontal_positioning -->
<g id="edge1" class="edge">
<title>tdh_od.pipe_point:w&#45;&gt;pipe_point_horizontal_positioning:e</title>
<path fill="none" stroke="black" d="M390.28,-332C379.29,-332 372.16,-332 356.5,-332"/>
<polygon fill="black" stroke="black" points="397,-332 405,-335.6 401,-332 405,-332 405,-332 405,-332 401,-332 405,-328.4 397,-332 397,-332"/>
<ellipse fill="none" stroke="black" cx="393.8" cy="-332" rx="3.2" ry="3.2"/>
</g>
</g>
</svg>
