<?xml version="1.0" encoding="UTF-8" standalone="no"?>
<!DOCTYPE svg PUBLIC "-//W3C//DTD SVG 1.1//EN"
 "http://www.w3.org/Graphics/SVG/1.1/DTD/svg11.dtd">
<!-- Generated by graphviz version 2.43.0 (0)
 -->
<!-- Title: oneDegreeRelationshipsDiagram Pages: 1 -->
<svg width="548pt" height="729pt"
 viewBox="0.00 0.00 548.00 729.00" xmlns="http://www.w3.org/2000/svg" xmlns:xlink="http://www.w3.org/1999/xlink">
<g id="graph0" class="graph" transform="scale(1 1) rotate(0) translate(4 725)">
<title>oneDegreeRelationshipsDiagram</title>
<polygon fill="#ffffff" stroke="transparent" points="-4,4 -4,-725 544,-725 544,4 -4,4"/>
<text text-anchor="middle" x="79.5" y="-7.2" font-family="Helvetica,sans-Serif" font-size="11.00">Generated by SchemaSpy</text>
<!-- tdh_od.pipe_section -->
<g id="node1" class="node">
<title>tdh_od.pipe_section</title>
<g id="a_node1"><a xlink:href="../../../tdh_od/tables/pipe_section.html" xlink:title="tdh_od.pipe_section" target="_top">
<polygon fill="#ffffff" stroke="transparent" points="340,-395 340,-717 532,-717 532,-395 340,-395"/>
<polygon fill="#f5f5f5" stroke="transparent" points="340,-695 340,-717 532,-717 532,-695 340,-695"/>
<polygon fill="none" stroke="black" points="340,-695 340,-717 532,-717 532,-695 340,-695"/>
<text text-anchor="start" x="345" y="-704.2" font-family="Helvetica,sans-Serif" font-weight="bold" font-size="11.00">tdh_od.pipe_section</text>
<text text-anchor="start" x="490" y="-703.2" font-family="Helvetica,sans-Serif" font-size="11.00">[table]</text>
<polygon fill="none" stroke="black" points="340,-673 340,-695 532,-695 532,-673 340,-673"/>
<image xlink:href="../../images/foreignKeys.png" width="11px" height="12px" preserveAspectRatio="xMinYMin meet" x="345" y="-690"/>
<text text-anchor="start" x="363" y="-681.2" font-family="Helvetica,sans-Serif" font-size="11.00">horizontal_positioning</text>
<polygon fill="none" stroke="black" points="340,-651 340,-673 532,-673 532,-651 340,-651"/>
<image xlink:href="../../images/foreignKeys.png" width="11px" height="12px" preserveAspectRatio="xMinYMin meet" x="345" y="-668"/>
<text text-anchor="start" x="363" y="-659.2" font-family="Helvetica,sans-Serif" font-size="11.00">status</text>
<polygon fill="none" stroke="black" points="340,-629 340,-651 532,-651 532,-629 340,-629"/>
<image xlink:href="../../images/foreignKeys.png" width="11px" height="12px" preserveAspectRatio="xMinYMin meet" x="345" y="-646"/>
<text text-anchor="start" x="363" y="-637.2" font-family="Helvetica,sans-Serif" font-size="11.00">function</text>
<polygon fill="none" stroke="black" points="340,-607 340,-629 532,-629 532,-607 340,-607"/>
<image xlink:href="../../images/foreignKeys.png" width="11px" height="12px" preserveAspectRatio="xMinYMin meet" x="345" y="-624"/>
<text text-anchor="start" x="363" y="-615.2" font-family="Helvetica,sans-Serif" font-size="11.00">pipe_type</text>
<polygon fill="none" stroke="black" points="340,-585 340,-607 532,-607 532,-585 340,-585"/>
<image xlink:href="../../images/foreignKeys.png" width="11px" height="12px" preserveAspectRatio="xMinYMin meet" x="345" y="-602"/>
<text text-anchor="start" x="363" y="-593.2" font-family="Helvetica,sans-Serif" font-size="11.00">fluent</text>
<polygon fill="none" stroke="black" points="340,-563 340,-585 532,-585 532,-563 340,-563"/>
<image xlink:href="../../images/foreignKeys.png" width="11px" height="12px" preserveAspectRatio="xMinYMin meet" x="345" y="-580"/>
<text text-anchor="start" x="363" y="-571.2" font-family="Helvetica,sans-Serif" font-size="11.00">insulation_kind</text>
<polygon fill="none" stroke="black" points="340,-541 340,-563 532,-563 532,-541 340,-541"/>
<image xlink:href="../../images/foreignKeys.png" width="11px" height="12px" preserveAspectRatio="xMinYMin meet" x="345" y="-558"/>
<text text-anchor="start" x="363" y="-549.2" font-family="Helvetica,sans-Serif" font-size="11.00">coating</text>
<polygon fill="none" stroke="black" points="340,-519 340,-541 532,-541 532,-519 340,-519"/>
<image xlink:href="../../images/foreignKeys.png" width="11px" height="12px" preserveAspectRatio="xMinYMin meet" x="345" y="-536"/>
<text text-anchor="start" x="363" y="-527.2" font-family="Helvetica,sans-Serif" font-size="11.00">pipeline_quality</text>
<polygon fill="none" stroke="black" points="340,-497 340,-519 532,-519 532,-497 340,-497"/>
<image xlink:href="../../images/foreignKeys.png" width="11px" height="12px" preserveAspectRatio="xMinYMin meet" x="345" y="-514"/>
<text text-anchor="start" x="363" y="-505.2" font-family="Helvetica,sans-Serif" font-size="11.00">mg_material</text>
<polygon fill="none" stroke="black" points="340,-475 340,-497 532,-497 532,-475 340,-475"/>
<image xlink:href="../../images/foreignKeys.png" width="11px" height="12px" preserveAspectRatio="xMinYMin meet" x="345" y="-492"/>
<text text-anchor="start" x="363" y="-483.2" font-family="Helvetica,sans-Serif" font-size="11.00">mg_diameter</text>
<polygon fill="none" stroke="black" points="340,-453 340,-475 532,-475 532,-453 340,-453"/>
<image xlink:href="../../images/foreignKeys.png" width="11px" height="12px" preserveAspectRatio="xMinYMin meet" x="345" y="-470"/>
<text text-anchor="start" x="363" y="-461.2" font-family="Helvetica,sans-Serif" font-size="11.00">mg_trench_type</text>
<polygon fill="none" stroke="black" points="340,-431 340,-453 532,-453 532,-431 340,-431"/>
<image xlink:href="../../images/foreignKeys.png" width="11px" height="12px" preserveAspectRatio="xMinYMin meet" x="345" y="-448"/>
<text text-anchor="start" x="363" y="-439.2" font-family="Helvetica,sans-Serif" font-size="11.00">mg_signaling_band</text>
<polygon fill="none" stroke="black" points="340,-413 340,-431 532,-431 532,-413 340,-413"/>
<text text-anchor="start" x="343" y="-419.2" font-family="Helvetica,sans-Serif" font-size="11.00">...</text>
<polygon fill="#ffffff" stroke="transparent" points="340,-395 340,-413 532,-413 532,-395 340,-395"/>
<polygon fill="none" stroke="black" points="340,-395 340,-413 532,-413 532,-395 340,-395"/>
<polygon fill="#ffffff" stroke="transparent" points="341,-396 341,-412 408,-412 408,-396 341,-396"/>
<text text-anchor="start" x="343" y="-401.2" font-family="Helvetica,sans-Serif" font-size="11.00">&lt; 12</text>
<polygon fill="#ffffff" stroke="transparent" points="408,-396 408,-412 484,-412 484,-396 408,-396"/>
<text text-anchor="start" x="427.5" y="-401.2" font-family="Helvetica,sans-Serif" font-size="11.00">0 rows</text>
<polygon fill="#ffffff" stroke="transparent" points="484,-396 484,-412 531,-412 531,-396 484,-396"/>
<text text-anchor="start" x="521" y="-401.2" font-family="Helvetica,sans-Serif" font-size="11.00"> &#160;</text>
<polygon fill="black" stroke="black" points="408,-396 408,-412 408,-412 408,-396 408,-396"/>
<polygon fill="black" stroke="black" points="484,-396 484,-412 484,-412 484,-396 484,-396"/>
</a>
</g>
</g>
<!-- pipe_section_coating -->
<g id="node2" class="node">
<title>pipe_section_coating</title>
<g id="a_node2"><a xlink:href="../../tables/pipe_section_coating.html" xlink:title="pipe_section_coating" target="_top">
<polygon fill="#ffffff" stroke="transparent" points="8,-37 8,-587 291,-587 291,-37 8,-37"/>
<polygon fill="#f5f5f5" stroke="transparent" points="10.5,-563 10.5,-585 289.5,-585 289.5,-563 10.5,-563"/>
<polygon fill="none" stroke="black" points="10.5,-563 10.5,-585 289.5,-585 289.5,-563 10.5,-563"/>
<text text-anchor="start" x="15.5" y="-572.2" font-family="Helvetica,sans-Serif" font-weight="bold" font-size="11.00">pipe_section_coating</text>
<text text-anchor="start" x="247.5" y="-571.2" font-family="Helvetica,sans-Serif" font-size="11.00">[table]</text>
<polygon fill="none" stroke="black" points="10.5,-541 10.5,-563 183.5,-563 183.5,-541 10.5,-541"/>
<image xlink:href="../../images/primaryKeys.png" width="11px" height="12px" preserveAspectRatio="xMinYMin meet" x="15.5" y="-558"/>
<text text-anchor="start" x="30.5" y="-549.2" font-family="Helvetica,sans-Serif" font-size="11.00">code</text>
<polygon fill="none" stroke="black" points="183.5,-541 183.5,-563 289.5,-563 289.5,-541 183.5,-541"/>
<text text-anchor="start" x="186.5" y="-549.2" font-family="Helvetica,sans-Serif" font-size="11.00">int4[10]</text>
<polygon fill="none" stroke="black" points="10.5,-519 10.5,-541 183.5,-541 183.5,-519 10.5,-519"/>
<text text-anchor="start" x="30.5" y="-527.2" font-family="Helvetica,sans-Serif" font-size="11.00">vsacode</text>
<polygon fill="none" stroke="black" points="183.5,-519 183.5,-541 289.5,-541 289.5,-519 183.5,-519"/>
<text text-anchor="start" x="186.5" y="-527.2" font-family="Helvetica,sans-Serif" font-size="11.00">int4[10]</text>
<polygon fill="none" stroke="black" points="10.5,-497 10.5,-519 183.5,-519 183.5,-497 10.5,-497"/>
<text text-anchor="start" x="30.5" y="-505.2" font-family="Helvetica,sans-Serif" font-size="11.00">value_en</text>
<polygon fill="none" stroke="black" points="183.5,-497 183.5,-519 289.5,-519 289.5,-497 183.5,-497"/>
<text text-anchor="start" x="186.5" y="-505.2" font-family="Helvetica,sans-Serif" font-size="11.00">varchar[100]</text>
<polygon fill="none" stroke="black" points="10.5,-475 10.5,-497 183.5,-497 183.5,-475 10.5,-475"/>
<text text-anchor="start" x="30.5" y="-483.2" font-family="Helvetica,sans-Serif" font-size="11.00">value_de</text>
<polygon fill="none" stroke="black" points="183.5,-475 183.5,-497 289.5,-497 289.5,-475 183.5,-475"/>
<text text-anchor="start" x="186.5" y="-483.2" font-family="Helvetica,sans-Serif" font-size="11.00">varchar[100]</text>
<polygon fill="none" stroke="black" points="10.5,-453 10.5,-475 183.5,-475 183.5,-453 10.5,-453"/>
<text text-anchor="start" x="30.5" y="-461.2" font-family="Helvetica,sans-Serif" font-size="11.00">value_fr</text>
<polygon fill="none" stroke="black" points="183.5,-453 183.5,-475 289.5,-475 289.5,-453 183.5,-453"/>
<text text-anchor="start" x="186.5" y="-461.2" font-family="Helvetica,sans-Serif" font-size="11.00">varchar[100]</text>
<polygon fill="none" stroke="black" points="10.5,-431 10.5,-453 183.5,-453 183.5,-431 10.5,-431"/>
<text text-anchor="start" x="30.5" y="-439.2" font-family="Helvetica,sans-Serif" font-size="11.00">value_it</text>
<polygon fill="none" stroke="black" points="183.5,-431 183.5,-453 289.5,-453 289.5,-431 183.5,-431"/>
<text text-anchor="start" x="186.5" y="-439.2" font-family="Helvetica,sans-Serif" font-size="11.00">varchar[100]</text>
<polygon fill="none" stroke="black" points="10.5,-409 10.5,-431 183.5,-431 183.5,-409 10.5,-409"/>
<text text-anchor="start" x="30.5" y="-417.2" font-family="Helvetica,sans-Serif" font-size="11.00">value_ro</text>
<polygon fill="none" stroke="black" points="183.5,-409 183.5,-431 289.5,-431 289.5,-409 183.5,-409"/>
<text text-anchor="start" x="186.5" y="-417.2" font-family="Helvetica,sans-Serif" font-size="11.00">varchar[100]</text>
<polygon fill="none" stroke="black" points="10.5,-387 10.5,-409 183.5,-409 183.5,-387 10.5,-387"/>
<text text-anchor="start" x="30.5" y="-395.2" font-family="Helvetica,sans-Serif" font-size="11.00">abbr_en</text>
<polygon fill="none" stroke="black" points="183.5,-387 183.5,-409 289.5,-409 289.5,-387 183.5,-387"/>
<text text-anchor="start" x="186.5" y="-395.2" font-family="Helvetica,sans-Serif" font-size="11.00">varchar[3]</text>
<polygon fill="none" stroke="black" points="10.5,-365 10.5,-387 183.5,-387 183.5,-365 10.5,-365"/>
<text text-anchor="start" x="30.5" y="-373.2" font-family="Helvetica,sans-Serif" font-size="11.00">abbr_de</text>
<polygon fill="none" stroke="black" points="183.5,-365 183.5,-387 289.5,-387 289.5,-365 183.5,-365"/>
<text text-anchor="start" x="186.5" y="-373.2" font-family="Helvetica,sans-Serif" font-size="11.00">varchar[3]</text>
<polygon fill="none" stroke="black" points="10.5,-343 10.5,-365 183.5,-365 183.5,-343 10.5,-343"/>
<text text-anchor="start" x="30.5" y="-351.2" font-family="Helvetica,sans-Serif" font-size="11.00">abbr_fr</text>
<polygon fill="none" stroke="black" points="183.5,-343 183.5,-365 289.5,-365 289.5,-343 183.5,-343"/>
<text text-anchor="start" x="186.5" y="-351.2" font-family="Helvetica,sans-Serif" font-size="11.00">varchar[3]</text>
<polygon fill="none" stroke="black" points="10.5,-321 10.5,-343 183.5,-343 183.5,-321 10.5,-321"/>
<text text-anchor="start" x="30.5" y="-329.2" font-family="Helvetica,sans-Serif" font-size="11.00">abbr_it</text>
<polygon fill="none" stroke="black" points="183.5,-321 183.5,-343 289.5,-343 289.5,-321 183.5,-321"/>
<text text-anchor="start" x="186.5" y="-329.2" font-family="Helvetica,sans-Serif" font-size="11.00">varchar[3]</text>
<polygon fill="none" stroke="black" points="10.5,-299 10.5,-321 183.5,-321 183.5,-299 10.5,-299"/>
<text text-anchor="start" x="30.5" y="-307.2" font-family="Helvetica,sans-Serif" font-size="11.00">abbr_ro</text>
<polygon fill="none" stroke="black" points="183.5,-299 183.5,-321 289.5,-321 289.5,-299 183.5,-299"/>
<text text-anchor="start" x="186.5" y="-307.2" font-family="Helvetica,sans-Serif" font-size="11.00">varchar[3]</text>
<polygon fill="none" stroke="black" points="10.5,-277 10.5,-299 183.5,-299 183.5,-277 10.5,-277"/>
<text text-anchor="start" x="30.5" y="-285.2" font-family="Helvetica,sans-Serif" font-size="11.00">description_en</text>
<polygon fill="none" stroke="black" points="183.5,-277 183.5,-299 289.5,-299 289.5,-277 183.5,-277"/>
<text text-anchor="start" x="186.5" y="-285.2" font-family="Helvetica,sans-Serif" font-size="11.00">text[2147483647]</text>
<polygon fill="none" stroke="black" points="10.5,-255 10.5,-277 183.5,-277 183.5,-255 10.5,-255"/>
<text text-anchor="start" x="30.5" y="-263.2" font-family="Helvetica,sans-Serif" font-size="11.00">description_de</text>
<polygon fill="none" stroke="black" points="183.5,-255 183.5,-277 289.5,-277 289.5,-255 183.5,-255"/>
<text text-anchor="start" x="186.5" y="-263.2" font-family="Helvetica,sans-Serif" font-size="11.00">text[2147483647]</text>
<polygon fill="none" stroke="black" points="10.5,-233 10.5,-255 183.5,-255 183.5,-233 10.5,-233"/>
<text text-anchor="start" x="30.5" y="-241.2" font-family="Helvetica,sans-Serif" font-size="11.00">description_fr</text>
<polygon fill="none" stroke="black" points="183.5,-233 183.5,-255 289.5,-255 289.5,-233 183.5,-233"/>
<text text-anchor="start" x="186.5" y="-241.2" font-family="Helvetica,sans-Serif" font-size="11.00">text[2147483647]</text>
<polygon fill="none" stroke="black" points="10.5,-211 10.5,-233 183.5,-233 183.5,-211 10.5,-211"/>
<text text-anchor="start" x="30.5" y="-219.2" font-family="Helvetica,sans-Serif" font-size="11.00">description_it</text>
<polygon fill="none" stroke="black" points="183.5,-211 183.5,-233 289.5,-233 289.5,-211 183.5,-211"/>
<text text-anchor="start" x="186.5" y="-219.2" font-family="Helvetica,sans-Serif" font-size="11.00">text[2147483647]</text>
<polygon fill="none" stroke="black" points="10.5,-189 10.5,-211 183.5,-211 183.5,-189 10.5,-189"/>
<text text-anchor="start" x="30.5" y="-197.2" font-family="Helvetica,sans-Serif" font-size="11.00">description_ro</text>
<polygon fill="none" stroke="black" points="183.5,-189 183.5,-211 289.5,-211 289.5,-189 183.5,-189"/>
<text text-anchor="start" x="186.5" y="-197.2" font-family="Helvetica,sans-Serif" font-size="11.00">text[2147483647]</text>
<polygon fill="none" stroke="black" points="10.5,-167 10.5,-189 183.5,-189 183.5,-167 10.5,-167"/>
<text text-anchor="start" x="30.5" y="-175.2" font-family="Helvetica,sans-Serif" font-size="11.00">display_en</text>
<polygon fill="none" stroke="black" points="183.5,-167 183.5,-189 289.5,-189 289.5,-167 183.5,-167"/>
<text text-anchor="start" x="186.5" y="-175.2" font-family="Helvetica,sans-Serif" font-size="11.00">varchar[100]</text>
<polygon fill="none" stroke="black" points="10.5,-145 10.5,-167 183.5,-167 183.5,-145 10.5,-145"/>
<text text-anchor="start" x="30.5" y="-153.2" font-family="Helvetica,sans-Serif" font-size="11.00">display_de</text>
<polygon fill="none" stroke="black" points="183.5,-145 183.5,-167 289.5,-167 289.5,-145 183.5,-145"/>
<text text-anchor="start" x="186.5" y="-153.2" font-family="Helvetica,sans-Serif" font-size="11.00">varchar[100]</text>
<polygon fill="none" stroke="black" points="10.5,-123 10.5,-145 183.5,-145 183.5,-123 10.5,-123"/>
<text text-anchor="start" x="30.5" y="-131.2" font-family="Helvetica,sans-Serif" font-size="11.00">display_fr</text>
<polygon fill="none" stroke="black" points="183.5,-123 183.5,-145 289.5,-145 289.5,-123 183.5,-123"/>
<text text-anchor="start" x="186.5" y="-131.2" font-family="Helvetica,sans-Serif" font-size="11.00">varchar[100]</text>
<polygon fill="none" stroke="black" points="10.5,-101 10.5,-123 183.5,-123 183.5,-101 10.5,-101"/>
<text text-anchor="start" x="30.5" y="-109.2" font-family="Helvetica,sans-Serif" font-size="11.00">display_it</text>
<polygon fill="none" stroke="black" points="183.5,-101 183.5,-123 289.5,-123 289.5,-101 183.5,-101"/>
<text text-anchor="start" x="186.5" y="-109.2" font-family="Helvetica,sans-Serif" font-size="11.00">varchar[100]</text>
<polygon fill="none" stroke="black" points="10.5,-79 10.5,-101 183.5,-101 183.5,-79 10.5,-79"/>
<text text-anchor="start" x="30.5" y="-87.2" font-family="Helvetica,sans-Serif" font-size="11.00">display_ro</text>
<polygon fill="none" stroke="black" points="183.5,-79 183.5,-101 289.5,-101 289.5,-79 183.5,-79"/>
<text text-anchor="start" x="186.5" y="-87.2" font-family="Helvetica,sans-Serif" font-size="11.00">varchar[100]</text>
<polygon fill="none" stroke="black" points="10.5,-57 10.5,-79 183.5,-79 183.5,-57 10.5,-57"/>
<text text-anchor="start" x="30.5" y="-65.2" font-family="Helvetica,sans-Serif" font-size="11.00">active</text>
<polygon fill="none" stroke="black" points="183.5,-57 183.5,-79 289.5,-79 289.5,-57 183.5,-57"/>
<text text-anchor="start" x="186.5" y="-65.2" font-family="Helvetica,sans-Serif" font-size="11.00">bool[1]</text>
<polygon fill="#ffffff" stroke="transparent" points="10.5,-39 10.5,-57 289.5,-57 289.5,-39 10.5,-39"/>
<polygon fill="none" stroke="black" points="10.5,-39 10.5,-57 289.5,-57 289.5,-39 10.5,-39"/>
<polygon fill="#ffffff" stroke="transparent" points="11.5,-40 11.5,-56 108.5,-56 108.5,-40 11.5,-40"/>
<text text-anchor="start" x="13.5" y="-45.2" font-family="Helvetica,sans-Serif" font-size="11.00">&lt; 0</text>
<polygon fill="#ffffff" stroke="transparent" points="108.5,-40 108.5,-56 192.5,-56 192.5,-40 108.5,-40"/>
<text text-anchor="start" x="146.5" y="-45.2" font-family="Helvetica,sans-Serif" font-size="11.00"> &#160;</text>
<polygon fill="#ffffff" stroke="transparent" points="192.5,-40 192.5,-56 288.5,-56 288.5,-40 192.5,-40"/>
<text text-anchor="start" x="266.5" y="-45.2" font-family="Helvetica,sans-Serif" font-size="11.00">1 &gt;</text>
<polygon fill="black" stroke="black" points="108.5,-40 108.5,-56 108.5,-56 108.5,-40 108.5,-40"/>
<polygon fill="black" stroke="black" points="192.5,-40 192.5,-56 192.5,-56 192.5,-40 192.5,-40"/>
<polygon fill="none" stroke="black" stroke-width="2" points="9,-38 9,-586 290,-586 290,-38 9,-38"/>
</a>
</g>
</g>
<!-- tdh_od.pipe_section&#45;&gt;pipe_section_coating -->
<g id="edge1" class="edge">
<title>tdh_od.pipe_section:w&#45;&gt;pipe_section_coating:e</title>
<path fill="none" stroke="black" d="M324.28,-552C313.29,-552 306.16,-552 290.5,-552"/>
<polygon fill="black" stroke="black" points="331,-552 339,-555.6 335,-552 339,-552 339,-552 339,-552 335,-552 339,-548.4 331,-552 331,-552"/>
<ellipse fill="none" stroke="black" cx="327.8" cy="-552" rx="3.2" ry="3.2"/>
</g>
</g>
</svg>
