<?xml version="1.0" encoding="UTF-8" standalone="no"?>
<!DOCTYPE svg PUBLIC "-//W3C//DTD SVG 1.1//EN"
 "http://www.w3.org/Graphics/SVG/1.1/DTD/svg11.dtd">
<!-- Generated by graphviz version 2.47.1 (20210515.0534)
 -->
<!-- Title: oneDegreeRelationshipsDiagram Pages: 1 -->
<svg width="501pt" height="399pt"
 viewBox="0.00 0.00 501.00 399.00" xmlns="http://www.w3.org/2000/svg" xmlns:xlink="http://www.w3.org/1999/xlink">
<g id="graph0" class="graph" transform="scale(1 1) rotate(0) translate(4 395)">
<title>oneDegreeRelationshipsDiagram</title>
<polygon fill="#ffffff" stroke="transparent" points="-4,4 -4,-395 497,-395 497,4 -4,4"/>
<text text-anchor="middle" x="73.5" y="-7.2" font-family="Helvetica,sans-Serif" font-size="11.00">Generated by SchemaSpy</text>
<!-- tdh_od.pipe_point_feed -->
<g id="node1" class="node">
<title>tdh_od.pipe_point_feed</title>
<g id="a_node1"><a xlink:href="../../../tdh_od/tables/pipe_point_feed.html" xlink:title="tdh_od.pipe_point_feed" target="_top">
<polygon fill="#ffffff" stroke="transparent" points="303,-285 303,-387 485,-387 485,-285 303,-285"/>
<polygon fill="#f5f5f5" stroke="transparent" points="303,-365 303,-387 485,-387 485,-365 303,-365"/>
<polygon fill="none" stroke="black" points="303,-365 303,-387 485,-387 485,-365 303,-365"/>
<text text-anchor="start" x="308" y="-374.2" font-family="Helvetica,sans-Serif" font-weight="bold" font-size="11.00">tdh_od.pipe_point_feed</text>
<text text-anchor="start" x="446" y="-373.2" font-family="Helvetica,sans-Serif" font-size="11.00">[table]</text>
<polygon fill="none" stroke="black" points="303,-343 303,-365 485,-365 485,-343 303,-343"/>
<image xlink:href="../../images/foreignKeys.png" width="11px" height="12px" preserveAspectRatio="xMinYMin meet" x="308" y="-360"/>
<text text-anchor="start" x="328" y="-351.2" font-family="Helvetica,sans-Serif" font-size="11.00">kind</text>
<polygon fill="none" stroke="black" points="303,-321 303,-343 485,-343 485,-321 303,-321"/>
<image xlink:href="../../images/foreignKeys.png" width="11px" height="12px" preserveAspectRatio="xMinYMin meet" x="308" y="-338"/>
<text text-anchor="start" x="328" y="-329.2" font-family="Helvetica,sans-Serif" font-size="11.00">category</text>
<polygon fill="none" stroke="black" points="303,-303 303,-321 485,-321 485,-303 303,-303"/>
<text text-anchor="start" x="306" y="-309.2" font-family="Helvetica,sans-Serif" font-size="11.00">...</text>
<polygon fill="#ffffff" stroke="transparent" points="303,-285 303,-303 378,-303 378,-285 303,-285"/>
<polygon fill="none" stroke="black" points="303,-285 303,-303 378,-303 378,-285 303,-285"/>
<text text-anchor="start" x="306" y="-291.2" font-family="Helvetica,sans-Serif" font-size="11.00">&lt; 2</text>
<polygon fill="#ffffff" stroke="transparent" points="378,-285 378,-303 445,-303 445,-285 378,-285"/>
<polygon fill="none" stroke="black" points="378,-285 378,-303 445,-303 445,-285 378,-285"/>
<text text-anchor="start" x="408" y="-291.2" font-family="Helvetica,sans-Serif" font-size="11.00">0 rows</text>
<polygon fill="#ffffff" stroke="transparent" points="445,-285 445,-303 485,-303 485,-285 445,-285"/>
<polygon fill="none" stroke="black" points="445,-285 445,-303 485,-303 485,-285 445,-285"/>
<text text-anchor="start" x="475" y="-291.2" font-family="Helvetica,sans-Serif" font-size="11.00"> &#160;</text>
</a>
</g>
</g>
<!-- pipe_point_feed_category -->
<g id="node2" class="node">
<title>pipe_point_feed_category</title>
<g id="a_node2"><a xlink:href="../../tables/pipe_point_feed_category.html" xlink:title="pipe_point_feed_category" target="_top">
<polygon fill="#ffffff" stroke="transparent" points="8,-37 8,-367 254,-367 254,-37 8,-37"/>
<polygon fill="#f5f5f5" stroke="transparent" points="10,-343 10,-365 252,-365 252,-343 10,-343"/>
<polygon fill="none" stroke="black" points="10,-343 10,-365 252,-365 252,-343 10,-343"/>
<text text-anchor="start" x="15" y="-352.2" font-family="Helvetica,sans-Serif" font-weight="bold" font-size="11.00">pipe_point_feed_category</text>
<text text-anchor="start" x="213" y="-351.2" font-family="Helvetica,sans-Serif" font-size="11.00">[table]</text>
<polygon fill="none" stroke="black" points="10,-321 10,-343 182,-343 182,-321 10,-321"/>
<image xlink:href="../../images/primaryKeys.png" width="11px" height="12px" preserveAspectRatio="xMinYMin meet" x="15" y="-338"/>
<text text-anchor="start" x="30" y="-329.2" font-family="Helvetica,sans-Serif" font-size="11.00">code</text>
<polygon fill="none" stroke="black" points="182,-321 182,-343 252,-343 252,-321 182,-321"/>
<text text-anchor="start" x="185" y="-329.2" font-family="Helvetica,sans-Serif" font-size="11.00">int4[10]</text>
<polygon fill="none" stroke="black" points="10,-299 10,-321 182,-321 182,-299 10,-299"/>
<text text-anchor="start" x="30" y="-307.2" font-family="Helvetica,sans-Serif" font-size="11.00">vsacode</text>
<polygon fill="none" stroke="black" points="182,-299 182,-321 252,-321 252,-299 182,-299"/>
<text text-anchor="start" x="185" y="-307.2" font-family="Helvetica,sans-Serif" font-size="11.00">int4[10]</text>
<polygon fill="none" stroke="black" points="10,-277 10,-299 182,-299 182,-277 10,-277"/>
<text text-anchor="start" x="30" y="-285.2" font-family="Helvetica,sans-Serif" font-size="11.00">value_en</text>
<polygon fill="none" stroke="black" points="182,-277 182,-299 252,-299 252,-277 182,-277"/>
<text text-anchor="start" x="185" y="-285.2" font-family="Helvetica,sans-Serif" font-size="11.00">varchar[100]</text>
<polygon fill="none" stroke="black" points="10,-255 10,-277 182,-277 182,-255 10,-255"/>
<text text-anchor="start" x="30" y="-263.2" font-family="Helvetica,sans-Serif" font-size="11.00">value_de</text>
<polygon fill="none" stroke="black" points="182,-255 182,-277 252,-277 252,-255 182,-255"/>
<text text-anchor="start" x="185" y="-263.2" font-family="Helvetica,sans-Serif" font-size="11.00">varchar[100]</text>
<polygon fill="none" stroke="black" points="10,-233 10,-255 182,-255 182,-233 10,-233"/>
<text text-anchor="start" x="30" y="-241.2" font-family="Helvetica,sans-Serif" font-size="11.00">value_fr</text>
<polygon fill="none" stroke="black" points="182,-233 182,-255 252,-255 252,-233 182,-233"/>
<text text-anchor="start" x="185" y="-241.2" font-family="Helvetica,sans-Serif" font-size="11.00">varchar[100]</text>
<polygon fill="none" stroke="black" points="10,-211 10,-233 182,-233 182,-211 10,-211"/>
<text text-anchor="start" x="30" y="-219.2" font-family="Helvetica,sans-Serif" font-size="11.00">value_it</text>
<polygon fill="none" stroke="black" points="182,-211 182,-233 252,-233 252,-211 182,-211"/>
<text text-anchor="start" x="185" y="-219.2" font-family="Helvetica,sans-Serif" font-size="11.00">varchar[100]</text>
<polygon fill="none" stroke="black" points="10,-189 10,-211 182,-211 182,-189 10,-189"/>
<text text-anchor="start" x="30" y="-197.2" font-family="Helvetica,sans-Serif" font-size="11.00">value_ro</text>
<polygon fill="none" stroke="black" points="182,-189 182,-211 252,-211 252,-189 182,-189"/>
<text text-anchor="start" x="185" y="-197.2" font-family="Helvetica,sans-Serif" font-size="11.00">varchar[100]</text>
<polygon fill="none" stroke="black" points="10,-167 10,-189 182,-189 182,-167 10,-167"/>
<text text-anchor="start" x="30" y="-175.2" font-family="Helvetica,sans-Serif" font-size="11.00">abbr_en</text>
<polygon fill="none" stroke="black" points="182,-167 182,-189 252,-189 252,-167 182,-167"/>
<text text-anchor="start" x="185" y="-175.2" font-family="Helvetica,sans-Serif" font-size="11.00">varchar[3]</text>
<polygon fill="none" stroke="black" points="10,-145 10,-167 182,-167 182,-145 10,-145"/>
<text text-anchor="start" x="30" y="-153.2" font-family="Helvetica,sans-Serif" font-size="11.00">abbr_de</text>
<polygon fill="none" stroke="black" points="182,-145 182,-167 252,-167 252,-145 182,-145"/>
<text text-anchor="start" x="185" y="-153.2" font-family="Helvetica,sans-Serif" font-size="11.00">varchar[3]</text>
<polygon fill="none" stroke="black" points="10,-123 10,-145 182,-145 182,-123 10,-123"/>
<text text-anchor="start" x="30" y="-131.2" font-family="Helvetica,sans-Serif" font-size="11.00">abbr_fr</text>
<polygon fill="none" stroke="black" points="182,-123 182,-145 252,-145 252,-123 182,-123"/>
<text text-anchor="start" x="185" y="-131.2" font-family="Helvetica,sans-Serif" font-size="11.00">varchar[3]</text>
<polygon fill="none" stroke="black" points="10,-101 10,-123 182,-123 182,-101 10,-101"/>
<text text-anchor="start" x="30" y="-109.2" font-family="Helvetica,sans-Serif" font-size="11.00">abbr_it</text>
<polygon fill="none" stroke="black" points="182,-101 182,-123 252,-123 252,-101 182,-101"/>
<text text-anchor="start" x="185" y="-109.2" font-family="Helvetica,sans-Serif" font-size="11.00">varchar[3]</text>
<polygon fill="none" stroke="black" points="10,-79 10,-101 182,-101 182,-79 10,-79"/>
<text text-anchor="start" x="30" y="-87.2" font-family="Helvetica,sans-Serif" font-size="11.00">abbr_ro</text>
<polygon fill="none" stroke="black" points="182,-79 182,-101 252,-101 252,-79 182,-79"/>
<text text-anchor="start" x="185" y="-87.2" font-family="Helvetica,sans-Serif" font-size="11.00">varchar[3]</text>
<polygon fill="none" stroke="black" points="10,-57 10,-79 182,-79 182,-57 10,-57"/>
<text text-anchor="start" x="30" y="-65.2" font-family="Helvetica,sans-Serif" font-size="11.00">active</text>
<polygon fill="none" stroke="black" points="182,-57 182,-79 252,-79 252,-57 182,-57"/>
<text text-anchor="start" x="185" y="-65.2" font-family="Helvetica,sans-Serif" font-size="11.00">bool[1]</text>
<polygon fill="#ffffff" stroke="transparent" points="10,-39 10,-57 100,-57 100,-39 10,-39"/>
<polygon fill="none" stroke="black" points="10,-39 10,-57 100,-57 100,-39 10,-39"/>
<text text-anchor="start" x="13" y="-45.2" font-family="Helvetica,sans-Serif" font-size="11.00">&lt; 0</text>
<polygon fill="#ffffff" stroke="transparent" points="100,-39 100,-57 182,-57 182,-39 100,-39"/>
<polygon fill="none" stroke="black" points="100,-39 100,-57 182,-57 182,-39 100,-39"/>
<text text-anchor="start" x="172" y="-45.2" font-family="Helvetica,sans-Serif" font-size="11.00"> &#160;</text>
<polygon fill="#ffffff" stroke="transparent" points="182,-39 182,-57 252,-57 252,-39 182,-39"/>
<polygon fill="none" stroke="black" points="182,-39 182,-57 252,-57 252,-39 182,-39"/>
<text text-anchor="start" x="233" y="-45.2" font-family="Helvetica,sans-Serif" font-size="11.00">1 &gt;</text>
<polygon fill="none" stroke="black" stroke-width="2" points="9,-38 9,-366 253,-366 253,-38 9,-38"/>
</a>
</g>
</g>
<!-- tdh_od.pipe_point_feed&#45;&gt;pipe_point_feed_category -->
<g id="edge1" class="edge">
<title>tdh_od.pipe_point_feed:w&#45;&gt;pipe_point_feed_category:e</title>
<path fill="none" stroke="black" d="M287.49,-332C276.18,-332 268.99,-332 253,-332"/>
<polygon fill="black" stroke="black" points="294,-332 302,-335.6 298,-332 302,-332 302,-332 302,-332 298,-332 302,-328.4 294,-332 294,-332"/>
<ellipse fill="none" stroke="black" cx="290.8" cy="-332" rx="3.2" ry="3.2"/>
</g>
</g>
</svg>
