<?xml version="1.0" encoding="UTF-8" standalone="no"?>
<!DOCTYPE svg PUBLIC "-//W3C//DTD SVG 1.1//EN"
 "http://www.w3.org/Graphics/SVG/1.1/DTD/svg11.dtd">
<!-- Generated by graphviz version 2.43.0 (0)
 -->
<!-- Title: oneDegreeRelationshipsDiagram Pages: 1 -->
<svg width="622pt" height="379pt"
 viewBox="0.00 0.00 622.00 379.00" xmlns="http://www.w3.org/2000/svg" xmlns:xlink="http://www.w3.org/1999/xlink">
<g id="graph0" class="graph" transform="scale(1 1) rotate(0) translate(4 375)">
<title>oneDegreeRelationshipsDiagram</title>
<polygon fill="#ffffff" stroke="transparent" points="-4,4 -4,-375 618,-375 618,4 -4,4"/>
<text text-anchor="middle" x="79.5" y="-7.2" font-family="Helvetica,sans-Serif" font-size="11.00">Generated by SchemaSpy</text>
<!-- tdh_od.sia405cc_cable_point -->
<g id="node1" class="node">
<title>tdh_od.sia405cc_cable_point</title>
<g id="a_node1"><a xlink:href="../../../tdh_od/tables/sia405cc_cable_point.html" xlink:title="tdh_od.sia405cc_cable_point" target="_top">
<polygon fill="#ffffff" stroke="transparent" points="351,-219 351,-365 606,-365 606,-219 351,-219"/>
<polygon fill="#f5f5f5" stroke="transparent" points="351.5,-343 351.5,-365 606.5,-365 606.5,-343 351.5,-343"/>
<polygon fill="none" stroke="black" points="351.5,-343 351.5,-365 606.5,-365 606.5,-343 351.5,-343"/>
<text text-anchor="start" x="356.5" y="-352.2" font-family="Helvetica,sans-Serif" font-weight="bold" font-size="11.00">tdh_od.sia405cc_cable_point</text>
<text text-anchor="start" x="564.5" y="-351.2" font-family="Helvetica,sans-Serif" font-size="11.00">[table]</text>
<polygon fill="none" stroke="black" points="351.5,-321 351.5,-343 606.5,-343 606.5,-321 351.5,-321"/>
<image xlink:href="../../images/foreignKeys.png" width="11px" height="12px" preserveAspectRatio="xMinYMin meet" x="356.5" y="-338"/>
<text text-anchor="start" x="399.5" y="-329.2" font-family="Helvetica,sans-Serif" font-size="11.00">kind</text>
<polygon fill="none" stroke="black" points="351.5,-299 351.5,-321 606.5,-321 606.5,-299 351.5,-299"/>
<image xlink:href="../../images/foreignKeys.png" width="11px" height="12px" preserveAspectRatio="xMinYMin meet" x="356.5" y="-316"/>
<text text-anchor="start" x="399.5" y="-307.2" font-family="Helvetica,sans-Serif" font-size="11.00">horizontal_positioning</text>
<polygon fill="none" stroke="black" points="351.5,-277 351.5,-299 606.5,-299 606.5,-277 351.5,-277"/>
<image xlink:href="../../images/foreignKeys.png" width="11px" height="12px" preserveAspectRatio="xMinYMin meet" x="356.5" y="-294"/>
<text text-anchor="start" x="399.5" y="-285.2" font-family="Helvetica,sans-Serif" font-size="11.00">elevation_determination</text>
<polygon fill="none" stroke="black" points="351.5,-255 351.5,-277 606.5,-277 606.5,-255 351.5,-255"/>
<image xlink:href="../../images/foreignKeys.png" width="11px" height="12px" preserveAspectRatio="xMinYMin meet" x="356.5" y="-272"/>
<text text-anchor="start" x="399.5" y="-263.2" font-family="Helvetica,sans-Serif" font-size="11.00">status</text>
<polygon fill="none" stroke="black" points="351.5,-237 351.5,-255 606.5,-255 606.5,-237 351.5,-237"/>
<text text-anchor="start" x="354.5" y="-243.2" font-family="Helvetica,sans-Serif" font-size="11.00">...</text>
<polygon fill="#ffffff" stroke="transparent" points="351.5,-219 351.5,-237 606.5,-237 606.5,-219 351.5,-219"/>
<polygon fill="none" stroke="black" points="351.5,-219 351.5,-237 606.5,-237 606.5,-219 351.5,-219"/>
<polygon fill="#ffffff" stroke="transparent" points="352.5,-220 352.5,-236 435.5,-236 435.5,-220 352.5,-220"/>
<text text-anchor="start" x="354.5" y="-225.2" font-family="Helvetica,sans-Serif" font-size="11.00">&lt; 4</text>
<polygon fill="#ffffff" stroke="transparent" points="435.5,-220 435.5,-236 535.5,-236 535.5,-220 435.5,-220"/>
<text text-anchor="start" x="467" y="-225.2" font-family="Helvetica,sans-Serif" font-size="11.00">0 rows</text>
<polygon fill="#ffffff" stroke="transparent" points="535.5,-220 535.5,-236 605.5,-236 605.5,-220 535.5,-220"/>
<text text-anchor="start" x="595.5" y="-225.2" font-family="Helvetica,sans-Serif" font-size="11.00"> &#160;</text>
<polygon fill="black" stroke="black" points="435.5,-220 435.5,-236 435.5,-236 435.5,-220 435.5,-220"/>
<polygon fill="black" stroke="black" points="535.5,-220 535.5,-236 535.5,-236 535.5,-220 535.5,-220"/>
</a>
</g>
</g>
<!-- sia405cc_cable_point_kind -->
<g id="node2" class="node">
<title>sia405cc_cable_point_kind</title>
<g id="a_node2"><a xlink:href="../../tables/sia405cc_cable_point_kind.html" xlink:title="sia405cc_cable_point_kind" target="_top">
<polygon fill="#ffffff" stroke="transparent" points="8,-37 8,-367 302,-367 302,-37 8,-37"/>
<polygon fill="#f5f5f5" stroke="transparent" points="10,-343 10,-365 300,-365 300,-343 10,-343"/>
<polygon fill="none" stroke="black" points="10,-343 10,-365 300,-365 300,-343 10,-343"/>
<text text-anchor="start" x="15" y="-352.2" font-family="Helvetica,sans-Serif" font-weight="bold" font-size="11.00">sia405cc_cable_point_kind</text>
<text text-anchor="start" x="258" y="-351.2" font-family="Helvetica,sans-Serif" font-size="11.00">[table]</text>
<polygon fill="none" stroke="black" points="10,-321 10,-343 222,-343 222,-321 10,-321"/>
<image xlink:href="../../images/primaryKeys.png" width="11px" height="12px" preserveAspectRatio="xMinYMin meet" x="15" y="-338"/>
<text text-anchor="start" x="30" y="-329.2" font-family="Helvetica,sans-Serif" font-size="11.00">code</text>
<polygon fill="none" stroke="black" points="222,-321 222,-343 300,-343 300,-321 222,-321"/>
<text text-anchor="start" x="225" y="-329.2" font-family="Helvetica,sans-Serif" font-size="11.00">int4[10]</text>
<polygon fill="none" stroke="black" points="10,-299 10,-321 222,-321 222,-299 10,-299"/>
<text text-anchor="start" x="30" y="-307.2" font-family="Helvetica,sans-Serif" font-size="11.00">vsacode</text>
<polygon fill="none" stroke="black" points="222,-299 222,-321 300,-321 300,-299 222,-299"/>
<text text-anchor="start" x="225" y="-307.2" font-family="Helvetica,sans-Serif" font-size="11.00">int4[10]</text>
<polygon fill="none" stroke="black" points="10,-277 10,-299 222,-299 222,-277 10,-277"/>
<text text-anchor="start" x="30" y="-285.2" font-family="Helvetica,sans-Serif" font-size="11.00">value_en</text>
<polygon fill="none" stroke="black" points="222,-277 222,-299 300,-299 300,-277 222,-277"/>
<text text-anchor="start" x="225" y="-285.2" font-family="Helvetica,sans-Serif" font-size="11.00">varchar[100]</text>
<polygon fill="none" stroke="black" points="10,-255 10,-277 222,-277 222,-255 10,-255"/>
<text text-anchor="start" x="30" y="-263.2" font-family="Helvetica,sans-Serif" font-size="11.00">value_de</text>
<polygon fill="none" stroke="black" points="222,-255 222,-277 300,-277 300,-255 222,-255"/>
<text text-anchor="start" x="225" y="-263.2" font-family="Helvetica,sans-Serif" font-size="11.00">varchar[100]</text>
<polygon fill="none" stroke="black" points="10,-233 10,-255 222,-255 222,-233 10,-233"/>
<text text-anchor="start" x="30" y="-241.2" font-family="Helvetica,sans-Serif" font-size="11.00">value_fr</text>
<polygon fill="none" stroke="black" points="222,-233 222,-255 300,-255 300,-233 222,-233"/>
<text text-anchor="start" x="225" y="-241.2" font-family="Helvetica,sans-Serif" font-size="11.00">varchar[100]</text>
<polygon fill="none" stroke="black" points="10,-211 10,-233 222,-233 222,-211 10,-211"/>
<text text-anchor="start" x="30" y="-219.2" font-family="Helvetica,sans-Serif" font-size="11.00">value_it</text>
<polygon fill="none" stroke="black" points="222,-211 222,-233 300,-233 300,-211 222,-211"/>
<text text-anchor="start" x="225" y="-219.2" font-family="Helvetica,sans-Serif" font-size="11.00">varchar[100]</text>
<polygon fill="none" stroke="black" points="10,-189 10,-211 222,-211 222,-189 10,-189"/>
<text text-anchor="start" x="30" y="-197.2" font-family="Helvetica,sans-Serif" font-size="11.00">value_ro</text>
<polygon fill="none" stroke="black" points="222,-189 222,-211 300,-211 300,-189 222,-189"/>
<text text-anchor="start" x="225" y="-197.2" font-family="Helvetica,sans-Serif" font-size="11.00">varchar[100]</text>
<polygon fill="none" stroke="black" points="10,-167 10,-189 222,-189 222,-167 10,-167"/>
<text text-anchor="start" x="30" y="-175.2" font-family="Helvetica,sans-Serif" font-size="11.00">abbr_en</text>
<polygon fill="none" stroke="black" points="222,-167 222,-189 300,-189 300,-167 222,-167"/>
<text text-anchor="start" x="225" y="-175.2" font-family="Helvetica,sans-Serif" font-size="11.00">varchar[3]</text>
<polygon fill="none" stroke="black" points="10,-145 10,-167 222,-167 222,-145 10,-145"/>
<text text-anchor="start" x="30" y="-153.2" font-family="Helvetica,sans-Serif" font-size="11.00">abbr_de</text>
<polygon fill="none" stroke="black" points="222,-145 222,-167 300,-167 300,-145 222,-145"/>
<text text-anchor="start" x="225" y="-153.2" font-family="Helvetica,sans-Serif" font-size="11.00">varchar[3]</text>
<polygon fill="none" stroke="black" points="10,-123 10,-145 222,-145 222,-123 10,-123"/>
<text text-anchor="start" x="30" y="-131.2" font-family="Helvetica,sans-Serif" font-size="11.00">abbr_fr</text>
<polygon fill="none" stroke="black" points="222,-123 222,-145 300,-145 300,-123 222,-123"/>
<text text-anchor="start" x="225" y="-131.2" font-family="Helvetica,sans-Serif" font-size="11.00">varchar[3]</text>
<polygon fill="none" stroke="black" points="10,-101 10,-123 222,-123 222,-101 10,-101"/>
<text text-anchor="start" x="30" y="-109.2" font-family="Helvetica,sans-Serif" font-size="11.00">abbr_it</text>
<polygon fill="none" stroke="black" points="222,-101 222,-123 300,-123 300,-101 222,-101"/>
<text text-anchor="start" x="225" y="-109.2" font-family="Helvetica,sans-Serif" font-size="11.00">varchar[3]</text>
<polygon fill="none" stroke="black" points="10,-79 10,-101 222,-101 222,-79 10,-79"/>
<text text-anchor="start" x="30" y="-87.2" font-family="Helvetica,sans-Serif" font-size="11.00">abbr_ro</text>
<polygon fill="none" stroke="black" points="222,-79 222,-101 300,-101 300,-79 222,-79"/>
<text text-anchor="start" x="225" y="-87.2" font-family="Helvetica,sans-Serif" font-size="11.00">varchar[3]</text>
<polygon fill="none" stroke="black" points="10,-57 10,-79 222,-79 222,-57 10,-57"/>
<text text-anchor="start" x="30" y="-65.2" font-family="Helvetica,sans-Serif" font-size="11.00">active</text>
<polygon fill="none" stroke="black" points="222,-57 222,-79 300,-79 300,-57 222,-57"/>
<text text-anchor="start" x="225" y="-65.2" font-family="Helvetica,sans-Serif" font-size="11.00">bool[1]</text>
<polygon fill="#ffffff" stroke="transparent" points="10,-39 10,-57 300,-57 300,-39 10,-39"/>
<polygon fill="none" stroke="black" points="10,-39 10,-57 300,-57 300,-39 10,-39"/>
<polygon fill="#ffffff" stroke="transparent" points="11,-40 11,-56 111,-56 111,-40 11,-40"/>
<text text-anchor="start" x="13" y="-45.2" font-family="Helvetica,sans-Serif" font-size="11.00">&lt; 0</text>
<polygon fill="#ffffff" stroke="transparent" points="111,-40 111,-56 199,-56 199,-40 111,-40"/>
<text text-anchor="start" x="151" y="-45.2" font-family="Helvetica,sans-Serif" font-size="11.00"> &#160;</text>
<polygon fill="#ffffff" stroke="transparent" points="199,-40 199,-56 299,-56 299,-40 199,-40"/>
<text text-anchor="start" x="277" y="-45.2" font-family="Helvetica,sans-Serif" font-size="11.00">1 &gt;</text>
<polygon fill="black" stroke="black" points="111,-40 111,-56 111,-56 111,-40 111,-40"/>
<polygon fill="black" stroke="black" points="199,-40 199,-56 199,-56 199,-40 199,-40"/>
<polygon fill="none" stroke="black" stroke-width="2" points="9,-38 9,-366 301,-366 301,-38 9,-38"/>
</a>
</g>
</g>
<!-- tdh_od.sia405cc_cable_point&#45;&gt;sia405cc_cable_point_kind -->
<g id="edge1" class="edge">
<title>tdh_od.sia405cc_cable_point:w&#45;&gt;sia405cc_cable_point_kind:e</title>
<path fill="none" stroke="black" d="M335.84,-332C324.41,-332 317.16,-332 301,-332"/>
<polygon fill="black" stroke="black" points="342.5,-332 350.5,-335.6 346.5,-332 350.5,-332 350.5,-332 350.5,-332 346.5,-332 350.5,-328.4 342.5,-332 342.5,-332"/>
<ellipse fill="none" stroke="black" cx="339.3" cy="-332" rx="3.2" ry="3.2"/>
</g>
</g>
</svg>
