<?xml version="1.0" encoding="UTF-8" standalone="no"?>
<!DOCTYPE svg PUBLIC "-//W3C//DTD SVG 1.1//EN"
 "http://www.w3.org/Graphics/SVG/1.1/DTD/svg11.dtd">
<!-- Generated by graphviz version 2.43.0 (0)
 -->
<!-- Title: oneDegreeRelationshipsDiagram Pages: 1 -->
<svg width="621pt" height="773pt"
 viewBox="0.00 0.00 621.00 773.00" xmlns="http://www.w3.org/2000/svg" xmlns:xlink="http://www.w3.org/1999/xlink">
<g id="graph0" class="graph" transform="scale(1 1) rotate(0) translate(4 769)">
<title>oneDegreeRelationshipsDiagram</title>
<polygon fill="#ffffff" stroke="transparent" points="-4,4 -4,-769 617,-769 617,4 -4,4"/>
<text text-anchor="middle" x="79.5" y="-7.2" font-family="Helvetica,sans-Serif" font-size="11.00">Generated by SchemaSpy</text>
<!-- tdh_od.structure -->
<g id="node1" class="node">
<title>tdh_od.structure</title>
<g id="a_node1"><a xlink:href="../../../tdh_od/tables/structure.html" xlink:title="tdh_od.structure" target="_top">
<polygon fill="#ffffff" stroke="transparent" points="399,-483 399,-761 605,-761 605,-483 399,-483"/>
<polygon fill="#f5f5f5" stroke="transparent" points="399,-739 399,-761 605,-761 605,-739 399,-739"/>
<polygon fill="none" stroke="black" points="399,-739 399,-761 605,-761 605,-739 399,-739"/>
<text text-anchor="start" x="404" y="-748.2" font-family="Helvetica,sans-Serif" font-weight="bold" font-size="11.00">tdh_od.structure</text>
<text text-anchor="start" x="563" y="-747.2" font-family="Helvetica,sans-Serif" font-size="11.00">[table]</text>
<polygon fill="none" stroke="black" points="399,-717 399,-739 605,-739 605,-717 399,-717"/>
<image xlink:href="../../images/foreignKeys.png" width="11px" height="12px" preserveAspectRatio="xMinYMin meet" x="404" y="-734"/>
<text text-anchor="start" x="419" y="-725.2" font-family="Helvetica,sans-Serif" font-size="11.00">horizontal_positioning</text>
<polygon fill="none" stroke="black" points="399,-695 399,-717 605,-717 605,-695 399,-695"/>
<image xlink:href="../../images/foreignKeys.png" width="11px" height="12px" preserveAspectRatio="xMinYMin meet" x="404" y="-712"/>
<text text-anchor="start" x="419" y="-703.2" font-family="Helvetica,sans-Serif" font-size="11.00">status</text>
<polygon fill="none" stroke="black" points="399,-673 399,-695 605,-695 605,-673 399,-673"/>
<image xlink:href="../../images/foreignKeys.png" width="11px" height="12px" preserveAspectRatio="xMinYMin meet" x="404" y="-690"/>
<text text-anchor="start" x="419" y="-681.2" font-family="Helvetica,sans-Serif" font-size="11.00">kind</text>
<polygon fill="none" stroke="black" points="399,-651 399,-673 605,-673 605,-651 399,-651"/>
<image xlink:href="../../images/foreignKeys.png" width="11px" height="12px" preserveAspectRatio="xMinYMin meet" x="404" y="-668"/>
<text text-anchor="start" x="419" y="-659.2" font-family="Helvetica,sans-Serif" font-size="11.00">venting</text>
<polygon fill="none" stroke="black" points="399,-629 399,-651 605,-651 605,-629 399,-629"/>
<image xlink:href="../../images/foreignKeys.png" width="11px" height="12px" preserveAspectRatio="xMinYMin meet" x="404" y="-646"/>
<text text-anchor="start" x="419" y="-637.2" font-family="Helvetica,sans-Serif" font-size="11.00">discharge_type</text>
<polygon fill="none" stroke="black" points="399,-607 399,-629 605,-629 605,-607 399,-607"/>
<image xlink:href="../../images/foreignKeys.png" width="11px" height="12px" preserveAspectRatio="xMinYMin meet" x="404" y="-624"/>
<text text-anchor="start" x="419" y="-615.2" font-family="Helvetica,sans-Serif" font-size="11.00">grid_type</text>
<polygon fill="none" stroke="black" points="399,-585 399,-607 605,-607 605,-585 399,-585"/>
<image xlink:href="../../images/foreignKeys.png" width="11px" height="12px" preserveAspectRatio="xMinYMin meet" x="404" y="-602"/>
<text text-anchor="start" x="419" y="-593.2" font-family="Helvetica,sans-Serif" font-size="11.00">drainage_pump</text>
<polygon fill="none" stroke="black" points="399,-563 399,-585 605,-585 605,-563 399,-563"/>
<image xlink:href="../../images/foreignKeys.png" width="11px" height="12px" preserveAspectRatio="xMinYMin meet" x="404" y="-580"/>
<text text-anchor="start" x="419" y="-571.2" font-family="Helvetica,sans-Serif" font-size="11.00">power_connection</text>
<polygon fill="none" stroke="black" points="399,-541 399,-563 605,-563 605,-541 399,-541"/>
<image xlink:href="../../images/foreignKeys.png" width="11px" height="12px" preserveAspectRatio="xMinYMin meet" x="404" y="-558"/>
<text text-anchor="start" x="419" y="-549.2" font-family="Helvetica,sans-Serif" font-size="11.00">measuring_system</text>
<polygon fill="none" stroke="black" points="399,-519 399,-541 605,-541 605,-519 399,-519"/>
<image xlink:href="../../images/foreignKeys.png" width="11px" height="12px" preserveAspectRatio="xMinYMin meet" x="404" y="-536"/>
<text text-anchor="start" x="419" y="-527.2" font-family="Helvetica,sans-Serif" font-size="11.00">condition</text>
<polygon fill="none" stroke="black" points="399,-501 399,-519 605,-519 605,-501 399,-501"/>
<text text-anchor="start" x="402" y="-507.2" font-family="Helvetica,sans-Serif" font-size="11.00">...</text>
<polygon fill="#ffffff" stroke="transparent" points="399,-483 399,-501 605,-501 605,-483 399,-483"/>
<polygon fill="none" stroke="black" points="399,-483 399,-501 605,-501 605,-483 399,-483"/>
<polygon fill="#ffffff" stroke="transparent" points="400,-484 400,-500 471,-500 471,-484 400,-484"/>
<text text-anchor="start" x="402" y="-489.2" font-family="Helvetica,sans-Serif" font-size="11.00">&lt; 10</text>
<polygon fill="#ffffff" stroke="transparent" points="471,-484 471,-500 552,-500 552,-484 471,-484"/>
<text text-anchor="start" x="493" y="-489.2" font-family="Helvetica,sans-Serif" font-size="11.00">0 rows</text>
<polygon fill="#ffffff" stroke="transparent" points="552,-484 552,-500 604,-500 604,-484 552,-484"/>
<text text-anchor="start" x="594" y="-489.2" font-family="Helvetica,sans-Serif" font-size="11.00"> &#160;</text>
<polygon fill="black" stroke="black" points="471,-484 471,-500 471,-500 471,-484 471,-484"/>
<polygon fill="black" stroke="black" points="552,-484 552,-500 552,-500 552,-484 552,-484"/>
</a>
</g>
</g>
<!-- structure_measuring_system -->
<g id="node2" class="node">
<title>structure_measuring_system</title>
<g id="a_node2"><a xlink:href="../../tables/structure_measuring_system.html" xlink:title="structure_measuring_system" target="_top">
<polygon fill="#ffffff" stroke="transparent" points="8,-37 8,-587 350,-587 350,-37 8,-37"/>
<polygon fill="#f5f5f5" stroke="transparent" points="10,-563 10,-585 348,-585 348,-563 10,-563"/>
<polygon fill="none" stroke="black" points="10,-563 10,-585 348,-585 348,-563 10,-563"/>
<text text-anchor="start" x="15" y="-572.2" font-family="Helvetica,sans-Serif" font-weight="bold" font-size="11.00">structure_measuring_system</text>
<text text-anchor="start" x="306" y="-571.2" font-family="Helvetica,sans-Serif" font-size="11.00">[table]</text>
<polygon fill="none" stroke="black" points="10,-541 10,-563 242,-563 242,-541 10,-541"/>
<image xlink:href="../../images/primaryKeys.png" width="11px" height="12px" preserveAspectRatio="xMinYMin meet" x="15" y="-558"/>
<text text-anchor="start" x="30" y="-549.2" font-family="Helvetica,sans-Serif" font-size="11.00">code</text>
<polygon fill="none" stroke="black" points="242,-541 242,-563 348,-563 348,-541 242,-541"/>
<text text-anchor="start" x="245" y="-549.2" font-family="Helvetica,sans-Serif" font-size="11.00">int4[10]</text>
<polygon fill="none" stroke="black" points="10,-519 10,-541 242,-541 242,-519 10,-519"/>
<text text-anchor="start" x="30" y="-527.2" font-family="Helvetica,sans-Serif" font-size="11.00">vsacode</text>
<polygon fill="none" stroke="black" points="242,-519 242,-541 348,-541 348,-519 242,-519"/>
<text text-anchor="start" x="245" y="-527.2" font-family="Helvetica,sans-Serif" font-size="11.00">int4[10]</text>
<polygon fill="none" stroke="black" points="10,-497 10,-519 242,-519 242,-497 10,-497"/>
<text text-anchor="start" x="30" y="-505.2" font-family="Helvetica,sans-Serif" font-size="11.00">value_en</text>
<polygon fill="none" stroke="black" points="242,-497 242,-519 348,-519 348,-497 242,-497"/>
<text text-anchor="start" x="245" y="-505.2" font-family="Helvetica,sans-Serif" font-size="11.00">varchar[100]</text>
<polygon fill="none" stroke="black" points="10,-475 10,-497 242,-497 242,-475 10,-475"/>
<text text-anchor="start" x="30" y="-483.2" font-family="Helvetica,sans-Serif" font-size="11.00">value_de</text>
<polygon fill="none" stroke="black" points="242,-475 242,-497 348,-497 348,-475 242,-475"/>
<text text-anchor="start" x="245" y="-483.2" font-family="Helvetica,sans-Serif" font-size="11.00">varchar[100]</text>
<polygon fill="none" stroke="black" points="10,-453 10,-475 242,-475 242,-453 10,-453"/>
<text text-anchor="start" x="30" y="-461.2" font-family="Helvetica,sans-Serif" font-size="11.00">value_fr</text>
<polygon fill="none" stroke="black" points="242,-453 242,-475 348,-475 348,-453 242,-453"/>
<text text-anchor="start" x="245" y="-461.2" font-family="Helvetica,sans-Serif" font-size="11.00">varchar[100]</text>
<polygon fill="none" stroke="black" points="10,-431 10,-453 242,-453 242,-431 10,-431"/>
<text text-anchor="start" x="30" y="-439.2" font-family="Helvetica,sans-Serif" font-size="11.00">value_it</text>
<polygon fill="none" stroke="black" points="242,-431 242,-453 348,-453 348,-431 242,-431"/>
<text text-anchor="start" x="245" y="-439.2" font-family="Helvetica,sans-Serif" font-size="11.00">varchar[100]</text>
<polygon fill="none" stroke="black" points="10,-409 10,-431 242,-431 242,-409 10,-409"/>
<text text-anchor="start" x="30" y="-417.2" font-family="Helvetica,sans-Serif" font-size="11.00">value_ro</text>
<polygon fill="none" stroke="black" points="242,-409 242,-431 348,-431 348,-409 242,-409"/>
<text text-anchor="start" x="245" y="-417.2" font-family="Helvetica,sans-Serif" font-size="11.00">varchar[100]</text>
<polygon fill="none" stroke="black" points="10,-387 10,-409 242,-409 242,-387 10,-387"/>
<text text-anchor="start" x="30" y="-395.2" font-family="Helvetica,sans-Serif" font-size="11.00">abbr_en</text>
<polygon fill="none" stroke="black" points="242,-387 242,-409 348,-409 348,-387 242,-387"/>
<text text-anchor="start" x="245" y="-395.2" font-family="Helvetica,sans-Serif" font-size="11.00">varchar[3]</text>
<polygon fill="none" stroke="black" points="10,-365 10,-387 242,-387 242,-365 10,-365"/>
<text text-anchor="start" x="30" y="-373.2" font-family="Helvetica,sans-Serif" font-size="11.00">abbr_de</text>
<polygon fill="none" stroke="black" points="242,-365 242,-387 348,-387 348,-365 242,-365"/>
<text text-anchor="start" x="245" y="-373.2" font-family="Helvetica,sans-Serif" font-size="11.00">varchar[3]</text>
<polygon fill="none" stroke="black" points="10,-343 10,-365 242,-365 242,-343 10,-343"/>
<text text-anchor="start" x="30" y="-351.2" font-family="Helvetica,sans-Serif" font-size="11.00">abbr_fr</text>
<polygon fill="none" stroke="black" points="242,-343 242,-365 348,-365 348,-343 242,-343"/>
<text text-anchor="start" x="245" y="-351.2" font-family="Helvetica,sans-Serif" font-size="11.00">varchar[3]</text>
<polygon fill="none" stroke="black" points="10,-321 10,-343 242,-343 242,-321 10,-321"/>
<text text-anchor="start" x="30" y="-329.2" font-family="Helvetica,sans-Serif" font-size="11.00">abbr_it</text>
<polygon fill="none" stroke="black" points="242,-321 242,-343 348,-343 348,-321 242,-321"/>
<text text-anchor="start" x="245" y="-329.2" font-family="Helvetica,sans-Serif" font-size="11.00">varchar[3]</text>
<polygon fill="none" stroke="black" points="10,-299 10,-321 242,-321 242,-299 10,-299"/>
<text text-anchor="start" x="30" y="-307.2" font-family="Helvetica,sans-Serif" font-size="11.00">abbr_ro</text>
<polygon fill="none" stroke="black" points="242,-299 242,-321 348,-321 348,-299 242,-299"/>
<text text-anchor="start" x="245" y="-307.2" font-family="Helvetica,sans-Serif" font-size="11.00">varchar[3]</text>
<polygon fill="none" stroke="black" points="10,-277 10,-299 242,-299 242,-277 10,-277"/>
<text text-anchor="start" x="30" y="-285.2" font-family="Helvetica,sans-Serif" font-size="11.00">description_en</text>
<polygon fill="none" stroke="black" points="242,-277 242,-299 348,-299 348,-277 242,-277"/>
<text text-anchor="start" x="245" y="-285.2" font-family="Helvetica,sans-Serif" font-size="11.00">text[2147483647]</text>
<polygon fill="none" stroke="black" points="10,-255 10,-277 242,-277 242,-255 10,-255"/>
<text text-anchor="start" x="30" y="-263.2" font-family="Helvetica,sans-Serif" font-size="11.00">description_de</text>
<polygon fill="none" stroke="black" points="242,-255 242,-277 348,-277 348,-255 242,-255"/>
<text text-anchor="start" x="245" y="-263.2" font-family="Helvetica,sans-Serif" font-size="11.00">text[2147483647]</text>
<polygon fill="none" stroke="black" points="10,-233 10,-255 242,-255 242,-233 10,-233"/>
<text text-anchor="start" x="30" y="-241.2" font-family="Helvetica,sans-Serif" font-size="11.00">description_fr</text>
<polygon fill="none" stroke="black" points="242,-233 242,-255 348,-255 348,-233 242,-233"/>
<text text-anchor="start" x="245" y="-241.2" font-family="Helvetica,sans-Serif" font-size="11.00">text[2147483647]</text>
<polygon fill="none" stroke="black" points="10,-211 10,-233 242,-233 242,-211 10,-211"/>
<text text-anchor="start" x="30" y="-219.2" font-family="Helvetica,sans-Serif" font-size="11.00">description_it</text>
<polygon fill="none" stroke="black" points="242,-211 242,-233 348,-233 348,-211 242,-211"/>
<text text-anchor="start" x="245" y="-219.2" font-family="Helvetica,sans-Serif" font-size="11.00">text[2147483647]</text>
<polygon fill="none" stroke="black" points="10,-189 10,-211 242,-211 242,-189 10,-189"/>
<text text-anchor="start" x="30" y="-197.2" font-family="Helvetica,sans-Serif" font-size="11.00">description_ro</text>
<polygon fill="none" stroke="black" points="242,-189 242,-211 348,-211 348,-189 242,-189"/>
<text text-anchor="start" x="245" y="-197.2" font-family="Helvetica,sans-Serif" font-size="11.00">text[2147483647]</text>
<polygon fill="none" stroke="black" points="10,-167 10,-189 242,-189 242,-167 10,-167"/>
<text text-anchor="start" x="30" y="-175.2" font-family="Helvetica,sans-Serif" font-size="11.00">display_en</text>
<polygon fill="none" stroke="black" points="242,-167 242,-189 348,-189 348,-167 242,-167"/>
<text text-anchor="start" x="245" y="-175.2" font-family="Helvetica,sans-Serif" font-size="11.00">varchar[100]</text>
<polygon fill="none" stroke="black" points="10,-145 10,-167 242,-167 242,-145 10,-145"/>
<text text-anchor="start" x="30" y="-153.2" font-family="Helvetica,sans-Serif" font-size="11.00">display_de</text>
<polygon fill="none" stroke="black" points="242,-145 242,-167 348,-167 348,-145 242,-145"/>
<text text-anchor="start" x="245" y="-153.2" font-family="Helvetica,sans-Serif" font-size="11.00">varchar[100]</text>
<polygon fill="none" stroke="black" points="10,-123 10,-145 242,-145 242,-123 10,-123"/>
<text text-anchor="start" x="30" y="-131.2" font-family="Helvetica,sans-Serif" font-size="11.00">display_fr</text>
<polygon fill="none" stroke="black" points="242,-123 242,-145 348,-145 348,-123 242,-123"/>
<text text-anchor="start" x="245" y="-131.2" font-family="Helvetica,sans-Serif" font-size="11.00">varchar[100]</text>
<polygon fill="none" stroke="black" points="10,-101 10,-123 242,-123 242,-101 10,-101"/>
<text text-anchor="start" x="30" y="-109.2" font-family="Helvetica,sans-Serif" font-size="11.00">display_it</text>
<polygon fill="none" stroke="black" points="242,-101 242,-123 348,-123 348,-101 242,-101"/>
<text text-anchor="start" x="245" y="-109.2" font-family="Helvetica,sans-Serif" font-size="11.00">varchar[100]</text>
<polygon fill="none" stroke="black" points="10,-79 10,-101 242,-101 242,-79 10,-79"/>
<text text-anchor="start" x="30" y="-87.2" font-family="Helvetica,sans-Serif" font-size="11.00">display_ro</text>
<polygon fill="none" stroke="black" points="242,-79 242,-101 348,-101 348,-79 242,-79"/>
<text text-anchor="start" x="245" y="-87.2" font-family="Helvetica,sans-Serif" font-size="11.00">varchar[100]</text>
<polygon fill="none" stroke="black" points="10,-57 10,-79 242,-79 242,-57 10,-57"/>
<text text-anchor="start" x="30" y="-65.2" font-family="Helvetica,sans-Serif" font-size="11.00">active</text>
<polygon fill="none" stroke="black" points="242,-57 242,-79 348,-79 348,-57 242,-57"/>
<text text-anchor="start" x="245" y="-65.2" font-family="Helvetica,sans-Serif" font-size="11.00">bool[1]</text>
<polygon fill="#ffffff" stroke="transparent" points="10,-39 10,-57 348,-57 348,-39 10,-39"/>
<polygon fill="none" stroke="black" points="10,-39 10,-57 348,-57 348,-39 10,-39"/>
<polygon fill="#ffffff" stroke="transparent" points="11,-40 11,-56 127,-56 127,-40 11,-40"/>
<text text-anchor="start" x="13" y="-45.2" font-family="Helvetica,sans-Serif" font-size="11.00">&lt; 0</text>
<polygon fill="#ffffff" stroke="transparent" points="127,-40 127,-56 231,-56 231,-40 127,-40"/>
<text text-anchor="start" x="175" y="-45.2" font-family="Helvetica,sans-Serif" font-size="11.00"> &#160;</text>
<polygon fill="#ffffff" stroke="transparent" points="231,-40 231,-56 347,-56 347,-40 231,-40"/>
<text text-anchor="start" x="325" y="-45.2" font-family="Helvetica,sans-Serif" font-size="11.00">1 &gt;</text>
<polygon fill="black" stroke="black" points="127,-40 127,-56 127,-56 127,-40 127,-40"/>
<polygon fill="black" stroke="black" points="231,-40 231,-56 231,-56 231,-40 231,-40"/>
<polygon fill="none" stroke="black" stroke-width="2" points="9,-38 9,-586 349,-586 349,-38 9,-38"/>
</a>
</g>
</g>
<!-- tdh_od.structure&#45;&gt;structure_measuring_system -->
<g id="edge1" class="edge">
<title>tdh_od.structure:w&#45;&gt;structure_measuring_system:e</title>
<path fill="none" stroke="black" d="M383.49,-552C372.18,-552 364.99,-552 349,-552"/>
<polygon fill="black" stroke="black" points="390,-552 398,-555.6 394,-552 398,-552 398,-552 398,-552 394,-552 398,-548.4 390,-552 390,-552"/>
<ellipse fill="none" stroke="black" cx="386.8" cy="-552" rx="3.2" ry="3.2"/>
</g>
</g>
</svg>
