<?xml version="1.0" encoding="UTF-8" standalone="no"?>
<!DOCTYPE svg PUBLIC "-//W3C//DTD SVG 1.1//EN"
 "http://www.w3.org/Graphics/SVG/1.1/DTD/svg11.dtd">
<!-- Generated by graphviz version 2.47.1 (20210515.0534)
 -->
<!-- Title: oneDegreeRelationshipsDiagram Pages: 1 -->
<svg width="460pt" height="575pt"
 viewBox="0.00 0.00 460.00 575.00" xmlns="http://www.w3.org/2000/svg" xmlns:xlink="http://www.w3.org/1999/xlink">
<g id="graph0" class="graph" transform="scale(1 1) rotate(0) translate(4 571)">
<title>oneDegreeRelationshipsDiagram</title>
<polygon fill="#ffffff" stroke="transparent" points="-4,4 -4,-571 456,-571 456,4 -4,4"/>
<text text-anchor="middle" x="73.5" y="-7.2" font-family="Helvetica,sans-Serif" font-size="11.00">Generated by SchemaSpy</text>
<!-- tdh_od.structure -->
<g id="node1" class="node">
<title>tdh_od.structure</title>
<g id="a_node1"><a xlink:href="../../../tdh_od/tables/structure.html" xlink:title="tdh_od.structure" target="_top">
<polygon fill="#ffffff" stroke="transparent" points="270,-285 270,-563 444,-563 444,-285 270,-285"/>
<polygon fill="#f5f5f5" stroke="transparent" points="270,-541 270,-563 444,-563 444,-541 270,-541"/>
<polygon fill="none" stroke="black" points="270,-541 270,-563 444,-563 444,-541 270,-541"/>
<text text-anchor="start" x="275" y="-550.2" font-family="Helvetica,sans-Serif" font-weight="bold" font-size="11.00">tdh_od.structure</text>
<text text-anchor="start" x="405" y="-549.2" font-family="Helvetica,sans-Serif" font-size="11.00">[table]</text>
<polygon fill="none" stroke="black" points="270,-519 270,-541 444,-541 444,-519 270,-519"/>
<image xlink:href="../../images/foreignKeys.png" width="11px" height="12px" preserveAspectRatio="xMinYMin meet" x="275" y="-536"/>
<text text-anchor="start" x="290" y="-527.2" font-family="Helvetica,sans-Serif" font-size="11.00">horizontal_positioning</text>
<polygon fill="none" stroke="black" points="270,-497 270,-519 444,-519 444,-497 270,-497"/>
<image xlink:href="../../images/foreignKeys.png" width="11px" height="12px" preserveAspectRatio="xMinYMin meet" x="275" y="-514"/>
<text text-anchor="start" x="290" y="-505.2" font-family="Helvetica,sans-Serif" font-size="11.00">status</text>
<polygon fill="none" stroke="black" points="270,-475 270,-497 444,-497 444,-475 270,-475"/>
<image xlink:href="../../images/foreignKeys.png" width="11px" height="12px" preserveAspectRatio="xMinYMin meet" x="275" y="-492"/>
<text text-anchor="start" x="290" y="-483.2" font-family="Helvetica,sans-Serif" font-size="11.00">kind</text>
<polygon fill="none" stroke="black" points="270,-453 270,-475 444,-475 444,-453 270,-453"/>
<image xlink:href="../../images/foreignKeys.png" width="11px" height="12px" preserveAspectRatio="xMinYMin meet" x="275" y="-470"/>
<text text-anchor="start" x="290" y="-461.2" font-family="Helvetica,sans-Serif" font-size="11.00">venting</text>
<polygon fill="none" stroke="black" points="270,-431 270,-453 444,-453 444,-431 270,-431"/>
<image xlink:href="../../images/foreignKeys.png" width="11px" height="12px" preserveAspectRatio="xMinYMin meet" x="275" y="-448"/>
<text text-anchor="start" x="290" y="-439.2" font-family="Helvetica,sans-Serif" font-size="11.00">discharge_type</text>
<polygon fill="none" stroke="black" points="270,-409 270,-431 444,-431 444,-409 270,-409"/>
<image xlink:href="../../images/foreignKeys.png" width="11px" height="12px" preserveAspectRatio="xMinYMin meet" x="275" y="-426"/>
<text text-anchor="start" x="290" y="-417.2" font-family="Helvetica,sans-Serif" font-size="11.00">grid_type</text>
<polygon fill="none" stroke="black" points="270,-387 270,-409 444,-409 444,-387 270,-387"/>
<image xlink:href="../../images/foreignKeys.png" width="11px" height="12px" preserveAspectRatio="xMinYMin meet" x="275" y="-404"/>
<text text-anchor="start" x="290" y="-395.2" font-family="Helvetica,sans-Serif" font-size="11.00">drainage_pump</text>
<polygon fill="none" stroke="black" points="270,-365 270,-387 444,-387 444,-365 270,-365"/>
<image xlink:href="../../images/foreignKeys.png" width="11px" height="12px" preserveAspectRatio="xMinYMin meet" x="275" y="-382"/>
<text text-anchor="start" x="290" y="-373.2" font-family="Helvetica,sans-Serif" font-size="11.00">power_connection</text>
<polygon fill="none" stroke="black" points="270,-343 270,-365 444,-365 444,-343 270,-343"/>
<image xlink:href="../../images/foreignKeys.png" width="11px" height="12px" preserveAspectRatio="xMinYMin meet" x="275" y="-360"/>
<text text-anchor="start" x="290" y="-351.2" font-family="Helvetica,sans-Serif" font-size="11.00">measuring_system</text>
<polygon fill="none" stroke="black" points="270,-321 270,-343 444,-343 444,-321 270,-321"/>
<image xlink:href="../../images/foreignKeys.png" width="11px" height="12px" preserveAspectRatio="xMinYMin meet" x="275" y="-338"/>
<text text-anchor="start" x="290" y="-329.2" font-family="Helvetica,sans-Serif" font-size="11.00">condition</text>
<polygon fill="none" stroke="black" points="270,-303 270,-321 444,-321 444,-303 270,-303"/>
<text text-anchor="start" x="273" y="-309.2" font-family="Helvetica,sans-Serif" font-size="11.00">...</text>
<polygon fill="#ffffff" stroke="transparent" points="270,-285 270,-303 344,-303 344,-285 270,-285"/>
<polygon fill="none" stroke="black" points="270,-285 270,-303 344,-303 344,-285 270,-285"/>
<text text-anchor="start" x="273" y="-291.2" font-family="Helvetica,sans-Serif" font-size="11.00">&lt; 10</text>
<polygon fill="#ffffff" stroke="transparent" points="344,-285 344,-303 407,-303 407,-285 344,-285"/>
<polygon fill="none" stroke="black" points="344,-285 344,-303 407,-303 407,-285 344,-285"/>
<text text-anchor="start" x="370" y="-291.2" font-family="Helvetica,sans-Serif" font-size="11.00">0 rows</text>
<polygon fill="#ffffff" stroke="transparent" points="407,-285 407,-303 444,-303 444,-285 407,-285"/>
<polygon fill="none" stroke="black" points="407,-285 407,-303 444,-303 444,-285 407,-285"/>
<text text-anchor="start" x="434" y="-291.2" font-family="Helvetica,sans-Serif" font-size="11.00"> &#160;</text>
</a>
</g>
</g>
<!-- structure_condition -->
<g id="node2" class="node">
<title>structure_condition</title>
<g id="a_node2"><a xlink:href="../../tables/structure_condition.html" xlink:title="structure_condition" target="_top">
<polygon fill="#ffffff" stroke="transparent" points="8,-37 8,-367 221,-367 221,-37 8,-37"/>
<polygon fill="#f5f5f5" stroke="transparent" points="10.5,-343 10.5,-365 219.5,-365 219.5,-343 10.5,-343"/>
<polygon fill="none" stroke="black" points="10.5,-343 10.5,-365 219.5,-365 219.5,-343 10.5,-343"/>
<text text-anchor="start" x="15.5" y="-352.2" font-family="Helvetica,sans-Serif" font-weight="bold" font-size="11.00">structure_condition</text>
<text text-anchor="start" x="180.5" y="-351.2" font-family="Helvetica,sans-Serif" font-size="11.00">[table]</text>
<polygon fill="none" stroke="black" points="10.5,-321 10.5,-343 149.5,-343 149.5,-321 10.5,-321"/>
<image xlink:href="../../images/primaryKeys.png" width="11px" height="12px" preserveAspectRatio="xMinYMin meet" x="15.5" y="-338"/>
<text text-anchor="start" x="30.5" y="-329.2" font-family="Helvetica,sans-Serif" font-size="11.00">code</text>
<polygon fill="none" stroke="black" points="149.5,-321 149.5,-343 219.5,-343 219.5,-321 149.5,-321"/>
<text text-anchor="start" x="152.5" y="-329.2" font-family="Helvetica,sans-Serif" font-size="11.00">int4[10]</text>
<polygon fill="none" stroke="black" points="10.5,-299 10.5,-321 149.5,-321 149.5,-299 10.5,-299"/>
<text text-anchor="start" x="30.5" y="-307.2" font-family="Helvetica,sans-Serif" font-size="11.00">vsacode</text>
<polygon fill="none" stroke="black" points="149.5,-299 149.5,-321 219.5,-321 219.5,-299 149.5,-299"/>
<text text-anchor="start" x="152.5" y="-307.2" font-family="Helvetica,sans-Serif" font-size="11.00">int4[10]</text>
<polygon fill="none" stroke="black" points="10.5,-277 10.5,-299 149.5,-299 149.5,-277 10.5,-277"/>
<text text-anchor="start" x="30.5" y="-285.2" font-family="Helvetica,sans-Serif" font-size="11.00">value_en</text>
<polygon fill="none" stroke="black" points="149.5,-277 149.5,-299 219.5,-299 219.5,-277 149.5,-277"/>
<text text-anchor="start" x="152.5" y="-285.2" font-family="Helvetica,sans-Serif" font-size="11.00">varchar[100]</text>
<polygon fill="none" stroke="black" points="10.5,-255 10.5,-277 149.5,-277 149.5,-255 10.5,-255"/>
<text text-anchor="start" x="30.5" y="-263.2" font-family="Helvetica,sans-Serif" font-size="11.00">value_de</text>
<polygon fill="none" stroke="black" points="149.5,-255 149.5,-277 219.5,-277 219.5,-255 149.5,-255"/>
<text text-anchor="start" x="152.5" y="-263.2" font-family="Helvetica,sans-Serif" font-size="11.00">varchar[100]</text>
<polygon fill="none" stroke="black" points="10.5,-233 10.5,-255 149.5,-255 149.5,-233 10.5,-233"/>
<text text-anchor="start" x="30.5" y="-241.2" font-family="Helvetica,sans-Serif" font-size="11.00">value_fr</text>
<polygon fill="none" stroke="black" points="149.5,-233 149.5,-255 219.5,-255 219.5,-233 149.5,-233"/>
<text text-anchor="start" x="152.5" y="-241.2" font-family="Helvetica,sans-Serif" font-size="11.00">varchar[100]</text>
<polygon fill="none" stroke="black" points="10.5,-211 10.5,-233 149.5,-233 149.5,-211 10.5,-211"/>
<text text-anchor="start" x="30.5" y="-219.2" font-family="Helvetica,sans-Serif" font-size="11.00">value_it</text>
<polygon fill="none" stroke="black" points="149.5,-211 149.5,-233 219.5,-233 219.5,-211 149.5,-211"/>
<text text-anchor="start" x="152.5" y="-219.2" font-family="Helvetica,sans-Serif" font-size="11.00">varchar[100]</text>
<polygon fill="none" stroke="black" points="10.5,-189 10.5,-211 149.5,-211 149.5,-189 10.5,-189"/>
<text text-anchor="start" x="30.5" y="-197.2" font-family="Helvetica,sans-Serif" font-size="11.00">value_ro</text>
<polygon fill="none" stroke="black" points="149.5,-189 149.5,-211 219.5,-211 219.5,-189 149.5,-189"/>
<text text-anchor="start" x="152.5" y="-197.2" font-family="Helvetica,sans-Serif" font-size="11.00">varchar[100]</text>
<polygon fill="none" stroke="black" points="10.5,-167 10.5,-189 149.5,-189 149.5,-167 10.5,-167"/>
<text text-anchor="start" x="30.5" y="-175.2" font-family="Helvetica,sans-Serif" font-size="11.00">abbr_en</text>
<polygon fill="none" stroke="black" points="149.5,-167 149.5,-189 219.5,-189 219.5,-167 149.5,-167"/>
<text text-anchor="start" x="152.5" y="-175.2" font-family="Helvetica,sans-Serif" font-size="11.00">varchar[3]</text>
<polygon fill="none" stroke="black" points="10.5,-145 10.5,-167 149.5,-167 149.5,-145 10.5,-145"/>
<text text-anchor="start" x="30.5" y="-153.2" font-family="Helvetica,sans-Serif" font-size="11.00">abbr_de</text>
<polygon fill="none" stroke="black" points="149.5,-145 149.5,-167 219.5,-167 219.5,-145 149.5,-145"/>
<text text-anchor="start" x="152.5" y="-153.2" font-family="Helvetica,sans-Serif" font-size="11.00">varchar[3]</text>
<polygon fill="none" stroke="black" points="10.5,-123 10.5,-145 149.5,-145 149.5,-123 10.5,-123"/>
<text text-anchor="start" x="30.5" y="-131.2" font-family="Helvetica,sans-Serif" font-size="11.00">abbr_fr</text>
<polygon fill="none" stroke="black" points="149.5,-123 149.5,-145 219.5,-145 219.5,-123 149.5,-123"/>
<text text-anchor="start" x="152.5" y="-131.2" font-family="Helvetica,sans-Serif" font-size="11.00">varchar[3]</text>
<polygon fill="none" stroke="black" points="10.5,-101 10.5,-123 149.5,-123 149.5,-101 10.5,-101"/>
<text text-anchor="start" x="30.5" y="-109.2" font-family="Helvetica,sans-Serif" font-size="11.00">abbr_it</text>
<polygon fill="none" stroke="black" points="149.5,-101 149.5,-123 219.5,-123 219.5,-101 149.5,-101"/>
<text text-anchor="start" x="152.5" y="-109.2" font-family="Helvetica,sans-Serif" font-size="11.00">varchar[3]</text>
<polygon fill="none" stroke="black" points="10.5,-79 10.5,-101 149.5,-101 149.5,-79 10.5,-79"/>
<text text-anchor="start" x="30.5" y="-87.2" font-family="Helvetica,sans-Serif" font-size="11.00">abbr_ro</text>
<polygon fill="none" stroke="black" points="149.5,-79 149.5,-101 219.5,-101 219.5,-79 149.5,-79"/>
<text text-anchor="start" x="152.5" y="-87.2" font-family="Helvetica,sans-Serif" font-size="11.00">varchar[3]</text>
<polygon fill="none" stroke="black" points="10.5,-57 10.5,-79 149.5,-79 149.5,-57 10.5,-57"/>
<text text-anchor="start" x="30.5" y="-65.2" font-family="Helvetica,sans-Serif" font-size="11.00">active</text>
<polygon fill="none" stroke="black" points="149.5,-57 149.5,-79 219.5,-79 219.5,-57 149.5,-57"/>
<text text-anchor="start" x="152.5" y="-65.2" font-family="Helvetica,sans-Serif" font-size="11.00">bool[1]</text>
<polygon fill="#ffffff" stroke="transparent" points="10.5,-39 10.5,-57 84.5,-57 84.5,-39 10.5,-39"/>
<polygon fill="none" stroke="black" points="10.5,-39 10.5,-57 84.5,-57 84.5,-39 10.5,-39"/>
<text text-anchor="start" x="13.5" y="-45.2" font-family="Helvetica,sans-Serif" font-size="11.00">&lt; 0</text>
<polygon fill="#ffffff" stroke="transparent" points="84.5,-39 84.5,-57 149.5,-57 149.5,-39 84.5,-39"/>
<polygon fill="none" stroke="black" points="84.5,-39 84.5,-57 149.5,-57 149.5,-39 84.5,-39"/>
<text text-anchor="start" x="139.5" y="-45.2" font-family="Helvetica,sans-Serif" font-size="11.00"> &#160;</text>
<polygon fill="#ffffff" stroke="transparent" points="149.5,-39 149.5,-57 219.5,-57 219.5,-39 149.5,-39"/>
<polygon fill="none" stroke="black" points="149.5,-39 149.5,-57 219.5,-57 219.5,-39 149.5,-39"/>
<text text-anchor="start" x="200.5" y="-45.2" font-family="Helvetica,sans-Serif" font-size="11.00">1 &gt;</text>
<polygon fill="none" stroke="black" stroke-width="2" points="9,-38 9,-366 220,-366 220,-38 9,-38"/>
</a>
</g>
</g>
<!-- tdh_od.structure&#45;&gt;structure_condition -->
<g id="edge1" class="edge">
<title>tdh_od.structure:w&#45;&gt;structure_condition:e</title>
<path fill="none" stroke="black" d="M254.28,-332C243.29,-332 236.16,-332 220.5,-332"/>
<polygon fill="black" stroke="black" points="261,-332 269,-335.6 265,-332 269,-332 269,-332 269,-332 265,-332 269,-328.4 261,-332 261,-332"/>
<ellipse fill="none" stroke="black" cx="257.8" cy="-332" rx="3.2" ry="3.2"/>
</g>
</g>
</svg>
