<?xml version="1.0" encoding="UTF-8" standalone="no"?>
<!DOCTYPE svg PUBLIC "-//W3C//DTD SVG 1.1//EN"
 "http://www.w3.org/Graphics/SVG/1.1/DTD/svg11.dtd">
<!-- Generated by graphviz version 2.47.1 (20210515.0534)
 -->
<!-- Title: oneDegreeRelationshipsDiagram Pages: 1 -->
<svg width="514pt" height="553pt"
 viewBox="0.00 0.00 514.00 553.00" xmlns="http://www.w3.org/2000/svg" xmlns:xlink="http://www.w3.org/1999/xlink">
<g id="graph0" class="graph" transform="scale(1 1) rotate(0) translate(4 549)">
<title>oneDegreeRelationshipsDiagram</title>
<polygon fill="#ffffff" stroke="transparent" points="-4,4 -4,-549 510,-549 510,4 -4,4"/>
<text text-anchor="middle" x="73.5" y="-7.2" font-family="Helvetica,sans-Serif" font-size="11.00">Generated by SchemaSpy</text>
<!-- tdh_od.structure -->
<g id="node1" class="node">
<title>tdh_od.structure</title>
<g id="a_node1"><a xlink:href="../../../tdh_od/tables/structure.html" xlink:title="tdh_od.structure" target="_top">
<polygon fill="#ffffff" stroke="transparent" points="324,-263 324,-541 498,-541 498,-263 324,-263"/>
<polygon fill="#f5f5f5" stroke="transparent" points="324,-519 324,-541 498,-541 498,-519 324,-519"/>
<polygon fill="none" stroke="black" points="324,-519 324,-541 498,-541 498,-519 324,-519"/>
<text text-anchor="start" x="329" y="-528.2" font-family="Helvetica,sans-Serif" font-weight="bold" font-size="11.00">tdh_od.structure</text>
<text text-anchor="start" x="459" y="-527.2" font-family="Helvetica,sans-Serif" font-size="11.00">[table]</text>
<polygon fill="none" stroke="black" points="324,-497 324,-519 498,-519 498,-497 324,-497"/>
<image xlink:href="../../images/foreignKeys.png" width="11px" height="12px" preserveAspectRatio="xMinYMin meet" x="329" y="-514"/>
<text text-anchor="start" x="344" y="-505.2" font-family="Helvetica,sans-Serif" font-size="11.00">horizontal_positioning</text>
<polygon fill="none" stroke="black" points="324,-475 324,-497 498,-497 498,-475 324,-475"/>
<image xlink:href="../../images/foreignKeys.png" width="11px" height="12px" preserveAspectRatio="xMinYMin meet" x="329" y="-492"/>
<text text-anchor="start" x="344" y="-483.2" font-family="Helvetica,sans-Serif" font-size="11.00">status</text>
<polygon fill="none" stroke="black" points="324,-453 324,-475 498,-475 498,-453 324,-453"/>
<image xlink:href="../../images/foreignKeys.png" width="11px" height="12px" preserveAspectRatio="xMinYMin meet" x="329" y="-470"/>
<text text-anchor="start" x="344" y="-461.2" font-family="Helvetica,sans-Serif" font-size="11.00">kind</text>
<polygon fill="none" stroke="black" points="324,-431 324,-453 498,-453 498,-431 324,-431"/>
<image xlink:href="../../images/foreignKeys.png" width="11px" height="12px" preserveAspectRatio="xMinYMin meet" x="329" y="-448"/>
<text text-anchor="start" x="344" y="-439.2" font-family="Helvetica,sans-Serif" font-size="11.00">venting</text>
<polygon fill="none" stroke="black" points="324,-409 324,-431 498,-431 498,-409 324,-409"/>
<image xlink:href="../../images/foreignKeys.png" width="11px" height="12px" preserveAspectRatio="xMinYMin meet" x="329" y="-426"/>
<text text-anchor="start" x="344" y="-417.2" font-family="Helvetica,sans-Serif" font-size="11.00">discharge_type</text>
<polygon fill="none" stroke="black" points="324,-387 324,-409 498,-409 498,-387 324,-387"/>
<image xlink:href="../../images/foreignKeys.png" width="11px" height="12px" preserveAspectRatio="xMinYMin meet" x="329" y="-404"/>
<text text-anchor="start" x="344" y="-395.2" font-family="Helvetica,sans-Serif" font-size="11.00">grid_type</text>
<polygon fill="none" stroke="black" points="324,-365 324,-387 498,-387 498,-365 324,-365"/>
<image xlink:href="../../images/foreignKeys.png" width="11px" height="12px" preserveAspectRatio="xMinYMin meet" x="329" y="-382"/>
<text text-anchor="start" x="344" y="-373.2" font-family="Helvetica,sans-Serif" font-size="11.00">drainage_pump</text>
<polygon fill="none" stroke="black" points="324,-343 324,-365 498,-365 498,-343 324,-343"/>
<image xlink:href="../../images/foreignKeys.png" width="11px" height="12px" preserveAspectRatio="xMinYMin meet" x="329" y="-360"/>
<text text-anchor="start" x="344" y="-351.2" font-family="Helvetica,sans-Serif" font-size="11.00">power_connection</text>
<polygon fill="none" stroke="black" points="324,-321 324,-343 498,-343 498,-321 324,-321"/>
<image xlink:href="../../images/foreignKeys.png" width="11px" height="12px" preserveAspectRatio="xMinYMin meet" x="329" y="-338"/>
<text text-anchor="start" x="344" y="-329.2" font-family="Helvetica,sans-Serif" font-size="11.00">measuring_system</text>
<polygon fill="none" stroke="black" points="324,-299 324,-321 498,-321 498,-299 324,-299"/>
<image xlink:href="../../images/foreignKeys.png" width="11px" height="12px" preserveAspectRatio="xMinYMin meet" x="329" y="-316"/>
<text text-anchor="start" x="344" y="-307.2" font-family="Helvetica,sans-Serif" font-size="11.00">condition</text>
<polygon fill="none" stroke="black" points="324,-281 324,-299 498,-299 498,-281 324,-281"/>
<text text-anchor="start" x="327" y="-287.2" font-family="Helvetica,sans-Serif" font-size="11.00">...</text>
<polygon fill="#ffffff" stroke="transparent" points="324,-263 324,-281 398,-281 398,-263 324,-263"/>
<polygon fill="none" stroke="black" points="324,-263 324,-281 398,-281 398,-263 324,-263"/>
<text text-anchor="start" x="327" y="-269.2" font-family="Helvetica,sans-Serif" font-size="11.00">&lt; 10</text>
<polygon fill="#ffffff" stroke="transparent" points="398,-263 398,-281 461,-281 461,-263 398,-263"/>
<polygon fill="none" stroke="black" points="398,-263 398,-281 461,-281 461,-263 398,-263"/>
<text text-anchor="start" x="424" y="-269.2" font-family="Helvetica,sans-Serif" font-size="11.00">0 rows</text>
<polygon fill="#ffffff" stroke="transparent" points="461,-263 461,-281 498,-281 498,-263 461,-263"/>
<polygon fill="none" stroke="black" points="461,-263 461,-281 498,-281 498,-263 461,-263"/>
<text text-anchor="start" x="488" y="-269.2" font-family="Helvetica,sans-Serif" font-size="11.00"> &#160;</text>
</a>
</g>
</g>
<!-- structure_measuring_system -->
<g id="node2" class="node">
<title>structure_measuring_system</title>
<g id="a_node2"><a xlink:href="../../tables/structure_measuring_system.html" xlink:title="structure_measuring_system" target="_top">
<polygon fill="#ffffff" stroke="transparent" points="8,-37 8,-367 275,-367 275,-37 8,-37"/>
<polygon fill="#f5f5f5" stroke="transparent" points="10.5,-343 10.5,-365 273.5,-365 273.5,-343 10.5,-343"/>
<polygon fill="none" stroke="black" points="10.5,-343 10.5,-365 273.5,-365 273.5,-343 10.5,-343"/>
<text text-anchor="start" x="15.5" y="-352.2" font-family="Helvetica,sans-Serif" font-weight="bold" font-size="11.00">structure_measuring_system</text>
<text text-anchor="start" x="234.5" y="-351.2" font-family="Helvetica,sans-Serif" font-size="11.00">[table]</text>
<polygon fill="none" stroke="black" points="10.5,-321 10.5,-343 203.5,-343 203.5,-321 10.5,-321"/>
<image xlink:href="../../images/primaryKeys.png" width="11px" height="12px" preserveAspectRatio="xMinYMin meet" x="15.5" y="-338"/>
<text text-anchor="start" x="30.5" y="-329.2" font-family="Helvetica,sans-Serif" font-size="11.00">code</text>
<polygon fill="none" stroke="black" points="203.5,-321 203.5,-343 273.5,-343 273.5,-321 203.5,-321"/>
<text text-anchor="start" x="206.5" y="-329.2" font-family="Helvetica,sans-Serif" font-size="11.00">int4[10]</text>
<polygon fill="none" stroke="black" points="10.5,-299 10.5,-321 203.5,-321 203.5,-299 10.5,-299"/>
<text text-anchor="start" x="30.5" y="-307.2" font-family="Helvetica,sans-Serif" font-size="11.00">vsacode</text>
<polygon fill="none" stroke="black" points="203.5,-299 203.5,-321 273.5,-321 273.5,-299 203.5,-299"/>
<text text-anchor="start" x="206.5" y="-307.2" font-family="Helvetica,sans-Serif" font-size="11.00">int4[10]</text>
<polygon fill="none" stroke="black" points="10.5,-277 10.5,-299 203.5,-299 203.5,-277 10.5,-277"/>
<text text-anchor="start" x="30.5" y="-285.2" font-family="Helvetica,sans-Serif" font-size="11.00">value_en</text>
<polygon fill="none" stroke="black" points="203.5,-277 203.5,-299 273.5,-299 273.5,-277 203.5,-277"/>
<text text-anchor="start" x="206.5" y="-285.2" font-family="Helvetica,sans-Serif" font-size="11.00">varchar[100]</text>
<polygon fill="none" stroke="black" points="10.5,-255 10.5,-277 203.5,-277 203.5,-255 10.5,-255"/>
<text text-anchor="start" x="30.5" y="-263.2" font-family="Helvetica,sans-Serif" font-size="11.00">value_de</text>
<polygon fill="none" stroke="black" points="203.5,-255 203.5,-277 273.5,-277 273.5,-255 203.5,-255"/>
<text text-anchor="start" x="206.5" y="-263.2" font-family="Helvetica,sans-Serif" font-size="11.00">varchar[100]</text>
<polygon fill="none" stroke="black" points="10.5,-233 10.5,-255 203.5,-255 203.5,-233 10.5,-233"/>
<text text-anchor="start" x="30.5" y="-241.2" font-family="Helvetica,sans-Serif" font-size="11.00">value_fr</text>
<polygon fill="none" stroke="black" points="203.5,-233 203.5,-255 273.5,-255 273.5,-233 203.5,-233"/>
<text text-anchor="start" x="206.5" y="-241.2" font-family="Helvetica,sans-Serif" font-size="11.00">varchar[100]</text>
<polygon fill="none" stroke="black" points="10.5,-211 10.5,-233 203.5,-233 203.5,-211 10.5,-211"/>
<text text-anchor="start" x="30.5" y="-219.2" font-family="Helvetica,sans-Serif" font-size="11.00">value_it</text>
<polygon fill="none" stroke="black" points="203.5,-211 203.5,-233 273.5,-233 273.5,-211 203.5,-211"/>
<text text-anchor="start" x="206.5" y="-219.2" font-family="Helvetica,sans-Serif" font-size="11.00">varchar[100]</text>
<polygon fill="none" stroke="black" points="10.5,-189 10.5,-211 203.5,-211 203.5,-189 10.5,-189"/>
<text text-anchor="start" x="30.5" y="-197.2" font-family="Helvetica,sans-Serif" font-size="11.00">value_ro</text>
<polygon fill="none" stroke="black" points="203.5,-189 203.5,-211 273.5,-211 273.5,-189 203.5,-189"/>
<text text-anchor="start" x="206.5" y="-197.2" font-family="Helvetica,sans-Serif" font-size="11.00">varchar[100]</text>
<polygon fill="none" stroke="black" points="10.5,-167 10.5,-189 203.5,-189 203.5,-167 10.5,-167"/>
<text text-anchor="start" x="30.5" y="-175.2" font-family="Helvetica,sans-Serif" font-size="11.00">abbr_en</text>
<polygon fill="none" stroke="black" points="203.5,-167 203.5,-189 273.5,-189 273.5,-167 203.5,-167"/>
<text text-anchor="start" x="206.5" y="-175.2" font-family="Helvetica,sans-Serif" font-size="11.00">varchar[3]</text>
<polygon fill="none" stroke="black" points="10.5,-145 10.5,-167 203.5,-167 203.5,-145 10.5,-145"/>
<text text-anchor="start" x="30.5" y="-153.2" font-family="Helvetica,sans-Serif" font-size="11.00">abbr_de</text>
<polygon fill="none" stroke="black" points="203.5,-145 203.5,-167 273.5,-167 273.5,-145 203.5,-145"/>
<text text-anchor="start" x="206.5" y="-153.2" font-family="Helvetica,sans-Serif" font-size="11.00">varchar[3]</text>
<polygon fill="none" stroke="black" points="10.5,-123 10.5,-145 203.5,-145 203.5,-123 10.5,-123"/>
<text text-anchor="start" x="30.5" y="-131.2" font-family="Helvetica,sans-Serif" font-size="11.00">abbr_fr</text>
<polygon fill="none" stroke="black" points="203.5,-123 203.5,-145 273.5,-145 273.5,-123 203.5,-123"/>
<text text-anchor="start" x="206.5" y="-131.2" font-family="Helvetica,sans-Serif" font-size="11.00">varchar[3]</text>
<polygon fill="none" stroke="black" points="10.5,-101 10.5,-123 203.5,-123 203.5,-101 10.5,-101"/>
<text text-anchor="start" x="30.5" y="-109.2" font-family="Helvetica,sans-Serif" font-size="11.00">abbr_it</text>
<polygon fill="none" stroke="black" points="203.5,-101 203.5,-123 273.5,-123 273.5,-101 203.5,-101"/>
<text text-anchor="start" x="206.5" y="-109.2" font-family="Helvetica,sans-Serif" font-size="11.00">varchar[3]</text>
<polygon fill="none" stroke="black" points="10.5,-79 10.5,-101 203.5,-101 203.5,-79 10.5,-79"/>
<text text-anchor="start" x="30.5" y="-87.2" font-family="Helvetica,sans-Serif" font-size="11.00">abbr_ro</text>
<polygon fill="none" stroke="black" points="203.5,-79 203.5,-101 273.5,-101 273.5,-79 203.5,-79"/>
<text text-anchor="start" x="206.5" y="-87.2" font-family="Helvetica,sans-Serif" font-size="11.00">varchar[3]</text>
<polygon fill="none" stroke="black" points="10.5,-57 10.5,-79 203.5,-79 203.5,-57 10.5,-57"/>
<text text-anchor="start" x="30.5" y="-65.2" font-family="Helvetica,sans-Serif" font-size="11.00">active</text>
<polygon fill="none" stroke="black" points="203.5,-57 203.5,-79 273.5,-79 273.5,-57 203.5,-57"/>
<text text-anchor="start" x="206.5" y="-65.2" font-family="Helvetica,sans-Serif" font-size="11.00">bool[1]</text>
<polygon fill="#ffffff" stroke="transparent" points="10.5,-39 10.5,-57 111.5,-57 111.5,-39 10.5,-39"/>
<polygon fill="none" stroke="black" points="10.5,-39 10.5,-57 111.5,-57 111.5,-39 10.5,-39"/>
<text text-anchor="start" x="13.5" y="-45.2" font-family="Helvetica,sans-Serif" font-size="11.00">&lt; 0</text>
<polygon fill="#ffffff" stroke="transparent" points="111.5,-39 111.5,-57 203.5,-57 203.5,-39 111.5,-39"/>
<polygon fill="none" stroke="black" points="111.5,-39 111.5,-57 203.5,-57 203.5,-39 111.5,-39"/>
<text text-anchor="start" x="193.5" y="-45.2" font-family="Helvetica,sans-Serif" font-size="11.00"> &#160;</text>
<polygon fill="#ffffff" stroke="transparent" points="203.5,-39 203.5,-57 273.5,-57 273.5,-39 203.5,-39"/>
<polygon fill="none" stroke="black" points="203.5,-39 203.5,-57 273.5,-57 273.5,-39 203.5,-39"/>
<text text-anchor="start" x="254.5" y="-45.2" font-family="Helvetica,sans-Serif" font-size="11.00">1 &gt;</text>
<polygon fill="none" stroke="black" stroke-width="2" points="9,-38 9,-366 274,-366 274,-38 9,-38"/>
</a>
</g>
</g>
<!-- tdh_od.structure&#45;&gt;structure_measuring_system -->
<g id="edge1" class="edge">
<title>tdh_od.structure:w&#45;&gt;structure_measuring_system:e</title>
<path fill="none" stroke="black" d="M308.28,-332C297.29,-332 290.16,-332 274.5,-332"/>
<polygon fill="black" stroke="black" points="315,-332 323,-335.6 319,-332 323,-332 323,-332 323,-332 319,-332 323,-328.4 315,-332 315,-332"/>
<ellipse fill="none" stroke="black" cx="311.8" cy="-332" rx="3.2" ry="3.2"/>
</g>
</g>
</svg>
