<?xml version="1.0" encoding="UTF-8" standalone="no"?>
<!DOCTYPE svg PUBLIC "-//W3C//DTD SVG 1.1//EN"
 "http://www.w3.org/Graphics/SVG/1.1/DTD/svg11.dtd">
<!-- Generated by graphviz version 2.43.0 (0)
 -->
<!-- Title: oneDegreeRelationshipsDiagram Pages: 1 -->
<svg width="647pt" height="599pt"
 viewBox="0.00 0.00 647.00 599.00" xmlns="http://www.w3.org/2000/svg" xmlns:xlink="http://www.w3.org/1999/xlink">
<g id="graph0" class="graph" transform="scale(1 1) rotate(0) translate(4 595)">
<title>oneDegreeRelationshipsDiagram</title>
<polygon fill="#ffffff" stroke="transparent" points="-4,4 -4,-595 643,-595 643,4 -4,4"/>
<text text-anchor="middle" x="79.5" y="-7.2" font-family="Helvetica,sans-Serif" font-size="11.00">Generated by SchemaSpy</text>
<!-- tdh_od.structure -->
<g id="node1" class="node">
<title>tdh_od.structure</title>
<g id="a_node1"><a xlink:href="../../../tdh_od/tables/structure.html" xlink:title="tdh_od.structure" target="_top">
<polygon fill="#ffffff" stroke="transparent" points="425,-307 425,-585 631,-585 631,-307 425,-307"/>
<polygon fill="#f5f5f5" stroke="transparent" points="425,-563 425,-585 631,-585 631,-563 425,-563"/>
<polygon fill="none" stroke="black" points="425,-563 425,-585 631,-585 631,-563 425,-563"/>
<text text-anchor="start" x="430" y="-572.2" font-family="Helvetica,sans-Serif" font-weight="bold" font-size="11.00">tdh_od.structure</text>
<text text-anchor="start" x="589" y="-571.2" font-family="Helvetica,sans-Serif" font-size="11.00">[table]</text>
<polygon fill="none" stroke="black" points="425,-541 425,-563 631,-563 631,-541 425,-541"/>
<image xlink:href="../../images/foreignKeys.png" width="11px" height="12px" preserveAspectRatio="xMinYMin meet" x="430" y="-558"/>
<text text-anchor="start" x="445" y="-549.2" font-family="Helvetica,sans-Serif" font-size="11.00">horizontal_positioning</text>
<polygon fill="none" stroke="black" points="425,-519 425,-541 631,-541 631,-519 425,-519"/>
<image xlink:href="../../images/foreignKeys.png" width="11px" height="12px" preserveAspectRatio="xMinYMin meet" x="430" y="-536"/>
<text text-anchor="start" x="445" y="-527.2" font-family="Helvetica,sans-Serif" font-size="11.00">status</text>
<polygon fill="none" stroke="black" points="425,-497 425,-519 631,-519 631,-497 425,-497"/>
<image xlink:href="../../images/foreignKeys.png" width="11px" height="12px" preserveAspectRatio="xMinYMin meet" x="430" y="-514"/>
<text text-anchor="start" x="445" y="-505.2" font-family="Helvetica,sans-Serif" font-size="11.00">kind</text>
<polygon fill="none" stroke="black" points="425,-475 425,-497 631,-497 631,-475 425,-475"/>
<image xlink:href="../../images/foreignKeys.png" width="11px" height="12px" preserveAspectRatio="xMinYMin meet" x="430" y="-492"/>
<text text-anchor="start" x="445" y="-483.2" font-family="Helvetica,sans-Serif" font-size="11.00">venting</text>
<polygon fill="none" stroke="black" points="425,-453 425,-475 631,-475 631,-453 425,-453"/>
<image xlink:href="../../images/foreignKeys.png" width="11px" height="12px" preserveAspectRatio="xMinYMin meet" x="430" y="-470"/>
<text text-anchor="start" x="445" y="-461.2" font-family="Helvetica,sans-Serif" font-size="11.00">discharge_type</text>
<polygon fill="none" stroke="black" points="425,-431 425,-453 631,-453 631,-431 425,-431"/>
<image xlink:href="../../images/foreignKeys.png" width="11px" height="12px" preserveAspectRatio="xMinYMin meet" x="430" y="-448"/>
<text text-anchor="start" x="445" y="-439.2" font-family="Helvetica,sans-Serif" font-size="11.00">grid_type</text>
<polygon fill="none" stroke="black" points="425,-409 425,-431 631,-431 631,-409 425,-409"/>
<image xlink:href="../../images/foreignKeys.png" width="11px" height="12px" preserveAspectRatio="xMinYMin meet" x="430" y="-426"/>
<text text-anchor="start" x="445" y="-417.2" font-family="Helvetica,sans-Serif" font-size="11.00">drainage_pump</text>
<polygon fill="none" stroke="black" points="425,-387 425,-409 631,-409 631,-387 425,-387"/>
<image xlink:href="../../images/foreignKeys.png" width="11px" height="12px" preserveAspectRatio="xMinYMin meet" x="430" y="-404"/>
<text text-anchor="start" x="445" y="-395.2" font-family="Helvetica,sans-Serif" font-size="11.00">power_connection</text>
<polygon fill="none" stroke="black" points="425,-365 425,-387 631,-387 631,-365 425,-365"/>
<image xlink:href="../../images/foreignKeys.png" width="11px" height="12px" preserveAspectRatio="xMinYMin meet" x="430" y="-382"/>
<text text-anchor="start" x="445" y="-373.2" font-family="Helvetica,sans-Serif" font-size="11.00">measuring_system</text>
<polygon fill="none" stroke="black" points="425,-343 425,-365 631,-365 631,-343 425,-343"/>
<image xlink:href="../../images/foreignKeys.png" width="11px" height="12px" preserveAspectRatio="xMinYMin meet" x="430" y="-360"/>
<text text-anchor="start" x="445" y="-351.2" font-family="Helvetica,sans-Serif" font-size="11.00">condition</text>
<polygon fill="none" stroke="black" points="425,-325 425,-343 631,-343 631,-325 425,-325"/>
<text text-anchor="start" x="428" y="-331.2" font-family="Helvetica,sans-Serif" font-size="11.00">...</text>
<polygon fill="#ffffff" stroke="transparent" points="425,-307 425,-325 631,-325 631,-307 425,-307"/>
<polygon fill="none" stroke="black" points="425,-307 425,-325 631,-325 631,-307 425,-307"/>
<polygon fill="#ffffff" stroke="transparent" points="426,-308 426,-324 497,-324 497,-308 426,-308"/>
<text text-anchor="start" x="428" y="-313.2" font-family="Helvetica,sans-Serif" font-size="11.00">&lt; 10</text>
<polygon fill="#ffffff" stroke="transparent" points="497,-308 497,-324 578,-324 578,-308 497,-308"/>
<text text-anchor="start" x="519" y="-313.2" font-family="Helvetica,sans-Serif" font-size="11.00">0 rows</text>
<polygon fill="#ffffff" stroke="transparent" points="578,-308 578,-324 630,-324 630,-308 578,-308"/>
<text text-anchor="start" x="620" y="-313.2" font-family="Helvetica,sans-Serif" font-size="11.00"> &#160;</text>
<polygon fill="black" stroke="black" points="497,-308 497,-324 497,-324 497,-308 497,-308"/>
<polygon fill="black" stroke="black" points="578,-308 578,-324 578,-324 578,-308 578,-308"/>
</a>
</g>
</g>
<!-- structure_horizontal_positioning -->
<g id="node2" class="node">
<title>structure_horizontal_positioning</title>
<g id="a_node2"><a xlink:href="../../tables/structure_horizontal_positioning.html" xlink:title="structure_horizontal_positioning" target="_top">
<polygon fill="#ffffff" stroke="transparent" points="8,-37 8,-587 376,-587 376,-37 8,-37"/>
<polygon fill="#f5f5f5" stroke="transparent" points="10,-563 10,-585 374,-585 374,-563 10,-563"/>
<polygon fill="none" stroke="black" points="10,-563 10,-585 374,-585 374,-563 10,-563"/>
<text text-anchor="start" x="15" y="-572.2" font-family="Helvetica,sans-Serif" font-weight="bold" font-size="11.00">structure_horizontal_positioning</text>
<text text-anchor="start" x="332" y="-571.2" font-family="Helvetica,sans-Serif" font-size="11.00">[table]</text>
<polygon fill="none" stroke="black" points="10,-541 10,-563 268,-563 268,-541 10,-541"/>
<image xlink:href="../../images/primaryKeys.png" width="11px" height="12px" preserveAspectRatio="xMinYMin meet" x="15" y="-558"/>
<text text-anchor="start" x="30" y="-549.2" font-family="Helvetica,sans-Serif" font-size="11.00">code</text>
<polygon fill="none" stroke="black" points="268,-541 268,-563 374,-563 374,-541 268,-541"/>
<text text-anchor="start" x="271" y="-549.2" font-family="Helvetica,sans-Serif" font-size="11.00">int4[10]</text>
<polygon fill="none" stroke="black" points="10,-519 10,-541 268,-541 268,-519 10,-519"/>
<text text-anchor="start" x="30" y="-527.2" font-family="Helvetica,sans-Serif" font-size="11.00">vsacode</text>
<polygon fill="none" stroke="black" points="268,-519 268,-541 374,-541 374,-519 268,-519"/>
<text text-anchor="start" x="271" y="-527.2" font-family="Helvetica,sans-Serif" font-size="11.00">int4[10]</text>
<polygon fill="none" stroke="black" points="10,-497 10,-519 268,-519 268,-497 10,-497"/>
<text text-anchor="start" x="30" y="-505.2" font-family="Helvetica,sans-Serif" font-size="11.00">value_en</text>
<polygon fill="none" stroke="black" points="268,-497 268,-519 374,-519 374,-497 268,-497"/>
<text text-anchor="start" x="271" y="-505.2" font-family="Helvetica,sans-Serif" font-size="11.00">varchar[100]</text>
<polygon fill="none" stroke="black" points="10,-475 10,-497 268,-497 268,-475 10,-475"/>
<text text-anchor="start" x="30" y="-483.2" font-family="Helvetica,sans-Serif" font-size="11.00">value_de</text>
<polygon fill="none" stroke="black" points="268,-475 268,-497 374,-497 374,-475 268,-475"/>
<text text-anchor="start" x="271" y="-483.2" font-family="Helvetica,sans-Serif" font-size="11.00">varchar[100]</text>
<polygon fill="none" stroke="black" points="10,-453 10,-475 268,-475 268,-453 10,-453"/>
<text text-anchor="start" x="30" y="-461.2" font-family="Helvetica,sans-Serif" font-size="11.00">value_fr</text>
<polygon fill="none" stroke="black" points="268,-453 268,-475 374,-475 374,-453 268,-453"/>
<text text-anchor="start" x="271" y="-461.2" font-family="Helvetica,sans-Serif" font-size="11.00">varchar[100]</text>
<polygon fill="none" stroke="black" points="10,-431 10,-453 268,-453 268,-431 10,-431"/>
<text text-anchor="start" x="30" y="-439.2" font-family="Helvetica,sans-Serif" font-size="11.00">value_it</text>
<polygon fill="none" stroke="black" points="268,-431 268,-453 374,-453 374,-431 268,-431"/>
<text text-anchor="start" x="271" y="-439.2" font-family="Helvetica,sans-Serif" font-size="11.00">varchar[100]</text>
<polygon fill="none" stroke="black" points="10,-409 10,-431 268,-431 268,-409 10,-409"/>
<text text-anchor="start" x="30" y="-417.2" font-family="Helvetica,sans-Serif" font-size="11.00">value_ro</text>
<polygon fill="none" stroke="black" points="268,-409 268,-431 374,-431 374,-409 268,-409"/>
<text text-anchor="start" x="271" y="-417.2" font-family="Helvetica,sans-Serif" font-size="11.00">varchar[100]</text>
<polygon fill="none" stroke="black" points="10,-387 10,-409 268,-409 268,-387 10,-387"/>
<text text-anchor="start" x="30" y="-395.2" font-family="Helvetica,sans-Serif" font-size="11.00">abbr_en</text>
<polygon fill="none" stroke="black" points="268,-387 268,-409 374,-409 374,-387 268,-387"/>
<text text-anchor="start" x="271" y="-395.2" font-family="Helvetica,sans-Serif" font-size="11.00">varchar[3]</text>
<polygon fill="none" stroke="black" points="10,-365 10,-387 268,-387 268,-365 10,-365"/>
<text text-anchor="start" x="30" y="-373.2" font-family="Helvetica,sans-Serif" font-size="11.00">abbr_de</text>
<polygon fill="none" stroke="black" points="268,-365 268,-387 374,-387 374,-365 268,-365"/>
<text text-anchor="start" x="271" y="-373.2" font-family="Helvetica,sans-Serif" font-size="11.00">varchar[3]</text>
<polygon fill="none" stroke="black" points="10,-343 10,-365 268,-365 268,-343 10,-343"/>
<text text-anchor="start" x="30" y="-351.2" font-family="Helvetica,sans-Serif" font-size="11.00">abbr_fr</text>
<polygon fill="none" stroke="black" points="268,-343 268,-365 374,-365 374,-343 268,-343"/>
<text text-anchor="start" x="271" y="-351.2" font-family="Helvetica,sans-Serif" font-size="11.00">varchar[3]</text>
<polygon fill="none" stroke="black" points="10,-321 10,-343 268,-343 268,-321 10,-321"/>
<text text-anchor="start" x="30" y="-329.2" font-family="Helvetica,sans-Serif" font-size="11.00">abbr_it</text>
<polygon fill="none" stroke="black" points="268,-321 268,-343 374,-343 374,-321 268,-321"/>
<text text-anchor="start" x="271" y="-329.2" font-family="Helvetica,sans-Serif" font-size="11.00">varchar[3]</text>
<polygon fill="none" stroke="black" points="10,-299 10,-321 268,-321 268,-299 10,-299"/>
<text text-anchor="start" x="30" y="-307.2" font-family="Helvetica,sans-Serif" font-size="11.00">abbr_ro</text>
<polygon fill="none" stroke="black" points="268,-299 268,-321 374,-321 374,-299 268,-299"/>
<text text-anchor="start" x="271" y="-307.2" font-family="Helvetica,sans-Serif" font-size="11.00">varchar[3]</text>
<polygon fill="none" stroke="black" points="10,-277 10,-299 268,-299 268,-277 10,-277"/>
<text text-anchor="start" x="30" y="-285.2" font-family="Helvetica,sans-Serif" font-size="11.00">description_en</text>
<polygon fill="none" stroke="black" points="268,-277 268,-299 374,-299 374,-277 268,-277"/>
<text text-anchor="start" x="271" y="-285.2" font-family="Helvetica,sans-Serif" font-size="11.00">text[2147483647]</text>
<polygon fill="none" stroke="black" points="10,-255 10,-277 268,-277 268,-255 10,-255"/>
<text text-anchor="start" x="30" y="-263.2" font-family="Helvetica,sans-Serif" font-size="11.00">description_de</text>
<polygon fill="none" stroke="black" points="268,-255 268,-277 374,-277 374,-255 268,-255"/>
<text text-anchor="start" x="271" y="-263.2" font-family="Helvetica,sans-Serif" font-size="11.00">text[2147483647]</text>
<polygon fill="none" stroke="black" points="10,-233 10,-255 268,-255 268,-233 10,-233"/>
<text text-anchor="start" x="30" y="-241.2" font-family="Helvetica,sans-Serif" font-size="11.00">description_fr</text>
<polygon fill="none" stroke="black" points="268,-233 268,-255 374,-255 374,-233 268,-233"/>
<text text-anchor="start" x="271" y="-241.2" font-family="Helvetica,sans-Serif" font-size="11.00">text[2147483647]</text>
<polygon fill="none" stroke="black" points="10,-211 10,-233 268,-233 268,-211 10,-211"/>
<text text-anchor="start" x="30" y="-219.2" font-family="Helvetica,sans-Serif" font-size="11.00">description_it</text>
<polygon fill="none" stroke="black" points="268,-211 268,-233 374,-233 374,-211 268,-211"/>
<text text-anchor="start" x="271" y="-219.2" font-family="Helvetica,sans-Serif" font-size="11.00">text[2147483647]</text>
<polygon fill="none" stroke="black" points="10,-189 10,-211 268,-211 268,-189 10,-189"/>
<text text-anchor="start" x="30" y="-197.2" font-family="Helvetica,sans-Serif" font-size="11.00">description_ro</text>
<polygon fill="none" stroke="black" points="268,-189 268,-211 374,-211 374,-189 268,-189"/>
<text text-anchor="start" x="271" y="-197.2" font-family="Helvetica,sans-Serif" font-size="11.00">text[2147483647]</text>
<polygon fill="none" stroke="black" points="10,-167 10,-189 268,-189 268,-167 10,-167"/>
<text text-anchor="start" x="30" y="-175.2" font-family="Helvetica,sans-Serif" font-size="11.00">display_en</text>
<polygon fill="none" stroke="black" points="268,-167 268,-189 374,-189 374,-167 268,-167"/>
<text text-anchor="start" x="271" y="-175.2" font-family="Helvetica,sans-Serif" font-size="11.00">varchar[100]</text>
<polygon fill="none" stroke="black" points="10,-145 10,-167 268,-167 268,-145 10,-145"/>
<text text-anchor="start" x="30" y="-153.2" font-family="Helvetica,sans-Serif" font-size="11.00">display_de</text>
<polygon fill="none" stroke="black" points="268,-145 268,-167 374,-167 374,-145 268,-145"/>
<text text-anchor="start" x="271" y="-153.2" font-family="Helvetica,sans-Serif" font-size="11.00">varchar[100]</text>
<polygon fill="none" stroke="black" points="10,-123 10,-145 268,-145 268,-123 10,-123"/>
<text text-anchor="start" x="30" y="-131.2" font-family="Helvetica,sans-Serif" font-size="11.00">display_fr</text>
<polygon fill="none" stroke="black" points="268,-123 268,-145 374,-145 374,-123 268,-123"/>
<text text-anchor="start" x="271" y="-131.2" font-family="Helvetica,sans-Serif" font-size="11.00">varchar[100]</text>
<polygon fill="none" stroke="black" points="10,-101 10,-123 268,-123 268,-101 10,-101"/>
<text text-anchor="start" x="30" y="-109.2" font-family="Helvetica,sans-Serif" font-size="11.00">display_it</text>
<polygon fill="none" stroke="black" points="268,-101 268,-123 374,-123 374,-101 268,-101"/>
<text text-anchor="start" x="271" y="-109.2" font-family="Helvetica,sans-Serif" font-size="11.00">varchar[100]</text>
<polygon fill="none" stroke="black" points="10,-79 10,-101 268,-101 268,-79 10,-79"/>
<text text-anchor="start" x="30" y="-87.2" font-family="Helvetica,sans-Serif" font-size="11.00">display_ro</text>
<polygon fill="none" stroke="black" points="268,-79 268,-101 374,-101 374,-79 268,-79"/>
<text text-anchor="start" x="271" y="-87.2" font-family="Helvetica,sans-Serif" font-size="11.00">varchar[100]</text>
<polygon fill="none" stroke="black" points="10,-57 10,-79 268,-79 268,-57 10,-57"/>
<text text-anchor="start" x="30" y="-65.2" font-family="Helvetica,sans-Serif" font-size="11.00">active</text>
<polygon fill="none" stroke="black" points="268,-57 268,-79 374,-79 374,-57 268,-57"/>
<text text-anchor="start" x="271" y="-65.2" font-family="Helvetica,sans-Serif" font-size="11.00">bool[1]</text>
<polygon fill="#ffffff" stroke="transparent" points="10,-39 10,-57 374,-57 374,-39 10,-39"/>
<polygon fill="none" stroke="black" points="10,-39 10,-57 374,-57 374,-39 10,-39"/>
<polygon fill="#ffffff" stroke="transparent" points="11,-40 11,-56 136,-56 136,-40 11,-40"/>
<text text-anchor="start" x="13" y="-45.2" font-family="Helvetica,sans-Serif" font-size="11.00">&lt; 0</text>
<polygon fill="#ffffff" stroke="transparent" points="136,-40 136,-56 249,-56 249,-40 136,-40"/>
<text text-anchor="start" x="188.5" y="-45.2" font-family="Helvetica,sans-Serif" font-size="11.00"> &#160;</text>
<polygon fill="#ffffff" stroke="transparent" points="249,-40 249,-56 373,-56 373,-40 249,-40"/>
<text text-anchor="start" x="351" y="-45.2" font-family="Helvetica,sans-Serif" font-size="11.00">1 &gt;</text>
<polygon fill="black" stroke="black" points="136,-40 136,-56 136,-56 136,-40 136,-40"/>
<polygon fill="black" stroke="black" points="249,-40 249,-56 249,-56 249,-40 249,-40"/>
<polygon fill="none" stroke="black" stroke-width="2" points="9,-38 9,-586 375,-586 375,-38 9,-38"/>
</a>
</g>
</g>
<!-- tdh_od.structure&#45;&gt;structure_horizontal_positioning -->
<g id="edge1" class="edge">
<title>tdh_od.structure:w&#45;&gt;structure_horizontal_positioning:e</title>
<path fill="none" stroke="black" d="M409.49,-552C398.18,-552 390.99,-552 375,-552"/>
<polygon fill="black" stroke="black" points="416,-552 424,-555.6 420,-552 424,-552 424,-552 424,-552 420,-552 424,-548.4 416,-552 416,-552"/>
<ellipse fill="none" stroke="black" cx="412.8" cy="-552" rx="3.2" ry="3.2"/>
</g>
</g>
</svg>
