<?xml version="1.0" encoding="UTF-8" standalone="no"?>
<!DOCTYPE svg PUBLIC "-//W3C//DTD SVG 1.1//EN"
 "http://www.w3.org/Graphics/SVG/1.1/DTD/svg11.dtd">
<!-- Generated by graphviz version 2.43.0 (0)
 -->
<!-- Title: oneDegreeRelationshipsDiagram Pages: 1 -->
<svg width="597pt" height="729pt"
 viewBox="0.00 0.00 597.00 729.00" xmlns="http://www.w3.org/2000/svg" xmlns:xlink="http://www.w3.org/1999/xlink">
<g id="graph0" class="graph" transform="scale(1 1) rotate(0) translate(4 725)">
<title>oneDegreeRelationshipsDiagram</title>
<polygon fill="#ffffff" stroke="transparent" points="-4,4 -4,-725 593,-725 593,4 -4,4"/>
<text text-anchor="middle" x="79.5" y="-7.2" font-family="Helvetica,sans-Serif" font-size="11.00">Generated by SchemaSpy</text>
<!-- tdh_od.structure -->
<g id="node1" class="node">
<title>tdh_od.structure</title>
<g id="a_node1"><a xlink:href="../../../tdh_od/tables/structure.html" xlink:title="tdh_od.structure" target="_top">
<polygon fill="#ffffff" stroke="transparent" points="375,-439 375,-717 581,-717 581,-439 375,-439"/>
<polygon fill="#f5f5f5" stroke="transparent" points="375,-695 375,-717 581,-717 581,-695 375,-695"/>
<polygon fill="none" stroke="black" points="375,-695 375,-717 581,-717 581,-695 375,-695"/>
<text text-anchor="start" x="380" y="-704.2" font-family="Helvetica,sans-Serif" font-weight="bold" font-size="11.00">tdh_od.structure</text>
<text text-anchor="start" x="539" y="-703.2" font-family="Helvetica,sans-Serif" font-size="11.00">[table]</text>
<polygon fill="none" stroke="black" points="375,-673 375,-695 581,-695 581,-673 375,-673"/>
<image xlink:href="../../images/foreignKeys.png" width="11px" height="12px" preserveAspectRatio="xMinYMin meet" x="380" y="-690"/>
<text text-anchor="start" x="395" y="-681.2" font-family="Helvetica,sans-Serif" font-size="11.00">horizontal_positioning</text>
<polygon fill="none" stroke="black" points="375,-651 375,-673 581,-673 581,-651 375,-651"/>
<image xlink:href="../../images/foreignKeys.png" width="11px" height="12px" preserveAspectRatio="xMinYMin meet" x="380" y="-668"/>
<text text-anchor="start" x="395" y="-659.2" font-family="Helvetica,sans-Serif" font-size="11.00">status</text>
<polygon fill="none" stroke="black" points="375,-629 375,-651 581,-651 581,-629 375,-629"/>
<image xlink:href="../../images/foreignKeys.png" width="11px" height="12px" preserveAspectRatio="xMinYMin meet" x="380" y="-646"/>
<text text-anchor="start" x="395" y="-637.2" font-family="Helvetica,sans-Serif" font-size="11.00">kind</text>
<polygon fill="none" stroke="black" points="375,-607 375,-629 581,-629 581,-607 375,-607"/>
<image xlink:href="../../images/foreignKeys.png" width="11px" height="12px" preserveAspectRatio="xMinYMin meet" x="380" y="-624"/>
<text text-anchor="start" x="395" y="-615.2" font-family="Helvetica,sans-Serif" font-size="11.00">venting</text>
<polygon fill="none" stroke="black" points="375,-585 375,-607 581,-607 581,-585 375,-585"/>
<image xlink:href="../../images/foreignKeys.png" width="11px" height="12px" preserveAspectRatio="xMinYMin meet" x="380" y="-602"/>
<text text-anchor="start" x="395" y="-593.2" font-family="Helvetica,sans-Serif" font-size="11.00">discharge_type</text>
<polygon fill="none" stroke="black" points="375,-563 375,-585 581,-585 581,-563 375,-563"/>
<image xlink:href="../../images/foreignKeys.png" width="11px" height="12px" preserveAspectRatio="xMinYMin meet" x="380" y="-580"/>
<text text-anchor="start" x="395" y="-571.2" font-family="Helvetica,sans-Serif" font-size="11.00">grid_type</text>
<polygon fill="none" stroke="black" points="375,-541 375,-563 581,-563 581,-541 375,-541"/>
<image xlink:href="../../images/foreignKeys.png" width="11px" height="12px" preserveAspectRatio="xMinYMin meet" x="380" y="-558"/>
<text text-anchor="start" x="395" y="-549.2" font-family="Helvetica,sans-Serif" font-size="11.00">drainage_pump</text>
<polygon fill="none" stroke="black" points="375,-519 375,-541 581,-541 581,-519 375,-519"/>
<image xlink:href="../../images/foreignKeys.png" width="11px" height="12px" preserveAspectRatio="xMinYMin meet" x="380" y="-536"/>
<text text-anchor="start" x="395" y="-527.2" font-family="Helvetica,sans-Serif" font-size="11.00">power_connection</text>
<polygon fill="none" stroke="black" points="375,-497 375,-519 581,-519 581,-497 375,-497"/>
<image xlink:href="../../images/foreignKeys.png" width="11px" height="12px" preserveAspectRatio="xMinYMin meet" x="380" y="-514"/>
<text text-anchor="start" x="395" y="-505.2" font-family="Helvetica,sans-Serif" font-size="11.00">measuring_system</text>
<polygon fill="none" stroke="black" points="375,-475 375,-497 581,-497 581,-475 375,-475"/>
<image xlink:href="../../images/foreignKeys.png" width="11px" height="12px" preserveAspectRatio="xMinYMin meet" x="380" y="-492"/>
<text text-anchor="start" x="395" y="-483.2" font-family="Helvetica,sans-Serif" font-size="11.00">condition</text>
<polygon fill="none" stroke="black" points="375,-457 375,-475 581,-475 581,-457 375,-457"/>
<text text-anchor="start" x="378" y="-463.2" font-family="Helvetica,sans-Serif" font-size="11.00">...</text>
<polygon fill="#ffffff" stroke="transparent" points="375,-439 375,-457 581,-457 581,-439 375,-439"/>
<polygon fill="none" stroke="black" points="375,-439 375,-457 581,-457 581,-439 375,-439"/>
<polygon fill="#ffffff" stroke="transparent" points="376,-440 376,-456 447,-456 447,-440 376,-440"/>
<text text-anchor="start" x="378" y="-445.2" font-family="Helvetica,sans-Serif" font-size="11.00">&lt; 10</text>
<polygon fill="#ffffff" stroke="transparent" points="447,-440 447,-456 528,-456 528,-440 447,-440"/>
<text text-anchor="start" x="469" y="-445.2" font-family="Helvetica,sans-Serif" font-size="11.00">0 rows</text>
<polygon fill="#ffffff" stroke="transparent" points="528,-440 528,-456 580,-456 580,-440 528,-440"/>
<text text-anchor="start" x="570" y="-445.2" font-family="Helvetica,sans-Serif" font-size="11.00"> &#160;</text>
<polygon fill="black" stroke="black" points="447,-440 447,-456 447,-456 447,-440 447,-440"/>
<polygon fill="black" stroke="black" points="528,-440 528,-456 528,-456 528,-440 528,-440"/>
</a>
</g>
</g>
<!-- structure_drainage_pump -->
<g id="node2" class="node">
<title>structure_drainage_pump</title>
<g id="a_node2"><a xlink:href="../../tables/structure_drainage_pump.html" xlink:title="structure_drainage_pump" target="_top">
<polygon fill="#ffffff" stroke="transparent" points="8,-37 8,-587 326,-587 326,-37 8,-37"/>
<polygon fill="#f5f5f5" stroke="transparent" points="10,-563 10,-585 324,-585 324,-563 10,-563"/>
<polygon fill="none" stroke="black" points="10,-563 10,-585 324,-585 324,-563 10,-563"/>
<text text-anchor="start" x="15" y="-572.2" font-family="Helvetica,sans-Serif" font-weight="bold" font-size="11.00">structure_drainage_pump</text>
<text text-anchor="start" x="282" y="-571.2" font-family="Helvetica,sans-Serif" font-size="11.00">[table]</text>
<polygon fill="none" stroke="black" points="10,-541 10,-563 218,-563 218,-541 10,-541"/>
<image xlink:href="../../images/primaryKeys.png" width="11px" height="12px" preserveAspectRatio="xMinYMin meet" x="15" y="-558"/>
<text text-anchor="start" x="30" y="-549.2" font-family="Helvetica,sans-Serif" font-size="11.00">code</text>
<polygon fill="none" stroke="black" points="218,-541 218,-563 324,-563 324,-541 218,-541"/>
<text text-anchor="start" x="221" y="-549.2" font-family="Helvetica,sans-Serif" font-size="11.00">int4[10]</text>
<polygon fill="none" stroke="black" points="10,-519 10,-541 218,-541 218,-519 10,-519"/>
<text text-anchor="start" x="30" y="-527.2" font-family="Helvetica,sans-Serif" font-size="11.00">vsacode</text>
<polygon fill="none" stroke="black" points="218,-519 218,-541 324,-541 324,-519 218,-519"/>
<text text-anchor="start" x="221" y="-527.2" font-family="Helvetica,sans-Serif" font-size="11.00">int4[10]</text>
<polygon fill="none" stroke="black" points="10,-497 10,-519 218,-519 218,-497 10,-497"/>
<text text-anchor="start" x="30" y="-505.2" font-family="Helvetica,sans-Serif" font-size="11.00">value_en</text>
<polygon fill="none" stroke="black" points="218,-497 218,-519 324,-519 324,-497 218,-497"/>
<text text-anchor="start" x="221" y="-505.2" font-family="Helvetica,sans-Serif" font-size="11.00">varchar[100]</text>
<polygon fill="none" stroke="black" points="10,-475 10,-497 218,-497 218,-475 10,-475"/>
<text text-anchor="start" x="30" y="-483.2" font-family="Helvetica,sans-Serif" font-size="11.00">value_de</text>
<polygon fill="none" stroke="black" points="218,-475 218,-497 324,-497 324,-475 218,-475"/>
<text text-anchor="start" x="221" y="-483.2" font-family="Helvetica,sans-Serif" font-size="11.00">varchar[100]</text>
<polygon fill="none" stroke="black" points="10,-453 10,-475 218,-475 218,-453 10,-453"/>
<text text-anchor="start" x="30" y="-461.2" font-family="Helvetica,sans-Serif" font-size="11.00">value_fr</text>
<polygon fill="none" stroke="black" points="218,-453 218,-475 324,-475 324,-453 218,-453"/>
<text text-anchor="start" x="221" y="-461.2" font-family="Helvetica,sans-Serif" font-size="11.00">varchar[100]</text>
<polygon fill="none" stroke="black" points="10,-431 10,-453 218,-453 218,-431 10,-431"/>
<text text-anchor="start" x="30" y="-439.2" font-family="Helvetica,sans-Serif" font-size="11.00">value_it</text>
<polygon fill="none" stroke="black" points="218,-431 218,-453 324,-453 324,-431 218,-431"/>
<text text-anchor="start" x="221" y="-439.2" font-family="Helvetica,sans-Serif" font-size="11.00">varchar[100]</text>
<polygon fill="none" stroke="black" points="10,-409 10,-431 218,-431 218,-409 10,-409"/>
<text text-anchor="start" x="30" y="-417.2" font-family="Helvetica,sans-Serif" font-size="11.00">value_ro</text>
<polygon fill="none" stroke="black" points="218,-409 218,-431 324,-431 324,-409 218,-409"/>
<text text-anchor="start" x="221" y="-417.2" font-family="Helvetica,sans-Serif" font-size="11.00">varchar[100]</text>
<polygon fill="none" stroke="black" points="10,-387 10,-409 218,-409 218,-387 10,-387"/>
<text text-anchor="start" x="30" y="-395.2" font-family="Helvetica,sans-Serif" font-size="11.00">abbr_en</text>
<polygon fill="none" stroke="black" points="218,-387 218,-409 324,-409 324,-387 218,-387"/>
<text text-anchor="start" x="221" y="-395.2" font-family="Helvetica,sans-Serif" font-size="11.00">varchar[3]</text>
<polygon fill="none" stroke="black" points="10,-365 10,-387 218,-387 218,-365 10,-365"/>
<text text-anchor="start" x="30" y="-373.2" font-family="Helvetica,sans-Serif" font-size="11.00">abbr_de</text>
<polygon fill="none" stroke="black" points="218,-365 218,-387 324,-387 324,-365 218,-365"/>
<text text-anchor="start" x="221" y="-373.2" font-family="Helvetica,sans-Serif" font-size="11.00">varchar[3]</text>
<polygon fill="none" stroke="black" points="10,-343 10,-365 218,-365 218,-343 10,-343"/>
<text text-anchor="start" x="30" y="-351.2" font-family="Helvetica,sans-Serif" font-size="11.00">abbr_fr</text>
<polygon fill="none" stroke="black" points="218,-343 218,-365 324,-365 324,-343 218,-343"/>
<text text-anchor="start" x="221" y="-351.2" font-family="Helvetica,sans-Serif" font-size="11.00">varchar[3]</text>
<polygon fill="none" stroke="black" points="10,-321 10,-343 218,-343 218,-321 10,-321"/>
<text text-anchor="start" x="30" y="-329.2" font-family="Helvetica,sans-Serif" font-size="11.00">abbr_it</text>
<polygon fill="none" stroke="black" points="218,-321 218,-343 324,-343 324,-321 218,-321"/>
<text text-anchor="start" x="221" y="-329.2" font-family="Helvetica,sans-Serif" font-size="11.00">varchar[3]</text>
<polygon fill="none" stroke="black" points="10,-299 10,-321 218,-321 218,-299 10,-299"/>
<text text-anchor="start" x="30" y="-307.2" font-family="Helvetica,sans-Serif" font-size="11.00">abbr_ro</text>
<polygon fill="none" stroke="black" points="218,-299 218,-321 324,-321 324,-299 218,-299"/>
<text text-anchor="start" x="221" y="-307.2" font-family="Helvetica,sans-Serif" font-size="11.00">varchar[3]</text>
<polygon fill="none" stroke="black" points="10,-277 10,-299 218,-299 218,-277 10,-277"/>
<text text-anchor="start" x="30" y="-285.2" font-family="Helvetica,sans-Serif" font-size="11.00">description_en</text>
<polygon fill="none" stroke="black" points="218,-277 218,-299 324,-299 324,-277 218,-277"/>
<text text-anchor="start" x="221" y="-285.2" font-family="Helvetica,sans-Serif" font-size="11.00">text[2147483647]</text>
<polygon fill="none" stroke="black" points="10,-255 10,-277 218,-277 218,-255 10,-255"/>
<text text-anchor="start" x="30" y="-263.2" font-family="Helvetica,sans-Serif" font-size="11.00">description_de</text>
<polygon fill="none" stroke="black" points="218,-255 218,-277 324,-277 324,-255 218,-255"/>
<text text-anchor="start" x="221" y="-263.2" font-family="Helvetica,sans-Serif" font-size="11.00">text[2147483647]</text>
<polygon fill="none" stroke="black" points="10,-233 10,-255 218,-255 218,-233 10,-233"/>
<text text-anchor="start" x="30" y="-241.2" font-family="Helvetica,sans-Serif" font-size="11.00">description_fr</text>
<polygon fill="none" stroke="black" points="218,-233 218,-255 324,-255 324,-233 218,-233"/>
<text text-anchor="start" x="221" y="-241.2" font-family="Helvetica,sans-Serif" font-size="11.00">text[2147483647]</text>
<polygon fill="none" stroke="black" points="10,-211 10,-233 218,-233 218,-211 10,-211"/>
<text text-anchor="start" x="30" y="-219.2" font-family="Helvetica,sans-Serif" font-size="11.00">description_it</text>
<polygon fill="none" stroke="black" points="218,-211 218,-233 324,-233 324,-211 218,-211"/>
<text text-anchor="start" x="221" y="-219.2" font-family="Helvetica,sans-Serif" font-size="11.00">text[2147483647]</text>
<polygon fill="none" stroke="black" points="10,-189 10,-211 218,-211 218,-189 10,-189"/>
<text text-anchor="start" x="30" y="-197.2" font-family="Helvetica,sans-Serif" font-size="11.00">description_ro</text>
<polygon fill="none" stroke="black" points="218,-189 218,-211 324,-211 324,-189 218,-189"/>
<text text-anchor="start" x="221" y="-197.2" font-family="Helvetica,sans-Serif" font-size="11.00">text[2147483647]</text>
<polygon fill="none" stroke="black" points="10,-167 10,-189 218,-189 218,-167 10,-167"/>
<text text-anchor="start" x="30" y="-175.2" font-family="Helvetica,sans-Serif" font-size="11.00">display_en</text>
<polygon fill="none" stroke="black" points="218,-167 218,-189 324,-189 324,-167 218,-167"/>
<text text-anchor="start" x="221" y="-175.2" font-family="Helvetica,sans-Serif" font-size="11.00">varchar[100]</text>
<polygon fill="none" stroke="black" points="10,-145 10,-167 218,-167 218,-145 10,-145"/>
<text text-anchor="start" x="30" y="-153.2" font-family="Helvetica,sans-Serif" font-size="11.00">display_de</text>
<polygon fill="none" stroke="black" points="218,-145 218,-167 324,-167 324,-145 218,-145"/>
<text text-anchor="start" x="221" y="-153.2" font-family="Helvetica,sans-Serif" font-size="11.00">varchar[100]</text>
<polygon fill="none" stroke="black" points="10,-123 10,-145 218,-145 218,-123 10,-123"/>
<text text-anchor="start" x="30" y="-131.2" font-family="Helvetica,sans-Serif" font-size="11.00">display_fr</text>
<polygon fill="none" stroke="black" points="218,-123 218,-145 324,-145 324,-123 218,-123"/>
<text text-anchor="start" x="221" y="-131.2" font-family="Helvetica,sans-Serif" font-size="11.00">varchar[100]</text>
<polygon fill="none" stroke="black" points="10,-101 10,-123 218,-123 218,-101 10,-101"/>
<text text-anchor="start" x="30" y="-109.2" font-family="Helvetica,sans-Serif" font-size="11.00">display_it</text>
<polygon fill="none" stroke="black" points="218,-101 218,-123 324,-123 324,-101 218,-101"/>
<text text-anchor="start" x="221" y="-109.2" font-family="Helvetica,sans-Serif" font-size="11.00">varchar[100]</text>
<polygon fill="none" stroke="black" points="10,-79 10,-101 218,-101 218,-79 10,-79"/>
<text text-anchor="start" x="30" y="-87.2" font-family="Helvetica,sans-Serif" font-size="11.00">display_ro</text>
<polygon fill="none" stroke="black" points="218,-79 218,-101 324,-101 324,-79 218,-79"/>
<text text-anchor="start" x="221" y="-87.2" font-family="Helvetica,sans-Serif" font-size="11.00">varchar[100]</text>
<polygon fill="none" stroke="black" points="10,-57 10,-79 218,-79 218,-57 10,-57"/>
<text text-anchor="start" x="30" y="-65.2" font-family="Helvetica,sans-Serif" font-size="11.00">active</text>
<polygon fill="none" stroke="black" points="218,-57 218,-79 324,-79 324,-57 218,-57"/>
<text text-anchor="start" x="221" y="-65.2" font-family="Helvetica,sans-Serif" font-size="11.00">bool[1]</text>
<polygon fill="#ffffff" stroke="transparent" points="10,-39 10,-57 324,-57 324,-39 10,-39"/>
<polygon fill="none" stroke="black" points="10,-39 10,-57 324,-57 324,-39 10,-39"/>
<polygon fill="#ffffff" stroke="transparent" points="11,-40 11,-56 119,-56 119,-40 11,-40"/>
<text text-anchor="start" x="13" y="-45.2" font-family="Helvetica,sans-Serif" font-size="11.00">&lt; 0</text>
<polygon fill="#ffffff" stroke="transparent" points="119,-40 119,-56 215,-56 215,-40 119,-40"/>
<text text-anchor="start" x="163" y="-45.2" font-family="Helvetica,sans-Serif" font-size="11.00"> &#160;</text>
<polygon fill="#ffffff" stroke="transparent" points="215,-40 215,-56 323,-56 323,-40 215,-40"/>
<text text-anchor="start" x="301" y="-45.2" font-family="Helvetica,sans-Serif" font-size="11.00">1 &gt;</text>
<polygon fill="black" stroke="black" points="119,-40 119,-56 119,-56 119,-40 119,-40"/>
<polygon fill="black" stroke="black" points="215,-40 215,-56 215,-56 215,-40 215,-40"/>
<polygon fill="none" stroke="black" stroke-width="2" points="9,-38 9,-586 325,-586 325,-38 9,-38"/>
</a>
</g>
</g>
<!-- tdh_od.structure&#45;&gt;structure_drainage_pump -->
<g id="edge1" class="edge">
<title>tdh_od.structure:w&#45;&gt;structure_drainage_pump:e</title>
<path fill="none" stroke="black" d="M359.49,-552C348.18,-552 340.99,-552 325,-552"/>
<polygon fill="black" stroke="black" points="366,-552 374,-555.6 370,-552 374,-552 374,-552 374,-552 370,-552 374,-548.4 366,-552 366,-552"/>
<ellipse fill="none" stroke="black" cx="362.8" cy="-552" rx="3.2" ry="3.2"/>
</g>
</g>
</svg>
