<?xml version="1.0" encoding="UTF-8" standalone="no"?>
<!DOCTYPE svg PUBLIC "-//W3C//DTD SVG 1.1//EN"
 "http://www.w3.org/Graphics/SVG/1.1/DTD/svg11.dtd">
<!-- Generated by graphviz version 2.47.1 (20210515.0534)
 -->
<!-- Title: oneDegreeRelationshipsDiagram Pages: 1 -->
<svg width="495pt" height="509pt"
 viewBox="0.00 0.00 495.00 509.00" xmlns="http://www.w3.org/2000/svg" xmlns:xlink="http://www.w3.org/1999/xlink">
<g id="graph0" class="graph" transform="scale(1 1) rotate(0) translate(4 505)">
<title>oneDegreeRelationshipsDiagram</title>
<polygon fill="#ffffff" stroke="transparent" points="-4,4 -4,-505 491,-505 491,4 -4,4"/>
<text text-anchor="middle" x="73.5" y="-7.2" font-family="Helvetica,sans-Serif" font-size="11.00">Generated by SchemaSpy</text>
<!-- tdh_od.structure -->
<g id="node1" class="node">
<title>tdh_od.structure</title>
<g id="a_node1"><a xlink:href="../../../tdh_od/tables/structure.html" xlink:title="tdh_od.structure" target="_top">
<polygon fill="#ffffff" stroke="transparent" points="305,-219 305,-497 479,-497 479,-219 305,-219"/>
<polygon fill="#f5f5f5" stroke="transparent" points="305,-475 305,-497 479,-497 479,-475 305,-475"/>
<polygon fill="none" stroke="black" points="305,-475 305,-497 479,-497 479,-475 305,-475"/>
<text text-anchor="start" x="310" y="-484.2" font-family="Helvetica,sans-Serif" font-weight="bold" font-size="11.00">tdh_od.structure</text>
<text text-anchor="start" x="440" y="-483.2" font-family="Helvetica,sans-Serif" font-size="11.00">[table]</text>
<polygon fill="none" stroke="black" points="305,-453 305,-475 479,-475 479,-453 305,-453"/>
<image xlink:href="../../images/foreignKeys.png" width="11px" height="12px" preserveAspectRatio="xMinYMin meet" x="310" y="-470"/>
<text text-anchor="start" x="325" y="-461.2" font-family="Helvetica,sans-Serif" font-size="11.00">horizontal_positioning</text>
<polygon fill="none" stroke="black" points="305,-431 305,-453 479,-453 479,-431 305,-431"/>
<image xlink:href="../../images/foreignKeys.png" width="11px" height="12px" preserveAspectRatio="xMinYMin meet" x="310" y="-448"/>
<text text-anchor="start" x="325" y="-439.2" font-family="Helvetica,sans-Serif" font-size="11.00">status</text>
<polygon fill="none" stroke="black" points="305,-409 305,-431 479,-431 479,-409 305,-409"/>
<image xlink:href="../../images/foreignKeys.png" width="11px" height="12px" preserveAspectRatio="xMinYMin meet" x="310" y="-426"/>
<text text-anchor="start" x="325" y="-417.2" font-family="Helvetica,sans-Serif" font-size="11.00">kind</text>
<polygon fill="none" stroke="black" points="305,-387 305,-409 479,-409 479,-387 305,-387"/>
<image xlink:href="../../images/foreignKeys.png" width="11px" height="12px" preserveAspectRatio="xMinYMin meet" x="310" y="-404"/>
<text text-anchor="start" x="325" y="-395.2" font-family="Helvetica,sans-Serif" font-size="11.00">venting</text>
<polygon fill="none" stroke="black" points="305,-365 305,-387 479,-387 479,-365 305,-365"/>
<image xlink:href="../../images/foreignKeys.png" width="11px" height="12px" preserveAspectRatio="xMinYMin meet" x="310" y="-382"/>
<text text-anchor="start" x="325" y="-373.2" font-family="Helvetica,sans-Serif" font-size="11.00">discharge_type</text>
<polygon fill="none" stroke="black" points="305,-343 305,-365 479,-365 479,-343 305,-343"/>
<image xlink:href="../../images/foreignKeys.png" width="11px" height="12px" preserveAspectRatio="xMinYMin meet" x="310" y="-360"/>
<text text-anchor="start" x="325" y="-351.2" font-family="Helvetica,sans-Serif" font-size="11.00">grid_type</text>
<polygon fill="none" stroke="black" points="305,-321 305,-343 479,-343 479,-321 305,-321"/>
<image xlink:href="../../images/foreignKeys.png" width="11px" height="12px" preserveAspectRatio="xMinYMin meet" x="310" y="-338"/>
<text text-anchor="start" x="325" y="-329.2" font-family="Helvetica,sans-Serif" font-size="11.00">drainage_pump</text>
<polygon fill="none" stroke="black" points="305,-299 305,-321 479,-321 479,-299 305,-299"/>
<image xlink:href="../../images/foreignKeys.png" width="11px" height="12px" preserveAspectRatio="xMinYMin meet" x="310" y="-316"/>
<text text-anchor="start" x="325" y="-307.2" font-family="Helvetica,sans-Serif" font-size="11.00">power_connection</text>
<polygon fill="none" stroke="black" points="305,-277 305,-299 479,-299 479,-277 305,-277"/>
<image xlink:href="../../images/foreignKeys.png" width="11px" height="12px" preserveAspectRatio="xMinYMin meet" x="310" y="-294"/>
<text text-anchor="start" x="325" y="-285.2" font-family="Helvetica,sans-Serif" font-size="11.00">measuring_system</text>
<polygon fill="none" stroke="black" points="305,-255 305,-277 479,-277 479,-255 305,-255"/>
<image xlink:href="../../images/foreignKeys.png" width="11px" height="12px" preserveAspectRatio="xMinYMin meet" x="310" y="-272"/>
<text text-anchor="start" x="325" y="-263.2" font-family="Helvetica,sans-Serif" font-size="11.00">condition</text>
<polygon fill="none" stroke="black" points="305,-237 305,-255 479,-255 479,-237 305,-237"/>
<text text-anchor="start" x="308" y="-243.2" font-family="Helvetica,sans-Serif" font-size="11.00">...</text>
<polygon fill="#ffffff" stroke="transparent" points="305,-219 305,-237 379,-237 379,-219 305,-219"/>
<polygon fill="none" stroke="black" points="305,-219 305,-237 379,-237 379,-219 305,-219"/>
<text text-anchor="start" x="308" y="-225.2" font-family="Helvetica,sans-Serif" font-size="11.00">&lt; 10</text>
<polygon fill="#ffffff" stroke="transparent" points="379,-219 379,-237 442,-237 442,-219 379,-219"/>
<polygon fill="none" stroke="black" points="379,-219 379,-237 442,-237 442,-219 379,-219"/>
<text text-anchor="start" x="405" y="-225.2" font-family="Helvetica,sans-Serif" font-size="11.00">0 rows</text>
<polygon fill="#ffffff" stroke="transparent" points="442,-219 442,-237 479,-237 479,-219 442,-219"/>
<polygon fill="none" stroke="black" points="442,-219 442,-237 479,-237 479,-219 442,-219"/>
<text text-anchor="start" x="469" y="-225.2" font-family="Helvetica,sans-Serif" font-size="11.00"> &#160;</text>
</a>
</g>
</g>
<!-- structure_drainage_pump -->
<g id="node2" class="node">
<title>structure_drainage_pump</title>
<g id="a_node2"><a xlink:href="../../tables/structure_drainage_pump.html" xlink:title="structure_drainage_pump" target="_top">
<polygon fill="#ffffff" stroke="transparent" points="8,-37 8,-367 256,-367 256,-37 8,-37"/>
<polygon fill="#f5f5f5" stroke="transparent" points="10,-343 10,-365 254,-365 254,-343 10,-343"/>
<polygon fill="none" stroke="black" points="10,-343 10,-365 254,-365 254,-343 10,-343"/>
<text text-anchor="start" x="15" y="-352.2" font-family="Helvetica,sans-Serif" font-weight="bold" font-size="11.00">structure_drainage_pump</text>
<text text-anchor="start" x="215" y="-351.2" font-family="Helvetica,sans-Serif" font-size="11.00">[table]</text>
<polygon fill="none" stroke="black" points="10,-321 10,-343 184,-343 184,-321 10,-321"/>
<image xlink:href="../../images/primaryKeys.png" width="11px" height="12px" preserveAspectRatio="xMinYMin meet" x="15" y="-338"/>
<text text-anchor="start" x="30" y="-329.2" font-family="Helvetica,sans-Serif" font-size="11.00">code</text>
<polygon fill="none" stroke="black" points="184,-321 184,-343 254,-343 254,-321 184,-321"/>
<text text-anchor="start" x="187" y="-329.2" font-family="Helvetica,sans-Serif" font-size="11.00">int4[10]</text>
<polygon fill="none" stroke="black" points="10,-299 10,-321 184,-321 184,-299 10,-299"/>
<text text-anchor="start" x="30" y="-307.2" font-family="Helvetica,sans-Serif" font-size="11.00">vsacode</text>
<polygon fill="none" stroke="black" points="184,-299 184,-321 254,-321 254,-299 184,-299"/>
<text text-anchor="start" x="187" y="-307.2" font-family="Helvetica,sans-Serif" font-size="11.00">int4[10]</text>
<polygon fill="none" stroke="black" points="10,-277 10,-299 184,-299 184,-277 10,-277"/>
<text text-anchor="start" x="30" y="-285.2" font-family="Helvetica,sans-Serif" font-size="11.00">value_en</text>
<polygon fill="none" stroke="black" points="184,-277 184,-299 254,-299 254,-277 184,-277"/>
<text text-anchor="start" x="187" y="-285.2" font-family="Helvetica,sans-Serif" font-size="11.00">varchar[100]</text>
<polygon fill="none" stroke="black" points="10,-255 10,-277 184,-277 184,-255 10,-255"/>
<text text-anchor="start" x="30" y="-263.2" font-family="Helvetica,sans-Serif" font-size="11.00">value_de</text>
<polygon fill="none" stroke="black" points="184,-255 184,-277 254,-277 254,-255 184,-255"/>
<text text-anchor="start" x="187" y="-263.2" font-family="Helvetica,sans-Serif" font-size="11.00">varchar[100]</text>
<polygon fill="none" stroke="black" points="10,-233 10,-255 184,-255 184,-233 10,-233"/>
<text text-anchor="start" x="30" y="-241.2" font-family="Helvetica,sans-Serif" font-size="11.00">value_fr</text>
<polygon fill="none" stroke="black" points="184,-233 184,-255 254,-255 254,-233 184,-233"/>
<text text-anchor="start" x="187" y="-241.2" font-family="Helvetica,sans-Serif" font-size="11.00">varchar[100]</text>
<polygon fill="none" stroke="black" points="10,-211 10,-233 184,-233 184,-211 10,-211"/>
<text text-anchor="start" x="30" y="-219.2" font-family="Helvetica,sans-Serif" font-size="11.00">value_it</text>
<polygon fill="none" stroke="black" points="184,-211 184,-233 254,-233 254,-211 184,-211"/>
<text text-anchor="start" x="187" y="-219.2" font-family="Helvetica,sans-Serif" font-size="11.00">varchar[100]</text>
<polygon fill="none" stroke="black" points="10,-189 10,-211 184,-211 184,-189 10,-189"/>
<text text-anchor="start" x="30" y="-197.2" font-family="Helvetica,sans-Serif" font-size="11.00">value_ro</text>
<polygon fill="none" stroke="black" points="184,-189 184,-211 254,-211 254,-189 184,-189"/>
<text text-anchor="start" x="187" y="-197.2" font-family="Helvetica,sans-Serif" font-size="11.00">varchar[100]</text>
<polygon fill="none" stroke="black" points="10,-167 10,-189 184,-189 184,-167 10,-167"/>
<text text-anchor="start" x="30" y="-175.2" font-family="Helvetica,sans-Serif" font-size="11.00">abbr_en</text>
<polygon fill="none" stroke="black" points="184,-167 184,-189 254,-189 254,-167 184,-167"/>
<text text-anchor="start" x="187" y="-175.2" font-family="Helvetica,sans-Serif" font-size="11.00">varchar[3]</text>
<polygon fill="none" stroke="black" points="10,-145 10,-167 184,-167 184,-145 10,-145"/>
<text text-anchor="start" x="30" y="-153.2" font-family="Helvetica,sans-Serif" font-size="11.00">abbr_de</text>
<polygon fill="none" stroke="black" points="184,-145 184,-167 254,-167 254,-145 184,-145"/>
<text text-anchor="start" x="187" y="-153.2" font-family="Helvetica,sans-Serif" font-size="11.00">varchar[3]</text>
<polygon fill="none" stroke="black" points="10,-123 10,-145 184,-145 184,-123 10,-123"/>
<text text-anchor="start" x="30" y="-131.2" font-family="Helvetica,sans-Serif" font-size="11.00">abbr_fr</text>
<polygon fill="none" stroke="black" points="184,-123 184,-145 254,-145 254,-123 184,-123"/>
<text text-anchor="start" x="187" y="-131.2" font-family="Helvetica,sans-Serif" font-size="11.00">varchar[3]</text>
<polygon fill="none" stroke="black" points="10,-101 10,-123 184,-123 184,-101 10,-101"/>
<text text-anchor="start" x="30" y="-109.2" font-family="Helvetica,sans-Serif" font-size="11.00">abbr_it</text>
<polygon fill="none" stroke="black" points="184,-101 184,-123 254,-123 254,-101 184,-101"/>
<text text-anchor="start" x="187" y="-109.2" font-family="Helvetica,sans-Serif" font-size="11.00">varchar[3]</text>
<polygon fill="none" stroke="black" points="10,-79 10,-101 184,-101 184,-79 10,-79"/>
<text text-anchor="start" x="30" y="-87.2" font-family="Helvetica,sans-Serif" font-size="11.00">abbr_ro</text>
<polygon fill="none" stroke="black" points="184,-79 184,-101 254,-101 254,-79 184,-79"/>
<text text-anchor="start" x="187" y="-87.2" font-family="Helvetica,sans-Serif" font-size="11.00">varchar[3]</text>
<polygon fill="none" stroke="black" points="10,-57 10,-79 184,-79 184,-57 10,-57"/>
<text text-anchor="start" x="30" y="-65.2" font-family="Helvetica,sans-Serif" font-size="11.00">active</text>
<polygon fill="none" stroke="black" points="184,-57 184,-79 254,-79 254,-57 184,-57"/>
<text text-anchor="start" x="187" y="-65.2" font-family="Helvetica,sans-Serif" font-size="11.00">bool[1]</text>
<polygon fill="#ffffff" stroke="transparent" points="10,-39 10,-57 101,-57 101,-39 10,-39"/>
<polygon fill="none" stroke="black" points="10,-39 10,-57 101,-57 101,-39 10,-39"/>
<text text-anchor="start" x="13" y="-45.2" font-family="Helvetica,sans-Serif" font-size="11.00">&lt; 0</text>
<polygon fill="#ffffff" stroke="transparent" points="101,-39 101,-57 184,-57 184,-39 101,-39"/>
<polygon fill="none" stroke="black" points="101,-39 101,-57 184,-57 184,-39 101,-39"/>
<text text-anchor="start" x="174" y="-45.2" font-family="Helvetica,sans-Serif" font-size="11.00"> &#160;</text>
<polygon fill="#ffffff" stroke="transparent" points="184,-39 184,-57 254,-57 254,-39 184,-39"/>
<polygon fill="none" stroke="black" points="184,-39 184,-57 254,-57 254,-39 184,-39"/>
<text text-anchor="start" x="235" y="-45.2" font-family="Helvetica,sans-Serif" font-size="11.00">1 &gt;</text>
<polygon fill="none" stroke="black" stroke-width="2" points="9,-38 9,-366 255,-366 255,-38 9,-38"/>
</a>
</g>
</g>
<!-- tdh_od.structure&#45;&gt;structure_drainage_pump -->
<g id="edge1" class="edge">
<title>tdh_od.structure:w&#45;&gt;structure_drainage_pump:e</title>
<path fill="none" stroke="black" d="M289.49,-332C278.18,-332 270.99,-332 255,-332"/>
<polygon fill="black" stroke="black" points="296,-332 304,-335.6 300,-332 304,-332 304,-332 304,-332 300,-332 304,-328.4 296,-332 296,-332"/>
<ellipse fill="none" stroke="black" cx="292.8" cy="-332" rx="3.2" ry="3.2"/>
</g>
</g>
</svg>
