<?xml version="1.0" encoding="UTF-8" standalone="no"?>
<!DOCTYPE svg PUBLIC "-//W3C//DTD SVG 1.1//EN"
 "http://www.w3.org/Graphics/SVG/1.1/DTD/svg11.dtd">
<!-- Generated by graphviz version 2.43.0 (0)
 -->
<!-- Title: oneDegreeRelationshipsDiagram Pages: 1 -->
<svg width="572pt" height="707pt"
 viewBox="0.00 0.00 572.00 707.00" xmlns="http://www.w3.org/2000/svg" xmlns:xlink="http://www.w3.org/1999/xlink">
<g id="graph0" class="graph" transform="scale(1 1) rotate(0) translate(4 703)">
<title>oneDegreeRelationshipsDiagram</title>
<polygon fill="#ffffff" stroke="transparent" points="-4,4 -4,-703 568,-703 568,4 -4,4"/>
<text text-anchor="middle" x="79.5" y="-7.2" font-family="Helvetica,sans-Serif" font-size="11.00">Generated by SchemaSpy</text>
<!-- tdh_od.trench -->
<g id="node1" class="node">
<title>tdh_od.trench</title>
<g id="a_node1"><a xlink:href="../../../tdh_od/tables/trench.html" xlink:title="tdh_od.trench" target="_top">
<polygon fill="#ffffff" stroke="transparent" points="350,-505 350,-695 556,-695 556,-505 350,-505"/>
<polygon fill="#f5f5f5" stroke="transparent" points="350,-673 350,-695 556,-695 556,-673 350,-673"/>
<polygon fill="none" stroke="black" points="350,-673 350,-695 556,-695 556,-673 350,-673"/>
<text text-anchor="start" x="355" y="-682.2" font-family="Helvetica,sans-Serif" font-weight="bold" font-size="11.00">tdh_od.trench</text>
<text text-anchor="start" x="514" y="-681.2" font-family="Helvetica,sans-Serif" font-size="11.00">[table]</text>
<polygon fill="none" stroke="black" points="350,-651 350,-673 556,-673 556,-651 350,-651"/>
<image xlink:href="../../images/foreignKeys.png" width="11px" height="12px" preserveAspectRatio="xMinYMin meet" x="355" y="-668"/>
<text text-anchor="start" x="370" y="-659.2" font-family="Helvetica,sans-Serif" font-size="11.00">horizontal_positioning</text>
<polygon fill="none" stroke="black" points="350,-629 350,-651 556,-651 556,-629 350,-629"/>
<image xlink:href="../../images/foreignKeys.png" width="11px" height="12px" preserveAspectRatio="xMinYMin meet" x="355" y="-646"/>
<text text-anchor="start" x="370" y="-637.2" font-family="Helvetica,sans-Serif" font-size="11.00">status</text>
<polygon fill="none" stroke="black" points="350,-607 350,-629 556,-629 556,-607 350,-607"/>
<image xlink:href="../../images/foreignKeys.png" width="11px" height="12px" preserveAspectRatio="xMinYMin meet" x="355" y="-624"/>
<text text-anchor="start" x="370" y="-615.2" font-family="Helvetica,sans-Serif" font-size="11.00">trench_type</text>
<polygon fill="none" stroke="black" points="350,-585 350,-607 556,-607 556,-585 350,-585"/>
<image xlink:href="../../images/foreignKeys.png" width="11px" height="12px" preserveAspectRatio="xMinYMin meet" x="355" y="-602"/>
<text text-anchor="start" x="370" y="-593.2" font-family="Helvetica,sans-Serif" font-size="11.00">embedding</text>
<polygon fill="none" stroke="black" points="350,-563 350,-585 556,-585 556,-563 350,-563"/>
<image xlink:href="../../images/foreignKeys.png" width="11px" height="12px" preserveAspectRatio="xMinYMin meet" x="355" y="-580"/>
<text text-anchor="start" x="370" y="-571.2" font-family="Helvetica,sans-Serif" font-size="11.00">control_system</text>
<polygon fill="none" stroke="black" points="350,-541 350,-563 556,-563 556,-541 350,-541"/>
<image xlink:href="../../images/foreignKeys.png" width="11px" height="12px" preserveAspectRatio="xMinYMin meet" x="355" y="-558"/>
<text text-anchor="start" x="370" y="-549.2" font-family="Helvetica,sans-Serif" font-size="11.00">cable_conduits</text>
<polygon fill="none" stroke="black" points="350,-523 350,-541 556,-541 556,-523 350,-523"/>
<text text-anchor="start" x="353" y="-529.2" font-family="Helvetica,sans-Serif" font-size="11.00">...</text>
<polygon fill="#ffffff" stroke="transparent" points="350,-505 350,-523 556,-523 556,-505 350,-505"/>
<polygon fill="none" stroke="black" points="350,-505 350,-523 556,-523 556,-505 350,-505"/>
<polygon fill="#ffffff" stroke="transparent" points="351,-506 351,-522 418,-522 418,-506 351,-506"/>
<text text-anchor="start" x="353" y="-511.2" font-family="Helvetica,sans-Serif" font-size="11.00">&lt; 6</text>
<polygon fill="#ffffff" stroke="transparent" points="418,-506 418,-522 501,-522 501,-506 418,-506"/>
<text text-anchor="start" x="441" y="-511.2" font-family="Helvetica,sans-Serif" font-size="11.00">0 rows</text>
<polygon fill="#ffffff" stroke="transparent" points="501,-506 501,-522 555,-522 555,-506 501,-506"/>
<text text-anchor="start" x="545" y="-511.2" font-family="Helvetica,sans-Serif" font-size="11.00"> &#160;</text>
<polygon fill="black" stroke="black" points="418,-506 418,-522 418,-522 418,-506 418,-506"/>
<polygon fill="black" stroke="black" points="501,-506 501,-522 501,-522 501,-506 501,-506"/>
</a>
</g>
</g>
<!-- trench_cable_conduits -->
<g id="node2" class="node">
<title>trench_cable_conduits</title>
<g id="a_node2"><a xlink:href="../../tables/trench_cable_conduits.html" xlink:title="trench_cable_conduits" target="_top">
<polygon fill="#ffffff" stroke="transparent" points="8,-37 8,-587 301,-587 301,-37 8,-37"/>
<polygon fill="#f5f5f5" stroke="transparent" points="10.5,-563 10.5,-585 299.5,-585 299.5,-563 10.5,-563"/>
<polygon fill="none" stroke="black" points="10.5,-563 10.5,-585 299.5,-585 299.5,-563 10.5,-563"/>
<text text-anchor="start" x="15.5" y="-572.2" font-family="Helvetica,sans-Serif" font-weight="bold" font-size="11.00">trench_cable_conduits</text>
<text text-anchor="start" x="257.5" y="-571.2" font-family="Helvetica,sans-Serif" font-size="11.00">[table]</text>
<polygon fill="none" stroke="black" points="10.5,-541 10.5,-563 193.5,-563 193.5,-541 10.5,-541"/>
<image xlink:href="../../images/primaryKeys.png" width="11px" height="12px" preserveAspectRatio="xMinYMin meet" x="15.5" y="-558"/>
<text text-anchor="start" x="30.5" y="-549.2" font-family="Helvetica,sans-Serif" font-size="11.00">code</text>
<polygon fill="none" stroke="black" points="193.5,-541 193.5,-563 299.5,-563 299.5,-541 193.5,-541"/>
<text text-anchor="start" x="196.5" y="-549.2" font-family="Helvetica,sans-Serif" font-size="11.00">int4[10]</text>
<polygon fill="none" stroke="black" points="10.5,-519 10.5,-541 193.5,-541 193.5,-519 10.5,-519"/>
<text text-anchor="start" x="30.5" y="-527.2" font-family="Helvetica,sans-Serif" font-size="11.00">vsacode</text>
<polygon fill="none" stroke="black" points="193.5,-519 193.5,-541 299.5,-541 299.5,-519 193.5,-519"/>
<text text-anchor="start" x="196.5" y="-527.2" font-family="Helvetica,sans-Serif" font-size="11.00">int4[10]</text>
<polygon fill="none" stroke="black" points="10.5,-497 10.5,-519 193.5,-519 193.5,-497 10.5,-497"/>
<text text-anchor="start" x="30.5" y="-505.2" font-family="Helvetica,sans-Serif" font-size="11.00">value_en</text>
<polygon fill="none" stroke="black" points="193.5,-497 193.5,-519 299.5,-519 299.5,-497 193.5,-497"/>
<text text-anchor="start" x="196.5" y="-505.2" font-family="Helvetica,sans-Serif" font-size="11.00">varchar[100]</text>
<polygon fill="none" stroke="black" points="10.5,-475 10.5,-497 193.5,-497 193.5,-475 10.5,-475"/>
<text text-anchor="start" x="30.5" y="-483.2" font-family="Helvetica,sans-Serif" font-size="11.00">value_de</text>
<polygon fill="none" stroke="black" points="193.5,-475 193.5,-497 299.5,-497 299.5,-475 193.5,-475"/>
<text text-anchor="start" x="196.5" y="-483.2" font-family="Helvetica,sans-Serif" font-size="11.00">varchar[100]</text>
<polygon fill="none" stroke="black" points="10.5,-453 10.5,-475 193.5,-475 193.5,-453 10.5,-453"/>
<text text-anchor="start" x="30.5" y="-461.2" font-family="Helvetica,sans-Serif" font-size="11.00">value_fr</text>
<polygon fill="none" stroke="black" points="193.5,-453 193.5,-475 299.5,-475 299.5,-453 193.5,-453"/>
<text text-anchor="start" x="196.5" y="-461.2" font-family="Helvetica,sans-Serif" font-size="11.00">varchar[100]</text>
<polygon fill="none" stroke="black" points="10.5,-431 10.5,-453 193.5,-453 193.5,-431 10.5,-431"/>
<text text-anchor="start" x="30.5" y="-439.2" font-family="Helvetica,sans-Serif" font-size="11.00">value_it</text>
<polygon fill="none" stroke="black" points="193.5,-431 193.5,-453 299.5,-453 299.5,-431 193.5,-431"/>
<text text-anchor="start" x="196.5" y="-439.2" font-family="Helvetica,sans-Serif" font-size="11.00">varchar[100]</text>
<polygon fill="none" stroke="black" points="10.5,-409 10.5,-431 193.5,-431 193.5,-409 10.5,-409"/>
<text text-anchor="start" x="30.5" y="-417.2" font-family="Helvetica,sans-Serif" font-size="11.00">value_ro</text>
<polygon fill="none" stroke="black" points="193.5,-409 193.5,-431 299.5,-431 299.5,-409 193.5,-409"/>
<text text-anchor="start" x="196.5" y="-417.2" font-family="Helvetica,sans-Serif" font-size="11.00">varchar[100]</text>
<polygon fill="none" stroke="black" points="10.5,-387 10.5,-409 193.5,-409 193.5,-387 10.5,-387"/>
<text text-anchor="start" x="30.5" y="-395.2" font-family="Helvetica,sans-Serif" font-size="11.00">abbr_en</text>
<polygon fill="none" stroke="black" points="193.5,-387 193.5,-409 299.5,-409 299.5,-387 193.5,-387"/>
<text text-anchor="start" x="196.5" y="-395.2" font-family="Helvetica,sans-Serif" font-size="11.00">varchar[3]</text>
<polygon fill="none" stroke="black" points="10.5,-365 10.5,-387 193.5,-387 193.5,-365 10.5,-365"/>
<text text-anchor="start" x="30.5" y="-373.2" font-family="Helvetica,sans-Serif" font-size="11.00">abbr_de</text>
<polygon fill="none" stroke="black" points="193.5,-365 193.5,-387 299.5,-387 299.5,-365 193.5,-365"/>
<text text-anchor="start" x="196.5" y="-373.2" font-family="Helvetica,sans-Serif" font-size="11.00">varchar[3]</text>
<polygon fill="none" stroke="black" points="10.5,-343 10.5,-365 193.5,-365 193.5,-343 10.5,-343"/>
<text text-anchor="start" x="30.5" y="-351.2" font-family="Helvetica,sans-Serif" font-size="11.00">abbr_fr</text>
<polygon fill="none" stroke="black" points="193.5,-343 193.5,-365 299.5,-365 299.5,-343 193.5,-343"/>
<text text-anchor="start" x="196.5" y="-351.2" font-family="Helvetica,sans-Serif" font-size="11.00">varchar[3]</text>
<polygon fill="none" stroke="black" points="10.5,-321 10.5,-343 193.5,-343 193.5,-321 10.5,-321"/>
<text text-anchor="start" x="30.5" y="-329.2" font-family="Helvetica,sans-Serif" font-size="11.00">abbr_it</text>
<polygon fill="none" stroke="black" points="193.5,-321 193.5,-343 299.5,-343 299.5,-321 193.5,-321"/>
<text text-anchor="start" x="196.5" y="-329.2" font-family="Helvetica,sans-Serif" font-size="11.00">varchar[3]</text>
<polygon fill="none" stroke="black" points="10.5,-299 10.5,-321 193.5,-321 193.5,-299 10.5,-299"/>
<text text-anchor="start" x="30.5" y="-307.2" font-family="Helvetica,sans-Serif" font-size="11.00">abbr_ro</text>
<polygon fill="none" stroke="black" points="193.5,-299 193.5,-321 299.5,-321 299.5,-299 193.5,-299"/>
<text text-anchor="start" x="196.5" y="-307.2" font-family="Helvetica,sans-Serif" font-size="11.00">varchar[3]</text>
<polygon fill="none" stroke="black" points="10.5,-277 10.5,-299 193.5,-299 193.5,-277 10.5,-277"/>
<text text-anchor="start" x="30.5" y="-285.2" font-family="Helvetica,sans-Serif" font-size="11.00">description_en</text>
<polygon fill="none" stroke="black" points="193.5,-277 193.5,-299 299.5,-299 299.5,-277 193.5,-277"/>
<text text-anchor="start" x="196.5" y="-285.2" font-family="Helvetica,sans-Serif" font-size="11.00">text[2147483647]</text>
<polygon fill="none" stroke="black" points="10.5,-255 10.5,-277 193.5,-277 193.5,-255 10.5,-255"/>
<text text-anchor="start" x="30.5" y="-263.2" font-family="Helvetica,sans-Serif" font-size="11.00">description_de</text>
<polygon fill="none" stroke="black" points="193.5,-255 193.5,-277 299.5,-277 299.5,-255 193.5,-255"/>
<text text-anchor="start" x="196.5" y="-263.2" font-family="Helvetica,sans-Serif" font-size="11.00">text[2147483647]</text>
<polygon fill="none" stroke="black" points="10.5,-233 10.5,-255 193.5,-255 193.5,-233 10.5,-233"/>
<text text-anchor="start" x="30.5" y="-241.2" font-family="Helvetica,sans-Serif" font-size="11.00">description_fr</text>
<polygon fill="none" stroke="black" points="193.5,-233 193.5,-255 299.5,-255 299.5,-233 193.5,-233"/>
<text text-anchor="start" x="196.5" y="-241.2" font-family="Helvetica,sans-Serif" font-size="11.00">text[2147483647]</text>
<polygon fill="none" stroke="black" points="10.5,-211 10.5,-233 193.5,-233 193.5,-211 10.5,-211"/>
<text text-anchor="start" x="30.5" y="-219.2" font-family="Helvetica,sans-Serif" font-size="11.00">description_it</text>
<polygon fill="none" stroke="black" points="193.5,-211 193.5,-233 299.5,-233 299.5,-211 193.5,-211"/>
<text text-anchor="start" x="196.5" y="-219.2" font-family="Helvetica,sans-Serif" font-size="11.00">text[2147483647]</text>
<polygon fill="none" stroke="black" points="10.5,-189 10.5,-211 193.5,-211 193.5,-189 10.5,-189"/>
<text text-anchor="start" x="30.5" y="-197.2" font-family="Helvetica,sans-Serif" font-size="11.00">description_ro</text>
<polygon fill="none" stroke="black" points="193.5,-189 193.5,-211 299.5,-211 299.5,-189 193.5,-189"/>
<text text-anchor="start" x="196.5" y="-197.2" font-family="Helvetica,sans-Serif" font-size="11.00">text[2147483647]</text>
<polygon fill="none" stroke="black" points="10.5,-167 10.5,-189 193.5,-189 193.5,-167 10.5,-167"/>
<text text-anchor="start" x="30.5" y="-175.2" font-family="Helvetica,sans-Serif" font-size="11.00">display_en</text>
<polygon fill="none" stroke="black" points="193.5,-167 193.5,-189 299.5,-189 299.5,-167 193.5,-167"/>
<text text-anchor="start" x="196.5" y="-175.2" font-family="Helvetica,sans-Serif" font-size="11.00">varchar[100]</text>
<polygon fill="none" stroke="black" points="10.5,-145 10.5,-167 193.5,-167 193.5,-145 10.5,-145"/>
<text text-anchor="start" x="30.5" y="-153.2" font-family="Helvetica,sans-Serif" font-size="11.00">display_de</text>
<polygon fill="none" stroke="black" points="193.5,-145 193.5,-167 299.5,-167 299.5,-145 193.5,-145"/>
<text text-anchor="start" x="196.5" y="-153.2" font-family="Helvetica,sans-Serif" font-size="11.00">varchar[100]</text>
<polygon fill="none" stroke="black" points="10.5,-123 10.5,-145 193.5,-145 193.5,-123 10.5,-123"/>
<text text-anchor="start" x="30.5" y="-131.2" font-family="Helvetica,sans-Serif" font-size="11.00">display_fr</text>
<polygon fill="none" stroke="black" points="193.5,-123 193.5,-145 299.5,-145 299.5,-123 193.5,-123"/>
<text text-anchor="start" x="196.5" y="-131.2" font-family="Helvetica,sans-Serif" font-size="11.00">varchar[100]</text>
<polygon fill="none" stroke="black" points="10.5,-101 10.5,-123 193.5,-123 193.5,-101 10.5,-101"/>
<text text-anchor="start" x="30.5" y="-109.2" font-family="Helvetica,sans-Serif" font-size="11.00">display_it</text>
<polygon fill="none" stroke="black" points="193.5,-101 193.5,-123 299.5,-123 299.5,-101 193.5,-101"/>
<text text-anchor="start" x="196.5" y="-109.2" font-family="Helvetica,sans-Serif" font-size="11.00">varchar[100]</text>
<polygon fill="none" stroke="black" points="10.5,-79 10.5,-101 193.5,-101 193.5,-79 10.5,-79"/>
<text text-anchor="start" x="30.5" y="-87.2" font-family="Helvetica,sans-Serif" font-size="11.00">display_ro</text>
<polygon fill="none" stroke="black" points="193.5,-79 193.5,-101 299.5,-101 299.5,-79 193.5,-79"/>
<text text-anchor="start" x="196.5" y="-87.2" font-family="Helvetica,sans-Serif" font-size="11.00">varchar[100]</text>
<polygon fill="none" stroke="black" points="10.5,-57 10.5,-79 193.5,-79 193.5,-57 10.5,-57"/>
<text text-anchor="start" x="30.5" y="-65.2" font-family="Helvetica,sans-Serif" font-size="11.00">active</text>
<polygon fill="none" stroke="black" points="193.5,-57 193.5,-79 299.5,-79 299.5,-57 193.5,-57"/>
<text text-anchor="start" x="196.5" y="-65.2" font-family="Helvetica,sans-Serif" font-size="11.00">bool[1]</text>
<polygon fill="#ffffff" stroke="transparent" points="10.5,-39 10.5,-57 299.5,-57 299.5,-39 10.5,-39"/>
<polygon fill="none" stroke="black" points="10.5,-39 10.5,-57 299.5,-57 299.5,-39 10.5,-39"/>
<polygon fill="#ffffff" stroke="transparent" points="11.5,-40 11.5,-56 111.5,-56 111.5,-40 11.5,-40"/>
<text text-anchor="start" x="13.5" y="-45.2" font-family="Helvetica,sans-Serif" font-size="11.00">&lt; 0</text>
<polygon fill="#ffffff" stroke="transparent" points="111.5,-40 111.5,-56 199.5,-56 199.5,-40 111.5,-40"/>
<text text-anchor="start" x="151.5" y="-45.2" font-family="Helvetica,sans-Serif" font-size="11.00"> &#160;</text>
<polygon fill="#ffffff" stroke="transparent" points="199.5,-40 199.5,-56 298.5,-56 298.5,-40 199.5,-40"/>
<text text-anchor="start" x="276.5" y="-45.2" font-family="Helvetica,sans-Serif" font-size="11.00">1 &gt;</text>
<polygon fill="black" stroke="black" points="111.5,-40 111.5,-56 111.5,-56 111.5,-40 111.5,-40"/>
<polygon fill="black" stroke="black" points="199.5,-40 199.5,-56 199.5,-56 199.5,-40 199.5,-40"/>
<polygon fill="none" stroke="black" stroke-width="2" points="9,-38 9,-586 300,-586 300,-38 9,-38"/>
</a>
</g>
</g>
<!-- tdh_od.trench&#45;&gt;trench_cable_conduits -->
<g id="edge1" class="edge">
<title>tdh_od.trench:w&#45;&gt;trench_cable_conduits:e</title>
<path fill="none" stroke="black" d="M334.28,-552C323.29,-552 316.16,-552 300.5,-552"/>
<polygon fill="black" stroke="black" points="341,-552 349,-555.6 345,-552 349,-552 349,-552 349,-552 345,-552 349,-548.4 341,-552 341,-552"/>
<ellipse fill="none" stroke="black" cx="337.8" cy="-552" rx="3.2" ry="3.2"/>
</g>
</g>
</svg>
