<?xml version="1.0" encoding="UTF-8" standalone="no"?>
<!DOCTYPE svg PUBLIC "-//W3C//DTD SVG 1.1//EN"
 "http://www.w3.org/Graphics/SVG/1.1/DTD/svg11.dtd">
<!-- Generated by graphviz version 2.43.0 (0)
 -->
<!-- Title: oneDegreeRelationshipsDiagram Pages: 1 -->
<svg width="482pt" height="399pt"
 viewBox="0.00 0.00 482.00 399.00" xmlns="http://www.w3.org/2000/svg" xmlns:xlink="http://www.w3.org/1999/xlink">
<g id="graph0" class="graph" transform="scale(1 1) rotate(0) translate(4 395)">
<title>oneDegreeRelationshipsDiagram</title>
<polygon fill="#ffffff" stroke="transparent" points="-4,4 -4,-395 478,-395 478,4 -4,4"/>
<text text-anchor="middle" x="79.5" y="-7.2" font-family="Helvetica,sans-Serif" font-size="11.00">Generated by SchemaSpy</text>
<!-- tdh_od.trench -->
<g id="node1" class="node">
<title>tdh_od.trench</title>
<g id="a_node1"><a xlink:href="../../../tdh_od/tables/trench.html" xlink:title="tdh_od.trench" target="_top">
<polygon fill="#ffffff" stroke="transparent" points="260,-197 260,-387 466,-387 466,-197 260,-197"/>
<polygon fill="#f5f5f5" stroke="transparent" points="260,-365 260,-387 466,-387 466,-365 260,-365"/>
<polygon fill="none" stroke="black" points="260,-365 260,-387 466,-387 466,-365 260,-365"/>
<text text-anchor="start" x="265" y="-374.2" font-family="Helvetica,sans-Serif" font-weight="bold" font-size="11.00">tdh_od.trench</text>
<text text-anchor="start" x="424" y="-373.2" font-family="Helvetica,sans-Serif" font-size="11.00">[table]</text>
<polygon fill="none" stroke="black" points="260,-343 260,-365 466,-365 466,-343 260,-343"/>
<image xlink:href="../../images/foreignKeys.png" width="11px" height="12px" preserveAspectRatio="xMinYMin meet" x="265" y="-360"/>
<text text-anchor="start" x="280" y="-351.2" font-family="Helvetica,sans-Serif" font-size="11.00">horizontal_positioning</text>
<polygon fill="none" stroke="black" points="260,-321 260,-343 466,-343 466,-321 260,-321"/>
<image xlink:href="../../images/foreignKeys.png" width="11px" height="12px" preserveAspectRatio="xMinYMin meet" x="265" y="-338"/>
<text text-anchor="start" x="280" y="-329.2" font-family="Helvetica,sans-Serif" font-size="11.00">status</text>
<polygon fill="none" stroke="black" points="260,-299 260,-321 466,-321 466,-299 260,-299"/>
<image xlink:href="../../images/foreignKeys.png" width="11px" height="12px" preserveAspectRatio="xMinYMin meet" x="265" y="-316"/>
<text text-anchor="start" x="280" y="-307.2" font-family="Helvetica,sans-Serif" font-size="11.00">trench_type</text>
<polygon fill="none" stroke="black" points="260,-277 260,-299 466,-299 466,-277 260,-277"/>
<image xlink:href="../../images/foreignKeys.png" width="11px" height="12px" preserveAspectRatio="xMinYMin meet" x="265" y="-294"/>
<text text-anchor="start" x="280" y="-285.2" font-family="Helvetica,sans-Serif" font-size="11.00">embedding</text>
<polygon fill="none" stroke="black" points="260,-255 260,-277 466,-277 466,-255 260,-255"/>
<image xlink:href="../../images/foreignKeys.png" width="11px" height="12px" preserveAspectRatio="xMinYMin meet" x="265" y="-272"/>
<text text-anchor="start" x="280" y="-263.2" font-family="Helvetica,sans-Serif" font-size="11.00">control_system</text>
<polygon fill="none" stroke="black" points="260,-233 260,-255 466,-255 466,-233 260,-233"/>
<image xlink:href="../../images/foreignKeys.png" width="11px" height="12px" preserveAspectRatio="xMinYMin meet" x="265" y="-250"/>
<text text-anchor="start" x="280" y="-241.2" font-family="Helvetica,sans-Serif" font-size="11.00">cable_conduits</text>
<polygon fill="none" stroke="black" points="260,-215 260,-233 466,-233 466,-215 260,-215"/>
<text text-anchor="start" x="263" y="-221.2" font-family="Helvetica,sans-Serif" font-size="11.00">...</text>
<polygon fill="#ffffff" stroke="transparent" points="260,-197 260,-215 466,-215 466,-197 260,-197"/>
<polygon fill="none" stroke="black" points="260,-197 260,-215 466,-215 466,-197 260,-197"/>
<polygon fill="#ffffff" stroke="transparent" points="261,-198 261,-214 328,-214 328,-198 261,-198"/>
<text text-anchor="start" x="263" y="-203.2" font-family="Helvetica,sans-Serif" font-size="11.00">&lt; 6</text>
<polygon fill="#ffffff" stroke="transparent" points="328,-198 328,-214 411,-214 411,-198 328,-198"/>
<text text-anchor="start" x="351" y="-203.2" font-family="Helvetica,sans-Serif" font-size="11.00">0 rows</text>
<polygon fill="#ffffff" stroke="transparent" points="411,-198 411,-214 465,-214 465,-198 411,-198"/>
<text text-anchor="start" x="455" y="-203.2" font-family="Helvetica,sans-Serif" font-size="11.00"> &#160;</text>
<polygon fill="black" stroke="black" points="328,-198 328,-214 328,-214 328,-198 328,-198"/>
<polygon fill="black" stroke="black" points="411,-198 411,-214 411,-214 411,-198 411,-198"/>
</a>
</g>
</g>
<!-- trench_status -->
<g id="node2" class="node">
<title>trench_status</title>
<g id="a_node2"><a xlink:href="../../tables/trench_status.html" xlink:title="trench_status" target="_top">
<polygon fill="#ffffff" stroke="transparent" points="8,-37 8,-367 211,-367 211,-37 8,-37"/>
<polygon fill="#f5f5f5" stroke="transparent" points="10.5,-343 10.5,-365 209.5,-365 209.5,-343 10.5,-343"/>
<polygon fill="none" stroke="black" points="10.5,-343 10.5,-365 209.5,-365 209.5,-343 10.5,-343"/>
<text text-anchor="start" x="15.5" y="-352.2" font-family="Helvetica,sans-Serif" font-weight="bold" font-size="11.00">trench_status</text>
<text text-anchor="start" x="167.5" y="-351.2" font-family="Helvetica,sans-Serif" font-size="11.00">[table]</text>
<polygon fill="none" stroke="black" points="10.5,-321 10.5,-343 131.5,-343 131.5,-321 10.5,-321"/>
<image xlink:href="../../images/primaryKeys.png" width="11px" height="12px" preserveAspectRatio="xMinYMin meet" x="15.5" y="-338"/>
<text text-anchor="start" x="30.5" y="-329.2" font-family="Helvetica,sans-Serif" font-size="11.00">code</text>
<polygon fill="none" stroke="black" points="131.5,-321 131.5,-343 209.5,-343 209.5,-321 131.5,-321"/>
<text text-anchor="start" x="134.5" y="-329.2" font-family="Helvetica,sans-Serif" font-size="11.00">int4[10]</text>
<polygon fill="none" stroke="black" points="10.5,-299 10.5,-321 131.5,-321 131.5,-299 10.5,-299"/>
<text text-anchor="start" x="30.5" y="-307.2" font-family="Helvetica,sans-Serif" font-size="11.00">vsacode</text>
<polygon fill="none" stroke="black" points="131.5,-299 131.5,-321 209.5,-321 209.5,-299 131.5,-299"/>
<text text-anchor="start" x="134.5" y="-307.2" font-family="Helvetica,sans-Serif" font-size="11.00">int4[10]</text>
<polygon fill="none" stroke="black" points="10.5,-277 10.5,-299 131.5,-299 131.5,-277 10.5,-277"/>
<text text-anchor="start" x="30.5" y="-285.2" font-family="Helvetica,sans-Serif" font-size="11.00">value_en</text>
<polygon fill="none" stroke="black" points="131.5,-277 131.5,-299 209.5,-299 209.5,-277 131.5,-277"/>
<text text-anchor="start" x="134.5" y="-285.2" font-family="Helvetica,sans-Serif" font-size="11.00">varchar[100]</text>
<polygon fill="none" stroke="black" points="10.5,-255 10.5,-277 131.5,-277 131.5,-255 10.5,-255"/>
<text text-anchor="start" x="30.5" y="-263.2" font-family="Helvetica,sans-Serif" font-size="11.00">value_de</text>
<polygon fill="none" stroke="black" points="131.5,-255 131.5,-277 209.5,-277 209.5,-255 131.5,-255"/>
<text text-anchor="start" x="134.5" y="-263.2" font-family="Helvetica,sans-Serif" font-size="11.00">varchar[100]</text>
<polygon fill="none" stroke="black" points="10.5,-233 10.5,-255 131.5,-255 131.5,-233 10.5,-233"/>
<text text-anchor="start" x="30.5" y="-241.2" font-family="Helvetica,sans-Serif" font-size="11.00">value_fr</text>
<polygon fill="none" stroke="black" points="131.5,-233 131.5,-255 209.5,-255 209.5,-233 131.5,-233"/>
<text text-anchor="start" x="134.5" y="-241.2" font-family="Helvetica,sans-Serif" font-size="11.00">varchar[100]</text>
<polygon fill="none" stroke="black" points="10.5,-211 10.5,-233 131.5,-233 131.5,-211 10.5,-211"/>
<text text-anchor="start" x="30.5" y="-219.2" font-family="Helvetica,sans-Serif" font-size="11.00">value_it</text>
<polygon fill="none" stroke="black" points="131.5,-211 131.5,-233 209.5,-233 209.5,-211 131.5,-211"/>
<text text-anchor="start" x="134.5" y="-219.2" font-family="Helvetica,sans-Serif" font-size="11.00">varchar[100]</text>
<polygon fill="none" stroke="black" points="10.5,-189 10.5,-211 131.5,-211 131.5,-189 10.5,-189"/>
<text text-anchor="start" x="30.5" y="-197.2" font-family="Helvetica,sans-Serif" font-size="11.00">value_ro</text>
<polygon fill="none" stroke="black" points="131.5,-189 131.5,-211 209.5,-211 209.5,-189 131.5,-189"/>
<text text-anchor="start" x="134.5" y="-197.2" font-family="Helvetica,sans-Serif" font-size="11.00">varchar[100]</text>
<polygon fill="none" stroke="black" points="10.5,-167 10.5,-189 131.5,-189 131.5,-167 10.5,-167"/>
<text text-anchor="start" x="30.5" y="-175.2" font-family="Helvetica,sans-Serif" font-size="11.00">abbr_en</text>
<polygon fill="none" stroke="black" points="131.5,-167 131.5,-189 209.5,-189 209.5,-167 131.5,-167"/>
<text text-anchor="start" x="134.5" y="-175.2" font-family="Helvetica,sans-Serif" font-size="11.00">varchar[3]</text>
<polygon fill="none" stroke="black" points="10.5,-145 10.5,-167 131.5,-167 131.5,-145 10.5,-145"/>
<text text-anchor="start" x="30.5" y="-153.2" font-family="Helvetica,sans-Serif" font-size="11.00">abbr_de</text>
<polygon fill="none" stroke="black" points="131.5,-145 131.5,-167 209.5,-167 209.5,-145 131.5,-145"/>
<text text-anchor="start" x="134.5" y="-153.2" font-family="Helvetica,sans-Serif" font-size="11.00">varchar[3]</text>
<polygon fill="none" stroke="black" points="10.5,-123 10.5,-145 131.5,-145 131.5,-123 10.5,-123"/>
<text text-anchor="start" x="30.5" y="-131.2" font-family="Helvetica,sans-Serif" font-size="11.00">abbr_fr</text>
<polygon fill="none" stroke="black" points="131.5,-123 131.5,-145 209.5,-145 209.5,-123 131.5,-123"/>
<text text-anchor="start" x="134.5" y="-131.2" font-family="Helvetica,sans-Serif" font-size="11.00">varchar[3]</text>
<polygon fill="none" stroke="black" points="10.5,-101 10.5,-123 131.5,-123 131.5,-101 10.5,-101"/>
<text text-anchor="start" x="30.5" y="-109.2" font-family="Helvetica,sans-Serif" font-size="11.00">abbr_it</text>
<polygon fill="none" stroke="black" points="131.5,-101 131.5,-123 209.5,-123 209.5,-101 131.5,-101"/>
<text text-anchor="start" x="134.5" y="-109.2" font-family="Helvetica,sans-Serif" font-size="11.00">varchar[3]</text>
<polygon fill="none" stroke="black" points="10.5,-79 10.5,-101 131.5,-101 131.5,-79 10.5,-79"/>
<text text-anchor="start" x="30.5" y="-87.2" font-family="Helvetica,sans-Serif" font-size="11.00">abbr_ro</text>
<polygon fill="none" stroke="black" points="131.5,-79 131.5,-101 209.5,-101 209.5,-79 131.5,-79"/>
<text text-anchor="start" x="134.5" y="-87.2" font-family="Helvetica,sans-Serif" font-size="11.00">varchar[3]</text>
<polygon fill="none" stroke="black" points="10.5,-57 10.5,-79 131.5,-79 131.5,-57 10.5,-57"/>
<text text-anchor="start" x="30.5" y="-65.2" font-family="Helvetica,sans-Serif" font-size="11.00">active</text>
<polygon fill="none" stroke="black" points="131.5,-57 131.5,-79 209.5,-79 209.5,-57 131.5,-57"/>
<text text-anchor="start" x="134.5" y="-65.2" font-family="Helvetica,sans-Serif" font-size="11.00">bool[1]</text>
<polygon fill="#ffffff" stroke="transparent" points="10.5,-39 10.5,-57 209.5,-57 209.5,-39 10.5,-39"/>
<polygon fill="none" stroke="black" points="10.5,-39 10.5,-57 209.5,-57 209.5,-39 10.5,-39"/>
<polygon fill="#ffffff" stroke="transparent" points="11.5,-40 11.5,-56 81.5,-56 81.5,-40 11.5,-40"/>
<text text-anchor="start" x="13.5" y="-45.2" font-family="Helvetica,sans-Serif" font-size="11.00">&lt; 0</text>
<polygon fill="#ffffff" stroke="transparent" points="81.5,-40 81.5,-56 139.5,-56 139.5,-40 81.5,-40"/>
<text text-anchor="start" x="106.5" y="-45.2" font-family="Helvetica,sans-Serif" font-size="11.00"> &#160;</text>
<polygon fill="#ffffff" stroke="transparent" points="139.5,-40 139.5,-56 208.5,-56 208.5,-40 139.5,-40"/>
<text text-anchor="start" x="186.5" y="-45.2" font-family="Helvetica,sans-Serif" font-size="11.00">1 &gt;</text>
<polygon fill="black" stroke="black" points="81.5,-40 81.5,-56 81.5,-56 81.5,-40 81.5,-40"/>
<polygon fill="black" stroke="black" points="139.5,-40 139.5,-56 139.5,-56 139.5,-40 139.5,-40"/>
<polygon fill="none" stroke="black" stroke-width="2" points="9,-38 9,-366 210,-366 210,-38 9,-38"/>
</a>
</g>
</g>
<!-- tdh_od.trench&#45;&gt;trench_status -->
<g id="edge1" class="edge">
<title>tdh_od.trench:w&#45;&gt;trench_status:e</title>
<path fill="none" stroke="black" d="M244.28,-332C233.29,-332 226.16,-332 210.5,-332"/>
<polygon fill="black" stroke="black" points="251,-332 259,-335.6 255,-332 259,-332 259,-332 259,-332 255,-332 259,-328.4 251,-332 251,-332"/>
<ellipse fill="none" stroke="black" cx="247.8" cy="-332" rx="3.2" ry="3.2"/>
</g>
</g>
</svg>
