<?xml version="1.0" encoding="UTF-8" standalone="no"?>
<!DOCTYPE svg PUBLIC "-//W3C//DTD SVG 1.1//EN"
 "http://www.w3.org/Graphics/SVG/1.1/DTD/svg11.dtd">
<!-- Generated by graphviz version 2.43.0 (0)
 -->
<!-- Title: oneDegreeRelationshipsDiagram Pages: 1 -->
<svg width="667pt" height="599pt"
 viewBox="0.00 0.00 667.00 599.00" xmlns="http://www.w3.org/2000/svg" xmlns:xlink="http://www.w3.org/1999/xlink">
<g id="graph0" class="graph" transform="scale(1 1) rotate(0) translate(4 595)">
<title>oneDegreeRelationshipsDiagram</title>
<polygon fill="#ffffff" stroke="transparent" points="-4,4 -4,-595 663,-595 663,4 -4,4"/>
<text text-anchor="middle" x="79.5" y="-7.2" font-family="Helvetica,sans-Serif" font-size="11.00">Generated by SchemaSpy</text>
<!-- tdh_od.trench_point -->
<g id="node1" class="node">
<title>tdh_od.trench_point</title>
<g id="a_node1"><a xlink:href="../../../tdh_od/tables/trench_point.html" xlink:title="tdh_od.trench_point" target="_top">
<polygon fill="#ffffff" stroke="transparent" points="449,-461 449,-585 651,-585 651,-461 449,-461"/>
<polygon fill="#f5f5f5" stroke="transparent" points="449,-563 449,-585 651,-585 651,-563 449,-563"/>
<polygon fill="none" stroke="black" points="449,-563 449,-585 651,-585 651,-563 449,-563"/>
<text text-anchor="start" x="454" y="-572.2" font-family="Helvetica,sans-Serif" font-weight="bold" font-size="11.00">tdh_od.trench_point</text>
<text text-anchor="start" x="609" y="-571.2" font-family="Helvetica,sans-Serif" font-size="11.00">[table]</text>
<polygon fill="none" stroke="black" points="449,-541 449,-563 651,-563 651,-541 449,-541"/>
<image xlink:href="../../images/foreignKeys.png" width="11px" height="12px" preserveAspectRatio="xMinYMin meet" x="454" y="-558"/>
<text text-anchor="start" x="469" y="-549.2" font-family="Helvetica,sans-Serif" font-size="11.00">horizontal_positioning</text>
<polygon fill="none" stroke="black" points="449,-519 449,-541 651,-541 651,-519 449,-519"/>
<image xlink:href="../../images/foreignKeys.png" width="11px" height="12px" preserveAspectRatio="xMinYMin meet" x="454" y="-536"/>
<text text-anchor="start" x="469" y="-527.2" font-family="Helvetica,sans-Serif" font-size="11.00">kind</text>
<polygon fill="none" stroke="black" points="449,-497 449,-519 651,-519 651,-497 449,-497"/>
<image xlink:href="../../images/foreignKeys.png" width="11px" height="12px" preserveAspectRatio="xMinYMin meet" x="454" y="-514"/>
<text text-anchor="start" x="469" y="-505.2" font-family="Helvetica,sans-Serif" font-size="11.00">elevation_determination</text>
<polygon fill="none" stroke="black" points="449,-479 449,-497 651,-497 651,-479 449,-479"/>
<text text-anchor="start" x="452" y="-485.2" font-family="Helvetica,sans-Serif" font-size="11.00">...</text>
<polygon fill="#ffffff" stroke="transparent" points="449,-461 449,-479 651,-479 651,-461 449,-461"/>
<polygon fill="none" stroke="black" points="449,-461 449,-479 651,-479 651,-461 449,-461"/>
<polygon fill="#ffffff" stroke="transparent" points="450,-462 450,-478 515,-478 515,-462 450,-462"/>
<text text-anchor="start" x="452" y="-467.2" font-family="Helvetica,sans-Serif" font-size="11.00">&lt; 3</text>
<polygon fill="#ffffff" stroke="transparent" points="515,-462 515,-478 597,-478 597,-462 515,-462"/>
<text text-anchor="start" x="537.5" y="-467.2" font-family="Helvetica,sans-Serif" font-size="11.00">0 rows</text>
<polygon fill="#ffffff" stroke="transparent" points="597,-462 597,-478 650,-478 650,-462 597,-462"/>
<text text-anchor="start" x="640" y="-467.2" font-family="Helvetica,sans-Serif" font-size="11.00"> &#160;</text>
<polygon fill="black" stroke="black" points="515,-462 515,-478 515,-478 515,-462 515,-462"/>
<polygon fill="black" stroke="black" points="597,-462 597,-478 597,-478 597,-462 597,-462"/>
</a>
</g>
</g>
<!-- trench_point_horizontal_positioning -->
<g id="node2" class="node">
<title>trench_point_horizontal_positioning</title>
<g id="a_node2"><a xlink:href="../../tables/trench_point_horizontal_positioning.html" xlink:title="trench_point_horizontal_positioning" target="_top">
<polygon fill="#ffffff" stroke="transparent" points="8,-37 8,-587 400,-587 400,-37 8,-37"/>
<polygon fill="#f5f5f5" stroke="transparent" points="10,-563 10,-585 398,-585 398,-563 10,-563"/>
<polygon fill="none" stroke="black" points="10,-563 10,-585 398,-585 398,-563 10,-563"/>
<text text-anchor="start" x="15" y="-572.2" font-family="Helvetica,sans-Serif" font-weight="bold" font-size="11.00">trench_point_horizontal_positioning</text>
<text text-anchor="start" x="356" y="-571.2" font-family="Helvetica,sans-Serif" font-size="11.00">[table]</text>
<polygon fill="none" stroke="black" points="10,-541 10,-563 292,-563 292,-541 10,-541"/>
<image xlink:href="../../images/primaryKeys.png" width="11px" height="12px" preserveAspectRatio="xMinYMin meet" x="15" y="-558"/>
<text text-anchor="start" x="30" y="-549.2" font-family="Helvetica,sans-Serif" font-size="11.00">code</text>
<polygon fill="none" stroke="black" points="292,-541 292,-563 398,-563 398,-541 292,-541"/>
<text text-anchor="start" x="295" y="-549.2" font-family="Helvetica,sans-Serif" font-size="11.00">int4[10]</text>
<polygon fill="none" stroke="black" points="10,-519 10,-541 292,-541 292,-519 10,-519"/>
<text text-anchor="start" x="30" y="-527.2" font-family="Helvetica,sans-Serif" font-size="11.00">vsacode</text>
<polygon fill="none" stroke="black" points="292,-519 292,-541 398,-541 398,-519 292,-519"/>
<text text-anchor="start" x="295" y="-527.2" font-family="Helvetica,sans-Serif" font-size="11.00">int4[10]</text>
<polygon fill="none" stroke="black" points="10,-497 10,-519 292,-519 292,-497 10,-497"/>
<text text-anchor="start" x="30" y="-505.2" font-family="Helvetica,sans-Serif" font-size="11.00">value_en</text>
<polygon fill="none" stroke="black" points="292,-497 292,-519 398,-519 398,-497 292,-497"/>
<text text-anchor="start" x="295" y="-505.2" font-family="Helvetica,sans-Serif" font-size="11.00">varchar[100]</text>
<polygon fill="none" stroke="black" points="10,-475 10,-497 292,-497 292,-475 10,-475"/>
<text text-anchor="start" x="30" y="-483.2" font-family="Helvetica,sans-Serif" font-size="11.00">value_de</text>
<polygon fill="none" stroke="black" points="292,-475 292,-497 398,-497 398,-475 292,-475"/>
<text text-anchor="start" x="295" y="-483.2" font-family="Helvetica,sans-Serif" font-size="11.00">varchar[100]</text>
<polygon fill="none" stroke="black" points="10,-453 10,-475 292,-475 292,-453 10,-453"/>
<text text-anchor="start" x="30" y="-461.2" font-family="Helvetica,sans-Serif" font-size="11.00">value_fr</text>
<polygon fill="none" stroke="black" points="292,-453 292,-475 398,-475 398,-453 292,-453"/>
<text text-anchor="start" x="295" y="-461.2" font-family="Helvetica,sans-Serif" font-size="11.00">varchar[100]</text>
<polygon fill="none" stroke="black" points="10,-431 10,-453 292,-453 292,-431 10,-431"/>
<text text-anchor="start" x="30" y="-439.2" font-family="Helvetica,sans-Serif" font-size="11.00">value_it</text>
<polygon fill="none" stroke="black" points="292,-431 292,-453 398,-453 398,-431 292,-431"/>
<text text-anchor="start" x="295" y="-439.2" font-family="Helvetica,sans-Serif" font-size="11.00">varchar[100]</text>
<polygon fill="none" stroke="black" points="10,-409 10,-431 292,-431 292,-409 10,-409"/>
<text text-anchor="start" x="30" y="-417.2" font-family="Helvetica,sans-Serif" font-size="11.00">value_ro</text>
<polygon fill="none" stroke="black" points="292,-409 292,-431 398,-431 398,-409 292,-409"/>
<text text-anchor="start" x="295" y="-417.2" font-family="Helvetica,sans-Serif" font-size="11.00">varchar[100]</text>
<polygon fill="none" stroke="black" points="10,-387 10,-409 292,-409 292,-387 10,-387"/>
<text text-anchor="start" x="30" y="-395.2" font-family="Helvetica,sans-Serif" font-size="11.00">abbr_en</text>
<polygon fill="none" stroke="black" points="292,-387 292,-409 398,-409 398,-387 292,-387"/>
<text text-anchor="start" x="295" y="-395.2" font-family="Helvetica,sans-Serif" font-size="11.00">varchar[3]</text>
<polygon fill="none" stroke="black" points="10,-365 10,-387 292,-387 292,-365 10,-365"/>
<text text-anchor="start" x="30" y="-373.2" font-family="Helvetica,sans-Serif" font-size="11.00">abbr_de</text>
<polygon fill="none" stroke="black" points="292,-365 292,-387 398,-387 398,-365 292,-365"/>
<text text-anchor="start" x="295" y="-373.2" font-family="Helvetica,sans-Serif" font-size="11.00">varchar[3]</text>
<polygon fill="none" stroke="black" points="10,-343 10,-365 292,-365 292,-343 10,-343"/>
<text text-anchor="start" x="30" y="-351.2" font-family="Helvetica,sans-Serif" font-size="11.00">abbr_fr</text>
<polygon fill="none" stroke="black" points="292,-343 292,-365 398,-365 398,-343 292,-343"/>
<text text-anchor="start" x="295" y="-351.2" font-family="Helvetica,sans-Serif" font-size="11.00">varchar[3]</text>
<polygon fill="none" stroke="black" points="10,-321 10,-343 292,-343 292,-321 10,-321"/>
<text text-anchor="start" x="30" y="-329.2" font-family="Helvetica,sans-Serif" font-size="11.00">abbr_it</text>
<polygon fill="none" stroke="black" points="292,-321 292,-343 398,-343 398,-321 292,-321"/>
<text text-anchor="start" x="295" y="-329.2" font-family="Helvetica,sans-Serif" font-size="11.00">varchar[3]</text>
<polygon fill="none" stroke="black" points="10,-299 10,-321 292,-321 292,-299 10,-299"/>
<text text-anchor="start" x="30" y="-307.2" font-family="Helvetica,sans-Serif" font-size="11.00">abbr_ro</text>
<polygon fill="none" stroke="black" points="292,-299 292,-321 398,-321 398,-299 292,-299"/>
<text text-anchor="start" x="295" y="-307.2" font-family="Helvetica,sans-Serif" font-size="11.00">varchar[3]</text>
<polygon fill="none" stroke="black" points="10,-277 10,-299 292,-299 292,-277 10,-277"/>
<text text-anchor="start" x="30" y="-285.2" font-family="Helvetica,sans-Serif" font-size="11.00">description_en</text>
<polygon fill="none" stroke="black" points="292,-277 292,-299 398,-299 398,-277 292,-277"/>
<text text-anchor="start" x="295" y="-285.2" font-family="Helvetica,sans-Serif" font-size="11.00">text[2147483647]</text>
<polygon fill="none" stroke="black" points="10,-255 10,-277 292,-277 292,-255 10,-255"/>
<text text-anchor="start" x="30" y="-263.2" font-family="Helvetica,sans-Serif" font-size="11.00">description_de</text>
<polygon fill="none" stroke="black" points="292,-255 292,-277 398,-277 398,-255 292,-255"/>
<text text-anchor="start" x="295" y="-263.2" font-family="Helvetica,sans-Serif" font-size="11.00">text[2147483647]</text>
<polygon fill="none" stroke="black" points="10,-233 10,-255 292,-255 292,-233 10,-233"/>
<text text-anchor="start" x="30" y="-241.2" font-family="Helvetica,sans-Serif" font-size="11.00">description_fr</text>
<polygon fill="none" stroke="black" points="292,-233 292,-255 398,-255 398,-233 292,-233"/>
<text text-anchor="start" x="295" y="-241.2" font-family="Helvetica,sans-Serif" font-size="11.00">text[2147483647]</text>
<polygon fill="none" stroke="black" points="10,-211 10,-233 292,-233 292,-211 10,-211"/>
<text text-anchor="start" x="30" y="-219.2" font-family="Helvetica,sans-Serif" font-size="11.00">description_it</text>
<polygon fill="none" stroke="black" points="292,-211 292,-233 398,-233 398,-211 292,-211"/>
<text text-anchor="start" x="295" y="-219.2" font-family="Helvetica,sans-Serif" font-size="11.00">text[2147483647]</text>
<polygon fill="none" stroke="black" points="10,-189 10,-211 292,-211 292,-189 10,-189"/>
<text text-anchor="start" x="30" y="-197.2" font-family="Helvetica,sans-Serif" font-size="11.00">description_ro</text>
<polygon fill="none" stroke="black" points="292,-189 292,-211 398,-211 398,-189 292,-189"/>
<text text-anchor="start" x="295" y="-197.2" font-family="Helvetica,sans-Serif" font-size="11.00">text[2147483647]</text>
<polygon fill="none" stroke="black" points="10,-167 10,-189 292,-189 292,-167 10,-167"/>
<text text-anchor="start" x="30" y="-175.2" font-family="Helvetica,sans-Serif" font-size="11.00">display_en</text>
<polygon fill="none" stroke="black" points="292,-167 292,-189 398,-189 398,-167 292,-167"/>
<text text-anchor="start" x="295" y="-175.2" font-family="Helvetica,sans-Serif" font-size="11.00">varchar[100]</text>
<polygon fill="none" stroke="black" points="10,-145 10,-167 292,-167 292,-145 10,-145"/>
<text text-anchor="start" x="30" y="-153.2" font-family="Helvetica,sans-Serif" font-size="11.00">display_de</text>
<polygon fill="none" stroke="black" points="292,-145 292,-167 398,-167 398,-145 292,-145"/>
<text text-anchor="start" x="295" y="-153.2" font-family="Helvetica,sans-Serif" font-size="11.00">varchar[100]</text>
<polygon fill="none" stroke="black" points="10,-123 10,-145 292,-145 292,-123 10,-123"/>
<text text-anchor="start" x="30" y="-131.2" font-family="Helvetica,sans-Serif" font-size="11.00">display_fr</text>
<polygon fill="none" stroke="black" points="292,-123 292,-145 398,-145 398,-123 292,-123"/>
<text text-anchor="start" x="295" y="-131.2" font-family="Helvetica,sans-Serif" font-size="11.00">varchar[100]</text>
<polygon fill="none" stroke="black" points="10,-101 10,-123 292,-123 292,-101 10,-101"/>
<text text-anchor="start" x="30" y="-109.2" font-family="Helvetica,sans-Serif" font-size="11.00">display_it</text>
<polygon fill="none" stroke="black" points="292,-101 292,-123 398,-123 398,-101 292,-101"/>
<text text-anchor="start" x="295" y="-109.2" font-family="Helvetica,sans-Serif" font-size="11.00">varchar[100]</text>
<polygon fill="none" stroke="black" points="10,-79 10,-101 292,-101 292,-79 10,-79"/>
<text text-anchor="start" x="30" y="-87.2" font-family="Helvetica,sans-Serif" font-size="11.00">display_ro</text>
<polygon fill="none" stroke="black" points="292,-79 292,-101 398,-101 398,-79 292,-79"/>
<text text-anchor="start" x="295" y="-87.2" font-family="Helvetica,sans-Serif" font-size="11.00">varchar[100]</text>
<polygon fill="none" stroke="black" points="10,-57 10,-79 292,-79 292,-57 10,-57"/>
<text text-anchor="start" x="30" y="-65.2" font-family="Helvetica,sans-Serif" font-size="11.00">active</text>
<polygon fill="none" stroke="black" points="292,-57 292,-79 398,-79 398,-57 292,-57"/>
<text text-anchor="start" x="295" y="-65.2" font-family="Helvetica,sans-Serif" font-size="11.00">bool[1]</text>
<polygon fill="#ffffff" stroke="transparent" points="10,-39 10,-57 398,-57 398,-39 10,-39"/>
<polygon fill="none" stroke="black" points="10,-39 10,-57 398,-57 398,-39 10,-39"/>
<polygon fill="#ffffff" stroke="transparent" points="11,-40 11,-56 144,-56 144,-40 11,-40"/>
<text text-anchor="start" x="13" y="-45.2" font-family="Helvetica,sans-Serif" font-size="11.00">&lt; 0</text>
<polygon fill="#ffffff" stroke="transparent" points="144,-40 144,-56 265,-56 265,-40 144,-40"/>
<text text-anchor="start" x="200.5" y="-45.2" font-family="Helvetica,sans-Serif" font-size="11.00"> &#160;</text>
<polygon fill="#ffffff" stroke="transparent" points="265,-40 265,-56 397,-56 397,-40 265,-40"/>
<text text-anchor="start" x="375" y="-45.2" font-family="Helvetica,sans-Serif" font-size="11.00">1 &gt;</text>
<polygon fill="black" stroke="black" points="144,-40 144,-56 144,-56 144,-40 144,-40"/>
<polygon fill="black" stroke="black" points="265,-40 265,-56 265,-56 265,-40 265,-40"/>
<polygon fill="none" stroke="black" stroke-width="2" points="9,-38 9,-586 399,-586 399,-38 9,-38"/>
</a>
</g>
</g>
<!-- tdh_od.trench_point&#45;&gt;trench_point_horizontal_positioning -->
<g id="edge1" class="edge">
<title>tdh_od.trench_point:w&#45;&gt;trench_point_horizontal_positioning:e</title>
<path fill="none" stroke="black" d="M433.49,-552C422.18,-552 414.99,-552 399,-552"/>
<polygon fill="black" stroke="black" points="440,-552 448,-555.6 444,-552 448,-552 448,-552 448,-552 444,-552 448,-548.4 440,-552 440,-552"/>
<ellipse fill="none" stroke="black" cx="436.8" cy="-552" rx="3.2" ry="3.2"/>
</g>
</g>
</svg>
