<?xml version="1.0" encoding="UTF-8" standalone="no"?>
<!DOCTYPE svg PUBLIC "-//W3C//DTD SVG 1.1//EN"
 "http://www.w3.org/Graphics/SVG/1.1/DTD/svg11.dtd">
<!-- Generated by graphviz version 2.43.0 (0)
 -->
<!-- Title: oneDegreeRelationshipsDiagram Pages: 1 -->
<svg width="551pt" height="641pt"
 viewBox="0.00 0.00 551.00 641.00" xmlns="http://www.w3.org/2000/svg" xmlns:xlink="http://www.w3.org/1999/xlink">
<g id="graph0" class="graph" transform="scale(1 1) rotate(0) translate(4 637)">
<title>oneDegreeRelationshipsDiagram</title>
<polygon fill="#ffffff" stroke="transparent" points="-4,4 -4,-637 547,-637 547,4 -4,4"/>
<text text-anchor="middle" x="79.5" y="-7.2" font-family="Helvetica,sans-Serif" font-size="11.00">Generated by SchemaSpy</text>
<!-- tdh_od.trench -->
<g id="node1" class="node">
<title>tdh_od.trench</title>
<g id="a_node1"><a xlink:href="../../../tdh_od/tables/trench.html" xlink:title="tdh_od.trench" target="_top">
<polygon fill="#ffffff" stroke="transparent" points="329,-439 329,-629 535,-629 535,-439 329,-439"/>
<polygon fill="#f5f5f5" stroke="transparent" points="329,-607 329,-629 535,-629 535,-607 329,-607"/>
<polygon fill="none" stroke="black" points="329,-607 329,-629 535,-629 535,-607 329,-607"/>
<text text-anchor="start" x="334" y="-616.2" font-family="Helvetica,sans-Serif" font-weight="bold" font-size="11.00">tdh_od.trench</text>
<text text-anchor="start" x="493" y="-615.2" font-family="Helvetica,sans-Serif" font-size="11.00">[table]</text>
<polygon fill="none" stroke="black" points="329,-585 329,-607 535,-607 535,-585 329,-585"/>
<image xlink:href="../../images/foreignKeys.png" width="11px" height="12px" preserveAspectRatio="xMinYMin meet" x="334" y="-602"/>
<text text-anchor="start" x="349" y="-593.2" font-family="Helvetica,sans-Serif" font-size="11.00">horizontal_positioning</text>
<polygon fill="none" stroke="black" points="329,-563 329,-585 535,-585 535,-563 329,-563"/>
<image xlink:href="../../images/foreignKeys.png" width="11px" height="12px" preserveAspectRatio="xMinYMin meet" x="334" y="-580"/>
<text text-anchor="start" x="349" y="-571.2" font-family="Helvetica,sans-Serif" font-size="11.00">status</text>
<polygon fill="none" stroke="black" points="329,-541 329,-563 535,-563 535,-541 329,-541"/>
<image xlink:href="../../images/foreignKeys.png" width="11px" height="12px" preserveAspectRatio="xMinYMin meet" x="334" y="-558"/>
<text text-anchor="start" x="349" y="-549.2" font-family="Helvetica,sans-Serif" font-size="11.00">trench_type</text>
<polygon fill="none" stroke="black" points="329,-519 329,-541 535,-541 535,-519 329,-519"/>
<image xlink:href="../../images/foreignKeys.png" width="11px" height="12px" preserveAspectRatio="xMinYMin meet" x="334" y="-536"/>
<text text-anchor="start" x="349" y="-527.2" font-family="Helvetica,sans-Serif" font-size="11.00">embedding</text>
<polygon fill="none" stroke="black" points="329,-497 329,-519 535,-519 535,-497 329,-497"/>
<image xlink:href="../../images/foreignKeys.png" width="11px" height="12px" preserveAspectRatio="xMinYMin meet" x="334" y="-514"/>
<text text-anchor="start" x="349" y="-505.2" font-family="Helvetica,sans-Serif" font-size="11.00">control_system</text>
<polygon fill="none" stroke="black" points="329,-475 329,-497 535,-497 535,-475 329,-475"/>
<image xlink:href="../../images/foreignKeys.png" width="11px" height="12px" preserveAspectRatio="xMinYMin meet" x="334" y="-492"/>
<text text-anchor="start" x="349" y="-483.2" font-family="Helvetica,sans-Serif" font-size="11.00">cable_conduits</text>
<polygon fill="none" stroke="black" points="329,-457 329,-475 535,-475 535,-457 329,-457"/>
<text text-anchor="start" x="332" y="-463.2" font-family="Helvetica,sans-Serif" font-size="11.00">...</text>
<polygon fill="#ffffff" stroke="transparent" points="329,-439 329,-457 535,-457 535,-439 329,-439"/>
<polygon fill="none" stroke="black" points="329,-439 329,-457 535,-457 535,-439 329,-439"/>
<polygon fill="#ffffff" stroke="transparent" points="330,-440 330,-456 397,-456 397,-440 330,-440"/>
<text text-anchor="start" x="332" y="-445.2" font-family="Helvetica,sans-Serif" font-size="11.00">&lt; 6</text>
<polygon fill="#ffffff" stroke="transparent" points="397,-440 397,-456 480,-456 480,-440 397,-440"/>
<text text-anchor="start" x="420" y="-445.2" font-family="Helvetica,sans-Serif" font-size="11.00">0 rows</text>
<polygon fill="#ffffff" stroke="transparent" points="480,-440 480,-456 534,-456 534,-440 480,-440"/>
<text text-anchor="start" x="524" y="-445.2" font-family="Helvetica,sans-Serif" font-size="11.00"> &#160;</text>
<polygon fill="black" stroke="black" points="397,-440 397,-456 397,-456 397,-440 397,-440"/>
<polygon fill="black" stroke="black" points="480,-440 480,-456 480,-456 480,-440 480,-440"/>
</a>
</g>
</g>
<!-- trench_trench_type -->
<g id="node2" class="node">
<title>trench_trench_type</title>
<g id="a_node2"><a xlink:href="../../tables/trench_trench_type.html" xlink:title="trench_trench_type" target="_top">
<polygon fill="#ffffff" stroke="transparent" points="8,-37 8,-587 280,-587 280,-37 8,-37"/>
<polygon fill="#f5f5f5" stroke="transparent" points="10,-563 10,-585 278,-585 278,-563 10,-563"/>
<polygon fill="none" stroke="black" points="10,-563 10,-585 278,-585 278,-563 10,-563"/>
<text text-anchor="start" x="15" y="-572.2" font-family="Helvetica,sans-Serif" font-weight="bold" font-size="11.00">trench_trench_type</text>
<text text-anchor="start" x="236" y="-571.2" font-family="Helvetica,sans-Serif" font-size="11.00">[table]</text>
<polygon fill="none" stroke="black" points="10,-541 10,-563 172,-563 172,-541 10,-541"/>
<image xlink:href="../../images/primaryKeys.png" width="11px" height="12px" preserveAspectRatio="xMinYMin meet" x="15" y="-558"/>
<text text-anchor="start" x="30" y="-549.2" font-family="Helvetica,sans-Serif" font-size="11.00">code</text>
<polygon fill="none" stroke="black" points="172,-541 172,-563 278,-563 278,-541 172,-541"/>
<text text-anchor="start" x="175" y="-549.2" font-family="Helvetica,sans-Serif" font-size="11.00">int4[10]</text>
<polygon fill="none" stroke="black" points="10,-519 10,-541 172,-541 172,-519 10,-519"/>
<text text-anchor="start" x="30" y="-527.2" font-family="Helvetica,sans-Serif" font-size="11.00">vsacode</text>
<polygon fill="none" stroke="black" points="172,-519 172,-541 278,-541 278,-519 172,-519"/>
<text text-anchor="start" x="175" y="-527.2" font-family="Helvetica,sans-Serif" font-size="11.00">int4[10]</text>
<polygon fill="none" stroke="black" points="10,-497 10,-519 172,-519 172,-497 10,-497"/>
<text text-anchor="start" x="30" y="-505.2" font-family="Helvetica,sans-Serif" font-size="11.00">value_en</text>
<polygon fill="none" stroke="black" points="172,-497 172,-519 278,-519 278,-497 172,-497"/>
<text text-anchor="start" x="175" y="-505.2" font-family="Helvetica,sans-Serif" font-size="11.00">varchar[100]</text>
<polygon fill="none" stroke="black" points="10,-475 10,-497 172,-497 172,-475 10,-475"/>
<text text-anchor="start" x="30" y="-483.2" font-family="Helvetica,sans-Serif" font-size="11.00">value_de</text>
<polygon fill="none" stroke="black" points="172,-475 172,-497 278,-497 278,-475 172,-475"/>
<text text-anchor="start" x="175" y="-483.2" font-family="Helvetica,sans-Serif" font-size="11.00">varchar[100]</text>
<polygon fill="none" stroke="black" points="10,-453 10,-475 172,-475 172,-453 10,-453"/>
<text text-anchor="start" x="30" y="-461.2" font-family="Helvetica,sans-Serif" font-size="11.00">value_fr</text>
<polygon fill="none" stroke="black" points="172,-453 172,-475 278,-475 278,-453 172,-453"/>
<text text-anchor="start" x="175" y="-461.2" font-family="Helvetica,sans-Serif" font-size="11.00">varchar[100]</text>
<polygon fill="none" stroke="black" points="10,-431 10,-453 172,-453 172,-431 10,-431"/>
<text text-anchor="start" x="30" y="-439.2" font-family="Helvetica,sans-Serif" font-size="11.00">value_it</text>
<polygon fill="none" stroke="black" points="172,-431 172,-453 278,-453 278,-431 172,-431"/>
<text text-anchor="start" x="175" y="-439.2" font-family="Helvetica,sans-Serif" font-size="11.00">varchar[100]</text>
<polygon fill="none" stroke="black" points="10,-409 10,-431 172,-431 172,-409 10,-409"/>
<text text-anchor="start" x="30" y="-417.2" font-family="Helvetica,sans-Serif" font-size="11.00">value_ro</text>
<polygon fill="none" stroke="black" points="172,-409 172,-431 278,-431 278,-409 172,-409"/>
<text text-anchor="start" x="175" y="-417.2" font-family="Helvetica,sans-Serif" font-size="11.00">varchar[100]</text>
<polygon fill="none" stroke="black" points="10,-387 10,-409 172,-409 172,-387 10,-387"/>
<text text-anchor="start" x="30" y="-395.2" font-family="Helvetica,sans-Serif" font-size="11.00">abbr_en</text>
<polygon fill="none" stroke="black" points="172,-387 172,-409 278,-409 278,-387 172,-387"/>
<text text-anchor="start" x="175" y="-395.2" font-family="Helvetica,sans-Serif" font-size="11.00">varchar[3]</text>
<polygon fill="none" stroke="black" points="10,-365 10,-387 172,-387 172,-365 10,-365"/>
<text text-anchor="start" x="30" y="-373.2" font-family="Helvetica,sans-Serif" font-size="11.00">abbr_de</text>
<polygon fill="none" stroke="black" points="172,-365 172,-387 278,-387 278,-365 172,-365"/>
<text text-anchor="start" x="175" y="-373.2" font-family="Helvetica,sans-Serif" font-size="11.00">varchar[3]</text>
<polygon fill="none" stroke="black" points="10,-343 10,-365 172,-365 172,-343 10,-343"/>
<text text-anchor="start" x="30" y="-351.2" font-family="Helvetica,sans-Serif" font-size="11.00">abbr_fr</text>
<polygon fill="none" stroke="black" points="172,-343 172,-365 278,-365 278,-343 172,-343"/>
<text text-anchor="start" x="175" y="-351.2" font-family="Helvetica,sans-Serif" font-size="11.00">varchar[3]</text>
<polygon fill="none" stroke="black" points="10,-321 10,-343 172,-343 172,-321 10,-321"/>
<text text-anchor="start" x="30" y="-329.2" font-family="Helvetica,sans-Serif" font-size="11.00">abbr_it</text>
<polygon fill="none" stroke="black" points="172,-321 172,-343 278,-343 278,-321 172,-321"/>
<text text-anchor="start" x="175" y="-329.2" font-family="Helvetica,sans-Serif" font-size="11.00">varchar[3]</text>
<polygon fill="none" stroke="black" points="10,-299 10,-321 172,-321 172,-299 10,-299"/>
<text text-anchor="start" x="30" y="-307.2" font-family="Helvetica,sans-Serif" font-size="11.00">abbr_ro</text>
<polygon fill="none" stroke="black" points="172,-299 172,-321 278,-321 278,-299 172,-299"/>
<text text-anchor="start" x="175" y="-307.2" font-family="Helvetica,sans-Serif" font-size="11.00">varchar[3]</text>
<polygon fill="none" stroke="black" points="10,-277 10,-299 172,-299 172,-277 10,-277"/>
<text text-anchor="start" x="30" y="-285.2" font-family="Helvetica,sans-Serif" font-size="11.00">description_en</text>
<polygon fill="none" stroke="black" points="172,-277 172,-299 278,-299 278,-277 172,-277"/>
<text text-anchor="start" x="175" y="-285.2" font-family="Helvetica,sans-Serif" font-size="11.00">text[2147483647]</text>
<polygon fill="none" stroke="black" points="10,-255 10,-277 172,-277 172,-255 10,-255"/>
<text text-anchor="start" x="30" y="-263.2" font-family="Helvetica,sans-Serif" font-size="11.00">description_de</text>
<polygon fill="none" stroke="black" points="172,-255 172,-277 278,-277 278,-255 172,-255"/>
<text text-anchor="start" x="175" y="-263.2" font-family="Helvetica,sans-Serif" font-size="11.00">text[2147483647]</text>
<polygon fill="none" stroke="black" points="10,-233 10,-255 172,-255 172,-233 10,-233"/>
<text text-anchor="start" x="30" y="-241.2" font-family="Helvetica,sans-Serif" font-size="11.00">description_fr</text>
<polygon fill="none" stroke="black" points="172,-233 172,-255 278,-255 278,-233 172,-233"/>
<text text-anchor="start" x="175" y="-241.2" font-family="Helvetica,sans-Serif" font-size="11.00">text[2147483647]</text>
<polygon fill="none" stroke="black" points="10,-211 10,-233 172,-233 172,-211 10,-211"/>
<text text-anchor="start" x="30" y="-219.2" font-family="Helvetica,sans-Serif" font-size="11.00">description_it</text>
<polygon fill="none" stroke="black" points="172,-211 172,-233 278,-233 278,-211 172,-211"/>
<text text-anchor="start" x="175" y="-219.2" font-family="Helvetica,sans-Serif" font-size="11.00">text[2147483647]</text>
<polygon fill="none" stroke="black" points="10,-189 10,-211 172,-211 172,-189 10,-189"/>
<text text-anchor="start" x="30" y="-197.2" font-family="Helvetica,sans-Serif" font-size="11.00">description_ro</text>
<polygon fill="none" stroke="black" points="172,-189 172,-211 278,-211 278,-189 172,-189"/>
<text text-anchor="start" x="175" y="-197.2" font-family="Helvetica,sans-Serif" font-size="11.00">text[2147483647]</text>
<polygon fill="none" stroke="black" points="10,-167 10,-189 172,-189 172,-167 10,-167"/>
<text text-anchor="start" x="30" y="-175.2" font-family="Helvetica,sans-Serif" font-size="11.00">display_en</text>
<polygon fill="none" stroke="black" points="172,-167 172,-189 278,-189 278,-167 172,-167"/>
<text text-anchor="start" x="175" y="-175.2" font-family="Helvetica,sans-Serif" font-size="11.00">varchar[100]</text>
<polygon fill="none" stroke="black" points="10,-145 10,-167 172,-167 172,-145 10,-145"/>
<text text-anchor="start" x="30" y="-153.2" font-family="Helvetica,sans-Serif" font-size="11.00">display_de</text>
<polygon fill="none" stroke="black" points="172,-145 172,-167 278,-167 278,-145 172,-145"/>
<text text-anchor="start" x="175" y="-153.2" font-family="Helvetica,sans-Serif" font-size="11.00">varchar[100]</text>
<polygon fill="none" stroke="black" points="10,-123 10,-145 172,-145 172,-123 10,-123"/>
<text text-anchor="start" x="30" y="-131.2" font-family="Helvetica,sans-Serif" font-size="11.00">display_fr</text>
<polygon fill="none" stroke="black" points="172,-123 172,-145 278,-145 278,-123 172,-123"/>
<text text-anchor="start" x="175" y="-131.2" font-family="Helvetica,sans-Serif" font-size="11.00">varchar[100]</text>
<polygon fill="none" stroke="black" points="10,-101 10,-123 172,-123 172,-101 10,-101"/>
<text text-anchor="start" x="30" y="-109.2" font-family="Helvetica,sans-Serif" font-size="11.00">display_it</text>
<polygon fill="none" stroke="black" points="172,-101 172,-123 278,-123 278,-101 172,-101"/>
<text text-anchor="start" x="175" y="-109.2" font-family="Helvetica,sans-Serif" font-size="11.00">varchar[100]</text>
<polygon fill="none" stroke="black" points="10,-79 10,-101 172,-101 172,-79 10,-79"/>
<text text-anchor="start" x="30" y="-87.2" font-family="Helvetica,sans-Serif" font-size="11.00">display_ro</text>
<polygon fill="none" stroke="black" points="172,-79 172,-101 278,-101 278,-79 172,-79"/>
<text text-anchor="start" x="175" y="-87.2" font-family="Helvetica,sans-Serif" font-size="11.00">varchar[100]</text>
<polygon fill="none" stroke="black" points="10,-57 10,-79 172,-79 172,-57 10,-57"/>
<text text-anchor="start" x="30" y="-65.2" font-family="Helvetica,sans-Serif" font-size="11.00">active</text>
<polygon fill="none" stroke="black" points="172,-57 172,-79 278,-79 278,-57 172,-57"/>
<text text-anchor="start" x="175" y="-65.2" font-family="Helvetica,sans-Serif" font-size="11.00">bool[1]</text>
<polygon fill="#ffffff" stroke="transparent" points="10,-39 10,-57 278,-57 278,-39 10,-39"/>
<polygon fill="none" stroke="black" points="10,-39 10,-57 278,-57 278,-39 10,-39"/>
<polygon fill="#ffffff" stroke="transparent" points="11,-40 11,-56 104,-56 104,-40 11,-40"/>
<text text-anchor="start" x="13" y="-45.2" font-family="Helvetica,sans-Serif" font-size="11.00">&lt; 0</text>
<polygon fill="#ffffff" stroke="transparent" points="104,-40 104,-56 185,-56 185,-40 104,-40"/>
<text text-anchor="start" x="140.5" y="-45.2" font-family="Helvetica,sans-Serif" font-size="11.00"> &#160;</text>
<polygon fill="#ffffff" stroke="transparent" points="185,-40 185,-56 277,-56 277,-40 185,-40"/>
<text text-anchor="start" x="255" y="-45.2" font-family="Helvetica,sans-Serif" font-size="11.00">1 &gt;</text>
<polygon fill="black" stroke="black" points="104,-40 104,-56 104,-56 104,-40 104,-40"/>
<polygon fill="black" stroke="black" points="185,-40 185,-56 185,-56 185,-40 185,-40"/>
<polygon fill="none" stroke="black" stroke-width="2" points="9,-38 9,-586 279,-586 279,-38 9,-38"/>
</a>
</g>
</g>
<!-- tdh_od.trench&#45;&gt;trench_trench_type -->
<g id="edge1" class="edge">
<title>tdh_od.trench:w&#45;&gt;trench_trench_type:e</title>
<path fill="none" stroke="black" d="M313.49,-552C302.18,-552 294.99,-552 279,-552"/>
<polygon fill="black" stroke="black" points="320,-552 328,-555.6 324,-552 328,-552 328,-552 328,-552 324,-552 328,-548.4 320,-552 320,-552"/>
<ellipse fill="none" stroke="black" cx="316.8" cy="-552" rx="3.2" ry="3.2"/>
</g>
</g>
</svg>
