<?xml version="1.0" encoding="UTF-8" standalone="no"?>
<!DOCTYPE svg PUBLIC "-//W3C//DTD SVG 1.1//EN"
 "http://www.w3.org/Graphics/SVG/1.1/DTD/svg11.dtd">
<!-- Generated by graphviz version 2.43.0 (0)
 -->
<!-- Title: oneDegreeRelationshipsDiagram Pages: 1 -->
<svg width="639pt" height="379pt"
 viewBox="0.00 0.00 639.00 379.00" xmlns="http://www.w3.org/2000/svg" xmlns:xlink="http://www.w3.org/1999/xlink">
<g id="graph0" class="graph" transform="scale(1 1) rotate(0) translate(4 375)">
<title>oneDegreeRelationshipsDiagram</title>
<polygon fill="#ffffff" stroke="transparent" points="-4,4 -4,-375 635,-375 635,4 -4,4"/>
<text text-anchor="middle" x="79.5" y="-7.2" font-family="Helvetica,sans-Serif" font-size="11.00">Generated by SchemaSpy</text>
<!-- tdh_od.trench_point -->
<g id="node1" class="node">
<title>tdh_od.trench_point</title>
<g id="a_node1"><a xlink:href="../../../tdh_od/tables/trench_point.html" xlink:title="tdh_od.trench_point" target="_top">
<polygon fill="#ffffff" stroke="transparent" points="421,-241 421,-365 623,-365 623,-241 421,-241"/>
<polygon fill="#f5f5f5" stroke="transparent" points="421,-343 421,-365 623,-365 623,-343 421,-343"/>
<polygon fill="none" stroke="black" points="421,-343 421,-365 623,-365 623,-343 421,-343"/>
<text text-anchor="start" x="426" y="-352.2" font-family="Helvetica,sans-Serif" font-weight="bold" font-size="11.00">tdh_od.trench_point</text>
<text text-anchor="start" x="581" y="-351.2" font-family="Helvetica,sans-Serif" font-size="11.00">[table]</text>
<polygon fill="none" stroke="black" points="421,-321 421,-343 623,-343 623,-321 421,-321"/>
<image xlink:href="../../images/foreignKeys.png" width="11px" height="12px" preserveAspectRatio="xMinYMin meet" x="426" y="-338"/>
<text text-anchor="start" x="441" y="-329.2" font-family="Helvetica,sans-Serif" font-size="11.00">horizontal_positioning</text>
<polygon fill="none" stroke="black" points="421,-299 421,-321 623,-321 623,-299 421,-299"/>
<image xlink:href="../../images/foreignKeys.png" width="11px" height="12px" preserveAspectRatio="xMinYMin meet" x="426" y="-316"/>
<text text-anchor="start" x="441" y="-307.2" font-family="Helvetica,sans-Serif" font-size="11.00">kind</text>
<polygon fill="none" stroke="black" points="421,-277 421,-299 623,-299 623,-277 421,-277"/>
<image xlink:href="../../images/foreignKeys.png" width="11px" height="12px" preserveAspectRatio="xMinYMin meet" x="426" y="-294"/>
<text text-anchor="start" x="441" y="-285.2" font-family="Helvetica,sans-Serif" font-size="11.00">elevation_determination</text>
<polygon fill="none" stroke="black" points="421,-259 421,-277 623,-277 623,-259 421,-259"/>
<text text-anchor="start" x="424" y="-265.2" font-family="Helvetica,sans-Serif" font-size="11.00">...</text>
<polygon fill="#ffffff" stroke="transparent" points="421,-241 421,-259 623,-259 623,-241 421,-241"/>
<polygon fill="none" stroke="black" points="421,-241 421,-259 623,-259 623,-241 421,-241"/>
<polygon fill="#ffffff" stroke="transparent" points="422,-242 422,-258 487,-258 487,-242 422,-242"/>
<text text-anchor="start" x="424" y="-247.2" font-family="Helvetica,sans-Serif" font-size="11.00">&lt; 3</text>
<polygon fill="#ffffff" stroke="transparent" points="487,-242 487,-258 569,-258 569,-242 487,-242"/>
<text text-anchor="start" x="509.5" y="-247.2" font-family="Helvetica,sans-Serif" font-size="11.00">0 rows</text>
<polygon fill="#ffffff" stroke="transparent" points="569,-242 569,-258 622,-258 622,-242 569,-242"/>
<text text-anchor="start" x="612" y="-247.2" font-family="Helvetica,sans-Serif" font-size="11.00"> &#160;</text>
<polygon fill="black" stroke="black" points="487,-242 487,-258 487,-258 487,-242 487,-242"/>
<polygon fill="black" stroke="black" points="569,-242 569,-258 569,-258 569,-242 569,-242"/>
</a>
</g>
</g>
<!-- trench_point_horizontal_positioning -->
<g id="node2" class="node">
<title>trench_point_horizontal_positioning</title>
<g id="a_node2"><a xlink:href="../../tables/trench_point_horizontal_positioning.html" xlink:title="trench_point_horizontal_positioning" target="_top">
<polygon fill="#ffffff" stroke="transparent" points="8,-37 8,-367 372,-367 372,-37 8,-37"/>
<polygon fill="#f5f5f5" stroke="transparent" points="10,-343 10,-365 370,-365 370,-343 10,-343"/>
<polygon fill="none" stroke="black" points="10,-343 10,-365 370,-365 370,-343 10,-343"/>
<text text-anchor="start" x="15" y="-352.2" font-family="Helvetica,sans-Serif" font-weight="bold" font-size="11.00">trench_point_horizontal_positioning</text>
<text text-anchor="start" x="328" y="-351.2" font-family="Helvetica,sans-Serif" font-size="11.00">[table]</text>
<polygon fill="none" stroke="black" points="10,-321 10,-343 292,-343 292,-321 10,-321"/>
<image xlink:href="../../images/primaryKeys.png" width="11px" height="12px" preserveAspectRatio="xMinYMin meet" x="15" y="-338"/>
<text text-anchor="start" x="30" y="-329.2" font-family="Helvetica,sans-Serif" font-size="11.00">code</text>
<polygon fill="none" stroke="black" points="292,-321 292,-343 370,-343 370,-321 292,-321"/>
<text text-anchor="start" x="295" y="-329.2" font-family="Helvetica,sans-Serif" font-size="11.00">int4[10]</text>
<polygon fill="none" stroke="black" points="10,-299 10,-321 292,-321 292,-299 10,-299"/>
<text text-anchor="start" x="30" y="-307.2" font-family="Helvetica,sans-Serif" font-size="11.00">vsacode</text>
<polygon fill="none" stroke="black" points="292,-299 292,-321 370,-321 370,-299 292,-299"/>
<text text-anchor="start" x="295" y="-307.2" font-family="Helvetica,sans-Serif" font-size="11.00">int4[10]</text>
<polygon fill="none" stroke="black" points="10,-277 10,-299 292,-299 292,-277 10,-277"/>
<text text-anchor="start" x="30" y="-285.2" font-family="Helvetica,sans-Serif" font-size="11.00">value_en</text>
<polygon fill="none" stroke="black" points="292,-277 292,-299 370,-299 370,-277 292,-277"/>
<text text-anchor="start" x="295" y="-285.2" font-family="Helvetica,sans-Serif" font-size="11.00">varchar[100]</text>
<polygon fill="none" stroke="black" points="10,-255 10,-277 292,-277 292,-255 10,-255"/>
<text text-anchor="start" x="30" y="-263.2" font-family="Helvetica,sans-Serif" font-size="11.00">value_de</text>
<polygon fill="none" stroke="black" points="292,-255 292,-277 370,-277 370,-255 292,-255"/>
<text text-anchor="start" x="295" y="-263.2" font-family="Helvetica,sans-Serif" font-size="11.00">varchar[100]</text>
<polygon fill="none" stroke="black" points="10,-233 10,-255 292,-255 292,-233 10,-233"/>
<text text-anchor="start" x="30" y="-241.2" font-family="Helvetica,sans-Serif" font-size="11.00">value_fr</text>
<polygon fill="none" stroke="black" points="292,-233 292,-255 370,-255 370,-233 292,-233"/>
<text text-anchor="start" x="295" y="-241.2" font-family="Helvetica,sans-Serif" font-size="11.00">varchar[100]</text>
<polygon fill="none" stroke="black" points="10,-211 10,-233 292,-233 292,-211 10,-211"/>
<text text-anchor="start" x="30" y="-219.2" font-family="Helvetica,sans-Serif" font-size="11.00">value_it</text>
<polygon fill="none" stroke="black" points="292,-211 292,-233 370,-233 370,-211 292,-211"/>
<text text-anchor="start" x="295" y="-219.2" font-family="Helvetica,sans-Serif" font-size="11.00">varchar[100]</text>
<polygon fill="none" stroke="black" points="10,-189 10,-211 292,-211 292,-189 10,-189"/>
<text text-anchor="start" x="30" y="-197.2" font-family="Helvetica,sans-Serif" font-size="11.00">value_ro</text>
<polygon fill="none" stroke="black" points="292,-189 292,-211 370,-211 370,-189 292,-189"/>
<text text-anchor="start" x="295" y="-197.2" font-family="Helvetica,sans-Serif" font-size="11.00">varchar[100]</text>
<polygon fill="none" stroke="black" points="10,-167 10,-189 292,-189 292,-167 10,-167"/>
<text text-anchor="start" x="30" y="-175.2" font-family="Helvetica,sans-Serif" font-size="11.00">abbr_en</text>
<polygon fill="none" stroke="black" points="292,-167 292,-189 370,-189 370,-167 292,-167"/>
<text text-anchor="start" x="295" y="-175.2" font-family="Helvetica,sans-Serif" font-size="11.00">varchar[3]</text>
<polygon fill="none" stroke="black" points="10,-145 10,-167 292,-167 292,-145 10,-145"/>
<text text-anchor="start" x="30" y="-153.2" font-family="Helvetica,sans-Serif" font-size="11.00">abbr_de</text>
<polygon fill="none" stroke="black" points="292,-145 292,-167 370,-167 370,-145 292,-145"/>
<text text-anchor="start" x="295" y="-153.2" font-family="Helvetica,sans-Serif" font-size="11.00">varchar[3]</text>
<polygon fill="none" stroke="black" points="10,-123 10,-145 292,-145 292,-123 10,-123"/>
<text text-anchor="start" x="30" y="-131.2" font-family="Helvetica,sans-Serif" font-size="11.00">abbr_fr</text>
<polygon fill="none" stroke="black" points="292,-123 292,-145 370,-145 370,-123 292,-123"/>
<text text-anchor="start" x="295" y="-131.2" font-family="Helvetica,sans-Serif" font-size="11.00">varchar[3]</text>
<polygon fill="none" stroke="black" points="10,-101 10,-123 292,-123 292,-101 10,-101"/>
<text text-anchor="start" x="30" y="-109.2" font-family="Helvetica,sans-Serif" font-size="11.00">abbr_it</text>
<polygon fill="none" stroke="black" points="292,-101 292,-123 370,-123 370,-101 292,-101"/>
<text text-anchor="start" x="295" y="-109.2" font-family="Helvetica,sans-Serif" font-size="11.00">varchar[3]</text>
<polygon fill="none" stroke="black" points="10,-79 10,-101 292,-101 292,-79 10,-79"/>
<text text-anchor="start" x="30" y="-87.2" font-family="Helvetica,sans-Serif" font-size="11.00">abbr_ro</text>
<polygon fill="none" stroke="black" points="292,-79 292,-101 370,-101 370,-79 292,-79"/>
<text text-anchor="start" x="295" y="-87.2" font-family="Helvetica,sans-Serif" font-size="11.00">varchar[3]</text>
<polygon fill="none" stroke="black" points="10,-57 10,-79 292,-79 292,-57 10,-57"/>
<text text-anchor="start" x="30" y="-65.2" font-family="Helvetica,sans-Serif" font-size="11.00">active</text>
<polygon fill="none" stroke="black" points="292,-57 292,-79 370,-79 370,-57 292,-57"/>
<text text-anchor="start" x="295" y="-65.2" font-family="Helvetica,sans-Serif" font-size="11.00">bool[1]</text>
<polygon fill="#ffffff" stroke="transparent" points="10,-39 10,-57 370,-57 370,-39 10,-39"/>
<polygon fill="none" stroke="black" points="10,-39 10,-57 370,-57 370,-39 10,-39"/>
<polygon fill="#ffffff" stroke="transparent" points="11,-40 11,-56 135,-56 135,-40 11,-40"/>
<text text-anchor="start" x="13" y="-45.2" font-family="Helvetica,sans-Serif" font-size="11.00">&lt; 0</text>
<polygon fill="#ffffff" stroke="transparent" points="135,-40 135,-56 246,-56 246,-40 135,-40"/>
<text text-anchor="start" x="186.5" y="-45.2" font-family="Helvetica,sans-Serif" font-size="11.00"> &#160;</text>
<polygon fill="#ffffff" stroke="transparent" points="246,-40 246,-56 369,-56 369,-40 246,-40"/>
<text text-anchor="start" x="347" y="-45.2" font-family="Helvetica,sans-Serif" font-size="11.00">1 &gt;</text>
<polygon fill="black" stroke="black" points="135,-40 135,-56 135,-56 135,-40 135,-40"/>
<polygon fill="black" stroke="black" points="246,-40 246,-56 246,-56 246,-40 246,-40"/>
<polygon fill="none" stroke="black" stroke-width="2" points="9,-38 9,-366 371,-366 371,-38 9,-38"/>
</a>
</g>
</g>
<!-- tdh_od.trench_point&#45;&gt;trench_point_horizontal_positioning -->
<g id="edge1" class="edge">
<title>tdh_od.trench_point:w&#45;&gt;trench_point_horizontal_positioning:e</title>
<path fill="none" stroke="black" d="M405.49,-332C394.18,-332 386.99,-332 371,-332"/>
<polygon fill="black" stroke="black" points="412,-332 420,-335.6 416,-332 420,-332 420,-332 420,-332 416,-332 420,-328.4 412,-332 412,-332"/>
<ellipse fill="none" stroke="black" cx="408.8" cy="-332" rx="3.2" ry="3.2"/>
</g>
</g>
</svg>
