<?xml version="1.0" encoding="UTF-8" standalone="no"?>
<!DOCTYPE svg PUBLIC "-//W3C//DTD SVG 1.1//EN"
 "http://www.w3.org/Graphics/SVG/1.1/DTD/svg11.dtd">
<!-- Generated by graphviz version 2.43.0 (0)
 -->
<!-- Title: oneDegreeRelationshipsDiagram Pages: 1 -->
<svg width="575pt" height="685pt"
 viewBox="0.00 0.00 575.00 685.00" xmlns="http://www.w3.org/2000/svg" xmlns:xlink="http://www.w3.org/1999/xlink">
<g id="graph0" class="graph" transform="scale(1 1) rotate(0) translate(4 681)">
<title>oneDegreeRelationshipsDiagram</title>
<polygon fill="#ffffff" stroke="transparent" points="-4,4 -4,-681 571,-681 571,4 -4,4"/>
<text text-anchor="middle" x="79.5" y="-7.2" font-family="Helvetica,sans-Serif" font-size="11.00">Generated by SchemaSpy</text>
<!-- tdh_od.trench -->
<g id="node1" class="node">
<title>tdh_od.trench</title>
<g id="a_node1"><a xlink:href="../../../tdh_od/tables/trench.html" xlink:title="tdh_od.trench" target="_top">
<polygon fill="#ffffff" stroke="transparent" points="353,-483 353,-673 559,-673 559,-483 353,-483"/>
<polygon fill="#f5f5f5" stroke="transparent" points="353,-651 353,-673 559,-673 559,-651 353,-651"/>
<polygon fill="none" stroke="black" points="353,-651 353,-673 559,-673 559,-651 353,-651"/>
<text text-anchor="start" x="358" y="-660.2" font-family="Helvetica,sans-Serif" font-weight="bold" font-size="11.00">tdh_od.trench</text>
<text text-anchor="start" x="517" y="-659.2" font-family="Helvetica,sans-Serif" font-size="11.00">[table]</text>
<polygon fill="none" stroke="black" points="353,-629 353,-651 559,-651 559,-629 353,-629"/>
<image xlink:href="../../images/foreignKeys.png" width="11px" height="12px" preserveAspectRatio="xMinYMin meet" x="358" y="-646"/>
<text text-anchor="start" x="373" y="-637.2" font-family="Helvetica,sans-Serif" font-size="11.00">horizontal_positioning</text>
<polygon fill="none" stroke="black" points="353,-607 353,-629 559,-629 559,-607 353,-607"/>
<image xlink:href="../../images/foreignKeys.png" width="11px" height="12px" preserveAspectRatio="xMinYMin meet" x="358" y="-624"/>
<text text-anchor="start" x="373" y="-615.2" font-family="Helvetica,sans-Serif" font-size="11.00">status</text>
<polygon fill="none" stroke="black" points="353,-585 353,-607 559,-607 559,-585 353,-585"/>
<image xlink:href="../../images/foreignKeys.png" width="11px" height="12px" preserveAspectRatio="xMinYMin meet" x="358" y="-602"/>
<text text-anchor="start" x="373" y="-593.2" font-family="Helvetica,sans-Serif" font-size="11.00">trench_type</text>
<polygon fill="none" stroke="black" points="353,-563 353,-585 559,-585 559,-563 353,-563"/>
<image xlink:href="../../images/foreignKeys.png" width="11px" height="12px" preserveAspectRatio="xMinYMin meet" x="358" y="-580"/>
<text text-anchor="start" x="373" y="-571.2" font-family="Helvetica,sans-Serif" font-size="11.00">embedding</text>
<polygon fill="none" stroke="black" points="353,-541 353,-563 559,-563 559,-541 353,-541"/>
<image xlink:href="../../images/foreignKeys.png" width="11px" height="12px" preserveAspectRatio="xMinYMin meet" x="358" y="-558"/>
<text text-anchor="start" x="373" y="-549.2" font-family="Helvetica,sans-Serif" font-size="11.00">control_system</text>
<polygon fill="none" stroke="black" points="353,-519 353,-541 559,-541 559,-519 353,-519"/>
<image xlink:href="../../images/foreignKeys.png" width="11px" height="12px" preserveAspectRatio="xMinYMin meet" x="358" y="-536"/>
<text text-anchor="start" x="373" y="-527.2" font-family="Helvetica,sans-Serif" font-size="11.00">cable_conduits</text>
<polygon fill="none" stroke="black" points="353,-501 353,-519 559,-519 559,-501 353,-501"/>
<text text-anchor="start" x="356" y="-507.2" font-family="Helvetica,sans-Serif" font-size="11.00">...</text>
<polygon fill="#ffffff" stroke="transparent" points="353,-483 353,-501 559,-501 559,-483 353,-483"/>
<polygon fill="none" stroke="black" points="353,-483 353,-501 559,-501 559,-483 353,-483"/>
<polygon fill="#ffffff" stroke="transparent" points="354,-484 354,-500 421,-500 421,-484 354,-484"/>
<text text-anchor="start" x="356" y="-489.2" font-family="Helvetica,sans-Serif" font-size="11.00">&lt; 6</text>
<polygon fill="#ffffff" stroke="transparent" points="421,-484 421,-500 504,-500 504,-484 421,-484"/>
<text text-anchor="start" x="444" y="-489.2" font-family="Helvetica,sans-Serif" font-size="11.00">0 rows</text>
<polygon fill="#ffffff" stroke="transparent" points="504,-484 504,-500 558,-500 558,-484 504,-484"/>
<text text-anchor="start" x="548" y="-489.2" font-family="Helvetica,sans-Serif" font-size="11.00"> &#160;</text>
<polygon fill="black" stroke="black" points="421,-484 421,-500 421,-500 421,-484 421,-484"/>
<polygon fill="black" stroke="black" points="504,-484 504,-500 504,-500 504,-484 504,-484"/>
</a>
</g>
</g>
<!-- trench_control_system -->
<g id="node2" class="node">
<title>trench_control_system</title>
<g id="a_node2"><a xlink:href="../../tables/trench_control_system.html" xlink:title="trench_control_system" target="_top">
<polygon fill="#ffffff" stroke="transparent" points="8,-37 8,-587 304,-587 304,-37 8,-37"/>
<polygon fill="#f5f5f5" stroke="transparent" points="10,-563 10,-585 302,-585 302,-563 10,-563"/>
<polygon fill="none" stroke="black" points="10,-563 10,-585 302,-585 302,-563 10,-563"/>
<text text-anchor="start" x="15" y="-572.2" font-family="Helvetica,sans-Serif" font-weight="bold" font-size="11.00">trench_control_system</text>
<text text-anchor="start" x="260" y="-571.2" font-family="Helvetica,sans-Serif" font-size="11.00">[table]</text>
<polygon fill="none" stroke="black" points="10,-541 10,-563 196,-563 196,-541 10,-541"/>
<image xlink:href="../../images/primaryKeys.png" width="11px" height="12px" preserveAspectRatio="xMinYMin meet" x="15" y="-558"/>
<text text-anchor="start" x="30" y="-549.2" font-family="Helvetica,sans-Serif" font-size="11.00">code</text>
<polygon fill="none" stroke="black" points="196,-541 196,-563 302,-563 302,-541 196,-541"/>
<text text-anchor="start" x="199" y="-549.2" font-family="Helvetica,sans-Serif" font-size="11.00">int4[10]</text>
<polygon fill="none" stroke="black" points="10,-519 10,-541 196,-541 196,-519 10,-519"/>
<text text-anchor="start" x="30" y="-527.2" font-family="Helvetica,sans-Serif" font-size="11.00">vsacode</text>
<polygon fill="none" stroke="black" points="196,-519 196,-541 302,-541 302,-519 196,-519"/>
<text text-anchor="start" x="199" y="-527.2" font-family="Helvetica,sans-Serif" font-size="11.00">int4[10]</text>
<polygon fill="none" stroke="black" points="10,-497 10,-519 196,-519 196,-497 10,-497"/>
<text text-anchor="start" x="30" y="-505.2" font-family="Helvetica,sans-Serif" font-size="11.00">value_en</text>
<polygon fill="none" stroke="black" points="196,-497 196,-519 302,-519 302,-497 196,-497"/>
<text text-anchor="start" x="199" y="-505.2" font-family="Helvetica,sans-Serif" font-size="11.00">varchar[100]</text>
<polygon fill="none" stroke="black" points="10,-475 10,-497 196,-497 196,-475 10,-475"/>
<text text-anchor="start" x="30" y="-483.2" font-family="Helvetica,sans-Serif" font-size="11.00">value_de</text>
<polygon fill="none" stroke="black" points="196,-475 196,-497 302,-497 302,-475 196,-475"/>
<text text-anchor="start" x="199" y="-483.2" font-family="Helvetica,sans-Serif" font-size="11.00">varchar[100]</text>
<polygon fill="none" stroke="black" points="10,-453 10,-475 196,-475 196,-453 10,-453"/>
<text text-anchor="start" x="30" y="-461.2" font-family="Helvetica,sans-Serif" font-size="11.00">value_fr</text>
<polygon fill="none" stroke="black" points="196,-453 196,-475 302,-475 302,-453 196,-453"/>
<text text-anchor="start" x="199" y="-461.2" font-family="Helvetica,sans-Serif" font-size="11.00">varchar[100]</text>
<polygon fill="none" stroke="black" points="10,-431 10,-453 196,-453 196,-431 10,-431"/>
<text text-anchor="start" x="30" y="-439.2" font-family="Helvetica,sans-Serif" font-size="11.00">value_it</text>
<polygon fill="none" stroke="black" points="196,-431 196,-453 302,-453 302,-431 196,-431"/>
<text text-anchor="start" x="199" y="-439.2" font-family="Helvetica,sans-Serif" font-size="11.00">varchar[100]</text>
<polygon fill="none" stroke="black" points="10,-409 10,-431 196,-431 196,-409 10,-409"/>
<text text-anchor="start" x="30" y="-417.2" font-family="Helvetica,sans-Serif" font-size="11.00">value_ro</text>
<polygon fill="none" stroke="black" points="196,-409 196,-431 302,-431 302,-409 196,-409"/>
<text text-anchor="start" x="199" y="-417.2" font-family="Helvetica,sans-Serif" font-size="11.00">varchar[100]</text>
<polygon fill="none" stroke="black" points="10,-387 10,-409 196,-409 196,-387 10,-387"/>
<text text-anchor="start" x="30" y="-395.2" font-family="Helvetica,sans-Serif" font-size="11.00">abbr_en</text>
<polygon fill="none" stroke="black" points="196,-387 196,-409 302,-409 302,-387 196,-387"/>
<text text-anchor="start" x="199" y="-395.2" font-family="Helvetica,sans-Serif" font-size="11.00">varchar[3]</text>
<polygon fill="none" stroke="black" points="10,-365 10,-387 196,-387 196,-365 10,-365"/>
<text text-anchor="start" x="30" y="-373.2" font-family="Helvetica,sans-Serif" font-size="11.00">abbr_de</text>
<polygon fill="none" stroke="black" points="196,-365 196,-387 302,-387 302,-365 196,-365"/>
<text text-anchor="start" x="199" y="-373.2" font-family="Helvetica,sans-Serif" font-size="11.00">varchar[3]</text>
<polygon fill="none" stroke="black" points="10,-343 10,-365 196,-365 196,-343 10,-343"/>
<text text-anchor="start" x="30" y="-351.2" font-family="Helvetica,sans-Serif" font-size="11.00">abbr_fr</text>
<polygon fill="none" stroke="black" points="196,-343 196,-365 302,-365 302,-343 196,-343"/>
<text text-anchor="start" x="199" y="-351.2" font-family="Helvetica,sans-Serif" font-size="11.00">varchar[3]</text>
<polygon fill="none" stroke="black" points="10,-321 10,-343 196,-343 196,-321 10,-321"/>
<text text-anchor="start" x="30" y="-329.2" font-family="Helvetica,sans-Serif" font-size="11.00">abbr_it</text>
<polygon fill="none" stroke="black" points="196,-321 196,-343 302,-343 302,-321 196,-321"/>
<text text-anchor="start" x="199" y="-329.2" font-family="Helvetica,sans-Serif" font-size="11.00">varchar[3]</text>
<polygon fill="none" stroke="black" points="10,-299 10,-321 196,-321 196,-299 10,-299"/>
<text text-anchor="start" x="30" y="-307.2" font-family="Helvetica,sans-Serif" font-size="11.00">abbr_ro</text>
<polygon fill="none" stroke="black" points="196,-299 196,-321 302,-321 302,-299 196,-299"/>
<text text-anchor="start" x="199" y="-307.2" font-family="Helvetica,sans-Serif" font-size="11.00">varchar[3]</text>
<polygon fill="none" stroke="black" points="10,-277 10,-299 196,-299 196,-277 10,-277"/>
<text text-anchor="start" x="30" y="-285.2" font-family="Helvetica,sans-Serif" font-size="11.00">description_en</text>
<polygon fill="none" stroke="black" points="196,-277 196,-299 302,-299 302,-277 196,-277"/>
<text text-anchor="start" x="199" y="-285.2" font-family="Helvetica,sans-Serif" font-size="11.00">text[2147483647]</text>
<polygon fill="none" stroke="black" points="10,-255 10,-277 196,-277 196,-255 10,-255"/>
<text text-anchor="start" x="30" y="-263.2" font-family="Helvetica,sans-Serif" font-size="11.00">description_de</text>
<polygon fill="none" stroke="black" points="196,-255 196,-277 302,-277 302,-255 196,-255"/>
<text text-anchor="start" x="199" y="-263.2" font-family="Helvetica,sans-Serif" font-size="11.00">text[2147483647]</text>
<polygon fill="none" stroke="black" points="10,-233 10,-255 196,-255 196,-233 10,-233"/>
<text text-anchor="start" x="30" y="-241.2" font-family="Helvetica,sans-Serif" font-size="11.00">description_fr</text>
<polygon fill="none" stroke="black" points="196,-233 196,-255 302,-255 302,-233 196,-233"/>
<text text-anchor="start" x="199" y="-241.2" font-family="Helvetica,sans-Serif" font-size="11.00">text[2147483647]</text>
<polygon fill="none" stroke="black" points="10,-211 10,-233 196,-233 196,-211 10,-211"/>
<text text-anchor="start" x="30" y="-219.2" font-family="Helvetica,sans-Serif" font-size="11.00">description_it</text>
<polygon fill="none" stroke="black" points="196,-211 196,-233 302,-233 302,-211 196,-211"/>
<text text-anchor="start" x="199" y="-219.2" font-family="Helvetica,sans-Serif" font-size="11.00">text[2147483647]</text>
<polygon fill="none" stroke="black" points="10,-189 10,-211 196,-211 196,-189 10,-189"/>
<text text-anchor="start" x="30" y="-197.2" font-family="Helvetica,sans-Serif" font-size="11.00">description_ro</text>
<polygon fill="none" stroke="black" points="196,-189 196,-211 302,-211 302,-189 196,-189"/>
<text text-anchor="start" x="199" y="-197.2" font-family="Helvetica,sans-Serif" font-size="11.00">text[2147483647]</text>
<polygon fill="none" stroke="black" points="10,-167 10,-189 196,-189 196,-167 10,-167"/>
<text text-anchor="start" x="30" y="-175.2" font-family="Helvetica,sans-Serif" font-size="11.00">display_en</text>
<polygon fill="none" stroke="black" points="196,-167 196,-189 302,-189 302,-167 196,-167"/>
<text text-anchor="start" x="199" y="-175.2" font-family="Helvetica,sans-Serif" font-size="11.00">varchar[100]</text>
<polygon fill="none" stroke="black" points="10,-145 10,-167 196,-167 196,-145 10,-145"/>
<text text-anchor="start" x="30" y="-153.2" font-family="Helvetica,sans-Serif" font-size="11.00">display_de</text>
<polygon fill="none" stroke="black" points="196,-145 196,-167 302,-167 302,-145 196,-145"/>
<text text-anchor="start" x="199" y="-153.2" font-family="Helvetica,sans-Serif" font-size="11.00">varchar[100]</text>
<polygon fill="none" stroke="black" points="10,-123 10,-145 196,-145 196,-123 10,-123"/>
<text text-anchor="start" x="30" y="-131.2" font-family="Helvetica,sans-Serif" font-size="11.00">display_fr</text>
<polygon fill="none" stroke="black" points="196,-123 196,-145 302,-145 302,-123 196,-123"/>
<text text-anchor="start" x="199" y="-131.2" font-family="Helvetica,sans-Serif" font-size="11.00">varchar[100]</text>
<polygon fill="none" stroke="black" points="10,-101 10,-123 196,-123 196,-101 10,-101"/>
<text text-anchor="start" x="30" y="-109.2" font-family="Helvetica,sans-Serif" font-size="11.00">display_it</text>
<polygon fill="none" stroke="black" points="196,-101 196,-123 302,-123 302,-101 196,-101"/>
<text text-anchor="start" x="199" y="-109.2" font-family="Helvetica,sans-Serif" font-size="11.00">varchar[100]</text>
<polygon fill="none" stroke="black" points="10,-79 10,-101 196,-101 196,-79 10,-79"/>
<text text-anchor="start" x="30" y="-87.2" font-family="Helvetica,sans-Serif" font-size="11.00">display_ro</text>
<polygon fill="none" stroke="black" points="196,-79 196,-101 302,-101 302,-79 196,-79"/>
<text text-anchor="start" x="199" y="-87.2" font-family="Helvetica,sans-Serif" font-size="11.00">varchar[100]</text>
<polygon fill="none" stroke="black" points="10,-57 10,-79 196,-79 196,-57 10,-57"/>
<text text-anchor="start" x="30" y="-65.2" font-family="Helvetica,sans-Serif" font-size="11.00">active</text>
<polygon fill="none" stroke="black" points="196,-57 196,-79 302,-79 302,-57 196,-57"/>
<text text-anchor="start" x="199" y="-65.2" font-family="Helvetica,sans-Serif" font-size="11.00">bool[1]</text>
<polygon fill="#ffffff" stroke="transparent" points="10,-39 10,-57 302,-57 302,-39 10,-39"/>
<polygon fill="none" stroke="black" points="10,-39 10,-57 302,-57 302,-39 10,-39"/>
<polygon fill="#ffffff" stroke="transparent" points="11,-40 11,-56 112,-56 112,-40 11,-40"/>
<text text-anchor="start" x="13" y="-45.2" font-family="Helvetica,sans-Serif" font-size="11.00">&lt; 0</text>
<polygon fill="#ffffff" stroke="transparent" points="112,-40 112,-56 201,-56 201,-40 112,-40"/>
<text text-anchor="start" x="152.5" y="-45.2" font-family="Helvetica,sans-Serif" font-size="11.00"> &#160;</text>
<polygon fill="#ffffff" stroke="transparent" points="201,-40 201,-56 301,-56 301,-40 201,-40"/>
<text text-anchor="start" x="279" y="-45.2" font-family="Helvetica,sans-Serif" font-size="11.00">1 &gt;</text>
<polygon fill="black" stroke="black" points="112,-40 112,-56 112,-56 112,-40 112,-40"/>
<polygon fill="black" stroke="black" points="201,-40 201,-56 201,-56 201,-40 201,-40"/>
<polygon fill="none" stroke="black" stroke-width="2" points="9,-38 9,-586 303,-586 303,-38 9,-38"/>
</a>
</g>
</g>
<!-- tdh_od.trench&#45;&gt;trench_control_system -->
<g id="edge1" class="edge">
<title>tdh_od.trench:w&#45;&gt;trench_control_system:e</title>
<path fill="none" stroke="black" d="M337.49,-552C326.18,-552 318.99,-552 303,-552"/>
<polygon fill="black" stroke="black" points="344,-552 352,-555.6 348,-552 352,-552 352,-552 352,-552 348,-552 352,-548.4 344,-552 344,-552"/>
<ellipse fill="none" stroke="black" cx="340.8" cy="-552" rx="3.2" ry="3.2"/>
</g>
</g>
</svg>
