<?xml version="1.0" encoding="UTF-8" standalone="no"?>
<!DOCTYPE svg PUBLIC "-//W3C//DTD SVG 1.1//EN"
 "http://www.w3.org/Graphics/SVG/1.1/DTD/svg11.dtd">
<!-- Generated by graphviz version 2.47.1 (20210515.0534)
 -->
<!-- Title: oneDegreeRelationshipsDiagram Pages: 1 -->
<svg width="475pt" height="487pt"
 viewBox="0.00 0.00 475.00 487.00" xmlns="http://www.w3.org/2000/svg" xmlns:xlink="http://www.w3.org/1999/xlink">
<g id="graph0" class="graph" transform="scale(1 1) rotate(0) translate(4 483)">
<title>oneDegreeRelationshipsDiagram</title>
<polygon fill="#ffffff" stroke="transparent" points="-4,4 -4,-483 471,-483 471,4 -4,4"/>
<text text-anchor="middle" x="73.5" y="-7.2" font-family="Helvetica,sans-Serif" font-size="11.00">Generated by SchemaSpy</text>
<!-- tdh_od.trench -->
<g id="node1" class="node">
<title>tdh_od.trench</title>
<g id="a_node1"><a xlink:href="../../../tdh_od/tables/trench.html" xlink:title="tdh_od.trench" target="_top">
<polygon fill="#ffffff" stroke="transparent" points="285,-285 285,-475 459,-475 459,-285 285,-285"/>
<polygon fill="#f5f5f5" stroke="transparent" points="285,-453 285,-475 459,-475 459,-453 285,-453"/>
<polygon fill="none" stroke="black" points="285,-453 285,-475 459,-475 459,-453 285,-453"/>
<text text-anchor="start" x="290" y="-462.2" font-family="Helvetica,sans-Serif" font-weight="bold" font-size="11.00">tdh_od.trench</text>
<text text-anchor="start" x="420" y="-461.2" font-family="Helvetica,sans-Serif" font-size="11.00">[table]</text>
<polygon fill="none" stroke="black" points="285,-431 285,-453 459,-453 459,-431 285,-431"/>
<image xlink:href="../../images/foreignKeys.png" width="11px" height="12px" preserveAspectRatio="xMinYMin meet" x="290" y="-448"/>
<text text-anchor="start" x="305" y="-439.2" font-family="Helvetica,sans-Serif" font-size="11.00">horizontal_positioning</text>
<polygon fill="none" stroke="black" points="285,-409 285,-431 459,-431 459,-409 285,-409"/>
<image xlink:href="../../images/foreignKeys.png" width="11px" height="12px" preserveAspectRatio="xMinYMin meet" x="290" y="-426"/>
<text text-anchor="start" x="305" y="-417.2" font-family="Helvetica,sans-Serif" font-size="11.00">status</text>
<polygon fill="none" stroke="black" points="285,-387 285,-409 459,-409 459,-387 285,-387"/>
<image xlink:href="../../images/foreignKeys.png" width="11px" height="12px" preserveAspectRatio="xMinYMin meet" x="290" y="-404"/>
<text text-anchor="start" x="305" y="-395.2" font-family="Helvetica,sans-Serif" font-size="11.00">trench_type</text>
<polygon fill="none" stroke="black" points="285,-365 285,-387 459,-387 459,-365 285,-365"/>
<image xlink:href="../../images/foreignKeys.png" width="11px" height="12px" preserveAspectRatio="xMinYMin meet" x="290" y="-382"/>
<text text-anchor="start" x="305" y="-373.2" font-family="Helvetica,sans-Serif" font-size="11.00">embedding</text>
<polygon fill="none" stroke="black" points="285,-343 285,-365 459,-365 459,-343 285,-343"/>
<image xlink:href="../../images/foreignKeys.png" width="11px" height="12px" preserveAspectRatio="xMinYMin meet" x="290" y="-360"/>
<text text-anchor="start" x="305" y="-351.2" font-family="Helvetica,sans-Serif" font-size="11.00">control_system</text>
<polygon fill="none" stroke="black" points="285,-321 285,-343 459,-343 459,-321 285,-321"/>
<image xlink:href="../../images/foreignKeys.png" width="11px" height="12px" preserveAspectRatio="xMinYMin meet" x="290" y="-338"/>
<text text-anchor="start" x="305" y="-329.2" font-family="Helvetica,sans-Serif" font-size="11.00">cable_conduits</text>
<polygon fill="none" stroke="black" points="285,-303 285,-321 459,-321 459,-303 285,-303"/>
<text text-anchor="start" x="288" y="-309.2" font-family="Helvetica,sans-Serif" font-size="11.00">...</text>
<polygon fill="#ffffff" stroke="transparent" points="285,-285 285,-303 356,-303 356,-285 285,-285"/>
<polygon fill="none" stroke="black" points="285,-285 285,-303 356,-303 356,-285 285,-285"/>
<text text-anchor="start" x="288" y="-291.2" font-family="Helvetica,sans-Serif" font-size="11.00">&lt; 6</text>
<polygon fill="#ffffff" stroke="transparent" points="356,-285 356,-303 421,-303 421,-285 356,-285"/>
<polygon fill="none" stroke="black" points="356,-285 356,-303 421,-303 421,-285 356,-285"/>
<text text-anchor="start" x="384" y="-291.2" font-family="Helvetica,sans-Serif" font-size="11.00">0 rows</text>
<polygon fill="#ffffff" stroke="transparent" points="421,-285 421,-303 459,-303 459,-285 421,-285"/>
<polygon fill="none" stroke="black" points="421,-285 421,-303 459,-303 459,-285 421,-285"/>
<text text-anchor="start" x="449" y="-291.2" font-family="Helvetica,sans-Serif" font-size="11.00"> &#160;</text>
</a>
</g>
</g>
<!-- trench_cable_conduits -->
<g id="node2" class="node">
<title>trench_cable_conduits</title>
<g id="a_node2"><a xlink:href="../../tables/trench_cable_conduits.html" xlink:title="trench_cable_conduits" target="_top">
<polygon fill="#ffffff" stroke="transparent" points="8,-37 8,-367 236,-367 236,-37 8,-37"/>
<polygon fill="#f5f5f5" stroke="transparent" points="10,-343 10,-365 234,-365 234,-343 10,-343"/>
<polygon fill="none" stroke="black" points="10,-343 10,-365 234,-365 234,-343 10,-343"/>
<text text-anchor="start" x="15" y="-352.2" font-family="Helvetica,sans-Serif" font-weight="bold" font-size="11.00">trench_cable_conduits</text>
<text text-anchor="start" x="195" y="-351.2" font-family="Helvetica,sans-Serif" font-size="11.00">[table]</text>
<polygon fill="none" stroke="black" points="10,-321 10,-343 164,-343 164,-321 10,-321"/>
<image xlink:href="../../images/primaryKeys.png" width="11px" height="12px" preserveAspectRatio="xMinYMin meet" x="15" y="-338"/>
<text text-anchor="start" x="30" y="-329.2" font-family="Helvetica,sans-Serif" font-size="11.00">code</text>
<polygon fill="none" stroke="black" points="164,-321 164,-343 234,-343 234,-321 164,-321"/>
<text text-anchor="start" x="167" y="-329.2" font-family="Helvetica,sans-Serif" font-size="11.00">int4[10]</text>
<polygon fill="none" stroke="black" points="10,-299 10,-321 164,-321 164,-299 10,-299"/>
<text text-anchor="start" x="30" y="-307.2" font-family="Helvetica,sans-Serif" font-size="11.00">vsacode</text>
<polygon fill="none" stroke="black" points="164,-299 164,-321 234,-321 234,-299 164,-299"/>
<text text-anchor="start" x="167" y="-307.2" font-family="Helvetica,sans-Serif" font-size="11.00">int4[10]</text>
<polygon fill="none" stroke="black" points="10,-277 10,-299 164,-299 164,-277 10,-277"/>
<text text-anchor="start" x="30" y="-285.2" font-family="Helvetica,sans-Serif" font-size="11.00">value_en</text>
<polygon fill="none" stroke="black" points="164,-277 164,-299 234,-299 234,-277 164,-277"/>
<text text-anchor="start" x="167" y="-285.2" font-family="Helvetica,sans-Serif" font-size="11.00">varchar[100]</text>
<polygon fill="none" stroke="black" points="10,-255 10,-277 164,-277 164,-255 10,-255"/>
<text text-anchor="start" x="30" y="-263.2" font-family="Helvetica,sans-Serif" font-size="11.00">value_de</text>
<polygon fill="none" stroke="black" points="164,-255 164,-277 234,-277 234,-255 164,-255"/>
<text text-anchor="start" x="167" y="-263.2" font-family="Helvetica,sans-Serif" font-size="11.00">varchar[100]</text>
<polygon fill="none" stroke="black" points="10,-233 10,-255 164,-255 164,-233 10,-233"/>
<text text-anchor="start" x="30" y="-241.2" font-family="Helvetica,sans-Serif" font-size="11.00">value_fr</text>
<polygon fill="none" stroke="black" points="164,-233 164,-255 234,-255 234,-233 164,-233"/>
<text text-anchor="start" x="167" y="-241.2" font-family="Helvetica,sans-Serif" font-size="11.00">varchar[100]</text>
<polygon fill="none" stroke="black" points="10,-211 10,-233 164,-233 164,-211 10,-211"/>
<text text-anchor="start" x="30" y="-219.2" font-family="Helvetica,sans-Serif" font-size="11.00">value_it</text>
<polygon fill="none" stroke="black" points="164,-211 164,-233 234,-233 234,-211 164,-211"/>
<text text-anchor="start" x="167" y="-219.2" font-family="Helvetica,sans-Serif" font-size="11.00">varchar[100]</text>
<polygon fill="none" stroke="black" points="10,-189 10,-211 164,-211 164,-189 10,-189"/>
<text text-anchor="start" x="30" y="-197.2" font-family="Helvetica,sans-Serif" font-size="11.00">value_ro</text>
<polygon fill="none" stroke="black" points="164,-189 164,-211 234,-211 234,-189 164,-189"/>
<text text-anchor="start" x="167" y="-197.2" font-family="Helvetica,sans-Serif" font-size="11.00">varchar[100]</text>
<polygon fill="none" stroke="black" points="10,-167 10,-189 164,-189 164,-167 10,-167"/>
<text text-anchor="start" x="30" y="-175.2" font-family="Helvetica,sans-Serif" font-size="11.00">abbr_en</text>
<polygon fill="none" stroke="black" points="164,-167 164,-189 234,-189 234,-167 164,-167"/>
<text text-anchor="start" x="167" y="-175.2" font-family="Helvetica,sans-Serif" font-size="11.00">varchar[3]</text>
<polygon fill="none" stroke="black" points="10,-145 10,-167 164,-167 164,-145 10,-145"/>
<text text-anchor="start" x="30" y="-153.2" font-family="Helvetica,sans-Serif" font-size="11.00">abbr_de</text>
<polygon fill="none" stroke="black" points="164,-145 164,-167 234,-167 234,-145 164,-145"/>
<text text-anchor="start" x="167" y="-153.2" font-family="Helvetica,sans-Serif" font-size="11.00">varchar[3]</text>
<polygon fill="none" stroke="black" points="10,-123 10,-145 164,-145 164,-123 10,-123"/>
<text text-anchor="start" x="30" y="-131.2" font-family="Helvetica,sans-Serif" font-size="11.00">abbr_fr</text>
<polygon fill="none" stroke="black" points="164,-123 164,-145 234,-145 234,-123 164,-123"/>
<text text-anchor="start" x="167" y="-131.2" font-family="Helvetica,sans-Serif" font-size="11.00">varchar[3]</text>
<polygon fill="none" stroke="black" points="10,-101 10,-123 164,-123 164,-101 10,-101"/>
<text text-anchor="start" x="30" y="-109.2" font-family="Helvetica,sans-Serif" font-size="11.00">abbr_it</text>
<polygon fill="none" stroke="black" points="164,-101 164,-123 234,-123 234,-101 164,-101"/>
<text text-anchor="start" x="167" y="-109.2" font-family="Helvetica,sans-Serif" font-size="11.00">varchar[3]</text>
<polygon fill="none" stroke="black" points="10,-79 10,-101 164,-101 164,-79 10,-79"/>
<text text-anchor="start" x="30" y="-87.2" font-family="Helvetica,sans-Serif" font-size="11.00">abbr_ro</text>
<polygon fill="none" stroke="black" points="164,-79 164,-101 234,-101 234,-79 164,-79"/>
<text text-anchor="start" x="167" y="-87.2" font-family="Helvetica,sans-Serif" font-size="11.00">varchar[3]</text>
<polygon fill="none" stroke="black" points="10,-57 10,-79 164,-79 164,-57 10,-57"/>
<text text-anchor="start" x="30" y="-65.2" font-family="Helvetica,sans-Serif" font-size="11.00">active</text>
<polygon fill="none" stroke="black" points="164,-57 164,-79 234,-79 234,-57 164,-57"/>
<text text-anchor="start" x="167" y="-65.2" font-family="Helvetica,sans-Serif" font-size="11.00">bool[1]</text>
<polygon fill="#ffffff" stroke="transparent" points="10,-39 10,-57 91,-57 91,-39 10,-39"/>
<polygon fill="none" stroke="black" points="10,-39 10,-57 91,-57 91,-39 10,-39"/>
<text text-anchor="start" x="13" y="-45.2" font-family="Helvetica,sans-Serif" font-size="11.00">&lt; 0</text>
<polygon fill="#ffffff" stroke="transparent" points="91,-39 91,-57 164,-57 164,-39 91,-39"/>
<polygon fill="none" stroke="black" points="91,-39 91,-57 164,-57 164,-39 91,-39"/>
<text text-anchor="start" x="154" y="-45.2" font-family="Helvetica,sans-Serif" font-size="11.00"> &#160;</text>
<polygon fill="#ffffff" stroke="transparent" points="164,-39 164,-57 234,-57 234,-39 164,-39"/>
<polygon fill="none" stroke="black" points="164,-39 164,-57 234,-57 234,-39 164,-39"/>
<text text-anchor="start" x="215" y="-45.2" font-family="Helvetica,sans-Serif" font-size="11.00">1 &gt;</text>
<polygon fill="none" stroke="black" stroke-width="2" points="9,-38 9,-366 235,-366 235,-38 9,-38"/>
</a>
</g>
</g>
<!-- tdh_od.trench&#45;&gt;trench_cable_conduits -->
<g id="edge1" class="edge">
<title>tdh_od.trench:w&#45;&gt;trench_cable_conduits:e</title>
<path fill="none" stroke="black" d="M269.49,-332C258.18,-332 250.99,-332 235,-332"/>
<polygon fill="black" stroke="black" points="276,-332 284,-335.6 280,-332 284,-332 284,-332 284,-332 280,-332 284,-328.4 276,-332 276,-332"/>
<ellipse fill="none" stroke="black" cx="272.8" cy="-332" rx="3.2" ry="3.2"/>
</g>
</g>
</svg>
