<?xml version="1.0" encoding="UTF-8" standalone="no"?>
<!DOCTYPE svg PUBLIC "-//W3C//DTD SVG 1.1//EN"
 "http://www.w3.org/Graphics/SVG/1.1/DTD/svg11.dtd">
<!-- Generated by graphviz version 2.43.0 (0)
 -->
<!-- Title: oneDegreeRelationshipsDiagram Pages: 1 -->
<svg width="613pt" height="421pt"
 viewBox="0.00 0.00 613.00 421.00" xmlns="http://www.w3.org/2000/svg" xmlns:xlink="http://www.w3.org/1999/xlink">
<g id="graph0" class="graph" transform="scale(1 1) rotate(0) translate(4 417)">
<title>oneDegreeRelationshipsDiagram</title>
<polygon fill="#ffffff" stroke="transparent" points="-4,4 -4,-417 609,-417 609,4 -4,4"/>
<text text-anchor="middle" x="79.5" y="-7.2" font-family="Helvetica,sans-Serif" font-size="11.00">Generated by SchemaSpy</text>
<!-- tdh_od.pipe_point_normal -->
<g id="node1" class="node">
<title>tdh_od.pipe_point_normal</title>
<g id="a_node1"><a xlink:href="../../../tdh_od/tables/pipe_point_normal.html" xlink:title="tdh_od.pipe_point_normal" target="_top">
<polygon fill="#ffffff" stroke="transparent" points="362,-285 362,-409 597,-409 597,-285 362,-285"/>
<polygon fill="#f5f5f5" stroke="transparent" points="362.5,-387 362.5,-409 597.5,-409 597.5,-387 362.5,-387"/>
<polygon fill="none" stroke="black" points="362.5,-387 362.5,-409 597.5,-409 597.5,-387 362.5,-387"/>
<text text-anchor="start" x="367.5" y="-396.2" font-family="Helvetica,sans-Serif" font-weight="bold" font-size="11.00">tdh_od.pipe_point_normal</text>
<text text-anchor="start" x="555.5" y="-395.2" font-family="Helvetica,sans-Serif" font-size="11.00">[table]</text>
<polygon fill="none" stroke="black" points="362.5,-365 362.5,-387 597.5,-387 597.5,-365 362.5,-365"/>
<image xlink:href="../../images/foreignKeys.png" width="11px" height="12px" preserveAspectRatio="xMinYMin meet" x="367.5" y="-382"/>
<text text-anchor="start" x="422.5" y="-373.2" font-family="Helvetica,sans-Serif" font-size="11.00">kind</text>
<polygon fill="none" stroke="black" points="362.5,-343 362.5,-365 597.5,-365 597.5,-343 362.5,-343"/>
<image xlink:href="../../images/foreignKeys.png" width="11px" height="12px" preserveAspectRatio="xMinYMin meet" x="367.5" y="-360"/>
<text text-anchor="start" x="422.5" y="-351.2" font-family="Helvetica,sans-Serif" font-size="11.00">armature_setting</text>
<polygon fill="none" stroke="black" points="362.5,-321 362.5,-343 597.5,-343 597.5,-321 362.5,-321"/>
<image xlink:href="../../images/foreignKeys.png" width="11px" height="12px" preserveAspectRatio="xMinYMin meet" x="367.5" y="-338"/>
<text text-anchor="start" x="422.5" y="-329.2" font-family="Helvetica,sans-Serif" font-size="11.00">material</text>
<polygon fill="none" stroke="black" points="362.5,-303 362.5,-321 597.5,-321 597.5,-303 362.5,-303"/>
<text text-anchor="start" x="365.5" y="-309.2" font-family="Helvetica,sans-Serif" font-size="11.00">...</text>
<polygon fill="#ffffff" stroke="transparent" points="362.5,-285 362.5,-303 597.5,-303 597.5,-285 362.5,-285"/>
<polygon fill="none" stroke="black" points="362.5,-285 362.5,-303 597.5,-303 597.5,-285 362.5,-285"/>
<polygon fill="#ffffff" stroke="transparent" points="363.5,-286 363.5,-302 439.5,-302 439.5,-286 363.5,-286"/>
<text text-anchor="start" x="365.5" y="-291.2" font-family="Helvetica,sans-Serif" font-size="11.00">&lt; 3</text>
<polygon fill="#ffffff" stroke="transparent" points="439.5,-286 439.5,-302 532.5,-302 532.5,-286 439.5,-286"/>
<text text-anchor="start" x="467.5" y="-291.2" font-family="Helvetica,sans-Serif" font-size="11.00">0 rows</text>
<polygon fill="#ffffff" stroke="transparent" points="532.5,-286 532.5,-302 596.5,-302 596.5,-286 532.5,-286"/>
<text text-anchor="start" x="586.5" y="-291.2" font-family="Helvetica,sans-Serif" font-size="11.00"> &#160;</text>
<polygon fill="black" stroke="black" points="439.5,-286 439.5,-302 439.5,-302 439.5,-286 439.5,-286"/>
<polygon fill="black" stroke="black" points="532.5,-286 532.5,-302 532.5,-302 532.5,-286 532.5,-286"/>
</a>
</g>
</g>
<!-- pipe_point_normal_material -->
<g id="node2" class="node">
<title>pipe_point_normal_material</title>
<g id="a_node2"><a xlink:href="../../tables/pipe_point_normal_material.html" xlink:title="pipe_point_normal_material" target="_top">
<polygon fill="#ffffff" stroke="transparent" points="8,-37 8,-367 313,-367 313,-37 8,-37"/>
<polygon fill="#f5f5f5" stroke="transparent" points="10.5,-343 10.5,-365 311.5,-365 311.5,-343 10.5,-343"/>
<polygon fill="none" stroke="black" points="10.5,-343 10.5,-365 311.5,-365 311.5,-343 10.5,-343"/>
<text text-anchor="start" x="15.5" y="-352.2" font-family="Helvetica,sans-Serif" font-weight="bold" font-size="11.00">pipe_point_normal_material</text>
<text text-anchor="start" x="269.5" y="-351.2" font-family="Helvetica,sans-Serif" font-size="11.00">[table]</text>
<polygon fill="none" stroke="black" points="10.5,-321 10.5,-343 233.5,-343 233.5,-321 10.5,-321"/>
<image xlink:href="../../images/primaryKeys.png" width="11px" height="12px" preserveAspectRatio="xMinYMin meet" x="15.5" y="-338"/>
<text text-anchor="start" x="30.5" y="-329.2" font-family="Helvetica,sans-Serif" font-size="11.00">code</text>
<polygon fill="none" stroke="black" points="233.5,-321 233.5,-343 311.5,-343 311.5,-321 233.5,-321"/>
<text text-anchor="start" x="236.5" y="-329.2" font-family="Helvetica,sans-Serif" font-size="11.00">int4[10]</text>
<polygon fill="none" stroke="black" points="10.5,-299 10.5,-321 233.5,-321 233.5,-299 10.5,-299"/>
<text text-anchor="start" x="30.5" y="-307.2" font-family="Helvetica,sans-Serif" font-size="11.00">vsacode</text>
<polygon fill="none" stroke="black" points="233.5,-299 233.5,-321 311.5,-321 311.5,-299 233.5,-299"/>
<text text-anchor="start" x="236.5" y="-307.2" font-family="Helvetica,sans-Serif" font-size="11.00">int4[10]</text>
<polygon fill="none" stroke="black" points="10.5,-277 10.5,-299 233.5,-299 233.5,-277 10.5,-277"/>
<text text-anchor="start" x="30.5" y="-285.2" font-family="Helvetica,sans-Serif" font-size="11.00">value_en</text>
<polygon fill="none" stroke="black" points="233.5,-277 233.5,-299 311.5,-299 311.5,-277 233.5,-277"/>
<text text-anchor="start" x="236.5" y="-285.2" font-family="Helvetica,sans-Serif" font-size="11.00">varchar[100]</text>
<polygon fill="none" stroke="black" points="10.5,-255 10.5,-277 233.5,-277 233.5,-255 10.5,-255"/>
<text text-anchor="start" x="30.5" y="-263.2" font-family="Helvetica,sans-Serif" font-size="11.00">value_de</text>
<polygon fill="none" stroke="black" points="233.5,-255 233.5,-277 311.5,-277 311.5,-255 233.5,-255"/>
<text text-anchor="start" x="236.5" y="-263.2" font-family="Helvetica,sans-Serif" font-size="11.00">varchar[100]</text>
<polygon fill="none" stroke="black" points="10.5,-233 10.5,-255 233.5,-255 233.5,-233 10.5,-233"/>
<text text-anchor="start" x="30.5" y="-241.2" font-family="Helvetica,sans-Serif" font-size="11.00">value_fr</text>
<polygon fill="none" stroke="black" points="233.5,-233 233.5,-255 311.5,-255 311.5,-233 233.5,-233"/>
<text text-anchor="start" x="236.5" y="-241.2" font-family="Helvetica,sans-Serif" font-size="11.00">varchar[100]</text>
<polygon fill="none" stroke="black" points="10.5,-211 10.5,-233 233.5,-233 233.5,-211 10.5,-211"/>
<text text-anchor="start" x="30.5" y="-219.2" font-family="Helvetica,sans-Serif" font-size="11.00">value_it</text>
<polygon fill="none" stroke="black" points="233.5,-211 233.5,-233 311.5,-233 311.5,-211 233.5,-211"/>
<text text-anchor="start" x="236.5" y="-219.2" font-family="Helvetica,sans-Serif" font-size="11.00">varchar[100]</text>
<polygon fill="none" stroke="black" points="10.5,-189 10.5,-211 233.5,-211 233.5,-189 10.5,-189"/>
<text text-anchor="start" x="30.5" y="-197.2" font-family="Helvetica,sans-Serif" font-size="11.00">value_ro</text>
<polygon fill="none" stroke="black" points="233.5,-189 233.5,-211 311.5,-211 311.5,-189 233.5,-189"/>
<text text-anchor="start" x="236.5" y="-197.2" font-family="Helvetica,sans-Serif" font-size="11.00">varchar[100]</text>
<polygon fill="none" stroke="black" points="10.5,-167 10.5,-189 233.5,-189 233.5,-167 10.5,-167"/>
<text text-anchor="start" x="30.5" y="-175.2" font-family="Helvetica,sans-Serif" font-size="11.00">abbr_en</text>
<polygon fill="none" stroke="black" points="233.5,-167 233.5,-189 311.5,-189 311.5,-167 233.5,-167"/>
<text text-anchor="start" x="236.5" y="-175.2" font-family="Helvetica,sans-Serif" font-size="11.00">varchar[3]</text>
<polygon fill="none" stroke="black" points="10.5,-145 10.5,-167 233.5,-167 233.5,-145 10.5,-145"/>
<text text-anchor="start" x="30.5" y="-153.2" font-family="Helvetica,sans-Serif" font-size="11.00">abbr_de</text>
<polygon fill="none" stroke="black" points="233.5,-145 233.5,-167 311.5,-167 311.5,-145 233.5,-145"/>
<text text-anchor="start" x="236.5" y="-153.2" font-family="Helvetica,sans-Serif" font-size="11.00">varchar[3]</text>
<polygon fill="none" stroke="black" points="10.5,-123 10.5,-145 233.5,-145 233.5,-123 10.5,-123"/>
<text text-anchor="start" x="30.5" y="-131.2" font-family="Helvetica,sans-Serif" font-size="11.00">abbr_fr</text>
<polygon fill="none" stroke="black" points="233.5,-123 233.5,-145 311.5,-145 311.5,-123 233.5,-123"/>
<text text-anchor="start" x="236.5" y="-131.2" font-family="Helvetica,sans-Serif" font-size="11.00">varchar[3]</text>
<polygon fill="none" stroke="black" points="10.5,-101 10.5,-123 233.5,-123 233.5,-101 10.5,-101"/>
<text text-anchor="start" x="30.5" y="-109.2" font-family="Helvetica,sans-Serif" font-size="11.00">abbr_it</text>
<polygon fill="none" stroke="black" points="233.5,-101 233.5,-123 311.5,-123 311.5,-101 233.5,-101"/>
<text text-anchor="start" x="236.5" y="-109.2" font-family="Helvetica,sans-Serif" font-size="11.00">varchar[3]</text>
<polygon fill="none" stroke="black" points="10.5,-79 10.5,-101 233.5,-101 233.5,-79 10.5,-79"/>
<text text-anchor="start" x="30.5" y="-87.2" font-family="Helvetica,sans-Serif" font-size="11.00">abbr_ro</text>
<polygon fill="none" stroke="black" points="233.5,-79 233.5,-101 311.5,-101 311.5,-79 233.5,-79"/>
<text text-anchor="start" x="236.5" y="-87.2" font-family="Helvetica,sans-Serif" font-size="11.00">varchar[3]</text>
<polygon fill="none" stroke="black" points="10.5,-57 10.5,-79 233.5,-79 233.5,-57 10.5,-57"/>
<text text-anchor="start" x="30.5" y="-65.2" font-family="Helvetica,sans-Serif" font-size="11.00">active</text>
<polygon fill="none" stroke="black" points="233.5,-57 233.5,-79 311.5,-79 311.5,-57 233.5,-57"/>
<text text-anchor="start" x="236.5" y="-65.2" font-family="Helvetica,sans-Serif" font-size="11.00">bool[1]</text>
<polygon fill="#ffffff" stroke="transparent" points="10.5,-39 10.5,-57 311.5,-57 311.5,-39 10.5,-39"/>
<polygon fill="none" stroke="black" points="10.5,-39 10.5,-57 311.5,-57 311.5,-39 10.5,-39"/>
<polygon fill="#ffffff" stroke="transparent" points="11.5,-40 11.5,-56 115.5,-56 115.5,-40 11.5,-40"/>
<text text-anchor="start" x="13.5" y="-45.2" font-family="Helvetica,sans-Serif" font-size="11.00">&lt; 0</text>
<polygon fill="#ffffff" stroke="transparent" points="115.5,-40 115.5,-56 207.5,-56 207.5,-40 115.5,-40"/>
<text text-anchor="start" x="157.5" y="-45.2" font-family="Helvetica,sans-Serif" font-size="11.00"> &#160;</text>
<polygon fill="#ffffff" stroke="transparent" points="207.5,-40 207.5,-56 310.5,-56 310.5,-40 207.5,-40"/>
<text text-anchor="start" x="288.5" y="-45.2" font-family="Helvetica,sans-Serif" font-size="11.00">1 &gt;</text>
<polygon fill="black" stroke="black" points="115.5,-40 115.5,-56 115.5,-56 115.5,-40 115.5,-40"/>
<polygon fill="black" stroke="black" points="207.5,-40 207.5,-56 207.5,-56 207.5,-40 207.5,-40"/>
<polygon fill="none" stroke="black" stroke-width="2" points="9,-38 9,-366 312,-366 312,-38 9,-38"/>
</a>
</g>
</g>
<!-- tdh_od.pipe_point_normal&#45;&gt;pipe_point_normal_material -->
<g id="edge1" class="edge">
<title>tdh_od.pipe_point_normal:w&#45;&gt;pipe_point_normal_material:e</title>
<path fill="none" stroke="black" d="M346.99,-332C335.68,-332 328.49,-332 312.5,-332"/>
<polygon fill="black" stroke="black" points="353.5,-332 361.5,-335.6 357.5,-332 361.5,-332 361.5,-332 361.5,-332 357.5,-332 361.5,-328.4 353.5,-332 353.5,-332"/>
<ellipse fill="none" stroke="black" cx="350.3" cy="-332" rx="3.2" ry="3.2"/>
</g>
</g>
</svg>
