<?xml version="1.0" encoding="UTF-8" standalone="no"?>
<!DOCTYPE svg PUBLIC "-//W3C//DTD SVG 1.1//EN"
 "http://www.w3.org/Graphics/SVG/1.1/DTD/svg11.dtd">
<!-- Generated by graphviz version 2.43.0 (0)
 -->
<!-- Title: oneDegreeRelationshipsDiagram Pages: 1 -->
<svg width="537pt" height="443pt"
 viewBox="0.00 0.00 537.00 443.00" xmlns="http://www.w3.org/2000/svg" xmlns:xlink="http://www.w3.org/1999/xlink">
<g id="graph0" class="graph" transform="scale(1 1) rotate(0) translate(4 439)">
<title>oneDegreeRelationshipsDiagram</title>
<polygon fill="#ffffff" stroke="transparent" points="-4,4 -4,-439 533,-439 533,4 -4,4"/>
<text text-anchor="middle" x="79.5" y="-7.2" font-family="Helvetica,sans-Serif" font-size="11.00">Generated by SchemaSpy</text>
<!-- tdh_od.pipe_section -->
<g id="node1" class="node">
<title>tdh_od.pipe_section</title>
<g id="a_node1"><a xlink:href="../../../tdh_od/tables/pipe_section.html" xlink:title="tdh_od.pipe_section" target="_top">
<polygon fill="#ffffff" stroke="transparent" points="329,-197 329,-431 521,-431 521,-197 329,-197"/>
<polygon fill="#f5f5f5" stroke="transparent" points="329,-409 329,-431 521,-431 521,-409 329,-409"/>
<polygon fill="none" stroke="black" points="329,-409 329,-431 521,-431 521,-409 329,-409"/>
<text text-anchor="start" x="334" y="-418.2" font-family="Helvetica,sans-Serif" font-weight="bold" font-size="11.00">tdh_od.pipe_section</text>
<text text-anchor="start" x="479" y="-417.2" font-family="Helvetica,sans-Serif" font-size="11.00">[table]</text>
<polygon fill="none" stroke="black" points="329,-387 329,-409 521,-409 521,-387 329,-387"/>
<image xlink:href="../../images/foreignKeys.png" width="11px" height="12px" preserveAspectRatio="xMinYMin meet" x="334" y="-404"/>
<text text-anchor="start" x="352" y="-395.2" font-family="Helvetica,sans-Serif" font-size="11.00">horizontal_positioning</text>
<polygon fill="none" stroke="black" points="329,-365 329,-387 521,-387 521,-365 329,-365"/>
<image xlink:href="../../images/foreignKeys.png" width="11px" height="12px" preserveAspectRatio="xMinYMin meet" x="334" y="-382"/>
<text text-anchor="start" x="352" y="-373.2" font-family="Helvetica,sans-Serif" font-size="11.00">status</text>
<polygon fill="none" stroke="black" points="329,-343 329,-365 521,-365 521,-343 329,-343"/>
<image xlink:href="../../images/foreignKeys.png" width="11px" height="12px" preserveAspectRatio="xMinYMin meet" x="334" y="-360"/>
<text text-anchor="start" x="352" y="-351.2" font-family="Helvetica,sans-Serif" font-size="11.00">function</text>
<polygon fill="none" stroke="black" points="329,-321 329,-343 521,-343 521,-321 329,-321"/>
<image xlink:href="../../images/foreignKeys.png" width="11px" height="12px" preserveAspectRatio="xMinYMin meet" x="334" y="-338"/>
<text text-anchor="start" x="352" y="-329.2" font-family="Helvetica,sans-Serif" font-size="11.00">pipe_type</text>
<polygon fill="none" stroke="black" points="329,-299 329,-321 521,-321 521,-299 329,-299"/>
<image xlink:href="../../images/foreignKeys.png" width="11px" height="12px" preserveAspectRatio="xMinYMin meet" x="334" y="-316"/>
<text text-anchor="start" x="352" y="-307.2" font-family="Helvetica,sans-Serif" font-size="11.00">fluent</text>
<polygon fill="none" stroke="black" points="329,-277 329,-299 521,-299 521,-277 329,-277"/>
<image xlink:href="../../images/foreignKeys.png" width="11px" height="12px" preserveAspectRatio="xMinYMin meet" x="334" y="-294"/>
<text text-anchor="start" x="352" y="-285.2" font-family="Helvetica,sans-Serif" font-size="11.00">insulation_kind</text>
<polygon fill="none" stroke="black" points="329,-255 329,-277 521,-277 521,-255 329,-255"/>
<image xlink:href="../../images/foreignKeys.png" width="11px" height="12px" preserveAspectRatio="xMinYMin meet" x="334" y="-272"/>
<text text-anchor="start" x="352" y="-263.2" font-family="Helvetica,sans-Serif" font-size="11.00">coating</text>
<polygon fill="none" stroke="black" points="329,-233 329,-255 521,-255 521,-233 329,-233"/>
<image xlink:href="../../images/foreignKeys.png" width="11px" height="12px" preserveAspectRatio="xMinYMin meet" x="334" y="-250"/>
<text text-anchor="start" x="352" y="-241.2" font-family="Helvetica,sans-Serif" font-size="11.00">pipeline_quality</text>
<polygon fill="none" stroke="black" points="329,-215 329,-233 521,-233 521,-215 329,-215"/>
<text text-anchor="start" x="332" y="-221.2" font-family="Helvetica,sans-Serif" font-size="11.00">...</text>
<polygon fill="#ffffff" stroke="transparent" points="329,-197 329,-215 521,-215 521,-197 329,-197"/>
<polygon fill="none" stroke="black" points="329,-197 329,-215 521,-215 521,-197 329,-197"/>
<polygon fill="#ffffff" stroke="transparent" points="330,-198 330,-214 392,-214 392,-198 330,-198"/>
<text text-anchor="start" x="332" y="-203.2" font-family="Helvetica,sans-Serif" font-size="11.00">&lt; 8</text>
<polygon fill="#ffffff" stroke="transparent" points="392,-198 392,-214 471,-214 471,-198 392,-198"/>
<text text-anchor="start" x="413" y="-203.2" font-family="Helvetica,sans-Serif" font-size="11.00">0 rows</text>
<polygon fill="#ffffff" stroke="transparent" points="471,-198 471,-214 520,-214 520,-198 471,-198"/>
<text text-anchor="start" x="510" y="-203.2" font-family="Helvetica,sans-Serif" font-size="11.00"> &#160;</text>
<polygon fill="black" stroke="black" points="392,-198 392,-214 392,-214 392,-198 392,-198"/>
<polygon fill="black" stroke="black" points="471,-198 471,-214 471,-214 471,-198 471,-198"/>
</a>
</g>
</g>
<!-- pipe_section_pipe_type -->
<g id="node2" class="node">
<title>pipe_section_pipe_type</title>
<g id="a_node2"><a xlink:href="../../tables/pipe_section_pipe_type.html" xlink:title="pipe_section_pipe_type" target="_top">
<polygon fill="#ffffff" stroke="transparent" points="8,-37 8,-367 280,-367 280,-37 8,-37"/>
<polygon fill="#f5f5f5" stroke="transparent" points="10,-343 10,-365 278,-365 278,-343 10,-343"/>
<polygon fill="none" stroke="black" points="10,-343 10,-365 278,-365 278,-343 10,-343"/>
<text text-anchor="start" x="15" y="-352.2" font-family="Helvetica,sans-Serif" font-weight="bold" font-size="11.00">pipe_section_pipe_type</text>
<text text-anchor="start" x="236" y="-351.2" font-family="Helvetica,sans-Serif" font-size="11.00">[table]</text>
<polygon fill="none" stroke="black" points="10,-321 10,-343 200,-343 200,-321 10,-321"/>
<image xlink:href="../../images/primaryKeys.png" width="11px" height="12px" preserveAspectRatio="xMinYMin meet" x="15" y="-338"/>
<text text-anchor="start" x="30" y="-329.2" font-family="Helvetica,sans-Serif" font-size="11.00">code</text>
<polygon fill="none" stroke="black" points="200,-321 200,-343 278,-343 278,-321 200,-321"/>
<text text-anchor="start" x="203" y="-329.2" font-family="Helvetica,sans-Serif" font-size="11.00">int4[10]</text>
<polygon fill="none" stroke="black" points="10,-299 10,-321 200,-321 200,-299 10,-299"/>
<text text-anchor="start" x="30" y="-307.2" font-family="Helvetica,sans-Serif" font-size="11.00">vsacode</text>
<polygon fill="none" stroke="black" points="200,-299 200,-321 278,-321 278,-299 200,-299"/>
<text text-anchor="start" x="203" y="-307.2" font-family="Helvetica,sans-Serif" font-size="11.00">int4[10]</text>
<polygon fill="none" stroke="black" points="10,-277 10,-299 200,-299 200,-277 10,-277"/>
<text text-anchor="start" x="30" y="-285.2" font-family="Helvetica,sans-Serif" font-size="11.00">value_en</text>
<polygon fill="none" stroke="black" points="200,-277 200,-299 278,-299 278,-277 200,-277"/>
<text text-anchor="start" x="203" y="-285.2" font-family="Helvetica,sans-Serif" font-size="11.00">varchar[100]</text>
<polygon fill="none" stroke="black" points="10,-255 10,-277 200,-277 200,-255 10,-255"/>
<text text-anchor="start" x="30" y="-263.2" font-family="Helvetica,sans-Serif" font-size="11.00">value_de</text>
<polygon fill="none" stroke="black" points="200,-255 200,-277 278,-277 278,-255 200,-255"/>
<text text-anchor="start" x="203" y="-263.2" font-family="Helvetica,sans-Serif" font-size="11.00">varchar[100]</text>
<polygon fill="none" stroke="black" points="10,-233 10,-255 200,-255 200,-233 10,-233"/>
<text text-anchor="start" x="30" y="-241.2" font-family="Helvetica,sans-Serif" font-size="11.00">value_fr</text>
<polygon fill="none" stroke="black" points="200,-233 200,-255 278,-255 278,-233 200,-233"/>
<text text-anchor="start" x="203" y="-241.2" font-family="Helvetica,sans-Serif" font-size="11.00">varchar[100]</text>
<polygon fill="none" stroke="black" points="10,-211 10,-233 200,-233 200,-211 10,-211"/>
<text text-anchor="start" x="30" y="-219.2" font-family="Helvetica,sans-Serif" font-size="11.00">value_it</text>
<polygon fill="none" stroke="black" points="200,-211 200,-233 278,-233 278,-211 200,-211"/>
<text text-anchor="start" x="203" y="-219.2" font-family="Helvetica,sans-Serif" font-size="11.00">varchar[100]</text>
<polygon fill="none" stroke="black" points="10,-189 10,-211 200,-211 200,-189 10,-189"/>
<text text-anchor="start" x="30" y="-197.2" font-family="Helvetica,sans-Serif" font-size="11.00">value_ro</text>
<polygon fill="none" stroke="black" points="200,-189 200,-211 278,-211 278,-189 200,-189"/>
<text text-anchor="start" x="203" y="-197.2" font-family="Helvetica,sans-Serif" font-size="11.00">varchar[100]</text>
<polygon fill="none" stroke="black" points="10,-167 10,-189 200,-189 200,-167 10,-167"/>
<text text-anchor="start" x="30" y="-175.2" font-family="Helvetica,sans-Serif" font-size="11.00">abbr_en</text>
<polygon fill="none" stroke="black" points="200,-167 200,-189 278,-189 278,-167 200,-167"/>
<text text-anchor="start" x="203" y="-175.2" font-family="Helvetica,sans-Serif" font-size="11.00">varchar[3]</text>
<polygon fill="none" stroke="black" points="10,-145 10,-167 200,-167 200,-145 10,-145"/>
<text text-anchor="start" x="30" y="-153.2" font-family="Helvetica,sans-Serif" font-size="11.00">abbr_de</text>
<polygon fill="none" stroke="black" points="200,-145 200,-167 278,-167 278,-145 200,-145"/>
<text text-anchor="start" x="203" y="-153.2" font-family="Helvetica,sans-Serif" font-size="11.00">varchar[3]</text>
<polygon fill="none" stroke="black" points="10,-123 10,-145 200,-145 200,-123 10,-123"/>
<text text-anchor="start" x="30" y="-131.2" font-family="Helvetica,sans-Serif" font-size="11.00">abbr_fr</text>
<polygon fill="none" stroke="black" points="200,-123 200,-145 278,-145 278,-123 200,-123"/>
<text text-anchor="start" x="203" y="-131.2" font-family="Helvetica,sans-Serif" font-size="11.00">varchar[3]</text>
<polygon fill="none" stroke="black" points="10,-101 10,-123 200,-123 200,-101 10,-101"/>
<text text-anchor="start" x="30" y="-109.2" font-family="Helvetica,sans-Serif" font-size="11.00">abbr_it</text>
<polygon fill="none" stroke="black" points="200,-101 200,-123 278,-123 278,-101 200,-101"/>
<text text-anchor="start" x="203" y="-109.2" font-family="Helvetica,sans-Serif" font-size="11.00">varchar[3]</text>
<polygon fill="none" stroke="black" points="10,-79 10,-101 200,-101 200,-79 10,-79"/>
<text text-anchor="start" x="30" y="-87.2" font-family="Helvetica,sans-Serif" font-size="11.00">abbr_ro</text>
<polygon fill="none" stroke="black" points="200,-79 200,-101 278,-101 278,-79 200,-79"/>
<text text-anchor="start" x="203" y="-87.2" font-family="Helvetica,sans-Serif" font-size="11.00">varchar[3]</text>
<polygon fill="none" stroke="black" points="10,-57 10,-79 200,-79 200,-57 10,-57"/>
<text text-anchor="start" x="30" y="-65.2" font-family="Helvetica,sans-Serif" font-size="11.00">active</text>
<polygon fill="none" stroke="black" points="200,-57 200,-79 278,-79 278,-57 200,-57"/>
<text text-anchor="start" x="203" y="-65.2" font-family="Helvetica,sans-Serif" font-size="11.00">bool[1]</text>
<polygon fill="#ffffff" stroke="transparent" points="10,-39 10,-57 278,-57 278,-39 10,-39"/>
<polygon fill="none" stroke="black" points="10,-39 10,-57 278,-57 278,-39 10,-39"/>
<polygon fill="#ffffff" stroke="transparent" points="11,-40 11,-56 104,-56 104,-40 11,-40"/>
<text text-anchor="start" x="13" y="-45.2" font-family="Helvetica,sans-Serif" font-size="11.00">&lt; 0</text>
<polygon fill="#ffffff" stroke="transparent" points="104,-40 104,-56 185,-56 185,-40 104,-40"/>
<text text-anchor="start" x="140.5" y="-45.2" font-family="Helvetica,sans-Serif" font-size="11.00"> &#160;</text>
<polygon fill="#ffffff" stroke="transparent" points="185,-40 185,-56 277,-56 277,-40 185,-40"/>
<text text-anchor="start" x="255" y="-45.2" font-family="Helvetica,sans-Serif" font-size="11.00">1 &gt;</text>
<polygon fill="black" stroke="black" points="104,-40 104,-56 104,-56 104,-40 104,-40"/>
<polygon fill="black" stroke="black" points="185,-40 185,-56 185,-56 185,-40 185,-40"/>
<polygon fill="none" stroke="black" stroke-width="2" points="9,-38 9,-366 279,-366 279,-38 9,-38"/>
</a>
</g>
</g>
<!-- tdh_od.pipe_section&#45;&gt;pipe_section_pipe_type -->
<g id="edge1" class="edge">
<title>tdh_od.pipe_section:w&#45;&gt;pipe_section_pipe_type:e</title>
<path fill="none" stroke="black" d="M313.49,-332C302.18,-332 294.99,-332 279,-332"/>
<polygon fill="black" stroke="black" points="320,-332 328,-335.6 324,-332 328,-332 328,-332 328,-332 324,-332 328,-328.4 320,-332 320,-332"/>
<ellipse fill="none" stroke="black" cx="316.8" cy="-332" rx="3.2" ry="3.2"/>
</g>
</g>
</svg>
