<?xml version="1.0" encoding="UTF-8" standalone="no"?>
<!DOCTYPE svg PUBLIC "-//W3C//DTD SVG 1.1//EN"
 "http://www.w3.org/Graphics/SVG/1.1/DTD/svg11.dtd">
<!-- Generated by graphviz version 2.47.1 (20210515.0534)
 -->
<!-- Title: oneDegreeRelationshipsDiagram Pages: 1 -->
<svg width="459pt" height="421pt"
 viewBox="0.00 0.00 459.00 421.00" xmlns="http://www.w3.org/2000/svg" xmlns:xlink="http://www.w3.org/1999/xlink">
<g id="graph0" class="graph" transform="scale(1 1) rotate(0) translate(4 417)">
<title>oneDegreeRelationshipsDiagram</title>
<polygon fill="#ffffff" stroke="transparent" points="-4,4 -4,-417 455,-417 455,4 -4,4"/>
<text text-anchor="middle" x="73.5" y="-7.2" font-family="Helvetica,sans-Serif" font-size="11.00">Generated by SchemaSpy</text>
<!-- tdh_od.pipe_section -->
<g id="node1" class="node">
<title>tdh_od.pipe_section</title>
<g id="a_node1"><a xlink:href="../../../tdh_od/tables/pipe_section.html" xlink:title="tdh_od.pipe_section" target="_top">
<polygon fill="#ffffff" stroke="transparent" points="281,-175 281,-409 443,-409 443,-175 281,-175"/>
<polygon fill="#f5f5f5" stroke="transparent" points="281,-387 281,-409 443,-409 443,-387 281,-387"/>
<polygon fill="none" stroke="black" points="281,-387 281,-409 443,-409 443,-387 281,-387"/>
<text text-anchor="start" x="286" y="-396.2" font-family="Helvetica,sans-Serif" font-weight="bold" font-size="11.00">tdh_od.pipe_section</text>
<text text-anchor="start" x="404" y="-395.2" font-family="Helvetica,sans-Serif" font-size="11.00">[table]</text>
<polygon fill="none" stroke="black" points="281,-365 281,-387 443,-387 443,-365 281,-365"/>
<image xlink:href="../../images/foreignKeys.png" width="11px" height="12px" preserveAspectRatio="xMinYMin meet" x="286" y="-382"/>
<text text-anchor="start" x="305" y="-373.2" font-family="Helvetica,sans-Serif" font-size="11.00">horizontal_positioning</text>
<polygon fill="none" stroke="black" points="281,-343 281,-365 443,-365 443,-343 281,-343"/>
<image xlink:href="../../images/foreignKeys.png" width="11px" height="12px" preserveAspectRatio="xMinYMin meet" x="286" y="-360"/>
<text text-anchor="start" x="305" y="-351.2" font-family="Helvetica,sans-Serif" font-size="11.00">status</text>
<polygon fill="none" stroke="black" points="281,-321 281,-343 443,-343 443,-321 281,-321"/>
<image xlink:href="../../images/foreignKeys.png" width="11px" height="12px" preserveAspectRatio="xMinYMin meet" x="286" y="-338"/>
<text text-anchor="start" x="305" y="-329.2" font-family="Helvetica,sans-Serif" font-size="11.00">function</text>
<polygon fill="none" stroke="black" points="281,-299 281,-321 443,-321 443,-299 281,-299"/>
<image xlink:href="../../images/foreignKeys.png" width="11px" height="12px" preserveAspectRatio="xMinYMin meet" x="286" y="-316"/>
<text text-anchor="start" x="305" y="-307.2" font-family="Helvetica,sans-Serif" font-size="11.00">pipe_type</text>
<polygon fill="none" stroke="black" points="281,-277 281,-299 443,-299 443,-277 281,-277"/>
<image xlink:href="../../images/foreignKeys.png" width="11px" height="12px" preserveAspectRatio="xMinYMin meet" x="286" y="-294"/>
<text text-anchor="start" x="305" y="-285.2" font-family="Helvetica,sans-Serif" font-size="11.00">fluent</text>
<polygon fill="none" stroke="black" points="281,-255 281,-277 443,-277 443,-255 281,-255"/>
<image xlink:href="../../images/foreignKeys.png" width="11px" height="12px" preserveAspectRatio="xMinYMin meet" x="286" y="-272"/>
<text text-anchor="start" x="305" y="-263.2" font-family="Helvetica,sans-Serif" font-size="11.00">insulation_kind</text>
<polygon fill="none" stroke="black" points="281,-233 281,-255 443,-255 443,-233 281,-233"/>
<image xlink:href="../../images/foreignKeys.png" width="11px" height="12px" preserveAspectRatio="xMinYMin meet" x="286" y="-250"/>
<text text-anchor="start" x="305" y="-241.2" font-family="Helvetica,sans-Serif" font-size="11.00">coating</text>
<polygon fill="none" stroke="black" points="281,-211 281,-233 443,-233 443,-211 281,-211"/>
<image xlink:href="../../images/foreignKeys.png" width="11px" height="12px" preserveAspectRatio="xMinYMin meet" x="286" y="-228"/>
<text text-anchor="start" x="305" y="-219.2" font-family="Helvetica,sans-Serif" font-size="11.00">pipeline_quality</text>
<polygon fill="none" stroke="black" points="281,-193 281,-211 443,-211 443,-193 281,-193"/>
<text text-anchor="start" x="284" y="-199.2" font-family="Helvetica,sans-Serif" font-size="11.00">...</text>
<polygon fill="#ffffff" stroke="transparent" points="281,-175 281,-193 346,-193 346,-175 281,-175"/>
<polygon fill="none" stroke="black" points="281,-175 281,-193 346,-193 346,-175 281,-175"/>
<text text-anchor="start" x="284" y="-181.2" font-family="Helvetica,sans-Serif" font-size="11.00">&lt; 8</text>
<polygon fill="#ffffff" stroke="transparent" points="346,-175 346,-193 408,-193 408,-175 346,-175"/>
<polygon fill="none" stroke="black" points="346,-175 346,-193 408,-193 408,-175 346,-175"/>
<text text-anchor="start" x="371" y="-181.2" font-family="Helvetica,sans-Serif" font-size="11.00">0 rows</text>
<polygon fill="#ffffff" stroke="transparent" points="408,-175 408,-193 443,-193 443,-175 408,-175"/>
<polygon fill="none" stroke="black" points="408,-175 408,-193 443,-193 443,-175 408,-175"/>
<text text-anchor="start" x="433" y="-181.2" font-family="Helvetica,sans-Serif" font-size="11.00"> &#160;</text>
</a>
</g>
</g>
<!-- pipe_section_function -->
<g id="node2" class="node">
<title>pipe_section_function</title>
<g id="a_node2"><a xlink:href="../../tables/pipe_section_function.html" xlink:title="pipe_section_function" target="_top">
<polygon fill="#ffffff" stroke="transparent" points="8,-37 8,-367 232,-367 232,-37 8,-37"/>
<polygon fill="#f5f5f5" stroke="transparent" points="10,-343 10,-365 230,-365 230,-343 10,-343"/>
<polygon fill="none" stroke="black" points="10,-343 10,-365 230,-365 230,-343 10,-343"/>
<text text-anchor="start" x="15" y="-352.2" font-family="Helvetica,sans-Serif" font-weight="bold" font-size="11.00">pipe_section_function</text>
<text text-anchor="start" x="191" y="-351.2" font-family="Helvetica,sans-Serif" font-size="11.00">[table]</text>
<polygon fill="none" stroke="black" points="10,-321 10,-343 160,-343 160,-321 10,-321"/>
<image xlink:href="../../images/primaryKeys.png" width="11px" height="12px" preserveAspectRatio="xMinYMin meet" x="15" y="-338"/>
<text text-anchor="start" x="30" y="-329.2" font-family="Helvetica,sans-Serif" font-size="11.00">code</text>
<polygon fill="none" stroke="black" points="160,-321 160,-343 230,-343 230,-321 160,-321"/>
<text text-anchor="start" x="163" y="-329.2" font-family="Helvetica,sans-Serif" font-size="11.00">int4[10]</text>
<polygon fill="none" stroke="black" points="10,-299 10,-321 160,-321 160,-299 10,-299"/>
<text text-anchor="start" x="30" y="-307.2" font-family="Helvetica,sans-Serif" font-size="11.00">vsacode</text>
<polygon fill="none" stroke="black" points="160,-299 160,-321 230,-321 230,-299 160,-299"/>
<text text-anchor="start" x="163" y="-307.2" font-family="Helvetica,sans-Serif" font-size="11.00">int4[10]</text>
<polygon fill="none" stroke="black" points="10,-277 10,-299 160,-299 160,-277 10,-277"/>
<text text-anchor="start" x="30" y="-285.2" font-family="Helvetica,sans-Serif" font-size="11.00">value_en</text>
<polygon fill="none" stroke="black" points="160,-277 160,-299 230,-299 230,-277 160,-277"/>
<text text-anchor="start" x="163" y="-285.2" font-family="Helvetica,sans-Serif" font-size="11.00">varchar[100]</text>
<polygon fill="none" stroke="black" points="10,-255 10,-277 160,-277 160,-255 10,-255"/>
<text text-anchor="start" x="30" y="-263.2" font-family="Helvetica,sans-Serif" font-size="11.00">value_de</text>
<polygon fill="none" stroke="black" points="160,-255 160,-277 230,-277 230,-255 160,-255"/>
<text text-anchor="start" x="163" y="-263.2" font-family="Helvetica,sans-Serif" font-size="11.00">varchar[100]</text>
<polygon fill="none" stroke="black" points="10,-233 10,-255 160,-255 160,-233 10,-233"/>
<text text-anchor="start" x="30" y="-241.2" font-family="Helvetica,sans-Serif" font-size="11.00">value_fr</text>
<polygon fill="none" stroke="black" points="160,-233 160,-255 230,-255 230,-233 160,-233"/>
<text text-anchor="start" x="163" y="-241.2" font-family="Helvetica,sans-Serif" font-size="11.00">varchar[100]</text>
<polygon fill="none" stroke="black" points="10,-211 10,-233 160,-233 160,-211 10,-211"/>
<text text-anchor="start" x="30" y="-219.2" font-family="Helvetica,sans-Serif" font-size="11.00">value_it</text>
<polygon fill="none" stroke="black" points="160,-211 160,-233 230,-233 230,-211 160,-211"/>
<text text-anchor="start" x="163" y="-219.2" font-family="Helvetica,sans-Serif" font-size="11.00">varchar[100]</text>
<polygon fill="none" stroke="black" points="10,-189 10,-211 160,-211 160,-189 10,-189"/>
<text text-anchor="start" x="30" y="-197.2" font-family="Helvetica,sans-Serif" font-size="11.00">value_ro</text>
<polygon fill="none" stroke="black" points="160,-189 160,-211 230,-211 230,-189 160,-189"/>
<text text-anchor="start" x="163" y="-197.2" font-family="Helvetica,sans-Serif" font-size="11.00">varchar[100]</text>
<polygon fill="none" stroke="black" points="10,-167 10,-189 160,-189 160,-167 10,-167"/>
<text text-anchor="start" x="30" y="-175.2" font-family="Helvetica,sans-Serif" font-size="11.00">abbr_en</text>
<polygon fill="none" stroke="black" points="160,-167 160,-189 230,-189 230,-167 160,-167"/>
<text text-anchor="start" x="163" y="-175.2" font-family="Helvetica,sans-Serif" font-size="11.00">varchar[3]</text>
<polygon fill="none" stroke="black" points="10,-145 10,-167 160,-167 160,-145 10,-145"/>
<text text-anchor="start" x="30" y="-153.2" font-family="Helvetica,sans-Serif" font-size="11.00">abbr_de</text>
<polygon fill="none" stroke="black" points="160,-145 160,-167 230,-167 230,-145 160,-145"/>
<text text-anchor="start" x="163" y="-153.2" font-family="Helvetica,sans-Serif" font-size="11.00">varchar[3]</text>
<polygon fill="none" stroke="black" points="10,-123 10,-145 160,-145 160,-123 10,-123"/>
<text text-anchor="start" x="30" y="-131.2" font-family="Helvetica,sans-Serif" font-size="11.00">abbr_fr</text>
<polygon fill="none" stroke="black" points="160,-123 160,-145 230,-145 230,-123 160,-123"/>
<text text-anchor="start" x="163" y="-131.2" font-family="Helvetica,sans-Serif" font-size="11.00">varchar[3]</text>
<polygon fill="none" stroke="black" points="10,-101 10,-123 160,-123 160,-101 10,-101"/>
<text text-anchor="start" x="30" y="-109.2" font-family="Helvetica,sans-Serif" font-size="11.00">abbr_it</text>
<polygon fill="none" stroke="black" points="160,-101 160,-123 230,-123 230,-101 160,-101"/>
<text text-anchor="start" x="163" y="-109.2" font-family="Helvetica,sans-Serif" font-size="11.00">varchar[3]</text>
<polygon fill="none" stroke="black" points="10,-79 10,-101 160,-101 160,-79 10,-79"/>
<text text-anchor="start" x="30" y="-87.2" font-family="Helvetica,sans-Serif" font-size="11.00">abbr_ro</text>
<polygon fill="none" stroke="black" points="160,-79 160,-101 230,-101 230,-79 160,-79"/>
<text text-anchor="start" x="163" y="-87.2" font-family="Helvetica,sans-Serif" font-size="11.00">varchar[3]</text>
<polygon fill="none" stroke="black" points="10,-57 10,-79 160,-79 160,-57 10,-57"/>
<text text-anchor="start" x="30" y="-65.2" font-family="Helvetica,sans-Serif" font-size="11.00">active</text>
<polygon fill="none" stroke="black" points="160,-57 160,-79 230,-79 230,-57 160,-57"/>
<text text-anchor="start" x="163" y="-65.2" font-family="Helvetica,sans-Serif" font-size="11.00">bool[1]</text>
<polygon fill="#ffffff" stroke="transparent" points="10,-39 10,-57 89,-57 89,-39 10,-39"/>
<polygon fill="none" stroke="black" points="10,-39 10,-57 89,-57 89,-39 10,-39"/>
<text text-anchor="start" x="13" y="-45.2" font-family="Helvetica,sans-Serif" font-size="11.00">&lt; 0</text>
<polygon fill="#ffffff" stroke="transparent" points="89,-39 89,-57 160,-57 160,-39 89,-39"/>
<polygon fill="none" stroke="black" points="89,-39 89,-57 160,-57 160,-39 89,-39"/>
<text text-anchor="start" x="150" y="-45.2" font-family="Helvetica,sans-Serif" font-size="11.00"> &#160;</text>
<polygon fill="#ffffff" stroke="transparent" points="160,-39 160,-57 230,-57 230,-39 160,-39"/>
<polygon fill="none" stroke="black" points="160,-39 160,-57 230,-57 230,-39 160,-39"/>
<text text-anchor="start" x="211" y="-45.2" font-family="Helvetica,sans-Serif" font-size="11.00">1 &gt;</text>
<polygon fill="none" stroke="black" stroke-width="2" points="9,-38 9,-366 231,-366 231,-38 9,-38"/>
</a>
</g>
</g>
<!-- tdh_od.pipe_section&#45;&gt;pipe_section_function -->
<g id="edge1" class="edge">
<title>tdh_od.pipe_section:w&#45;&gt;pipe_section_function:e</title>
<path fill="none" stroke="black" d="M265.49,-332C254.18,-332 246.99,-332 231,-332"/>
<polygon fill="black" stroke="black" points="272,-332 280,-335.6 276,-332 280,-332 280,-332 280,-332 276,-332 280,-328.4 272,-332 272,-332"/>
<ellipse fill="none" stroke="black" cx="268.8" cy="-332" rx="3.2" ry="3.2"/>
</g>
</g>
</svg>
