<?xml version="1.0" encoding="UTF-8" standalone="no"?>
<!DOCTYPE svg PUBLIC "-//W3C//DTD SVG 1.1//EN"
 "http://www.w3.org/Graphics/SVG/1.1/DTD/svg11.dtd">
<!-- Generated by graphviz version 2.43.0 (0)
 -->
<!-- Title: oneDegreeRelationshipsDiagram Pages: 1 -->
<svg width="650pt" height="599pt"
 viewBox="0.00 0.00 650.00 599.00" xmlns="http://www.w3.org/2000/svg" xmlns:xlink="http://www.w3.org/1999/xlink">
<g id="graph0" class="graph" transform="scale(1 1) rotate(0) translate(4 595)">
<title>oneDegreeRelationshipsDiagram</title>
<polygon fill="#ffffff" stroke="transparent" points="-4,4 -4,-595 646,-595 646,4 -4,4"/>
<text text-anchor="middle" x="79.5" y="-7.2" font-family="Helvetica,sans-Serif" font-size="11.00">Generated by SchemaSpy</text>
<!-- tdh_od.pipe_point -->
<g id="node1" class="node">
<title>tdh_od.pipe_point</title>
<g id="a_node1"><a xlink:href="../../../tdh_od/tables/pipe_point.html" xlink:title="tdh_od.pipe_point" target="_top">
<polygon fill="#ffffff" stroke="transparent" points="434,-483 434,-585 634,-585 634,-483 434,-483"/>
<polygon fill="#f5f5f5" stroke="transparent" points="434,-563 434,-585 634,-585 634,-563 434,-563"/>
<polygon fill="none" stroke="black" points="434,-563 434,-585 634,-585 634,-563 434,-563"/>
<text text-anchor="start" x="439" y="-572.2" font-family="Helvetica,sans-Serif" font-weight="bold" font-size="11.00">tdh_od.pipe_point</text>
<text text-anchor="start" x="592" y="-571.2" font-family="Helvetica,sans-Serif" font-size="11.00">[table]</text>
<polygon fill="none" stroke="black" points="434,-541 434,-563 634,-563 634,-541 434,-541"/>
<image xlink:href="../../images/foreignKeys.png" width="11px" height="12px" preserveAspectRatio="xMinYMin meet" x="439" y="-558"/>
<text text-anchor="start" x="454" y="-549.2" font-family="Helvetica,sans-Serif" font-size="11.00">horizontal_positioning</text>
<polygon fill="none" stroke="black" points="434,-519 434,-541 634,-541 634,-519 434,-519"/>
<image xlink:href="../../images/foreignKeys.png" width="11px" height="12px" preserveAspectRatio="xMinYMin meet" x="439" y="-536"/>
<text text-anchor="start" x="454" y="-527.2" font-family="Helvetica,sans-Serif" font-size="11.00">elevation_determination</text>
<polygon fill="none" stroke="black" points="434,-501 434,-519 634,-519 634,-501 434,-501"/>
<text text-anchor="start" x="437" y="-507.2" font-family="Helvetica,sans-Serif" font-size="11.00">...</text>
<polygon fill="#ffffff" stroke="transparent" points="434,-483 434,-501 634,-501 634,-483 434,-483"/>
<polygon fill="none" stroke="black" points="434,-483 434,-501 634,-501 634,-483 434,-483"/>
<polygon fill="#ffffff" stroke="transparent" points="435,-484 435,-500 500,-500 500,-484 435,-484"/>
<text text-anchor="start" x="437" y="-489.2" font-family="Helvetica,sans-Serif" font-size="11.00">&lt; 2</text>
<polygon fill="#ffffff" stroke="transparent" points="500,-484 500,-500 581,-500 581,-484 500,-484"/>
<text text-anchor="start" x="522" y="-489.2" font-family="Helvetica,sans-Serif" font-size="11.00">0 rows</text>
<polygon fill="#ffffff" stroke="transparent" points="581,-484 581,-500 633,-500 633,-484 581,-484"/>
<text text-anchor="start" x="623" y="-489.2" font-family="Helvetica,sans-Serif" font-size="11.00"> &#160;</text>
<polygon fill="black" stroke="black" points="500,-484 500,-500 500,-500 500,-484 500,-484"/>
<polygon fill="black" stroke="black" points="581,-484 581,-500 581,-500 581,-484 581,-484"/>
</a>
</g>
</g>
<!-- pipe_point_horizontal_positioning -->
<g id="node2" class="node">
<title>pipe_point_horizontal_positioning</title>
<g id="a_node2"><a xlink:href="../../tables/pipe_point_horizontal_positioning.html" xlink:title="pipe_point_horizontal_positioning" target="_top">
<polygon fill="#ffffff" stroke="transparent" points="8,-37 8,-587 385,-587 385,-37 8,-37"/>
<polygon fill="#f5f5f5" stroke="transparent" points="10.5,-563 10.5,-585 383.5,-585 383.5,-563 10.5,-563"/>
<polygon fill="none" stroke="black" points="10.5,-563 10.5,-585 383.5,-585 383.5,-563 10.5,-563"/>
<text text-anchor="start" x="15.5" y="-572.2" font-family="Helvetica,sans-Serif" font-weight="bold" font-size="11.00">pipe_point_horizontal_positioning</text>
<text text-anchor="start" x="341.5" y="-571.2" font-family="Helvetica,sans-Serif" font-size="11.00">[table]</text>
<polygon fill="none" stroke="black" points="10.5,-541 10.5,-563 277.5,-563 277.5,-541 10.5,-541"/>
<image xlink:href="../../images/primaryKeys.png" width="11px" height="12px" preserveAspectRatio="xMinYMin meet" x="15.5" y="-558"/>
<text text-anchor="start" x="30.5" y="-549.2" font-family="Helvetica,sans-Serif" font-size="11.00">code</text>
<polygon fill="none" stroke="black" points="277.5,-541 277.5,-563 383.5,-563 383.5,-541 277.5,-541"/>
<text text-anchor="start" x="280.5" y="-549.2" font-family="Helvetica,sans-Serif" font-size="11.00">int4[10]</text>
<polygon fill="none" stroke="black" points="10.5,-519 10.5,-541 277.5,-541 277.5,-519 10.5,-519"/>
<text text-anchor="start" x="30.5" y="-527.2" font-family="Helvetica,sans-Serif" font-size="11.00">vsacode</text>
<polygon fill="none" stroke="black" points="277.5,-519 277.5,-541 383.5,-541 383.5,-519 277.5,-519"/>
<text text-anchor="start" x="280.5" y="-527.2" font-family="Helvetica,sans-Serif" font-size="11.00">int4[10]</text>
<polygon fill="none" stroke="black" points="10.5,-497 10.5,-519 277.5,-519 277.5,-497 10.5,-497"/>
<text text-anchor="start" x="30.5" y="-505.2" font-family="Helvetica,sans-Serif" font-size="11.00">value_en</text>
<polygon fill="none" stroke="black" points="277.5,-497 277.5,-519 383.5,-519 383.5,-497 277.5,-497"/>
<text text-anchor="start" x="280.5" y="-505.2" font-family="Helvetica,sans-Serif" font-size="11.00">varchar[100]</text>
<polygon fill="none" stroke="black" points="10.5,-475 10.5,-497 277.5,-497 277.5,-475 10.5,-475"/>
<text text-anchor="start" x="30.5" y="-483.2" font-family="Helvetica,sans-Serif" font-size="11.00">value_de</text>
<polygon fill="none" stroke="black" points="277.5,-475 277.5,-497 383.5,-497 383.5,-475 277.5,-475"/>
<text text-anchor="start" x="280.5" y="-483.2" font-family="Helvetica,sans-Serif" font-size="11.00">varchar[100]</text>
<polygon fill="none" stroke="black" points="10.5,-453 10.5,-475 277.5,-475 277.5,-453 10.5,-453"/>
<text text-anchor="start" x="30.5" y="-461.2" font-family="Helvetica,sans-Serif" font-size="11.00">value_fr</text>
<polygon fill="none" stroke="black" points="277.5,-453 277.5,-475 383.5,-475 383.5,-453 277.5,-453"/>
<text text-anchor="start" x="280.5" y="-461.2" font-family="Helvetica,sans-Serif" font-size="11.00">varchar[100]</text>
<polygon fill="none" stroke="black" points="10.5,-431 10.5,-453 277.5,-453 277.5,-431 10.5,-431"/>
<text text-anchor="start" x="30.5" y="-439.2" font-family="Helvetica,sans-Serif" font-size="11.00">value_it</text>
<polygon fill="none" stroke="black" points="277.5,-431 277.5,-453 383.5,-453 383.5,-431 277.5,-431"/>
<text text-anchor="start" x="280.5" y="-439.2" font-family="Helvetica,sans-Serif" font-size="11.00">varchar[100]</text>
<polygon fill="none" stroke="black" points="10.5,-409 10.5,-431 277.5,-431 277.5,-409 10.5,-409"/>
<text text-anchor="start" x="30.5" y="-417.2" font-family="Helvetica,sans-Serif" font-size="11.00">value_ro</text>
<polygon fill="none" stroke="black" points="277.5,-409 277.5,-431 383.5,-431 383.5,-409 277.5,-409"/>
<text text-anchor="start" x="280.5" y="-417.2" font-family="Helvetica,sans-Serif" font-size="11.00">varchar[100]</text>
<polygon fill="none" stroke="black" points="10.5,-387 10.5,-409 277.5,-409 277.5,-387 10.5,-387"/>
<text text-anchor="start" x="30.5" y="-395.2" font-family="Helvetica,sans-Serif" font-size="11.00">abbr_en</text>
<polygon fill="none" stroke="black" points="277.5,-387 277.5,-409 383.5,-409 383.5,-387 277.5,-387"/>
<text text-anchor="start" x="280.5" y="-395.2" font-family="Helvetica,sans-Serif" font-size="11.00">varchar[3]</text>
<polygon fill="none" stroke="black" points="10.5,-365 10.5,-387 277.5,-387 277.5,-365 10.5,-365"/>
<text text-anchor="start" x="30.5" y="-373.2" font-family="Helvetica,sans-Serif" font-size="11.00">abbr_de</text>
<polygon fill="none" stroke="black" points="277.5,-365 277.5,-387 383.5,-387 383.5,-365 277.5,-365"/>
<text text-anchor="start" x="280.5" y="-373.2" font-family="Helvetica,sans-Serif" font-size="11.00">varchar[3]</text>
<polygon fill="none" stroke="black" points="10.5,-343 10.5,-365 277.5,-365 277.5,-343 10.5,-343"/>
<text text-anchor="start" x="30.5" y="-351.2" font-family="Helvetica,sans-Serif" font-size="11.00">abbr_fr</text>
<polygon fill="none" stroke="black" points="277.5,-343 277.5,-365 383.5,-365 383.5,-343 277.5,-343"/>
<text text-anchor="start" x="280.5" y="-351.2" font-family="Helvetica,sans-Serif" font-size="11.00">varchar[3]</text>
<polygon fill="none" stroke="black" points="10.5,-321 10.5,-343 277.5,-343 277.5,-321 10.5,-321"/>
<text text-anchor="start" x="30.5" y="-329.2" font-family="Helvetica,sans-Serif" font-size="11.00">abbr_it</text>
<polygon fill="none" stroke="black" points="277.5,-321 277.5,-343 383.5,-343 383.5,-321 277.5,-321"/>
<text text-anchor="start" x="280.5" y="-329.2" font-family="Helvetica,sans-Serif" font-size="11.00">varchar[3]</text>
<polygon fill="none" stroke="black" points="10.5,-299 10.5,-321 277.5,-321 277.5,-299 10.5,-299"/>
<text text-anchor="start" x="30.5" y="-307.2" font-family="Helvetica,sans-Serif" font-size="11.00">abbr_ro</text>
<polygon fill="none" stroke="black" points="277.5,-299 277.5,-321 383.5,-321 383.5,-299 277.5,-299"/>
<text text-anchor="start" x="280.5" y="-307.2" font-family="Helvetica,sans-Serif" font-size="11.00">varchar[3]</text>
<polygon fill="none" stroke="black" points="10.5,-277 10.5,-299 277.5,-299 277.5,-277 10.5,-277"/>
<text text-anchor="start" x="30.5" y="-285.2" font-family="Helvetica,sans-Serif" font-size="11.00">description_en</text>
<polygon fill="none" stroke="black" points="277.5,-277 277.5,-299 383.5,-299 383.5,-277 277.5,-277"/>
<text text-anchor="start" x="280.5" y="-285.2" font-family="Helvetica,sans-Serif" font-size="11.00">text[2147483647]</text>
<polygon fill="none" stroke="black" points="10.5,-255 10.5,-277 277.5,-277 277.5,-255 10.5,-255"/>
<text text-anchor="start" x="30.5" y="-263.2" font-family="Helvetica,sans-Serif" font-size="11.00">description_de</text>
<polygon fill="none" stroke="black" points="277.5,-255 277.5,-277 383.5,-277 383.5,-255 277.5,-255"/>
<text text-anchor="start" x="280.5" y="-263.2" font-family="Helvetica,sans-Serif" font-size="11.00">text[2147483647]</text>
<polygon fill="none" stroke="black" points="10.5,-233 10.5,-255 277.5,-255 277.5,-233 10.5,-233"/>
<text text-anchor="start" x="30.5" y="-241.2" font-family="Helvetica,sans-Serif" font-size="11.00">description_fr</text>
<polygon fill="none" stroke="black" points="277.5,-233 277.5,-255 383.5,-255 383.5,-233 277.5,-233"/>
<text text-anchor="start" x="280.5" y="-241.2" font-family="Helvetica,sans-Serif" font-size="11.00">text[2147483647]</text>
<polygon fill="none" stroke="black" points="10.5,-211 10.5,-233 277.5,-233 277.5,-211 10.5,-211"/>
<text text-anchor="start" x="30.5" y="-219.2" font-family="Helvetica,sans-Serif" font-size="11.00">description_it</text>
<polygon fill="none" stroke="black" points="277.5,-211 277.5,-233 383.5,-233 383.5,-211 277.5,-211"/>
<text text-anchor="start" x="280.5" y="-219.2" font-family="Helvetica,sans-Serif" font-size="11.00">text[2147483647]</text>
<polygon fill="none" stroke="black" points="10.5,-189 10.5,-211 277.5,-211 277.5,-189 10.5,-189"/>
<text text-anchor="start" x="30.5" y="-197.2" font-family="Helvetica,sans-Serif" font-size="11.00">description_ro</text>
<polygon fill="none" stroke="black" points="277.5,-189 277.5,-211 383.5,-211 383.5,-189 277.5,-189"/>
<text text-anchor="start" x="280.5" y="-197.2" font-family="Helvetica,sans-Serif" font-size="11.00">text[2147483647]</text>
<polygon fill="none" stroke="black" points="10.5,-167 10.5,-189 277.5,-189 277.5,-167 10.5,-167"/>
<text text-anchor="start" x="30.5" y="-175.2" font-family="Helvetica,sans-Serif" font-size="11.00">display_en</text>
<polygon fill="none" stroke="black" points="277.5,-167 277.5,-189 383.5,-189 383.5,-167 277.5,-167"/>
<text text-anchor="start" x="280.5" y="-175.2" font-family="Helvetica,sans-Serif" font-size="11.00">varchar[100]</text>
<polygon fill="none" stroke="black" points="10.5,-145 10.5,-167 277.5,-167 277.5,-145 10.5,-145"/>
<text text-anchor="start" x="30.5" y="-153.2" font-family="Helvetica,sans-Serif" font-size="11.00">display_de</text>
<polygon fill="none" stroke="black" points="277.5,-145 277.5,-167 383.5,-167 383.5,-145 277.5,-145"/>
<text text-anchor="start" x="280.5" y="-153.2" font-family="Helvetica,sans-Serif" font-size="11.00">varchar[100]</text>
<polygon fill="none" stroke="black" points="10.5,-123 10.5,-145 277.5,-145 277.5,-123 10.5,-123"/>
<text text-anchor="start" x="30.5" y="-131.2" font-family="Helvetica,sans-Serif" font-size="11.00">display_fr</text>
<polygon fill="none" stroke="black" points="277.5,-123 277.5,-145 383.5,-145 383.5,-123 277.5,-123"/>
<text text-anchor="start" x="280.5" y="-131.2" font-family="Helvetica,sans-Serif" font-size="11.00">varchar[100]</text>
<polygon fill="none" stroke="black" points="10.5,-101 10.5,-123 277.5,-123 277.5,-101 10.5,-101"/>
<text text-anchor="start" x="30.5" y="-109.2" font-family="Helvetica,sans-Serif" font-size="11.00">display_it</text>
<polygon fill="none" stroke="black" points="277.5,-101 277.5,-123 383.5,-123 383.5,-101 277.5,-101"/>
<text text-anchor="start" x="280.5" y="-109.2" font-family="Helvetica,sans-Serif" font-size="11.00">varchar[100]</text>
<polygon fill="none" stroke="black" points="10.5,-79 10.5,-101 277.5,-101 277.5,-79 10.5,-79"/>
<text text-anchor="start" x="30.5" y="-87.2" font-family="Helvetica,sans-Serif" font-size="11.00">display_ro</text>
<polygon fill="none" stroke="black" points="277.5,-79 277.5,-101 383.5,-101 383.5,-79 277.5,-79"/>
<text text-anchor="start" x="280.5" y="-87.2" font-family="Helvetica,sans-Serif" font-size="11.00">varchar[100]</text>
<polygon fill="none" stroke="black" points="10.5,-57 10.5,-79 277.5,-79 277.5,-57 10.5,-57"/>
<text text-anchor="start" x="30.5" y="-65.2" font-family="Helvetica,sans-Serif" font-size="11.00">active</text>
<polygon fill="none" stroke="black" points="277.5,-57 277.5,-79 383.5,-79 383.5,-57 277.5,-57"/>
<text text-anchor="start" x="280.5" y="-65.2" font-family="Helvetica,sans-Serif" font-size="11.00">bool[1]</text>
<polygon fill="#ffffff" stroke="transparent" points="10.5,-39 10.5,-57 383.5,-57 383.5,-39 10.5,-39"/>
<polygon fill="none" stroke="black" points="10.5,-39 10.5,-57 383.5,-57 383.5,-39 10.5,-39"/>
<polygon fill="#ffffff" stroke="transparent" points="11.5,-40 11.5,-56 139.5,-56 139.5,-40 11.5,-40"/>
<text text-anchor="start" x="13.5" y="-45.2" font-family="Helvetica,sans-Serif" font-size="11.00">&lt; 0</text>
<polygon fill="#ffffff" stroke="transparent" points="139.5,-40 139.5,-56 255.5,-56 255.5,-40 139.5,-40"/>
<text text-anchor="start" x="193.5" y="-45.2" font-family="Helvetica,sans-Serif" font-size="11.00"> &#160;</text>
<polygon fill="#ffffff" stroke="transparent" points="255.5,-40 255.5,-56 382.5,-56 382.5,-40 255.5,-40"/>
<text text-anchor="start" x="360.5" y="-45.2" font-family="Helvetica,sans-Serif" font-size="11.00">1 &gt;</text>
<polygon fill="black" stroke="black" points="139.5,-40 139.5,-56 139.5,-56 139.5,-40 139.5,-40"/>
<polygon fill="black" stroke="black" points="255.5,-40 255.5,-56 255.5,-56 255.5,-40 255.5,-40"/>
<polygon fill="none" stroke="black" stroke-width="2" points="9,-38 9,-586 384,-586 384,-38 9,-38"/>
</a>
</g>
</g>
<!-- tdh_od.pipe_point&#45;&gt;pipe_point_horizontal_positioning -->
<g id="edge1" class="edge">
<title>tdh_od.pipe_point:w&#45;&gt;pipe_point_horizontal_positioning:e</title>
<path fill="none" stroke="black" d="M418.28,-552C407.29,-552 400.16,-552 384.5,-552"/>
<polygon fill="black" stroke="black" points="425,-552 433,-555.6 429,-552 433,-552 433,-552 433,-552 429,-552 433,-548.4 425,-552 425,-552"/>
<ellipse fill="none" stroke="black" cx="421.8" cy="-552" rx="3.2" ry="3.2"/>
</g>
</g>
</svg>
