<?xml version="1.0" encoding="UTF-8" standalone="no"?>
<!DOCTYPE svg PUBLIC "-//W3C//DTD SVG 1.1//EN"
 "http://www.w3.org/Graphics/SVG/1.1/DTD/svg11.dtd">
<!-- Generated by graphviz version 2.43.0 (0)
 -->
<!-- Title: oneDegreeRelationshipsDiagram Pages: 1 -->
<svg width="526pt" height="421pt"
 viewBox="0.00 0.00 526.00 421.00" xmlns="http://www.w3.org/2000/svg" xmlns:xlink="http://www.w3.org/1999/xlink">
<g id="graph0" class="graph" transform="scale(1 1) rotate(0) translate(4 417)">
<title>oneDegreeRelationshipsDiagram</title>
<polygon fill="#ffffff" stroke="transparent" points="-4,4 -4,-417 522,-417 522,4 -4,4"/>
<text text-anchor="middle" x="79.5" y="-7.2" font-family="Helvetica,sans-Serif" font-size="11.00">Generated by SchemaSpy</text>
<!-- tdh_od.pipe_section -->
<g id="node1" class="node">
<title>tdh_od.pipe_section</title>
<g id="a_node1"><a xlink:href="../../../tdh_od/tables/pipe_section.html" xlink:title="tdh_od.pipe_section" target="_top">
<polygon fill="#ffffff" stroke="transparent" points="318,-175 318,-409 510,-409 510,-175 318,-175"/>
<polygon fill="#f5f5f5" stroke="transparent" points="318,-387 318,-409 510,-409 510,-387 318,-387"/>
<polygon fill="none" stroke="black" points="318,-387 318,-409 510,-409 510,-387 318,-387"/>
<text text-anchor="start" x="323" y="-396.2" font-family="Helvetica,sans-Serif" font-weight="bold" font-size="11.00">tdh_od.pipe_section</text>
<text text-anchor="start" x="468" y="-395.2" font-family="Helvetica,sans-Serif" font-size="11.00">[table]</text>
<polygon fill="none" stroke="black" points="318,-365 318,-387 510,-387 510,-365 318,-365"/>
<image xlink:href="../../images/foreignKeys.png" width="11px" height="12px" preserveAspectRatio="xMinYMin meet" x="323" y="-382"/>
<text text-anchor="start" x="341" y="-373.2" font-family="Helvetica,sans-Serif" font-size="11.00">horizontal_positioning</text>
<polygon fill="none" stroke="black" points="318,-343 318,-365 510,-365 510,-343 318,-343"/>
<image xlink:href="../../images/foreignKeys.png" width="11px" height="12px" preserveAspectRatio="xMinYMin meet" x="323" y="-360"/>
<text text-anchor="start" x="341" y="-351.2" font-family="Helvetica,sans-Serif" font-size="11.00">status</text>
<polygon fill="none" stroke="black" points="318,-321 318,-343 510,-343 510,-321 318,-321"/>
<image xlink:href="../../images/foreignKeys.png" width="11px" height="12px" preserveAspectRatio="xMinYMin meet" x="323" y="-338"/>
<text text-anchor="start" x="341" y="-329.2" font-family="Helvetica,sans-Serif" font-size="11.00">function</text>
<polygon fill="none" stroke="black" points="318,-299 318,-321 510,-321 510,-299 318,-299"/>
<image xlink:href="../../images/foreignKeys.png" width="11px" height="12px" preserveAspectRatio="xMinYMin meet" x="323" y="-316"/>
<text text-anchor="start" x="341" y="-307.2" font-family="Helvetica,sans-Serif" font-size="11.00">pipe_type</text>
<polygon fill="none" stroke="black" points="318,-277 318,-299 510,-299 510,-277 318,-277"/>
<image xlink:href="../../images/foreignKeys.png" width="11px" height="12px" preserveAspectRatio="xMinYMin meet" x="323" y="-294"/>
<text text-anchor="start" x="341" y="-285.2" font-family="Helvetica,sans-Serif" font-size="11.00">fluent</text>
<polygon fill="none" stroke="black" points="318,-255 318,-277 510,-277 510,-255 318,-255"/>
<image xlink:href="../../images/foreignKeys.png" width="11px" height="12px" preserveAspectRatio="xMinYMin meet" x="323" y="-272"/>
<text text-anchor="start" x="341" y="-263.2" font-family="Helvetica,sans-Serif" font-size="11.00">insulation_kind</text>
<polygon fill="none" stroke="black" points="318,-233 318,-255 510,-255 510,-233 318,-233"/>
<image xlink:href="../../images/foreignKeys.png" width="11px" height="12px" preserveAspectRatio="xMinYMin meet" x="323" y="-250"/>
<text text-anchor="start" x="341" y="-241.2" font-family="Helvetica,sans-Serif" font-size="11.00">coating</text>
<polygon fill="none" stroke="black" points="318,-211 318,-233 510,-233 510,-211 318,-211"/>
<image xlink:href="../../images/foreignKeys.png" width="11px" height="12px" preserveAspectRatio="xMinYMin meet" x="323" y="-228"/>
<text text-anchor="start" x="341" y="-219.2" font-family="Helvetica,sans-Serif" font-size="11.00">pipeline_quality</text>
<polygon fill="none" stroke="black" points="318,-193 318,-211 510,-211 510,-193 318,-193"/>
<text text-anchor="start" x="321" y="-199.2" font-family="Helvetica,sans-Serif" font-size="11.00">...</text>
<polygon fill="#ffffff" stroke="transparent" points="318,-175 318,-193 510,-193 510,-175 318,-175"/>
<polygon fill="none" stroke="black" points="318,-175 318,-193 510,-193 510,-175 318,-175"/>
<polygon fill="#ffffff" stroke="transparent" points="319,-176 319,-192 381,-192 381,-176 319,-176"/>
<text text-anchor="start" x="321" y="-181.2" font-family="Helvetica,sans-Serif" font-size="11.00">&lt; 8</text>
<polygon fill="#ffffff" stroke="transparent" points="381,-176 381,-192 460,-192 460,-176 381,-176"/>
<text text-anchor="start" x="402" y="-181.2" font-family="Helvetica,sans-Serif" font-size="11.00">0 rows</text>
<polygon fill="#ffffff" stroke="transparent" points="460,-176 460,-192 509,-192 509,-176 460,-176"/>
<text text-anchor="start" x="499" y="-181.2" font-family="Helvetica,sans-Serif" font-size="11.00"> &#160;</text>
<polygon fill="black" stroke="black" points="381,-176 381,-192 381,-192 381,-176 381,-176"/>
<polygon fill="black" stroke="black" points="460,-176 460,-192 460,-192 460,-176 460,-176"/>
</a>
</g>
</g>
<!-- pipe_section_function -->
<g id="node2" class="node">
<title>pipe_section_function</title>
<g id="a_node2"><a xlink:href="../../tables/pipe_section_function.html" xlink:title="pipe_section_function" target="_top">
<polygon fill="#ffffff" stroke="transparent" points="8,-37 8,-367 269,-367 269,-37 8,-37"/>
<polygon fill="#f5f5f5" stroke="transparent" points="10.5,-343 10.5,-365 267.5,-365 267.5,-343 10.5,-343"/>
<polygon fill="none" stroke="black" points="10.5,-343 10.5,-365 267.5,-365 267.5,-343 10.5,-343"/>
<text text-anchor="start" x="15.5" y="-352.2" font-family="Helvetica,sans-Serif" font-weight="bold" font-size="11.00">pipe_section_function</text>
<text text-anchor="start" x="225.5" y="-351.2" font-family="Helvetica,sans-Serif" font-size="11.00">[table]</text>
<polygon fill="none" stroke="black" points="10.5,-321 10.5,-343 189.5,-343 189.5,-321 10.5,-321"/>
<image xlink:href="../../images/primaryKeys.png" width="11px" height="12px" preserveAspectRatio="xMinYMin meet" x="15.5" y="-338"/>
<text text-anchor="start" x="30.5" y="-329.2" font-family="Helvetica,sans-Serif" font-size="11.00">code</text>
<polygon fill="none" stroke="black" points="189.5,-321 189.5,-343 267.5,-343 267.5,-321 189.5,-321"/>
<text text-anchor="start" x="192.5" y="-329.2" font-family="Helvetica,sans-Serif" font-size="11.00">int4[10]</text>
<polygon fill="none" stroke="black" points="10.5,-299 10.5,-321 189.5,-321 189.5,-299 10.5,-299"/>
<text text-anchor="start" x="30.5" y="-307.2" font-family="Helvetica,sans-Serif" font-size="11.00">vsacode</text>
<polygon fill="none" stroke="black" points="189.5,-299 189.5,-321 267.5,-321 267.5,-299 189.5,-299"/>
<text text-anchor="start" x="192.5" y="-307.2" font-family="Helvetica,sans-Serif" font-size="11.00">int4[10]</text>
<polygon fill="none" stroke="black" points="10.5,-277 10.5,-299 189.5,-299 189.5,-277 10.5,-277"/>
<text text-anchor="start" x="30.5" y="-285.2" font-family="Helvetica,sans-Serif" font-size="11.00">value_en</text>
<polygon fill="none" stroke="black" points="189.5,-277 189.5,-299 267.5,-299 267.5,-277 189.5,-277"/>
<text text-anchor="start" x="192.5" y="-285.2" font-family="Helvetica,sans-Serif" font-size="11.00">varchar[100]</text>
<polygon fill="none" stroke="black" points="10.5,-255 10.5,-277 189.5,-277 189.5,-255 10.5,-255"/>
<text text-anchor="start" x="30.5" y="-263.2" font-family="Helvetica,sans-Serif" font-size="11.00">value_de</text>
<polygon fill="none" stroke="black" points="189.5,-255 189.5,-277 267.5,-277 267.5,-255 189.5,-255"/>
<text text-anchor="start" x="192.5" y="-263.2" font-family="Helvetica,sans-Serif" font-size="11.00">varchar[100]</text>
<polygon fill="none" stroke="black" points="10.5,-233 10.5,-255 189.5,-255 189.5,-233 10.5,-233"/>
<text text-anchor="start" x="30.5" y="-241.2" font-family="Helvetica,sans-Serif" font-size="11.00">value_fr</text>
<polygon fill="none" stroke="black" points="189.5,-233 189.5,-255 267.5,-255 267.5,-233 189.5,-233"/>
<text text-anchor="start" x="192.5" y="-241.2" font-family="Helvetica,sans-Serif" font-size="11.00">varchar[100]</text>
<polygon fill="none" stroke="black" points="10.5,-211 10.5,-233 189.5,-233 189.5,-211 10.5,-211"/>
<text text-anchor="start" x="30.5" y="-219.2" font-family="Helvetica,sans-Serif" font-size="11.00">value_it</text>
<polygon fill="none" stroke="black" points="189.5,-211 189.5,-233 267.5,-233 267.5,-211 189.5,-211"/>
<text text-anchor="start" x="192.5" y="-219.2" font-family="Helvetica,sans-Serif" font-size="11.00">varchar[100]</text>
<polygon fill="none" stroke="black" points="10.5,-189 10.5,-211 189.5,-211 189.5,-189 10.5,-189"/>
<text text-anchor="start" x="30.5" y="-197.2" font-family="Helvetica,sans-Serif" font-size="11.00">value_ro</text>
<polygon fill="none" stroke="black" points="189.5,-189 189.5,-211 267.5,-211 267.5,-189 189.5,-189"/>
<text text-anchor="start" x="192.5" y="-197.2" font-family="Helvetica,sans-Serif" font-size="11.00">varchar[100]</text>
<polygon fill="none" stroke="black" points="10.5,-167 10.5,-189 189.5,-189 189.5,-167 10.5,-167"/>
<text text-anchor="start" x="30.5" y="-175.2" font-family="Helvetica,sans-Serif" font-size="11.00">abbr_en</text>
<polygon fill="none" stroke="black" points="189.5,-167 189.5,-189 267.5,-189 267.5,-167 189.5,-167"/>
<text text-anchor="start" x="192.5" y="-175.2" font-family="Helvetica,sans-Serif" font-size="11.00">varchar[3]</text>
<polygon fill="none" stroke="black" points="10.5,-145 10.5,-167 189.5,-167 189.5,-145 10.5,-145"/>
<text text-anchor="start" x="30.5" y="-153.2" font-family="Helvetica,sans-Serif" font-size="11.00">abbr_de</text>
<polygon fill="none" stroke="black" points="189.5,-145 189.5,-167 267.5,-167 267.5,-145 189.5,-145"/>
<text text-anchor="start" x="192.5" y="-153.2" font-family="Helvetica,sans-Serif" font-size="11.00">varchar[3]</text>
<polygon fill="none" stroke="black" points="10.5,-123 10.5,-145 189.5,-145 189.5,-123 10.5,-123"/>
<text text-anchor="start" x="30.5" y="-131.2" font-family="Helvetica,sans-Serif" font-size="11.00">abbr_fr</text>
<polygon fill="none" stroke="black" points="189.5,-123 189.5,-145 267.5,-145 267.5,-123 189.5,-123"/>
<text text-anchor="start" x="192.5" y="-131.2" font-family="Helvetica,sans-Serif" font-size="11.00">varchar[3]</text>
<polygon fill="none" stroke="black" points="10.5,-101 10.5,-123 189.5,-123 189.5,-101 10.5,-101"/>
<text text-anchor="start" x="30.5" y="-109.2" font-family="Helvetica,sans-Serif" font-size="11.00">abbr_it</text>
<polygon fill="none" stroke="black" points="189.5,-101 189.5,-123 267.5,-123 267.5,-101 189.5,-101"/>
<text text-anchor="start" x="192.5" y="-109.2" font-family="Helvetica,sans-Serif" font-size="11.00">varchar[3]</text>
<polygon fill="none" stroke="black" points="10.5,-79 10.5,-101 189.5,-101 189.5,-79 10.5,-79"/>
<text text-anchor="start" x="30.5" y="-87.2" font-family="Helvetica,sans-Serif" font-size="11.00">abbr_ro</text>
<polygon fill="none" stroke="black" points="189.5,-79 189.5,-101 267.5,-101 267.5,-79 189.5,-79"/>
<text text-anchor="start" x="192.5" y="-87.2" font-family="Helvetica,sans-Serif" font-size="11.00">varchar[3]</text>
<polygon fill="none" stroke="black" points="10.5,-57 10.5,-79 189.5,-79 189.5,-57 10.5,-57"/>
<text text-anchor="start" x="30.5" y="-65.2" font-family="Helvetica,sans-Serif" font-size="11.00">active</text>
<polygon fill="none" stroke="black" points="189.5,-57 189.5,-79 267.5,-79 267.5,-57 189.5,-57"/>
<text text-anchor="start" x="192.5" y="-65.2" font-family="Helvetica,sans-Serif" font-size="11.00">bool[1]</text>
<polygon fill="#ffffff" stroke="transparent" points="10.5,-39 10.5,-57 267.5,-57 267.5,-39 10.5,-39"/>
<polygon fill="none" stroke="black" points="10.5,-39 10.5,-57 267.5,-57 267.5,-39 10.5,-39"/>
<polygon fill="#ffffff" stroke="transparent" points="11.5,-40 11.5,-56 100.5,-56 100.5,-40 11.5,-40"/>
<text text-anchor="start" x="13.5" y="-45.2" font-family="Helvetica,sans-Serif" font-size="11.00">&lt; 0</text>
<polygon fill="#ffffff" stroke="transparent" points="100.5,-40 100.5,-56 177.5,-56 177.5,-40 100.5,-40"/>
<text text-anchor="start" x="135" y="-45.2" font-family="Helvetica,sans-Serif" font-size="11.00"> &#160;</text>
<polygon fill="#ffffff" stroke="transparent" points="177.5,-40 177.5,-56 266.5,-56 266.5,-40 177.5,-40"/>
<text text-anchor="start" x="244.5" y="-45.2" font-family="Helvetica,sans-Serif" font-size="11.00">1 &gt;</text>
<polygon fill="black" stroke="black" points="100.5,-40 100.5,-56 100.5,-56 100.5,-40 100.5,-40"/>
<polygon fill="black" stroke="black" points="177.5,-40 177.5,-56 177.5,-56 177.5,-40 177.5,-40"/>
<polygon fill="none" stroke="black" stroke-width="2" points="9,-38 9,-366 268,-366 268,-38 9,-38"/>
</a>
</g>
</g>
<!-- tdh_od.pipe_section&#45;&gt;pipe_section_function -->
<g id="edge1" class="edge">
<title>tdh_od.pipe_section:w&#45;&gt;pipe_section_function:e</title>
<path fill="none" stroke="black" d="M302.28,-332C291.29,-332 284.16,-332 268.5,-332"/>
<polygon fill="black" stroke="black" points="309,-332 317,-335.6 313,-332 317,-332 317,-332 317,-332 313,-332 317,-328.4 309,-332 309,-332"/>
<ellipse fill="none" stroke="black" cx="305.8" cy="-332" rx="3.2" ry="3.2"/>
</g>
</g>
</svg>
