<?xml version="1.0" encoding="UTF-8" standalone="no"?>
<!DOCTYPE svg PUBLIC "-//W3C//DTD SVG 1.1//EN"
 "http://www.w3.org/Graphics/SVG/1.1/DTD/svg11.dtd">
<!-- Generated by graphviz version 2.43.0 (0)
 -->
<!-- Title: oneDegreeRelationshipsDiagram Pages: 1 -->
<svg width="583pt" height="379pt"
 viewBox="0.00 0.00 583.00 379.00" xmlns="http://www.w3.org/2000/svg" xmlns:xlink="http://www.w3.org/1999/xlink">
<g id="graph0" class="graph" transform="scale(1 1) rotate(0) translate(4 375)">
<title>oneDegreeRelationshipsDiagram</title>
<polygon fill="#ffffff" stroke="transparent" points="-4,4 -4,-375 579,-375 579,4 -4,4"/>
<text text-anchor="middle" x="79.5" y="-7.2" font-family="Helvetica,sans-Serif" font-size="11.00">Generated by SchemaSpy</text>
<!-- tdh_od.pipe_point_normal -->
<g id="node1" class="node">
<title>tdh_od.pipe_point_normal</title>
<g id="a_node1"><a xlink:href="../../../tdh_od/tables/pipe_point_normal.html" xlink:title="tdh_od.pipe_point_normal" target="_top">
<polygon fill="#ffffff" stroke="transparent" points="332,-241 332,-365 567,-365 567,-241 332,-241"/>
<polygon fill="#f5f5f5" stroke="transparent" points="332.5,-343 332.5,-365 567.5,-365 567.5,-343 332.5,-343"/>
<polygon fill="none" stroke="black" points="332.5,-343 332.5,-365 567.5,-365 567.5,-343 332.5,-343"/>
<text text-anchor="start" x="337.5" y="-352.2" font-family="Helvetica,sans-Serif" font-weight="bold" font-size="11.00">tdh_od.pipe_point_normal</text>
<text text-anchor="start" x="525.5" y="-351.2" font-family="Helvetica,sans-Serif" font-size="11.00">[table]</text>
<polygon fill="none" stroke="black" points="332.5,-321 332.5,-343 567.5,-343 567.5,-321 332.5,-321"/>
<image xlink:href="../../images/foreignKeys.png" width="11px" height="12px" preserveAspectRatio="xMinYMin meet" x="337.5" y="-338"/>
<text text-anchor="start" x="392.5" y="-329.2" font-family="Helvetica,sans-Serif" font-size="11.00">kind</text>
<polygon fill="none" stroke="black" points="332.5,-299 332.5,-321 567.5,-321 567.5,-299 332.5,-299"/>
<image xlink:href="../../images/foreignKeys.png" width="11px" height="12px" preserveAspectRatio="xMinYMin meet" x="337.5" y="-316"/>
<text text-anchor="start" x="392.5" y="-307.2" font-family="Helvetica,sans-Serif" font-size="11.00">armature_setting</text>
<polygon fill="none" stroke="black" points="332.5,-277 332.5,-299 567.5,-299 567.5,-277 332.5,-277"/>
<image xlink:href="../../images/foreignKeys.png" width="11px" height="12px" preserveAspectRatio="xMinYMin meet" x="337.5" y="-294"/>
<text text-anchor="start" x="392.5" y="-285.2" font-family="Helvetica,sans-Serif" font-size="11.00">material</text>
<polygon fill="none" stroke="black" points="332.5,-259 332.5,-277 567.5,-277 567.5,-259 332.5,-259"/>
<text text-anchor="start" x="335.5" y="-265.2" font-family="Helvetica,sans-Serif" font-size="11.00">...</text>
<polygon fill="#ffffff" stroke="transparent" points="332.5,-241 332.5,-259 567.5,-259 567.5,-241 332.5,-241"/>
<polygon fill="none" stroke="black" points="332.5,-241 332.5,-259 567.5,-259 567.5,-241 332.5,-241"/>
<polygon fill="#ffffff" stroke="transparent" points="333.5,-242 333.5,-258 409.5,-258 409.5,-242 333.5,-242"/>
<text text-anchor="start" x="335.5" y="-247.2" font-family="Helvetica,sans-Serif" font-size="11.00">&lt; 3</text>
<polygon fill="#ffffff" stroke="transparent" points="409.5,-242 409.5,-258 502.5,-258 502.5,-242 409.5,-242"/>
<text text-anchor="start" x="437.5" y="-247.2" font-family="Helvetica,sans-Serif" font-size="11.00">0 rows</text>
<polygon fill="#ffffff" stroke="transparent" points="502.5,-242 502.5,-258 566.5,-258 566.5,-242 502.5,-242"/>
<text text-anchor="start" x="556.5" y="-247.2" font-family="Helvetica,sans-Serif" font-size="11.00"> &#160;</text>
<polygon fill="black" stroke="black" points="409.5,-242 409.5,-258 409.5,-258 409.5,-242 409.5,-242"/>
<polygon fill="black" stroke="black" points="502.5,-242 502.5,-258 502.5,-258 502.5,-242 502.5,-242"/>
</a>
</g>
</g>
<!-- pipe_point_normal_kind -->
<g id="node2" class="node">
<title>pipe_point_normal_kind</title>
<g id="a_node2"><a xlink:href="../../tables/pipe_point_normal_kind.html" xlink:title="pipe_point_normal_kind" target="_top">
<polygon fill="#ffffff" stroke="transparent" points="8,-37 8,-367 283,-367 283,-37 8,-37"/>
<polygon fill="#f5f5f5" stroke="transparent" points="10.5,-343 10.5,-365 281.5,-365 281.5,-343 10.5,-343"/>
<polygon fill="none" stroke="black" points="10.5,-343 10.5,-365 281.5,-365 281.5,-343 10.5,-343"/>
<text text-anchor="start" x="15.5" y="-352.2" font-family="Helvetica,sans-Serif" font-weight="bold" font-size="11.00">pipe_point_normal_kind</text>
<text text-anchor="start" x="239.5" y="-351.2" font-family="Helvetica,sans-Serif" font-size="11.00">[table]</text>
<polygon fill="none" stroke="black" points="10.5,-321 10.5,-343 203.5,-343 203.5,-321 10.5,-321"/>
<image xlink:href="../../images/primaryKeys.png" width="11px" height="12px" preserveAspectRatio="xMinYMin meet" x="15.5" y="-338"/>
<text text-anchor="start" x="30.5" y="-329.2" font-family="Helvetica,sans-Serif" font-size="11.00">code</text>
<polygon fill="none" stroke="black" points="203.5,-321 203.5,-343 281.5,-343 281.5,-321 203.5,-321"/>
<text text-anchor="start" x="206.5" y="-329.2" font-family="Helvetica,sans-Serif" font-size="11.00">int4[10]</text>
<polygon fill="none" stroke="black" points="10.5,-299 10.5,-321 203.5,-321 203.5,-299 10.5,-299"/>
<text text-anchor="start" x="30.5" y="-307.2" font-family="Helvetica,sans-Serif" font-size="11.00">vsacode</text>
<polygon fill="none" stroke="black" points="203.5,-299 203.5,-321 281.5,-321 281.5,-299 203.5,-299"/>
<text text-anchor="start" x="206.5" y="-307.2" font-family="Helvetica,sans-Serif" font-size="11.00">int4[10]</text>
<polygon fill="none" stroke="black" points="10.5,-277 10.5,-299 203.5,-299 203.5,-277 10.5,-277"/>
<text text-anchor="start" x="30.5" y="-285.2" font-family="Helvetica,sans-Serif" font-size="11.00">value_en</text>
<polygon fill="none" stroke="black" points="203.5,-277 203.5,-299 281.5,-299 281.5,-277 203.5,-277"/>
<text text-anchor="start" x="206.5" y="-285.2" font-family="Helvetica,sans-Serif" font-size="11.00">varchar[100]</text>
<polygon fill="none" stroke="black" points="10.5,-255 10.5,-277 203.5,-277 203.5,-255 10.5,-255"/>
<text text-anchor="start" x="30.5" y="-263.2" font-family="Helvetica,sans-Serif" font-size="11.00">value_de</text>
<polygon fill="none" stroke="black" points="203.5,-255 203.5,-277 281.5,-277 281.5,-255 203.5,-255"/>
<text text-anchor="start" x="206.5" y="-263.2" font-family="Helvetica,sans-Serif" font-size="11.00">varchar[100]</text>
<polygon fill="none" stroke="black" points="10.5,-233 10.5,-255 203.5,-255 203.5,-233 10.5,-233"/>
<text text-anchor="start" x="30.5" y="-241.2" font-family="Helvetica,sans-Serif" font-size="11.00">value_fr</text>
<polygon fill="none" stroke="black" points="203.5,-233 203.5,-255 281.5,-255 281.5,-233 203.5,-233"/>
<text text-anchor="start" x="206.5" y="-241.2" font-family="Helvetica,sans-Serif" font-size="11.00">varchar[100]</text>
<polygon fill="none" stroke="black" points="10.5,-211 10.5,-233 203.5,-233 203.5,-211 10.5,-211"/>
<text text-anchor="start" x="30.5" y="-219.2" font-family="Helvetica,sans-Serif" font-size="11.00">value_it</text>
<polygon fill="none" stroke="black" points="203.5,-211 203.5,-233 281.5,-233 281.5,-211 203.5,-211"/>
<text text-anchor="start" x="206.5" y="-219.2" font-family="Helvetica,sans-Serif" font-size="11.00">varchar[100]</text>
<polygon fill="none" stroke="black" points="10.5,-189 10.5,-211 203.5,-211 203.5,-189 10.5,-189"/>
<text text-anchor="start" x="30.5" y="-197.2" font-family="Helvetica,sans-Serif" font-size="11.00">value_ro</text>
<polygon fill="none" stroke="black" points="203.5,-189 203.5,-211 281.5,-211 281.5,-189 203.5,-189"/>
<text text-anchor="start" x="206.5" y="-197.2" font-family="Helvetica,sans-Serif" font-size="11.00">varchar[100]</text>
<polygon fill="none" stroke="black" points="10.5,-167 10.5,-189 203.5,-189 203.5,-167 10.5,-167"/>
<text text-anchor="start" x="30.5" y="-175.2" font-family="Helvetica,sans-Serif" font-size="11.00">abbr_en</text>
<polygon fill="none" stroke="black" points="203.5,-167 203.5,-189 281.5,-189 281.5,-167 203.5,-167"/>
<text text-anchor="start" x="206.5" y="-175.2" font-family="Helvetica,sans-Serif" font-size="11.00">varchar[3]</text>
<polygon fill="none" stroke="black" points="10.5,-145 10.5,-167 203.5,-167 203.5,-145 10.5,-145"/>
<text text-anchor="start" x="30.5" y="-153.2" font-family="Helvetica,sans-Serif" font-size="11.00">abbr_de</text>
<polygon fill="none" stroke="black" points="203.5,-145 203.5,-167 281.5,-167 281.5,-145 203.5,-145"/>
<text text-anchor="start" x="206.5" y="-153.2" font-family="Helvetica,sans-Serif" font-size="11.00">varchar[3]</text>
<polygon fill="none" stroke="black" points="10.5,-123 10.5,-145 203.5,-145 203.5,-123 10.5,-123"/>
<text text-anchor="start" x="30.5" y="-131.2" font-family="Helvetica,sans-Serif" font-size="11.00">abbr_fr</text>
<polygon fill="none" stroke="black" points="203.5,-123 203.5,-145 281.5,-145 281.5,-123 203.5,-123"/>
<text text-anchor="start" x="206.5" y="-131.2" font-family="Helvetica,sans-Serif" font-size="11.00">varchar[3]</text>
<polygon fill="none" stroke="black" points="10.5,-101 10.5,-123 203.5,-123 203.5,-101 10.5,-101"/>
<text text-anchor="start" x="30.5" y="-109.2" font-family="Helvetica,sans-Serif" font-size="11.00">abbr_it</text>
<polygon fill="none" stroke="black" points="203.5,-101 203.5,-123 281.5,-123 281.5,-101 203.5,-101"/>
<text text-anchor="start" x="206.5" y="-109.2" font-family="Helvetica,sans-Serif" font-size="11.00">varchar[3]</text>
<polygon fill="none" stroke="black" points="10.5,-79 10.5,-101 203.5,-101 203.5,-79 10.5,-79"/>
<text text-anchor="start" x="30.5" y="-87.2" font-family="Helvetica,sans-Serif" font-size="11.00">abbr_ro</text>
<polygon fill="none" stroke="black" points="203.5,-79 203.5,-101 281.5,-101 281.5,-79 203.5,-79"/>
<text text-anchor="start" x="206.5" y="-87.2" font-family="Helvetica,sans-Serif" font-size="11.00">varchar[3]</text>
<polygon fill="none" stroke="black" points="10.5,-57 10.5,-79 203.5,-79 203.5,-57 10.5,-57"/>
<text text-anchor="start" x="30.5" y="-65.2" font-family="Helvetica,sans-Serif" font-size="11.00">active</text>
<polygon fill="none" stroke="black" points="203.5,-57 203.5,-79 281.5,-79 281.5,-57 203.5,-57"/>
<text text-anchor="start" x="206.5" y="-65.2" font-family="Helvetica,sans-Serif" font-size="11.00">bool[1]</text>
<polygon fill="#ffffff" stroke="transparent" points="10.5,-39 10.5,-57 281.5,-57 281.5,-39 10.5,-39"/>
<polygon fill="none" stroke="black" points="10.5,-39 10.5,-57 281.5,-57 281.5,-39 10.5,-39"/>
<polygon fill="#ffffff" stroke="transparent" points="11.5,-40 11.5,-56 105.5,-56 105.5,-40 11.5,-40"/>
<text text-anchor="start" x="13.5" y="-45.2" font-family="Helvetica,sans-Serif" font-size="11.00">&lt; 0</text>
<polygon fill="#ffffff" stroke="transparent" points="105.5,-40 105.5,-56 187.5,-56 187.5,-40 105.5,-40"/>
<text text-anchor="start" x="142.5" y="-45.2" font-family="Helvetica,sans-Serif" font-size="11.00"> &#160;</text>
<polygon fill="#ffffff" stroke="transparent" points="187.5,-40 187.5,-56 280.5,-56 280.5,-40 187.5,-40"/>
<text text-anchor="start" x="258.5" y="-45.2" font-family="Helvetica,sans-Serif" font-size="11.00">1 &gt;</text>
<polygon fill="black" stroke="black" points="105.5,-40 105.5,-56 105.5,-56 105.5,-40 105.5,-40"/>
<polygon fill="black" stroke="black" points="187.5,-40 187.5,-56 187.5,-56 187.5,-40 187.5,-40"/>
<polygon fill="none" stroke="black" stroke-width="2" points="9,-38 9,-366 282,-366 282,-38 9,-38"/>
</a>
</g>
</g>
<!-- tdh_od.pipe_point_normal&#45;&gt;pipe_point_normal_kind -->
<g id="edge1" class="edge">
<title>tdh_od.pipe_point_normal:w&#45;&gt;pipe_point_normal_kind:e</title>
<path fill="none" stroke="black" d="M316.99,-332C305.68,-332 298.49,-332 282.5,-332"/>
<polygon fill="black" stroke="black" points="323.5,-332 331.5,-335.6 327.5,-332 331.5,-332 331.5,-332 331.5,-332 327.5,-332 331.5,-328.4 323.5,-332 323.5,-332"/>
<ellipse fill="none" stroke="black" cx="320.3" cy="-332" rx="3.2" ry="3.2"/>
</g>
</g>
</svg>
