<?xml version="1.0" encoding="UTF-8" standalone="no"?>
<!DOCTYPE svg PUBLIC "-//W3C//DTD SVG 1.1//EN"
 "http://www.w3.org/Graphics/SVG/1.1/DTD/svg11.dtd">
<!-- Generated by graphviz version 2.47.1 (20210515.0534)
 -->
<!-- Title: oneDegreeRelationshipsDiagram Pages: 1 -->
<svg width="446pt" height="399pt"
 viewBox="0.00 0.00 446.00 399.00" xmlns="http://www.w3.org/2000/svg" xmlns:xlink="http://www.w3.org/1999/xlink">
<g id="graph0" class="graph" transform="scale(1 1) rotate(0) translate(4 395)">
<title>oneDegreeRelationshipsDiagram</title>
<polygon fill="#ffffff" stroke="transparent" points="-4,4 -4,-395 442,-395 442,4 -4,4"/>
<text text-anchor="middle" x="73.5" y="-7.2" font-family="Helvetica,sans-Serif" font-size="11.00">Generated by SchemaSpy</text>
<!-- tdh_od.pipe_section -->
<g id="node1" class="node">
<title>tdh_od.pipe_section</title>
<g id="a_node1"><a xlink:href="../../../tdh_od/tables/pipe_section.html" xlink:title="tdh_od.pipe_section" target="_top">
<polygon fill="#ffffff" stroke="transparent" points="268,-153 268,-387 430,-387 430,-153 268,-153"/>
<polygon fill="#f5f5f5" stroke="transparent" points="268,-365 268,-387 430,-387 430,-365 268,-365"/>
<polygon fill="none" stroke="black" points="268,-365 268,-387 430,-387 430,-365 268,-365"/>
<text text-anchor="start" x="273" y="-374.2" font-family="Helvetica,sans-Serif" font-weight="bold" font-size="11.00">tdh_od.pipe_section</text>
<text text-anchor="start" x="391" y="-373.2" font-family="Helvetica,sans-Serif" font-size="11.00">[table]</text>
<polygon fill="none" stroke="black" points="268,-343 268,-365 430,-365 430,-343 268,-343"/>
<image xlink:href="../../images/foreignKeys.png" width="11px" height="12px" preserveAspectRatio="xMinYMin meet" x="273" y="-360"/>
<text text-anchor="start" x="292" y="-351.2" font-family="Helvetica,sans-Serif" font-size="11.00">horizontal_positioning</text>
<polygon fill="none" stroke="black" points="268,-321 268,-343 430,-343 430,-321 268,-321"/>
<image xlink:href="../../images/foreignKeys.png" width="11px" height="12px" preserveAspectRatio="xMinYMin meet" x="273" y="-338"/>
<text text-anchor="start" x="292" y="-329.2" font-family="Helvetica,sans-Serif" font-size="11.00">status</text>
<polygon fill="none" stroke="black" points="268,-299 268,-321 430,-321 430,-299 268,-299"/>
<image xlink:href="../../images/foreignKeys.png" width="11px" height="12px" preserveAspectRatio="xMinYMin meet" x="273" y="-316"/>
<text text-anchor="start" x="292" y="-307.2" font-family="Helvetica,sans-Serif" font-size="11.00">function</text>
<polygon fill="none" stroke="black" points="268,-277 268,-299 430,-299 430,-277 268,-277"/>
<image xlink:href="../../images/foreignKeys.png" width="11px" height="12px" preserveAspectRatio="xMinYMin meet" x="273" y="-294"/>
<text text-anchor="start" x="292" y="-285.2" font-family="Helvetica,sans-Serif" font-size="11.00">pipe_type</text>
<polygon fill="none" stroke="black" points="268,-255 268,-277 430,-277 430,-255 268,-255"/>
<image xlink:href="../../images/foreignKeys.png" width="11px" height="12px" preserveAspectRatio="xMinYMin meet" x="273" y="-272"/>
<text text-anchor="start" x="292" y="-263.2" font-family="Helvetica,sans-Serif" font-size="11.00">fluent</text>
<polygon fill="none" stroke="black" points="268,-233 268,-255 430,-255 430,-233 268,-233"/>
<image xlink:href="../../images/foreignKeys.png" width="11px" height="12px" preserveAspectRatio="xMinYMin meet" x="273" y="-250"/>
<text text-anchor="start" x="292" y="-241.2" font-family="Helvetica,sans-Serif" font-size="11.00">insulation_kind</text>
<polygon fill="none" stroke="black" points="268,-211 268,-233 430,-233 430,-211 268,-211"/>
<image xlink:href="../../images/foreignKeys.png" width="11px" height="12px" preserveAspectRatio="xMinYMin meet" x="273" y="-228"/>
<text text-anchor="start" x="292" y="-219.2" font-family="Helvetica,sans-Serif" font-size="11.00">coating</text>
<polygon fill="none" stroke="black" points="268,-189 268,-211 430,-211 430,-189 268,-189"/>
<image xlink:href="../../images/foreignKeys.png" width="11px" height="12px" preserveAspectRatio="xMinYMin meet" x="273" y="-206"/>
<text text-anchor="start" x="292" y="-197.2" font-family="Helvetica,sans-Serif" font-size="11.00">pipeline_quality</text>
<polygon fill="none" stroke="black" points="268,-171 268,-189 430,-189 430,-171 268,-171"/>
<text text-anchor="start" x="271" y="-177.2" font-family="Helvetica,sans-Serif" font-size="11.00">...</text>
<polygon fill="#ffffff" stroke="transparent" points="268,-153 268,-171 333,-171 333,-153 268,-153"/>
<polygon fill="none" stroke="black" points="268,-153 268,-171 333,-171 333,-153 268,-153"/>
<text text-anchor="start" x="271" y="-159.2" font-family="Helvetica,sans-Serif" font-size="11.00">&lt; 8</text>
<polygon fill="#ffffff" stroke="transparent" points="333,-153 333,-171 395,-171 395,-153 333,-153"/>
<polygon fill="none" stroke="black" points="333,-153 333,-171 395,-171 395,-153 333,-153"/>
<text text-anchor="start" x="358" y="-159.2" font-family="Helvetica,sans-Serif" font-size="11.00">0 rows</text>
<polygon fill="#ffffff" stroke="transparent" points="395,-153 395,-171 430,-171 430,-153 395,-153"/>
<polygon fill="none" stroke="black" points="395,-153 395,-171 430,-171 430,-153 395,-153"/>
<text text-anchor="start" x="420" y="-159.2" font-family="Helvetica,sans-Serif" font-size="11.00"> &#160;</text>
</a>
</g>
</g>
<!-- pipe_section_status -->
<g id="node2" class="node">
<title>pipe_section_status</title>
<g id="a_node2"><a xlink:href="../../tables/pipe_section_status.html" xlink:title="pipe_section_status" target="_top">
<polygon fill="#ffffff" stroke="transparent" points="8,-37 8,-367 219,-367 219,-37 8,-37"/>
<polygon fill="#f5f5f5" stroke="transparent" points="10.5,-343 10.5,-365 217.5,-365 217.5,-343 10.5,-343"/>
<polygon fill="none" stroke="black" points="10.5,-343 10.5,-365 217.5,-365 217.5,-343 10.5,-343"/>
<text text-anchor="start" x="15.5" y="-352.2" font-family="Helvetica,sans-Serif" font-weight="bold" font-size="11.00">pipe_section_status</text>
<text text-anchor="start" x="178.5" y="-351.2" font-family="Helvetica,sans-Serif" font-size="11.00">[table]</text>
<polygon fill="none" stroke="black" points="10.5,-321 10.5,-343 147.5,-343 147.5,-321 10.5,-321"/>
<image xlink:href="../../images/primaryKeys.png" width="11px" height="12px" preserveAspectRatio="xMinYMin meet" x="15.5" y="-338"/>
<text text-anchor="start" x="30.5" y="-329.2" font-family="Helvetica,sans-Serif" font-size="11.00">code</text>
<polygon fill="none" stroke="black" points="147.5,-321 147.5,-343 217.5,-343 217.5,-321 147.5,-321"/>
<text text-anchor="start" x="150.5" y="-329.2" font-family="Helvetica,sans-Serif" font-size="11.00">int4[10]</text>
<polygon fill="none" stroke="black" points="10.5,-299 10.5,-321 147.5,-321 147.5,-299 10.5,-299"/>
<text text-anchor="start" x="30.5" y="-307.2" font-family="Helvetica,sans-Serif" font-size="11.00">vsacode</text>
<polygon fill="none" stroke="black" points="147.5,-299 147.5,-321 217.5,-321 217.5,-299 147.5,-299"/>
<text text-anchor="start" x="150.5" y="-307.2" font-family="Helvetica,sans-Serif" font-size="11.00">int4[10]</text>
<polygon fill="none" stroke="black" points="10.5,-277 10.5,-299 147.5,-299 147.5,-277 10.5,-277"/>
<text text-anchor="start" x="30.5" y="-285.2" font-family="Helvetica,sans-Serif" font-size="11.00">value_en</text>
<polygon fill="none" stroke="black" points="147.5,-277 147.5,-299 217.5,-299 217.5,-277 147.5,-277"/>
<text text-anchor="start" x="150.5" y="-285.2" font-family="Helvetica,sans-Serif" font-size="11.00">varchar[100]</text>
<polygon fill="none" stroke="black" points="10.5,-255 10.5,-277 147.5,-277 147.5,-255 10.5,-255"/>
<text text-anchor="start" x="30.5" y="-263.2" font-family="Helvetica,sans-Serif" font-size="11.00">value_de</text>
<polygon fill="none" stroke="black" points="147.5,-255 147.5,-277 217.5,-277 217.5,-255 147.5,-255"/>
<text text-anchor="start" x="150.5" y="-263.2" font-family="Helvetica,sans-Serif" font-size="11.00">varchar[100]</text>
<polygon fill="none" stroke="black" points="10.5,-233 10.5,-255 147.5,-255 147.5,-233 10.5,-233"/>
<text text-anchor="start" x="30.5" y="-241.2" font-family="Helvetica,sans-Serif" font-size="11.00">value_fr</text>
<polygon fill="none" stroke="black" points="147.5,-233 147.5,-255 217.5,-255 217.5,-233 147.5,-233"/>
<text text-anchor="start" x="150.5" y="-241.2" font-family="Helvetica,sans-Serif" font-size="11.00">varchar[100]</text>
<polygon fill="none" stroke="black" points="10.5,-211 10.5,-233 147.5,-233 147.5,-211 10.5,-211"/>
<text text-anchor="start" x="30.5" y="-219.2" font-family="Helvetica,sans-Serif" font-size="11.00">value_it</text>
<polygon fill="none" stroke="black" points="147.5,-211 147.5,-233 217.5,-233 217.5,-211 147.5,-211"/>
<text text-anchor="start" x="150.5" y="-219.2" font-family="Helvetica,sans-Serif" font-size="11.00">varchar[100]</text>
<polygon fill="none" stroke="black" points="10.5,-189 10.5,-211 147.5,-211 147.5,-189 10.5,-189"/>
<text text-anchor="start" x="30.5" y="-197.2" font-family="Helvetica,sans-Serif" font-size="11.00">value_ro</text>
<polygon fill="none" stroke="black" points="147.5,-189 147.5,-211 217.5,-211 217.5,-189 147.5,-189"/>
<text text-anchor="start" x="150.5" y="-197.2" font-family="Helvetica,sans-Serif" font-size="11.00">varchar[100]</text>
<polygon fill="none" stroke="black" points="10.5,-167 10.5,-189 147.5,-189 147.5,-167 10.5,-167"/>
<text text-anchor="start" x="30.5" y="-175.2" font-family="Helvetica,sans-Serif" font-size="11.00">abbr_en</text>
<polygon fill="none" stroke="black" points="147.5,-167 147.5,-189 217.5,-189 217.5,-167 147.5,-167"/>
<text text-anchor="start" x="150.5" y="-175.2" font-family="Helvetica,sans-Serif" font-size="11.00">varchar[3]</text>
<polygon fill="none" stroke="black" points="10.5,-145 10.5,-167 147.5,-167 147.5,-145 10.5,-145"/>
<text text-anchor="start" x="30.5" y="-153.2" font-family="Helvetica,sans-Serif" font-size="11.00">abbr_de</text>
<polygon fill="none" stroke="black" points="147.5,-145 147.5,-167 217.5,-167 217.5,-145 147.5,-145"/>
<text text-anchor="start" x="150.5" y="-153.2" font-family="Helvetica,sans-Serif" font-size="11.00">varchar[3]</text>
<polygon fill="none" stroke="black" points="10.5,-123 10.5,-145 147.5,-145 147.5,-123 10.5,-123"/>
<text text-anchor="start" x="30.5" y="-131.2" font-family="Helvetica,sans-Serif" font-size="11.00">abbr_fr</text>
<polygon fill="none" stroke="black" points="147.5,-123 147.5,-145 217.5,-145 217.5,-123 147.5,-123"/>
<text text-anchor="start" x="150.5" y="-131.2" font-family="Helvetica,sans-Serif" font-size="11.00">varchar[3]</text>
<polygon fill="none" stroke="black" points="10.5,-101 10.5,-123 147.5,-123 147.5,-101 10.5,-101"/>
<text text-anchor="start" x="30.5" y="-109.2" font-family="Helvetica,sans-Serif" font-size="11.00">abbr_it</text>
<polygon fill="none" stroke="black" points="147.5,-101 147.5,-123 217.5,-123 217.5,-101 147.5,-101"/>
<text text-anchor="start" x="150.5" y="-109.2" font-family="Helvetica,sans-Serif" font-size="11.00">varchar[3]</text>
<polygon fill="none" stroke="black" points="10.5,-79 10.5,-101 147.5,-101 147.5,-79 10.5,-79"/>
<text text-anchor="start" x="30.5" y="-87.2" font-family="Helvetica,sans-Serif" font-size="11.00">abbr_ro</text>
<polygon fill="none" stroke="black" points="147.5,-79 147.5,-101 217.5,-101 217.5,-79 147.5,-79"/>
<text text-anchor="start" x="150.5" y="-87.2" font-family="Helvetica,sans-Serif" font-size="11.00">varchar[3]</text>
<polygon fill="none" stroke="black" points="10.5,-57 10.5,-79 147.5,-79 147.5,-57 10.5,-57"/>
<text text-anchor="start" x="30.5" y="-65.2" font-family="Helvetica,sans-Serif" font-size="11.00">active</text>
<polygon fill="none" stroke="black" points="147.5,-57 147.5,-79 217.5,-79 217.5,-57 147.5,-57"/>
<text text-anchor="start" x="150.5" y="-65.2" font-family="Helvetica,sans-Serif" font-size="11.00">bool[1]</text>
<polygon fill="#ffffff" stroke="transparent" points="10.5,-39 10.5,-57 83.5,-57 83.5,-39 10.5,-39"/>
<polygon fill="none" stroke="black" points="10.5,-39 10.5,-57 83.5,-57 83.5,-39 10.5,-39"/>
<text text-anchor="start" x="13.5" y="-45.2" font-family="Helvetica,sans-Serif" font-size="11.00">&lt; 0</text>
<polygon fill="#ffffff" stroke="transparent" points="83.5,-39 83.5,-57 147.5,-57 147.5,-39 83.5,-39"/>
<polygon fill="none" stroke="black" points="83.5,-39 83.5,-57 147.5,-57 147.5,-39 83.5,-39"/>
<text text-anchor="start" x="137.5" y="-45.2" font-family="Helvetica,sans-Serif" font-size="11.00"> &#160;</text>
<polygon fill="#ffffff" stroke="transparent" points="147.5,-39 147.5,-57 217.5,-57 217.5,-39 147.5,-39"/>
<polygon fill="none" stroke="black" points="147.5,-39 147.5,-57 217.5,-57 217.5,-39 147.5,-39"/>
<text text-anchor="start" x="198.5" y="-45.2" font-family="Helvetica,sans-Serif" font-size="11.00">1 &gt;</text>
<polygon fill="none" stroke="black" stroke-width="2" points="9,-38 9,-366 218,-366 218,-38 9,-38"/>
</a>
</g>
</g>
<!-- tdh_od.pipe_section&#45;&gt;pipe_section_status -->
<g id="edge1" class="edge">
<title>tdh_od.pipe_section:w&#45;&gt;pipe_section_status:e</title>
<path fill="none" stroke="black" d="M252.28,-332C241.29,-332 234.16,-332 218.5,-332"/>
<polygon fill="black" stroke="black" points="259,-332 267,-335.6 263,-332 267,-332 267,-332 267,-332 263,-332 267,-328.4 259,-332 259,-332"/>
<ellipse fill="none" stroke="black" cx="255.8" cy="-332" rx="3.2" ry="3.2"/>
</g>
</g>
</svg>
