<?xml version="1.0" encoding="UTF-8" standalone="no"?>
<!DOCTYPE svg PUBLIC "-//W3C//DTD SVG 1.1//EN"
 "http://www.w3.org/Graphics/SVG/1.1/DTD/svg11.dtd">
<!-- Generated by graphviz version 2.43.0 (0)
 -->
<!-- Title: oneDegreeRelationshipsDiagram Pages: 1 -->
<svg width="638pt" height="399pt"
 viewBox="0.00 0.00 638.00 399.00" xmlns="http://www.w3.org/2000/svg" xmlns:xlink="http://www.w3.org/1999/xlink">
<g id="graph0" class="graph" transform="scale(1 1) rotate(0) translate(4 395)">
<title>oneDegreeRelationshipsDiagram</title>
<polygon fill="#ffffff" stroke="transparent" points="-4,4 -4,-395 634,-395 634,4 -4,4"/>
<text text-anchor="middle" x="79.5" y="-7.2" font-family="Helvetica,sans-Serif" font-size="11.00">Generated by SchemaSpy</text>
<!-- tdh_od.pipe_point -->
<g id="node1" class="node">
<title>tdh_od.pipe_point</title>
<g id="a_node1"><a xlink:href="../../../tdh_od/tables/pipe_point.html" xlink:title="tdh_od.pipe_point" target="_top">
<polygon fill="#ffffff" stroke="transparent" points="422,-285 422,-387 622,-387 622,-285 422,-285"/>
<polygon fill="#f5f5f5" stroke="transparent" points="422,-365 422,-387 622,-387 622,-365 422,-365"/>
<polygon fill="none" stroke="black" points="422,-365 422,-387 622,-387 622,-365 422,-365"/>
<text text-anchor="start" x="427" y="-374.2" font-family="Helvetica,sans-Serif" font-weight="bold" font-size="11.00">tdh_od.pipe_point</text>
<text text-anchor="start" x="580" y="-373.2" font-family="Helvetica,sans-Serif" font-size="11.00">[table]</text>
<polygon fill="none" stroke="black" points="422,-343 422,-365 622,-365 622,-343 422,-343"/>
<image xlink:href="../../images/foreignKeys.png" width="11px" height="12px" preserveAspectRatio="xMinYMin meet" x="427" y="-360"/>
<text text-anchor="start" x="442" y="-351.2" font-family="Helvetica,sans-Serif" font-size="11.00">horizontal_positioning</text>
<polygon fill="none" stroke="black" points="422,-321 422,-343 622,-343 622,-321 422,-321"/>
<image xlink:href="../../images/foreignKeys.png" width="11px" height="12px" preserveAspectRatio="xMinYMin meet" x="427" y="-338"/>
<text text-anchor="start" x="442" y="-329.2" font-family="Helvetica,sans-Serif" font-size="11.00">elevation_determination</text>
<polygon fill="none" stroke="black" points="422,-303 422,-321 622,-321 622,-303 422,-303"/>
<text text-anchor="start" x="425" y="-309.2" font-family="Helvetica,sans-Serif" font-size="11.00">...</text>
<polygon fill="#ffffff" stroke="transparent" points="422,-285 422,-303 622,-303 622,-285 422,-285"/>
<polygon fill="none" stroke="black" points="422,-285 422,-303 622,-303 622,-285 422,-285"/>
<polygon fill="#ffffff" stroke="transparent" points="423,-286 423,-302 488,-302 488,-286 423,-286"/>
<text text-anchor="start" x="425" y="-291.2" font-family="Helvetica,sans-Serif" font-size="11.00">&lt; 2</text>
<polygon fill="#ffffff" stroke="transparent" points="488,-286 488,-302 569,-302 569,-286 488,-286"/>
<text text-anchor="start" x="510" y="-291.2" font-family="Helvetica,sans-Serif" font-size="11.00">0 rows</text>
<polygon fill="#ffffff" stroke="transparent" points="569,-286 569,-302 621,-302 621,-286 569,-286"/>
<text text-anchor="start" x="611" y="-291.2" font-family="Helvetica,sans-Serif" font-size="11.00"> &#160;</text>
<polygon fill="black" stroke="black" points="488,-286 488,-302 488,-302 488,-286 488,-286"/>
<polygon fill="black" stroke="black" points="569,-286 569,-302 569,-302 569,-286 569,-286"/>
</a>
</g>
</g>
<!-- pipe_point_elevation_determination -->
<g id="node2" class="node">
<title>pipe_point_elevation_determination</title>
<g id="a_node2"><a xlink:href="../../tables/pipe_point_elevation_determination.html" xlink:title="pipe_point_elevation_determination" target="_top">
<polygon fill="#ffffff" stroke="transparent" points="8,-37 8,-367 373,-367 373,-37 8,-37"/>
<polygon fill="#f5f5f5" stroke="transparent" points="10.5,-343 10.5,-365 371.5,-365 371.5,-343 10.5,-343"/>
<polygon fill="none" stroke="black" points="10.5,-343 10.5,-365 371.5,-365 371.5,-343 10.5,-343"/>
<text text-anchor="start" x="15.5" y="-352.2" font-family="Helvetica,sans-Serif" font-weight="bold" font-size="11.00">pipe_point_elevation_determination</text>
<text text-anchor="start" x="329.5" y="-351.2" font-family="Helvetica,sans-Serif" font-size="11.00">[table]</text>
<polygon fill="none" stroke="black" points="10.5,-321 10.5,-343 293.5,-343 293.5,-321 10.5,-321"/>
<image xlink:href="../../images/primaryKeys.png" width="11px" height="12px" preserveAspectRatio="xMinYMin meet" x="15.5" y="-338"/>
<text text-anchor="start" x="30.5" y="-329.2" font-family="Helvetica,sans-Serif" font-size="11.00">code</text>
<polygon fill="none" stroke="black" points="293.5,-321 293.5,-343 371.5,-343 371.5,-321 293.5,-321"/>
<text text-anchor="start" x="296.5" y="-329.2" font-family="Helvetica,sans-Serif" font-size="11.00">int4[10]</text>
<polygon fill="none" stroke="black" points="10.5,-299 10.5,-321 293.5,-321 293.5,-299 10.5,-299"/>
<text text-anchor="start" x="30.5" y="-307.2" font-family="Helvetica,sans-Serif" font-size="11.00">vsacode</text>
<polygon fill="none" stroke="black" points="293.5,-299 293.5,-321 371.5,-321 371.5,-299 293.5,-299"/>
<text text-anchor="start" x="296.5" y="-307.2" font-family="Helvetica,sans-Serif" font-size="11.00">int4[10]</text>
<polygon fill="none" stroke="black" points="10.5,-277 10.5,-299 293.5,-299 293.5,-277 10.5,-277"/>
<text text-anchor="start" x="30.5" y="-285.2" font-family="Helvetica,sans-Serif" font-size="11.00">value_en</text>
<polygon fill="none" stroke="black" points="293.5,-277 293.5,-299 371.5,-299 371.5,-277 293.5,-277"/>
<text text-anchor="start" x="296.5" y="-285.2" font-family="Helvetica,sans-Serif" font-size="11.00">varchar[100]</text>
<polygon fill="none" stroke="black" points="10.5,-255 10.5,-277 293.5,-277 293.5,-255 10.5,-255"/>
<text text-anchor="start" x="30.5" y="-263.2" font-family="Helvetica,sans-Serif" font-size="11.00">value_de</text>
<polygon fill="none" stroke="black" points="293.5,-255 293.5,-277 371.5,-277 371.5,-255 293.5,-255"/>
<text text-anchor="start" x="296.5" y="-263.2" font-family="Helvetica,sans-Serif" font-size="11.00">varchar[100]</text>
<polygon fill="none" stroke="black" points="10.5,-233 10.5,-255 293.5,-255 293.5,-233 10.5,-233"/>
<text text-anchor="start" x="30.5" y="-241.2" font-family="Helvetica,sans-Serif" font-size="11.00">value_fr</text>
<polygon fill="none" stroke="black" points="293.5,-233 293.5,-255 371.5,-255 371.5,-233 293.5,-233"/>
<text text-anchor="start" x="296.5" y="-241.2" font-family="Helvetica,sans-Serif" font-size="11.00">varchar[100]</text>
<polygon fill="none" stroke="black" points="10.5,-211 10.5,-233 293.5,-233 293.5,-211 10.5,-211"/>
<text text-anchor="start" x="30.5" y="-219.2" font-family="Helvetica,sans-Serif" font-size="11.00">value_it</text>
<polygon fill="none" stroke="black" points="293.5,-211 293.5,-233 371.5,-233 371.5,-211 293.5,-211"/>
<text text-anchor="start" x="296.5" y="-219.2" font-family="Helvetica,sans-Serif" font-size="11.00">varchar[100]</text>
<polygon fill="none" stroke="black" points="10.5,-189 10.5,-211 293.5,-211 293.5,-189 10.5,-189"/>
<text text-anchor="start" x="30.5" y="-197.2" font-family="Helvetica,sans-Serif" font-size="11.00">value_ro</text>
<polygon fill="none" stroke="black" points="293.5,-189 293.5,-211 371.5,-211 371.5,-189 293.5,-189"/>
<text text-anchor="start" x="296.5" y="-197.2" font-family="Helvetica,sans-Serif" font-size="11.00">varchar[100]</text>
<polygon fill="none" stroke="black" points="10.5,-167 10.5,-189 293.5,-189 293.5,-167 10.5,-167"/>
<text text-anchor="start" x="30.5" y="-175.2" font-family="Helvetica,sans-Serif" font-size="11.00">abbr_en</text>
<polygon fill="none" stroke="black" points="293.5,-167 293.5,-189 371.5,-189 371.5,-167 293.5,-167"/>
<text text-anchor="start" x="296.5" y="-175.2" font-family="Helvetica,sans-Serif" font-size="11.00">varchar[3]</text>
<polygon fill="none" stroke="black" points="10.5,-145 10.5,-167 293.5,-167 293.5,-145 10.5,-145"/>
<text text-anchor="start" x="30.5" y="-153.2" font-family="Helvetica,sans-Serif" font-size="11.00">abbr_de</text>
<polygon fill="none" stroke="black" points="293.5,-145 293.5,-167 371.5,-167 371.5,-145 293.5,-145"/>
<text text-anchor="start" x="296.5" y="-153.2" font-family="Helvetica,sans-Serif" font-size="11.00">varchar[3]</text>
<polygon fill="none" stroke="black" points="10.5,-123 10.5,-145 293.5,-145 293.5,-123 10.5,-123"/>
<text text-anchor="start" x="30.5" y="-131.2" font-family="Helvetica,sans-Serif" font-size="11.00">abbr_fr</text>
<polygon fill="none" stroke="black" points="293.5,-123 293.5,-145 371.5,-145 371.5,-123 293.5,-123"/>
<text text-anchor="start" x="296.5" y="-131.2" font-family="Helvetica,sans-Serif" font-size="11.00">varchar[3]</text>
<polygon fill="none" stroke="black" points="10.5,-101 10.5,-123 293.5,-123 293.5,-101 10.5,-101"/>
<text text-anchor="start" x="30.5" y="-109.2" font-family="Helvetica,sans-Serif" font-size="11.00">abbr_it</text>
<polygon fill="none" stroke="black" points="293.5,-101 293.5,-123 371.5,-123 371.5,-101 293.5,-101"/>
<text text-anchor="start" x="296.5" y="-109.2" font-family="Helvetica,sans-Serif" font-size="11.00">varchar[3]</text>
<polygon fill="none" stroke="black" points="10.5,-79 10.5,-101 293.5,-101 293.5,-79 10.5,-79"/>
<text text-anchor="start" x="30.5" y="-87.2" font-family="Helvetica,sans-Serif" font-size="11.00">abbr_ro</text>
<polygon fill="none" stroke="black" points="293.5,-79 293.5,-101 371.5,-101 371.5,-79 293.5,-79"/>
<text text-anchor="start" x="296.5" y="-87.2" font-family="Helvetica,sans-Serif" font-size="11.00">varchar[3]</text>
<polygon fill="none" stroke="black" points="10.5,-57 10.5,-79 293.5,-79 293.5,-57 10.5,-57"/>
<text text-anchor="start" x="30.5" y="-65.2" font-family="Helvetica,sans-Serif" font-size="11.00">active</text>
<polygon fill="none" stroke="black" points="293.5,-57 293.5,-79 371.5,-79 371.5,-57 293.5,-57"/>
<text text-anchor="start" x="296.5" y="-65.2" font-family="Helvetica,sans-Serif" font-size="11.00">bool[1]</text>
<polygon fill="#ffffff" stroke="transparent" points="10.5,-39 10.5,-57 371.5,-57 371.5,-39 10.5,-39"/>
<polygon fill="none" stroke="black" points="10.5,-39 10.5,-57 371.5,-57 371.5,-39 10.5,-39"/>
<polygon fill="#ffffff" stroke="transparent" points="11.5,-40 11.5,-56 135.5,-56 135.5,-40 11.5,-40"/>
<text text-anchor="start" x="13.5" y="-45.2" font-family="Helvetica,sans-Serif" font-size="11.00">&lt; 0</text>
<polygon fill="#ffffff" stroke="transparent" points="135.5,-40 135.5,-56 247.5,-56 247.5,-40 135.5,-40"/>
<text text-anchor="start" x="187.5" y="-45.2" font-family="Helvetica,sans-Serif" font-size="11.00"> &#160;</text>
<polygon fill="#ffffff" stroke="transparent" points="247.5,-40 247.5,-56 370.5,-56 370.5,-40 247.5,-40"/>
<text text-anchor="start" x="348.5" y="-45.2" font-family="Helvetica,sans-Serif" font-size="11.00">1 &gt;</text>
<polygon fill="black" stroke="black" points="135.5,-40 135.5,-56 135.5,-56 135.5,-40 135.5,-40"/>
<polygon fill="black" stroke="black" points="247.5,-40 247.5,-56 247.5,-56 247.5,-40 247.5,-40"/>
<polygon fill="none" stroke="black" stroke-width="2" points="9,-38 9,-366 372,-366 372,-38 9,-38"/>
</a>
</g>
</g>
<!-- tdh_od.pipe_point&#45;&gt;pipe_point_elevation_determination -->
<g id="edge1" class="edge">
<title>tdh_od.pipe_point:w&#45;&gt;pipe_point_elevation_determination:e</title>
<path fill="none" stroke="black" d="M406.28,-332C395.29,-332 388.16,-332 372.5,-332"/>
<polygon fill="black" stroke="black" points="413,-332 421,-335.6 417,-332 421,-332 421,-332 421,-332 417,-332 421,-328.4 413,-332 413,-332"/>
<ellipse fill="none" stroke="black" cx="409.8" cy="-332" rx="3.2" ry="3.2"/>
</g>
</g>
</svg>
