<?xml version="1.0" encoding="UTF-8" standalone="no"?>
<!DOCTYPE svg PUBLIC "-//W3C//DTD SVG 1.1//EN"
 "http://www.w3.org/Graphics/SVG/1.1/DTD/svg11.dtd">
<!-- Generated by graphviz version 2.43.0 (0)
 -->
<!-- Title: oneDegreeRelationshipsDiagram Pages: 1 -->
<svg width="579pt" height="399pt"
 viewBox="0.00 0.00 579.00 399.00" xmlns="http://www.w3.org/2000/svg" xmlns:xlink="http://www.w3.org/1999/xlink">
<g id="graph0" class="graph" transform="scale(1 1) rotate(0) translate(4 395)">
<title>oneDegreeRelationshipsDiagram</title>
<polygon fill="#ffffff" stroke="transparent" points="-4,4 -4,-395 575,-395 575,4 -4,4"/>
<text text-anchor="middle" x="79.5" y="-7.2" font-family="Helvetica,sans-Serif" font-size="11.00">Generated by SchemaSpy</text>
<!-- tdh_od.pipe_point_feed -->
<g id="node1" class="node">
<title>tdh_od.pipe_point_feed</title>
<g id="a_node1"><a xlink:href="../../../tdh_od/tables/pipe_point_feed.html" xlink:title="tdh_od.pipe_point_feed" target="_top">
<polygon fill="#ffffff" stroke="transparent" points="346,-285 346,-387 563,-387 563,-285 346,-285"/>
<polygon fill="#f5f5f5" stroke="transparent" points="346.5,-365 346.5,-387 563.5,-387 563.5,-365 346.5,-365"/>
<polygon fill="none" stroke="black" points="346.5,-365 346.5,-387 563.5,-387 563.5,-365 346.5,-365"/>
<text text-anchor="start" x="351.5" y="-374.2" font-family="Helvetica,sans-Serif" font-weight="bold" font-size="11.00">tdh_od.pipe_point_feed</text>
<text text-anchor="start" x="521.5" y="-373.2" font-family="Helvetica,sans-Serif" font-size="11.00">[table]</text>
<polygon fill="none" stroke="black" points="346.5,-343 346.5,-365 563.5,-365 563.5,-343 346.5,-343"/>
<image xlink:href="../../images/foreignKeys.png" width="11px" height="12px" preserveAspectRatio="xMinYMin meet" x="351.5" y="-360"/>
<text text-anchor="start" x="373.5" y="-351.2" font-family="Helvetica,sans-Serif" font-size="11.00">kind</text>
<polygon fill="none" stroke="black" points="346.5,-321 346.5,-343 563.5,-343 563.5,-321 346.5,-321"/>
<image xlink:href="../../images/foreignKeys.png" width="11px" height="12px" preserveAspectRatio="xMinYMin meet" x="351.5" y="-338"/>
<text text-anchor="start" x="373.5" y="-329.2" font-family="Helvetica,sans-Serif" font-size="11.00">category</text>
<polygon fill="none" stroke="black" points="346.5,-303 346.5,-321 563.5,-321 563.5,-303 346.5,-303"/>
<text text-anchor="start" x="349.5" y="-309.2" font-family="Helvetica,sans-Serif" font-size="11.00">...</text>
<polygon fill="#ffffff" stroke="transparent" points="346.5,-285 346.5,-303 563.5,-303 563.5,-285 346.5,-285"/>
<polygon fill="none" stroke="black" points="346.5,-285 346.5,-303 563.5,-303 563.5,-285 346.5,-285"/>
<polygon fill="#ffffff" stroke="transparent" points="347.5,-286 347.5,-302 417.5,-302 417.5,-286 347.5,-286"/>
<text text-anchor="start" x="349.5" y="-291.2" font-family="Helvetica,sans-Serif" font-size="11.00">&lt; 2</text>
<polygon fill="#ffffff" stroke="transparent" points="417.5,-286 417.5,-302 504.5,-302 504.5,-286 417.5,-286"/>
<text text-anchor="start" x="442.5" y="-291.2" font-family="Helvetica,sans-Serif" font-size="11.00">0 rows</text>
<polygon fill="#ffffff" stroke="transparent" points="504.5,-286 504.5,-302 562.5,-302 562.5,-286 504.5,-286"/>
<text text-anchor="start" x="552.5" y="-291.2" font-family="Helvetica,sans-Serif" font-size="11.00"> &#160;</text>
<polygon fill="black" stroke="black" points="417.5,-286 417.5,-302 417.5,-302 417.5,-286 417.5,-286"/>
<polygon fill="black" stroke="black" points="504.5,-286 504.5,-302 504.5,-302 504.5,-286 504.5,-286"/>
</a>
</g>
</g>
<!-- pipe_point_feed_category -->
<g id="node2" class="node">
<title>pipe_point_feed_category</title>
<g id="a_node2"><a xlink:href="../../tables/pipe_point_feed_category.html" xlink:title="pipe_point_feed_category" target="_top">
<polygon fill="#ffffff" stroke="transparent" points="8,-37 8,-367 297,-367 297,-37 8,-37"/>
<polygon fill="#f5f5f5" stroke="transparent" points="10.5,-343 10.5,-365 295.5,-365 295.5,-343 10.5,-343"/>
<polygon fill="none" stroke="black" points="10.5,-343 10.5,-365 295.5,-365 295.5,-343 10.5,-343"/>
<text text-anchor="start" x="15.5" y="-352.2" font-family="Helvetica,sans-Serif" font-weight="bold" font-size="11.00">pipe_point_feed_category</text>
<text text-anchor="start" x="253.5" y="-351.2" font-family="Helvetica,sans-Serif" font-size="11.00">[table]</text>
<polygon fill="none" stroke="black" points="10.5,-321 10.5,-343 217.5,-343 217.5,-321 10.5,-321"/>
<image xlink:href="../../images/primaryKeys.png" width="11px" height="12px" preserveAspectRatio="xMinYMin meet" x="15.5" y="-338"/>
<text text-anchor="start" x="30.5" y="-329.2" font-family="Helvetica,sans-Serif" font-size="11.00">code</text>
<polygon fill="none" stroke="black" points="217.5,-321 217.5,-343 295.5,-343 295.5,-321 217.5,-321"/>
<text text-anchor="start" x="220.5" y="-329.2" font-family="Helvetica,sans-Serif" font-size="11.00">int4[10]</text>
<polygon fill="none" stroke="black" points="10.5,-299 10.5,-321 217.5,-321 217.5,-299 10.5,-299"/>
<text text-anchor="start" x="30.5" y="-307.2" font-family="Helvetica,sans-Serif" font-size="11.00">vsacode</text>
<polygon fill="none" stroke="black" points="217.5,-299 217.5,-321 295.5,-321 295.5,-299 217.5,-299"/>
<text text-anchor="start" x="220.5" y="-307.2" font-family="Helvetica,sans-Serif" font-size="11.00">int4[10]</text>
<polygon fill="none" stroke="black" points="10.5,-277 10.5,-299 217.5,-299 217.5,-277 10.5,-277"/>
<text text-anchor="start" x="30.5" y="-285.2" font-family="Helvetica,sans-Serif" font-size="11.00">value_en</text>
<polygon fill="none" stroke="black" points="217.5,-277 217.5,-299 295.5,-299 295.5,-277 217.5,-277"/>
<text text-anchor="start" x="220.5" y="-285.2" font-family="Helvetica,sans-Serif" font-size="11.00">varchar[100]</text>
<polygon fill="none" stroke="black" points="10.5,-255 10.5,-277 217.5,-277 217.5,-255 10.5,-255"/>
<text text-anchor="start" x="30.5" y="-263.2" font-family="Helvetica,sans-Serif" font-size="11.00">value_de</text>
<polygon fill="none" stroke="black" points="217.5,-255 217.5,-277 295.5,-277 295.5,-255 217.5,-255"/>
<text text-anchor="start" x="220.5" y="-263.2" font-family="Helvetica,sans-Serif" font-size="11.00">varchar[100]</text>
<polygon fill="none" stroke="black" points="10.5,-233 10.5,-255 217.5,-255 217.5,-233 10.5,-233"/>
<text text-anchor="start" x="30.5" y="-241.2" font-family="Helvetica,sans-Serif" font-size="11.00">value_fr</text>
<polygon fill="none" stroke="black" points="217.5,-233 217.5,-255 295.5,-255 295.5,-233 217.5,-233"/>
<text text-anchor="start" x="220.5" y="-241.2" font-family="Helvetica,sans-Serif" font-size="11.00">varchar[100]</text>
<polygon fill="none" stroke="black" points="10.5,-211 10.5,-233 217.5,-233 217.5,-211 10.5,-211"/>
<text text-anchor="start" x="30.5" y="-219.2" font-family="Helvetica,sans-Serif" font-size="11.00">value_it</text>
<polygon fill="none" stroke="black" points="217.5,-211 217.5,-233 295.5,-233 295.5,-211 217.5,-211"/>
<text text-anchor="start" x="220.5" y="-219.2" font-family="Helvetica,sans-Serif" font-size="11.00">varchar[100]</text>
<polygon fill="none" stroke="black" points="10.5,-189 10.5,-211 217.5,-211 217.5,-189 10.5,-189"/>
<text text-anchor="start" x="30.5" y="-197.2" font-family="Helvetica,sans-Serif" font-size="11.00">value_ro</text>
<polygon fill="none" stroke="black" points="217.5,-189 217.5,-211 295.5,-211 295.5,-189 217.5,-189"/>
<text text-anchor="start" x="220.5" y="-197.2" font-family="Helvetica,sans-Serif" font-size="11.00">varchar[100]</text>
<polygon fill="none" stroke="black" points="10.5,-167 10.5,-189 217.5,-189 217.5,-167 10.5,-167"/>
<text text-anchor="start" x="30.5" y="-175.2" font-family="Helvetica,sans-Serif" font-size="11.00">abbr_en</text>
<polygon fill="none" stroke="black" points="217.5,-167 217.5,-189 295.5,-189 295.5,-167 217.5,-167"/>
<text text-anchor="start" x="220.5" y="-175.2" font-family="Helvetica,sans-Serif" font-size="11.00">varchar[3]</text>
<polygon fill="none" stroke="black" points="10.5,-145 10.5,-167 217.5,-167 217.5,-145 10.5,-145"/>
<text text-anchor="start" x="30.5" y="-153.2" font-family="Helvetica,sans-Serif" font-size="11.00">abbr_de</text>
<polygon fill="none" stroke="black" points="217.5,-145 217.5,-167 295.5,-167 295.5,-145 217.5,-145"/>
<text text-anchor="start" x="220.5" y="-153.2" font-family="Helvetica,sans-Serif" font-size="11.00">varchar[3]</text>
<polygon fill="none" stroke="black" points="10.5,-123 10.5,-145 217.5,-145 217.5,-123 10.5,-123"/>
<text text-anchor="start" x="30.5" y="-131.2" font-family="Helvetica,sans-Serif" font-size="11.00">abbr_fr</text>
<polygon fill="none" stroke="black" points="217.5,-123 217.5,-145 295.5,-145 295.5,-123 217.5,-123"/>
<text text-anchor="start" x="220.5" y="-131.2" font-family="Helvetica,sans-Serif" font-size="11.00">varchar[3]</text>
<polygon fill="none" stroke="black" points="10.5,-101 10.5,-123 217.5,-123 217.5,-101 10.5,-101"/>
<text text-anchor="start" x="30.5" y="-109.2" font-family="Helvetica,sans-Serif" font-size="11.00">abbr_it</text>
<polygon fill="none" stroke="black" points="217.5,-101 217.5,-123 295.5,-123 295.5,-101 217.5,-101"/>
<text text-anchor="start" x="220.5" y="-109.2" font-family="Helvetica,sans-Serif" font-size="11.00">varchar[3]</text>
<polygon fill="none" stroke="black" points="10.5,-79 10.5,-101 217.5,-101 217.5,-79 10.5,-79"/>
<text text-anchor="start" x="30.5" y="-87.2" font-family="Helvetica,sans-Serif" font-size="11.00">abbr_ro</text>
<polygon fill="none" stroke="black" points="217.5,-79 217.5,-101 295.5,-101 295.5,-79 217.5,-79"/>
<text text-anchor="start" x="220.5" y="-87.2" font-family="Helvetica,sans-Serif" font-size="11.00">varchar[3]</text>
<polygon fill="none" stroke="black" points="10.5,-57 10.5,-79 217.5,-79 217.5,-57 10.5,-57"/>
<text text-anchor="start" x="30.5" y="-65.2" font-family="Helvetica,sans-Serif" font-size="11.00">active</text>
<polygon fill="none" stroke="black" points="217.5,-57 217.5,-79 295.5,-79 295.5,-57 217.5,-57"/>
<text text-anchor="start" x="220.5" y="-65.2" font-family="Helvetica,sans-Serif" font-size="11.00">bool[1]</text>
<polygon fill="#ffffff" stroke="transparent" points="10.5,-39 10.5,-57 295.5,-57 295.5,-39 10.5,-39"/>
<polygon fill="none" stroke="black" points="10.5,-39 10.5,-57 295.5,-57 295.5,-39 10.5,-39"/>
<polygon fill="#ffffff" stroke="transparent" points="11.5,-40 11.5,-56 110.5,-56 110.5,-40 11.5,-40"/>
<text text-anchor="start" x="13.5" y="-45.2" font-family="Helvetica,sans-Serif" font-size="11.00">&lt; 0</text>
<polygon fill="#ffffff" stroke="transparent" points="110.5,-40 110.5,-56 196.5,-56 196.5,-40 110.5,-40"/>
<text text-anchor="start" x="149.5" y="-45.2" font-family="Helvetica,sans-Serif" font-size="11.00"> &#160;</text>
<polygon fill="#ffffff" stroke="transparent" points="196.5,-40 196.5,-56 294.5,-56 294.5,-40 196.5,-40"/>
<text text-anchor="start" x="272.5" y="-45.2" font-family="Helvetica,sans-Serif" font-size="11.00">1 &gt;</text>
<polygon fill="black" stroke="black" points="110.5,-40 110.5,-56 110.5,-56 110.5,-40 110.5,-40"/>
<polygon fill="black" stroke="black" points="196.5,-40 196.5,-56 196.5,-56 196.5,-40 196.5,-40"/>
<polygon fill="none" stroke="black" stroke-width="2" points="9,-38 9,-366 296,-366 296,-38 9,-38"/>
</a>
</g>
</g>
<!-- tdh_od.pipe_point_feed&#45;&gt;pipe_point_feed_category -->
<g id="edge1" class="edge">
<title>tdh_od.pipe_point_feed:w&#45;&gt;pipe_point_feed_category:e</title>
<path fill="none" stroke="black" d="M330.99,-332C319.68,-332 312.49,-332 296.5,-332"/>
<polygon fill="black" stroke="black" points="337.5,-332 345.5,-335.6 341.5,-332 345.5,-332 345.5,-332 345.5,-332 341.5,-332 345.5,-328.4 337.5,-332 337.5,-332"/>
<ellipse fill="none" stroke="black" cx="334.3" cy="-332" rx="3.2" ry="3.2"/>
</g>
</g>
</svg>
