<?xml version="1.0" encoding="UTF-8" standalone="no"?>
<!DOCTYPE svg PUBLIC "-//W3C//DTD SVG 1.1//EN"
 "http://www.w3.org/Graphics/SVG/1.1/DTD/svg11.dtd">
<!-- Generated by graphviz version 2.43.0 (0)
 -->
<!-- Title: oneDegreeRelationshipsDiagram Pages: 1 -->
<svg width="706pt" height="619pt"
 viewBox="0.00 0.00 706.00 619.00" xmlns="http://www.w3.org/2000/svg" xmlns:xlink="http://www.w3.org/1999/xlink">
<g id="graph0" class="graph" transform="scale(1 1) rotate(0) translate(4 615)">
<title>oneDegreeRelationshipsDiagram</title>
<polygon fill="#ffffff" stroke="transparent" points="-4,4 -4,-615 702,-615 702,4 -4,4"/>
<text text-anchor="middle" x="79.5" y="-7.2" font-family="Helvetica,sans-Serif" font-size="11.00">Generated by SchemaSpy</text>
<!-- tdh_od.pipe_point_normal -->
<g id="node1" class="node">
<title>tdh_od.pipe_point_normal</title>
<g id="a_node1"><a xlink:href="../../../tdh_od/tables/pipe_point_normal.html" xlink:title="tdh_od.pipe_point_normal" target="_top">
<polygon fill="#ffffff" stroke="transparent" points="455,-483 455,-607 690,-607 690,-483 455,-483"/>
<polygon fill="#f5f5f5" stroke="transparent" points="455.5,-585 455.5,-607 690.5,-607 690.5,-585 455.5,-585"/>
<polygon fill="none" stroke="black" points="455.5,-585 455.5,-607 690.5,-607 690.5,-585 455.5,-585"/>
<text text-anchor="start" x="460.5" y="-594.2" font-family="Helvetica,sans-Serif" font-weight="bold" font-size="11.00">tdh_od.pipe_point_normal</text>
<text text-anchor="start" x="648.5" y="-593.2" font-family="Helvetica,sans-Serif" font-size="11.00">[table]</text>
<polygon fill="none" stroke="black" points="455.5,-563 455.5,-585 690.5,-585 690.5,-563 455.5,-563"/>
<image xlink:href="../../images/foreignKeys.png" width="11px" height="12px" preserveAspectRatio="xMinYMin meet" x="460.5" y="-580"/>
<text text-anchor="start" x="515.5" y="-571.2" font-family="Helvetica,sans-Serif" font-size="11.00">kind</text>
<polygon fill="none" stroke="black" points="455.5,-541 455.5,-563 690.5,-563 690.5,-541 455.5,-541"/>
<image xlink:href="../../images/foreignKeys.png" width="11px" height="12px" preserveAspectRatio="xMinYMin meet" x="460.5" y="-558"/>
<text text-anchor="start" x="515.5" y="-549.2" font-family="Helvetica,sans-Serif" font-size="11.00">armature_setting</text>
<polygon fill="none" stroke="black" points="455.5,-519 455.5,-541 690.5,-541 690.5,-519 455.5,-519"/>
<image xlink:href="../../images/foreignKeys.png" width="11px" height="12px" preserveAspectRatio="xMinYMin meet" x="460.5" y="-536"/>
<text text-anchor="start" x="515.5" y="-527.2" font-family="Helvetica,sans-Serif" font-size="11.00">material</text>
<polygon fill="none" stroke="black" points="455.5,-501 455.5,-519 690.5,-519 690.5,-501 455.5,-501"/>
<text text-anchor="start" x="458.5" y="-507.2" font-family="Helvetica,sans-Serif" font-size="11.00">...</text>
<polygon fill="#ffffff" stroke="transparent" points="455.5,-483 455.5,-501 690.5,-501 690.5,-483 455.5,-483"/>
<polygon fill="none" stroke="black" points="455.5,-483 455.5,-501 690.5,-501 690.5,-483 455.5,-483"/>
<polygon fill="#ffffff" stroke="transparent" points="456.5,-484 456.5,-500 532.5,-500 532.5,-484 456.5,-484"/>
<text text-anchor="start" x="458.5" y="-489.2" font-family="Helvetica,sans-Serif" font-size="11.00">&lt; 3</text>
<polygon fill="#ffffff" stroke="transparent" points="532.5,-484 532.5,-500 625.5,-500 625.5,-484 532.5,-484"/>
<text text-anchor="start" x="560.5" y="-489.2" font-family="Helvetica,sans-Serif" font-size="11.00">0 rows</text>
<polygon fill="#ffffff" stroke="transparent" points="625.5,-484 625.5,-500 689.5,-500 689.5,-484 625.5,-484"/>
<text text-anchor="start" x="679.5" y="-489.2" font-family="Helvetica,sans-Serif" font-size="11.00"> &#160;</text>
<polygon fill="black" stroke="black" points="532.5,-484 532.5,-500 532.5,-500 532.5,-484 532.5,-484"/>
<polygon fill="black" stroke="black" points="625.5,-484 625.5,-500 625.5,-500 625.5,-484 625.5,-484"/>
</a>
</g>
</g>
<!-- pipe_point_normal_armature_setting -->
<g id="node2" class="node">
<title>pipe_point_normal_armature_setting</title>
<g id="a_node2"><a xlink:href="../../tables/pipe_point_normal_armature_setting.html" xlink:title="pipe_point_normal_armature_setting" target="_top">
<polygon fill="#ffffff" stroke="transparent" points="8,-37 8,-587 406,-587 406,-37 8,-37"/>
<polygon fill="#f5f5f5" stroke="transparent" points="10,-563 10,-585 404,-585 404,-563 10,-563"/>
<polygon fill="none" stroke="black" points="10,-563 10,-585 404,-585 404,-563 10,-563"/>
<text text-anchor="start" x="15" y="-572.2" font-family="Helvetica,sans-Serif" font-weight="bold" font-size="11.00">pipe_point_normal_armature_setting</text>
<text text-anchor="start" x="362" y="-571.2" font-family="Helvetica,sans-Serif" font-size="11.00">[table]</text>
<polygon fill="none" stroke="black" points="10,-541 10,-563 298,-563 298,-541 10,-541"/>
<image xlink:href="../../images/primaryKeys.png" width="11px" height="12px" preserveAspectRatio="xMinYMin meet" x="15" y="-558"/>
<text text-anchor="start" x="30" y="-549.2" font-family="Helvetica,sans-Serif" font-size="11.00">code</text>
<polygon fill="none" stroke="black" points="298,-541 298,-563 404,-563 404,-541 298,-541"/>
<text text-anchor="start" x="301" y="-549.2" font-family="Helvetica,sans-Serif" font-size="11.00">int4[10]</text>
<polygon fill="none" stroke="black" points="10,-519 10,-541 298,-541 298,-519 10,-519"/>
<text text-anchor="start" x="30" y="-527.2" font-family="Helvetica,sans-Serif" font-size="11.00">vsacode</text>
<polygon fill="none" stroke="black" points="298,-519 298,-541 404,-541 404,-519 298,-519"/>
<text text-anchor="start" x="301" y="-527.2" font-family="Helvetica,sans-Serif" font-size="11.00">int4[10]</text>
<polygon fill="none" stroke="black" points="10,-497 10,-519 298,-519 298,-497 10,-497"/>
<text text-anchor="start" x="30" y="-505.2" font-family="Helvetica,sans-Serif" font-size="11.00">value_en</text>
<polygon fill="none" stroke="black" points="298,-497 298,-519 404,-519 404,-497 298,-497"/>
<text text-anchor="start" x="301" y="-505.2" font-family="Helvetica,sans-Serif" font-size="11.00">varchar[100]</text>
<polygon fill="none" stroke="black" points="10,-475 10,-497 298,-497 298,-475 10,-475"/>
<text text-anchor="start" x="30" y="-483.2" font-family="Helvetica,sans-Serif" font-size="11.00">value_de</text>
<polygon fill="none" stroke="black" points="298,-475 298,-497 404,-497 404,-475 298,-475"/>
<text text-anchor="start" x="301" y="-483.2" font-family="Helvetica,sans-Serif" font-size="11.00">varchar[100]</text>
<polygon fill="none" stroke="black" points="10,-453 10,-475 298,-475 298,-453 10,-453"/>
<text text-anchor="start" x="30" y="-461.2" font-family="Helvetica,sans-Serif" font-size="11.00">value_fr</text>
<polygon fill="none" stroke="black" points="298,-453 298,-475 404,-475 404,-453 298,-453"/>
<text text-anchor="start" x="301" y="-461.2" font-family="Helvetica,sans-Serif" font-size="11.00">varchar[100]</text>
<polygon fill="none" stroke="black" points="10,-431 10,-453 298,-453 298,-431 10,-431"/>
<text text-anchor="start" x="30" y="-439.2" font-family="Helvetica,sans-Serif" font-size="11.00">value_it</text>
<polygon fill="none" stroke="black" points="298,-431 298,-453 404,-453 404,-431 298,-431"/>
<text text-anchor="start" x="301" y="-439.2" font-family="Helvetica,sans-Serif" font-size="11.00">varchar[100]</text>
<polygon fill="none" stroke="black" points="10,-409 10,-431 298,-431 298,-409 10,-409"/>
<text text-anchor="start" x="30" y="-417.2" font-family="Helvetica,sans-Serif" font-size="11.00">value_ro</text>
<polygon fill="none" stroke="black" points="298,-409 298,-431 404,-431 404,-409 298,-409"/>
<text text-anchor="start" x="301" y="-417.2" font-family="Helvetica,sans-Serif" font-size="11.00">varchar[100]</text>
<polygon fill="none" stroke="black" points="10,-387 10,-409 298,-409 298,-387 10,-387"/>
<text text-anchor="start" x="30" y="-395.2" font-family="Helvetica,sans-Serif" font-size="11.00">abbr_en</text>
<polygon fill="none" stroke="black" points="298,-387 298,-409 404,-409 404,-387 298,-387"/>
<text text-anchor="start" x="301" y="-395.2" font-family="Helvetica,sans-Serif" font-size="11.00">varchar[3]</text>
<polygon fill="none" stroke="black" points="10,-365 10,-387 298,-387 298,-365 10,-365"/>
<text text-anchor="start" x="30" y="-373.2" font-family="Helvetica,sans-Serif" font-size="11.00">abbr_de</text>
<polygon fill="none" stroke="black" points="298,-365 298,-387 404,-387 404,-365 298,-365"/>
<text text-anchor="start" x="301" y="-373.2" font-family="Helvetica,sans-Serif" font-size="11.00">varchar[3]</text>
<polygon fill="none" stroke="black" points="10,-343 10,-365 298,-365 298,-343 10,-343"/>
<text text-anchor="start" x="30" y="-351.2" font-family="Helvetica,sans-Serif" font-size="11.00">abbr_fr</text>
<polygon fill="none" stroke="black" points="298,-343 298,-365 404,-365 404,-343 298,-343"/>
<text text-anchor="start" x="301" y="-351.2" font-family="Helvetica,sans-Serif" font-size="11.00">varchar[3]</text>
<polygon fill="none" stroke="black" points="10,-321 10,-343 298,-343 298,-321 10,-321"/>
<text text-anchor="start" x="30" y="-329.2" font-family="Helvetica,sans-Serif" font-size="11.00">abbr_it</text>
<polygon fill="none" stroke="black" points="298,-321 298,-343 404,-343 404,-321 298,-321"/>
<text text-anchor="start" x="301" y="-329.2" font-family="Helvetica,sans-Serif" font-size="11.00">varchar[3]</text>
<polygon fill="none" stroke="black" points="10,-299 10,-321 298,-321 298,-299 10,-299"/>
<text text-anchor="start" x="30" y="-307.2" font-family="Helvetica,sans-Serif" font-size="11.00">abbr_ro</text>
<polygon fill="none" stroke="black" points="298,-299 298,-321 404,-321 404,-299 298,-299"/>
<text text-anchor="start" x="301" y="-307.2" font-family="Helvetica,sans-Serif" font-size="11.00">varchar[3]</text>
<polygon fill="none" stroke="black" points="10,-277 10,-299 298,-299 298,-277 10,-277"/>
<text text-anchor="start" x="30" y="-285.2" font-family="Helvetica,sans-Serif" font-size="11.00">description_en</text>
<polygon fill="none" stroke="black" points="298,-277 298,-299 404,-299 404,-277 298,-277"/>
<text text-anchor="start" x="301" y="-285.2" font-family="Helvetica,sans-Serif" font-size="11.00">text[2147483647]</text>
<polygon fill="none" stroke="black" points="10,-255 10,-277 298,-277 298,-255 10,-255"/>
<text text-anchor="start" x="30" y="-263.2" font-family="Helvetica,sans-Serif" font-size="11.00">description_de</text>
<polygon fill="none" stroke="black" points="298,-255 298,-277 404,-277 404,-255 298,-255"/>
<text text-anchor="start" x="301" y="-263.2" font-family="Helvetica,sans-Serif" font-size="11.00">text[2147483647]</text>
<polygon fill="none" stroke="black" points="10,-233 10,-255 298,-255 298,-233 10,-233"/>
<text text-anchor="start" x="30" y="-241.2" font-family="Helvetica,sans-Serif" font-size="11.00">description_fr</text>
<polygon fill="none" stroke="black" points="298,-233 298,-255 404,-255 404,-233 298,-233"/>
<text text-anchor="start" x="301" y="-241.2" font-family="Helvetica,sans-Serif" font-size="11.00">text[2147483647]</text>
<polygon fill="none" stroke="black" points="10,-211 10,-233 298,-233 298,-211 10,-211"/>
<text text-anchor="start" x="30" y="-219.2" font-family="Helvetica,sans-Serif" font-size="11.00">description_it</text>
<polygon fill="none" stroke="black" points="298,-211 298,-233 404,-233 404,-211 298,-211"/>
<text text-anchor="start" x="301" y="-219.2" font-family="Helvetica,sans-Serif" font-size="11.00">text[2147483647]</text>
<polygon fill="none" stroke="black" points="10,-189 10,-211 298,-211 298,-189 10,-189"/>
<text text-anchor="start" x="30" y="-197.2" font-family="Helvetica,sans-Serif" font-size="11.00">description_ro</text>
<polygon fill="none" stroke="black" points="298,-189 298,-211 404,-211 404,-189 298,-189"/>
<text text-anchor="start" x="301" y="-197.2" font-family="Helvetica,sans-Serif" font-size="11.00">text[2147483647]</text>
<polygon fill="none" stroke="black" points="10,-167 10,-189 298,-189 298,-167 10,-167"/>
<text text-anchor="start" x="30" y="-175.2" font-family="Helvetica,sans-Serif" font-size="11.00">display_en</text>
<polygon fill="none" stroke="black" points="298,-167 298,-189 404,-189 404,-167 298,-167"/>
<text text-anchor="start" x="301" y="-175.2" font-family="Helvetica,sans-Serif" font-size="11.00">varchar[100]</text>
<polygon fill="none" stroke="black" points="10,-145 10,-167 298,-167 298,-145 10,-145"/>
<text text-anchor="start" x="30" y="-153.2" font-family="Helvetica,sans-Serif" font-size="11.00">display_de</text>
<polygon fill="none" stroke="black" points="298,-145 298,-167 404,-167 404,-145 298,-145"/>
<text text-anchor="start" x="301" y="-153.2" font-family="Helvetica,sans-Serif" font-size="11.00">varchar[100]</text>
<polygon fill="none" stroke="black" points="10,-123 10,-145 298,-145 298,-123 10,-123"/>
<text text-anchor="start" x="30" y="-131.2" font-family="Helvetica,sans-Serif" font-size="11.00">display_fr</text>
<polygon fill="none" stroke="black" points="298,-123 298,-145 404,-145 404,-123 298,-123"/>
<text text-anchor="start" x="301" y="-131.2" font-family="Helvetica,sans-Serif" font-size="11.00">varchar[100]</text>
<polygon fill="none" stroke="black" points="10,-101 10,-123 298,-123 298,-101 10,-101"/>
<text text-anchor="start" x="30" y="-109.2" font-family="Helvetica,sans-Serif" font-size="11.00">display_it</text>
<polygon fill="none" stroke="black" points="298,-101 298,-123 404,-123 404,-101 298,-101"/>
<text text-anchor="start" x="301" y="-109.2" font-family="Helvetica,sans-Serif" font-size="11.00">varchar[100]</text>
<polygon fill="none" stroke="black" points="10,-79 10,-101 298,-101 298,-79 10,-79"/>
<text text-anchor="start" x="30" y="-87.2" font-family="Helvetica,sans-Serif" font-size="11.00">display_ro</text>
<polygon fill="none" stroke="black" points="298,-79 298,-101 404,-101 404,-79 298,-79"/>
<text text-anchor="start" x="301" y="-87.2" font-family="Helvetica,sans-Serif" font-size="11.00">varchar[100]</text>
<polygon fill="none" stroke="black" points="10,-57 10,-79 298,-79 298,-57 10,-57"/>
<text text-anchor="start" x="30" y="-65.2" font-family="Helvetica,sans-Serif" font-size="11.00">active</text>
<polygon fill="none" stroke="black" points="298,-57 298,-79 404,-79 404,-57 298,-57"/>
<text text-anchor="start" x="301" y="-65.2" font-family="Helvetica,sans-Serif" font-size="11.00">bool[1]</text>
<polygon fill="#ffffff" stroke="transparent" points="10,-39 10,-57 404,-57 404,-39 10,-39"/>
<polygon fill="none" stroke="black" points="10,-39 10,-57 404,-57 404,-39 10,-39"/>
<polygon fill="#ffffff" stroke="transparent" points="11,-40 11,-56 146,-56 146,-40 11,-40"/>
<text text-anchor="start" x="13" y="-45.2" font-family="Helvetica,sans-Serif" font-size="11.00">&lt; 0</text>
<polygon fill="#ffffff" stroke="transparent" points="146,-40 146,-56 269,-56 269,-40 146,-40"/>
<text text-anchor="start" x="203.5" y="-45.2" font-family="Helvetica,sans-Serif" font-size="11.00"> &#160;</text>
<polygon fill="#ffffff" stroke="transparent" points="269,-40 269,-56 403,-56 403,-40 269,-40"/>
<text text-anchor="start" x="381" y="-45.2" font-family="Helvetica,sans-Serif" font-size="11.00">1 &gt;</text>
<polygon fill="black" stroke="black" points="146,-40 146,-56 146,-56 146,-40 146,-40"/>
<polygon fill="black" stroke="black" points="269,-40 269,-56 269,-56 269,-40 269,-40"/>
<polygon fill="none" stroke="black" stroke-width="2" points="9,-38 9,-586 405,-586 405,-38 9,-38"/>
</a>
</g>
</g>
<!-- tdh_od.pipe_point_normal&#45;&gt;pipe_point_normal_armature_setting -->
<g id="edge1" class="edge">
<title>tdh_od.pipe_point_normal:w&#45;&gt;pipe_point_normal_armature_setting:e</title>
<path fill="none" stroke="black" d="M439.84,-552C428.41,-552 421.16,-552 405,-552"/>
<polygon fill="black" stroke="black" points="446.5,-552 454.5,-555.6 450.5,-552 454.5,-552 454.5,-552 454.5,-552 450.5,-552 454.5,-548.4 446.5,-552 446.5,-552"/>
<ellipse fill="none" stroke="black" cx="443.3" cy="-552" rx="3.2" ry="3.2"/>
</g>
</g>
</svg>
