<?xml version="1.0" encoding="UTF-8" standalone="no"?>
<!DOCTYPE svg PUBLIC "-//W3C//DTD SVG 1.1//EN"
 "http://www.w3.org/Graphics/SVG/1.1/DTD/svg11.dtd">
<!-- Generated by graphviz version 2.43.0 (0)
 -->
<!-- Title: oneDegreeRelationshipsDiagram Pages: 1 -->
<svg width="754pt" height="399pt"
 viewBox="0.00 0.00 754.00 399.00" xmlns="http://www.w3.org/2000/svg" xmlns:xlink="http://www.w3.org/1999/xlink">
<g id="graph0" class="graph" transform="scale(1 1) rotate(0) translate(4 395)">
<title>oneDegreeRelationshipsDiagram</title>
<polygon fill="#ffffff" stroke="transparent" points="-4,4 -4,-395 750,-395 750,4 -4,4"/>
<text text-anchor="middle" x="79.5" y="-7.2" font-family="Helvetica,sans-Serif" font-size="11.00">Generated by SchemaSpy</text>
<!-- tdh_od.sia405cc_cable_point -->
<g id="node1" class="node">
<title>tdh_od.sia405cc_cable_point</title>
<g id="a_node1"><a xlink:href="../../../tdh_od/tables/sia405cc_cable_point.html" xlink:title="tdh_od.sia405cc_cable_point" target="_top">
<polygon fill="#ffffff" stroke="transparent" points="483,-241 483,-387 738,-387 738,-241 483,-241"/>
<polygon fill="#f5f5f5" stroke="transparent" points="483.5,-365 483.5,-387 738.5,-387 738.5,-365 483.5,-365"/>
<polygon fill="none" stroke="black" points="483.5,-365 483.5,-387 738.5,-387 738.5,-365 483.5,-365"/>
<text text-anchor="start" x="488.5" y="-374.2" font-family="Helvetica,sans-Serif" font-weight="bold" font-size="11.00">tdh_od.sia405cc_cable_point</text>
<text text-anchor="start" x="696.5" y="-373.2" font-family="Helvetica,sans-Serif" font-size="11.00">[table]</text>
<polygon fill="none" stroke="black" points="483.5,-343 483.5,-365 738.5,-365 738.5,-343 483.5,-343"/>
<image xlink:href="../../images/foreignKeys.png" width="11px" height="12px" preserveAspectRatio="xMinYMin meet" x="488.5" y="-360"/>
<text text-anchor="start" x="531.5" y="-351.2" font-family="Helvetica,sans-Serif" font-size="11.00">kind</text>
<polygon fill="none" stroke="black" points="483.5,-321 483.5,-343 738.5,-343 738.5,-321 483.5,-321"/>
<image xlink:href="../../images/foreignKeys.png" width="11px" height="12px" preserveAspectRatio="xMinYMin meet" x="488.5" y="-338"/>
<text text-anchor="start" x="531.5" y="-329.2" font-family="Helvetica,sans-Serif" font-size="11.00">horizontal_positioning</text>
<polygon fill="none" stroke="black" points="483.5,-299 483.5,-321 738.5,-321 738.5,-299 483.5,-299"/>
<image xlink:href="../../images/foreignKeys.png" width="11px" height="12px" preserveAspectRatio="xMinYMin meet" x="488.5" y="-316"/>
<text text-anchor="start" x="531.5" y="-307.2" font-family="Helvetica,sans-Serif" font-size="11.00">elevation_determination</text>
<polygon fill="none" stroke="black" points="483.5,-277 483.5,-299 738.5,-299 738.5,-277 483.5,-277"/>
<image xlink:href="../../images/foreignKeys.png" width="11px" height="12px" preserveAspectRatio="xMinYMin meet" x="488.5" y="-294"/>
<text text-anchor="start" x="531.5" y="-285.2" font-family="Helvetica,sans-Serif" font-size="11.00">status</text>
<polygon fill="none" stroke="black" points="483.5,-259 483.5,-277 738.5,-277 738.5,-259 483.5,-259"/>
<text text-anchor="start" x="486.5" y="-265.2" font-family="Helvetica,sans-Serif" font-size="11.00">...</text>
<polygon fill="#ffffff" stroke="transparent" points="483.5,-241 483.5,-259 738.5,-259 738.5,-241 483.5,-241"/>
<polygon fill="none" stroke="black" points="483.5,-241 483.5,-259 738.5,-259 738.5,-241 483.5,-241"/>
<polygon fill="#ffffff" stroke="transparent" points="484.5,-242 484.5,-258 567.5,-258 567.5,-242 484.5,-242"/>
<text text-anchor="start" x="486.5" y="-247.2" font-family="Helvetica,sans-Serif" font-size="11.00">&lt; 4</text>
<polygon fill="#ffffff" stroke="transparent" points="567.5,-242 567.5,-258 667.5,-258 667.5,-242 567.5,-242"/>
<text text-anchor="start" x="599" y="-247.2" font-family="Helvetica,sans-Serif" font-size="11.00">0 rows</text>
<polygon fill="#ffffff" stroke="transparent" points="667.5,-242 667.5,-258 737.5,-258 737.5,-242 667.5,-242"/>
<text text-anchor="start" x="727.5" y="-247.2" font-family="Helvetica,sans-Serif" font-size="11.00"> &#160;</text>
<polygon fill="black" stroke="black" points="567.5,-242 567.5,-258 567.5,-258 567.5,-242 567.5,-242"/>
<polygon fill="black" stroke="black" points="667.5,-242 667.5,-258 667.5,-258 667.5,-242 667.5,-242"/>
</a>
</g>
</g>
<!-- sia405cc_cable_point_horizontal_positioning -->
<g id="node2" class="node">
<title>sia405cc_cable_point_horizontal_positioning</title>
<g id="a_node2"><a xlink:href="../../tables/sia405cc_cable_point_horizontal_dbbdef40.html" xlink:title="sia405cc_cable_point_horizontal_positioning" target="_top">
<polygon fill="#ffffff" stroke="transparent" points="8,-37 8,-367 434,-367 434,-37 8,-37"/>
<polygon fill="#f5f5f5" stroke="transparent" points="10,-343 10,-365 432,-365 432,-343 10,-343"/>
<polygon fill="none" stroke="black" points="10,-343 10,-365 432,-365 432,-343 10,-343"/>
<text text-anchor="start" x="15" y="-352.2" font-family="Helvetica,sans-Serif" font-weight="bold" font-size="11.00">sia405cc_cable_point_horizontal_positioning</text>
<text text-anchor="start" x="390" y="-351.2" font-family="Helvetica,sans-Serif" font-size="11.00">[table]</text>
<polygon fill="none" stroke="black" points="10,-321 10,-343 354,-343 354,-321 10,-321"/>
<image xlink:href="../../images/primaryKeys.png" width="11px" height="12px" preserveAspectRatio="xMinYMin meet" x="15" y="-338"/>
<text text-anchor="start" x="30" y="-329.2" font-family="Helvetica,sans-Serif" font-size="11.00">code</text>
<polygon fill="none" stroke="black" points="354,-321 354,-343 432,-343 432,-321 354,-321"/>
<text text-anchor="start" x="357" y="-329.2" font-family="Helvetica,sans-Serif" font-size="11.00">int4[10]</text>
<polygon fill="none" stroke="black" points="10,-299 10,-321 354,-321 354,-299 10,-299"/>
<text text-anchor="start" x="30" y="-307.2" font-family="Helvetica,sans-Serif" font-size="11.00">vsacode</text>
<polygon fill="none" stroke="black" points="354,-299 354,-321 432,-321 432,-299 354,-299"/>
<text text-anchor="start" x="357" y="-307.2" font-family="Helvetica,sans-Serif" font-size="11.00">int4[10]</text>
<polygon fill="none" stroke="black" points="10,-277 10,-299 354,-299 354,-277 10,-277"/>
<text text-anchor="start" x="30" y="-285.2" font-family="Helvetica,sans-Serif" font-size="11.00">value_en</text>
<polygon fill="none" stroke="black" points="354,-277 354,-299 432,-299 432,-277 354,-277"/>
<text text-anchor="start" x="357" y="-285.2" font-family="Helvetica,sans-Serif" font-size="11.00">varchar[100]</text>
<polygon fill="none" stroke="black" points="10,-255 10,-277 354,-277 354,-255 10,-255"/>
<text text-anchor="start" x="30" y="-263.2" font-family="Helvetica,sans-Serif" font-size="11.00">value_de</text>
<polygon fill="none" stroke="black" points="354,-255 354,-277 432,-277 432,-255 354,-255"/>
<text text-anchor="start" x="357" y="-263.2" font-family="Helvetica,sans-Serif" font-size="11.00">varchar[100]</text>
<polygon fill="none" stroke="black" points="10,-233 10,-255 354,-255 354,-233 10,-233"/>
<text text-anchor="start" x="30" y="-241.2" font-family="Helvetica,sans-Serif" font-size="11.00">value_fr</text>
<polygon fill="none" stroke="black" points="354,-233 354,-255 432,-255 432,-233 354,-233"/>
<text text-anchor="start" x="357" y="-241.2" font-family="Helvetica,sans-Serif" font-size="11.00">varchar[100]</text>
<polygon fill="none" stroke="black" points="10,-211 10,-233 354,-233 354,-211 10,-211"/>
<text text-anchor="start" x="30" y="-219.2" font-family="Helvetica,sans-Serif" font-size="11.00">value_it</text>
<polygon fill="none" stroke="black" points="354,-211 354,-233 432,-233 432,-211 354,-211"/>
<text text-anchor="start" x="357" y="-219.2" font-family="Helvetica,sans-Serif" font-size="11.00">varchar[100]</text>
<polygon fill="none" stroke="black" points="10,-189 10,-211 354,-211 354,-189 10,-189"/>
<text text-anchor="start" x="30" y="-197.2" font-family="Helvetica,sans-Serif" font-size="11.00">value_ro</text>
<polygon fill="none" stroke="black" points="354,-189 354,-211 432,-211 432,-189 354,-189"/>
<text text-anchor="start" x="357" y="-197.2" font-family="Helvetica,sans-Serif" font-size="11.00">varchar[100]</text>
<polygon fill="none" stroke="black" points="10,-167 10,-189 354,-189 354,-167 10,-167"/>
<text text-anchor="start" x="30" y="-175.2" font-family="Helvetica,sans-Serif" font-size="11.00">abbr_en</text>
<polygon fill="none" stroke="black" points="354,-167 354,-189 432,-189 432,-167 354,-167"/>
<text text-anchor="start" x="357" y="-175.2" font-family="Helvetica,sans-Serif" font-size="11.00">varchar[3]</text>
<polygon fill="none" stroke="black" points="10,-145 10,-167 354,-167 354,-145 10,-145"/>
<text text-anchor="start" x="30" y="-153.2" font-family="Helvetica,sans-Serif" font-size="11.00">abbr_de</text>
<polygon fill="none" stroke="black" points="354,-145 354,-167 432,-167 432,-145 354,-145"/>
<text text-anchor="start" x="357" y="-153.2" font-family="Helvetica,sans-Serif" font-size="11.00">varchar[3]</text>
<polygon fill="none" stroke="black" points="10,-123 10,-145 354,-145 354,-123 10,-123"/>
<text text-anchor="start" x="30" y="-131.2" font-family="Helvetica,sans-Serif" font-size="11.00">abbr_fr</text>
<polygon fill="none" stroke="black" points="354,-123 354,-145 432,-145 432,-123 354,-123"/>
<text text-anchor="start" x="357" y="-131.2" font-family="Helvetica,sans-Serif" font-size="11.00">varchar[3]</text>
<polygon fill="none" stroke="black" points="10,-101 10,-123 354,-123 354,-101 10,-101"/>
<text text-anchor="start" x="30" y="-109.2" font-family="Helvetica,sans-Serif" font-size="11.00">abbr_it</text>
<polygon fill="none" stroke="black" points="354,-101 354,-123 432,-123 432,-101 354,-101"/>
<text text-anchor="start" x="357" y="-109.2" font-family="Helvetica,sans-Serif" font-size="11.00">varchar[3]</text>
<polygon fill="none" stroke="black" points="10,-79 10,-101 354,-101 354,-79 10,-79"/>
<text text-anchor="start" x="30" y="-87.2" font-family="Helvetica,sans-Serif" font-size="11.00">abbr_ro</text>
<polygon fill="none" stroke="black" points="354,-79 354,-101 432,-101 432,-79 354,-79"/>
<text text-anchor="start" x="357" y="-87.2" font-family="Helvetica,sans-Serif" font-size="11.00">varchar[3]</text>
<polygon fill="none" stroke="black" points="10,-57 10,-79 354,-79 354,-57 10,-57"/>
<text text-anchor="start" x="30" y="-65.2" font-family="Helvetica,sans-Serif" font-size="11.00">active</text>
<polygon fill="none" stroke="black" points="354,-57 354,-79 432,-79 432,-57 354,-57"/>
<text text-anchor="start" x="357" y="-65.2" font-family="Helvetica,sans-Serif" font-size="11.00">bool[1]</text>
<polygon fill="#ffffff" stroke="transparent" points="10,-39 10,-57 432,-57 432,-39 10,-39"/>
<polygon fill="none" stroke="black" points="10,-39 10,-57 432,-57 432,-39 10,-39"/>
<polygon fill="#ffffff" stroke="transparent" points="11,-40 11,-56 155,-56 155,-40 11,-40"/>
<text text-anchor="start" x="13" y="-45.2" font-family="Helvetica,sans-Serif" font-size="11.00">&lt; 0</text>
<polygon fill="#ffffff" stroke="transparent" points="155,-40 155,-56 287,-56 287,-40 155,-40"/>
<text text-anchor="start" x="217" y="-45.2" font-family="Helvetica,sans-Serif" font-size="11.00"> &#160;</text>
<polygon fill="#ffffff" stroke="transparent" points="287,-40 287,-56 431,-56 431,-40 287,-40"/>
<text text-anchor="start" x="409" y="-45.2" font-family="Helvetica,sans-Serif" font-size="11.00">1 &gt;</text>
<polygon fill="black" stroke="black" points="155,-40 155,-56 155,-56 155,-40 155,-40"/>
<polygon fill="black" stroke="black" points="287,-40 287,-56 287,-56 287,-40 287,-40"/>
<polygon fill="none" stroke="black" stroke-width="2" points="9,-38 9,-366 433,-366 433,-38 9,-38"/>
</a>
</g>
</g>
<!-- tdh_od.sia405cc_cable_point&#45;&gt;sia405cc_cable_point_horizontal_positioning -->
<g id="edge1" class="edge">
<title>tdh_od.sia405cc_cable_point:w&#45;&gt;sia405cc_cable_point_horizontal_positioning:e</title>
<path fill="none" stroke="black" d="M467.84,-332C456.41,-332 449.16,-332 433,-332"/>
<polygon fill="black" stroke="black" points="474.5,-332 482.5,-335.6 478.5,-332 482.5,-332 482.5,-332 482.5,-332 478.5,-332 482.5,-328.4 474.5,-332 474.5,-332"/>
<ellipse fill="none" stroke="black" cx="471.3" cy="-332" rx="3.2" ry="3.2"/>
</g>
</g>
</svg>
