<?xml version="1.0" encoding="UTF-8" standalone="no"?>
<!DOCTYPE svg PUBLIC "-//W3C//DTD SVG 1.1//EN"
 "http://www.w3.org/Graphics/SVG/1.1/DTD/svg11.dtd">
<!-- Generated by graphviz version 2.47.1 (20210515.0534)
 -->
<!-- Title: oneDegreeRelationshipsDiagram Pages: 1 -->
<svg width="484pt" height="379pt"
 viewBox="0.00 0.00 484.00 379.00" xmlns="http://www.w3.org/2000/svg" xmlns:xlink="http://www.w3.org/1999/xlink">
<g id="graph0" class="graph" transform="scale(1 1) rotate(0) translate(4 375)">
<title>oneDegreeRelationshipsDiagram</title>
<polygon fill="#ffffff" stroke="transparent" points="-4,4 -4,-375 480,-375 480,4 -4,4"/>
<text text-anchor="middle" x="73.5" y="-7.2" font-family="Helvetica,sans-Serif" font-size="11.00">Generated by SchemaSpy</text>
<!-- tdh_od.sia405cc_cable -->
<g id="node1" class="node">
<title>tdh_od.sia405cc_cable</title>
<g id="a_node1"><a xlink:href="../../../tdh_od/tables/sia405cc_cable.html" xlink:title="tdh_od.sia405cc_cable" target="_top">
<polygon fill="#ffffff" stroke="transparent" points="294,-197 294,-365 468,-365 468,-197 294,-197"/>
<polygon fill="#f5f5f5" stroke="transparent" points="294,-343 294,-365 468,-365 468,-343 294,-343"/>
<polygon fill="none" stroke="black" points="294,-343 294,-365 468,-365 468,-343 294,-343"/>
<text text-anchor="start" x="299" y="-352.2" font-family="Helvetica,sans-Serif" font-weight="bold" font-size="11.00">tdh_od.sia405cc_cable</text>
<text text-anchor="start" x="429" y="-351.2" font-family="Helvetica,sans-Serif" font-size="11.00">[table]</text>
<polygon fill="none" stroke="black" points="294,-321 294,-343 468,-343 468,-321 294,-321"/>
<image xlink:href="../../images/foreignKeys.png" width="11px" height="12px" preserveAspectRatio="xMinYMin meet" x="299" y="-338"/>
<text text-anchor="start" x="317" y="-329.2" font-family="Helvetica,sans-Serif" font-size="11.00">function</text>
<polygon fill="none" stroke="black" points="294,-299 294,-321 468,-321 468,-299 294,-299"/>
<image xlink:href="../../images/foreignKeys.png" width="11px" height="12px" preserveAspectRatio="xMinYMin meet" x="299" y="-316"/>
<text text-anchor="start" x="317" y="-307.2" font-family="Helvetica,sans-Serif" font-size="11.00">cable_type</text>
<polygon fill="none" stroke="black" points="294,-277 294,-299 468,-299 468,-277 294,-277"/>
<image xlink:href="../../images/foreignKeys.png" width="11px" height="12px" preserveAspectRatio="xMinYMin meet" x="299" y="-294"/>
<text text-anchor="start" x="317" y="-285.2" font-family="Helvetica,sans-Serif" font-size="11.00">horizontal_positioning</text>
<polygon fill="none" stroke="black" points="294,-255 294,-277 468,-277 468,-255 294,-255"/>
<image xlink:href="../../images/foreignKeys.png" width="11px" height="12px" preserveAspectRatio="xMinYMin meet" x="299" y="-272"/>
<text text-anchor="start" x="317" y="-263.2" font-family="Helvetica,sans-Serif" font-size="11.00">status</text>
<polygon fill="none" stroke="black" points="294,-233 294,-255 468,-255 468,-233 294,-233"/>
<image xlink:href="../../images/foreignKeys.png" width="11px" height="12px" preserveAspectRatio="xMinYMin meet" x="299" y="-250"/>
<text text-anchor="start" x="317" y="-241.2" font-family="Helvetica,sans-Serif" font-size="11.00">elevation_determination</text>
<polygon fill="none" stroke="black" points="294,-215 294,-233 468,-233 468,-215 294,-215"/>
<text text-anchor="start" x="297" y="-221.2" font-family="Helvetica,sans-Serif" font-size="11.00">...</text>
<polygon fill="#ffffff" stroke="transparent" points="294,-197 294,-215 365,-215 365,-197 294,-197"/>
<polygon fill="none" stroke="black" points="294,-197 294,-215 365,-215 365,-197 294,-197"/>
<text text-anchor="start" x="297" y="-203.2" font-family="Helvetica,sans-Serif" font-size="11.00">&lt; 5</text>
<polygon fill="#ffffff" stroke="transparent" points="365,-197 365,-215 430,-215 430,-197 365,-197"/>
<polygon fill="none" stroke="black" points="365,-197 365,-215 430,-215 430,-197 365,-197"/>
<text text-anchor="start" x="393" y="-203.2" font-family="Helvetica,sans-Serif" font-size="11.00">0 rows</text>
<polygon fill="#ffffff" stroke="transparent" points="430,-197 430,-215 468,-215 468,-197 430,-197"/>
<polygon fill="none" stroke="black" points="430,-197 430,-215 468,-215 468,-197 430,-197"/>
<text text-anchor="start" x="458" y="-203.2" font-family="Helvetica,sans-Serif" font-size="11.00"> &#160;</text>
</a>
</g>
</g>
<!-- sia405cc_cable_function -->
<g id="node2" class="node">
<title>sia405cc_cable_function</title>
<g id="a_node2"><a xlink:href="../../tables/sia405cc_cable_function.html" xlink:title="sia405cc_cable_function" target="_top">
<polygon fill="#ffffff" stroke="transparent" points="8,-37 8,-367 245,-367 245,-37 8,-37"/>
<polygon fill="#f5f5f5" stroke="transparent" points="10.5,-343 10.5,-365 243.5,-365 243.5,-343 10.5,-343"/>
<polygon fill="none" stroke="black" points="10.5,-343 10.5,-365 243.5,-365 243.5,-343 10.5,-343"/>
<text text-anchor="start" x="15.5" y="-352.2" font-family="Helvetica,sans-Serif" font-weight="bold" font-size="11.00">sia405cc_cable_function</text>
<text text-anchor="start" x="204.5" y="-351.2" font-family="Helvetica,sans-Serif" font-size="11.00">[table]</text>
<polygon fill="none" stroke="black" points="10.5,-321 10.5,-343 173.5,-343 173.5,-321 10.5,-321"/>
<image xlink:href="../../images/primaryKeys.png" width="11px" height="12px" preserveAspectRatio="xMinYMin meet" x="15.5" y="-338"/>
<text text-anchor="start" x="30.5" y="-329.2" font-family="Helvetica,sans-Serif" font-size="11.00">code</text>
<polygon fill="none" stroke="black" points="173.5,-321 173.5,-343 243.5,-343 243.5,-321 173.5,-321"/>
<text text-anchor="start" x="176.5" y="-329.2" font-family="Helvetica,sans-Serif" font-size="11.00">int4[10]</text>
<polygon fill="none" stroke="black" points="10.5,-299 10.5,-321 173.5,-321 173.5,-299 10.5,-299"/>
<text text-anchor="start" x="30.5" y="-307.2" font-family="Helvetica,sans-Serif" font-size="11.00">vsacode</text>
<polygon fill="none" stroke="black" points="173.5,-299 173.5,-321 243.5,-321 243.5,-299 173.5,-299"/>
<text text-anchor="start" x="176.5" y="-307.2" font-family="Helvetica,sans-Serif" font-size="11.00">int4[10]</text>
<polygon fill="none" stroke="black" points="10.5,-277 10.5,-299 173.5,-299 173.5,-277 10.5,-277"/>
<text text-anchor="start" x="30.5" y="-285.2" font-family="Helvetica,sans-Serif" font-size="11.00">value_en</text>
<polygon fill="none" stroke="black" points="173.5,-277 173.5,-299 243.5,-299 243.5,-277 173.5,-277"/>
<text text-anchor="start" x="176.5" y="-285.2" font-family="Helvetica,sans-Serif" font-size="11.00">varchar[100]</text>
<polygon fill="none" stroke="black" points="10.5,-255 10.5,-277 173.5,-277 173.5,-255 10.5,-255"/>
<text text-anchor="start" x="30.5" y="-263.2" font-family="Helvetica,sans-Serif" font-size="11.00">value_de</text>
<polygon fill="none" stroke="black" points="173.5,-255 173.5,-277 243.5,-277 243.5,-255 173.5,-255"/>
<text text-anchor="start" x="176.5" y="-263.2" font-family="Helvetica,sans-Serif" font-size="11.00">varchar[100]</text>
<polygon fill="none" stroke="black" points="10.5,-233 10.5,-255 173.5,-255 173.5,-233 10.5,-233"/>
<text text-anchor="start" x="30.5" y="-241.2" font-family="Helvetica,sans-Serif" font-size="11.00">value_fr</text>
<polygon fill="none" stroke="black" points="173.5,-233 173.5,-255 243.5,-255 243.5,-233 173.5,-233"/>
<text text-anchor="start" x="176.5" y="-241.2" font-family="Helvetica,sans-Serif" font-size="11.00">varchar[100]</text>
<polygon fill="none" stroke="black" points="10.5,-211 10.5,-233 173.5,-233 173.5,-211 10.5,-211"/>
<text text-anchor="start" x="30.5" y="-219.2" font-family="Helvetica,sans-Serif" font-size="11.00">value_it</text>
<polygon fill="none" stroke="black" points="173.5,-211 173.5,-233 243.5,-233 243.5,-211 173.5,-211"/>
<text text-anchor="start" x="176.5" y="-219.2" font-family="Helvetica,sans-Serif" font-size="11.00">varchar[100]</text>
<polygon fill="none" stroke="black" points="10.5,-189 10.5,-211 173.5,-211 173.5,-189 10.5,-189"/>
<text text-anchor="start" x="30.5" y="-197.2" font-family="Helvetica,sans-Serif" font-size="11.00">value_ro</text>
<polygon fill="none" stroke="black" points="173.5,-189 173.5,-211 243.5,-211 243.5,-189 173.5,-189"/>
<text text-anchor="start" x="176.5" y="-197.2" font-family="Helvetica,sans-Serif" font-size="11.00">varchar[100]</text>
<polygon fill="none" stroke="black" points="10.5,-167 10.5,-189 173.5,-189 173.5,-167 10.5,-167"/>
<text text-anchor="start" x="30.5" y="-175.2" font-family="Helvetica,sans-Serif" font-size="11.00">abbr_en</text>
<polygon fill="none" stroke="black" points="173.5,-167 173.5,-189 243.5,-189 243.5,-167 173.5,-167"/>
<text text-anchor="start" x="176.5" y="-175.2" font-family="Helvetica,sans-Serif" font-size="11.00">varchar[3]</text>
<polygon fill="none" stroke="black" points="10.5,-145 10.5,-167 173.5,-167 173.5,-145 10.5,-145"/>
<text text-anchor="start" x="30.5" y="-153.2" font-family="Helvetica,sans-Serif" font-size="11.00">abbr_de</text>
<polygon fill="none" stroke="black" points="173.5,-145 173.5,-167 243.5,-167 243.5,-145 173.5,-145"/>
<text text-anchor="start" x="176.5" y="-153.2" font-family="Helvetica,sans-Serif" font-size="11.00">varchar[3]</text>
<polygon fill="none" stroke="black" points="10.5,-123 10.5,-145 173.5,-145 173.5,-123 10.5,-123"/>
<text text-anchor="start" x="30.5" y="-131.2" font-family="Helvetica,sans-Serif" font-size="11.00">abbr_fr</text>
<polygon fill="none" stroke="black" points="173.5,-123 173.5,-145 243.5,-145 243.5,-123 173.5,-123"/>
<text text-anchor="start" x="176.5" y="-131.2" font-family="Helvetica,sans-Serif" font-size="11.00">varchar[3]</text>
<polygon fill="none" stroke="black" points="10.5,-101 10.5,-123 173.5,-123 173.5,-101 10.5,-101"/>
<text text-anchor="start" x="30.5" y="-109.2" font-family="Helvetica,sans-Serif" font-size="11.00">abbr_it</text>
<polygon fill="none" stroke="black" points="173.5,-101 173.5,-123 243.5,-123 243.5,-101 173.5,-101"/>
<text text-anchor="start" x="176.5" y="-109.2" font-family="Helvetica,sans-Serif" font-size="11.00">varchar[3]</text>
<polygon fill="none" stroke="black" points="10.5,-79 10.5,-101 173.5,-101 173.5,-79 10.5,-79"/>
<text text-anchor="start" x="30.5" y="-87.2" font-family="Helvetica,sans-Serif" font-size="11.00">abbr_ro</text>
<polygon fill="none" stroke="black" points="173.5,-79 173.5,-101 243.5,-101 243.5,-79 173.5,-79"/>
<text text-anchor="start" x="176.5" y="-87.2" font-family="Helvetica,sans-Serif" font-size="11.00">varchar[3]</text>
<polygon fill="none" stroke="black" points="10.5,-57 10.5,-79 173.5,-79 173.5,-57 10.5,-57"/>
<text text-anchor="start" x="30.5" y="-65.2" font-family="Helvetica,sans-Serif" font-size="11.00">active</text>
<polygon fill="none" stroke="black" points="173.5,-57 173.5,-79 243.5,-79 243.5,-57 173.5,-57"/>
<text text-anchor="start" x="176.5" y="-65.2" font-family="Helvetica,sans-Serif" font-size="11.00">bool[1]</text>
<polygon fill="#ffffff" stroke="transparent" points="10.5,-39 10.5,-57 96.5,-57 96.5,-39 10.5,-39"/>
<polygon fill="none" stroke="black" points="10.5,-39 10.5,-57 96.5,-57 96.5,-39 10.5,-39"/>
<text text-anchor="start" x="13.5" y="-45.2" font-family="Helvetica,sans-Serif" font-size="11.00">&lt; 0</text>
<polygon fill="#ffffff" stroke="transparent" points="96.5,-39 96.5,-57 173.5,-57 173.5,-39 96.5,-39"/>
<polygon fill="none" stroke="black" points="96.5,-39 96.5,-57 173.5,-57 173.5,-39 96.5,-39"/>
<text text-anchor="start" x="163.5" y="-45.2" font-family="Helvetica,sans-Serif" font-size="11.00"> &#160;</text>
<polygon fill="#ffffff" stroke="transparent" points="173.5,-39 173.5,-57 243.5,-57 243.5,-39 173.5,-39"/>
<polygon fill="none" stroke="black" points="173.5,-39 173.5,-57 243.5,-57 243.5,-39 173.5,-39"/>
<text text-anchor="start" x="224.5" y="-45.2" font-family="Helvetica,sans-Serif" font-size="11.00">1 &gt;</text>
<polygon fill="none" stroke="black" stroke-width="2" points="9,-38 9,-366 244,-366 244,-38 9,-38"/>
</a>
</g>
</g>
<!-- tdh_od.sia405cc_cable&#45;&gt;sia405cc_cable_function -->
<g id="edge1" class="edge">
<title>tdh_od.sia405cc_cable:w&#45;&gt;sia405cc_cable_function:e</title>
<path fill="none" stroke="black" d="M278.28,-332C267.29,-332 260.16,-332 244.5,-332"/>
<polygon fill="black" stroke="black" points="285,-332 293,-335.6 289,-332 293,-332 293,-332 293,-332 289,-332 293,-328.4 285,-332 285,-332"/>
<ellipse fill="none" stroke="black" cx="281.8" cy="-332" rx="3.2" ry="3.2"/>
</g>
</g>
</svg>
