<?xml version="1.0" encoding="UTF-8" standalone="no"?>
<!DOCTYPE svg PUBLIC "-//W3C//DTD SVG 1.1//EN"
 "http://www.w3.org/Graphics/SVG/1.1/DTD/svg11.dtd">
<!-- Generated by graphviz version 2.47.1 (20210515.0534)
 -->
<!-- Title: oneDegreeRelationshipsDiagram Pages: 1 -->
<svg width="567pt" height="421pt"
 viewBox="0.00 0.00 567.00 421.00" xmlns="http://www.w3.org/2000/svg" xmlns:xlink="http://www.w3.org/1999/xlink">
<g id="graph0" class="graph" transform="scale(1 1) rotate(0) translate(4 417)">
<title>oneDegreeRelationshipsDiagram</title>
<polygon fill="#ffffff" stroke="transparent" points="-4,4 -4,-417 563,-417 563,4 -4,4"/>
<text text-anchor="middle" x="73.5" y="-7.2" font-family="Helvetica,sans-Serif" font-size="11.00">Generated by SchemaSpy</text>
<!-- tdh_od.sia405cc_cable -->
<g id="node1" class="node">
<title>tdh_od.sia405cc_cable</title>
<g id="a_node1"><a xlink:href="../../../tdh_od/tables/sia405cc_cable.html" xlink:title="tdh_od.sia405cc_cable" target="_top">
<polygon fill="#ffffff" stroke="transparent" points="377,-241 377,-409 551,-409 551,-241 377,-241"/>
<polygon fill="#f5f5f5" stroke="transparent" points="377,-387 377,-409 551,-409 551,-387 377,-387"/>
<polygon fill="none" stroke="black" points="377,-387 377,-409 551,-409 551,-387 377,-387"/>
<text text-anchor="start" x="382" y="-396.2" font-family="Helvetica,sans-Serif" font-weight="bold" font-size="11.00">tdh_od.sia405cc_cable</text>
<text text-anchor="start" x="512" y="-395.2" font-family="Helvetica,sans-Serif" font-size="11.00">[table]</text>
<polygon fill="none" stroke="black" points="377,-365 377,-387 551,-387 551,-365 377,-365"/>
<image xlink:href="../../images/foreignKeys.png" width="11px" height="12px" preserveAspectRatio="xMinYMin meet" x="382" y="-382"/>
<text text-anchor="start" x="400" y="-373.2" font-family="Helvetica,sans-Serif" font-size="11.00">function</text>
<polygon fill="none" stroke="black" points="377,-343 377,-365 551,-365 551,-343 377,-343"/>
<image xlink:href="../../images/foreignKeys.png" width="11px" height="12px" preserveAspectRatio="xMinYMin meet" x="382" y="-360"/>
<text text-anchor="start" x="400" y="-351.2" font-family="Helvetica,sans-Serif" font-size="11.00">cable_type</text>
<polygon fill="none" stroke="black" points="377,-321 377,-343 551,-343 551,-321 377,-321"/>
<image xlink:href="../../images/foreignKeys.png" width="11px" height="12px" preserveAspectRatio="xMinYMin meet" x="382" y="-338"/>
<text text-anchor="start" x="400" y="-329.2" font-family="Helvetica,sans-Serif" font-size="11.00">horizontal_positioning</text>
<polygon fill="none" stroke="black" points="377,-299 377,-321 551,-321 551,-299 377,-299"/>
<image xlink:href="../../images/foreignKeys.png" width="11px" height="12px" preserveAspectRatio="xMinYMin meet" x="382" y="-316"/>
<text text-anchor="start" x="400" y="-307.2" font-family="Helvetica,sans-Serif" font-size="11.00">status</text>
<polygon fill="none" stroke="black" points="377,-277 377,-299 551,-299 551,-277 377,-277"/>
<image xlink:href="../../images/foreignKeys.png" width="11px" height="12px" preserveAspectRatio="xMinYMin meet" x="382" y="-294"/>
<text text-anchor="start" x="400" y="-285.2" font-family="Helvetica,sans-Serif" font-size="11.00">elevation_determination</text>
<polygon fill="none" stroke="black" points="377,-259 377,-277 551,-277 551,-259 377,-259"/>
<text text-anchor="start" x="380" y="-265.2" font-family="Helvetica,sans-Serif" font-size="11.00">...</text>
<polygon fill="#ffffff" stroke="transparent" points="377,-241 377,-259 448,-259 448,-241 377,-241"/>
<polygon fill="none" stroke="black" points="377,-241 377,-259 448,-259 448,-241 377,-241"/>
<text text-anchor="start" x="380" y="-247.2" font-family="Helvetica,sans-Serif" font-size="11.00">&lt; 5</text>
<polygon fill="#ffffff" stroke="transparent" points="448,-241 448,-259 513,-259 513,-241 448,-241"/>
<polygon fill="none" stroke="black" points="448,-241 448,-259 513,-259 513,-241 448,-241"/>
<text text-anchor="start" x="476" y="-247.2" font-family="Helvetica,sans-Serif" font-size="11.00">0 rows</text>
<polygon fill="#ffffff" stroke="transparent" points="513,-241 513,-259 551,-259 551,-241 513,-241"/>
<polygon fill="none" stroke="black" points="513,-241 513,-259 551,-259 551,-241 513,-241"/>
<text text-anchor="start" x="541" y="-247.2" font-family="Helvetica,sans-Serif" font-size="11.00"> &#160;</text>
</a>
</g>
</g>
<!-- sia405cc_cable_horizontal_positioning -->
<g id="node2" class="node">
<title>sia405cc_cable_horizontal_positioning</title>
<g id="a_node2"><a xlink:href="../../tables/sia405cc_cable_horizontal_positioning.html" xlink:title="sia405cc_cable_horizontal_positioning" target="_top">
<polygon fill="#ffffff" stroke="transparent" points="8,-37 8,-367 328,-367 328,-37 8,-37"/>
<polygon fill="#f5f5f5" stroke="transparent" points="10,-343 10,-365 326,-365 326,-343 10,-343"/>
<polygon fill="none" stroke="black" points="10,-343 10,-365 326,-365 326,-343 10,-343"/>
<text text-anchor="start" x="15" y="-352.2" font-family="Helvetica,sans-Serif" font-weight="bold" font-size="11.00">sia405cc_cable_horizontal_positioning</text>
<text text-anchor="start" x="287" y="-351.2" font-family="Helvetica,sans-Serif" font-size="11.00">[table]</text>
<polygon fill="none" stroke="black" points="10,-321 10,-343 256,-343 256,-321 10,-321"/>
<image xlink:href="../../images/primaryKeys.png" width="11px" height="12px" preserveAspectRatio="xMinYMin meet" x="15" y="-338"/>
<text text-anchor="start" x="30" y="-329.2" font-family="Helvetica,sans-Serif" font-size="11.00">code</text>
<polygon fill="none" stroke="black" points="256,-321 256,-343 326,-343 326,-321 256,-321"/>
<text text-anchor="start" x="259" y="-329.2" font-family="Helvetica,sans-Serif" font-size="11.00">int4[10]</text>
<polygon fill="none" stroke="black" points="10,-299 10,-321 256,-321 256,-299 10,-299"/>
<text text-anchor="start" x="30" y="-307.2" font-family="Helvetica,sans-Serif" font-size="11.00">vsacode</text>
<polygon fill="none" stroke="black" points="256,-299 256,-321 326,-321 326,-299 256,-299"/>
<text text-anchor="start" x="259" y="-307.2" font-family="Helvetica,sans-Serif" font-size="11.00">int4[10]</text>
<polygon fill="none" stroke="black" points="10,-277 10,-299 256,-299 256,-277 10,-277"/>
<text text-anchor="start" x="30" y="-285.2" font-family="Helvetica,sans-Serif" font-size="11.00">value_en</text>
<polygon fill="none" stroke="black" points="256,-277 256,-299 326,-299 326,-277 256,-277"/>
<text text-anchor="start" x="259" y="-285.2" font-family="Helvetica,sans-Serif" font-size="11.00">varchar[100]</text>
<polygon fill="none" stroke="black" points="10,-255 10,-277 256,-277 256,-255 10,-255"/>
<text text-anchor="start" x="30" y="-263.2" font-family="Helvetica,sans-Serif" font-size="11.00">value_de</text>
<polygon fill="none" stroke="black" points="256,-255 256,-277 326,-277 326,-255 256,-255"/>
<text text-anchor="start" x="259" y="-263.2" font-family="Helvetica,sans-Serif" font-size="11.00">varchar[100]</text>
<polygon fill="none" stroke="black" points="10,-233 10,-255 256,-255 256,-233 10,-233"/>
<text text-anchor="start" x="30" y="-241.2" font-family="Helvetica,sans-Serif" font-size="11.00">value_fr</text>
<polygon fill="none" stroke="black" points="256,-233 256,-255 326,-255 326,-233 256,-233"/>
<text text-anchor="start" x="259" y="-241.2" font-family="Helvetica,sans-Serif" font-size="11.00">varchar[100]</text>
<polygon fill="none" stroke="black" points="10,-211 10,-233 256,-233 256,-211 10,-211"/>
<text text-anchor="start" x="30" y="-219.2" font-family="Helvetica,sans-Serif" font-size="11.00">value_it</text>
<polygon fill="none" stroke="black" points="256,-211 256,-233 326,-233 326,-211 256,-211"/>
<text text-anchor="start" x="259" y="-219.2" font-family="Helvetica,sans-Serif" font-size="11.00">varchar[100]</text>
<polygon fill="none" stroke="black" points="10,-189 10,-211 256,-211 256,-189 10,-189"/>
<text text-anchor="start" x="30" y="-197.2" font-family="Helvetica,sans-Serif" font-size="11.00">value_ro</text>
<polygon fill="none" stroke="black" points="256,-189 256,-211 326,-211 326,-189 256,-189"/>
<text text-anchor="start" x="259" y="-197.2" font-family="Helvetica,sans-Serif" font-size="11.00">varchar[100]</text>
<polygon fill="none" stroke="black" points="10,-167 10,-189 256,-189 256,-167 10,-167"/>
<text text-anchor="start" x="30" y="-175.2" font-family="Helvetica,sans-Serif" font-size="11.00">abbr_en</text>
<polygon fill="none" stroke="black" points="256,-167 256,-189 326,-189 326,-167 256,-167"/>
<text text-anchor="start" x="259" y="-175.2" font-family="Helvetica,sans-Serif" font-size="11.00">varchar[3]</text>
<polygon fill="none" stroke="black" points="10,-145 10,-167 256,-167 256,-145 10,-145"/>
<text text-anchor="start" x="30" y="-153.2" font-family="Helvetica,sans-Serif" font-size="11.00">abbr_de</text>
<polygon fill="none" stroke="black" points="256,-145 256,-167 326,-167 326,-145 256,-145"/>
<text text-anchor="start" x="259" y="-153.2" font-family="Helvetica,sans-Serif" font-size="11.00">varchar[3]</text>
<polygon fill="none" stroke="black" points="10,-123 10,-145 256,-145 256,-123 10,-123"/>
<text text-anchor="start" x="30" y="-131.2" font-family="Helvetica,sans-Serif" font-size="11.00">abbr_fr</text>
<polygon fill="none" stroke="black" points="256,-123 256,-145 326,-145 326,-123 256,-123"/>
<text text-anchor="start" x="259" y="-131.2" font-family="Helvetica,sans-Serif" font-size="11.00">varchar[3]</text>
<polygon fill="none" stroke="black" points="10,-101 10,-123 256,-123 256,-101 10,-101"/>
<text text-anchor="start" x="30" y="-109.2" font-family="Helvetica,sans-Serif" font-size="11.00">abbr_it</text>
<polygon fill="none" stroke="black" points="256,-101 256,-123 326,-123 326,-101 256,-101"/>
<text text-anchor="start" x="259" y="-109.2" font-family="Helvetica,sans-Serif" font-size="11.00">varchar[3]</text>
<polygon fill="none" stroke="black" points="10,-79 10,-101 256,-101 256,-79 10,-79"/>
<text text-anchor="start" x="30" y="-87.2" font-family="Helvetica,sans-Serif" font-size="11.00">abbr_ro</text>
<polygon fill="none" stroke="black" points="256,-79 256,-101 326,-101 326,-79 256,-79"/>
<text text-anchor="start" x="259" y="-87.2" font-family="Helvetica,sans-Serif" font-size="11.00">varchar[3]</text>
<polygon fill="none" stroke="black" points="10,-57 10,-79 256,-79 256,-57 10,-57"/>
<text text-anchor="start" x="30" y="-65.2" font-family="Helvetica,sans-Serif" font-size="11.00">active</text>
<polygon fill="none" stroke="black" points="256,-57 256,-79 326,-79 326,-57 256,-57"/>
<text text-anchor="start" x="259" y="-65.2" font-family="Helvetica,sans-Serif" font-size="11.00">bool[1]</text>
<polygon fill="#ffffff" stroke="transparent" points="10,-39 10,-57 137,-57 137,-39 10,-39"/>
<polygon fill="none" stroke="black" points="10,-39 10,-57 137,-57 137,-39 10,-39"/>
<text text-anchor="start" x="13" y="-45.2" font-family="Helvetica,sans-Serif" font-size="11.00">&lt; 0</text>
<polygon fill="#ffffff" stroke="transparent" points="137,-39 137,-57 256,-57 256,-39 137,-39"/>
<polygon fill="none" stroke="black" points="137,-39 137,-57 256,-57 256,-39 137,-39"/>
<text text-anchor="start" x="246" y="-45.2" font-family="Helvetica,sans-Serif" font-size="11.00"> &#160;</text>
<polygon fill="#ffffff" stroke="transparent" points="256,-39 256,-57 326,-57 326,-39 256,-39"/>
<polygon fill="none" stroke="black" points="256,-39 256,-57 326,-57 326,-39 256,-39"/>
<text text-anchor="start" x="307" y="-45.2" font-family="Helvetica,sans-Serif" font-size="11.00">1 &gt;</text>
<polygon fill="none" stroke="black" stroke-width="2" points="9,-38 9,-366 327,-366 327,-38 9,-38"/>
</a>
</g>
</g>
<!-- tdh_od.sia405cc_cable&#45;&gt;sia405cc_cable_horizontal_positioning -->
<g id="edge1" class="edge">
<title>tdh_od.sia405cc_cable:w&#45;&gt;sia405cc_cable_horizontal_positioning:e</title>
<path fill="none" stroke="black" d="M361.49,-332C350.18,-332 342.99,-332 327,-332"/>
<polygon fill="black" stroke="black" points="368,-332 376,-335.6 372,-332 376,-332 376,-332 376,-332 372,-332 376,-328.4 368,-332 368,-332"/>
<ellipse fill="none" stroke="black" cx="364.8" cy="-332" rx="3.2" ry="3.2"/>
</g>
</g>
</svg>
