<?xml version="1.0" encoding="UTF-8" standalone="no"?>
<!DOCTYPE svg PUBLIC "-//W3C//DTD SVG 1.1//EN"
 "http://www.w3.org/Graphics/SVG/1.1/DTD/svg11.dtd">
<!-- Generated by graphviz version 2.47.1 (20210515.0534)
 -->
<!-- Title: oneDegreeRelationshipsDiagram Pages: 1 -->
<svg width="512pt" height="531pt"
 viewBox="0.00 0.00 512.00 531.00" xmlns="http://www.w3.org/2000/svg" xmlns:xlink="http://www.w3.org/1999/xlink">
<g id="graph0" class="graph" transform="scale(1 1) rotate(0) translate(4 527)">
<title>oneDegreeRelationshipsDiagram</title>
<polygon fill="#ffffff" stroke="transparent" points="-4,4 -4,-527 508,-527 508,4 -4,4"/>
<text text-anchor="middle" x="73.5" y="-7.2" font-family="Helvetica,sans-Serif" font-size="11.00">Generated by SchemaSpy</text>
<!-- tdh_od.structure -->
<g id="node1" class="node">
<title>tdh_od.structure</title>
<g id="a_node1"><a xlink:href="../../../tdh_od/tables/structure.html" xlink:title="tdh_od.structure" target="_top">
<polygon fill="#ffffff" stroke="transparent" points="322,-241 322,-519 496,-519 496,-241 322,-241"/>
<polygon fill="#f5f5f5" stroke="transparent" points="322,-497 322,-519 496,-519 496,-497 322,-497"/>
<polygon fill="none" stroke="black" points="322,-497 322,-519 496,-519 496,-497 322,-497"/>
<text text-anchor="start" x="327" y="-506.2" font-family="Helvetica,sans-Serif" font-weight="bold" font-size="11.00">tdh_od.structure</text>
<text text-anchor="start" x="457" y="-505.2" font-family="Helvetica,sans-Serif" font-size="11.00">[table]</text>
<polygon fill="none" stroke="black" points="322,-475 322,-497 496,-497 496,-475 322,-475"/>
<image xlink:href="../../images/foreignKeys.png" width="11px" height="12px" preserveAspectRatio="xMinYMin meet" x="327" y="-492"/>
<text text-anchor="start" x="342" y="-483.2" font-family="Helvetica,sans-Serif" font-size="11.00">horizontal_positioning</text>
<polygon fill="none" stroke="black" points="322,-453 322,-475 496,-475 496,-453 322,-453"/>
<image xlink:href="../../images/foreignKeys.png" width="11px" height="12px" preserveAspectRatio="xMinYMin meet" x="327" y="-470"/>
<text text-anchor="start" x="342" y="-461.2" font-family="Helvetica,sans-Serif" font-size="11.00">status</text>
<polygon fill="none" stroke="black" points="322,-431 322,-453 496,-453 496,-431 322,-431"/>
<image xlink:href="../../images/foreignKeys.png" width="11px" height="12px" preserveAspectRatio="xMinYMin meet" x="327" y="-448"/>
<text text-anchor="start" x="342" y="-439.2" font-family="Helvetica,sans-Serif" font-size="11.00">kind</text>
<polygon fill="none" stroke="black" points="322,-409 322,-431 496,-431 496,-409 322,-409"/>
<image xlink:href="../../images/foreignKeys.png" width="11px" height="12px" preserveAspectRatio="xMinYMin meet" x="327" y="-426"/>
<text text-anchor="start" x="342" y="-417.2" font-family="Helvetica,sans-Serif" font-size="11.00">venting</text>
<polygon fill="none" stroke="black" points="322,-387 322,-409 496,-409 496,-387 322,-387"/>
<image xlink:href="../../images/foreignKeys.png" width="11px" height="12px" preserveAspectRatio="xMinYMin meet" x="327" y="-404"/>
<text text-anchor="start" x="342" y="-395.2" font-family="Helvetica,sans-Serif" font-size="11.00">discharge_type</text>
<polygon fill="none" stroke="black" points="322,-365 322,-387 496,-387 496,-365 322,-365"/>
<image xlink:href="../../images/foreignKeys.png" width="11px" height="12px" preserveAspectRatio="xMinYMin meet" x="327" y="-382"/>
<text text-anchor="start" x="342" y="-373.2" font-family="Helvetica,sans-Serif" font-size="11.00">grid_type</text>
<polygon fill="none" stroke="black" points="322,-343 322,-365 496,-365 496,-343 322,-343"/>
<image xlink:href="../../images/foreignKeys.png" width="11px" height="12px" preserveAspectRatio="xMinYMin meet" x="327" y="-360"/>
<text text-anchor="start" x="342" y="-351.2" font-family="Helvetica,sans-Serif" font-size="11.00">drainage_pump</text>
<polygon fill="none" stroke="black" points="322,-321 322,-343 496,-343 496,-321 322,-321"/>
<image xlink:href="../../images/foreignKeys.png" width="11px" height="12px" preserveAspectRatio="xMinYMin meet" x="327" y="-338"/>
<text text-anchor="start" x="342" y="-329.2" font-family="Helvetica,sans-Serif" font-size="11.00">power_connection</text>
<polygon fill="none" stroke="black" points="322,-299 322,-321 496,-321 496,-299 322,-299"/>
<image xlink:href="../../images/foreignKeys.png" width="11px" height="12px" preserveAspectRatio="xMinYMin meet" x="327" y="-316"/>
<text text-anchor="start" x="342" y="-307.2" font-family="Helvetica,sans-Serif" font-size="11.00">measuring_system</text>
<polygon fill="none" stroke="black" points="322,-277 322,-299 496,-299 496,-277 322,-277"/>
<image xlink:href="../../images/foreignKeys.png" width="11px" height="12px" preserveAspectRatio="xMinYMin meet" x="327" y="-294"/>
<text text-anchor="start" x="342" y="-285.2" font-family="Helvetica,sans-Serif" font-size="11.00">condition</text>
<polygon fill="none" stroke="black" points="322,-259 322,-277 496,-277 496,-259 322,-259"/>
<text text-anchor="start" x="325" y="-265.2" font-family="Helvetica,sans-Serif" font-size="11.00">...</text>
<polygon fill="#ffffff" stroke="transparent" points="322,-241 322,-259 396,-259 396,-241 322,-241"/>
<polygon fill="none" stroke="black" points="322,-241 322,-259 396,-259 396,-241 322,-241"/>
<text text-anchor="start" x="325" y="-247.2" font-family="Helvetica,sans-Serif" font-size="11.00">&lt; 10</text>
<polygon fill="#ffffff" stroke="transparent" points="396,-241 396,-259 459,-259 459,-241 396,-241"/>
<polygon fill="none" stroke="black" points="396,-241 396,-259 459,-259 459,-241 396,-241"/>
<text text-anchor="start" x="422" y="-247.2" font-family="Helvetica,sans-Serif" font-size="11.00">0 rows</text>
<polygon fill="#ffffff" stroke="transparent" points="459,-241 459,-259 496,-259 496,-241 459,-241"/>
<polygon fill="none" stroke="black" points="459,-241 459,-259 496,-259 496,-241 459,-241"/>
<text text-anchor="start" x="486" y="-247.2" font-family="Helvetica,sans-Serif" font-size="11.00"> &#160;</text>
</a>
</g>
</g>
<!-- structure_power_connection -->
<g id="node2" class="node">
<title>structure_power_connection</title>
<g id="a_node2"><a xlink:href="../../tables/structure_power_connection.html" xlink:title="structure_power_connection" target="_top">
<polygon fill="#ffffff" stroke="transparent" points="8,-37 8,-367 273,-367 273,-37 8,-37"/>
<polygon fill="#f5f5f5" stroke="transparent" points="10.5,-343 10.5,-365 271.5,-365 271.5,-343 10.5,-343"/>
<polygon fill="none" stroke="black" points="10.5,-343 10.5,-365 271.5,-365 271.5,-343 10.5,-343"/>
<text text-anchor="start" x="15.5" y="-352.2" font-family="Helvetica,sans-Serif" font-weight="bold" font-size="11.00">structure_power_connection</text>
<text text-anchor="start" x="232.5" y="-351.2" font-family="Helvetica,sans-Serif" font-size="11.00">[table]</text>
<polygon fill="none" stroke="black" points="10.5,-321 10.5,-343 201.5,-343 201.5,-321 10.5,-321"/>
<image xlink:href="../../images/primaryKeys.png" width="11px" height="12px" preserveAspectRatio="xMinYMin meet" x="15.5" y="-338"/>
<text text-anchor="start" x="30.5" y="-329.2" font-family="Helvetica,sans-Serif" font-size="11.00">code</text>
<polygon fill="none" stroke="black" points="201.5,-321 201.5,-343 271.5,-343 271.5,-321 201.5,-321"/>
<text text-anchor="start" x="204.5" y="-329.2" font-family="Helvetica,sans-Serif" font-size="11.00">int4[10]</text>
<polygon fill="none" stroke="black" points="10.5,-299 10.5,-321 201.5,-321 201.5,-299 10.5,-299"/>
<text text-anchor="start" x="30.5" y="-307.2" font-family="Helvetica,sans-Serif" font-size="11.00">vsacode</text>
<polygon fill="none" stroke="black" points="201.5,-299 201.5,-321 271.5,-321 271.5,-299 201.5,-299"/>
<text text-anchor="start" x="204.5" y="-307.2" font-family="Helvetica,sans-Serif" font-size="11.00">int4[10]</text>
<polygon fill="none" stroke="black" points="10.5,-277 10.5,-299 201.5,-299 201.5,-277 10.5,-277"/>
<text text-anchor="start" x="30.5" y="-285.2" font-family="Helvetica,sans-Serif" font-size="11.00">value_en</text>
<polygon fill="none" stroke="black" points="201.5,-277 201.5,-299 271.5,-299 271.5,-277 201.5,-277"/>
<text text-anchor="start" x="204.5" y="-285.2" font-family="Helvetica,sans-Serif" font-size="11.00">varchar[100]</text>
<polygon fill="none" stroke="black" points="10.5,-255 10.5,-277 201.5,-277 201.5,-255 10.5,-255"/>
<text text-anchor="start" x="30.5" y="-263.2" font-family="Helvetica,sans-Serif" font-size="11.00">value_de</text>
<polygon fill="none" stroke="black" points="201.5,-255 201.5,-277 271.5,-277 271.5,-255 201.5,-255"/>
<text text-anchor="start" x="204.5" y="-263.2" font-family="Helvetica,sans-Serif" font-size="11.00">varchar[100]</text>
<polygon fill="none" stroke="black" points="10.5,-233 10.5,-255 201.5,-255 201.5,-233 10.5,-233"/>
<text text-anchor="start" x="30.5" y="-241.2" font-family="Helvetica,sans-Serif" font-size="11.00">value_fr</text>
<polygon fill="none" stroke="black" points="201.5,-233 201.5,-255 271.5,-255 271.5,-233 201.5,-233"/>
<text text-anchor="start" x="204.5" y="-241.2" font-family="Helvetica,sans-Serif" font-size="11.00">varchar[100]</text>
<polygon fill="none" stroke="black" points="10.5,-211 10.5,-233 201.5,-233 201.5,-211 10.5,-211"/>
<text text-anchor="start" x="30.5" y="-219.2" font-family="Helvetica,sans-Serif" font-size="11.00">value_it</text>
<polygon fill="none" stroke="black" points="201.5,-211 201.5,-233 271.5,-233 271.5,-211 201.5,-211"/>
<text text-anchor="start" x="204.5" y="-219.2" font-family="Helvetica,sans-Serif" font-size="11.00">varchar[100]</text>
<polygon fill="none" stroke="black" points="10.5,-189 10.5,-211 201.5,-211 201.5,-189 10.5,-189"/>
<text text-anchor="start" x="30.5" y="-197.2" font-family="Helvetica,sans-Serif" font-size="11.00">value_ro</text>
<polygon fill="none" stroke="black" points="201.5,-189 201.5,-211 271.5,-211 271.5,-189 201.5,-189"/>
<text text-anchor="start" x="204.5" y="-197.2" font-family="Helvetica,sans-Serif" font-size="11.00">varchar[100]</text>
<polygon fill="none" stroke="black" points="10.5,-167 10.5,-189 201.5,-189 201.5,-167 10.5,-167"/>
<text text-anchor="start" x="30.5" y="-175.2" font-family="Helvetica,sans-Serif" font-size="11.00">abbr_en</text>
<polygon fill="none" stroke="black" points="201.5,-167 201.5,-189 271.5,-189 271.5,-167 201.5,-167"/>
<text text-anchor="start" x="204.5" y="-175.2" font-family="Helvetica,sans-Serif" font-size="11.00">varchar[3]</text>
<polygon fill="none" stroke="black" points="10.5,-145 10.5,-167 201.5,-167 201.5,-145 10.5,-145"/>
<text text-anchor="start" x="30.5" y="-153.2" font-family="Helvetica,sans-Serif" font-size="11.00">abbr_de</text>
<polygon fill="none" stroke="black" points="201.5,-145 201.5,-167 271.5,-167 271.5,-145 201.5,-145"/>
<text text-anchor="start" x="204.5" y="-153.2" font-family="Helvetica,sans-Serif" font-size="11.00">varchar[3]</text>
<polygon fill="none" stroke="black" points="10.5,-123 10.5,-145 201.5,-145 201.5,-123 10.5,-123"/>
<text text-anchor="start" x="30.5" y="-131.2" font-family="Helvetica,sans-Serif" font-size="11.00">abbr_fr</text>
<polygon fill="none" stroke="black" points="201.5,-123 201.5,-145 271.5,-145 271.5,-123 201.5,-123"/>
<text text-anchor="start" x="204.5" y="-131.2" font-family="Helvetica,sans-Serif" font-size="11.00">varchar[3]</text>
<polygon fill="none" stroke="black" points="10.5,-101 10.5,-123 201.5,-123 201.5,-101 10.5,-101"/>
<text text-anchor="start" x="30.5" y="-109.2" font-family="Helvetica,sans-Serif" font-size="11.00">abbr_it</text>
<polygon fill="none" stroke="black" points="201.5,-101 201.5,-123 271.5,-123 271.5,-101 201.5,-101"/>
<text text-anchor="start" x="204.5" y="-109.2" font-family="Helvetica,sans-Serif" font-size="11.00">varchar[3]</text>
<polygon fill="none" stroke="black" points="10.5,-79 10.5,-101 201.5,-101 201.5,-79 10.5,-79"/>
<text text-anchor="start" x="30.5" y="-87.2" font-family="Helvetica,sans-Serif" font-size="11.00">abbr_ro</text>
<polygon fill="none" stroke="black" points="201.5,-79 201.5,-101 271.5,-101 271.5,-79 201.5,-79"/>
<text text-anchor="start" x="204.5" y="-87.2" font-family="Helvetica,sans-Serif" font-size="11.00">varchar[3]</text>
<polygon fill="none" stroke="black" points="10.5,-57 10.5,-79 201.5,-79 201.5,-57 10.5,-57"/>
<text text-anchor="start" x="30.5" y="-65.2" font-family="Helvetica,sans-Serif" font-size="11.00">active</text>
<polygon fill="none" stroke="black" points="201.5,-57 201.5,-79 271.5,-79 271.5,-57 201.5,-57"/>
<text text-anchor="start" x="204.5" y="-65.2" font-family="Helvetica,sans-Serif" font-size="11.00">bool[1]</text>
<polygon fill="#ffffff" stroke="transparent" points="10.5,-39 10.5,-57 110.5,-57 110.5,-39 10.5,-39"/>
<polygon fill="none" stroke="black" points="10.5,-39 10.5,-57 110.5,-57 110.5,-39 10.5,-39"/>
<text text-anchor="start" x="13.5" y="-45.2" font-family="Helvetica,sans-Serif" font-size="11.00">&lt; 0</text>
<polygon fill="#ffffff" stroke="transparent" points="110.5,-39 110.5,-57 201.5,-57 201.5,-39 110.5,-39"/>
<polygon fill="none" stroke="black" points="110.5,-39 110.5,-57 201.5,-57 201.5,-39 110.5,-39"/>
<text text-anchor="start" x="191.5" y="-45.2" font-family="Helvetica,sans-Serif" font-size="11.00"> &#160;</text>
<polygon fill="#ffffff" stroke="transparent" points="201.5,-39 201.5,-57 271.5,-57 271.5,-39 201.5,-39"/>
<polygon fill="none" stroke="black" points="201.5,-39 201.5,-57 271.5,-57 271.5,-39 201.5,-39"/>
<text text-anchor="start" x="252.5" y="-45.2" font-family="Helvetica,sans-Serif" font-size="11.00">1 &gt;</text>
<polygon fill="none" stroke="black" stroke-width="2" points="9,-38 9,-366 272,-366 272,-38 9,-38"/>
</a>
</g>
</g>
<!-- tdh_od.structure&#45;&gt;structure_power_connection -->
<g id="edge1" class="edge">
<title>tdh_od.structure:w&#45;&gt;structure_power_connection:e</title>
<path fill="none" stroke="black" d="M306.28,-332C295.29,-332 288.16,-332 272.5,-332"/>
<polygon fill="black" stroke="black" points="313,-332 321,-335.6 317,-332 321,-332 321,-332 321,-332 317,-332 321,-328.4 313,-332 313,-332"/>
<ellipse fill="none" stroke="black" cx="309.8" cy="-332" rx="3.2" ry="3.2"/>
</g>
</g>
</svg>
