<?xml version="1.0" encoding="UTF-8" standalone="no"?>
<!DOCTYPE svg PUBLIC "-//W3C//DTD SVG 1.1//EN"
 "http://www.w3.org/Graphics/SVG/1.1/DTD/svg11.dtd">
<!-- Generated by graphviz version 2.47.1 (20210515.0534)
 -->
<!-- Title: oneDegreeRelationshipsDiagram Pages: 1 -->
<svg width="492pt" height="465pt"
 viewBox="0.00 0.00 492.00 465.00" xmlns="http://www.w3.org/2000/svg" xmlns:xlink="http://www.w3.org/1999/xlink">
<g id="graph0" class="graph" transform="scale(1 1) rotate(0) translate(4 461)">
<title>oneDegreeRelationshipsDiagram</title>
<polygon fill="#ffffff" stroke="transparent" points="-4,4 -4,-461 488,-461 488,4 -4,4"/>
<text text-anchor="middle" x="73.5" y="-7.2" font-family="Helvetica,sans-Serif" font-size="11.00">Generated by SchemaSpy</text>
<!-- tdh_od.structure -->
<g id="node1" class="node">
<title>tdh_od.structure</title>
<g id="a_node1"><a xlink:href="../../../tdh_od/tables/structure.html" xlink:title="tdh_od.structure" target="_top">
<polygon fill="#ffffff" stroke="transparent" points="302,-175 302,-453 476,-453 476,-175 302,-175"/>
<polygon fill="#f5f5f5" stroke="transparent" points="302,-431 302,-453 476,-453 476,-431 302,-431"/>
<polygon fill="none" stroke="black" points="302,-431 302,-453 476,-453 476,-431 302,-431"/>
<text text-anchor="start" x="307" y="-440.2" font-family="Helvetica,sans-Serif" font-weight="bold" font-size="11.00">tdh_od.structure</text>
<text text-anchor="start" x="437" y="-439.2" font-family="Helvetica,sans-Serif" font-size="11.00">[table]</text>
<polygon fill="none" stroke="black" points="302,-409 302,-431 476,-431 476,-409 302,-409"/>
<image xlink:href="../../images/foreignKeys.png" width="11px" height="12px" preserveAspectRatio="xMinYMin meet" x="307" y="-426"/>
<text text-anchor="start" x="322" y="-417.2" font-family="Helvetica,sans-Serif" font-size="11.00">horizontal_positioning</text>
<polygon fill="none" stroke="black" points="302,-387 302,-409 476,-409 476,-387 302,-387"/>
<image xlink:href="../../images/foreignKeys.png" width="11px" height="12px" preserveAspectRatio="xMinYMin meet" x="307" y="-404"/>
<text text-anchor="start" x="322" y="-395.2" font-family="Helvetica,sans-Serif" font-size="11.00">status</text>
<polygon fill="none" stroke="black" points="302,-365 302,-387 476,-387 476,-365 302,-365"/>
<image xlink:href="../../images/foreignKeys.png" width="11px" height="12px" preserveAspectRatio="xMinYMin meet" x="307" y="-382"/>
<text text-anchor="start" x="322" y="-373.2" font-family="Helvetica,sans-Serif" font-size="11.00">kind</text>
<polygon fill="none" stroke="black" points="302,-343 302,-365 476,-365 476,-343 302,-343"/>
<image xlink:href="../../images/foreignKeys.png" width="11px" height="12px" preserveAspectRatio="xMinYMin meet" x="307" y="-360"/>
<text text-anchor="start" x="322" y="-351.2" font-family="Helvetica,sans-Serif" font-size="11.00">venting</text>
<polygon fill="none" stroke="black" points="302,-321 302,-343 476,-343 476,-321 302,-321"/>
<image xlink:href="../../images/foreignKeys.png" width="11px" height="12px" preserveAspectRatio="xMinYMin meet" x="307" y="-338"/>
<text text-anchor="start" x="322" y="-329.2" font-family="Helvetica,sans-Serif" font-size="11.00">discharge_type</text>
<polygon fill="none" stroke="black" points="302,-299 302,-321 476,-321 476,-299 302,-299"/>
<image xlink:href="../../images/foreignKeys.png" width="11px" height="12px" preserveAspectRatio="xMinYMin meet" x="307" y="-316"/>
<text text-anchor="start" x="322" y="-307.2" font-family="Helvetica,sans-Serif" font-size="11.00">grid_type</text>
<polygon fill="none" stroke="black" points="302,-277 302,-299 476,-299 476,-277 302,-277"/>
<image xlink:href="../../images/foreignKeys.png" width="11px" height="12px" preserveAspectRatio="xMinYMin meet" x="307" y="-294"/>
<text text-anchor="start" x="322" y="-285.2" font-family="Helvetica,sans-Serif" font-size="11.00">drainage_pump</text>
<polygon fill="none" stroke="black" points="302,-255 302,-277 476,-277 476,-255 302,-255"/>
<image xlink:href="../../images/foreignKeys.png" width="11px" height="12px" preserveAspectRatio="xMinYMin meet" x="307" y="-272"/>
<text text-anchor="start" x="322" y="-263.2" font-family="Helvetica,sans-Serif" font-size="11.00">power_connection</text>
<polygon fill="none" stroke="black" points="302,-233 302,-255 476,-255 476,-233 302,-233"/>
<image xlink:href="../../images/foreignKeys.png" width="11px" height="12px" preserveAspectRatio="xMinYMin meet" x="307" y="-250"/>
<text text-anchor="start" x="322" y="-241.2" font-family="Helvetica,sans-Serif" font-size="11.00">measuring_system</text>
<polygon fill="none" stroke="black" points="302,-211 302,-233 476,-233 476,-211 302,-211"/>
<image xlink:href="../../images/foreignKeys.png" width="11px" height="12px" preserveAspectRatio="xMinYMin meet" x="307" y="-228"/>
<text text-anchor="start" x="322" y="-219.2" font-family="Helvetica,sans-Serif" font-size="11.00">condition</text>
<polygon fill="none" stroke="black" points="302,-193 302,-211 476,-211 476,-193 302,-193"/>
<text text-anchor="start" x="305" y="-199.2" font-family="Helvetica,sans-Serif" font-size="11.00">...</text>
<polygon fill="#ffffff" stroke="transparent" points="302,-175 302,-193 376,-193 376,-175 302,-175"/>
<polygon fill="none" stroke="black" points="302,-175 302,-193 376,-193 376,-175 302,-175"/>
<text text-anchor="start" x="305" y="-181.2" font-family="Helvetica,sans-Serif" font-size="11.00">&lt; 10</text>
<polygon fill="#ffffff" stroke="transparent" points="376,-175 376,-193 439,-193 439,-175 376,-175"/>
<polygon fill="none" stroke="black" points="376,-175 376,-193 439,-193 439,-175 376,-175"/>
<text text-anchor="start" x="402" y="-181.2" font-family="Helvetica,sans-Serif" font-size="11.00">0 rows</text>
<polygon fill="#ffffff" stroke="transparent" points="439,-175 439,-193 476,-193 476,-175 439,-175"/>
<polygon fill="none" stroke="black" points="439,-175 439,-193 476,-193 476,-175 439,-175"/>
<text text-anchor="start" x="466" y="-181.2" font-family="Helvetica,sans-Serif" font-size="11.00"> &#160;</text>
</a>
</g>
</g>
<!-- structure_discharge_type -->
<g id="node2" class="node">
<title>structure_discharge_type</title>
<g id="a_node2"><a xlink:href="../../tables/structure_discharge_type.html" xlink:title="structure_discharge_type" target="_top">
<polygon fill="#ffffff" stroke="transparent" points="8,-37 8,-367 253,-367 253,-37 8,-37"/>
<polygon fill="#f5f5f5" stroke="transparent" points="10.5,-343 10.5,-365 251.5,-365 251.5,-343 10.5,-343"/>
<polygon fill="none" stroke="black" points="10.5,-343 10.5,-365 251.5,-365 251.5,-343 10.5,-343"/>
<text text-anchor="start" x="15.5" y="-352.2" font-family="Helvetica,sans-Serif" font-weight="bold" font-size="11.00">structure_discharge_type</text>
<text text-anchor="start" x="212.5" y="-351.2" font-family="Helvetica,sans-Serif" font-size="11.00">[table]</text>
<polygon fill="none" stroke="black" points="10.5,-321 10.5,-343 181.5,-343 181.5,-321 10.5,-321"/>
<image xlink:href="../../images/primaryKeys.png" width="11px" height="12px" preserveAspectRatio="xMinYMin meet" x="15.5" y="-338"/>
<text text-anchor="start" x="30.5" y="-329.2" font-family="Helvetica,sans-Serif" font-size="11.00">code</text>
<polygon fill="none" stroke="black" points="181.5,-321 181.5,-343 251.5,-343 251.5,-321 181.5,-321"/>
<text text-anchor="start" x="184.5" y="-329.2" font-family="Helvetica,sans-Serif" font-size="11.00">int4[10]</text>
<polygon fill="none" stroke="black" points="10.5,-299 10.5,-321 181.5,-321 181.5,-299 10.5,-299"/>
<text text-anchor="start" x="30.5" y="-307.2" font-family="Helvetica,sans-Serif" font-size="11.00">vsacode</text>
<polygon fill="none" stroke="black" points="181.5,-299 181.5,-321 251.5,-321 251.5,-299 181.5,-299"/>
<text text-anchor="start" x="184.5" y="-307.2" font-family="Helvetica,sans-Serif" font-size="11.00">int4[10]</text>
<polygon fill="none" stroke="black" points="10.5,-277 10.5,-299 181.5,-299 181.5,-277 10.5,-277"/>
<text text-anchor="start" x="30.5" y="-285.2" font-family="Helvetica,sans-Serif" font-size="11.00">value_en</text>
<polygon fill="none" stroke="black" points="181.5,-277 181.5,-299 251.5,-299 251.5,-277 181.5,-277"/>
<text text-anchor="start" x="184.5" y="-285.2" font-family="Helvetica,sans-Serif" font-size="11.00">varchar[100]</text>
<polygon fill="none" stroke="black" points="10.5,-255 10.5,-277 181.5,-277 181.5,-255 10.5,-255"/>
<text text-anchor="start" x="30.5" y="-263.2" font-family="Helvetica,sans-Serif" font-size="11.00">value_de</text>
<polygon fill="none" stroke="black" points="181.5,-255 181.5,-277 251.5,-277 251.5,-255 181.5,-255"/>
<text text-anchor="start" x="184.5" y="-263.2" font-family="Helvetica,sans-Serif" font-size="11.00">varchar[100]</text>
<polygon fill="none" stroke="black" points="10.5,-233 10.5,-255 181.5,-255 181.5,-233 10.5,-233"/>
<text text-anchor="start" x="30.5" y="-241.2" font-family="Helvetica,sans-Serif" font-size="11.00">value_fr</text>
<polygon fill="none" stroke="black" points="181.5,-233 181.5,-255 251.5,-255 251.5,-233 181.5,-233"/>
<text text-anchor="start" x="184.5" y="-241.2" font-family="Helvetica,sans-Serif" font-size="11.00">varchar[100]</text>
<polygon fill="none" stroke="black" points="10.5,-211 10.5,-233 181.5,-233 181.5,-211 10.5,-211"/>
<text text-anchor="start" x="30.5" y="-219.2" font-family="Helvetica,sans-Serif" font-size="11.00">value_it</text>
<polygon fill="none" stroke="black" points="181.5,-211 181.5,-233 251.5,-233 251.5,-211 181.5,-211"/>
<text text-anchor="start" x="184.5" y="-219.2" font-family="Helvetica,sans-Serif" font-size="11.00">varchar[100]</text>
<polygon fill="none" stroke="black" points="10.5,-189 10.5,-211 181.5,-211 181.5,-189 10.5,-189"/>
<text text-anchor="start" x="30.5" y="-197.2" font-family="Helvetica,sans-Serif" font-size="11.00">value_ro</text>
<polygon fill="none" stroke="black" points="181.5,-189 181.5,-211 251.5,-211 251.5,-189 181.5,-189"/>
<text text-anchor="start" x="184.5" y="-197.2" font-family="Helvetica,sans-Serif" font-size="11.00">varchar[100]</text>
<polygon fill="none" stroke="black" points="10.5,-167 10.5,-189 181.5,-189 181.5,-167 10.5,-167"/>
<text text-anchor="start" x="30.5" y="-175.2" font-family="Helvetica,sans-Serif" font-size="11.00">abbr_en</text>
<polygon fill="none" stroke="black" points="181.5,-167 181.5,-189 251.5,-189 251.5,-167 181.5,-167"/>
<text text-anchor="start" x="184.5" y="-175.2" font-family="Helvetica,sans-Serif" font-size="11.00">varchar[3]</text>
<polygon fill="none" stroke="black" points="10.5,-145 10.5,-167 181.5,-167 181.5,-145 10.5,-145"/>
<text text-anchor="start" x="30.5" y="-153.2" font-family="Helvetica,sans-Serif" font-size="11.00">abbr_de</text>
<polygon fill="none" stroke="black" points="181.5,-145 181.5,-167 251.5,-167 251.5,-145 181.5,-145"/>
<text text-anchor="start" x="184.5" y="-153.2" font-family="Helvetica,sans-Serif" font-size="11.00">varchar[3]</text>
<polygon fill="none" stroke="black" points="10.5,-123 10.5,-145 181.5,-145 181.5,-123 10.5,-123"/>
<text text-anchor="start" x="30.5" y="-131.2" font-family="Helvetica,sans-Serif" font-size="11.00">abbr_fr</text>
<polygon fill="none" stroke="black" points="181.5,-123 181.5,-145 251.5,-145 251.5,-123 181.5,-123"/>
<text text-anchor="start" x="184.5" y="-131.2" font-family="Helvetica,sans-Serif" font-size="11.00">varchar[3]</text>
<polygon fill="none" stroke="black" points="10.5,-101 10.5,-123 181.5,-123 181.5,-101 10.5,-101"/>
<text text-anchor="start" x="30.5" y="-109.2" font-family="Helvetica,sans-Serif" font-size="11.00">abbr_it</text>
<polygon fill="none" stroke="black" points="181.5,-101 181.5,-123 251.5,-123 251.5,-101 181.5,-101"/>
<text text-anchor="start" x="184.5" y="-109.2" font-family="Helvetica,sans-Serif" font-size="11.00">varchar[3]</text>
<polygon fill="none" stroke="black" points="10.5,-79 10.5,-101 181.5,-101 181.5,-79 10.5,-79"/>
<text text-anchor="start" x="30.5" y="-87.2" font-family="Helvetica,sans-Serif" font-size="11.00">abbr_ro</text>
<polygon fill="none" stroke="black" points="181.5,-79 181.5,-101 251.5,-101 251.5,-79 181.5,-79"/>
<text text-anchor="start" x="184.5" y="-87.2" font-family="Helvetica,sans-Serif" font-size="11.00">varchar[3]</text>
<polygon fill="none" stroke="black" points="10.5,-57 10.5,-79 181.5,-79 181.5,-57 10.5,-57"/>
<text text-anchor="start" x="30.5" y="-65.2" font-family="Helvetica,sans-Serif" font-size="11.00">active</text>
<polygon fill="none" stroke="black" points="181.5,-57 181.5,-79 251.5,-79 251.5,-57 181.5,-57"/>
<text text-anchor="start" x="184.5" y="-65.2" font-family="Helvetica,sans-Serif" font-size="11.00">bool[1]</text>
<polygon fill="#ffffff" stroke="transparent" points="10.5,-39 10.5,-57 100.5,-57 100.5,-39 10.5,-39"/>
<polygon fill="none" stroke="black" points="10.5,-39 10.5,-57 100.5,-57 100.5,-39 10.5,-39"/>
<text text-anchor="start" x="13.5" y="-45.2" font-family="Helvetica,sans-Serif" font-size="11.00">&lt; 0</text>
<polygon fill="#ffffff" stroke="transparent" points="100.5,-39 100.5,-57 181.5,-57 181.5,-39 100.5,-39"/>
<polygon fill="none" stroke="black" points="100.5,-39 100.5,-57 181.5,-57 181.5,-39 100.5,-39"/>
<text text-anchor="start" x="171.5" y="-45.2" font-family="Helvetica,sans-Serif" font-size="11.00"> &#160;</text>
<polygon fill="#ffffff" stroke="transparent" points="181.5,-39 181.5,-57 251.5,-57 251.5,-39 181.5,-39"/>
<polygon fill="none" stroke="black" points="181.5,-39 181.5,-57 251.5,-57 251.5,-39 181.5,-39"/>
<text text-anchor="start" x="232.5" y="-45.2" font-family="Helvetica,sans-Serif" font-size="11.00">1 &gt;</text>
<polygon fill="none" stroke="black" stroke-width="2" points="9,-38 9,-366 252,-366 252,-38 9,-38"/>
</a>
</g>
</g>
<!-- tdh_od.structure&#45;&gt;structure_discharge_type -->
<g id="edge1" class="edge">
<title>tdh_od.structure:w&#45;&gt;structure_discharge_type:e</title>
<path fill="none" stroke="black" d="M286.28,-332C275.29,-332 268.16,-332 252.5,-332"/>
<polygon fill="black" stroke="black" points="293,-332 301,-335.6 297,-332 301,-332 301,-332 301,-332 297,-332 301,-328.4 293,-332 293,-332"/>
<ellipse fill="none" stroke="black" cx="289.8" cy="-332" rx="3.2" ry="3.2"/>
</g>
</g>
</svg>
