<?xml version="1.0" encoding="UTF-8" standalone="no"?>
<!DOCTYPE svg PUBLIC "-//W3C//DTD SVG 1.1//EN"
 "http://www.w3.org/Graphics/SVG/1.1/DTD/svg11.dtd">
<!-- Generated by graphviz version 2.43.0 (0)
 -->
<!-- Title: oneDegreeRelationshipsDiagram Pages: 1 -->
<svg width="525pt" height="575pt"
 viewBox="0.00 0.00 525.00 575.00" xmlns="http://www.w3.org/2000/svg" xmlns:xlink="http://www.w3.org/1999/xlink">
<g id="graph0" class="graph" transform="scale(1 1) rotate(0) translate(4 571)">
<title>oneDegreeRelationshipsDiagram</title>
<polygon fill="#ffffff" stroke="transparent" points="-4,4 -4,-571 521,-571 521,4 -4,4"/>
<text text-anchor="middle" x="79.5" y="-7.2" font-family="Helvetica,sans-Serif" font-size="11.00">Generated by SchemaSpy</text>
<!-- tdh_od.structure -->
<g id="node1" class="node">
<title>tdh_od.structure</title>
<g id="a_node1"><a xlink:href="../../../tdh_od/tables/structure.html" xlink:title="tdh_od.structure" target="_top">
<polygon fill="#ffffff" stroke="transparent" points="303,-285 303,-563 509,-563 509,-285 303,-285"/>
<polygon fill="#f5f5f5" stroke="transparent" points="303,-541 303,-563 509,-563 509,-541 303,-541"/>
<polygon fill="none" stroke="black" points="303,-541 303,-563 509,-563 509,-541 303,-541"/>
<text text-anchor="start" x="308" y="-550.2" font-family="Helvetica,sans-Serif" font-weight="bold" font-size="11.00">tdh_od.structure</text>
<text text-anchor="start" x="467" y="-549.2" font-family="Helvetica,sans-Serif" font-size="11.00">[table]</text>
<polygon fill="none" stroke="black" points="303,-519 303,-541 509,-541 509,-519 303,-519"/>
<image xlink:href="../../images/foreignKeys.png" width="11px" height="12px" preserveAspectRatio="xMinYMin meet" x="308" y="-536"/>
<text text-anchor="start" x="323" y="-527.2" font-family="Helvetica,sans-Serif" font-size="11.00">horizontal_positioning</text>
<polygon fill="none" stroke="black" points="303,-497 303,-519 509,-519 509,-497 303,-497"/>
<image xlink:href="../../images/foreignKeys.png" width="11px" height="12px" preserveAspectRatio="xMinYMin meet" x="308" y="-514"/>
<text text-anchor="start" x="323" y="-505.2" font-family="Helvetica,sans-Serif" font-size="11.00">status</text>
<polygon fill="none" stroke="black" points="303,-475 303,-497 509,-497 509,-475 303,-475"/>
<image xlink:href="../../images/foreignKeys.png" width="11px" height="12px" preserveAspectRatio="xMinYMin meet" x="308" y="-492"/>
<text text-anchor="start" x="323" y="-483.2" font-family="Helvetica,sans-Serif" font-size="11.00">kind</text>
<polygon fill="none" stroke="black" points="303,-453 303,-475 509,-475 509,-453 303,-453"/>
<image xlink:href="../../images/foreignKeys.png" width="11px" height="12px" preserveAspectRatio="xMinYMin meet" x="308" y="-470"/>
<text text-anchor="start" x="323" y="-461.2" font-family="Helvetica,sans-Serif" font-size="11.00">venting</text>
<polygon fill="none" stroke="black" points="303,-431 303,-453 509,-453 509,-431 303,-431"/>
<image xlink:href="../../images/foreignKeys.png" width="11px" height="12px" preserveAspectRatio="xMinYMin meet" x="308" y="-448"/>
<text text-anchor="start" x="323" y="-439.2" font-family="Helvetica,sans-Serif" font-size="11.00">discharge_type</text>
<polygon fill="none" stroke="black" points="303,-409 303,-431 509,-431 509,-409 303,-409"/>
<image xlink:href="../../images/foreignKeys.png" width="11px" height="12px" preserveAspectRatio="xMinYMin meet" x="308" y="-426"/>
<text text-anchor="start" x="323" y="-417.2" font-family="Helvetica,sans-Serif" font-size="11.00">grid_type</text>
<polygon fill="none" stroke="black" points="303,-387 303,-409 509,-409 509,-387 303,-387"/>
<image xlink:href="../../images/foreignKeys.png" width="11px" height="12px" preserveAspectRatio="xMinYMin meet" x="308" y="-404"/>
<text text-anchor="start" x="323" y="-395.2" font-family="Helvetica,sans-Serif" font-size="11.00">drainage_pump</text>
<polygon fill="none" stroke="black" points="303,-365 303,-387 509,-387 509,-365 303,-365"/>
<image xlink:href="../../images/foreignKeys.png" width="11px" height="12px" preserveAspectRatio="xMinYMin meet" x="308" y="-382"/>
<text text-anchor="start" x="323" y="-373.2" font-family="Helvetica,sans-Serif" font-size="11.00">power_connection</text>
<polygon fill="none" stroke="black" points="303,-343 303,-365 509,-365 509,-343 303,-343"/>
<image xlink:href="../../images/foreignKeys.png" width="11px" height="12px" preserveAspectRatio="xMinYMin meet" x="308" y="-360"/>
<text text-anchor="start" x="323" y="-351.2" font-family="Helvetica,sans-Serif" font-size="11.00">measuring_system</text>
<polygon fill="none" stroke="black" points="303,-321 303,-343 509,-343 509,-321 303,-321"/>
<image xlink:href="../../images/foreignKeys.png" width="11px" height="12px" preserveAspectRatio="xMinYMin meet" x="308" y="-338"/>
<text text-anchor="start" x="323" y="-329.2" font-family="Helvetica,sans-Serif" font-size="11.00">condition</text>
<polygon fill="none" stroke="black" points="303,-303 303,-321 509,-321 509,-303 303,-303"/>
<text text-anchor="start" x="306" y="-309.2" font-family="Helvetica,sans-Serif" font-size="11.00">...</text>
<polygon fill="#ffffff" stroke="transparent" points="303,-285 303,-303 509,-303 509,-285 303,-285"/>
<polygon fill="none" stroke="black" points="303,-285 303,-303 509,-303 509,-285 303,-285"/>
<polygon fill="#ffffff" stroke="transparent" points="304,-286 304,-302 375,-302 375,-286 304,-286"/>
<text text-anchor="start" x="306" y="-291.2" font-family="Helvetica,sans-Serif" font-size="11.00">&lt; 10</text>
<polygon fill="#ffffff" stroke="transparent" points="375,-286 375,-302 456,-302 456,-286 375,-286"/>
<text text-anchor="start" x="397" y="-291.2" font-family="Helvetica,sans-Serif" font-size="11.00">0 rows</text>
<polygon fill="#ffffff" stroke="transparent" points="456,-286 456,-302 508,-302 508,-286 456,-286"/>
<text text-anchor="start" x="498" y="-291.2" font-family="Helvetica,sans-Serif" font-size="11.00"> &#160;</text>
<polygon fill="black" stroke="black" points="375,-286 375,-302 375,-302 375,-286 375,-286"/>
<polygon fill="black" stroke="black" points="456,-286 456,-302 456,-302 456,-286 456,-286"/>
</a>
</g>
</g>
<!-- structure_condition -->
<g id="node2" class="node">
<title>structure_condition</title>
<g id="a_node2"><a xlink:href="../../tables/structure_condition.html" xlink:title="structure_condition" target="_top">
<polygon fill="#ffffff" stroke="transparent" points="8,-37 8,-367 254,-367 254,-37 8,-37"/>
<polygon fill="#f5f5f5" stroke="transparent" points="10,-343 10,-365 252,-365 252,-343 10,-343"/>
<polygon fill="none" stroke="black" points="10,-343 10,-365 252,-365 252,-343 10,-343"/>
<text text-anchor="start" x="15" y="-352.2" font-family="Helvetica,sans-Serif" font-weight="bold" font-size="11.00">structure_condition</text>
<text text-anchor="start" x="210" y="-351.2" font-family="Helvetica,sans-Serif" font-size="11.00">[table]</text>
<polygon fill="none" stroke="black" points="10,-321 10,-343 174,-343 174,-321 10,-321"/>
<image xlink:href="../../images/primaryKeys.png" width="11px" height="12px" preserveAspectRatio="xMinYMin meet" x="15" y="-338"/>
<text text-anchor="start" x="30" y="-329.2" font-family="Helvetica,sans-Serif" font-size="11.00">code</text>
<polygon fill="none" stroke="black" points="174,-321 174,-343 252,-343 252,-321 174,-321"/>
<text text-anchor="start" x="177" y="-329.2" font-family="Helvetica,sans-Serif" font-size="11.00">int4[10]</text>
<polygon fill="none" stroke="black" points="10,-299 10,-321 174,-321 174,-299 10,-299"/>
<text text-anchor="start" x="30" y="-307.2" font-family="Helvetica,sans-Serif" font-size="11.00">vsacode</text>
<polygon fill="none" stroke="black" points="174,-299 174,-321 252,-321 252,-299 174,-299"/>
<text text-anchor="start" x="177" y="-307.2" font-family="Helvetica,sans-Serif" font-size="11.00">int4[10]</text>
<polygon fill="none" stroke="black" points="10,-277 10,-299 174,-299 174,-277 10,-277"/>
<text text-anchor="start" x="30" y="-285.2" font-family="Helvetica,sans-Serif" font-size="11.00">value_en</text>
<polygon fill="none" stroke="black" points="174,-277 174,-299 252,-299 252,-277 174,-277"/>
<text text-anchor="start" x="177" y="-285.2" font-family="Helvetica,sans-Serif" font-size="11.00">varchar[100]</text>
<polygon fill="none" stroke="black" points="10,-255 10,-277 174,-277 174,-255 10,-255"/>
<text text-anchor="start" x="30" y="-263.2" font-family="Helvetica,sans-Serif" font-size="11.00">value_de</text>
<polygon fill="none" stroke="black" points="174,-255 174,-277 252,-277 252,-255 174,-255"/>
<text text-anchor="start" x="177" y="-263.2" font-family="Helvetica,sans-Serif" font-size="11.00">varchar[100]</text>
<polygon fill="none" stroke="black" points="10,-233 10,-255 174,-255 174,-233 10,-233"/>
<text text-anchor="start" x="30" y="-241.2" font-family="Helvetica,sans-Serif" font-size="11.00">value_fr</text>
<polygon fill="none" stroke="black" points="174,-233 174,-255 252,-255 252,-233 174,-233"/>
<text text-anchor="start" x="177" y="-241.2" font-family="Helvetica,sans-Serif" font-size="11.00">varchar[100]</text>
<polygon fill="none" stroke="black" points="10,-211 10,-233 174,-233 174,-211 10,-211"/>
<text text-anchor="start" x="30" y="-219.2" font-family="Helvetica,sans-Serif" font-size="11.00">value_it</text>
<polygon fill="none" stroke="black" points="174,-211 174,-233 252,-233 252,-211 174,-211"/>
<text text-anchor="start" x="177" y="-219.2" font-family="Helvetica,sans-Serif" font-size="11.00">varchar[100]</text>
<polygon fill="none" stroke="black" points="10,-189 10,-211 174,-211 174,-189 10,-189"/>
<text text-anchor="start" x="30" y="-197.2" font-family="Helvetica,sans-Serif" font-size="11.00">value_ro</text>
<polygon fill="none" stroke="black" points="174,-189 174,-211 252,-211 252,-189 174,-189"/>
<text text-anchor="start" x="177" y="-197.2" font-family="Helvetica,sans-Serif" font-size="11.00">varchar[100]</text>
<polygon fill="none" stroke="black" points="10,-167 10,-189 174,-189 174,-167 10,-167"/>
<text text-anchor="start" x="30" y="-175.2" font-family="Helvetica,sans-Serif" font-size="11.00">abbr_en</text>
<polygon fill="none" stroke="black" points="174,-167 174,-189 252,-189 252,-167 174,-167"/>
<text text-anchor="start" x="177" y="-175.2" font-family="Helvetica,sans-Serif" font-size="11.00">varchar[3]</text>
<polygon fill="none" stroke="black" points="10,-145 10,-167 174,-167 174,-145 10,-145"/>
<text text-anchor="start" x="30" y="-153.2" font-family="Helvetica,sans-Serif" font-size="11.00">abbr_de</text>
<polygon fill="none" stroke="black" points="174,-145 174,-167 252,-167 252,-145 174,-145"/>
<text text-anchor="start" x="177" y="-153.2" font-family="Helvetica,sans-Serif" font-size="11.00">varchar[3]</text>
<polygon fill="none" stroke="black" points="10,-123 10,-145 174,-145 174,-123 10,-123"/>
<text text-anchor="start" x="30" y="-131.2" font-family="Helvetica,sans-Serif" font-size="11.00">abbr_fr</text>
<polygon fill="none" stroke="black" points="174,-123 174,-145 252,-145 252,-123 174,-123"/>
<text text-anchor="start" x="177" y="-131.2" font-family="Helvetica,sans-Serif" font-size="11.00">varchar[3]</text>
<polygon fill="none" stroke="black" points="10,-101 10,-123 174,-123 174,-101 10,-101"/>
<text text-anchor="start" x="30" y="-109.2" font-family="Helvetica,sans-Serif" font-size="11.00">abbr_it</text>
<polygon fill="none" stroke="black" points="174,-101 174,-123 252,-123 252,-101 174,-101"/>
<text text-anchor="start" x="177" y="-109.2" font-family="Helvetica,sans-Serif" font-size="11.00">varchar[3]</text>
<polygon fill="none" stroke="black" points="10,-79 10,-101 174,-101 174,-79 10,-79"/>
<text text-anchor="start" x="30" y="-87.2" font-family="Helvetica,sans-Serif" font-size="11.00">abbr_ro</text>
<polygon fill="none" stroke="black" points="174,-79 174,-101 252,-101 252,-79 174,-79"/>
<text text-anchor="start" x="177" y="-87.2" font-family="Helvetica,sans-Serif" font-size="11.00">varchar[3]</text>
<polygon fill="none" stroke="black" points="10,-57 10,-79 174,-79 174,-57 10,-57"/>
<text text-anchor="start" x="30" y="-65.2" font-family="Helvetica,sans-Serif" font-size="11.00">active</text>
<polygon fill="none" stroke="black" points="174,-57 174,-79 252,-79 252,-57 174,-57"/>
<text text-anchor="start" x="177" y="-65.2" font-family="Helvetica,sans-Serif" font-size="11.00">bool[1]</text>
<polygon fill="#ffffff" stroke="transparent" points="10,-39 10,-57 252,-57 252,-39 10,-39"/>
<polygon fill="none" stroke="black" points="10,-39 10,-57 252,-57 252,-39 10,-39"/>
<polygon fill="#ffffff" stroke="transparent" points="11,-40 11,-56 95,-56 95,-40 11,-40"/>
<text text-anchor="start" x="13" y="-45.2" font-family="Helvetica,sans-Serif" font-size="11.00">&lt; 0</text>
<polygon fill="#ffffff" stroke="transparent" points="95,-40 95,-56 167,-56 167,-40 95,-40"/>
<text text-anchor="start" x="127" y="-45.2" font-family="Helvetica,sans-Serif" font-size="11.00"> &#160;</text>
<polygon fill="#ffffff" stroke="transparent" points="167,-40 167,-56 251,-56 251,-40 167,-40"/>
<text text-anchor="start" x="229" y="-45.2" font-family="Helvetica,sans-Serif" font-size="11.00">1 &gt;</text>
<polygon fill="black" stroke="black" points="95,-40 95,-56 95,-56 95,-40 95,-40"/>
<polygon fill="black" stroke="black" points="167,-40 167,-56 167,-56 167,-40 167,-40"/>
<polygon fill="none" stroke="black" stroke-width="2" points="9,-38 9,-366 253,-366 253,-38 9,-38"/>
</a>
</g>
</g>
<!-- tdh_od.structure&#45;&gt;structure_condition -->
<g id="edge1" class="edge">
<title>tdh_od.structure:w&#45;&gt;structure_condition:e</title>
<path fill="none" stroke="black" d="M287.49,-332C276.18,-332 268.99,-332 253,-332"/>
<polygon fill="black" stroke="black" points="294,-332 302,-335.6 298,-332 302,-332 302,-332 302,-332 298,-332 302,-328.4 294,-332 294,-332"/>
<ellipse fill="none" stroke="black" cx="290.8" cy="-332" rx="3.2" ry="3.2"/>
</g>
</g>
</svg>
