<?xml version="1.0" encoding="UTF-8" standalone="no"?>
<!DOCTYPE svg PUBLIC "-//W3C//DTD SVG 1.1//EN"
 "http://www.w3.org/Graphics/SVG/1.1/DTD/svg11.dtd">
<!-- Generated by graphviz version 2.47.1 (20210515.0534)
 -->
<!-- Title: oneDegreeRelationshipsDiagram Pages: 1 -->
<svg width="448pt" height="443pt"
 viewBox="0.00 0.00 448.00 443.00" xmlns="http://www.w3.org/2000/svg" xmlns:xlink="http://www.w3.org/1999/xlink">
<g id="graph0" class="graph" transform="scale(1 1) rotate(0) translate(4 439)">
<title>oneDegreeRelationshipsDiagram</title>
<polygon fill="#ffffff" stroke="transparent" points="-4,4 -4,-439 444,-439 444,4 -4,4"/>
<text text-anchor="middle" x="73.5" y="-7.2" font-family="Helvetica,sans-Serif" font-size="11.00">Generated by SchemaSpy</text>
<!-- tdh_od.structure -->
<g id="node1" class="node">
<title>tdh_od.structure</title>
<g id="a_node1"><a xlink:href="../../../tdh_od/tables/structure.html" xlink:title="tdh_od.structure" target="_top">
<polygon fill="#ffffff" stroke="transparent" points="258,-153 258,-431 432,-431 432,-153 258,-153"/>
<polygon fill="#f5f5f5" stroke="transparent" points="258,-409 258,-431 432,-431 432,-409 258,-409"/>
<polygon fill="none" stroke="black" points="258,-409 258,-431 432,-431 432,-409 258,-409"/>
<text text-anchor="start" x="263" y="-418.2" font-family="Helvetica,sans-Serif" font-weight="bold" font-size="11.00">tdh_od.structure</text>
<text text-anchor="start" x="393" y="-417.2" font-family="Helvetica,sans-Serif" font-size="11.00">[table]</text>
<polygon fill="none" stroke="black" points="258,-387 258,-409 432,-409 432,-387 258,-387"/>
<image xlink:href="../../images/foreignKeys.png" width="11px" height="12px" preserveAspectRatio="xMinYMin meet" x="263" y="-404"/>
<text text-anchor="start" x="278" y="-395.2" font-family="Helvetica,sans-Serif" font-size="11.00">horizontal_positioning</text>
<polygon fill="none" stroke="black" points="258,-365 258,-387 432,-387 432,-365 258,-365"/>
<image xlink:href="../../images/foreignKeys.png" width="11px" height="12px" preserveAspectRatio="xMinYMin meet" x="263" y="-382"/>
<text text-anchor="start" x="278" y="-373.2" font-family="Helvetica,sans-Serif" font-size="11.00">status</text>
<polygon fill="none" stroke="black" points="258,-343 258,-365 432,-365 432,-343 258,-343"/>
<image xlink:href="../../images/foreignKeys.png" width="11px" height="12px" preserveAspectRatio="xMinYMin meet" x="263" y="-360"/>
<text text-anchor="start" x="278" y="-351.2" font-family="Helvetica,sans-Serif" font-size="11.00">kind</text>
<polygon fill="none" stroke="black" points="258,-321 258,-343 432,-343 432,-321 258,-321"/>
<image xlink:href="../../images/foreignKeys.png" width="11px" height="12px" preserveAspectRatio="xMinYMin meet" x="263" y="-338"/>
<text text-anchor="start" x="278" y="-329.2" font-family="Helvetica,sans-Serif" font-size="11.00">venting</text>
<polygon fill="none" stroke="black" points="258,-299 258,-321 432,-321 432,-299 258,-299"/>
<image xlink:href="../../images/foreignKeys.png" width="11px" height="12px" preserveAspectRatio="xMinYMin meet" x="263" y="-316"/>
<text text-anchor="start" x="278" y="-307.2" font-family="Helvetica,sans-Serif" font-size="11.00">discharge_type</text>
<polygon fill="none" stroke="black" points="258,-277 258,-299 432,-299 432,-277 258,-277"/>
<image xlink:href="../../images/foreignKeys.png" width="11px" height="12px" preserveAspectRatio="xMinYMin meet" x="263" y="-294"/>
<text text-anchor="start" x="278" y="-285.2" font-family="Helvetica,sans-Serif" font-size="11.00">grid_type</text>
<polygon fill="none" stroke="black" points="258,-255 258,-277 432,-277 432,-255 258,-255"/>
<image xlink:href="../../images/foreignKeys.png" width="11px" height="12px" preserveAspectRatio="xMinYMin meet" x="263" y="-272"/>
<text text-anchor="start" x="278" y="-263.2" font-family="Helvetica,sans-Serif" font-size="11.00">drainage_pump</text>
<polygon fill="none" stroke="black" points="258,-233 258,-255 432,-255 432,-233 258,-233"/>
<image xlink:href="../../images/foreignKeys.png" width="11px" height="12px" preserveAspectRatio="xMinYMin meet" x="263" y="-250"/>
<text text-anchor="start" x="278" y="-241.2" font-family="Helvetica,sans-Serif" font-size="11.00">power_connection</text>
<polygon fill="none" stroke="black" points="258,-211 258,-233 432,-233 432,-211 258,-211"/>
<image xlink:href="../../images/foreignKeys.png" width="11px" height="12px" preserveAspectRatio="xMinYMin meet" x="263" y="-228"/>
<text text-anchor="start" x="278" y="-219.2" font-family="Helvetica,sans-Serif" font-size="11.00">measuring_system</text>
<polygon fill="none" stroke="black" points="258,-189 258,-211 432,-211 432,-189 258,-189"/>
<image xlink:href="../../images/foreignKeys.png" width="11px" height="12px" preserveAspectRatio="xMinYMin meet" x="263" y="-206"/>
<text text-anchor="start" x="278" y="-197.2" font-family="Helvetica,sans-Serif" font-size="11.00">condition</text>
<polygon fill="none" stroke="black" points="258,-171 258,-189 432,-189 432,-171 258,-171"/>
<text text-anchor="start" x="261" y="-177.2" font-family="Helvetica,sans-Serif" font-size="11.00">...</text>
<polygon fill="#ffffff" stroke="transparent" points="258,-153 258,-171 332,-171 332,-153 258,-153"/>
<polygon fill="none" stroke="black" points="258,-153 258,-171 332,-171 332,-153 258,-153"/>
<text text-anchor="start" x="261" y="-159.2" font-family="Helvetica,sans-Serif" font-size="11.00">&lt; 10</text>
<polygon fill="#ffffff" stroke="transparent" points="332,-153 332,-171 395,-171 395,-153 332,-153"/>
<polygon fill="none" stroke="black" points="332,-153 332,-171 395,-171 395,-153 332,-153"/>
<text text-anchor="start" x="358" y="-159.2" font-family="Helvetica,sans-Serif" font-size="11.00">0 rows</text>
<polygon fill="#ffffff" stroke="transparent" points="395,-153 395,-171 432,-171 432,-153 395,-153"/>
<polygon fill="none" stroke="black" points="395,-153 395,-171 432,-171 432,-153 395,-153"/>
<text text-anchor="start" x="422" y="-159.2" font-family="Helvetica,sans-Serif" font-size="11.00"> &#160;</text>
</a>
</g>
</g>
<!-- structure_venting -->
<g id="node2" class="node">
<title>structure_venting</title>
<g id="a_node2"><a xlink:href="../../tables/structure_venting.html" xlink:title="structure_venting" target="_top">
<polygon fill="#ffffff" stroke="transparent" points="8,-37 8,-367 209,-367 209,-37 8,-37"/>
<polygon fill="#f5f5f5" stroke="transparent" points="10.5,-343 10.5,-365 207.5,-365 207.5,-343 10.5,-343"/>
<polygon fill="none" stroke="black" points="10.5,-343 10.5,-365 207.5,-365 207.5,-343 10.5,-343"/>
<text text-anchor="start" x="15.5" y="-352.2" font-family="Helvetica,sans-Serif" font-weight="bold" font-size="11.00">structure_venting</text>
<text text-anchor="start" x="168.5" y="-351.2" font-family="Helvetica,sans-Serif" font-size="11.00">[table]</text>
<polygon fill="none" stroke="black" points="10.5,-321 10.5,-343 137.5,-343 137.5,-321 10.5,-321"/>
<image xlink:href="../../images/primaryKeys.png" width="11px" height="12px" preserveAspectRatio="xMinYMin meet" x="15.5" y="-338"/>
<text text-anchor="start" x="30.5" y="-329.2" font-family="Helvetica,sans-Serif" font-size="11.00">code</text>
<polygon fill="none" stroke="black" points="137.5,-321 137.5,-343 207.5,-343 207.5,-321 137.5,-321"/>
<text text-anchor="start" x="140.5" y="-329.2" font-family="Helvetica,sans-Serif" font-size="11.00">int4[10]</text>
<polygon fill="none" stroke="black" points="10.5,-299 10.5,-321 137.5,-321 137.5,-299 10.5,-299"/>
<text text-anchor="start" x="30.5" y="-307.2" font-family="Helvetica,sans-Serif" font-size="11.00">vsacode</text>
<polygon fill="none" stroke="black" points="137.5,-299 137.5,-321 207.5,-321 207.5,-299 137.5,-299"/>
<text text-anchor="start" x="140.5" y="-307.2" font-family="Helvetica,sans-Serif" font-size="11.00">int4[10]</text>
<polygon fill="none" stroke="black" points="10.5,-277 10.5,-299 137.5,-299 137.5,-277 10.5,-277"/>
<text text-anchor="start" x="30.5" y="-285.2" font-family="Helvetica,sans-Serif" font-size="11.00">value_en</text>
<polygon fill="none" stroke="black" points="137.5,-277 137.5,-299 207.5,-299 207.5,-277 137.5,-277"/>
<text text-anchor="start" x="140.5" y="-285.2" font-family="Helvetica,sans-Serif" font-size="11.00">varchar[100]</text>
<polygon fill="none" stroke="black" points="10.5,-255 10.5,-277 137.5,-277 137.5,-255 10.5,-255"/>
<text text-anchor="start" x="30.5" y="-263.2" font-family="Helvetica,sans-Serif" font-size="11.00">value_de</text>
<polygon fill="none" stroke="black" points="137.5,-255 137.5,-277 207.5,-277 207.5,-255 137.5,-255"/>
<text text-anchor="start" x="140.5" y="-263.2" font-family="Helvetica,sans-Serif" font-size="11.00">varchar[100]</text>
<polygon fill="none" stroke="black" points="10.5,-233 10.5,-255 137.5,-255 137.5,-233 10.5,-233"/>
<text text-anchor="start" x="30.5" y="-241.2" font-family="Helvetica,sans-Serif" font-size="11.00">value_fr</text>
<polygon fill="none" stroke="black" points="137.5,-233 137.5,-255 207.5,-255 207.5,-233 137.5,-233"/>
<text text-anchor="start" x="140.5" y="-241.2" font-family="Helvetica,sans-Serif" font-size="11.00">varchar[100]</text>
<polygon fill="none" stroke="black" points="10.5,-211 10.5,-233 137.5,-233 137.5,-211 10.5,-211"/>
<text text-anchor="start" x="30.5" y="-219.2" font-family="Helvetica,sans-Serif" font-size="11.00">value_it</text>
<polygon fill="none" stroke="black" points="137.5,-211 137.5,-233 207.5,-233 207.5,-211 137.5,-211"/>
<text text-anchor="start" x="140.5" y="-219.2" font-family="Helvetica,sans-Serif" font-size="11.00">varchar[100]</text>
<polygon fill="none" stroke="black" points="10.5,-189 10.5,-211 137.5,-211 137.5,-189 10.5,-189"/>
<text text-anchor="start" x="30.5" y="-197.2" font-family="Helvetica,sans-Serif" font-size="11.00">value_ro</text>
<polygon fill="none" stroke="black" points="137.5,-189 137.5,-211 207.5,-211 207.5,-189 137.5,-189"/>
<text text-anchor="start" x="140.5" y="-197.2" font-family="Helvetica,sans-Serif" font-size="11.00">varchar[100]</text>
<polygon fill="none" stroke="black" points="10.5,-167 10.5,-189 137.5,-189 137.5,-167 10.5,-167"/>
<text text-anchor="start" x="30.5" y="-175.2" font-family="Helvetica,sans-Serif" font-size="11.00">abbr_en</text>
<polygon fill="none" stroke="black" points="137.5,-167 137.5,-189 207.5,-189 207.5,-167 137.5,-167"/>
<text text-anchor="start" x="140.5" y="-175.2" font-family="Helvetica,sans-Serif" font-size="11.00">varchar[3]</text>
<polygon fill="none" stroke="black" points="10.5,-145 10.5,-167 137.5,-167 137.5,-145 10.5,-145"/>
<text text-anchor="start" x="30.5" y="-153.2" font-family="Helvetica,sans-Serif" font-size="11.00">abbr_de</text>
<polygon fill="none" stroke="black" points="137.5,-145 137.5,-167 207.5,-167 207.5,-145 137.5,-145"/>
<text text-anchor="start" x="140.5" y="-153.2" font-family="Helvetica,sans-Serif" font-size="11.00">varchar[3]</text>
<polygon fill="none" stroke="black" points="10.5,-123 10.5,-145 137.5,-145 137.5,-123 10.5,-123"/>
<text text-anchor="start" x="30.5" y="-131.2" font-family="Helvetica,sans-Serif" font-size="11.00">abbr_fr</text>
<polygon fill="none" stroke="black" points="137.5,-123 137.5,-145 207.5,-145 207.5,-123 137.5,-123"/>
<text text-anchor="start" x="140.5" y="-131.2" font-family="Helvetica,sans-Serif" font-size="11.00">varchar[3]</text>
<polygon fill="none" stroke="black" points="10.5,-101 10.5,-123 137.5,-123 137.5,-101 10.5,-101"/>
<text text-anchor="start" x="30.5" y="-109.2" font-family="Helvetica,sans-Serif" font-size="11.00">abbr_it</text>
<polygon fill="none" stroke="black" points="137.5,-101 137.5,-123 207.5,-123 207.5,-101 137.5,-101"/>
<text text-anchor="start" x="140.5" y="-109.2" font-family="Helvetica,sans-Serif" font-size="11.00">varchar[3]</text>
<polygon fill="none" stroke="black" points="10.5,-79 10.5,-101 137.5,-101 137.5,-79 10.5,-79"/>
<text text-anchor="start" x="30.5" y="-87.2" font-family="Helvetica,sans-Serif" font-size="11.00">abbr_ro</text>
<polygon fill="none" stroke="black" points="137.5,-79 137.5,-101 207.5,-101 207.5,-79 137.5,-79"/>
<text text-anchor="start" x="140.5" y="-87.2" font-family="Helvetica,sans-Serif" font-size="11.00">varchar[3]</text>
<polygon fill="none" stroke="black" points="10.5,-57 10.5,-79 137.5,-79 137.5,-57 10.5,-57"/>
<text text-anchor="start" x="30.5" y="-65.2" font-family="Helvetica,sans-Serif" font-size="11.00">active</text>
<polygon fill="none" stroke="black" points="137.5,-57 137.5,-79 207.5,-79 207.5,-57 137.5,-57"/>
<text text-anchor="start" x="140.5" y="-65.2" font-family="Helvetica,sans-Serif" font-size="11.00">bool[1]</text>
<polygon fill="#ffffff" stroke="transparent" points="10.5,-39 10.5,-57 78.5,-57 78.5,-39 10.5,-39"/>
<polygon fill="none" stroke="black" points="10.5,-39 10.5,-57 78.5,-57 78.5,-39 10.5,-39"/>
<text text-anchor="start" x="13.5" y="-45.2" font-family="Helvetica,sans-Serif" font-size="11.00">&lt; 0</text>
<polygon fill="#ffffff" stroke="transparent" points="78.5,-39 78.5,-57 137.5,-57 137.5,-39 78.5,-39"/>
<polygon fill="none" stroke="black" points="78.5,-39 78.5,-57 137.5,-57 137.5,-39 78.5,-39"/>
<text text-anchor="start" x="127.5" y="-45.2" font-family="Helvetica,sans-Serif" font-size="11.00"> &#160;</text>
<polygon fill="#ffffff" stroke="transparent" points="137.5,-39 137.5,-57 207.5,-57 207.5,-39 137.5,-39"/>
<polygon fill="none" stroke="black" points="137.5,-39 137.5,-57 207.5,-57 207.5,-39 137.5,-39"/>
<text text-anchor="start" x="188.5" y="-45.2" font-family="Helvetica,sans-Serif" font-size="11.00">1 &gt;</text>
<polygon fill="none" stroke="black" stroke-width="2" points="9,-38 9,-366 208,-366 208,-38 9,-38"/>
</a>
</g>
</g>
<!-- tdh_od.structure&#45;&gt;structure_venting -->
<g id="edge1" class="edge">
<title>tdh_od.structure:w&#45;&gt;structure_venting:e</title>
<path fill="none" stroke="black" d="M242.28,-332C231.29,-332 224.16,-332 208.5,-332"/>
<polygon fill="black" stroke="black" points="249,-332 257,-335.6 253,-332 257,-332 257,-332 257,-332 253,-332 257,-328.4 249,-332 249,-332"/>
<ellipse fill="none" stroke="black" cx="245.8" cy="-332" rx="3.2" ry="3.2"/>
</g>
</g>
</svg>
