<?xml version="1.0" encoding="UTF-8" standalone="no"?>
<!DOCTYPE svg PUBLIC "-//W3C//DTD SVG 1.1//EN"
 "http://www.w3.org/Graphics/SVG/1.1/DTD/svg11.dtd">
<!-- Generated by graphviz version 2.47.1 (20210515.0534)
 -->
<!-- Title: oneDegreeRelationshipsDiagram Pages: 1 -->
<svg width="440pt" height="399pt"
 viewBox="0.00 0.00 440.00 399.00" xmlns="http://www.w3.org/2000/svg" xmlns:xlink="http://www.w3.org/1999/xlink">
<g id="graph0" class="graph" transform="scale(1 1) rotate(0) translate(4 395)">
<title>oneDegreeRelationshipsDiagram</title>
<polygon fill="#ffffff" stroke="transparent" points="-4,4 -4,-395 436,-395 436,4 -4,4"/>
<text text-anchor="middle" x="73.5" y="-7.2" font-family="Helvetica,sans-Serif" font-size="11.00">Generated by SchemaSpy</text>
<!-- tdh_od.structure -->
<g id="node1" class="node">
<title>tdh_od.structure</title>
<g id="a_node1"><a xlink:href="../../../tdh_od/tables/structure.html" xlink:title="tdh_od.structure" target="_top">
<polygon fill="#ffffff" stroke="transparent" points="250,-109 250,-387 424,-387 424,-109 250,-109"/>
<polygon fill="#f5f5f5" stroke="transparent" points="250,-365 250,-387 424,-387 424,-365 250,-365"/>
<polygon fill="none" stroke="black" points="250,-365 250,-387 424,-387 424,-365 250,-365"/>
<text text-anchor="start" x="255" y="-374.2" font-family="Helvetica,sans-Serif" font-weight="bold" font-size="11.00">tdh_od.structure</text>
<text text-anchor="start" x="385" y="-373.2" font-family="Helvetica,sans-Serif" font-size="11.00">[table]</text>
<polygon fill="none" stroke="black" points="250,-343 250,-365 424,-365 424,-343 250,-343"/>
<image xlink:href="../../images/foreignKeys.png" width="11px" height="12px" preserveAspectRatio="xMinYMin meet" x="255" y="-360"/>
<text text-anchor="start" x="270" y="-351.2" font-family="Helvetica,sans-Serif" font-size="11.00">horizontal_positioning</text>
<polygon fill="none" stroke="black" points="250,-321 250,-343 424,-343 424,-321 250,-321"/>
<image xlink:href="../../images/foreignKeys.png" width="11px" height="12px" preserveAspectRatio="xMinYMin meet" x="255" y="-338"/>
<text text-anchor="start" x="270" y="-329.2" font-family="Helvetica,sans-Serif" font-size="11.00">status</text>
<polygon fill="none" stroke="black" points="250,-299 250,-321 424,-321 424,-299 250,-299"/>
<image xlink:href="../../images/foreignKeys.png" width="11px" height="12px" preserveAspectRatio="xMinYMin meet" x="255" y="-316"/>
<text text-anchor="start" x="270" y="-307.2" font-family="Helvetica,sans-Serif" font-size="11.00">kind</text>
<polygon fill="none" stroke="black" points="250,-277 250,-299 424,-299 424,-277 250,-277"/>
<image xlink:href="../../images/foreignKeys.png" width="11px" height="12px" preserveAspectRatio="xMinYMin meet" x="255" y="-294"/>
<text text-anchor="start" x="270" y="-285.2" font-family="Helvetica,sans-Serif" font-size="11.00">venting</text>
<polygon fill="none" stroke="black" points="250,-255 250,-277 424,-277 424,-255 250,-255"/>
<image xlink:href="../../images/foreignKeys.png" width="11px" height="12px" preserveAspectRatio="xMinYMin meet" x="255" y="-272"/>
<text text-anchor="start" x="270" y="-263.2" font-family="Helvetica,sans-Serif" font-size="11.00">discharge_type</text>
<polygon fill="none" stroke="black" points="250,-233 250,-255 424,-255 424,-233 250,-233"/>
<image xlink:href="../../images/foreignKeys.png" width="11px" height="12px" preserveAspectRatio="xMinYMin meet" x="255" y="-250"/>
<text text-anchor="start" x="270" y="-241.2" font-family="Helvetica,sans-Serif" font-size="11.00">grid_type</text>
<polygon fill="none" stroke="black" points="250,-211 250,-233 424,-233 424,-211 250,-211"/>
<image xlink:href="../../images/foreignKeys.png" width="11px" height="12px" preserveAspectRatio="xMinYMin meet" x="255" y="-228"/>
<text text-anchor="start" x="270" y="-219.2" font-family="Helvetica,sans-Serif" font-size="11.00">drainage_pump</text>
<polygon fill="none" stroke="black" points="250,-189 250,-211 424,-211 424,-189 250,-189"/>
<image xlink:href="../../images/foreignKeys.png" width="11px" height="12px" preserveAspectRatio="xMinYMin meet" x="255" y="-206"/>
<text text-anchor="start" x="270" y="-197.2" font-family="Helvetica,sans-Serif" font-size="11.00">power_connection</text>
<polygon fill="none" stroke="black" points="250,-167 250,-189 424,-189 424,-167 250,-167"/>
<image xlink:href="../../images/foreignKeys.png" width="11px" height="12px" preserveAspectRatio="xMinYMin meet" x="255" y="-184"/>
<text text-anchor="start" x="270" y="-175.2" font-family="Helvetica,sans-Serif" font-size="11.00">measuring_system</text>
<polygon fill="none" stroke="black" points="250,-145 250,-167 424,-167 424,-145 250,-145"/>
<image xlink:href="../../images/foreignKeys.png" width="11px" height="12px" preserveAspectRatio="xMinYMin meet" x="255" y="-162"/>
<text text-anchor="start" x="270" y="-153.2" font-family="Helvetica,sans-Serif" font-size="11.00">condition</text>
<polygon fill="none" stroke="black" points="250,-127 250,-145 424,-145 424,-127 250,-127"/>
<text text-anchor="start" x="253" y="-133.2" font-family="Helvetica,sans-Serif" font-size="11.00">...</text>
<polygon fill="#ffffff" stroke="transparent" points="250,-109 250,-127 324,-127 324,-109 250,-109"/>
<polygon fill="none" stroke="black" points="250,-109 250,-127 324,-127 324,-109 250,-109"/>
<text text-anchor="start" x="253" y="-115.2" font-family="Helvetica,sans-Serif" font-size="11.00">&lt; 10</text>
<polygon fill="#ffffff" stroke="transparent" points="324,-109 324,-127 387,-127 387,-109 324,-109"/>
<polygon fill="none" stroke="black" points="324,-109 324,-127 387,-127 387,-109 324,-109"/>
<text text-anchor="start" x="350" y="-115.2" font-family="Helvetica,sans-Serif" font-size="11.00">0 rows</text>
<polygon fill="#ffffff" stroke="transparent" points="387,-109 387,-127 424,-127 424,-109 387,-109"/>
<polygon fill="none" stroke="black" points="387,-109 387,-127 424,-127 424,-109 387,-109"/>
<text text-anchor="start" x="414" y="-115.2" font-family="Helvetica,sans-Serif" font-size="11.00"> &#160;</text>
</a>
</g>
</g>
<!-- structure_status -->
<g id="node2" class="node">
<title>structure_status</title>
<g id="a_node2"><a xlink:href="../../tables/structure_status.html" xlink:title="structure_status" target="_top">
<polygon fill="#ffffff" stroke="transparent" points="8,-37 8,-367 201,-367 201,-37 8,-37"/>
<polygon fill="#f5f5f5" stroke="transparent" points="10.5,-343 10.5,-365 199.5,-365 199.5,-343 10.5,-343"/>
<polygon fill="none" stroke="black" points="10.5,-343 10.5,-365 199.5,-365 199.5,-343 10.5,-343"/>
<text text-anchor="start" x="15.5" y="-352.2" font-family="Helvetica,sans-Serif" font-weight="bold" font-size="11.00">structure_status</text>
<text text-anchor="start" x="160.5" y="-351.2" font-family="Helvetica,sans-Serif" font-size="11.00">[table]</text>
<polygon fill="none" stroke="black" points="10.5,-321 10.5,-343 129.5,-343 129.5,-321 10.5,-321"/>
<image xlink:href="../../images/primaryKeys.png" width="11px" height="12px" preserveAspectRatio="xMinYMin meet" x="15.5" y="-338"/>
<text text-anchor="start" x="30.5" y="-329.2" font-family="Helvetica,sans-Serif" font-size="11.00">code</text>
<polygon fill="none" stroke="black" points="129.5,-321 129.5,-343 199.5,-343 199.5,-321 129.5,-321"/>
<text text-anchor="start" x="132.5" y="-329.2" font-family="Helvetica,sans-Serif" font-size="11.00">int4[10]</text>
<polygon fill="none" stroke="black" points="10.5,-299 10.5,-321 129.5,-321 129.5,-299 10.5,-299"/>
<text text-anchor="start" x="30.5" y="-307.2" font-family="Helvetica,sans-Serif" font-size="11.00">vsacode</text>
<polygon fill="none" stroke="black" points="129.5,-299 129.5,-321 199.5,-321 199.5,-299 129.5,-299"/>
<text text-anchor="start" x="132.5" y="-307.2" font-family="Helvetica,sans-Serif" font-size="11.00">int4[10]</text>
<polygon fill="none" stroke="black" points="10.5,-277 10.5,-299 129.5,-299 129.5,-277 10.5,-277"/>
<text text-anchor="start" x="30.5" y="-285.2" font-family="Helvetica,sans-Serif" font-size="11.00">value_en</text>
<polygon fill="none" stroke="black" points="129.5,-277 129.5,-299 199.5,-299 199.5,-277 129.5,-277"/>
<text text-anchor="start" x="132.5" y="-285.2" font-family="Helvetica,sans-Serif" font-size="11.00">varchar[100]</text>
<polygon fill="none" stroke="black" points="10.5,-255 10.5,-277 129.5,-277 129.5,-255 10.5,-255"/>
<text text-anchor="start" x="30.5" y="-263.2" font-family="Helvetica,sans-Serif" font-size="11.00">value_de</text>
<polygon fill="none" stroke="black" points="129.5,-255 129.5,-277 199.5,-277 199.5,-255 129.5,-255"/>
<text text-anchor="start" x="132.5" y="-263.2" font-family="Helvetica,sans-Serif" font-size="11.00">varchar[100]</text>
<polygon fill="none" stroke="black" points="10.5,-233 10.5,-255 129.5,-255 129.5,-233 10.5,-233"/>
<text text-anchor="start" x="30.5" y="-241.2" font-family="Helvetica,sans-Serif" font-size="11.00">value_fr</text>
<polygon fill="none" stroke="black" points="129.5,-233 129.5,-255 199.5,-255 199.5,-233 129.5,-233"/>
<text text-anchor="start" x="132.5" y="-241.2" font-family="Helvetica,sans-Serif" font-size="11.00">varchar[100]</text>
<polygon fill="none" stroke="black" points="10.5,-211 10.5,-233 129.5,-233 129.5,-211 10.5,-211"/>
<text text-anchor="start" x="30.5" y="-219.2" font-family="Helvetica,sans-Serif" font-size="11.00">value_it</text>
<polygon fill="none" stroke="black" points="129.5,-211 129.5,-233 199.5,-233 199.5,-211 129.5,-211"/>
<text text-anchor="start" x="132.5" y="-219.2" font-family="Helvetica,sans-Serif" font-size="11.00">varchar[100]</text>
<polygon fill="none" stroke="black" points="10.5,-189 10.5,-211 129.5,-211 129.5,-189 10.5,-189"/>
<text text-anchor="start" x="30.5" y="-197.2" font-family="Helvetica,sans-Serif" font-size="11.00">value_ro</text>
<polygon fill="none" stroke="black" points="129.5,-189 129.5,-211 199.5,-211 199.5,-189 129.5,-189"/>
<text text-anchor="start" x="132.5" y="-197.2" font-family="Helvetica,sans-Serif" font-size="11.00">varchar[100]</text>
<polygon fill="none" stroke="black" points="10.5,-167 10.5,-189 129.5,-189 129.5,-167 10.5,-167"/>
<text text-anchor="start" x="30.5" y="-175.2" font-family="Helvetica,sans-Serif" font-size="11.00">abbr_en</text>
<polygon fill="none" stroke="black" points="129.5,-167 129.5,-189 199.5,-189 199.5,-167 129.5,-167"/>
<text text-anchor="start" x="132.5" y="-175.2" font-family="Helvetica,sans-Serif" font-size="11.00">varchar[3]</text>
<polygon fill="none" stroke="black" points="10.5,-145 10.5,-167 129.5,-167 129.5,-145 10.5,-145"/>
<text text-anchor="start" x="30.5" y="-153.2" font-family="Helvetica,sans-Serif" font-size="11.00">abbr_de</text>
<polygon fill="none" stroke="black" points="129.5,-145 129.5,-167 199.5,-167 199.5,-145 129.5,-145"/>
<text text-anchor="start" x="132.5" y="-153.2" font-family="Helvetica,sans-Serif" font-size="11.00">varchar[3]</text>
<polygon fill="none" stroke="black" points="10.5,-123 10.5,-145 129.5,-145 129.5,-123 10.5,-123"/>
<text text-anchor="start" x="30.5" y="-131.2" font-family="Helvetica,sans-Serif" font-size="11.00">abbr_fr</text>
<polygon fill="none" stroke="black" points="129.5,-123 129.5,-145 199.5,-145 199.5,-123 129.5,-123"/>
<text text-anchor="start" x="132.5" y="-131.2" font-family="Helvetica,sans-Serif" font-size="11.00">varchar[3]</text>
<polygon fill="none" stroke="black" points="10.5,-101 10.5,-123 129.5,-123 129.5,-101 10.5,-101"/>
<text text-anchor="start" x="30.5" y="-109.2" font-family="Helvetica,sans-Serif" font-size="11.00">abbr_it</text>
<polygon fill="none" stroke="black" points="129.5,-101 129.5,-123 199.5,-123 199.5,-101 129.5,-101"/>
<text text-anchor="start" x="132.5" y="-109.2" font-family="Helvetica,sans-Serif" font-size="11.00">varchar[3]</text>
<polygon fill="none" stroke="black" points="10.5,-79 10.5,-101 129.5,-101 129.5,-79 10.5,-79"/>
<text text-anchor="start" x="30.5" y="-87.2" font-family="Helvetica,sans-Serif" font-size="11.00">abbr_ro</text>
<polygon fill="none" stroke="black" points="129.5,-79 129.5,-101 199.5,-101 199.5,-79 129.5,-79"/>
<text text-anchor="start" x="132.5" y="-87.2" font-family="Helvetica,sans-Serif" font-size="11.00">varchar[3]</text>
<polygon fill="none" stroke="black" points="10.5,-57 10.5,-79 129.5,-79 129.5,-57 10.5,-57"/>
<text text-anchor="start" x="30.5" y="-65.2" font-family="Helvetica,sans-Serif" font-size="11.00">active</text>
<polygon fill="none" stroke="black" points="129.5,-57 129.5,-79 199.5,-79 199.5,-57 129.5,-57"/>
<text text-anchor="start" x="132.5" y="-65.2" font-family="Helvetica,sans-Serif" font-size="11.00">bool[1]</text>
<polygon fill="#ffffff" stroke="transparent" points="10.5,-39 10.5,-57 74.5,-57 74.5,-39 10.5,-39"/>
<polygon fill="none" stroke="black" points="10.5,-39 10.5,-57 74.5,-57 74.5,-39 10.5,-39"/>
<text text-anchor="start" x="13.5" y="-45.2" font-family="Helvetica,sans-Serif" font-size="11.00">&lt; 0</text>
<polygon fill="#ffffff" stroke="transparent" points="74.5,-39 74.5,-57 129.5,-57 129.5,-39 74.5,-39"/>
<polygon fill="none" stroke="black" points="74.5,-39 74.5,-57 129.5,-57 129.5,-39 74.5,-39"/>
<text text-anchor="start" x="119.5" y="-45.2" font-family="Helvetica,sans-Serif" font-size="11.00"> &#160;</text>
<polygon fill="#ffffff" stroke="transparent" points="129.5,-39 129.5,-57 199.5,-57 199.5,-39 129.5,-39"/>
<polygon fill="none" stroke="black" points="129.5,-39 129.5,-57 199.5,-57 199.5,-39 129.5,-39"/>
<text text-anchor="start" x="180.5" y="-45.2" font-family="Helvetica,sans-Serif" font-size="11.00">1 &gt;</text>
<polygon fill="none" stroke="black" stroke-width="2" points="9,-38 9,-366 200,-366 200,-38 9,-38"/>
</a>
</g>
</g>
<!-- tdh_od.structure&#45;&gt;structure_status -->
<g id="edge1" class="edge">
<title>tdh_od.structure:w&#45;&gt;structure_status:e</title>
<path fill="none" stroke="black" d="M234.28,-332C223.29,-332 216.16,-332 200.5,-332"/>
<polygon fill="black" stroke="black" points="241,-332 249,-335.6 245,-332 249,-332 249,-332 249,-332 245,-332 249,-328.4 241,-332 241,-332"/>
<ellipse fill="none" stroke="black" cx="237.8" cy="-332" rx="3.2" ry="3.2"/>
</g>
</g>
</svg>
