<?xml version="1.0" encoding="UTF-8" standalone="no"?>
<!DOCTYPE svg PUBLIC "-//W3C//DTD SVG 1.1//EN"
 "http://www.w3.org/Graphics/SVG/1.1/DTD/svg11.dtd">
<!-- Generated by graphviz version 2.47.1 (20210515.0534)
 -->
<!-- Title: oneDegreeRelationshipsDiagram Pages: 1 -->
<svg width="553pt" height="379pt"
 viewBox="0.00 0.00 553.00 379.00" xmlns="http://www.w3.org/2000/svg" xmlns:xlink="http://www.w3.org/1999/xlink">
<g id="graph0" class="graph" transform="scale(1 1) rotate(0) translate(4 375)">
<title>oneDegreeRelationshipsDiagram</title>
<polygon fill="#ffffff" stroke="transparent" points="-4,4 -4,-375 549,-375 549,4 -4,4"/>
<text text-anchor="middle" x="73.5" y="-7.2" font-family="Helvetica,sans-Serif" font-size="11.00">Generated by SchemaSpy</text>
<!-- tdh_od.trench_point -->
<g id="node1" class="node">
<title>tdh_od.trench_point</title>
<g id="a_node1"><a xlink:href="../../../tdh_od/tables/trench_point.html" xlink:title="tdh_od.trench_point" target="_top">
<polygon fill="#ffffff" stroke="transparent" points="367,-241 367,-365 537,-365 537,-241 367,-241"/>
<polygon fill="#f5f5f5" stroke="transparent" points="367,-343 367,-365 537,-365 537,-343 367,-343"/>
<polygon fill="none" stroke="black" points="367,-343 367,-365 537,-365 537,-343 367,-343"/>
<text text-anchor="start" x="372" y="-352.2" font-family="Helvetica,sans-Serif" font-weight="bold" font-size="11.00">tdh_od.trench_point</text>
<text text-anchor="start" x="498" y="-351.2" font-family="Helvetica,sans-Serif" font-size="11.00">[table]</text>
<polygon fill="none" stroke="black" points="367,-321 367,-343 537,-343 537,-321 367,-321"/>
<image xlink:href="../../images/foreignKeys.png" width="11px" height="12px" preserveAspectRatio="xMinYMin meet" x="372" y="-338"/>
<text text-anchor="start" x="387" y="-329.2" font-family="Helvetica,sans-Serif" font-size="11.00">horizontal_positioning</text>
<polygon fill="none" stroke="black" points="367,-299 367,-321 537,-321 537,-299 367,-299"/>
<image xlink:href="../../images/foreignKeys.png" width="11px" height="12px" preserveAspectRatio="xMinYMin meet" x="372" y="-316"/>
<text text-anchor="start" x="387" y="-307.2" font-family="Helvetica,sans-Serif" font-size="11.00">kind</text>
<polygon fill="none" stroke="black" points="367,-277 367,-299 537,-299 537,-277 367,-277"/>
<image xlink:href="../../images/foreignKeys.png" width="11px" height="12px" preserveAspectRatio="xMinYMin meet" x="372" y="-294"/>
<text text-anchor="start" x="387" y="-285.2" font-family="Helvetica,sans-Serif" font-size="11.00">elevation_determination</text>
<polygon fill="none" stroke="black" points="367,-259 367,-277 537,-277 537,-259 367,-259"/>
<text text-anchor="start" x="370" y="-265.2" font-family="Helvetica,sans-Serif" font-size="11.00">...</text>
<polygon fill="#ffffff" stroke="transparent" points="367,-241 367,-259 436,-259 436,-241 367,-241"/>
<polygon fill="none" stroke="black" points="367,-241 367,-259 436,-259 436,-241 367,-241"/>
<text text-anchor="start" x="370" y="-247.2" font-family="Helvetica,sans-Serif" font-size="11.00">&lt; 3</text>
<polygon fill="#ffffff" stroke="transparent" points="436,-241 436,-259 500,-259 500,-241 436,-241"/>
<polygon fill="none" stroke="black" points="436,-241 436,-259 500,-259 500,-241 436,-241"/>
<text text-anchor="start" x="463" y="-247.2" font-family="Helvetica,sans-Serif" font-size="11.00">0 rows</text>
<polygon fill="#ffffff" stroke="transparent" points="500,-241 500,-259 537,-259 537,-241 500,-241"/>
<polygon fill="none" stroke="black" points="500,-241 500,-259 537,-259 537,-241 500,-241"/>
<text text-anchor="start" x="527" y="-247.2" font-family="Helvetica,sans-Serif" font-size="11.00"> &#160;</text>
</a>
</g>
</g>
<!-- trench_point_horizontal_positioning -->
<g id="node2" class="node">
<title>trench_point_horizontal_positioning</title>
<g id="a_node2"><a xlink:href="../../tables/trench_point_horizontal_positioning.html" xlink:title="trench_point_horizontal_positioning" target="_top">
<polygon fill="#ffffff" stroke="transparent" points="8,-37 8,-367 318,-367 318,-37 8,-37"/>
<polygon fill="#f5f5f5" stroke="transparent" points="10,-343 10,-365 316,-365 316,-343 10,-343"/>
<polygon fill="none" stroke="black" points="10,-343 10,-365 316,-365 316,-343 10,-343"/>
<text text-anchor="start" x="15" y="-352.2" font-family="Helvetica,sans-Serif" font-weight="bold" font-size="11.00">trench_point_horizontal_positioning</text>
<text text-anchor="start" x="277" y="-351.2" font-family="Helvetica,sans-Serif" font-size="11.00">[table]</text>
<polygon fill="none" stroke="black" points="10,-321 10,-343 246,-343 246,-321 10,-321"/>
<image xlink:href="../../images/primaryKeys.png" width="11px" height="12px" preserveAspectRatio="xMinYMin meet" x="15" y="-338"/>
<text text-anchor="start" x="30" y="-329.2" font-family="Helvetica,sans-Serif" font-size="11.00">code</text>
<polygon fill="none" stroke="black" points="246,-321 246,-343 316,-343 316,-321 246,-321"/>
<text text-anchor="start" x="249" y="-329.2" font-family="Helvetica,sans-Serif" font-size="11.00">int4[10]</text>
<polygon fill="none" stroke="black" points="10,-299 10,-321 246,-321 246,-299 10,-299"/>
<text text-anchor="start" x="30" y="-307.2" font-family="Helvetica,sans-Serif" font-size="11.00">vsacode</text>
<polygon fill="none" stroke="black" points="246,-299 246,-321 316,-321 316,-299 246,-299"/>
<text text-anchor="start" x="249" y="-307.2" font-family="Helvetica,sans-Serif" font-size="11.00">int4[10]</text>
<polygon fill="none" stroke="black" points="10,-277 10,-299 246,-299 246,-277 10,-277"/>
<text text-anchor="start" x="30" y="-285.2" font-family="Helvetica,sans-Serif" font-size="11.00">value_en</text>
<polygon fill="none" stroke="black" points="246,-277 246,-299 316,-299 316,-277 246,-277"/>
<text text-anchor="start" x="249" y="-285.2" font-family="Helvetica,sans-Serif" font-size="11.00">varchar[100]</text>
<polygon fill="none" stroke="black" points="10,-255 10,-277 246,-277 246,-255 10,-255"/>
<text text-anchor="start" x="30" y="-263.2" font-family="Helvetica,sans-Serif" font-size="11.00">value_de</text>
<polygon fill="none" stroke="black" points="246,-255 246,-277 316,-277 316,-255 246,-255"/>
<text text-anchor="start" x="249" y="-263.2" font-family="Helvetica,sans-Serif" font-size="11.00">varchar[100]</text>
<polygon fill="none" stroke="black" points="10,-233 10,-255 246,-255 246,-233 10,-233"/>
<text text-anchor="start" x="30" y="-241.2" font-family="Helvetica,sans-Serif" font-size="11.00">value_fr</text>
<polygon fill="none" stroke="black" points="246,-233 246,-255 316,-255 316,-233 246,-233"/>
<text text-anchor="start" x="249" y="-241.2" font-family="Helvetica,sans-Serif" font-size="11.00">varchar[100]</text>
<polygon fill="none" stroke="black" points="10,-211 10,-233 246,-233 246,-211 10,-211"/>
<text text-anchor="start" x="30" y="-219.2" font-family="Helvetica,sans-Serif" font-size="11.00">value_it</text>
<polygon fill="none" stroke="black" points="246,-211 246,-233 316,-233 316,-211 246,-211"/>
<text text-anchor="start" x="249" y="-219.2" font-family="Helvetica,sans-Serif" font-size="11.00">varchar[100]</text>
<polygon fill="none" stroke="black" points="10,-189 10,-211 246,-211 246,-189 10,-189"/>
<text text-anchor="start" x="30" y="-197.2" font-family="Helvetica,sans-Serif" font-size="11.00">value_ro</text>
<polygon fill="none" stroke="black" points="246,-189 246,-211 316,-211 316,-189 246,-189"/>
<text text-anchor="start" x="249" y="-197.2" font-family="Helvetica,sans-Serif" font-size="11.00">varchar[100]</text>
<polygon fill="none" stroke="black" points="10,-167 10,-189 246,-189 246,-167 10,-167"/>
<text text-anchor="start" x="30" y="-175.2" font-family="Helvetica,sans-Serif" font-size="11.00">abbr_en</text>
<polygon fill="none" stroke="black" points="246,-167 246,-189 316,-189 316,-167 246,-167"/>
<text text-anchor="start" x="249" y="-175.2" font-family="Helvetica,sans-Serif" font-size="11.00">varchar[3]</text>
<polygon fill="none" stroke="black" points="10,-145 10,-167 246,-167 246,-145 10,-145"/>
<text text-anchor="start" x="30" y="-153.2" font-family="Helvetica,sans-Serif" font-size="11.00">abbr_de</text>
<polygon fill="none" stroke="black" points="246,-145 246,-167 316,-167 316,-145 246,-145"/>
<text text-anchor="start" x="249" y="-153.2" font-family="Helvetica,sans-Serif" font-size="11.00">varchar[3]</text>
<polygon fill="none" stroke="black" points="10,-123 10,-145 246,-145 246,-123 10,-123"/>
<text text-anchor="start" x="30" y="-131.2" font-family="Helvetica,sans-Serif" font-size="11.00">abbr_fr</text>
<polygon fill="none" stroke="black" points="246,-123 246,-145 316,-145 316,-123 246,-123"/>
<text text-anchor="start" x="249" y="-131.2" font-family="Helvetica,sans-Serif" font-size="11.00">varchar[3]</text>
<polygon fill="none" stroke="black" points="10,-101 10,-123 246,-123 246,-101 10,-101"/>
<text text-anchor="start" x="30" y="-109.2" font-family="Helvetica,sans-Serif" font-size="11.00">abbr_it</text>
<polygon fill="none" stroke="black" points="246,-101 246,-123 316,-123 316,-101 246,-101"/>
<text text-anchor="start" x="249" y="-109.2" font-family="Helvetica,sans-Serif" font-size="11.00">varchar[3]</text>
<polygon fill="none" stroke="black" points="10,-79 10,-101 246,-101 246,-79 10,-79"/>
<text text-anchor="start" x="30" y="-87.2" font-family="Helvetica,sans-Serif" font-size="11.00">abbr_ro</text>
<polygon fill="none" stroke="black" points="246,-79 246,-101 316,-101 316,-79 246,-79"/>
<text text-anchor="start" x="249" y="-87.2" font-family="Helvetica,sans-Serif" font-size="11.00">varchar[3]</text>
<polygon fill="none" stroke="black" points="10,-57 10,-79 246,-79 246,-57 10,-57"/>
<text text-anchor="start" x="30" y="-65.2" font-family="Helvetica,sans-Serif" font-size="11.00">active</text>
<polygon fill="none" stroke="black" points="246,-57 246,-79 316,-79 316,-57 246,-57"/>
<text text-anchor="start" x="249" y="-65.2" font-family="Helvetica,sans-Serif" font-size="11.00">bool[1]</text>
<polygon fill="#ffffff" stroke="transparent" points="10,-39 10,-57 132,-57 132,-39 10,-39"/>
<polygon fill="none" stroke="black" points="10,-39 10,-57 132,-57 132,-39 10,-39"/>
<text text-anchor="start" x="13" y="-45.2" font-family="Helvetica,sans-Serif" font-size="11.00">&lt; 0</text>
<polygon fill="#ffffff" stroke="transparent" points="132,-39 132,-57 246,-57 246,-39 132,-39"/>
<polygon fill="none" stroke="black" points="132,-39 132,-57 246,-57 246,-39 132,-39"/>
<text text-anchor="start" x="236" y="-45.2" font-family="Helvetica,sans-Serif" font-size="11.00"> &#160;</text>
<polygon fill="#ffffff" stroke="transparent" points="246,-39 246,-57 316,-57 316,-39 246,-39"/>
<polygon fill="none" stroke="black" points="246,-39 246,-57 316,-57 316,-39 246,-39"/>
<text text-anchor="start" x="297" y="-45.2" font-family="Helvetica,sans-Serif" font-size="11.00">1 &gt;</text>
<polygon fill="none" stroke="black" stroke-width="2" points="9,-38 9,-366 317,-366 317,-38 9,-38"/>
</a>
</g>
</g>
<!-- tdh_od.trench_point&#45;&gt;trench_point_horizontal_positioning -->
<g id="edge1" class="edge">
<title>tdh_od.trench_point:w&#45;&gt;trench_point_horizontal_positioning:e</title>
<path fill="none" stroke="black" d="M351.49,-332C340.18,-332 332.99,-332 317,-332"/>
<polygon fill="black" stroke="black" points="358,-332 366,-335.6 362,-332 366,-332 366,-332 366,-332 362,-332 366,-328.4 358,-332 358,-332"/>
<ellipse fill="none" stroke="black" cx="354.8" cy="-332" rx="3.2" ry="3.2"/>
</g>
</g>
</svg>
