<?xml version="1.0" encoding="UTF-8" standalone="no"?>
<!DOCTYPE svg PUBLIC "-//W3C//DTD SVG 1.1//EN"
 "http://www.w3.org/Graphics/SVG/1.1/DTD/svg11.dtd">
<!-- Generated by graphviz version 2.43.0 (0)
 -->
<!-- Title: oneDegreeRelationshipsDiagram Pages: 1 -->
<svg width="544pt" height="487pt"
 viewBox="0.00 0.00 544.00 487.00" xmlns="http://www.w3.org/2000/svg" xmlns:xlink="http://www.w3.org/1999/xlink">
<g id="graph0" class="graph" transform="scale(1 1) rotate(0) translate(4 483)">
<title>oneDegreeRelationshipsDiagram</title>
<polygon fill="#ffffff" stroke="transparent" points="-4,4 -4,-483 540,-483 540,4 -4,4"/>
<text text-anchor="middle" x="79.5" y="-7.2" font-family="Helvetica,sans-Serif" font-size="11.00">Generated by SchemaSpy</text>
<!-- tdh_od.trench -->
<g id="node1" class="node">
<title>tdh_od.trench</title>
<g id="a_node1"><a xlink:href="../../../tdh_od/tables/trench.html" xlink:title="tdh_od.trench" target="_top">
<polygon fill="#ffffff" stroke="transparent" points="322,-285 322,-475 528,-475 528,-285 322,-285"/>
<polygon fill="#f5f5f5" stroke="transparent" points="322,-453 322,-475 528,-475 528,-453 322,-453"/>
<polygon fill="none" stroke="black" points="322,-453 322,-475 528,-475 528,-453 322,-453"/>
<text text-anchor="start" x="327" y="-462.2" font-family="Helvetica,sans-Serif" font-weight="bold" font-size="11.00">tdh_od.trench</text>
<text text-anchor="start" x="486" y="-461.2" font-family="Helvetica,sans-Serif" font-size="11.00">[table]</text>
<polygon fill="none" stroke="black" points="322,-431 322,-453 528,-453 528,-431 322,-431"/>
<image xlink:href="../../images/foreignKeys.png" width="11px" height="12px" preserveAspectRatio="xMinYMin meet" x="327" y="-448"/>
<text text-anchor="start" x="342" y="-439.2" font-family="Helvetica,sans-Serif" font-size="11.00">horizontal_positioning</text>
<polygon fill="none" stroke="black" points="322,-409 322,-431 528,-431 528,-409 322,-409"/>
<image xlink:href="../../images/foreignKeys.png" width="11px" height="12px" preserveAspectRatio="xMinYMin meet" x="327" y="-426"/>
<text text-anchor="start" x="342" y="-417.2" font-family="Helvetica,sans-Serif" font-size="11.00">status</text>
<polygon fill="none" stroke="black" points="322,-387 322,-409 528,-409 528,-387 322,-387"/>
<image xlink:href="../../images/foreignKeys.png" width="11px" height="12px" preserveAspectRatio="xMinYMin meet" x="327" y="-404"/>
<text text-anchor="start" x="342" y="-395.2" font-family="Helvetica,sans-Serif" font-size="11.00">trench_type</text>
<polygon fill="none" stroke="black" points="322,-365 322,-387 528,-387 528,-365 322,-365"/>
<image xlink:href="../../images/foreignKeys.png" width="11px" height="12px" preserveAspectRatio="xMinYMin meet" x="327" y="-382"/>
<text text-anchor="start" x="342" y="-373.2" font-family="Helvetica,sans-Serif" font-size="11.00">embedding</text>
<polygon fill="none" stroke="black" points="322,-343 322,-365 528,-365 528,-343 322,-343"/>
<image xlink:href="../../images/foreignKeys.png" width="11px" height="12px" preserveAspectRatio="xMinYMin meet" x="327" y="-360"/>
<text text-anchor="start" x="342" y="-351.2" font-family="Helvetica,sans-Serif" font-size="11.00">control_system</text>
<polygon fill="none" stroke="black" points="322,-321 322,-343 528,-343 528,-321 322,-321"/>
<image xlink:href="../../images/foreignKeys.png" width="11px" height="12px" preserveAspectRatio="xMinYMin meet" x="327" y="-338"/>
<text text-anchor="start" x="342" y="-329.2" font-family="Helvetica,sans-Serif" font-size="11.00">cable_conduits</text>
<polygon fill="none" stroke="black" points="322,-303 322,-321 528,-321 528,-303 322,-303"/>
<text text-anchor="start" x="325" y="-309.2" font-family="Helvetica,sans-Serif" font-size="11.00">...</text>
<polygon fill="#ffffff" stroke="transparent" points="322,-285 322,-303 528,-303 528,-285 322,-285"/>
<polygon fill="none" stroke="black" points="322,-285 322,-303 528,-303 528,-285 322,-285"/>
<polygon fill="#ffffff" stroke="transparent" points="323,-286 323,-302 390,-302 390,-286 323,-286"/>
<text text-anchor="start" x="325" y="-291.2" font-family="Helvetica,sans-Serif" font-size="11.00">&lt; 6</text>
<polygon fill="#ffffff" stroke="transparent" points="390,-286 390,-302 473,-302 473,-286 390,-286"/>
<text text-anchor="start" x="413" y="-291.2" font-family="Helvetica,sans-Serif" font-size="11.00">0 rows</text>
<polygon fill="#ffffff" stroke="transparent" points="473,-286 473,-302 527,-302 527,-286 473,-286"/>
<text text-anchor="start" x="517" y="-291.2" font-family="Helvetica,sans-Serif" font-size="11.00"> &#160;</text>
<polygon fill="black" stroke="black" points="390,-286 390,-302 390,-302 390,-286 390,-286"/>
<polygon fill="black" stroke="black" points="473,-286 473,-302 473,-302 473,-286 473,-286"/>
</a>
</g>
</g>
<!-- trench_cable_conduits -->
<g id="node2" class="node">
<title>trench_cable_conduits</title>
<g id="a_node2"><a xlink:href="../../tables/trench_cable_conduits.html" xlink:title="trench_cable_conduits" target="_top">
<polygon fill="#ffffff" stroke="transparent" points="8,-37 8,-367 273,-367 273,-37 8,-37"/>
<polygon fill="#f5f5f5" stroke="transparent" points="10.5,-343 10.5,-365 271.5,-365 271.5,-343 10.5,-343"/>
<polygon fill="none" stroke="black" points="10.5,-343 10.5,-365 271.5,-365 271.5,-343 10.5,-343"/>
<text text-anchor="start" x="15.5" y="-352.2" font-family="Helvetica,sans-Serif" font-weight="bold" font-size="11.00">trench_cable_conduits</text>
<text text-anchor="start" x="229.5" y="-351.2" font-family="Helvetica,sans-Serif" font-size="11.00">[table]</text>
<polygon fill="none" stroke="black" points="10.5,-321 10.5,-343 193.5,-343 193.5,-321 10.5,-321"/>
<image xlink:href="../../images/primaryKeys.png" width="11px" height="12px" preserveAspectRatio="xMinYMin meet" x="15.5" y="-338"/>
<text text-anchor="start" x="30.5" y="-329.2" font-family="Helvetica,sans-Serif" font-size="11.00">code</text>
<polygon fill="none" stroke="black" points="193.5,-321 193.5,-343 271.5,-343 271.5,-321 193.5,-321"/>
<text text-anchor="start" x="196.5" y="-329.2" font-family="Helvetica,sans-Serif" font-size="11.00">int4[10]</text>
<polygon fill="none" stroke="black" points="10.5,-299 10.5,-321 193.5,-321 193.5,-299 10.5,-299"/>
<text text-anchor="start" x="30.5" y="-307.2" font-family="Helvetica,sans-Serif" font-size="11.00">vsacode</text>
<polygon fill="none" stroke="black" points="193.5,-299 193.5,-321 271.5,-321 271.5,-299 193.5,-299"/>
<text text-anchor="start" x="196.5" y="-307.2" font-family="Helvetica,sans-Serif" font-size="11.00">int4[10]</text>
<polygon fill="none" stroke="black" points="10.5,-277 10.5,-299 193.5,-299 193.5,-277 10.5,-277"/>
<text text-anchor="start" x="30.5" y="-285.2" font-family="Helvetica,sans-Serif" font-size="11.00">value_en</text>
<polygon fill="none" stroke="black" points="193.5,-277 193.5,-299 271.5,-299 271.5,-277 193.5,-277"/>
<text text-anchor="start" x="196.5" y="-285.2" font-family="Helvetica,sans-Serif" font-size="11.00">varchar[100]</text>
<polygon fill="none" stroke="black" points="10.5,-255 10.5,-277 193.5,-277 193.5,-255 10.5,-255"/>
<text text-anchor="start" x="30.5" y="-263.2" font-family="Helvetica,sans-Serif" font-size="11.00">value_de</text>
<polygon fill="none" stroke="black" points="193.5,-255 193.5,-277 271.5,-277 271.5,-255 193.5,-255"/>
<text text-anchor="start" x="196.5" y="-263.2" font-family="Helvetica,sans-Serif" font-size="11.00">varchar[100]</text>
<polygon fill="none" stroke="black" points="10.5,-233 10.5,-255 193.5,-255 193.5,-233 10.5,-233"/>
<text text-anchor="start" x="30.5" y="-241.2" font-family="Helvetica,sans-Serif" font-size="11.00">value_fr</text>
<polygon fill="none" stroke="black" points="193.5,-233 193.5,-255 271.5,-255 271.5,-233 193.5,-233"/>
<text text-anchor="start" x="196.5" y="-241.2" font-family="Helvetica,sans-Serif" font-size="11.00">varchar[100]</text>
<polygon fill="none" stroke="black" points="10.5,-211 10.5,-233 193.5,-233 193.5,-211 10.5,-211"/>
<text text-anchor="start" x="30.5" y="-219.2" font-family="Helvetica,sans-Serif" font-size="11.00">value_it</text>
<polygon fill="none" stroke="black" points="193.5,-211 193.5,-233 271.5,-233 271.5,-211 193.5,-211"/>
<text text-anchor="start" x="196.5" y="-219.2" font-family="Helvetica,sans-Serif" font-size="11.00">varchar[100]</text>
<polygon fill="none" stroke="black" points="10.5,-189 10.5,-211 193.5,-211 193.5,-189 10.5,-189"/>
<text text-anchor="start" x="30.5" y="-197.2" font-family="Helvetica,sans-Serif" font-size="11.00">value_ro</text>
<polygon fill="none" stroke="black" points="193.5,-189 193.5,-211 271.5,-211 271.5,-189 193.5,-189"/>
<text text-anchor="start" x="196.5" y="-197.2" font-family="Helvetica,sans-Serif" font-size="11.00">varchar[100]</text>
<polygon fill="none" stroke="black" points="10.5,-167 10.5,-189 193.5,-189 193.5,-167 10.5,-167"/>
<text text-anchor="start" x="30.5" y="-175.2" font-family="Helvetica,sans-Serif" font-size="11.00">abbr_en</text>
<polygon fill="none" stroke="black" points="193.5,-167 193.5,-189 271.5,-189 271.5,-167 193.5,-167"/>
<text text-anchor="start" x="196.5" y="-175.2" font-family="Helvetica,sans-Serif" font-size="11.00">varchar[3]</text>
<polygon fill="none" stroke="black" points="10.5,-145 10.5,-167 193.5,-167 193.5,-145 10.5,-145"/>
<text text-anchor="start" x="30.5" y="-153.2" font-family="Helvetica,sans-Serif" font-size="11.00">abbr_de</text>
<polygon fill="none" stroke="black" points="193.5,-145 193.5,-167 271.5,-167 271.5,-145 193.5,-145"/>
<text text-anchor="start" x="196.5" y="-153.2" font-family="Helvetica,sans-Serif" font-size="11.00">varchar[3]</text>
<polygon fill="none" stroke="black" points="10.5,-123 10.5,-145 193.5,-145 193.5,-123 10.5,-123"/>
<text text-anchor="start" x="30.5" y="-131.2" font-family="Helvetica,sans-Serif" font-size="11.00">abbr_fr</text>
<polygon fill="none" stroke="black" points="193.5,-123 193.5,-145 271.5,-145 271.5,-123 193.5,-123"/>
<text text-anchor="start" x="196.5" y="-131.2" font-family="Helvetica,sans-Serif" font-size="11.00">varchar[3]</text>
<polygon fill="none" stroke="black" points="10.5,-101 10.5,-123 193.5,-123 193.5,-101 10.5,-101"/>
<text text-anchor="start" x="30.5" y="-109.2" font-family="Helvetica,sans-Serif" font-size="11.00">abbr_it</text>
<polygon fill="none" stroke="black" points="193.5,-101 193.5,-123 271.5,-123 271.5,-101 193.5,-101"/>
<text text-anchor="start" x="196.5" y="-109.2" font-family="Helvetica,sans-Serif" font-size="11.00">varchar[3]</text>
<polygon fill="none" stroke="black" points="10.5,-79 10.5,-101 193.5,-101 193.5,-79 10.5,-79"/>
<text text-anchor="start" x="30.5" y="-87.2" font-family="Helvetica,sans-Serif" font-size="11.00">abbr_ro</text>
<polygon fill="none" stroke="black" points="193.5,-79 193.5,-101 271.5,-101 271.5,-79 193.5,-79"/>
<text text-anchor="start" x="196.5" y="-87.2" font-family="Helvetica,sans-Serif" font-size="11.00">varchar[3]</text>
<polygon fill="none" stroke="black" points="10.5,-57 10.5,-79 193.5,-79 193.5,-57 10.5,-57"/>
<text text-anchor="start" x="30.5" y="-65.2" font-family="Helvetica,sans-Serif" font-size="11.00">active</text>
<polygon fill="none" stroke="black" points="193.5,-57 193.5,-79 271.5,-79 271.5,-57 193.5,-57"/>
<text text-anchor="start" x="196.5" y="-65.2" font-family="Helvetica,sans-Serif" font-size="11.00">bool[1]</text>
<polygon fill="#ffffff" stroke="transparent" points="10.5,-39 10.5,-57 271.5,-57 271.5,-39 10.5,-39"/>
<polygon fill="none" stroke="black" points="10.5,-39 10.5,-57 271.5,-57 271.5,-39 10.5,-39"/>
<polygon fill="#ffffff" stroke="transparent" points="11.5,-40 11.5,-56 102.5,-56 102.5,-40 11.5,-40"/>
<text text-anchor="start" x="13.5" y="-45.2" font-family="Helvetica,sans-Serif" font-size="11.00">&lt; 0</text>
<polygon fill="#ffffff" stroke="transparent" points="102.5,-40 102.5,-56 180.5,-56 180.5,-40 102.5,-40"/>
<text text-anchor="start" x="137.5" y="-45.2" font-family="Helvetica,sans-Serif" font-size="11.00"> &#160;</text>
<polygon fill="#ffffff" stroke="transparent" points="180.5,-40 180.5,-56 270.5,-56 270.5,-40 180.5,-40"/>
<text text-anchor="start" x="248.5" y="-45.2" font-family="Helvetica,sans-Serif" font-size="11.00">1 &gt;</text>
<polygon fill="black" stroke="black" points="102.5,-40 102.5,-56 102.5,-56 102.5,-40 102.5,-40"/>
<polygon fill="black" stroke="black" points="180.5,-40 180.5,-56 180.5,-56 180.5,-40 180.5,-40"/>
<polygon fill="none" stroke="black" stroke-width="2" points="9,-38 9,-366 272,-366 272,-38 9,-38"/>
</a>
</g>
</g>
<!-- tdh_od.trench&#45;&gt;trench_cable_conduits -->
<g id="edge1" class="edge">
<title>tdh_od.trench:w&#45;&gt;trench_cable_conduits:e</title>
<path fill="none" stroke="black" d="M306.28,-332C295.29,-332 288.16,-332 272.5,-332"/>
<polygon fill="black" stroke="black" points="313,-332 321,-335.6 317,-332 321,-332 321,-332 321,-332 317,-332 321,-328.4 313,-332 313,-332"/>
<ellipse fill="none" stroke="black" cx="309.8" cy="-332" rx="3.2" ry="3.2"/>
</g>
</g>
</svg>
