<?xml version="1.0" encoding="UTF-8" standalone="no"?>
<!DOCTYPE svg PUBLIC "-//W3C//DTD SVG 1.1//EN"
 "http://www.w3.org/Graphics/SVG/1.1/DTD/svg11.dtd">
<!-- Generated by graphviz version 2.47.1 (20210515.0534)
 -->
<!-- Title: oneDegreeRelationshipsDiagram Pages: 1 -->
<svg width="477pt" height="465pt"
 viewBox="0.00 0.00 477.00 465.00" xmlns="http://www.w3.org/2000/svg" xmlns:xlink="http://www.w3.org/1999/xlink">
<g id="graph0" class="graph" transform="scale(1 1) rotate(0) translate(4 461)">
<title>oneDegreeRelationshipsDiagram</title>
<polygon fill="#ffffff" stroke="transparent" points="-4,4 -4,-461 473,-461 473,4 -4,4"/>
<text text-anchor="middle" x="73.5" y="-7.2" font-family="Helvetica,sans-Serif" font-size="11.00">Generated by SchemaSpy</text>
<!-- tdh_od.trench -->
<g id="node1" class="node">
<title>tdh_od.trench</title>
<g id="a_node1"><a xlink:href="../../../tdh_od/tables/trench.html" xlink:title="tdh_od.trench" target="_top">
<polygon fill="#ffffff" stroke="transparent" points="287,-263 287,-453 461,-453 461,-263 287,-263"/>
<polygon fill="#f5f5f5" stroke="transparent" points="287,-431 287,-453 461,-453 461,-431 287,-431"/>
<polygon fill="none" stroke="black" points="287,-431 287,-453 461,-453 461,-431 287,-431"/>
<text text-anchor="start" x="292" y="-440.2" font-family="Helvetica,sans-Serif" font-weight="bold" font-size="11.00">tdh_od.trench</text>
<text text-anchor="start" x="422" y="-439.2" font-family="Helvetica,sans-Serif" font-size="11.00">[table]</text>
<polygon fill="none" stroke="black" points="287,-409 287,-431 461,-431 461,-409 287,-409"/>
<image xlink:href="../../images/foreignKeys.png" width="11px" height="12px" preserveAspectRatio="xMinYMin meet" x="292" y="-426"/>
<text text-anchor="start" x="307" y="-417.2" font-family="Helvetica,sans-Serif" font-size="11.00">horizontal_positioning</text>
<polygon fill="none" stroke="black" points="287,-387 287,-409 461,-409 461,-387 287,-387"/>
<image xlink:href="../../images/foreignKeys.png" width="11px" height="12px" preserveAspectRatio="xMinYMin meet" x="292" y="-404"/>
<text text-anchor="start" x="307" y="-395.2" font-family="Helvetica,sans-Serif" font-size="11.00">status</text>
<polygon fill="none" stroke="black" points="287,-365 287,-387 461,-387 461,-365 287,-365"/>
<image xlink:href="../../images/foreignKeys.png" width="11px" height="12px" preserveAspectRatio="xMinYMin meet" x="292" y="-382"/>
<text text-anchor="start" x="307" y="-373.2" font-family="Helvetica,sans-Serif" font-size="11.00">trench_type</text>
<polygon fill="none" stroke="black" points="287,-343 287,-365 461,-365 461,-343 287,-343"/>
<image xlink:href="../../images/foreignKeys.png" width="11px" height="12px" preserveAspectRatio="xMinYMin meet" x="292" y="-360"/>
<text text-anchor="start" x="307" y="-351.2" font-family="Helvetica,sans-Serif" font-size="11.00">embedding</text>
<polygon fill="none" stroke="black" points="287,-321 287,-343 461,-343 461,-321 287,-321"/>
<image xlink:href="../../images/foreignKeys.png" width="11px" height="12px" preserveAspectRatio="xMinYMin meet" x="292" y="-338"/>
<text text-anchor="start" x="307" y="-329.2" font-family="Helvetica,sans-Serif" font-size="11.00">control_system</text>
<polygon fill="none" stroke="black" points="287,-299 287,-321 461,-321 461,-299 287,-299"/>
<image xlink:href="../../images/foreignKeys.png" width="11px" height="12px" preserveAspectRatio="xMinYMin meet" x="292" y="-316"/>
<text text-anchor="start" x="307" y="-307.2" font-family="Helvetica,sans-Serif" font-size="11.00">cable_conduits</text>
<polygon fill="none" stroke="black" points="287,-281 287,-299 461,-299 461,-281 287,-281"/>
<text text-anchor="start" x="290" y="-287.2" font-family="Helvetica,sans-Serif" font-size="11.00">...</text>
<polygon fill="#ffffff" stroke="transparent" points="287,-263 287,-281 358,-281 358,-263 287,-263"/>
<polygon fill="none" stroke="black" points="287,-263 287,-281 358,-281 358,-263 287,-263"/>
<text text-anchor="start" x="290" y="-269.2" font-family="Helvetica,sans-Serif" font-size="11.00">&lt; 6</text>
<polygon fill="#ffffff" stroke="transparent" points="358,-263 358,-281 423,-281 423,-263 358,-263"/>
<polygon fill="none" stroke="black" points="358,-263 358,-281 423,-281 423,-263 358,-263"/>
<text text-anchor="start" x="386" y="-269.2" font-family="Helvetica,sans-Serif" font-size="11.00">0 rows</text>
<polygon fill="#ffffff" stroke="transparent" points="423,-263 423,-281 461,-281 461,-263 423,-263"/>
<polygon fill="none" stroke="black" points="423,-263 423,-281 461,-281 461,-263 423,-263"/>
<text text-anchor="start" x="451" y="-269.2" font-family="Helvetica,sans-Serif" font-size="11.00"> &#160;</text>
</a>
</g>
</g>
<!-- trench_control_system -->
<g id="node2" class="node">
<title>trench_control_system</title>
<g id="a_node2"><a xlink:href="../../tables/trench_control_system.html" xlink:title="trench_control_system" target="_top">
<polygon fill="#ffffff" stroke="transparent" points="8,-37 8,-367 238,-367 238,-37 8,-37"/>
<polygon fill="#f5f5f5" stroke="transparent" points="10,-343 10,-365 236,-365 236,-343 10,-343"/>
<polygon fill="none" stroke="black" points="10,-343 10,-365 236,-365 236,-343 10,-343"/>
<text text-anchor="start" x="15" y="-352.2" font-family="Helvetica,sans-Serif" font-weight="bold" font-size="11.00">trench_control_system</text>
<text text-anchor="start" x="197" y="-351.2" font-family="Helvetica,sans-Serif" font-size="11.00">[table]</text>
<polygon fill="none" stroke="black" points="10,-321 10,-343 166,-343 166,-321 10,-321"/>
<image xlink:href="../../images/primaryKeys.png" width="11px" height="12px" preserveAspectRatio="xMinYMin meet" x="15" y="-338"/>
<text text-anchor="start" x="30" y="-329.2" font-family="Helvetica,sans-Serif" font-size="11.00">code</text>
<polygon fill="none" stroke="black" points="166,-321 166,-343 236,-343 236,-321 166,-321"/>
<text text-anchor="start" x="169" y="-329.2" font-family="Helvetica,sans-Serif" font-size="11.00">int4[10]</text>
<polygon fill="none" stroke="black" points="10,-299 10,-321 166,-321 166,-299 10,-299"/>
<text text-anchor="start" x="30" y="-307.2" font-family="Helvetica,sans-Serif" font-size="11.00">vsacode</text>
<polygon fill="none" stroke="black" points="166,-299 166,-321 236,-321 236,-299 166,-299"/>
<text text-anchor="start" x="169" y="-307.2" font-family="Helvetica,sans-Serif" font-size="11.00">int4[10]</text>
<polygon fill="none" stroke="black" points="10,-277 10,-299 166,-299 166,-277 10,-277"/>
<text text-anchor="start" x="30" y="-285.2" font-family="Helvetica,sans-Serif" font-size="11.00">value_en</text>
<polygon fill="none" stroke="black" points="166,-277 166,-299 236,-299 236,-277 166,-277"/>
<text text-anchor="start" x="169" y="-285.2" font-family="Helvetica,sans-Serif" font-size="11.00">varchar[100]</text>
<polygon fill="none" stroke="black" points="10,-255 10,-277 166,-277 166,-255 10,-255"/>
<text text-anchor="start" x="30" y="-263.2" font-family="Helvetica,sans-Serif" font-size="11.00">value_de</text>
<polygon fill="none" stroke="black" points="166,-255 166,-277 236,-277 236,-255 166,-255"/>
<text text-anchor="start" x="169" y="-263.2" font-family="Helvetica,sans-Serif" font-size="11.00">varchar[100]</text>
<polygon fill="none" stroke="black" points="10,-233 10,-255 166,-255 166,-233 10,-233"/>
<text text-anchor="start" x="30" y="-241.2" font-family="Helvetica,sans-Serif" font-size="11.00">value_fr</text>
<polygon fill="none" stroke="black" points="166,-233 166,-255 236,-255 236,-233 166,-233"/>
<text text-anchor="start" x="169" y="-241.2" font-family="Helvetica,sans-Serif" font-size="11.00">varchar[100]</text>
<polygon fill="none" stroke="black" points="10,-211 10,-233 166,-233 166,-211 10,-211"/>
<text text-anchor="start" x="30" y="-219.2" font-family="Helvetica,sans-Serif" font-size="11.00">value_it</text>
<polygon fill="none" stroke="black" points="166,-211 166,-233 236,-233 236,-211 166,-211"/>
<text text-anchor="start" x="169" y="-219.2" font-family="Helvetica,sans-Serif" font-size="11.00">varchar[100]</text>
<polygon fill="none" stroke="black" points="10,-189 10,-211 166,-211 166,-189 10,-189"/>
<text text-anchor="start" x="30" y="-197.2" font-family="Helvetica,sans-Serif" font-size="11.00">value_ro</text>
<polygon fill="none" stroke="black" points="166,-189 166,-211 236,-211 236,-189 166,-189"/>
<text text-anchor="start" x="169" y="-197.2" font-family="Helvetica,sans-Serif" font-size="11.00">varchar[100]</text>
<polygon fill="none" stroke="black" points="10,-167 10,-189 166,-189 166,-167 10,-167"/>
<text text-anchor="start" x="30" y="-175.2" font-family="Helvetica,sans-Serif" font-size="11.00">abbr_en</text>
<polygon fill="none" stroke="black" points="166,-167 166,-189 236,-189 236,-167 166,-167"/>
<text text-anchor="start" x="169" y="-175.2" font-family="Helvetica,sans-Serif" font-size="11.00">varchar[3]</text>
<polygon fill="none" stroke="black" points="10,-145 10,-167 166,-167 166,-145 10,-145"/>
<text text-anchor="start" x="30" y="-153.2" font-family="Helvetica,sans-Serif" font-size="11.00">abbr_de</text>
<polygon fill="none" stroke="black" points="166,-145 166,-167 236,-167 236,-145 166,-145"/>
<text text-anchor="start" x="169" y="-153.2" font-family="Helvetica,sans-Serif" font-size="11.00">varchar[3]</text>
<polygon fill="none" stroke="black" points="10,-123 10,-145 166,-145 166,-123 10,-123"/>
<text text-anchor="start" x="30" y="-131.2" font-family="Helvetica,sans-Serif" font-size="11.00">abbr_fr</text>
<polygon fill="none" stroke="black" points="166,-123 166,-145 236,-145 236,-123 166,-123"/>
<text text-anchor="start" x="169" y="-131.2" font-family="Helvetica,sans-Serif" font-size="11.00">varchar[3]</text>
<polygon fill="none" stroke="black" points="10,-101 10,-123 166,-123 166,-101 10,-101"/>
<text text-anchor="start" x="30" y="-109.2" font-family="Helvetica,sans-Serif" font-size="11.00">abbr_it</text>
<polygon fill="none" stroke="black" points="166,-101 166,-123 236,-123 236,-101 166,-101"/>
<text text-anchor="start" x="169" y="-109.2" font-family="Helvetica,sans-Serif" font-size="11.00">varchar[3]</text>
<polygon fill="none" stroke="black" points="10,-79 10,-101 166,-101 166,-79 10,-79"/>
<text text-anchor="start" x="30" y="-87.2" font-family="Helvetica,sans-Serif" font-size="11.00">abbr_ro</text>
<polygon fill="none" stroke="black" points="166,-79 166,-101 236,-101 236,-79 166,-79"/>
<text text-anchor="start" x="169" y="-87.2" font-family="Helvetica,sans-Serif" font-size="11.00">varchar[3]</text>
<polygon fill="none" stroke="black" points="10,-57 10,-79 166,-79 166,-57 10,-57"/>
<text text-anchor="start" x="30" y="-65.2" font-family="Helvetica,sans-Serif" font-size="11.00">active</text>
<polygon fill="none" stroke="black" points="166,-57 166,-79 236,-79 236,-57 166,-57"/>
<text text-anchor="start" x="169" y="-65.2" font-family="Helvetica,sans-Serif" font-size="11.00">bool[1]</text>
<polygon fill="#ffffff" stroke="transparent" points="10,-39 10,-57 92,-57 92,-39 10,-39"/>
<polygon fill="none" stroke="black" points="10,-39 10,-57 92,-57 92,-39 10,-39"/>
<text text-anchor="start" x="13" y="-45.2" font-family="Helvetica,sans-Serif" font-size="11.00">&lt; 0</text>
<polygon fill="#ffffff" stroke="transparent" points="92,-39 92,-57 166,-57 166,-39 92,-39"/>
<polygon fill="none" stroke="black" points="92,-39 92,-57 166,-57 166,-39 92,-39"/>
<text text-anchor="start" x="156" y="-45.2" font-family="Helvetica,sans-Serif" font-size="11.00"> &#160;</text>
<polygon fill="#ffffff" stroke="transparent" points="166,-39 166,-57 236,-57 236,-39 166,-39"/>
<polygon fill="none" stroke="black" points="166,-39 166,-57 236,-57 236,-39 166,-39"/>
<text text-anchor="start" x="217" y="-45.2" font-family="Helvetica,sans-Serif" font-size="11.00">1 &gt;</text>
<polygon fill="none" stroke="black" stroke-width="2" points="9,-38 9,-366 237,-366 237,-38 9,-38"/>
</a>
</g>
</g>
<!-- tdh_od.trench&#45;&gt;trench_control_system -->
<g id="edge1" class="edge">
<title>tdh_od.trench:w&#45;&gt;trench_control_system:e</title>
<path fill="none" stroke="black" d="M271.49,-332C260.18,-332 252.99,-332 237,-332"/>
<polygon fill="black" stroke="black" points="278,-332 286,-335.6 282,-332 286,-332 286,-332 286,-332 282,-332 286,-328.4 278,-332 278,-332"/>
<ellipse fill="none" stroke="black" cx="274.8" cy="-332" rx="3.2" ry="3.2"/>
</g>
</g>
</svg>
