<?xml version="1.0" encoding="UTF-8" standalone="no"?>
<!DOCTYPE svg PUBLIC "-//W3C//DTD SVG 1.1//EN"
 "http://www.w3.org/Graphics/SVG/1.1/DTD/svg11.dtd">
<!-- Generated by graphviz version 2.47.1 (20210515.0534)
 -->
<!-- Title: oneDegreeRelationshipsDiagram Pages: 1 -->
<svg width="567pt" height="421pt"
 viewBox="0.00 0.00 567.00 421.00" xmlns="http://www.w3.org/2000/svg" xmlns:xlink="http://www.w3.org/1999/xlink">
<g id="graph0" class="graph" transform="scale(1 1) rotate(0) translate(4 417)">
<title>oneDegreeRelationshipsDiagram</title>
<polygon fill="#ffffff" stroke="transparent" points="-4,4 -4,-417 563,-417 563,4 -4,4"/>
<text text-anchor="middle" x="73.5" y="-7.2" font-family="Helvetica,sans-Serif" font-size="11.00">Generated by SchemaSpy</text>
<!-- tdh_od.trench_point -->
<g id="node1" class="node">
<title>tdh_od.trench_point</title>
<g id="a_node1"><a xlink:href="../../../tdh_od/tables/trench_point.html" xlink:title="tdh_od.trench_point" target="_top">
<polygon fill="#ffffff" stroke="transparent" points="381,-285 381,-409 551,-409 551,-285 381,-285"/>
<polygon fill="#f5f5f5" stroke="transparent" points="381,-387 381,-409 551,-409 551,-387 381,-387"/>
<polygon fill="none" stroke="black" points="381,-387 381,-409 551,-409 551,-387 381,-387"/>
<text text-anchor="start" x="386" y="-396.2" font-family="Helvetica,sans-Serif" font-weight="bold" font-size="11.00">tdh_od.trench_point</text>
<text text-anchor="start" x="512" y="-395.2" font-family="Helvetica,sans-Serif" font-size="11.00">[table]</text>
<polygon fill="none" stroke="black" points="381,-365 381,-387 551,-387 551,-365 381,-365"/>
<image xlink:href="../../images/foreignKeys.png" width="11px" height="12px" preserveAspectRatio="xMinYMin meet" x="386" y="-382"/>
<text text-anchor="start" x="401" y="-373.2" font-family="Helvetica,sans-Serif" font-size="11.00">horizontal_positioning</text>
<polygon fill="none" stroke="black" points="381,-343 381,-365 551,-365 551,-343 381,-343"/>
<image xlink:href="../../images/foreignKeys.png" width="11px" height="12px" preserveAspectRatio="xMinYMin meet" x="386" y="-360"/>
<text text-anchor="start" x="401" y="-351.2" font-family="Helvetica,sans-Serif" font-size="11.00">kind</text>
<polygon fill="none" stroke="black" points="381,-321 381,-343 551,-343 551,-321 381,-321"/>
<image xlink:href="../../images/foreignKeys.png" width="11px" height="12px" preserveAspectRatio="xMinYMin meet" x="386" y="-338"/>
<text text-anchor="start" x="401" y="-329.2" font-family="Helvetica,sans-Serif" font-size="11.00">elevation_determination</text>
<polygon fill="none" stroke="black" points="381,-303 381,-321 551,-321 551,-303 381,-303"/>
<text text-anchor="start" x="384" y="-309.2" font-family="Helvetica,sans-Serif" font-size="11.00">...</text>
<polygon fill="#ffffff" stroke="transparent" points="381,-285 381,-303 450,-303 450,-285 381,-285"/>
<polygon fill="none" stroke="black" points="381,-285 381,-303 450,-303 450,-285 381,-285"/>
<text text-anchor="start" x="384" y="-291.2" font-family="Helvetica,sans-Serif" font-size="11.00">&lt; 3</text>
<polygon fill="#ffffff" stroke="transparent" points="450,-285 450,-303 514,-303 514,-285 450,-285"/>
<polygon fill="none" stroke="black" points="450,-285 450,-303 514,-303 514,-285 450,-285"/>
<text text-anchor="start" x="477" y="-291.2" font-family="Helvetica,sans-Serif" font-size="11.00">0 rows</text>
<polygon fill="#ffffff" stroke="transparent" points="514,-285 514,-303 551,-303 551,-285 514,-285"/>
<polygon fill="none" stroke="black" points="514,-285 514,-303 551,-303 551,-285 514,-285"/>
<text text-anchor="start" x="541" y="-291.2" font-family="Helvetica,sans-Serif" font-size="11.00"> &#160;</text>
</a>
</g>
</g>
<!-- trench_point_elevation_determination -->
<g id="node2" class="node">
<title>trench_point_elevation_determination</title>
<g id="a_node2"><a xlink:href="../../tables/trench_point_elevation_determination.html" xlink:title="trench_point_elevation_determination" target="_top">
<polygon fill="#ffffff" stroke="transparent" points="8,-37 8,-367 332,-367 332,-37 8,-37"/>
<polygon fill="#f5f5f5" stroke="transparent" points="10,-343 10,-365 330,-365 330,-343 10,-343"/>
<polygon fill="none" stroke="black" points="10,-343 10,-365 330,-365 330,-343 10,-343"/>
<text text-anchor="start" x="15" y="-352.2" font-family="Helvetica,sans-Serif" font-weight="bold" font-size="11.00">trench_point_elevation_determination</text>
<text text-anchor="start" x="291" y="-351.2" font-family="Helvetica,sans-Serif" font-size="11.00">[table]</text>
<polygon fill="none" stroke="black" points="10,-321 10,-343 260,-343 260,-321 10,-321"/>
<image xlink:href="../../images/primaryKeys.png" width="11px" height="12px" preserveAspectRatio="xMinYMin meet" x="15" y="-338"/>
<text text-anchor="start" x="30" y="-329.2" font-family="Helvetica,sans-Serif" font-size="11.00">code</text>
<polygon fill="none" stroke="black" points="260,-321 260,-343 330,-343 330,-321 260,-321"/>
<text text-anchor="start" x="263" y="-329.2" font-family="Helvetica,sans-Serif" font-size="11.00">int4[10]</text>
<polygon fill="none" stroke="black" points="10,-299 10,-321 260,-321 260,-299 10,-299"/>
<text text-anchor="start" x="30" y="-307.2" font-family="Helvetica,sans-Serif" font-size="11.00">vsacode</text>
<polygon fill="none" stroke="black" points="260,-299 260,-321 330,-321 330,-299 260,-299"/>
<text text-anchor="start" x="263" y="-307.2" font-family="Helvetica,sans-Serif" font-size="11.00">int4[10]</text>
<polygon fill="none" stroke="black" points="10,-277 10,-299 260,-299 260,-277 10,-277"/>
<text text-anchor="start" x="30" y="-285.2" font-family="Helvetica,sans-Serif" font-size="11.00">value_en</text>
<polygon fill="none" stroke="black" points="260,-277 260,-299 330,-299 330,-277 260,-277"/>
<text text-anchor="start" x="263" y="-285.2" font-family="Helvetica,sans-Serif" font-size="11.00">varchar[100]</text>
<polygon fill="none" stroke="black" points="10,-255 10,-277 260,-277 260,-255 10,-255"/>
<text text-anchor="start" x="30" y="-263.2" font-family="Helvetica,sans-Serif" font-size="11.00">value_de</text>
<polygon fill="none" stroke="black" points="260,-255 260,-277 330,-277 330,-255 260,-255"/>
<text text-anchor="start" x="263" y="-263.2" font-family="Helvetica,sans-Serif" font-size="11.00">varchar[100]</text>
<polygon fill="none" stroke="black" points="10,-233 10,-255 260,-255 260,-233 10,-233"/>
<text text-anchor="start" x="30" y="-241.2" font-family="Helvetica,sans-Serif" font-size="11.00">value_fr</text>
<polygon fill="none" stroke="black" points="260,-233 260,-255 330,-255 330,-233 260,-233"/>
<text text-anchor="start" x="263" y="-241.2" font-family="Helvetica,sans-Serif" font-size="11.00">varchar[100]</text>
<polygon fill="none" stroke="black" points="10,-211 10,-233 260,-233 260,-211 10,-211"/>
<text text-anchor="start" x="30" y="-219.2" font-family="Helvetica,sans-Serif" font-size="11.00">value_it</text>
<polygon fill="none" stroke="black" points="260,-211 260,-233 330,-233 330,-211 260,-211"/>
<text text-anchor="start" x="263" y="-219.2" font-family="Helvetica,sans-Serif" font-size="11.00">varchar[100]</text>
<polygon fill="none" stroke="black" points="10,-189 10,-211 260,-211 260,-189 10,-189"/>
<text text-anchor="start" x="30" y="-197.2" font-family="Helvetica,sans-Serif" font-size="11.00">value_ro</text>
<polygon fill="none" stroke="black" points="260,-189 260,-211 330,-211 330,-189 260,-189"/>
<text text-anchor="start" x="263" y="-197.2" font-family="Helvetica,sans-Serif" font-size="11.00">varchar[100]</text>
<polygon fill="none" stroke="black" points="10,-167 10,-189 260,-189 260,-167 10,-167"/>
<text text-anchor="start" x="30" y="-175.2" font-family="Helvetica,sans-Serif" font-size="11.00">abbr_en</text>
<polygon fill="none" stroke="black" points="260,-167 260,-189 330,-189 330,-167 260,-167"/>
<text text-anchor="start" x="263" y="-175.2" font-family="Helvetica,sans-Serif" font-size="11.00">varchar[3]</text>
<polygon fill="none" stroke="black" points="10,-145 10,-167 260,-167 260,-145 10,-145"/>
<text text-anchor="start" x="30" y="-153.2" font-family="Helvetica,sans-Serif" font-size="11.00">abbr_de</text>
<polygon fill="none" stroke="black" points="260,-145 260,-167 330,-167 330,-145 260,-145"/>
<text text-anchor="start" x="263" y="-153.2" font-family="Helvetica,sans-Serif" font-size="11.00">varchar[3]</text>
<polygon fill="none" stroke="black" points="10,-123 10,-145 260,-145 260,-123 10,-123"/>
<text text-anchor="start" x="30" y="-131.2" font-family="Helvetica,sans-Serif" font-size="11.00">abbr_fr</text>
<polygon fill="none" stroke="black" points="260,-123 260,-145 330,-145 330,-123 260,-123"/>
<text text-anchor="start" x="263" y="-131.2" font-family="Helvetica,sans-Serif" font-size="11.00">varchar[3]</text>
<polygon fill="none" stroke="black" points="10,-101 10,-123 260,-123 260,-101 10,-101"/>
<text text-anchor="start" x="30" y="-109.2" font-family="Helvetica,sans-Serif" font-size="11.00">abbr_it</text>
<polygon fill="none" stroke="black" points="260,-101 260,-123 330,-123 330,-101 260,-101"/>
<text text-anchor="start" x="263" y="-109.2" font-family="Helvetica,sans-Serif" font-size="11.00">varchar[3]</text>
<polygon fill="none" stroke="black" points="10,-79 10,-101 260,-101 260,-79 10,-79"/>
<text text-anchor="start" x="30" y="-87.2" font-family="Helvetica,sans-Serif" font-size="11.00">abbr_ro</text>
<polygon fill="none" stroke="black" points="260,-79 260,-101 330,-101 330,-79 260,-79"/>
<text text-anchor="start" x="263" y="-87.2" font-family="Helvetica,sans-Serif" font-size="11.00">varchar[3]</text>
<polygon fill="none" stroke="black" points="10,-57 10,-79 260,-79 260,-57 10,-57"/>
<text text-anchor="start" x="30" y="-65.2" font-family="Helvetica,sans-Serif" font-size="11.00">active</text>
<polygon fill="none" stroke="black" points="260,-57 260,-79 330,-79 330,-57 260,-57"/>
<text text-anchor="start" x="263" y="-65.2" font-family="Helvetica,sans-Serif" font-size="11.00">bool[1]</text>
<polygon fill="#ffffff" stroke="transparent" points="10,-39 10,-57 139,-57 139,-39 10,-39"/>
<polygon fill="none" stroke="black" points="10,-39 10,-57 139,-57 139,-39 10,-39"/>
<text text-anchor="start" x="13" y="-45.2" font-family="Helvetica,sans-Serif" font-size="11.00">&lt; 0</text>
<polygon fill="#ffffff" stroke="transparent" points="139,-39 139,-57 260,-57 260,-39 139,-39"/>
<polygon fill="none" stroke="black" points="139,-39 139,-57 260,-57 260,-39 139,-39"/>
<text text-anchor="start" x="250" y="-45.2" font-family="Helvetica,sans-Serif" font-size="11.00"> &#160;</text>
<polygon fill="#ffffff" stroke="transparent" points="260,-39 260,-57 330,-57 330,-39 260,-39"/>
<polygon fill="none" stroke="black" points="260,-39 260,-57 330,-57 330,-39 260,-39"/>
<text text-anchor="start" x="311" y="-45.2" font-family="Helvetica,sans-Serif" font-size="11.00">1 &gt;</text>
<polygon fill="none" stroke="black" stroke-width="2" points="9,-38 9,-366 331,-366 331,-38 9,-38"/>
</a>
</g>
</g>
<!-- tdh_od.trench_point&#45;&gt;trench_point_elevation_determination -->
<g id="edge1" class="edge">
<title>tdh_od.trench_point:w&#45;&gt;trench_point_elevation_determination:e</title>
<path fill="none" stroke="black" d="M365.49,-332C354.18,-332 346.99,-332 331,-332"/>
<polygon fill="black" stroke="black" points="372,-332 380,-335.6 376,-332 380,-332 380,-332 380,-332 376,-332 380,-328.4 372,-332 372,-332"/>
<ellipse fill="none" stroke="black" cx="368.8" cy="-332" rx="3.2" ry="3.2"/>
</g>
</g>
</svg>
