<?xml version="1.0" encoding="UTF-8" standalone="no"?>
<!DOCTYPE svg PUBLIC "-//W3C//DTD SVG 1.1//EN"
 "http://www.w3.org/Graphics/SVG/1.1/DTD/svg11.dtd">
<!-- Generated by graphviz version 2.47.1 (20210515.0534)
 -->
<!-- Title: oneDegreeRelationshipsDiagram Pages: 1 -->
<svg width="424pt" height="399pt"
 viewBox="0.00 0.00 424.00 399.00" xmlns="http://www.w3.org/2000/svg" xmlns:xlink="http://www.w3.org/1999/xlink">
<g id="graph0" class="graph" transform="scale(1 1) rotate(0) translate(4 395)">
<title>oneDegreeRelationshipsDiagram</title>
<polygon fill="#ffffff" stroke="transparent" points="-4,4 -4,-395 420,-395 420,4 -4,4"/>
<text text-anchor="middle" x="73.5" y="-7.2" font-family="Helvetica,sans-Serif" font-size="11.00">Generated by SchemaSpy</text>
<!-- tdh_od.trench -->
<g id="node1" class="node">
<title>tdh_od.trench</title>
<g id="a_node1"><a xlink:href="../../../tdh_od/tables/trench.html" xlink:title="tdh_od.trench" target="_top">
<polygon fill="#ffffff" stroke="transparent" points="234,-197 234,-387 408,-387 408,-197 234,-197"/>
<polygon fill="#f5f5f5" stroke="transparent" points="234,-365 234,-387 408,-387 408,-365 234,-365"/>
<polygon fill="none" stroke="black" points="234,-365 234,-387 408,-387 408,-365 234,-365"/>
<text text-anchor="start" x="239" y="-374.2" font-family="Helvetica,sans-Serif" font-weight="bold" font-size="11.00">tdh_od.trench</text>
<text text-anchor="start" x="369" y="-373.2" font-family="Helvetica,sans-Serif" font-size="11.00">[table]</text>
<polygon fill="none" stroke="black" points="234,-343 234,-365 408,-365 408,-343 234,-343"/>
<image xlink:href="../../images/foreignKeys.png" width="11px" height="12px" preserveAspectRatio="xMinYMin meet" x="239" y="-360"/>
<text text-anchor="start" x="254" y="-351.2" font-family="Helvetica,sans-Serif" font-size="11.00">horizontal_positioning</text>
<polygon fill="none" stroke="black" points="234,-321 234,-343 408,-343 408,-321 234,-321"/>
<image xlink:href="../../images/foreignKeys.png" width="11px" height="12px" preserveAspectRatio="xMinYMin meet" x="239" y="-338"/>
<text text-anchor="start" x="254" y="-329.2" font-family="Helvetica,sans-Serif" font-size="11.00">status</text>
<polygon fill="none" stroke="black" points="234,-299 234,-321 408,-321 408,-299 234,-299"/>
<image xlink:href="../../images/foreignKeys.png" width="11px" height="12px" preserveAspectRatio="xMinYMin meet" x="239" y="-316"/>
<text text-anchor="start" x="254" y="-307.2" font-family="Helvetica,sans-Serif" font-size="11.00">trench_type</text>
<polygon fill="none" stroke="black" points="234,-277 234,-299 408,-299 408,-277 234,-277"/>
<image xlink:href="../../images/foreignKeys.png" width="11px" height="12px" preserveAspectRatio="xMinYMin meet" x="239" y="-294"/>
<text text-anchor="start" x="254" y="-285.2" font-family="Helvetica,sans-Serif" font-size="11.00">embedding</text>
<polygon fill="none" stroke="black" points="234,-255 234,-277 408,-277 408,-255 234,-255"/>
<image xlink:href="../../images/foreignKeys.png" width="11px" height="12px" preserveAspectRatio="xMinYMin meet" x="239" y="-272"/>
<text text-anchor="start" x="254" y="-263.2" font-family="Helvetica,sans-Serif" font-size="11.00">control_system</text>
<polygon fill="none" stroke="black" points="234,-233 234,-255 408,-255 408,-233 234,-233"/>
<image xlink:href="../../images/foreignKeys.png" width="11px" height="12px" preserveAspectRatio="xMinYMin meet" x="239" y="-250"/>
<text text-anchor="start" x="254" y="-241.2" font-family="Helvetica,sans-Serif" font-size="11.00">cable_conduits</text>
<polygon fill="none" stroke="black" points="234,-215 234,-233 408,-233 408,-215 234,-215"/>
<text text-anchor="start" x="237" y="-221.2" font-family="Helvetica,sans-Serif" font-size="11.00">...</text>
<polygon fill="#ffffff" stroke="transparent" points="234,-197 234,-215 305,-215 305,-197 234,-197"/>
<polygon fill="none" stroke="black" points="234,-197 234,-215 305,-215 305,-197 234,-197"/>
<text text-anchor="start" x="237" y="-203.2" font-family="Helvetica,sans-Serif" font-size="11.00">&lt; 6</text>
<polygon fill="#ffffff" stroke="transparent" points="305,-197 305,-215 370,-215 370,-197 305,-197"/>
<polygon fill="none" stroke="black" points="305,-197 305,-215 370,-215 370,-197 305,-197"/>
<text text-anchor="start" x="333" y="-203.2" font-family="Helvetica,sans-Serif" font-size="11.00">0 rows</text>
<polygon fill="#ffffff" stroke="transparent" points="370,-197 370,-215 408,-215 408,-197 370,-197"/>
<polygon fill="none" stroke="black" points="370,-197 370,-215 408,-215 408,-197 370,-197"/>
<text text-anchor="start" x="398" y="-203.2" font-family="Helvetica,sans-Serif" font-size="11.00"> &#160;</text>
</a>
</g>
</g>
<!-- trench_status -->
<g id="node2" class="node">
<title>trench_status</title>
<g id="a_node2"><a xlink:href="../../tables/trench_status.html" xlink:title="trench_status" target="_top">
<polygon fill="#ffffff" stroke="transparent" points="8,-37 8,-367 185,-367 185,-37 8,-37"/>
<polygon fill="#f5f5f5" stroke="transparent" points="10.5,-343 10.5,-365 183.5,-365 183.5,-343 10.5,-343"/>
<polygon fill="none" stroke="black" points="10.5,-343 10.5,-365 183.5,-365 183.5,-343 10.5,-343"/>
<text text-anchor="start" x="15.5" y="-352.2" font-family="Helvetica,sans-Serif" font-weight="bold" font-size="11.00">trench_status</text>
<text text-anchor="start" x="144.5" y="-351.2" font-family="Helvetica,sans-Serif" font-size="11.00">[table]</text>
<polygon fill="none" stroke="black" points="10.5,-321 10.5,-343 113.5,-343 113.5,-321 10.5,-321"/>
<image xlink:href="../../images/primaryKeys.png" width="11px" height="12px" preserveAspectRatio="xMinYMin meet" x="15.5" y="-338"/>
<text text-anchor="start" x="30.5" y="-329.2" font-family="Helvetica,sans-Serif" font-size="11.00">code</text>
<polygon fill="none" stroke="black" points="113.5,-321 113.5,-343 183.5,-343 183.5,-321 113.5,-321"/>
<text text-anchor="start" x="116.5" y="-329.2" font-family="Helvetica,sans-Serif" font-size="11.00">int4[10]</text>
<polygon fill="none" stroke="black" points="10.5,-299 10.5,-321 113.5,-321 113.5,-299 10.5,-299"/>
<text text-anchor="start" x="30.5" y="-307.2" font-family="Helvetica,sans-Serif" font-size="11.00">vsacode</text>
<polygon fill="none" stroke="black" points="113.5,-299 113.5,-321 183.5,-321 183.5,-299 113.5,-299"/>
<text text-anchor="start" x="116.5" y="-307.2" font-family="Helvetica,sans-Serif" font-size="11.00">int4[10]</text>
<polygon fill="none" stroke="black" points="10.5,-277 10.5,-299 113.5,-299 113.5,-277 10.5,-277"/>
<text text-anchor="start" x="30.5" y="-285.2" font-family="Helvetica,sans-Serif" font-size="11.00">value_en</text>
<polygon fill="none" stroke="black" points="113.5,-277 113.5,-299 183.5,-299 183.5,-277 113.5,-277"/>
<text text-anchor="start" x="116.5" y="-285.2" font-family="Helvetica,sans-Serif" font-size="11.00">varchar[100]</text>
<polygon fill="none" stroke="black" points="10.5,-255 10.5,-277 113.5,-277 113.5,-255 10.5,-255"/>
<text text-anchor="start" x="30.5" y="-263.2" font-family="Helvetica,sans-Serif" font-size="11.00">value_de</text>
<polygon fill="none" stroke="black" points="113.5,-255 113.5,-277 183.5,-277 183.5,-255 113.5,-255"/>
<text text-anchor="start" x="116.5" y="-263.2" font-family="Helvetica,sans-Serif" font-size="11.00">varchar[100]</text>
<polygon fill="none" stroke="black" points="10.5,-233 10.5,-255 113.5,-255 113.5,-233 10.5,-233"/>
<text text-anchor="start" x="30.5" y="-241.2" font-family="Helvetica,sans-Serif" font-size="11.00">value_fr</text>
<polygon fill="none" stroke="black" points="113.5,-233 113.5,-255 183.5,-255 183.5,-233 113.5,-233"/>
<text text-anchor="start" x="116.5" y="-241.2" font-family="Helvetica,sans-Serif" font-size="11.00">varchar[100]</text>
<polygon fill="none" stroke="black" points="10.5,-211 10.5,-233 113.5,-233 113.5,-211 10.5,-211"/>
<text text-anchor="start" x="30.5" y="-219.2" font-family="Helvetica,sans-Serif" font-size="11.00">value_it</text>
<polygon fill="none" stroke="black" points="113.5,-211 113.5,-233 183.5,-233 183.5,-211 113.5,-211"/>
<text text-anchor="start" x="116.5" y="-219.2" font-family="Helvetica,sans-Serif" font-size="11.00">varchar[100]</text>
<polygon fill="none" stroke="black" points="10.5,-189 10.5,-211 113.5,-211 113.5,-189 10.5,-189"/>
<text text-anchor="start" x="30.5" y="-197.2" font-family="Helvetica,sans-Serif" font-size="11.00">value_ro</text>
<polygon fill="none" stroke="black" points="113.5,-189 113.5,-211 183.5,-211 183.5,-189 113.5,-189"/>
<text text-anchor="start" x="116.5" y="-197.2" font-family="Helvetica,sans-Serif" font-size="11.00">varchar[100]</text>
<polygon fill="none" stroke="black" points="10.5,-167 10.5,-189 113.5,-189 113.5,-167 10.5,-167"/>
<text text-anchor="start" x="30.5" y="-175.2" font-family="Helvetica,sans-Serif" font-size="11.00">abbr_en</text>
<polygon fill="none" stroke="black" points="113.5,-167 113.5,-189 183.5,-189 183.5,-167 113.5,-167"/>
<text text-anchor="start" x="116.5" y="-175.2" font-family="Helvetica,sans-Serif" font-size="11.00">varchar[3]</text>
<polygon fill="none" stroke="black" points="10.5,-145 10.5,-167 113.5,-167 113.5,-145 10.5,-145"/>
<text text-anchor="start" x="30.5" y="-153.2" font-family="Helvetica,sans-Serif" font-size="11.00">abbr_de</text>
<polygon fill="none" stroke="black" points="113.5,-145 113.5,-167 183.5,-167 183.5,-145 113.5,-145"/>
<text text-anchor="start" x="116.5" y="-153.2" font-family="Helvetica,sans-Serif" font-size="11.00">varchar[3]</text>
<polygon fill="none" stroke="black" points="10.5,-123 10.5,-145 113.5,-145 113.5,-123 10.5,-123"/>
<text text-anchor="start" x="30.5" y="-131.2" font-family="Helvetica,sans-Serif" font-size="11.00">abbr_fr</text>
<polygon fill="none" stroke="black" points="113.5,-123 113.5,-145 183.5,-145 183.5,-123 113.5,-123"/>
<text text-anchor="start" x="116.5" y="-131.2" font-family="Helvetica,sans-Serif" font-size="11.00">varchar[3]</text>
<polygon fill="none" stroke="black" points="10.5,-101 10.5,-123 113.5,-123 113.5,-101 10.5,-101"/>
<text text-anchor="start" x="30.5" y="-109.2" font-family="Helvetica,sans-Serif" font-size="11.00">abbr_it</text>
<polygon fill="none" stroke="black" points="113.5,-101 113.5,-123 183.5,-123 183.5,-101 113.5,-101"/>
<text text-anchor="start" x="116.5" y="-109.2" font-family="Helvetica,sans-Serif" font-size="11.00">varchar[3]</text>
<polygon fill="none" stroke="black" points="10.5,-79 10.5,-101 113.5,-101 113.5,-79 10.5,-79"/>
<text text-anchor="start" x="30.5" y="-87.2" font-family="Helvetica,sans-Serif" font-size="11.00">abbr_ro</text>
<polygon fill="none" stroke="black" points="113.5,-79 113.5,-101 183.5,-101 183.5,-79 113.5,-79"/>
<text text-anchor="start" x="116.5" y="-87.2" font-family="Helvetica,sans-Serif" font-size="11.00">varchar[3]</text>
<polygon fill="none" stroke="black" points="10.5,-57 10.5,-79 113.5,-79 113.5,-57 10.5,-57"/>
<text text-anchor="start" x="30.5" y="-65.2" font-family="Helvetica,sans-Serif" font-size="11.00">active</text>
<polygon fill="none" stroke="black" points="113.5,-57 113.5,-79 183.5,-79 183.5,-57 113.5,-57"/>
<text text-anchor="start" x="116.5" y="-65.2" font-family="Helvetica,sans-Serif" font-size="11.00">bool[1]</text>
<polygon fill="#ffffff" stroke="transparent" points="10.5,-39 10.5,-57 66.5,-57 66.5,-39 10.5,-39"/>
<polygon fill="none" stroke="black" points="10.5,-39 10.5,-57 66.5,-57 66.5,-39 10.5,-39"/>
<text text-anchor="start" x="13.5" y="-45.2" font-family="Helvetica,sans-Serif" font-size="11.00">&lt; 0</text>
<polygon fill="#ffffff" stroke="transparent" points="66.5,-39 66.5,-57 113.5,-57 113.5,-39 66.5,-39"/>
<polygon fill="none" stroke="black" points="66.5,-39 66.5,-57 113.5,-57 113.5,-39 66.5,-39"/>
<text text-anchor="start" x="103.5" y="-45.2" font-family="Helvetica,sans-Serif" font-size="11.00"> &#160;</text>
<polygon fill="#ffffff" stroke="transparent" points="113.5,-39 113.5,-57 183.5,-57 183.5,-39 113.5,-39"/>
<polygon fill="none" stroke="black" points="113.5,-39 113.5,-57 183.5,-57 183.5,-39 113.5,-39"/>
<text text-anchor="start" x="164.5" y="-45.2" font-family="Helvetica,sans-Serif" font-size="11.00">1 &gt;</text>
<polygon fill="none" stroke="black" stroke-width="2" points="9,-38 9,-366 184,-366 184,-38 9,-38"/>
</a>
</g>
</g>
<!-- tdh_od.trench&#45;&gt;trench_status -->
<g id="edge1" class="edge">
<title>tdh_od.trench:w&#45;&gt;trench_status:e</title>
<path fill="none" stroke="black" d="M218.28,-332C207.29,-332 200.16,-332 184.5,-332"/>
<polygon fill="black" stroke="black" points="225,-332 233,-335.6 229,-332 233,-332 233,-332 233,-332 229,-332 233,-328.4 225,-332 225,-332"/>
<ellipse fill="none" stroke="black" cx="221.8" cy="-332" rx="3.2" ry="3.2"/>
</g>
</g>
</svg>
