<?xml version="1.0" encoding="UTF-8" standalone="no"?>
<!DOCTYPE svg PUBLIC "-//W3C//DTD SVG 1.1//EN"
 "http://www.w3.org/Graphics/SVG/1.1/DTD/svg11.dtd">
<!-- Generated by graphviz version 2.43.0 (0)
 -->
<!-- Title: oneDegreeRelationshipsDiagram Pages: 1 -->
<svg width="627pt" height="599pt"
 viewBox="0.00 0.00 627.00 599.00" xmlns="http://www.w3.org/2000/svg" xmlns:xlink="http://www.w3.org/1999/xlink">
<g id="graph0" class="graph" transform="scale(1 1) rotate(0) translate(4 595)">
<title>oneDegreeRelationshipsDiagram</title>
<polygon fill="#ffffff" stroke="transparent" points="-4,4 -4,-595 623,-595 623,4 -4,4"/>
<text text-anchor="middle" x="79.5" y="-7.2" font-family="Helvetica,sans-Serif" font-size="11.00">Generated by SchemaSpy</text>
<!-- tdh_od.trench -->
<g id="node1" class="node">
<title>tdh_od.trench</title>
<g id="a_node1"><a xlink:href="../../../tdh_od/tables/trench.html" xlink:title="tdh_od.trench" target="_top">
<polygon fill="#ffffff" stroke="transparent" points="405,-395 405,-585 611,-585 611,-395 405,-395"/>
<polygon fill="#f5f5f5" stroke="transparent" points="405,-563 405,-585 611,-585 611,-563 405,-563"/>
<polygon fill="none" stroke="black" points="405,-563 405,-585 611,-585 611,-563 405,-563"/>
<text text-anchor="start" x="410" y="-572.2" font-family="Helvetica,sans-Serif" font-weight="bold" font-size="11.00">tdh_od.trench</text>
<text text-anchor="start" x="569" y="-571.2" font-family="Helvetica,sans-Serif" font-size="11.00">[table]</text>
<polygon fill="none" stroke="black" points="405,-541 405,-563 611,-563 611,-541 405,-541"/>
<image xlink:href="../../images/foreignKeys.png" width="11px" height="12px" preserveAspectRatio="xMinYMin meet" x="410" y="-558"/>
<text text-anchor="start" x="425" y="-549.2" font-family="Helvetica,sans-Serif" font-size="11.00">horizontal_positioning</text>
<polygon fill="none" stroke="black" points="405,-519 405,-541 611,-541 611,-519 405,-519"/>
<image xlink:href="../../images/foreignKeys.png" width="11px" height="12px" preserveAspectRatio="xMinYMin meet" x="410" y="-536"/>
<text text-anchor="start" x="425" y="-527.2" font-family="Helvetica,sans-Serif" font-size="11.00">status</text>
<polygon fill="none" stroke="black" points="405,-497 405,-519 611,-519 611,-497 405,-497"/>
<image xlink:href="../../images/foreignKeys.png" width="11px" height="12px" preserveAspectRatio="xMinYMin meet" x="410" y="-514"/>
<text text-anchor="start" x="425" y="-505.2" font-family="Helvetica,sans-Serif" font-size="11.00">trench_type</text>
<polygon fill="none" stroke="black" points="405,-475 405,-497 611,-497 611,-475 405,-475"/>
<image xlink:href="../../images/foreignKeys.png" width="11px" height="12px" preserveAspectRatio="xMinYMin meet" x="410" y="-492"/>
<text text-anchor="start" x="425" y="-483.2" font-family="Helvetica,sans-Serif" font-size="11.00">embedding</text>
<polygon fill="none" stroke="black" points="405,-453 405,-475 611,-475 611,-453 405,-453"/>
<image xlink:href="../../images/foreignKeys.png" width="11px" height="12px" preserveAspectRatio="xMinYMin meet" x="410" y="-470"/>
<text text-anchor="start" x="425" y="-461.2" font-family="Helvetica,sans-Serif" font-size="11.00">control_system</text>
<polygon fill="none" stroke="black" points="405,-431 405,-453 611,-453 611,-431 405,-431"/>
<image xlink:href="../../images/foreignKeys.png" width="11px" height="12px" preserveAspectRatio="xMinYMin meet" x="410" y="-448"/>
<text text-anchor="start" x="425" y="-439.2" font-family="Helvetica,sans-Serif" font-size="11.00">cable_conduits</text>
<polygon fill="none" stroke="black" points="405,-413 405,-431 611,-431 611,-413 405,-413"/>
<text text-anchor="start" x="408" y="-419.2" font-family="Helvetica,sans-Serif" font-size="11.00">...</text>
<polygon fill="#ffffff" stroke="transparent" points="405,-395 405,-413 611,-413 611,-395 405,-395"/>
<polygon fill="none" stroke="black" points="405,-395 405,-413 611,-413 611,-395 405,-395"/>
<polygon fill="#ffffff" stroke="transparent" points="406,-396 406,-412 473,-412 473,-396 406,-396"/>
<text text-anchor="start" x="408" y="-401.2" font-family="Helvetica,sans-Serif" font-size="11.00">&lt; 6</text>
<polygon fill="#ffffff" stroke="transparent" points="473,-396 473,-412 556,-412 556,-396 473,-396"/>
<text text-anchor="start" x="496" y="-401.2" font-family="Helvetica,sans-Serif" font-size="11.00">0 rows</text>
<polygon fill="#ffffff" stroke="transparent" points="556,-396 556,-412 610,-412 610,-396 556,-396"/>
<text text-anchor="start" x="600" y="-401.2" font-family="Helvetica,sans-Serif" font-size="11.00"> &#160;</text>
<polygon fill="black" stroke="black" points="473,-396 473,-412 473,-412 473,-396 473,-396"/>
<polygon fill="black" stroke="black" points="556,-396 556,-412 556,-412 556,-396 556,-396"/>
</a>
</g>
</g>
<!-- trench_horizontal_positioning -->
<g id="node2" class="node">
<title>trench_horizontal_positioning</title>
<g id="a_node2"><a xlink:href="../../tables/trench_horizontal_positioning.html" xlink:title="trench_horizontal_positioning" target="_top">
<polygon fill="#ffffff" stroke="transparent" points="8,-37 8,-587 356,-587 356,-37 8,-37"/>
<polygon fill="#f5f5f5" stroke="transparent" points="10,-563 10,-585 354,-585 354,-563 10,-563"/>
<polygon fill="none" stroke="black" points="10,-563 10,-585 354,-585 354,-563 10,-563"/>
<text text-anchor="start" x="15" y="-572.2" font-family="Helvetica,sans-Serif" font-weight="bold" font-size="11.00">trench_horizontal_positioning</text>
<text text-anchor="start" x="312" y="-571.2" font-family="Helvetica,sans-Serif" font-size="11.00">[table]</text>
<polygon fill="none" stroke="black" points="10,-541 10,-563 248,-563 248,-541 10,-541"/>
<image xlink:href="../../images/primaryKeys.png" width="11px" height="12px" preserveAspectRatio="xMinYMin meet" x="15" y="-558"/>
<text text-anchor="start" x="30" y="-549.2" font-family="Helvetica,sans-Serif" font-size="11.00">code</text>
<polygon fill="none" stroke="black" points="248,-541 248,-563 354,-563 354,-541 248,-541"/>
<text text-anchor="start" x="251" y="-549.2" font-family="Helvetica,sans-Serif" font-size="11.00">int4[10]</text>
<polygon fill="none" stroke="black" points="10,-519 10,-541 248,-541 248,-519 10,-519"/>
<text text-anchor="start" x="30" y="-527.2" font-family="Helvetica,sans-Serif" font-size="11.00">vsacode</text>
<polygon fill="none" stroke="black" points="248,-519 248,-541 354,-541 354,-519 248,-519"/>
<text text-anchor="start" x="251" y="-527.2" font-family="Helvetica,sans-Serif" font-size="11.00">int4[10]</text>
<polygon fill="none" stroke="black" points="10,-497 10,-519 248,-519 248,-497 10,-497"/>
<text text-anchor="start" x="30" y="-505.2" font-family="Helvetica,sans-Serif" font-size="11.00">value_en</text>
<polygon fill="none" stroke="black" points="248,-497 248,-519 354,-519 354,-497 248,-497"/>
<text text-anchor="start" x="251" y="-505.2" font-family="Helvetica,sans-Serif" font-size="11.00">varchar[100]</text>
<polygon fill="none" stroke="black" points="10,-475 10,-497 248,-497 248,-475 10,-475"/>
<text text-anchor="start" x="30" y="-483.2" font-family="Helvetica,sans-Serif" font-size="11.00">value_de</text>
<polygon fill="none" stroke="black" points="248,-475 248,-497 354,-497 354,-475 248,-475"/>
<text text-anchor="start" x="251" y="-483.2" font-family="Helvetica,sans-Serif" font-size="11.00">varchar[100]</text>
<polygon fill="none" stroke="black" points="10,-453 10,-475 248,-475 248,-453 10,-453"/>
<text text-anchor="start" x="30" y="-461.2" font-family="Helvetica,sans-Serif" font-size="11.00">value_fr</text>
<polygon fill="none" stroke="black" points="248,-453 248,-475 354,-475 354,-453 248,-453"/>
<text text-anchor="start" x="251" y="-461.2" font-family="Helvetica,sans-Serif" font-size="11.00">varchar[100]</text>
<polygon fill="none" stroke="black" points="10,-431 10,-453 248,-453 248,-431 10,-431"/>
<text text-anchor="start" x="30" y="-439.2" font-family="Helvetica,sans-Serif" font-size="11.00">value_it</text>
<polygon fill="none" stroke="black" points="248,-431 248,-453 354,-453 354,-431 248,-431"/>
<text text-anchor="start" x="251" y="-439.2" font-family="Helvetica,sans-Serif" font-size="11.00">varchar[100]</text>
<polygon fill="none" stroke="black" points="10,-409 10,-431 248,-431 248,-409 10,-409"/>
<text text-anchor="start" x="30" y="-417.2" font-family="Helvetica,sans-Serif" font-size="11.00">value_ro</text>
<polygon fill="none" stroke="black" points="248,-409 248,-431 354,-431 354,-409 248,-409"/>
<text text-anchor="start" x="251" y="-417.2" font-family="Helvetica,sans-Serif" font-size="11.00">varchar[100]</text>
<polygon fill="none" stroke="black" points="10,-387 10,-409 248,-409 248,-387 10,-387"/>
<text text-anchor="start" x="30" y="-395.2" font-family="Helvetica,sans-Serif" font-size="11.00">abbr_en</text>
<polygon fill="none" stroke="black" points="248,-387 248,-409 354,-409 354,-387 248,-387"/>
<text text-anchor="start" x="251" y="-395.2" font-family="Helvetica,sans-Serif" font-size="11.00">varchar[3]</text>
<polygon fill="none" stroke="black" points="10,-365 10,-387 248,-387 248,-365 10,-365"/>
<text text-anchor="start" x="30" y="-373.2" font-family="Helvetica,sans-Serif" font-size="11.00">abbr_de</text>
<polygon fill="none" stroke="black" points="248,-365 248,-387 354,-387 354,-365 248,-365"/>
<text text-anchor="start" x="251" y="-373.2" font-family="Helvetica,sans-Serif" font-size="11.00">varchar[3]</text>
<polygon fill="none" stroke="black" points="10,-343 10,-365 248,-365 248,-343 10,-343"/>
<text text-anchor="start" x="30" y="-351.2" font-family="Helvetica,sans-Serif" font-size="11.00">abbr_fr</text>
<polygon fill="none" stroke="black" points="248,-343 248,-365 354,-365 354,-343 248,-343"/>
<text text-anchor="start" x="251" y="-351.2" font-family="Helvetica,sans-Serif" font-size="11.00">varchar[3]</text>
<polygon fill="none" stroke="black" points="10,-321 10,-343 248,-343 248,-321 10,-321"/>
<text text-anchor="start" x="30" y="-329.2" font-family="Helvetica,sans-Serif" font-size="11.00">abbr_it</text>
<polygon fill="none" stroke="black" points="248,-321 248,-343 354,-343 354,-321 248,-321"/>
<text text-anchor="start" x="251" y="-329.2" font-family="Helvetica,sans-Serif" font-size="11.00">varchar[3]</text>
<polygon fill="none" stroke="black" points="10,-299 10,-321 248,-321 248,-299 10,-299"/>
<text text-anchor="start" x="30" y="-307.2" font-family="Helvetica,sans-Serif" font-size="11.00">abbr_ro</text>
<polygon fill="none" stroke="black" points="248,-299 248,-321 354,-321 354,-299 248,-299"/>
<text text-anchor="start" x="251" y="-307.2" font-family="Helvetica,sans-Serif" font-size="11.00">varchar[3]</text>
<polygon fill="none" stroke="black" points="10,-277 10,-299 248,-299 248,-277 10,-277"/>
<text text-anchor="start" x="30" y="-285.2" font-family="Helvetica,sans-Serif" font-size="11.00">description_en</text>
<polygon fill="none" stroke="black" points="248,-277 248,-299 354,-299 354,-277 248,-277"/>
<text text-anchor="start" x="251" y="-285.2" font-family="Helvetica,sans-Serif" font-size="11.00">text[2147483647]</text>
<polygon fill="none" stroke="black" points="10,-255 10,-277 248,-277 248,-255 10,-255"/>
<text text-anchor="start" x="30" y="-263.2" font-family="Helvetica,sans-Serif" font-size="11.00">description_de</text>
<polygon fill="none" stroke="black" points="248,-255 248,-277 354,-277 354,-255 248,-255"/>
<text text-anchor="start" x="251" y="-263.2" font-family="Helvetica,sans-Serif" font-size="11.00">text[2147483647]</text>
<polygon fill="none" stroke="black" points="10,-233 10,-255 248,-255 248,-233 10,-233"/>
<text text-anchor="start" x="30" y="-241.2" font-family="Helvetica,sans-Serif" font-size="11.00">description_fr</text>
<polygon fill="none" stroke="black" points="248,-233 248,-255 354,-255 354,-233 248,-233"/>
<text text-anchor="start" x="251" y="-241.2" font-family="Helvetica,sans-Serif" font-size="11.00">text[2147483647]</text>
<polygon fill="none" stroke="black" points="10,-211 10,-233 248,-233 248,-211 10,-211"/>
<text text-anchor="start" x="30" y="-219.2" font-family="Helvetica,sans-Serif" font-size="11.00">description_it</text>
<polygon fill="none" stroke="black" points="248,-211 248,-233 354,-233 354,-211 248,-211"/>
<text text-anchor="start" x="251" y="-219.2" font-family="Helvetica,sans-Serif" font-size="11.00">text[2147483647]</text>
<polygon fill="none" stroke="black" points="10,-189 10,-211 248,-211 248,-189 10,-189"/>
<text text-anchor="start" x="30" y="-197.2" font-family="Helvetica,sans-Serif" font-size="11.00">description_ro</text>
<polygon fill="none" stroke="black" points="248,-189 248,-211 354,-211 354,-189 248,-189"/>
<text text-anchor="start" x="251" y="-197.2" font-family="Helvetica,sans-Serif" font-size="11.00">text[2147483647]</text>
<polygon fill="none" stroke="black" points="10,-167 10,-189 248,-189 248,-167 10,-167"/>
<text text-anchor="start" x="30" y="-175.2" font-family="Helvetica,sans-Serif" font-size="11.00">display_en</text>
<polygon fill="none" stroke="black" points="248,-167 248,-189 354,-189 354,-167 248,-167"/>
<text text-anchor="start" x="251" y="-175.2" font-family="Helvetica,sans-Serif" font-size="11.00">varchar[100]</text>
<polygon fill="none" stroke="black" points="10,-145 10,-167 248,-167 248,-145 10,-145"/>
<text text-anchor="start" x="30" y="-153.2" font-family="Helvetica,sans-Serif" font-size="11.00">display_de</text>
<polygon fill="none" stroke="black" points="248,-145 248,-167 354,-167 354,-145 248,-145"/>
<text text-anchor="start" x="251" y="-153.2" font-family="Helvetica,sans-Serif" font-size="11.00">varchar[100]</text>
<polygon fill="none" stroke="black" points="10,-123 10,-145 248,-145 248,-123 10,-123"/>
<text text-anchor="start" x="30" y="-131.2" font-family="Helvetica,sans-Serif" font-size="11.00">display_fr</text>
<polygon fill="none" stroke="black" points="248,-123 248,-145 354,-145 354,-123 248,-123"/>
<text text-anchor="start" x="251" y="-131.2" font-family="Helvetica,sans-Serif" font-size="11.00">varchar[100]</text>
<polygon fill="none" stroke="black" points="10,-101 10,-123 248,-123 248,-101 10,-101"/>
<text text-anchor="start" x="30" y="-109.2" font-family="Helvetica,sans-Serif" font-size="11.00">display_it</text>
<polygon fill="none" stroke="black" points="248,-101 248,-123 354,-123 354,-101 248,-101"/>
<text text-anchor="start" x="251" y="-109.2" font-family="Helvetica,sans-Serif" font-size="11.00">varchar[100]</text>
<polygon fill="none" stroke="black" points="10,-79 10,-101 248,-101 248,-79 10,-79"/>
<text text-anchor="start" x="30" y="-87.2" font-family="Helvetica,sans-Serif" font-size="11.00">display_ro</text>
<polygon fill="none" stroke="black" points="248,-79 248,-101 354,-101 354,-79 248,-79"/>
<text text-anchor="start" x="251" y="-87.2" font-family="Helvetica,sans-Serif" font-size="11.00">varchar[100]</text>
<polygon fill="none" stroke="black" points="10,-57 10,-79 248,-79 248,-57 10,-57"/>
<text text-anchor="start" x="30" y="-65.2" font-family="Helvetica,sans-Serif" font-size="11.00">active</text>
<polygon fill="none" stroke="black" points="248,-57 248,-79 354,-79 354,-57 248,-57"/>
<text text-anchor="start" x="251" y="-65.2" font-family="Helvetica,sans-Serif" font-size="11.00">bool[1]</text>
<polygon fill="#ffffff" stroke="transparent" points="10,-39 10,-57 354,-57 354,-39 10,-39"/>
<polygon fill="none" stroke="black" points="10,-39 10,-57 354,-57 354,-39 10,-39"/>
<polygon fill="#ffffff" stroke="transparent" points="11,-40 11,-56 129,-56 129,-40 11,-40"/>
<text text-anchor="start" x="13" y="-45.2" font-family="Helvetica,sans-Serif" font-size="11.00">&lt; 0</text>
<polygon fill="#ffffff" stroke="transparent" points="129,-40 129,-56 235,-56 235,-40 129,-40"/>
<text text-anchor="start" x="178" y="-45.2" font-family="Helvetica,sans-Serif" font-size="11.00"> &#160;</text>
<polygon fill="#ffffff" stroke="transparent" points="235,-40 235,-56 353,-56 353,-40 235,-40"/>
<text text-anchor="start" x="331" y="-45.2" font-family="Helvetica,sans-Serif" font-size="11.00">1 &gt;</text>
<polygon fill="black" stroke="black" points="129,-40 129,-56 129,-56 129,-40 129,-40"/>
<polygon fill="black" stroke="black" points="235,-40 235,-56 235,-56 235,-40 235,-40"/>
<polygon fill="none" stroke="black" stroke-width="2" points="9,-38 9,-586 355,-586 355,-38 9,-38"/>
</a>
</g>
</g>
<!-- tdh_od.trench&#45;&gt;trench_horizontal_positioning -->
<g id="edge1" class="edge">
<title>tdh_od.trench:w&#45;&gt;trench_horizontal_positioning:e</title>
<path fill="none" stroke="black" d="M389.49,-552C378.18,-552 370.99,-552 355,-552"/>
<polygon fill="black" stroke="black" points="396,-552 404,-555.6 400,-552 404,-552 404,-552 404,-552 400,-552 404,-548.4 396,-552 396,-552"/>
<ellipse fill="none" stroke="black" cx="392.8" cy="-552" rx="3.2" ry="3.2"/>
</g>
</g>
</svg>
