<?xml version="1.0" encoding="UTF-8" standalone="no"?>
<!DOCTYPE svg PUBLIC "-//W3C//DTD SVG 1.1//EN"
 "http://www.w3.org/Graphics/SVG/1.1/DTD/svg11.dtd">
<!-- Generated by graphviz version 2.47.1 (20210515.0534)
 -->
<!-- Title: oneDegreeRelationshipsDiagram Pages: 1 -->
<svg width="662pt" height="501pt"
 viewBox="0.00 0.00 662.00 501.00" xmlns="http://www.w3.org/2000/svg" xmlns:xlink="http://www.w3.org/1999/xlink">
<g id="graph0" class="graph" transform="scale(1 1) rotate(0) translate(4 497)">
<title>oneDegreeRelationshipsDiagram</title>
<polygon fill="#ffffff" stroke="transparent" points="-4,4 -4,-497 658,-497 658,4 -4,4"/>
<text text-anchor="middle" x="73.5" y="-7.2" font-family="Helvetica,sans-Serif" font-size="11.00">Generated by SchemaSpy</text>
<!-- data_media -->
<g id="node1" class="node">
<title>data_media</title>
<g id="a_node1"><a xlink:href="../../tables/data_media.html" xlink:title="data_media" target="_top">
<polygon fill="#ffffff" stroke="transparent" points="228,-64 228,-232 352,-232 352,-64 228,-64"/>
<polygon fill="#f5f5f5" stroke="transparent" points="228,-210 228,-232 352,-232 352,-210 228,-210"/>
<polygon fill="none" stroke="black" points="228,-210 228,-232 352,-232 352,-210 228,-210"/>
<text text-anchor="start" x="233" y="-219.2" font-family="Helvetica,sans-Serif" font-weight="bold" font-size="11.00">data_media</text>
<text text-anchor="start" x="313" y="-218.2" font-family="Helvetica,sans-Serif" font-size="11.00">[table]</text>
<polygon fill="none" stroke="black" points="228,-188 228,-210 352,-210 352,-188 228,-188"/>
<image xlink:href="../../images/primaryKeys.png" width="11px" height="12px" preserveAspectRatio="xMinYMin meet" x="233" y="-205"/>
<text text-anchor="start" x="248" y="-196.2" font-family="Helvetica,sans-Serif" font-size="11.00">obj_id</text>
<polygon fill="#ffffff" stroke="transparent" points="228,-166 228,-188 352,-188 352,-166 228,-166"/>
<polygon fill="none" stroke="black" points="228,-166 228,-188 352,-188 352,-166 228,-166"/>
<text text-anchor="start" x="248" y="-174.2" font-family="Helvetica,sans-Serif" font-size="11.00">identifier</text>
<polygon fill="none" stroke="black" points="228,-144 228,-166 352,-166 352,-144 228,-144"/>
<image xlink:href="../../images/foreignKeys.png" width="11px" height="12px" preserveAspectRatio="xMinYMin meet" x="233" y="-161"/>
<text text-anchor="start" x="248" y="-152.2" font-family="Helvetica,sans-Serif" font-size="11.00">kind</text>
<polygon fill="#ffffff" stroke="transparent" points="228,-122 228,-144 352,-144 352,-122 228,-122"/>
<polygon fill="none" stroke="black" points="228,-122 228,-144 352,-144 352,-122 228,-122"/>
<image xlink:href="../../images/foreignKeys.png" width="11px" height="12px" preserveAspectRatio="xMinYMin meet" x="233" y="-139"/>
<text text-anchor="start" x="248" y="-130.2" font-family="Helvetica,sans-Serif" font-size="11.00">fk_dataowner</text>
<polygon fill="none" stroke="black" points="228,-100 228,-122 352,-122 352,-100 228,-100"/>
<image xlink:href="../../images/foreignKeys.png" width="11px" height="12px" preserveAspectRatio="xMinYMin meet" x="233" y="-117"/>
<text text-anchor="start" x="248" y="-108.2" font-family="Helvetica,sans-Serif" font-size="11.00">fk_provider</text>
<polygon fill="none" stroke="black" points="228,-82 228,-100 352,-100 352,-82 228,-82"/>
<text text-anchor="start" x="231" y="-88.2" font-family="Helvetica,sans-Serif" font-size="11.00">...</text>
<polygon fill="#ffffff" stroke="transparent" points="228,-64 228,-82 283,-82 283,-64 228,-64"/>
<polygon fill="none" stroke="black" points="228,-64 228,-82 283,-82 283,-64 228,-64"/>
<text text-anchor="start" x="231" y="-70.2" font-family="Helvetica,sans-Serif" font-size="11.00">&lt; 3</text>
<polygon fill="#ffffff" stroke="transparent" points="283,-64 283,-82 313,-82 313,-64 283,-64"/>
<polygon fill="none" stroke="black" points="283,-64 283,-82 313,-82 313,-64 283,-64"/>
<text text-anchor="start" x="303" y="-70.2" font-family="Helvetica,sans-Serif" font-size="11.00"> &#160;</text>
<polygon fill="#ffffff" stroke="transparent" points="313,-64 313,-82 352,-82 352,-64 313,-64"/>
<polygon fill="none" stroke="black" points="313,-64 313,-82 352,-82 352,-64 313,-64"/>
<text text-anchor="start" x="333" y="-70.2" font-family="Helvetica,sans-Serif" font-size="11.00">1 &gt;</text>
</a>
</g>
</g>
<!-- organisation -->
<g id="node2" class="node">
<title>organisation</title>
<g id="a_node2"><a xlink:href="../../tables/organisation.html" xlink:title="organisation" target="_top">
<polygon fill="#ffffff" stroke="transparent" points="8,-37 8,-227 156,-227 156,-37 8,-37"/>
<polygon fill="#f5f5f5" stroke="transparent" points="8,-205 8,-227 156,-227 156,-205 8,-205"/>
<polygon fill="none" stroke="black" points="8,-205 8,-227 156,-227 156,-205 8,-205"/>
<text text-anchor="start" x="13" y="-214.2" font-family="Helvetica,sans-Serif" font-weight="bold" font-size="11.00">organisation</text>
<text text-anchor="start" x="117" y="-213.2" font-family="Helvetica,sans-Serif" font-size="11.00">[table]</text>
<polygon fill="none" stroke="black" points="8,-183 8,-205 156,-205 156,-183 8,-183"/>
<image xlink:href="../../images/primaryKeys.png" width="11px" height="12px" preserveAspectRatio="xMinYMin meet" x="13" y="-200"/>
<text text-anchor="start" x="28" y="-191.2" font-family="Helvetica,sans-Serif" font-size="11.00">obj_id</text>
<polygon fill="#ffffff" stroke="transparent" points="8,-161 8,-183 156,-183 156,-161 8,-161"/>
<polygon fill="none" stroke="black" points="8,-161 8,-183 156,-183 156,-161 8,-161"/>
<text text-anchor="start" x="28" y="-169.2" font-family="Helvetica,sans-Serif" font-size="11.00">identifier</text>
<polygon fill="none" stroke="black" points="8,-139 8,-161 156,-161 156,-139 8,-139"/>
<image xlink:href="../../images/foreignKeys.png" width="11px" height="12px" preserveAspectRatio="xMinYMin meet" x="13" y="-156"/>
<text text-anchor="start" x="28" y="-147.2" font-family="Helvetica,sans-Serif" font-size="11.00">organisation_type</text>
<polygon fill="none" stroke="black" points="8,-117 8,-139 156,-139 156,-117 8,-117"/>
<image xlink:href="../../images/foreignKeys.png" width="11px" height="12px" preserveAspectRatio="xMinYMin meet" x="13" y="-134"/>
<text text-anchor="start" x="28" y="-125.2" font-family="Helvetica,sans-Serif" font-size="11.00">status</text>
<polygon fill="#ffffff" stroke="transparent" points="8,-95 8,-117 156,-117 156,-95 8,-95"/>
<polygon fill="none" stroke="black" points="8,-95 8,-117 156,-117 156,-95 8,-95"/>
<image xlink:href="../../images/foreignKeys.png" width="11px" height="12px" preserveAspectRatio="xMinYMin meet" x="13" y="-112"/>
<text text-anchor="start" x="28" y="-103.2" font-family="Helvetica,sans-Serif" font-size="11.00">fk_dataowner</text>
<polygon fill="none" stroke="black" points="8,-73 8,-95 156,-95 156,-73 8,-73"/>
<image xlink:href="../../images/foreignKeys.png" width="11px" height="12px" preserveAspectRatio="xMinYMin meet" x="13" y="-90"/>
<text text-anchor="start" x="28" y="-81.2" font-family="Helvetica,sans-Serif" font-size="11.00">fk_provider</text>
<polygon fill="none" stroke="black" points="8,-55 8,-73 156,-73 156,-55 8,-55"/>
<text text-anchor="start" x="11" y="-61.2" font-family="Helvetica,sans-Serif" font-size="11.00">...</text>
<polygon fill="#ffffff" stroke="transparent" points="8,-37 8,-55 72,-55 72,-37 8,-37"/>
<polygon fill="none" stroke="black" points="8,-37 8,-55 72,-55 72,-37 8,-37"/>
<text text-anchor="start" x="11" y="-43.2" font-family="Helvetica,sans-Serif" font-size="11.00">&lt; 4</text>
<polygon fill="#ffffff" stroke="transparent" points="72,-37 72,-55 106,-55 106,-37 72,-37"/>
<polygon fill="none" stroke="black" points="72,-37 72,-55 106,-55 106,-37 72,-37"/>
<text text-anchor="start" x="96" y="-43.2" font-family="Helvetica,sans-Serif" font-size="11.00"> &#160;</text>
<polygon fill="#ffffff" stroke="transparent" points="106,-37 106,-55 156,-55 156,-37 106,-37"/>
<polygon fill="none" stroke="black" points="106,-37 106,-55 156,-55 156,-37 106,-37"/>
<text text-anchor="start" x="131" y="-43.2" font-family="Helvetica,sans-Serif" font-size="11.00">33 &gt;</text>
</a>
</g>
</g>
<!-- data_media&#45;&gt;organisation -->
<g id="edge1" class="edge">
<title>data_media:w&#45;&gt;organisation:e</title>
<path fill="none" stroke="black" d="M212.82,-136.11C188.15,-148.54 192.62,-194 157,-194"/>
<polygon fill="black" stroke="black" points="219.19,-134.71 227.77,-136.52 223.09,-133.86 227,-133 227,-133 227,-133 223.09,-133.86 226.23,-129.48 219.19,-134.71 219.19,-134.71"/>
<ellipse fill="none" stroke="black" cx="216.06" cy="-135.4" rx="3.2" ry="3.2"/>
</g>
<!-- data_media&#45;&gt;organisation -->
<g id="edge2" class="edge">
<title>data_media:w&#45;&gt;organisation:e</title>
<path fill="none" stroke="black" d="M212.87,-114.15C183.93,-129.31 199.6,-194 157,-194"/>
<polygon fill="black" stroke="black" points="219.19,-112.74 227.78,-114.51 223.1,-111.87 227,-111 227,-111 227,-111 223.1,-111.87 226.22,-107.49 219.19,-112.74 219.19,-112.74"/>
<ellipse fill="none" stroke="black" cx="216.07" cy="-113.44" rx="3.2" ry="3.2"/>
</g>
<!-- file -->
<g id="node3" class="node">
<title>file</title>
<g id="a_node3"><a xlink:href="../../tables/file.html" xlink:title="file" target="_top">
<polygon fill="#ffffff" stroke="transparent" points="424,-203 424,-489 646,-489 646,-203 424,-203"/>
<polygon fill="#f5f5f5" stroke="transparent" points="426,-465 426,-487 644,-487 644,-465 426,-465"/>
<polygon fill="none" stroke="black" points="426,-465 426,-487 644,-487 644,-465 426,-465"/>
<text text-anchor="start" x="429.5" y="-474.2" font-family="Helvetica,sans-Serif" font-weight="bold" font-size="11.00">file</text>
<text text-anchor="start" x="605" y="-473.2" font-family="Helvetica,sans-Serif" font-size="11.00">[table]</text>
<polygon fill="none" stroke="black" points="426,-443 426,-465 550,-465 550,-443 426,-443"/>
<image xlink:href="../../images/primaryKeys.png" width="11px" height="12px" preserveAspectRatio="xMinYMin meet" x="431" y="-460"/>
<text text-anchor="start" x="446" y="-451.2" font-family="Helvetica,sans-Serif" font-size="11.00">obj_id</text>
<polygon fill="none" stroke="black" points="550,-443 550,-465 644,-465 644,-443 550,-443"/>
<text text-anchor="start" x="553" y="-451.2" font-family="Helvetica,sans-Serif" font-size="11.00">varchar[16]</text>
<polygon fill="none" stroke="black" points="426,-421 426,-443 550,-443 550,-421 426,-421"/>
<image xlink:href="../../images/foreignKeys.png" width="11px" height="12px" preserveAspectRatio="xMinYMin meet" x="431" y="-438"/>
<text text-anchor="start" x="446" y="-429.2" font-family="Helvetica,sans-Serif" font-size="11.00">classname</text>
<polygon fill="none" stroke="black" points="550,-421 550,-443 644,-443 644,-421 550,-421"/>
<text text-anchor="start" x="553" y="-429.2" font-family="Helvetica,sans-Serif" font-size="11.00">int4[10]</text>
<polygon fill="#ffffff" stroke="transparent" points="426,-399 426,-421 550,-421 550,-399 426,-399"/>
<polygon fill="none" stroke="black" points="426,-399 426,-421 550,-421 550,-399 426,-399"/>
<text text-anchor="start" x="446" y="-407.2" font-family="Helvetica,sans-Serif" font-size="11.00">identifier</text>
<polygon fill="none" stroke="black" points="550,-399 550,-421 644,-421 644,-399 550,-399"/>
<text text-anchor="start" x="553" y="-407.2" font-family="Helvetica,sans-Serif" font-size="11.00">text[2147483647]</text>
<polygon fill="none" stroke="black" points="426,-377 426,-399 550,-399 550,-377 426,-377"/>
<image xlink:href="../../images/foreignKeys.png" width="11px" height="12px" preserveAspectRatio="xMinYMin meet" x="431" y="-394"/>
<text text-anchor="start" x="446" y="-385.2" font-family="Helvetica,sans-Serif" font-size="11.00">kind</text>
<polygon fill="none" stroke="black" points="550,-377 550,-399 644,-399 644,-377 550,-377"/>
<text text-anchor="start" x="553" y="-385.2" font-family="Helvetica,sans-Serif" font-size="11.00">int4[10]</text>
<polygon fill="none" stroke="black" points="426,-355 426,-377 550,-377 550,-355 426,-355"/>
<text text-anchor="start" x="446" y="-363.2" font-family="Helvetica,sans-Serif" font-size="11.00">object</text>
<polygon fill="none" stroke="black" points="550,-355 550,-377 644,-377 644,-355 550,-355"/>
<text text-anchor="start" x="553" y="-363.2" font-family="Helvetica,sans-Serif" font-size="11.00">text[2147483647]</text>
<polygon fill="none" stroke="black" points="426,-333 426,-355 550,-355 550,-333 426,-333"/>
<text text-anchor="start" x="446" y="-341.2" font-family="Helvetica,sans-Serif" font-size="11.00">path_relative</text>
<polygon fill="none" stroke="black" points="550,-333 550,-355 644,-355 644,-333 550,-333"/>
<text text-anchor="start" x="553" y="-341.2" font-family="Helvetica,sans-Serif" font-size="11.00">text[2147483647]</text>
<polygon fill="none" stroke="black" points="426,-311 426,-333 550,-333 550,-311 426,-311"/>
<text text-anchor="start" x="446" y="-319.2" font-family="Helvetica,sans-Serif" font-size="11.00">remark</text>
<polygon fill="none" stroke="black" points="550,-311 550,-333 644,-333 644,-311 550,-311"/>
<text text-anchor="start" x="553" y="-319.2" font-family="Helvetica,sans-Serif" font-size="11.00">text[2147483647]</text>
<polygon fill="none" stroke="black" points="426,-289 426,-311 550,-311 550,-289 426,-289"/>
<text text-anchor="start" x="446" y="-297.2" font-family="Helvetica,sans-Serif" font-size="11.00">last_modification</text>
<polygon fill="none" stroke="black" points="550,-289 550,-311 644,-311 644,-289 550,-289"/>
<text text-anchor="start" x="553" y="-297.2" font-family="Helvetica,sans-Serif" font-size="11.00">timestamp[29,6]</text>
<polygon fill="#ffffff" stroke="transparent" points="426,-267 426,-289 550,-289 550,-267 426,-267"/>
<polygon fill="none" stroke="black" points="426,-267 426,-289 550,-289 550,-267 426,-267"/>
<image xlink:href="../../images/foreignKeys.png" width="11px" height="12px" preserveAspectRatio="xMinYMin meet" x="431" y="-284"/>
<text text-anchor="start" x="446" y="-275.2" font-family="Helvetica,sans-Serif" font-size="11.00">fk_dataowner</text>
<polygon fill="none" stroke="black" points="550,-267 550,-289 644,-289 644,-267 550,-267"/>
<text text-anchor="start" x="553" y="-275.2" font-family="Helvetica,sans-Serif" font-size="11.00">varchar[16]</text>
<polygon fill="none" stroke="black" points="426,-245 426,-267 550,-267 550,-245 426,-245"/>
<image xlink:href="../../images/foreignKeys.png" width="11px" height="12px" preserveAspectRatio="xMinYMin meet" x="431" y="-262"/>
<text text-anchor="start" x="446" y="-253.2" font-family="Helvetica,sans-Serif" font-size="11.00">fk_provider</text>
<polygon fill="none" stroke="black" points="550,-245 550,-267 644,-267 644,-245 550,-245"/>
<text text-anchor="start" x="553" y="-253.2" font-family="Helvetica,sans-Serif" font-size="11.00">varchar[16]</text>
<polygon fill="none" stroke="black" points="426,-223 426,-245 550,-245 550,-223 426,-223"/>
<image xlink:href="../../images/foreignKeys.png" width="11px" height="12px" preserveAspectRatio="xMinYMin meet" x="431" y="-240"/>
<text text-anchor="start" x="446" y="-231.2" font-family="Helvetica,sans-Serif" font-size="11.00">fk_data_media</text>
<polygon fill="none" stroke="black" points="550,-223 550,-245 644,-245 644,-223 550,-223"/>
<text text-anchor="start" x="553" y="-231.2" font-family="Helvetica,sans-Serif" font-size="11.00">varchar[16]</text>
<polygon fill="#ffffff" stroke="transparent" points="426,-205 426,-223 492,-223 492,-205 426,-205"/>
<polygon fill="none" stroke="black" points="426,-205 426,-223 492,-223 492,-205 426,-205"/>
<text text-anchor="start" x="429" y="-211.2" font-family="Helvetica,sans-Serif" font-size="11.00">&lt; 5</text>
<polygon fill="#ffffff" stroke="transparent" points="492,-205 492,-223 550,-223 550,-205 492,-205"/>
<polygon fill="none" stroke="black" points="492,-205 492,-223 550,-223 550,-205 492,-205"/>
<text text-anchor="start" x="540" y="-211.2" font-family="Helvetica,sans-Serif" font-size="11.00"> &#160;</text>
<polygon fill="#ffffff" stroke="transparent" points="550,-205 550,-223 644,-223 644,-205 550,-205"/>
<polygon fill="none" stroke="black" points="550,-205 550,-223 644,-223 644,-205 550,-205"/>
<text text-anchor="start" x="625" y="-211.2" font-family="Helvetica,sans-Serif" font-size="11.00">0 &gt;</text>
<polygon fill="none" stroke="black" stroke-width="2" points="425,-204 425,-488 645,-488 645,-204 425,-204"/>
</a>
</g>
</g>
<!-- file&#45;&gt;data_media -->
<g id="edge4" class="edge">
<title>file:w&#45;&gt;data_media:e</title>
<path fill="none" stroke="black" d="M410.6,-231.7C388.31,-223.92 383.02,-199 353,-199"/>
<polygon fill="black" stroke="black" points="417.1,-232.74 424.43,-237.56 421.05,-233.37 425,-234 425,-234 425,-234 421.05,-233.37 425.57,-230.44 417.1,-232.74 417.1,-232.74"/>
<ellipse fill="none" stroke="black" cx="413.94" cy="-232.24" rx="3.2" ry="3.2"/>
</g>
<!-- file&#45;&gt;organisation -->
<g id="edge5" class="edge">
<title>file:w&#45;&gt;organisation:e</title>
<path fill="none" stroke="black" d="M410.56,-278.28C319.47,-281.85 278.87,-317.12 197,-266 165.95,-246.61 193.61,-194 157,-194"/>
<polygon fill="black" stroke="black" points="417,-278.16 425.07,-281.6 421,-278.08 425,-278 425,-278 425,-278 421,-278.08 424.93,-274.4 417,-278.16 417,-278.16"/>
<ellipse fill="none" stroke="black" cx="413.8" cy="-278.22" rx="3.2" ry="3.2"/>
</g>
<!-- file&#45;&gt;organisation -->
<g id="edge6" class="edge">
<title>file:w&#45;&gt;organisation:e</title>
<path fill="none" stroke="black" d="M410.58,-256.22C319.84,-258.93 283.15,-285.62 197,-242 172.22,-229.46 184.77,-194 157,-194"/>
<polygon fill="black" stroke="black" points="417,-256.12 425.05,-259.6 421,-256.06 425,-256 425,-256 425,-256 421,-256.06 424.95,-252.4 417,-256.12 417,-256.12"/>
<ellipse fill="none" stroke="black" cx="413.8" cy="-256.17" rx="3.2" ry="3.2"/>
</g>
<!-- tdh_vl.file_classname -->
<g id="node4" class="node">
<title>tdh_vl.file_classname</title>
<g id="a_node4"><a xlink:href="../../../tdh_vl/tables/file_classname.html" xlink:title="tdh_vl.file_classname" target="_top">
<polygon fill="#ffffff" stroke="transparent" points="205,-420 205,-478 375,-478 375,-420 205,-420"/>
<polygon fill="#f5f5f5" stroke="transparent" points="205,-456 205,-478 375,-478 375,-456 205,-456"/>
<polygon fill="none" stroke="black" points="205,-456 205,-478 375,-478 375,-456 205,-456"/>
<text text-anchor="start" x="210" y="-465.2" font-family="Helvetica,sans-Serif" font-weight="bold" font-size="11.00">tdh_vl.file_classname</text>
<text text-anchor="start" x="336" y="-464.2" font-family="Helvetica,sans-Serif" font-size="11.00">[table]</text>
<polygon fill="none" stroke="black" points="205,-438 205,-456 375,-456 375,-438 205,-438"/>
<text text-anchor="start" x="208" y="-444.2" font-family="Helvetica,sans-Serif" font-size="11.00">...</text>
<polygon fill="#ffffff" stroke="transparent" points="205,-420 205,-438 265,-438 265,-420 205,-420"/>
<polygon fill="none" stroke="black" points="205,-420 205,-438 265,-438 265,-420 205,-420"/>
<text text-anchor="start" x="208" y="-426.2" font-family="Helvetica,sans-Serif" font-size="11.00"> &#160;</text>
<polygon fill="#ffffff" stroke="transparent" points="265,-420 265,-438 329,-438 329,-420 265,-420"/>
<polygon fill="none" stroke="black" points="265,-420 265,-438 329,-438 329,-420 265,-420"/>
<text text-anchor="start" x="292" y="-426.2" font-family="Helvetica,sans-Serif" font-size="11.00">0 rows</text>
<polygon fill="#ffffff" stroke="transparent" points="329,-420 329,-438 375,-438 375,-420 329,-420"/>
<polygon fill="none" stroke="black" points="329,-420 329,-438 375,-438 375,-420 329,-420"/>
<text text-anchor="start" x="356" y="-426.2" font-family="Helvetica,sans-Serif" font-size="11.00">1 &gt;</text>
</a>
</g>
</g>
<!-- file&#45;&gt;tdh_vl.file_classname -->
<g id="edge3" class="edge">
<title>file:w&#45;&gt;tdh_vl.file_classname:e</title>
<path fill="none" stroke="black" d="M410.43,-432.31C401.37,-432.67 392.16,-433.35 383.07,-434.22"/>
<polygon fill="black" stroke="black" points="417,-432.17 425.08,-435.6 421,-432.08 425,-432 425,-432 425,-432 421,-432.08 424.92,-428.4 417,-432.17 417,-432.17"/>
<ellipse fill="none" stroke="black" cx="413.8" cy="-432.24" rx="3.2" ry="3.2"/>
</g>
<!-- tdh_vl.file_kind -->
<g id="node5" class="node">
<title>tdh_vl.file_kind</title>
<g id="a_node5"><a xlink:href="../../../tdh_vl/tables/file_kind.html" xlink:title="tdh_vl.file_kind" target="_top">
<polygon fill="#ffffff" stroke="transparent" points="223,-341 223,-399 357,-399 357,-341 223,-341"/>
<polygon fill="#f5f5f5" stroke="transparent" points="223,-377 223,-399 357,-399 357,-377 223,-377"/>
<polygon fill="none" stroke="black" points="223,-377 223,-399 357,-399 357,-377 223,-377"/>
<text text-anchor="start" x="228" y="-386.2" font-family="Helvetica,sans-Serif" font-weight="bold" font-size="11.00">tdh_vl.file_kind</text>
<text text-anchor="start" x="318" y="-385.2" font-family="Helvetica,sans-Serif" font-size="11.00">[table]</text>
<polygon fill="none" stroke="black" points="223,-359 223,-377 357,-377 357,-359 223,-359"/>
<text text-anchor="start" x="226" y="-365.2" font-family="Helvetica,sans-Serif" font-size="11.00">...</text>
<polygon fill="#ffffff" stroke="transparent" points="223,-341 223,-359 265,-359 265,-341 223,-341"/>
<polygon fill="none" stroke="black" points="223,-341 223,-359 265,-359 265,-341 223,-341"/>
<text text-anchor="start" x="226" y="-347.2" font-family="Helvetica,sans-Serif" font-size="11.00"> &#160;</text>
<polygon fill="#ffffff" stroke="transparent" points="265,-341 265,-359 320,-359 320,-341 265,-341"/>
<polygon fill="none" stroke="black" points="265,-341 265,-359 320,-359 320,-341 265,-341"/>
<text text-anchor="start" x="283" y="-347.2" font-family="Helvetica,sans-Serif" font-size="11.00">0 rows</text>
<polygon fill="#ffffff" stroke="transparent" points="320,-341 320,-359 357,-359 357,-341 320,-341"/>
<polygon fill="none" stroke="black" points="320,-341 320,-359 357,-359 357,-341 320,-341"/>
<text text-anchor="start" x="338" y="-347.2" font-family="Helvetica,sans-Serif" font-size="11.00">1 &gt;</text>
</a>
</g>
</g>
<!-- file&#45;&gt;tdh_vl.file_kind -->
<g id="edge7" class="edge">
<title>file:w&#45;&gt;tdh_vl.file_kind:e</title>
<path fill="none" stroke="black" d="M410.16,-387.66C395.15,-387.01 379.73,-385.47 365.18,-383.55"/>
<polygon fill="black" stroke="black" points="417,-387.82 424.92,-391.6 421,-387.91 425,-388 425,-388 425,-388 421,-387.91 425.08,-384.4 417,-387.82 417,-387.82"/>
<ellipse fill="none" stroke="black" cx="413.8" cy="-387.75" rx="3.2" ry="3.2"/>
</g>
</g>
</svg>
