<?xml version="1.0" encoding="UTF-8" standalone="no"?>
<!DOCTYPE svg PUBLIC "-//W3C//DTD SVG 1.1//EN"
 "http://www.w3.org/Graphics/SVG/1.1/DTD/svg11.dtd">
<!-- Generated by graphviz version 2.47.1 (20210515.0534)
 -->
<!-- Title: oneDegreeRelationshipsDiagram Pages: 1 -->
<svg width="728pt" height="661pt"
 viewBox="0.00 0.00 728.00 661.00" xmlns="http://www.w3.org/2000/svg" xmlns:xlink="http://www.w3.org/1999/xlink">
<g id="graph0" class="graph" transform="scale(1 1) rotate(0) translate(4 657)">
<title>oneDegreeRelationshipsDiagram</title>
<polygon fill="#ffffff" stroke="transparent" points="-4,4 -4,-657 724,-657 724,4 -4,4"/>
<text text-anchor="middle" x="73.5" y="-7.2" font-family="Helvetica,sans-Serif" font-size="11.00">Generated by SchemaSpy</text>
<!-- sia405cc_cable_point -->
<g id="node1" class="node">
<title>sia405cc_cable_point</title>
<g id="a_node1"><a xlink:href="../../tables/sia405cc_cable_point.html" xlink:title="sia405cc_cable_point" target="_top">
<polygon fill="#ffffff" stroke="transparent" points="416,-141 416,-647 712,-647 712,-141 416,-141"/>
<polygon fill="#f5f5f5" stroke="transparent" points="418,-623 418,-645 710,-645 710,-623 418,-623"/>
<polygon fill="none" stroke="black" points="418,-623 418,-645 710,-645 710,-623 418,-623"/>
<text text-anchor="start" x="423" y="-632.2" font-family="Helvetica,sans-Serif" font-weight="bold" font-size="11.00">sia405cc_cable_point</text>
<text text-anchor="start" x="671" y="-631.2" font-family="Helvetica,sans-Serif" font-size="11.00">[table]</text>
<polygon fill="none" stroke="black" points="418,-601 418,-623 587,-623 587,-601 418,-601"/>
<image xlink:href="../../images/primaryKeys.png" width="11px" height="12px" preserveAspectRatio="xMinYMin meet" x="423" y="-618"/>
<text text-anchor="start" x="438" y="-609.2" font-family="Helvetica,sans-Serif" font-size="11.00">obj_id</text>
<polygon fill="none" stroke="black" points="587,-601 587,-623 710,-623 710,-601 587,-601"/>
<text text-anchor="start" x="590" y="-609.2" font-family="Helvetica,sans-Serif" font-size="11.00">varchar[16]</text>
<polygon fill="#ffffff" stroke="transparent" points="418,-579 418,-601 587,-601 587,-579 418,-579"/>
<polygon fill="none" stroke="black" points="418,-579 418,-601 587,-601 587,-579 418,-579"/>
<text text-anchor="start" x="438" y="-587.2" font-family="Helvetica,sans-Serif" font-size="11.00">name_number</text>
<polygon fill="none" stroke="black" points="587,-579 587,-601 710,-601 710,-579 587,-579"/>
<text text-anchor="start" x="590" y="-587.2" font-family="Helvetica,sans-Serif" font-size="11.00">text[2147483647]</text>
<polygon fill="#ffffff" stroke="transparent" points="418,-557 418,-579 587,-579 587,-557 418,-557"/>
<polygon fill="none" stroke="black" points="418,-557 418,-579 587,-579 587,-557 418,-557"/>
<text text-anchor="start" x="438" y="-565.2" font-family="Helvetica,sans-Serif" font-size="11.00">geometry3d_geometry</text>
<polygon fill="none" stroke="black" points="587,-557 587,-579 710,-579 710,-557 587,-557"/>
<text text-anchor="start" x="590" y="-565.2" font-family="Helvetica,sans-Serif" font-size="11.00">geometry[2147483647]</text>
<polygon fill="none" stroke="black" points="418,-535 418,-557 587,-557 587,-535 418,-535"/>
<image xlink:href="../../images/foreignKeys.png" width="11px" height="12px" preserveAspectRatio="xMinYMin meet" x="423" y="-552"/>
<text text-anchor="start" x="438" y="-543.2" font-family="Helvetica,sans-Serif" font-size="11.00">kind</text>
<polygon fill="none" stroke="black" points="587,-535 587,-557 710,-557 710,-535 587,-535"/>
<text text-anchor="start" x="590" y="-543.2" font-family="Helvetica,sans-Serif" font-size="11.00">int4[10]</text>
<polygon fill="none" stroke="black" points="418,-513 418,-535 587,-535 587,-513 418,-513"/>
<image xlink:href="../../images/foreignKeys.png" width="11px" height="12px" preserveAspectRatio="xMinYMin meet" x="423" y="-530"/>
<text text-anchor="start" x="438" y="-521.2" font-family="Helvetica,sans-Serif" font-size="11.00">horizontal_positioning</text>
<polygon fill="none" stroke="black" points="587,-513 587,-535 710,-535 710,-513 587,-513"/>
<text text-anchor="start" x="590" y="-521.2" font-family="Helvetica,sans-Serif" font-size="11.00">int4[10]</text>
<polygon fill="none" stroke="black" points="418,-491 418,-513 587,-513 587,-491 418,-491"/>
<text text-anchor="start" x="438" y="-499.2" font-family="Helvetica,sans-Serif" font-size="11.00">altitude</text>
<polygon fill="none" stroke="black" points="587,-491 587,-513 710,-513 710,-491 587,-491"/>
<text text-anchor="start" x="590" y="-499.2" font-family="Helvetica,sans-Serif" font-size="11.00">numeric[7,3]</text>
<polygon fill="none" stroke="black" points="418,-469 418,-491 587,-491 587,-469 418,-469"/>
<image xlink:href="../../images/foreignKeys.png" width="11px" height="12px" preserveAspectRatio="xMinYMin meet" x="423" y="-486"/>
<text text-anchor="start" x="438" y="-477.2" font-family="Helvetica,sans-Serif" font-size="11.00">elevation_determination</text>
<polygon fill="none" stroke="black" points="587,-469 587,-491 710,-491 710,-469 587,-469"/>
<text text-anchor="start" x="590" y="-477.2" font-family="Helvetica,sans-Serif" font-size="11.00">int4[10]</text>
<polygon fill="none" stroke="black" points="418,-447 418,-469 587,-469 587,-447 418,-447"/>
<image xlink:href="../../images/foreignKeys.png" width="11px" height="12px" preserveAspectRatio="xMinYMin meet" x="423" y="-464"/>
<text text-anchor="start" x="438" y="-455.2" font-family="Helvetica,sans-Serif" font-size="11.00">status</text>
<polygon fill="none" stroke="black" points="587,-447 587,-469 710,-469 710,-447 587,-447"/>
<text text-anchor="start" x="590" y="-455.2" font-family="Helvetica,sans-Serif" font-size="11.00">int4[10]</text>
<polygon fill="none" stroke="black" points="418,-425 418,-447 587,-447 587,-425 418,-425"/>
<text text-anchor="start" x="438" y="-433.2" font-family="Helvetica,sans-Serif" font-size="11.00">installation_year</text>
<polygon fill="none" stroke="black" points="587,-425 587,-447 710,-447 710,-425 587,-425"/>
<text text-anchor="start" x="590" y="-433.2" font-family="Helvetica,sans-Serif" font-size="11.00">int2[5]</text>
<polygon fill="none" stroke="black" points="418,-403 418,-425 587,-425 587,-403 418,-403"/>
<text text-anchor="start" x="438" y="-411.2" font-family="Helvetica,sans-Serif" font-size="11.00">sur_plus_cover</text>
<polygon fill="none" stroke="black" points="587,-403 587,-425 710,-425 710,-403 587,-403"/>
<text text-anchor="start" x="590" y="-411.2" font-family="Helvetica,sans-Serif" font-size="11.00">numeric[4,1]</text>
<polygon fill="none" stroke="black" points="418,-381 418,-403 587,-403 587,-381 418,-381"/>
<text text-anchor="start" x="438" y="-389.2" font-family="Helvetica,sans-Serif" font-size="11.00">condition</text>
<polygon fill="none" stroke="black" points="587,-381 587,-403 710,-403 710,-381 587,-381"/>
<text text-anchor="start" x="590" y="-389.2" font-family="Helvetica,sans-Serif" font-size="11.00">text[2147483647]</text>
<polygon fill="none" stroke="black" points="418,-359 418,-381 587,-381 587,-359 418,-359"/>
<text text-anchor="start" x="438" y="-367.2" font-family="Helvetica,sans-Serif" font-size="11.00">remark</text>
<polygon fill="none" stroke="black" points="587,-359 587,-381 710,-381 710,-359 587,-359"/>
<text text-anchor="start" x="590" y="-367.2" font-family="Helvetica,sans-Serif" font-size="11.00">text[2147483647]</text>
<polygon fill="none" stroke="black" points="418,-337 418,-359 587,-359 587,-337 418,-337"/>
<text text-anchor="start" x="438" y="-345.2" font-family="Helvetica,sans-Serif" font-size="11.00">dimension1</text>
<polygon fill="none" stroke="black" points="587,-337 587,-359 710,-359 710,-337 587,-337"/>
<text text-anchor="start" x="590" y="-345.2" font-family="Helvetica,sans-Serif" font-size="11.00">int2[5]</text>
<polygon fill="none" stroke="black" points="418,-315 418,-337 587,-337 587,-315 418,-315"/>
<text text-anchor="start" x="438" y="-323.2" font-family="Helvetica,sans-Serif" font-size="11.00">dimension2</text>
<polygon fill="none" stroke="black" points="587,-315 587,-337 710,-337 710,-315 587,-315"/>
<text text-anchor="start" x="590" y="-323.2" font-family="Helvetica,sans-Serif" font-size="11.00">int2[5]</text>
<polygon fill="none" stroke="black" points="418,-293 418,-315 587,-315 587,-293 418,-293"/>
<text text-anchor="start" x="438" y="-301.2" font-family="Helvetica,sans-Serif" font-size="11.00">altitude_lower_edge</text>
<polygon fill="none" stroke="black" points="587,-293 587,-315 710,-315 710,-293 587,-293"/>
<text text-anchor="start" x="590" y="-301.2" font-family="Helvetica,sans-Serif" font-size="11.00">numeric[7,3]</text>
<polygon fill="none" stroke="black" points="418,-271 418,-293 587,-293 587,-271 418,-271"/>
<text text-anchor="start" x="438" y="-279.2" font-family="Helvetica,sans-Serif" font-size="11.00">symbolori</text>
<polygon fill="none" stroke="black" points="587,-271 587,-293 710,-293 710,-271 587,-271"/>
<text text-anchor="start" x="590" y="-279.2" font-family="Helvetica,sans-Serif" font-size="11.00">numeric[4,1]</text>
<polygon fill="none" stroke="black" points="418,-249 418,-271 587,-271 587,-249 418,-249"/>
<text text-anchor="start" x="438" y="-257.2" font-family="Helvetica,sans-Serif" font-size="11.00">depth</text>
<polygon fill="none" stroke="black" points="587,-249 587,-271 710,-271 710,-249 587,-249"/>
<text text-anchor="start" x="590" y="-257.2" font-family="Helvetica,sans-Serif" font-size="11.00">int2[5]</text>
<polygon fill="none" stroke="black" points="418,-227 418,-249 587,-249 587,-227 418,-227"/>
<text text-anchor="start" x="438" y="-235.2" font-family="Helvetica,sans-Serif" font-size="11.00">last_modification</text>
<polygon fill="none" stroke="black" points="587,-227 587,-249 710,-249 710,-227 587,-227"/>
<text text-anchor="start" x="590" y="-235.2" font-family="Helvetica,sans-Serif" font-size="11.00">timestamp[29,6]</text>
<polygon fill="#ffffff" stroke="transparent" points="418,-205 418,-227 587,-227 587,-205 418,-205"/>
<polygon fill="none" stroke="black" points="418,-205 418,-227 587,-227 587,-205 418,-205"/>
<image xlink:href="../../images/foreignKeys.png" width="11px" height="12px" preserveAspectRatio="xMinYMin meet" x="423" y="-222"/>
<text text-anchor="start" x="438" y="-213.2" font-family="Helvetica,sans-Serif" font-size="11.00">fk_dataowner</text>
<polygon fill="none" stroke="black" points="587,-205 587,-227 710,-227 710,-205 587,-205"/>
<text text-anchor="start" x="590" y="-213.2" font-family="Helvetica,sans-Serif" font-size="11.00">varchar[16]</text>
<polygon fill="none" stroke="black" points="418,-183 418,-205 587,-205 587,-183 418,-183"/>
<image xlink:href="../../images/foreignKeys.png" width="11px" height="12px" preserveAspectRatio="xMinYMin meet" x="423" y="-200"/>
<text text-anchor="start" x="438" y="-191.2" font-family="Helvetica,sans-Serif" font-size="11.00">fk_provider</text>
<polygon fill="none" stroke="black" points="587,-183 587,-205 710,-205 710,-183 587,-183"/>
<text text-anchor="start" x="590" y="-191.2" font-family="Helvetica,sans-Serif" font-size="11.00">varchar[16]</text>
<polygon fill="none" stroke="black" points="418,-161 418,-183 587,-183 587,-161 418,-161"/>
<image xlink:href="../../images/foreignKeys.png" width="11px" height="12px" preserveAspectRatio="xMinYMin meet" x="423" y="-178"/>
<text text-anchor="start" x="438" y="-169.2" font-family="Helvetica,sans-Serif" font-size="11.00">fk_owner</text>
<polygon fill="none" stroke="black" points="587,-161 587,-183 710,-183 710,-161 587,-161"/>
<text text-anchor="start" x="590" y="-169.2" font-family="Helvetica,sans-Serif" font-size="11.00">varchar[16]</text>
<polygon fill="#ffffff" stroke="transparent" points="418,-143 418,-161 507,-161 507,-143 418,-143"/>
<polygon fill="none" stroke="black" points="418,-143 418,-161 507,-161 507,-143 418,-143"/>
<text text-anchor="start" x="421" y="-149.2" font-family="Helvetica,sans-Serif" font-size="11.00">&lt; 7</text>
<polygon fill="#ffffff" stroke="transparent" points="507,-143 507,-161 587,-161 587,-143 507,-143"/>
<polygon fill="none" stroke="black" points="507,-143 507,-161 587,-161 587,-143 507,-143"/>
<text text-anchor="start" x="577" y="-149.2" font-family="Helvetica,sans-Serif" font-size="11.00"> &#160;</text>
<polygon fill="#ffffff" stroke="transparent" points="587,-143 587,-161 710,-161 710,-143 587,-143"/>
<polygon fill="none" stroke="black" points="587,-143 587,-161 710,-161 710,-143 587,-143"/>
<text text-anchor="start" x="691" y="-149.2" font-family="Helvetica,sans-Serif" font-size="11.00">0 &gt;</text>
<polygon fill="none" stroke="black" stroke-width="2" points="417,-142 417,-646 711,-646 711,-142 417,-142"/>
</a>
</g>
</g>
<!-- tdh_vl.sia405cc_cable_point_elevation_determination -->
<g id="node2" class="node">
<title>tdh_vl.sia405cc_cable_point_elevation_determination</title>
<g id="a_node2"><a xlink:href="../../../tdh_vl/tables/sia405cc_cable_point_elevation__6472a8ff.html" xlink:title="tdh_vl.sia405cc_cable_point_elevation_determination" target="_top">
<polygon fill="#ffffff" stroke="transparent" points="8,-433 8,-491 367,-491 367,-433 8,-433"/>
<polygon fill="#f5f5f5" stroke="transparent" points="8.5,-469 8.5,-491 367.5,-491 367.5,-469 8.5,-469"/>
<polygon fill="none" stroke="black" points="8.5,-469 8.5,-491 367.5,-491 367.5,-469 8.5,-469"/>
<text text-anchor="start" x="13.5" y="-478.2" font-family="Helvetica,sans-Serif" font-weight="bold" font-size="11.00">tdh_vl.sia405cc_cable_point_elevation_determination</text>
<text text-anchor="start" x="328.5" y="-477.2" font-family="Helvetica,sans-Serif" font-size="11.00">[table]</text>
<polygon fill="none" stroke="black" points="8.5,-451 8.5,-469 367.5,-469 367.5,-451 8.5,-451"/>
<text text-anchor="start" x="11.5" y="-457.2" font-family="Helvetica,sans-Serif" font-size="11.00">...</text>
<polygon fill="#ffffff" stroke="transparent" points="8.5,-433 8.5,-451 163.5,-451 163.5,-433 8.5,-433"/>
<polygon fill="none" stroke="black" points="8.5,-433 8.5,-451 163.5,-451 163.5,-433 8.5,-433"/>
<text text-anchor="start" x="11.5" y="-439.2" font-family="Helvetica,sans-Serif" font-size="11.00"> &#160;</text>
<polygon fill="#ffffff" stroke="transparent" points="163.5,-433 163.5,-451 274.5,-451 274.5,-433 163.5,-433"/>
<polygon fill="none" stroke="black" points="163.5,-433 163.5,-451 274.5,-451 274.5,-433 163.5,-433"/>
<text text-anchor="start" x="237.5" y="-439.2" font-family="Helvetica,sans-Serif" font-size="11.00">0 rows</text>
<polygon fill="#ffffff" stroke="transparent" points="274.5,-433 274.5,-451 367.5,-451 367.5,-433 274.5,-433"/>
<polygon fill="none" stroke="black" points="274.5,-433 274.5,-451 367.5,-451 367.5,-433 274.5,-433"/>
<text text-anchor="start" x="348.5" y="-439.2" font-family="Helvetica,sans-Serif" font-size="11.00">1 &gt;</text>
</a>
</g>
</g>
<!-- sia405cc_cable_point&#45;&gt;tdh_vl.sia405cc_cable_point_elevation_determination -->
<g id="edge1" class="edge">
<title>sia405cc_cable_point:w&#45;&gt;tdh_vl.sia405cc_cable_point_elevation_determination:e</title>
<path fill="none" stroke="black" d="M402.48,-479.88C393.47,-479.74 384.32,-479.48 375.15,-479.12"/>
<polygon fill="black" stroke="black" points="409,-479.94 416.97,-483.6 413,-479.97 417,-480 417,-480 417,-480 413,-479.97 417.03,-476.4 409,-479.94 409,-479.94"/>
<ellipse fill="none" stroke="black" cx="405.8" cy="-479.91" rx="3.2" ry="3.2"/>
</g>
<!-- organisation -->
<g id="node3" class="node">
<title>organisation</title>
<g id="a_node3"><a xlink:href="../../tables/organisation.html" xlink:title="organisation" target="_top">
<polygon fill="#ffffff" stroke="transparent" points="113.5,-37 113.5,-227 261.5,-227 261.5,-37 113.5,-37"/>
<polygon fill="#f5f5f5" stroke="transparent" points="113.5,-205 113.5,-227 261.5,-227 261.5,-205 113.5,-205"/>
<polygon fill="none" stroke="black" points="113.5,-205 113.5,-227 261.5,-227 261.5,-205 113.5,-205"/>
<text text-anchor="start" x="118.5" y="-214.2" font-family="Helvetica,sans-Serif" font-weight="bold" font-size="11.00">organisation</text>
<text text-anchor="start" x="222.5" y="-213.2" font-family="Helvetica,sans-Serif" font-size="11.00">[table]</text>
<polygon fill="none" stroke="black" points="113.5,-183 113.5,-205 261.5,-205 261.5,-183 113.5,-183"/>
<image xlink:href="../../images/primaryKeys.png" width="11px" height="12px" preserveAspectRatio="xMinYMin meet" x="118.5" y="-200"/>
<text text-anchor="start" x="133.5" y="-191.2" font-family="Helvetica,sans-Serif" font-size="11.00">obj_id</text>
<polygon fill="#ffffff" stroke="transparent" points="113.5,-161 113.5,-183 261.5,-183 261.5,-161 113.5,-161"/>
<polygon fill="none" stroke="black" points="113.5,-161 113.5,-183 261.5,-183 261.5,-161 113.5,-161"/>
<text text-anchor="start" x="133.5" y="-169.2" font-family="Helvetica,sans-Serif" font-size="11.00">identifier</text>
<polygon fill="none" stroke="black" points="113.5,-139 113.5,-161 261.5,-161 261.5,-139 113.5,-139"/>
<image xlink:href="../../images/foreignKeys.png" width="11px" height="12px" preserveAspectRatio="xMinYMin meet" x="118.5" y="-156"/>
<text text-anchor="start" x="133.5" y="-147.2" font-family="Helvetica,sans-Serif" font-size="11.00">organisation_type</text>
<polygon fill="none" stroke="black" points="113.5,-117 113.5,-139 261.5,-139 261.5,-117 113.5,-117"/>
<image xlink:href="../../images/foreignKeys.png" width="11px" height="12px" preserveAspectRatio="xMinYMin meet" x="118.5" y="-134"/>
<text text-anchor="start" x="133.5" y="-125.2" font-family="Helvetica,sans-Serif" font-size="11.00">status</text>
<polygon fill="#ffffff" stroke="transparent" points="113.5,-95 113.5,-117 261.5,-117 261.5,-95 113.5,-95"/>
<polygon fill="none" stroke="black" points="113.5,-95 113.5,-117 261.5,-117 261.5,-95 113.5,-95"/>
<image xlink:href="../../images/foreignKeys.png" width="11px" height="12px" preserveAspectRatio="xMinYMin meet" x="118.5" y="-112"/>
<text text-anchor="start" x="133.5" y="-103.2" font-family="Helvetica,sans-Serif" font-size="11.00">fk_dataowner</text>
<polygon fill="none" stroke="black" points="113.5,-73 113.5,-95 261.5,-95 261.5,-73 113.5,-73"/>
<image xlink:href="../../images/foreignKeys.png" width="11px" height="12px" preserveAspectRatio="xMinYMin meet" x="118.5" y="-90"/>
<text text-anchor="start" x="133.5" y="-81.2" font-family="Helvetica,sans-Serif" font-size="11.00">fk_provider</text>
<polygon fill="none" stroke="black" points="113.5,-55 113.5,-73 261.5,-73 261.5,-55 113.5,-55"/>
<text text-anchor="start" x="116.5" y="-61.2" font-family="Helvetica,sans-Serif" font-size="11.00">...</text>
<polygon fill="#ffffff" stroke="transparent" points="113.5,-37 113.5,-55 177.5,-55 177.5,-37 113.5,-37"/>
<polygon fill="none" stroke="black" points="113.5,-37 113.5,-55 177.5,-55 177.5,-37 113.5,-37"/>
<text text-anchor="start" x="116.5" y="-43.2" font-family="Helvetica,sans-Serif" font-size="11.00">&lt; 4</text>
<polygon fill="#ffffff" stroke="transparent" points="177.5,-37 177.5,-55 211.5,-55 211.5,-37 177.5,-37"/>
<polygon fill="none" stroke="black" points="177.5,-37 177.5,-55 211.5,-55 211.5,-37 177.5,-37"/>
<text text-anchor="start" x="201.5" y="-43.2" font-family="Helvetica,sans-Serif" font-size="11.00"> &#160;</text>
<polygon fill="#ffffff" stroke="transparent" points="211.5,-37 211.5,-55 261.5,-55 261.5,-37 211.5,-37"/>
<polygon fill="none" stroke="black" points="211.5,-37 211.5,-55 261.5,-55 261.5,-37 211.5,-37"/>
<text text-anchor="start" x="236.5" y="-43.2" font-family="Helvetica,sans-Serif" font-size="11.00">29 &gt;</text>
</a>
</g>
</g>
<!-- sia405cc_cable_point&#45;&gt;organisation -->
<g id="edge2" class="edge">
<title>sia405cc_cable_point:w&#45;&gt;organisation:e</title>
<path fill="none" stroke="black" d="M402.4,-215.65C345,-212.86 326.71,-194 262.5,-194"/>
<polygon fill="black" stroke="black" points="409,-215.81 416.91,-219.6 413,-215.91 417,-216 417,-216 417,-216 413,-215.91 417.09,-212.4 409,-215.81 409,-215.81"/>
<ellipse fill="none" stroke="black" cx="405.8" cy="-215.73" rx="3.2" ry="3.2"/>
</g>
<!-- sia405cc_cable_point&#45;&gt;organisation -->
<g id="edge3" class="edge">
<title>sia405cc_cable_point:w&#45;&gt;organisation:e</title>
<path fill="none" stroke="black" d="M402.4,-172.35C345,-175.14 326.71,-194 262.5,-194"/>
<polygon fill="black" stroke="black" points="409,-172.19 417.09,-175.6 413,-172.09 417,-172 417,-172 417,-172 413,-172.09 416.91,-168.4 409,-172.19 409,-172.19"/>
<ellipse fill="none" stroke="black" cx="405.8" cy="-172.27" rx="3.2" ry="3.2"/>
</g>
<!-- sia405cc_cable_point&#45;&gt;organisation -->
<g id="edge4" class="edge">
<title>sia405cc_cable_point:w&#45;&gt;organisation:e</title>
<path fill="none" stroke="black" d="M402.52,-194C345.5,-194 326.07,-194 262.5,-194"/>
<polygon fill="black" stroke="black" points="409,-194 417,-197.6 413,-194 417,-194 417,-194 417,-194 413,-194 417,-190.4 409,-194 409,-194"/>
<ellipse fill="none" stroke="black" cx="405.8" cy="-194" rx="3.2" ry="3.2"/>
</g>
<!-- tdh_vl.sia405cc_cable_point_horizontal_positioning -->
<g id="node4" class="node">
<title>tdh_vl.sia405cc_cable_point_horizontal_positioning</title>
<g id="a_node4"><a xlink:href="../../../tdh_vl/tables/sia405cc_cable_point_horizontal_dbbdef40.html" xlink:title="tdh_vl.sia405cc_cable_point_horizontal_positioning" target="_top">
<polygon fill="#ffffff" stroke="transparent" points="15,-512 15,-570 360,-570 360,-512 15,-512"/>
<polygon fill="#f5f5f5" stroke="transparent" points="15.5,-548 15.5,-570 360.5,-570 360.5,-548 15.5,-548"/>
<polygon fill="none" stroke="black" points="15.5,-548 15.5,-570 360.5,-570 360.5,-548 15.5,-548"/>
<text text-anchor="start" x="20.5" y="-557.2" font-family="Helvetica,sans-Serif" font-weight="bold" font-size="11.00">tdh_vl.sia405cc_cable_point_horizontal_positioning</text>
<text text-anchor="start" x="321.5" y="-556.2" font-family="Helvetica,sans-Serif" font-size="11.00">[table]</text>
<polygon fill="none" stroke="black" points="15.5,-530 15.5,-548 360.5,-548 360.5,-530 15.5,-530"/>
<text text-anchor="start" x="18.5" y="-536.2" font-family="Helvetica,sans-Serif" font-size="11.00">...</text>
<polygon fill="#ffffff" stroke="transparent" points="15.5,-512 15.5,-530 163.5,-530 163.5,-512 15.5,-512"/>
<polygon fill="none" stroke="black" points="15.5,-512 15.5,-530 163.5,-530 163.5,-512 15.5,-512"/>
<text text-anchor="start" x="18.5" y="-518.2" font-family="Helvetica,sans-Serif" font-size="11.00"> &#160;</text>
<polygon fill="#ffffff" stroke="transparent" points="163.5,-512 163.5,-530 270.5,-530 270.5,-512 163.5,-512"/>
<polygon fill="none" stroke="black" points="163.5,-512 163.5,-530 270.5,-530 270.5,-512 163.5,-512"/>
<text text-anchor="start" x="233.5" y="-518.2" font-family="Helvetica,sans-Serif" font-size="11.00">0 rows</text>
<polygon fill="#ffffff" stroke="transparent" points="270.5,-512 270.5,-530 360.5,-530 360.5,-512 270.5,-512"/>
<polygon fill="none" stroke="black" points="270.5,-512 270.5,-530 360.5,-530 360.5,-512 270.5,-512"/>
<text text-anchor="start" x="341.5" y="-518.2" font-family="Helvetica,sans-Serif" font-size="11.00">1 &gt;</text>
</a>
</g>
</g>
<!-- sia405cc_cable_point&#45;&gt;tdh_vl.sia405cc_cable_point_horizontal_positioning -->
<g id="edge5" class="edge">
<title>sia405cc_cable_point:w&#45;&gt;tdh_vl.sia405cc_cable_point_horizontal_positioning:e</title>
<path fill="none" stroke="black" d="M402.3,-524.11C391.02,-524.28 379.53,-524.63 368.02,-525.12"/>
<polygon fill="black" stroke="black" points="409,-524.06 417.03,-527.6 413,-524.03 417,-524 417,-524 417,-524 413,-524.03 416.97,-520.4 409,-524.06 409,-524.06"/>
<ellipse fill="none" stroke="black" cx="405.8" cy="-524.09" rx="3.2" ry="3.2"/>
</g>
<!-- tdh_vl.sia405cc_cable_point_kind -->
<g id="node5" class="node">
<title>tdh_vl.sia405cc_cable_point_kind</title>
<g id="a_node5"><a xlink:href="../../../tdh_vl/tables/sia405cc_cable_point_kind.html" xlink:title="tdh_vl.sia405cc_cable_point_kind" target="_top">
<polygon fill="#ffffff" stroke="transparent" points="68.5,-591 68.5,-649 306.5,-649 306.5,-591 68.5,-591"/>
<polygon fill="#f5f5f5" stroke="transparent" points="68.5,-627 68.5,-649 306.5,-649 306.5,-627 68.5,-627"/>
<polygon fill="none" stroke="black" points="68.5,-627 68.5,-649 306.5,-649 306.5,-627 68.5,-627"/>
<text text-anchor="start" x="73.5" y="-636.2" font-family="Helvetica,sans-Serif" font-weight="bold" font-size="11.00">tdh_vl.sia405cc_cable_point_kind</text>
<text text-anchor="start" x="267.5" y="-635.2" font-family="Helvetica,sans-Serif" font-size="11.00">[table]</text>
<polygon fill="none" stroke="black" points="68.5,-609 68.5,-627 306.5,-627 306.5,-609 68.5,-609"/>
<text text-anchor="start" x="71.5" y="-615.2" font-family="Helvetica,sans-Serif" font-size="11.00">...</text>
<polygon fill="#ffffff" stroke="transparent" points="68.5,-591 68.5,-609 162.5,-609 162.5,-591 68.5,-591"/>
<polygon fill="none" stroke="black" points="68.5,-591 68.5,-609 162.5,-609 162.5,-591 68.5,-591"/>
<text text-anchor="start" x="71.5" y="-597.2" font-family="Helvetica,sans-Serif" font-size="11.00"> &#160;</text>
<polygon fill="#ffffff" stroke="transparent" points="162.5,-591 162.5,-609 243.5,-609 243.5,-591 162.5,-591"/>
<polygon fill="none" stroke="black" points="162.5,-591 162.5,-609 243.5,-609 243.5,-591 162.5,-591"/>
<text text-anchor="start" x="206.5" y="-597.2" font-family="Helvetica,sans-Serif" font-size="11.00">0 rows</text>
<polygon fill="#ffffff" stroke="transparent" points="243.5,-591 243.5,-609 306.5,-609 306.5,-591 243.5,-591"/>
<polygon fill="none" stroke="black" points="243.5,-591 243.5,-609 306.5,-609 306.5,-591 243.5,-591"/>
<text text-anchor="start" x="287.5" y="-597.2" font-family="Helvetica,sans-Serif" font-size="11.00">1 &gt;</text>
</a>
</g>
</g>
<!-- sia405cc_cable_point&#45;&gt;tdh_vl.sia405cc_cable_point_kind -->
<g id="edge6" class="edge">
<title>sia405cc_cable_point:w&#45;&gt;tdh_vl.sia405cc_cable_point_kind:e</title>
<path fill="none" stroke="black" d="M402.95,-550.21C393.12,-557.67 391.24,-573.15 375,-581 356.24,-590.07 335.42,-597.04 314.68,-602.39"/>
<polygon fill="black" stroke="black" points="409.34,-548.3 418.03,-549.45 413.17,-547.15 417,-546 417,-546 417,-546 413.17,-547.15 415.97,-542.55 409.34,-548.3 409.34,-548.3"/>
<ellipse fill="none" stroke="black" cx="406.27" cy="-549.22" rx="3.2" ry="3.2"/>
</g>
<!-- tdh_vl.sia405cc_cable_point_status -->
<g id="node6" class="node">
<title>tdh_vl.sia405cc_cable_point_status</title>
<g id="a_node6"><a xlink:href="../../../tdh_vl/tables/sia405cc_cable_point_status.html" xlink:title="tdh_vl.sia405cc_cable_point_status" target="_top">
<polygon fill="#ffffff" stroke="transparent" points="63,-354 63,-412 312,-412 312,-354 63,-354"/>
<polygon fill="#f5f5f5" stroke="transparent" points="63.5,-390 63.5,-412 312.5,-412 312.5,-390 63.5,-390"/>
<polygon fill="none" stroke="black" points="63.5,-390 63.5,-412 312.5,-412 312.5,-390 63.5,-390"/>
<text text-anchor="start" x="68.5" y="-399.2" font-family="Helvetica,sans-Serif" font-weight="bold" font-size="11.00">tdh_vl.sia405cc_cable_point_status</text>
<text text-anchor="start" x="273.5" y="-398.2" font-family="Helvetica,sans-Serif" font-size="11.00">[table]</text>
<polygon fill="none" stroke="black" points="63.5,-372 63.5,-390 312.5,-390 312.5,-372 63.5,-372"/>
<text text-anchor="start" x="66.5" y="-378.2" font-family="Helvetica,sans-Serif" font-size="11.00">...</text>
<polygon fill="#ffffff" stroke="transparent" points="63.5,-354 63.5,-372 163.5,-372 163.5,-354 63.5,-354"/>
<polygon fill="none" stroke="black" points="63.5,-354 63.5,-372 163.5,-372 163.5,-354 63.5,-354"/>
<text text-anchor="start" x="66.5" y="-360.2" font-family="Helvetica,sans-Serif" font-size="11.00"> &#160;</text>
<polygon fill="#ffffff" stroke="transparent" points="163.5,-354 163.5,-372 246.5,-372 246.5,-354 163.5,-354"/>
<polygon fill="none" stroke="black" points="163.5,-354 163.5,-372 246.5,-372 246.5,-354 163.5,-354"/>
<text text-anchor="start" x="209.5" y="-360.2" font-family="Helvetica,sans-Serif" font-size="11.00">0 rows</text>
<polygon fill="#ffffff" stroke="transparent" points="246.5,-354 246.5,-372 312.5,-372 312.5,-354 246.5,-354"/>
<polygon fill="none" stroke="black" points="246.5,-354 246.5,-372 312.5,-372 312.5,-354 246.5,-354"/>
<text text-anchor="start" x="293.5" y="-360.2" font-family="Helvetica,sans-Serif" font-size="11.00">1 &gt;</text>
</a>
</g>
</g>
<!-- sia405cc_cable_point&#45;&gt;tdh_vl.sia405cc_cable_point_status -->
<g id="edge7" class="edge">
<title>sia405cc_cable_point:w&#45;&gt;tdh_vl.sia405cc_cable_point_status:e</title>
<path fill="none" stroke="black" d="M402.95,-453.79C393.11,-446.35 391.22,-430.89 375,-423 357.88,-414.67 339.04,-408.06 320.12,-402.82"/>
<polygon fill="black" stroke="black" points="409.34,-455.71 415.97,-461.45 413.17,-456.85 417,-458 417,-458 417,-458 413.17,-456.85 418.03,-454.55 409.34,-455.71 409.34,-455.71"/>
<ellipse fill="none" stroke="black" cx="406.27" cy="-454.79" rx="3.2" ry="3.2"/>
</g>
</g>
</svg>
