<?xml version="1.0" encoding="UTF-8" standalone="no"?>
<!DOCTYPE svg PUBLIC "-//W3C//DTD SVG 1.1//EN"
 "http://www.w3.org/Graphics/SVG/1.1/DTD/svg11.dtd">
<!-- Generated by graphviz version 2.43.0 (0)
 -->
<!-- Title: orphans Pages: 1 -->
<svg width="265pt" height="566pt"
 viewBox="0.00 0.00 265.00 566.00" xmlns="http://www.w3.org/2000/svg" xmlns:xlink="http://www.w3.org/1999/xlink">
<g id="graph0" class="graph" transform="scale(1 1) rotate(0) translate(4 562)">
<title>orphans</title>
<polygon fill="#ffffff" stroke="transparent" points="-4,4 -4,-562 261,-562 261,4 -4,4"/>
<!-- value_list_base -->
<g id="node1" class="node">
<title>value_list_base</title>
<g id="a_node1"><a xlink:href="../../tables/value_list_base.html" xlink:title="value_list_base" target="_top">
<polygon fill="#ffffff" stroke="transparent" points="8,-4 8,-554 249,-554 249,-4 8,-4"/>
<polygon fill="#f5f5f5" stroke="transparent" points="10.5,-530 10.5,-552 247.5,-552 247.5,-530 10.5,-530"/>
<polygon fill="none" stroke="black" points="10.5,-530 10.5,-552 247.5,-552 247.5,-530 10.5,-530"/>
<text text-anchor="start" x="15.5" y="-539.2" font-family="Helvetica,sans-Serif" font-weight="bold" font-size="11.00">value_list_base</text>
<text text-anchor="start" x="205.5" y="-538.2" font-family="Helvetica,sans-Serif" font-size="11.00">[table]</text>
<polygon fill="none" stroke="black" points="10.5,-508 10.5,-530 141.5,-530 141.5,-508 10.5,-508"/>
<image xlink:href="../../images/primaryKeys.png" width="11px" height="12px" preserveAspectRatio="xMinYMin meet" x="15.5" y="-525"/>
<text text-anchor="start" x="30.5" y="-516.2" font-family="Helvetica,sans-Serif" font-size="11.00">code</text>
<polygon fill="none" stroke="black" points="141.5,-508 141.5,-530 247.5,-530 247.5,-508 141.5,-508"/>
<text text-anchor="start" x="144.5" y="-516.2" font-family="Helvetica,sans-Serif" font-size="11.00">int4[10]</text>
<polygon fill="none" stroke="black" points="10.5,-486 10.5,-508 141.5,-508 141.5,-486 10.5,-486"/>
<text text-anchor="start" x="30.5" y="-494.2" font-family="Helvetica,sans-Serif" font-size="11.00">vsacode</text>
<polygon fill="none" stroke="black" points="141.5,-486 141.5,-508 247.5,-508 247.5,-486 141.5,-486"/>
<text text-anchor="start" x="144.5" y="-494.2" font-family="Helvetica,sans-Serif" font-size="11.00">int4[10]</text>
<polygon fill="none" stroke="black" points="10.5,-464 10.5,-486 141.5,-486 141.5,-464 10.5,-464"/>
<text text-anchor="start" x="30.5" y="-472.2" font-family="Helvetica,sans-Serif" font-size="11.00">value_en</text>
<polygon fill="none" stroke="black" points="141.5,-464 141.5,-486 247.5,-486 247.5,-464 141.5,-464"/>
<text text-anchor="start" x="144.5" y="-472.2" font-family="Helvetica,sans-Serif" font-size="11.00">varchar[100]</text>
<polygon fill="none" stroke="black" points="10.5,-442 10.5,-464 141.5,-464 141.5,-442 10.5,-442"/>
<text text-anchor="start" x="30.5" y="-450.2" font-family="Helvetica,sans-Serif" font-size="11.00">value_de</text>
<polygon fill="none" stroke="black" points="141.5,-442 141.5,-464 247.5,-464 247.5,-442 141.5,-442"/>
<text text-anchor="start" x="144.5" y="-450.2" font-family="Helvetica,sans-Serif" font-size="11.00">varchar[100]</text>
<polygon fill="none" stroke="black" points="10.5,-420 10.5,-442 141.5,-442 141.5,-420 10.5,-420"/>
<text text-anchor="start" x="30.5" y="-428.2" font-family="Helvetica,sans-Serif" font-size="11.00">value_fr</text>
<polygon fill="none" stroke="black" points="141.5,-420 141.5,-442 247.5,-442 247.5,-420 141.5,-420"/>
<text text-anchor="start" x="144.5" y="-428.2" font-family="Helvetica,sans-Serif" font-size="11.00">varchar[100]</text>
<polygon fill="none" stroke="black" points="10.5,-398 10.5,-420 141.5,-420 141.5,-398 10.5,-398"/>
<text text-anchor="start" x="30.5" y="-406.2" font-family="Helvetica,sans-Serif" font-size="11.00">value_it</text>
<polygon fill="none" stroke="black" points="141.5,-398 141.5,-420 247.5,-420 247.5,-398 141.5,-398"/>
<text text-anchor="start" x="144.5" y="-406.2" font-family="Helvetica,sans-Serif" font-size="11.00">varchar[100]</text>
<polygon fill="none" stroke="black" points="10.5,-376 10.5,-398 141.5,-398 141.5,-376 10.5,-376"/>
<text text-anchor="start" x="30.5" y="-384.2" font-family="Helvetica,sans-Serif" font-size="11.00">value_ro</text>
<polygon fill="none" stroke="black" points="141.5,-376 141.5,-398 247.5,-398 247.5,-376 141.5,-376"/>
<text text-anchor="start" x="144.5" y="-384.2" font-family="Helvetica,sans-Serif" font-size="11.00">varchar[100]</text>
<polygon fill="none" stroke="black" points="10.5,-354 10.5,-376 141.5,-376 141.5,-354 10.5,-354"/>
<text text-anchor="start" x="30.5" y="-362.2" font-family="Helvetica,sans-Serif" font-size="11.00">abbr_en</text>
<polygon fill="none" stroke="black" points="141.5,-354 141.5,-376 247.5,-376 247.5,-354 141.5,-354"/>
<text text-anchor="start" x="144.5" y="-362.2" font-family="Helvetica,sans-Serif" font-size="11.00">varchar[3]</text>
<polygon fill="none" stroke="black" points="10.5,-332 10.5,-354 141.5,-354 141.5,-332 10.5,-332"/>
<text text-anchor="start" x="30.5" y="-340.2" font-family="Helvetica,sans-Serif" font-size="11.00">abbr_de</text>
<polygon fill="none" stroke="black" points="141.5,-332 141.5,-354 247.5,-354 247.5,-332 141.5,-332"/>
<text text-anchor="start" x="144.5" y="-340.2" font-family="Helvetica,sans-Serif" font-size="11.00">varchar[3]</text>
<polygon fill="none" stroke="black" points="10.5,-310 10.5,-332 141.5,-332 141.5,-310 10.5,-310"/>
<text text-anchor="start" x="30.5" y="-318.2" font-family="Helvetica,sans-Serif" font-size="11.00">abbr_fr</text>
<polygon fill="none" stroke="black" points="141.5,-310 141.5,-332 247.5,-332 247.5,-310 141.5,-310"/>
<text text-anchor="start" x="144.5" y="-318.2" font-family="Helvetica,sans-Serif" font-size="11.00">varchar[3]</text>
<polygon fill="none" stroke="black" points="10.5,-288 10.5,-310 141.5,-310 141.5,-288 10.5,-288"/>
<text text-anchor="start" x="30.5" y="-296.2" font-family="Helvetica,sans-Serif" font-size="11.00">abbr_it</text>
<polygon fill="none" stroke="black" points="141.5,-288 141.5,-310 247.5,-310 247.5,-288 141.5,-288"/>
<text text-anchor="start" x="144.5" y="-296.2" font-family="Helvetica,sans-Serif" font-size="11.00">varchar[3]</text>
<polygon fill="none" stroke="black" points="10.5,-266 10.5,-288 141.5,-288 141.5,-266 10.5,-266"/>
<text text-anchor="start" x="30.5" y="-274.2" font-family="Helvetica,sans-Serif" font-size="11.00">abbr_ro</text>
<polygon fill="none" stroke="black" points="141.5,-266 141.5,-288 247.5,-288 247.5,-266 141.5,-266"/>
<text text-anchor="start" x="144.5" y="-274.2" font-family="Helvetica,sans-Serif" font-size="11.00">varchar[3]</text>
<polygon fill="none" stroke="black" points="10.5,-244 10.5,-266 141.5,-266 141.5,-244 10.5,-244"/>
<text text-anchor="start" x="30.5" y="-252.2" font-family="Helvetica,sans-Serif" font-size="11.00">description_en</text>
<polygon fill="none" stroke="black" points="141.5,-244 141.5,-266 247.5,-266 247.5,-244 141.5,-244"/>
<text text-anchor="start" x="144.5" y="-252.2" font-family="Helvetica,sans-Serif" font-size="11.00">text[2147483647]</text>
<polygon fill="none" stroke="black" points="10.5,-222 10.5,-244 141.5,-244 141.5,-222 10.5,-222"/>
<text text-anchor="start" x="30.5" y="-230.2" font-family="Helvetica,sans-Serif" font-size="11.00">description_de</text>
<polygon fill="none" stroke="black" points="141.5,-222 141.5,-244 247.5,-244 247.5,-222 141.5,-222"/>
<text text-anchor="start" x="144.5" y="-230.2" font-family="Helvetica,sans-Serif" font-size="11.00">text[2147483647]</text>
<polygon fill="none" stroke="black" points="10.5,-200 10.5,-222 141.5,-222 141.5,-200 10.5,-200"/>
<text text-anchor="start" x="30.5" y="-208.2" font-family="Helvetica,sans-Serif" font-size="11.00">description_fr</text>
<polygon fill="none" stroke="black" points="141.5,-200 141.5,-222 247.5,-222 247.5,-200 141.5,-200"/>
<text text-anchor="start" x="144.5" y="-208.2" font-family="Helvetica,sans-Serif" font-size="11.00">text[2147483647]</text>
<polygon fill="none" stroke="black" points="10.5,-178 10.5,-200 141.5,-200 141.5,-178 10.5,-178"/>
<text text-anchor="start" x="30.5" y="-186.2" font-family="Helvetica,sans-Serif" font-size="11.00">description_it</text>
<polygon fill="none" stroke="black" points="141.5,-178 141.5,-200 247.5,-200 247.5,-178 141.5,-178"/>
<text text-anchor="start" x="144.5" y="-186.2" font-family="Helvetica,sans-Serif" font-size="11.00">text[2147483647]</text>
<polygon fill="none" stroke="black" points="10.5,-156 10.5,-178 141.5,-178 141.5,-156 10.5,-156"/>
<text text-anchor="start" x="30.5" y="-164.2" font-family="Helvetica,sans-Serif" font-size="11.00">description_ro</text>
<polygon fill="none" stroke="black" points="141.5,-156 141.5,-178 247.5,-178 247.5,-156 141.5,-156"/>
<text text-anchor="start" x="144.5" y="-164.2" font-family="Helvetica,sans-Serif" font-size="11.00">text[2147483647]</text>
<polygon fill="none" stroke="black" points="10.5,-134 10.5,-156 141.5,-156 141.5,-134 10.5,-134"/>
<text text-anchor="start" x="30.5" y="-142.2" font-family="Helvetica,sans-Serif" font-size="11.00">display_en</text>
<polygon fill="none" stroke="black" points="141.5,-134 141.5,-156 247.5,-156 247.5,-134 141.5,-134"/>
<text text-anchor="start" x="144.5" y="-142.2" font-family="Helvetica,sans-Serif" font-size="11.00">varchar[100]</text>
<polygon fill="none" stroke="black" points="10.5,-112 10.5,-134 141.5,-134 141.5,-112 10.5,-112"/>
<text text-anchor="start" x="30.5" y="-120.2" font-family="Helvetica,sans-Serif" font-size="11.00">display_de</text>
<polygon fill="none" stroke="black" points="141.5,-112 141.5,-134 247.5,-134 247.5,-112 141.5,-112"/>
<text text-anchor="start" x="144.5" y="-120.2" font-family="Helvetica,sans-Serif" font-size="11.00">varchar[100]</text>
<polygon fill="none" stroke="black" points="10.5,-90 10.5,-112 141.5,-112 141.5,-90 10.5,-90"/>
<text text-anchor="start" x="30.5" y="-98.2" font-family="Helvetica,sans-Serif" font-size="11.00">display_fr</text>
<polygon fill="none" stroke="black" points="141.5,-90 141.5,-112 247.5,-112 247.5,-90 141.5,-90"/>
<text text-anchor="start" x="144.5" y="-98.2" font-family="Helvetica,sans-Serif" font-size="11.00">varchar[100]</text>
<polygon fill="none" stroke="black" points="10.5,-68 10.5,-90 141.5,-90 141.5,-68 10.5,-68"/>
<text text-anchor="start" x="30.5" y="-76.2" font-family="Helvetica,sans-Serif" font-size="11.00">display_it</text>
<polygon fill="none" stroke="black" points="141.5,-68 141.5,-90 247.5,-90 247.5,-68 141.5,-68"/>
<text text-anchor="start" x="144.5" y="-76.2" font-family="Helvetica,sans-Serif" font-size="11.00">varchar[100]</text>
<polygon fill="none" stroke="black" points="10.5,-46 10.5,-68 141.5,-68 141.5,-46 10.5,-46"/>
<text text-anchor="start" x="30.5" y="-54.2" font-family="Helvetica,sans-Serif" font-size="11.00">display_ro</text>
<polygon fill="none" stroke="black" points="141.5,-46 141.5,-68 247.5,-68 247.5,-46 141.5,-46"/>
<text text-anchor="start" x="144.5" y="-54.2" font-family="Helvetica,sans-Serif" font-size="11.00">varchar[100]</text>
<polygon fill="none" stroke="black" points="10.5,-24 10.5,-46 141.5,-46 141.5,-24 10.5,-24"/>
<text text-anchor="start" x="30.5" y="-32.2" font-family="Helvetica,sans-Serif" font-size="11.00">active</text>
<polygon fill="none" stroke="black" points="141.5,-24 141.5,-46 247.5,-46 247.5,-24 141.5,-24"/>
<text text-anchor="start" x="144.5" y="-32.2" font-family="Helvetica,sans-Serif" font-size="11.00">bool[1]</text>
<polygon fill="#ffffff" stroke="transparent" points="10.5,-6 10.5,-24 247.5,-24 247.5,-6 10.5,-6"/>
<polygon fill="none" stroke="black" points="10.5,-6 10.5,-24 247.5,-24 247.5,-6 10.5,-6"/>
<polygon fill="#ffffff" stroke="transparent" points="11.5,-7 11.5,-23 94.5,-23 94.5,-7 11.5,-7"/>
<text text-anchor="start" x="13.5" y="-12.2" font-family="Helvetica,sans-Serif" font-size="11.00">&lt; 0</text>
<polygon fill="#ffffff" stroke="transparent" points="94.5,-7 94.5,-23 164.5,-23 164.5,-7 94.5,-7"/>
<text text-anchor="start" x="125.5" y="-12.2" font-family="Helvetica,sans-Serif" font-size="11.00"> &#160;</text>
<polygon fill="#ffffff" stroke="transparent" points="164.5,-7 164.5,-23 246.5,-23 246.5,-7 164.5,-7"/>
<text text-anchor="start" x="224.5" y="-12.2" font-family="Helvetica,sans-Serif" font-size="11.00">0 &gt;</text>
<polygon fill="black" stroke="black" points="94.5,-7 94.5,-23 94.5,-23 94.5,-7 94.5,-7"/>
<polygon fill="black" stroke="black" points="164.5,-7 164.5,-23 164.5,-23 164.5,-7 164.5,-7"/>
<polygon fill="none" stroke="black" stroke-width="2" points="9,-5 9,-553 248,-553 248,-5 9,-5"/>
</a>
</g>
</g>
</g>
</svg>
