<?xml version="1.0" encoding="UTF-8" standalone="no"?>
<!DOCTYPE svg PUBLIC "-//W3C//DTD SVG 1.1//EN"
 "http://www.w3.org/Graphics/SVG/1.1/DTD/svg11.dtd">
<!-- Generated by graphviz version 2.47.1 (20210515.0534)
 -->
<!-- Title: oneDegreeRelationshipsDiagram Pages: 1 -->
<svg width="378pt" height="753pt"
 viewBox="0.00 0.00 378.00 753.00" xmlns="http://www.w3.org/2000/svg" xmlns:xlink="http://www.w3.org/1999/xlink">
<g id="graph0" class="graph" transform="scale(1 1) rotate(0) translate(4 749)">
<title>oneDegreeRelationshipsDiagram</title>
<polygon fill="#ffffff" stroke="transparent" points="-4,4 -4,-749 374,-749 374,4 -4,4"/>
<text text-anchor="middle" x="73.5" y="-7.2" font-family="Helvetica,sans-Serif" font-size="11.00">Generated by SchemaSpy</text>
<!-- dictionary_od_field -->
<g id="node1" class="node">
<title>dictionary_od_field</title>
<g id="a_node1"><a xlink:href="../../tables/dictionary_od_field.html" xlink:title="dictionary_od_field" target="_top">
<polygon fill="#ffffff" stroke="transparent" points="8,-37 8,-741 362,-741 362,-37 8,-37"/>
<polygon fill="#f5f5f5" stroke="transparent" points="10,-717 10,-739 360,-739 360,-717 10,-717"/>
<polygon fill="none" stroke="black" points="10,-717 10,-739 360,-739 360,-717 10,-717"/>
<text text-anchor="start" x="15" y="-726.2" font-family="Helvetica,sans-Serif" font-weight="bold" font-size="11.00">dictionary_od_field</text>
<text text-anchor="start" x="321" y="-725.2" font-family="Helvetica,sans-Serif" font-size="11.00">[table]</text>
<polygon fill="none" stroke="black" points="10,-695 10,-717 179,-717 179,-695 10,-695"/>
<image xlink:href="../../images/primaryKeys.png" width="11px" height="12px" preserveAspectRatio="xMinYMin meet" x="15" y="-712"/>
<text text-anchor="start" x="30" y="-703.2" font-family="Helvetica,sans-Serif" font-size="11.00">id</text>
<polygon fill="none" stroke="black" points="179,-695 179,-717 360,-717 360,-695 179,-695"/>
<text text-anchor="start" x="182" y="-703.2" font-family="Helvetica,sans-Serif" font-size="11.00">serial[10]</text>
<polygon fill="#ffffff" stroke="transparent" points="10,-673 10,-695 179,-695 179,-673 10,-673"/>
<polygon fill="none" stroke="black" points="10,-673 10,-695 179,-695 179,-673 10,-673"/>
<text text-anchor="start" x="30" y="-681.2" font-family="Helvetica,sans-Serif" font-size="11.00">class_id</text>
<polygon fill="none" stroke="black" points="179,-673 179,-695 360,-695 360,-673 179,-673"/>
<text text-anchor="start" x="182" y="-681.2" font-family="Helvetica,sans-Serif" font-size="11.00">int4[10]</text>
<polygon fill="#ffffff" stroke="transparent" points="10,-651 10,-673 179,-673 179,-651 10,-651"/>
<polygon fill="none" stroke="black" points="10,-651 10,-673 179,-673 179,-651 10,-651"/>
<text text-anchor="start" x="30" y="-659.2" font-family="Helvetica,sans-Serif" font-size="11.00">attribute_id</text>
<polygon fill="none" stroke="black" points="179,-651 179,-673 360,-673 360,-651 179,-651"/>
<text text-anchor="start" x="182" y="-659.2" font-family="Helvetica,sans-Serif" font-size="11.00">int4[10]</text>
<polygon fill="none" stroke="black" points="10,-629 10,-651 179,-651 179,-629 10,-629"/>
<text text-anchor="start" x="30" y="-637.2" font-family="Helvetica,sans-Serif" font-size="11.00">table_name</text>
<polygon fill="none" stroke="black" points="179,-629 179,-651 360,-651 360,-629 179,-629"/>
<text text-anchor="start" x="182" y="-637.2" font-family="Helvetica,sans-Serif" font-size="11.00">varchar[80]</text>
<polygon fill="none" stroke="black" points="10,-607 10,-629 179,-629 179,-607 10,-607"/>
<text text-anchor="start" x="30" y="-615.2" font-family="Helvetica,sans-Serif" font-size="11.00">field_name</text>
<polygon fill="none" stroke="black" points="179,-607 179,-629 360,-629 360,-607 179,-607"/>
<text text-anchor="start" x="182" y="-615.2" font-family="Helvetica,sans-Serif" font-size="11.00">varchar[80]</text>
<polygon fill="none" stroke="black" points="10,-585 10,-607 179,-607 179,-585 10,-585"/>
<text text-anchor="start" x="30" y="-593.2" font-family="Helvetica,sans-Serif" font-size="11.00">field_name_en</text>
<polygon fill="none" stroke="black" points="179,-585 179,-607 360,-607 360,-585 179,-585"/>
<text text-anchor="start" x="182" y="-593.2" font-family="Helvetica,sans-Serif" font-size="11.00">varchar[80]</text>
<polygon fill="none" stroke="black" points="10,-563 10,-585 179,-585 179,-563 10,-563"/>
<text text-anchor="start" x="30" y="-571.2" font-family="Helvetica,sans-Serif" font-size="11.00">field_name_de</text>
<polygon fill="none" stroke="black" points="179,-563 179,-585 360,-585 360,-563 179,-563"/>
<text text-anchor="start" x="182" y="-571.2" font-family="Helvetica,sans-Serif" font-size="11.00">varchar[100]</text>
<polygon fill="none" stroke="black" points="10,-541 10,-563 179,-563 179,-541 10,-541"/>
<text text-anchor="start" x="30" y="-549.2" font-family="Helvetica,sans-Serif" font-size="11.00">field_name_fr</text>
<polygon fill="none" stroke="black" points="179,-541 179,-563 360,-563 360,-541 179,-541"/>
<text text-anchor="start" x="182" y="-549.2" font-family="Helvetica,sans-Serif" font-size="11.00">varchar[100]</text>
<polygon fill="none" stroke="black" points="10,-519 10,-541 179,-541 179,-519 10,-519"/>
<text text-anchor="start" x="30" y="-527.2" font-family="Helvetica,sans-Serif" font-size="11.00">field_name_it</text>
<polygon fill="none" stroke="black" points="179,-519 179,-541 360,-541 360,-519 179,-519"/>
<text text-anchor="start" x="182" y="-527.2" font-family="Helvetica,sans-Serif" font-size="11.00">varchar[100]</text>
<polygon fill="none" stroke="black" points="10,-497 10,-519 179,-519 179,-497 10,-497"/>
<text text-anchor="start" x="30" y="-505.2" font-family="Helvetica,sans-Serif" font-size="11.00">field_name_ro</text>
<polygon fill="none" stroke="black" points="179,-497 179,-519 360,-519 360,-497 179,-497"/>
<text text-anchor="start" x="182" y="-505.2" font-family="Helvetica,sans-Serif" font-size="11.00">varchar[100]</text>
<polygon fill="none" stroke="black" points="10,-475 10,-497 179,-497 179,-475 10,-475"/>
<text text-anchor="start" x="30" y="-483.2" font-family="Helvetica,sans-Serif" font-size="11.00">field_description_en</text>
<polygon fill="none" stroke="black" points="179,-475 179,-497 360,-497 360,-475 179,-475"/>
<text text-anchor="start" x="182" y="-483.2" font-family="Helvetica,sans-Serif" font-size="11.00">text[2147483647]</text>
<polygon fill="none" stroke="black" points="10,-453 10,-475 179,-475 179,-453 10,-453"/>
<text text-anchor="start" x="30" y="-461.2" font-family="Helvetica,sans-Serif" font-size="11.00">field_description_de</text>
<polygon fill="none" stroke="black" points="179,-453 179,-475 360,-475 360,-453 179,-453"/>
<text text-anchor="start" x="182" y="-461.2" font-family="Helvetica,sans-Serif" font-size="11.00">text[2147483647]</text>
<polygon fill="none" stroke="black" points="10,-431 10,-453 179,-453 179,-431 10,-431"/>
<text text-anchor="start" x="30" y="-439.2" font-family="Helvetica,sans-Serif" font-size="11.00">field_description_fr</text>
<polygon fill="none" stroke="black" points="179,-431 179,-453 360,-453 360,-431 179,-431"/>
<text text-anchor="start" x="182" y="-439.2" font-family="Helvetica,sans-Serif" font-size="11.00">text[2147483647]</text>
<polygon fill="none" stroke="black" points="10,-409 10,-431 179,-431 179,-409 10,-409"/>
<text text-anchor="start" x="30" y="-417.2" font-family="Helvetica,sans-Serif" font-size="11.00">field_description_it</text>
<polygon fill="none" stroke="black" points="179,-409 179,-431 360,-431 360,-409 179,-409"/>
<text text-anchor="start" x="182" y="-417.2" font-family="Helvetica,sans-Serif" font-size="11.00">text[2147483647]</text>
<polygon fill="none" stroke="black" points="10,-387 10,-409 179,-409 179,-387 10,-387"/>
<text text-anchor="start" x="30" y="-395.2" font-family="Helvetica,sans-Serif" font-size="11.00">field_description_ro</text>
<polygon fill="none" stroke="black" points="179,-387 179,-409 360,-409 360,-387 179,-387"/>
<text text-anchor="start" x="182" y="-395.2" font-family="Helvetica,sans-Serif" font-size="11.00">text[2147483647]</text>
<polygon fill="none" stroke="black" points="10,-365 10,-387 179,-387 179,-365 10,-365"/>
<text text-anchor="start" x="30" y="-373.2" font-family="Helvetica,sans-Serif" font-size="11.00">field_mandatory</text>
<polygon fill="none" stroke="black" points="179,-365 179,-387 360,-387 360,-365 179,-365"/>
<text text-anchor="start" x="182" y="-373.2" font-family="Helvetica,sans-Serif" font-size="11.00">&quot;tdh_od&quot;.&quot;_plantype&quot;[2147483647]</text>
<polygon fill="none" stroke="black" points="10,-343 10,-365 179,-365 179,-343 10,-343"/>
<text text-anchor="start" x="30" y="-351.2" font-family="Helvetica,sans-Serif" font-size="11.00">field_visible</text>
<polygon fill="none" stroke="black" points="179,-343 179,-365 360,-365 360,-343 179,-343"/>
<text text-anchor="start" x="182" y="-351.2" font-family="Helvetica,sans-Serif" font-size="11.00">bool[1]</text>
<polygon fill="none" stroke="black" points="10,-321 10,-343 179,-343 179,-321 10,-321"/>
<text text-anchor="start" x="30" y="-329.2" font-family="Helvetica,sans-Serif" font-size="11.00">field_datatype</text>
<polygon fill="none" stroke="black" points="179,-321 179,-343 360,-343 360,-321 179,-321"/>
<text text-anchor="start" x="182" y="-329.2" font-family="Helvetica,sans-Serif" font-size="11.00">varchar[40]</text>
<polygon fill="none" stroke="black" points="10,-299 10,-321 179,-321 179,-299 10,-299"/>
<text text-anchor="start" x="30" y="-307.2" font-family="Helvetica,sans-Serif" font-size="11.00">field_unit_de</text>
<polygon fill="none" stroke="black" points="179,-299 179,-321 360,-321 360,-299 179,-299"/>
<text text-anchor="start" x="182" y="-307.2" font-family="Helvetica,sans-Serif" font-size="11.00">varchar[20]</text>
<polygon fill="none" stroke="black" points="10,-277 10,-299 179,-299 179,-277 10,-277"/>
<text text-anchor="start" x="30" y="-285.2" font-family="Helvetica,sans-Serif" font-size="11.00">field_unit_description_de</text>
<polygon fill="none" stroke="black" points="179,-277 179,-299 360,-299 360,-277 179,-277"/>
<text text-anchor="start" x="182" y="-285.2" font-family="Helvetica,sans-Serif" font-size="11.00">varchar[90]</text>
<polygon fill="none" stroke="black" points="10,-255 10,-277 179,-277 179,-255 10,-255"/>
<text text-anchor="start" x="30" y="-263.2" font-family="Helvetica,sans-Serif" font-size="11.00">field_unit_en</text>
<polygon fill="none" stroke="black" points="179,-255 179,-277 360,-277 360,-255 179,-255"/>
<text text-anchor="start" x="182" y="-263.2" font-family="Helvetica,sans-Serif" font-size="11.00">varchar[20]</text>
<polygon fill="none" stroke="black" points="10,-233 10,-255 179,-255 179,-233 10,-233"/>
<text text-anchor="start" x="30" y="-241.2" font-family="Helvetica,sans-Serif" font-size="11.00">field_unit_description_en</text>
<polygon fill="none" stroke="black" points="179,-233 179,-255 360,-255 360,-233 179,-233"/>
<text text-anchor="start" x="182" y="-241.2" font-family="Helvetica,sans-Serif" font-size="11.00">varchar[90]</text>
<polygon fill="none" stroke="black" points="10,-211 10,-233 179,-233 179,-211 10,-211"/>
<text text-anchor="start" x="30" y="-219.2" font-family="Helvetica,sans-Serif" font-size="11.00">field_unit_fr</text>
<polygon fill="none" stroke="black" points="179,-211 179,-233 360,-233 360,-211 179,-211"/>
<text text-anchor="start" x="182" y="-219.2" font-family="Helvetica,sans-Serif" font-size="11.00">varchar[20]</text>
<polygon fill="none" stroke="black" points="10,-189 10,-211 179,-211 179,-189 10,-189"/>
<text text-anchor="start" x="30" y="-197.2" font-family="Helvetica,sans-Serif" font-size="11.00">field_unit_description_fr</text>
<polygon fill="none" stroke="black" points="179,-189 179,-211 360,-211 360,-189 179,-189"/>
<text text-anchor="start" x="182" y="-197.2" font-family="Helvetica,sans-Serif" font-size="11.00">varchar[90]</text>
<polygon fill="none" stroke="black" points="10,-167 10,-189 179,-189 179,-167 10,-167"/>
<text text-anchor="start" x="30" y="-175.2" font-family="Helvetica,sans-Serif" font-size="11.00">field_unit_it</text>
<polygon fill="none" stroke="black" points="179,-167 179,-189 360,-189 360,-167 179,-167"/>
<text text-anchor="start" x="182" y="-175.2" font-family="Helvetica,sans-Serif" font-size="11.00">varchar[20]</text>
<polygon fill="none" stroke="black" points="10,-145 10,-167 179,-167 179,-145 10,-145"/>
<text text-anchor="start" x="30" y="-153.2" font-family="Helvetica,sans-Serif" font-size="11.00">field_unit_description_it</text>
<polygon fill="none" stroke="black" points="179,-145 179,-167 360,-167 360,-145 179,-145"/>
<text text-anchor="start" x="182" y="-153.2" font-family="Helvetica,sans-Serif" font-size="11.00">varchar[90]</text>
<polygon fill="none" stroke="black" points="10,-123 10,-145 179,-145 179,-123 10,-123"/>
<text text-anchor="start" x="30" y="-131.2" font-family="Helvetica,sans-Serif" font-size="11.00">field_unit_ro</text>
<polygon fill="none" stroke="black" points="179,-123 179,-145 360,-145 360,-123 179,-123"/>
<text text-anchor="start" x="182" y="-131.2" font-family="Helvetica,sans-Serif" font-size="11.00">varchar[20]</text>
<polygon fill="none" stroke="black" points="10,-101 10,-123 179,-123 179,-101 10,-101"/>
<text text-anchor="start" x="30" y="-109.2" font-family="Helvetica,sans-Serif" font-size="11.00">field_unit_description_ro</text>
<polygon fill="none" stroke="black" points="179,-101 179,-123 360,-123 360,-101 179,-101"/>
<text text-anchor="start" x="182" y="-109.2" font-family="Helvetica,sans-Serif" font-size="11.00">varchar[90]</text>
<polygon fill="none" stroke="black" points="10,-79 10,-101 179,-101 179,-79 10,-79"/>
<text text-anchor="start" x="30" y="-87.2" font-family="Helvetica,sans-Serif" font-size="11.00">field_min</text>
<polygon fill="none" stroke="black" points="179,-79 179,-101 360,-101 360,-79 179,-79"/>
<text text-anchor="start" x="182" y="-87.2" font-family="Helvetica,sans-Serif" font-size="11.00">numeric[0]</text>
<polygon fill="none" stroke="black" points="10,-57 10,-79 179,-79 179,-57 10,-57"/>
<text text-anchor="start" x="30" y="-65.2" font-family="Helvetica,sans-Serif" font-size="11.00">field_max</text>
<polygon fill="none" stroke="black" points="179,-57 179,-79 360,-79 360,-57 179,-57"/>
<text text-anchor="start" x="182" y="-65.2" font-family="Helvetica,sans-Serif" font-size="11.00">numeric[0]</text>
<polygon fill="#ffffff" stroke="transparent" points="10,-39 10,-57 79,-57 79,-39 10,-39"/>
<polygon fill="none" stroke="black" points="10,-39 10,-57 79,-57 79,-39 10,-39"/>
<text text-anchor="start" x="13" y="-45.2" font-family="Helvetica,sans-Serif" font-size="11.00">&lt; 0</text>
<polygon fill="#ffffff" stroke="transparent" points="79,-39 79,-57 179,-57 179,-39 79,-39"/>
<polygon fill="none" stroke="black" points="79,-39 79,-57 179,-57 179,-39 79,-39"/>
<text text-anchor="start" x="130" y="-45.2" font-family="Helvetica,sans-Serif" font-size="11.00">139 rows</text>
<polygon fill="#ffffff" stroke="transparent" points="179,-39 179,-57 360,-57 360,-39 179,-39"/>
<polygon fill="none" stroke="black" points="179,-39 179,-57 360,-57 360,-39 179,-39"/>
<text text-anchor="start" x="341" y="-45.2" font-family="Helvetica,sans-Serif" font-size="11.00">0 &gt;</text>
<polygon fill="none" stroke="black" stroke-width="2" points="9,-38 9,-740 361,-740 361,-38 9,-38"/>
</a>
</g>
</g>
</g>
</svg>
