<?xml version="1.0" encoding="UTF-8" standalone="no"?>
<!DOCTYPE svg PUBLIC "-//W3C//DTD SVG 1.1//EN"
 "http://www.w3.org/Graphics/SVG/1.1/DTD/svg11.dtd">
<!-- Generated by graphviz version 2.43.0 (0)
 -->
<!-- Title: oneDegreeRelationshipsDiagram Pages: 1 -->
<svg width="582pt" height="531pt"
 viewBox="0.00 0.00 582.00 531.00" xmlns="http://www.w3.org/2000/svg" xmlns:xlink="http://www.w3.org/1999/xlink">
<g id="graph0" class="graph" transform="scale(1 1) rotate(0) translate(4 527)">
<title>oneDegreeRelationshipsDiagram</title>
<polygon fill="#ffffff" stroke="transparent" points="-4,4 -4,-527 578,-527 578,4 -4,4"/>
<text text-anchor="middle" x="79.5" y="-7.2" font-family="Helvetica,sans-Serif" font-size="11.00">Generated by SchemaSpy</text>
<!-- tdh_od.pipe_section -->
<g id="node1" class="node">
<title>tdh_od.pipe_section</title>
<g id="a_node1"><a xlink:href="../../../tdh_od/tables/pipe_section.html" xlink:title="tdh_od.pipe_section" target="_top">
<polygon fill="#ffffff" stroke="transparent" points="374,-285 374,-519 566,-519 566,-285 374,-285"/>
<polygon fill="#f5f5f5" stroke="transparent" points="374,-497 374,-519 566,-519 566,-497 374,-497"/>
<polygon fill="none" stroke="black" points="374,-497 374,-519 566,-519 566,-497 374,-497"/>
<text text-anchor="start" x="379" y="-506.2" font-family="Helvetica,sans-Serif" font-weight="bold" font-size="11.00">tdh_od.pipe_section</text>
<text text-anchor="start" x="524" y="-505.2" font-family="Helvetica,sans-Serif" font-size="11.00">[table]</text>
<polygon fill="none" stroke="black" points="374,-475 374,-497 566,-497 566,-475 374,-475"/>
<image xlink:href="../../images/foreignKeys.png" width="11px" height="12px" preserveAspectRatio="xMinYMin meet" x="379" y="-492"/>
<text text-anchor="start" x="397" y="-483.2" font-family="Helvetica,sans-Serif" font-size="11.00">horizontal_positioning</text>
<polygon fill="none" stroke="black" points="374,-453 374,-475 566,-475 566,-453 374,-453"/>
<image xlink:href="../../images/foreignKeys.png" width="11px" height="12px" preserveAspectRatio="xMinYMin meet" x="379" y="-470"/>
<text text-anchor="start" x="397" y="-461.2" font-family="Helvetica,sans-Serif" font-size="11.00">status</text>
<polygon fill="none" stroke="black" points="374,-431 374,-453 566,-453 566,-431 374,-431"/>
<image xlink:href="../../images/foreignKeys.png" width="11px" height="12px" preserveAspectRatio="xMinYMin meet" x="379" y="-448"/>
<text text-anchor="start" x="397" y="-439.2" font-family="Helvetica,sans-Serif" font-size="11.00">function</text>
<polygon fill="none" stroke="black" points="374,-409 374,-431 566,-431 566,-409 374,-409"/>
<image xlink:href="../../images/foreignKeys.png" width="11px" height="12px" preserveAspectRatio="xMinYMin meet" x="379" y="-426"/>
<text text-anchor="start" x="397" y="-417.2" font-family="Helvetica,sans-Serif" font-size="11.00">pipe_type</text>
<polygon fill="none" stroke="black" points="374,-387 374,-409 566,-409 566,-387 374,-387"/>
<image xlink:href="../../images/foreignKeys.png" width="11px" height="12px" preserveAspectRatio="xMinYMin meet" x="379" y="-404"/>
<text text-anchor="start" x="397" y="-395.2" font-family="Helvetica,sans-Serif" font-size="11.00">fluent</text>
<polygon fill="none" stroke="black" points="374,-365 374,-387 566,-387 566,-365 374,-365"/>
<image xlink:href="../../images/foreignKeys.png" width="11px" height="12px" preserveAspectRatio="xMinYMin meet" x="379" y="-382"/>
<text text-anchor="start" x="397" y="-373.2" font-family="Helvetica,sans-Serif" font-size="11.00">insulation_kind</text>
<polygon fill="none" stroke="black" points="374,-343 374,-365 566,-365 566,-343 374,-343"/>
<image xlink:href="../../images/foreignKeys.png" width="11px" height="12px" preserveAspectRatio="xMinYMin meet" x="379" y="-360"/>
<text text-anchor="start" x="397" y="-351.2" font-family="Helvetica,sans-Serif" font-size="11.00">coating</text>
<polygon fill="none" stroke="black" points="374,-321 374,-343 566,-343 566,-321 374,-321"/>
<image xlink:href="../../images/foreignKeys.png" width="11px" height="12px" preserveAspectRatio="xMinYMin meet" x="379" y="-338"/>
<text text-anchor="start" x="397" y="-329.2" font-family="Helvetica,sans-Serif" font-size="11.00">pipeline_quality</text>
<polygon fill="none" stroke="black" points="374,-303 374,-321 566,-321 566,-303 374,-303"/>
<text text-anchor="start" x="377" y="-309.2" font-family="Helvetica,sans-Serif" font-size="11.00">...</text>
<polygon fill="#ffffff" stroke="transparent" points="374,-285 374,-303 566,-303 566,-285 374,-285"/>
<polygon fill="none" stroke="black" points="374,-285 374,-303 566,-303 566,-285 374,-285"/>
<polygon fill="#ffffff" stroke="transparent" points="375,-286 375,-302 437,-302 437,-286 375,-286"/>
<text text-anchor="start" x="377" y="-291.2" font-family="Helvetica,sans-Serif" font-size="11.00">&lt; 8</text>
<polygon fill="#ffffff" stroke="transparent" points="437,-286 437,-302 516,-302 516,-286 437,-286"/>
<text text-anchor="start" x="458" y="-291.2" font-family="Helvetica,sans-Serif" font-size="11.00">0 rows</text>
<polygon fill="#ffffff" stroke="transparent" points="516,-286 516,-302 565,-302 565,-286 516,-286"/>
<text text-anchor="start" x="555" y="-291.2" font-family="Helvetica,sans-Serif" font-size="11.00"> &#160;</text>
<polygon fill="black" stroke="black" points="437,-286 437,-302 437,-302 437,-286 437,-286"/>
<polygon fill="black" stroke="black" points="516,-286 516,-302 516,-302 516,-286 516,-286"/>
</a>
</g>
</g>
<!-- pipe_section_pipeline_quality -->
<g id="node2" class="node">
<title>pipe_section_pipeline_quality</title>
<g id="a_node2"><a xlink:href="../../tables/pipe_section_pipeline_quality.html" xlink:title="pipe_section_pipeline_quality" target="_top">
<polygon fill="#ffffff" stroke="transparent" points="8,-37 8,-367 325,-367 325,-37 8,-37"/>
<polygon fill="#f5f5f5" stroke="transparent" points="10.5,-343 10.5,-365 323.5,-365 323.5,-343 10.5,-343"/>
<polygon fill="none" stroke="black" points="10.5,-343 10.5,-365 323.5,-365 323.5,-343 10.5,-343"/>
<text text-anchor="start" x="15.5" y="-352.2" font-family="Helvetica,sans-Serif" font-weight="bold" font-size="11.00">pipe_section_pipeline_quality</text>
<text text-anchor="start" x="281.5" y="-351.2" font-family="Helvetica,sans-Serif" font-size="11.00">[table]</text>
<polygon fill="none" stroke="black" points="10.5,-321 10.5,-343 245.5,-343 245.5,-321 10.5,-321"/>
<image xlink:href="../../images/primaryKeys.png" width="11px" height="12px" preserveAspectRatio="xMinYMin meet" x="15.5" y="-338"/>
<text text-anchor="start" x="30.5" y="-329.2" font-family="Helvetica,sans-Serif" font-size="11.00">code</text>
<polygon fill="none" stroke="black" points="245.5,-321 245.5,-343 323.5,-343 323.5,-321 245.5,-321"/>
<text text-anchor="start" x="248.5" y="-329.2" font-family="Helvetica,sans-Serif" font-size="11.00">int4[10]</text>
<polygon fill="none" stroke="black" points="10.5,-299 10.5,-321 245.5,-321 245.5,-299 10.5,-299"/>
<text text-anchor="start" x="30.5" y="-307.2" font-family="Helvetica,sans-Serif" font-size="11.00">vsacode</text>
<polygon fill="none" stroke="black" points="245.5,-299 245.5,-321 323.5,-321 323.5,-299 245.5,-299"/>
<text text-anchor="start" x="248.5" y="-307.2" font-family="Helvetica,sans-Serif" font-size="11.00">int4[10]</text>
<polygon fill="none" stroke="black" points="10.5,-277 10.5,-299 245.5,-299 245.5,-277 10.5,-277"/>
<text text-anchor="start" x="30.5" y="-285.2" font-family="Helvetica,sans-Serif" font-size="11.00">value_en</text>
<polygon fill="none" stroke="black" points="245.5,-277 245.5,-299 323.5,-299 323.5,-277 245.5,-277"/>
<text text-anchor="start" x="248.5" y="-285.2" font-family="Helvetica,sans-Serif" font-size="11.00">varchar[100]</text>
<polygon fill="none" stroke="black" points="10.5,-255 10.5,-277 245.5,-277 245.5,-255 10.5,-255"/>
<text text-anchor="start" x="30.5" y="-263.2" font-family="Helvetica,sans-Serif" font-size="11.00">value_de</text>
<polygon fill="none" stroke="black" points="245.5,-255 245.5,-277 323.5,-277 323.5,-255 245.5,-255"/>
<text text-anchor="start" x="248.5" y="-263.2" font-family="Helvetica,sans-Serif" font-size="11.00">varchar[100]</text>
<polygon fill="none" stroke="black" points="10.5,-233 10.5,-255 245.5,-255 245.5,-233 10.5,-233"/>
<text text-anchor="start" x="30.5" y="-241.2" font-family="Helvetica,sans-Serif" font-size="11.00">value_fr</text>
<polygon fill="none" stroke="black" points="245.5,-233 245.5,-255 323.5,-255 323.5,-233 245.5,-233"/>
<text text-anchor="start" x="248.5" y="-241.2" font-family="Helvetica,sans-Serif" font-size="11.00">varchar[100]</text>
<polygon fill="none" stroke="black" points="10.5,-211 10.5,-233 245.5,-233 245.5,-211 10.5,-211"/>
<text text-anchor="start" x="30.5" y="-219.2" font-family="Helvetica,sans-Serif" font-size="11.00">value_it</text>
<polygon fill="none" stroke="black" points="245.5,-211 245.5,-233 323.5,-233 323.5,-211 245.5,-211"/>
<text text-anchor="start" x="248.5" y="-219.2" font-family="Helvetica,sans-Serif" font-size="11.00">varchar[100]</text>
<polygon fill="none" stroke="black" points="10.5,-189 10.5,-211 245.5,-211 245.5,-189 10.5,-189"/>
<text text-anchor="start" x="30.5" y="-197.2" font-family="Helvetica,sans-Serif" font-size="11.00">value_ro</text>
<polygon fill="none" stroke="black" points="245.5,-189 245.5,-211 323.5,-211 323.5,-189 245.5,-189"/>
<text text-anchor="start" x="248.5" y="-197.2" font-family="Helvetica,sans-Serif" font-size="11.00">varchar[100]</text>
<polygon fill="none" stroke="black" points="10.5,-167 10.5,-189 245.5,-189 245.5,-167 10.5,-167"/>
<text text-anchor="start" x="30.5" y="-175.2" font-family="Helvetica,sans-Serif" font-size="11.00">abbr_en</text>
<polygon fill="none" stroke="black" points="245.5,-167 245.5,-189 323.5,-189 323.5,-167 245.5,-167"/>
<text text-anchor="start" x="248.5" y="-175.2" font-family="Helvetica,sans-Serif" font-size="11.00">varchar[3]</text>
<polygon fill="none" stroke="black" points="10.5,-145 10.5,-167 245.5,-167 245.5,-145 10.5,-145"/>
<text text-anchor="start" x="30.5" y="-153.2" font-family="Helvetica,sans-Serif" font-size="11.00">abbr_de</text>
<polygon fill="none" stroke="black" points="245.5,-145 245.5,-167 323.5,-167 323.5,-145 245.5,-145"/>
<text text-anchor="start" x="248.5" y="-153.2" font-family="Helvetica,sans-Serif" font-size="11.00">varchar[3]</text>
<polygon fill="none" stroke="black" points="10.5,-123 10.5,-145 245.5,-145 245.5,-123 10.5,-123"/>
<text text-anchor="start" x="30.5" y="-131.2" font-family="Helvetica,sans-Serif" font-size="11.00">abbr_fr</text>
<polygon fill="none" stroke="black" points="245.5,-123 245.5,-145 323.5,-145 323.5,-123 245.5,-123"/>
<text text-anchor="start" x="248.5" y="-131.2" font-family="Helvetica,sans-Serif" font-size="11.00">varchar[3]</text>
<polygon fill="none" stroke="black" points="10.5,-101 10.5,-123 245.5,-123 245.5,-101 10.5,-101"/>
<text text-anchor="start" x="30.5" y="-109.2" font-family="Helvetica,sans-Serif" font-size="11.00">abbr_it</text>
<polygon fill="none" stroke="black" points="245.5,-101 245.5,-123 323.5,-123 323.5,-101 245.5,-101"/>
<text text-anchor="start" x="248.5" y="-109.2" font-family="Helvetica,sans-Serif" font-size="11.00">varchar[3]</text>
<polygon fill="none" stroke="black" points="10.5,-79 10.5,-101 245.5,-101 245.5,-79 10.5,-79"/>
<text text-anchor="start" x="30.5" y="-87.2" font-family="Helvetica,sans-Serif" font-size="11.00">abbr_ro</text>
<polygon fill="none" stroke="black" points="245.5,-79 245.5,-101 323.5,-101 323.5,-79 245.5,-79"/>
<text text-anchor="start" x="248.5" y="-87.2" font-family="Helvetica,sans-Serif" font-size="11.00">varchar[3]</text>
<polygon fill="none" stroke="black" points="10.5,-57 10.5,-79 245.5,-79 245.5,-57 10.5,-57"/>
<text text-anchor="start" x="30.5" y="-65.2" font-family="Helvetica,sans-Serif" font-size="11.00">active</text>
<polygon fill="none" stroke="black" points="245.5,-57 245.5,-79 323.5,-79 323.5,-57 245.5,-57"/>
<text text-anchor="start" x="248.5" y="-65.2" font-family="Helvetica,sans-Serif" font-size="11.00">bool[1]</text>
<polygon fill="#ffffff" stroke="transparent" points="10.5,-39 10.5,-57 323.5,-57 323.5,-39 10.5,-39"/>
<polygon fill="none" stroke="black" points="10.5,-39 10.5,-57 323.5,-57 323.5,-39 10.5,-39"/>
<polygon fill="#ffffff" stroke="transparent" points="11.5,-40 11.5,-56 119.5,-56 119.5,-40 11.5,-40"/>
<text text-anchor="start" x="13.5" y="-45.2" font-family="Helvetica,sans-Serif" font-size="11.00">&lt; 0</text>
<polygon fill="#ffffff" stroke="transparent" points="119.5,-40 119.5,-56 215.5,-56 215.5,-40 119.5,-40"/>
<text text-anchor="start" x="163.5" y="-45.2" font-family="Helvetica,sans-Serif" font-size="11.00"> &#160;</text>
<polygon fill="#ffffff" stroke="transparent" points="215.5,-40 215.5,-56 322.5,-56 322.5,-40 215.5,-40"/>
<text text-anchor="start" x="300.5" y="-45.2" font-family="Helvetica,sans-Serif" font-size="11.00">1 &gt;</text>
<polygon fill="black" stroke="black" points="119.5,-40 119.5,-56 119.5,-56 119.5,-40 119.5,-40"/>
<polygon fill="black" stroke="black" points="215.5,-40 215.5,-56 215.5,-56 215.5,-40 215.5,-40"/>
<polygon fill="none" stroke="black" stroke-width="2" points="9,-38 9,-366 324,-366 324,-38 9,-38"/>
</a>
</g>
</g>
<!-- tdh_od.pipe_section&#45;&gt;pipe_section_pipeline_quality -->
<g id="edge1" class="edge">
<title>tdh_od.pipe_section:w&#45;&gt;pipe_section_pipeline_quality:e</title>
<path fill="none" stroke="black" d="M358.28,-332C347.29,-332 340.16,-332 324.5,-332"/>
<polygon fill="black" stroke="black" points="365,-332 373,-335.6 369,-332 373,-332 373,-332 373,-332 369,-332 373,-328.4 365,-332 365,-332"/>
<ellipse fill="none" stroke="black" cx="361.8" cy="-332" rx="3.2" ry="3.2"/>
</g>
</g>
</svg>
