<?xml version="1.0" encoding="UTF-8" standalone="no"?>
<!DOCTYPE svg PUBLIC "-//W3C//DTD SVG 1.1//EN"
 "http://www.w3.org/Graphics/SVG/1.1/DTD/svg11.dtd">
<!-- Generated by graphviz version 2.43.0 (0)
 -->
<!-- Title: oneDegreeRelationshipsDiagram Pages: 1 -->
<svg width="546pt" height="379pt"
 viewBox="0.00 0.00 546.00 379.00" xmlns="http://www.w3.org/2000/svg" xmlns:xlink="http://www.w3.org/1999/xlink">
<g id="graph0" class="graph" transform="scale(1 1) rotate(0) translate(4 375)">
<title>oneDegreeRelationshipsDiagram</title>
<polygon fill="#ffffff" stroke="transparent" points="-4,4 -4,-375 542,-375 542,4 -4,4"/>
<text text-anchor="middle" x="79.5" y="-7.2" font-family="Helvetica,sans-Serif" font-size="11.00">Generated by SchemaSpy</text>
<!-- tdh_od.pipe_point_feed -->
<g id="node1" class="node">
<title>tdh_od.pipe_point_feed</title>
<g id="a_node1"><a xlink:href="../../../tdh_od/tables/pipe_point_feed.html" xlink:title="tdh_od.pipe_point_feed" target="_top">
<polygon fill="#ffffff" stroke="transparent" points="313,-263 313,-365 530,-365 530,-263 313,-263"/>
<polygon fill="#f5f5f5" stroke="transparent" points="313.5,-343 313.5,-365 530.5,-365 530.5,-343 313.5,-343"/>
<polygon fill="none" stroke="black" points="313.5,-343 313.5,-365 530.5,-365 530.5,-343 313.5,-343"/>
<text text-anchor="start" x="318.5" y="-352.2" font-family="Helvetica,sans-Serif" font-weight="bold" font-size="11.00">tdh_od.pipe_point_feed</text>
<text text-anchor="start" x="488.5" y="-351.2" font-family="Helvetica,sans-Serif" font-size="11.00">[table]</text>
<polygon fill="none" stroke="black" points="313.5,-321 313.5,-343 530.5,-343 530.5,-321 313.5,-321"/>
<image xlink:href="../../images/foreignKeys.png" width="11px" height="12px" preserveAspectRatio="xMinYMin meet" x="318.5" y="-338"/>
<text text-anchor="start" x="340.5" y="-329.2" font-family="Helvetica,sans-Serif" font-size="11.00">kind</text>
<polygon fill="none" stroke="black" points="313.5,-299 313.5,-321 530.5,-321 530.5,-299 313.5,-299"/>
<image xlink:href="../../images/foreignKeys.png" width="11px" height="12px" preserveAspectRatio="xMinYMin meet" x="318.5" y="-316"/>
<text text-anchor="start" x="340.5" y="-307.2" font-family="Helvetica,sans-Serif" font-size="11.00">category</text>
<polygon fill="none" stroke="black" points="313.5,-281 313.5,-299 530.5,-299 530.5,-281 313.5,-281"/>
<text text-anchor="start" x="316.5" y="-287.2" font-family="Helvetica,sans-Serif" font-size="11.00">...</text>
<polygon fill="#ffffff" stroke="transparent" points="313.5,-263 313.5,-281 530.5,-281 530.5,-263 313.5,-263"/>
<polygon fill="none" stroke="black" points="313.5,-263 313.5,-281 530.5,-281 530.5,-263 313.5,-263"/>
<polygon fill="#ffffff" stroke="transparent" points="314.5,-264 314.5,-280 384.5,-280 384.5,-264 314.5,-264"/>
<text text-anchor="start" x="316.5" y="-269.2" font-family="Helvetica,sans-Serif" font-size="11.00">&lt; 2</text>
<polygon fill="#ffffff" stroke="transparent" points="384.5,-264 384.5,-280 471.5,-280 471.5,-264 384.5,-264"/>
<text text-anchor="start" x="409.5" y="-269.2" font-family="Helvetica,sans-Serif" font-size="11.00">0 rows</text>
<polygon fill="#ffffff" stroke="transparent" points="471.5,-264 471.5,-280 529.5,-280 529.5,-264 471.5,-264"/>
<text text-anchor="start" x="519.5" y="-269.2" font-family="Helvetica,sans-Serif" font-size="11.00"> &#160;</text>
<polygon fill="black" stroke="black" points="384.5,-264 384.5,-280 384.5,-280 384.5,-264 384.5,-264"/>
<polygon fill="black" stroke="black" points="471.5,-264 471.5,-280 471.5,-280 471.5,-264 471.5,-264"/>
</a>
</g>
</g>
<!-- pipe_point_feed_kind -->
<g id="node2" class="node">
<title>pipe_point_feed_kind</title>
<g id="a_node2"><a xlink:href="../../tables/pipe_point_feed_kind.html" xlink:title="pipe_point_feed_kind" target="_top">
<polygon fill="#ffffff" stroke="transparent" points="8,-37 8,-367 264,-367 264,-37 8,-37"/>
<polygon fill="#f5f5f5" stroke="transparent" points="10,-343 10,-365 262,-365 262,-343 10,-343"/>
<polygon fill="none" stroke="black" points="10,-343 10,-365 262,-365 262,-343 10,-343"/>
<text text-anchor="start" x="15" y="-352.2" font-family="Helvetica,sans-Serif" font-weight="bold" font-size="11.00">pipe_point_feed_kind</text>
<text text-anchor="start" x="220" y="-351.2" font-family="Helvetica,sans-Serif" font-size="11.00">[table]</text>
<polygon fill="none" stroke="black" points="10,-321 10,-343 184,-343 184,-321 10,-321"/>
<image xlink:href="../../images/primaryKeys.png" width="11px" height="12px" preserveAspectRatio="xMinYMin meet" x="15" y="-338"/>
<text text-anchor="start" x="30" y="-329.2" font-family="Helvetica,sans-Serif" font-size="11.00">code</text>
<polygon fill="none" stroke="black" points="184,-321 184,-343 262,-343 262,-321 184,-321"/>
<text text-anchor="start" x="187" y="-329.2" font-family="Helvetica,sans-Serif" font-size="11.00">int4[10]</text>
<polygon fill="none" stroke="black" points="10,-299 10,-321 184,-321 184,-299 10,-299"/>
<text text-anchor="start" x="30" y="-307.2" font-family="Helvetica,sans-Serif" font-size="11.00">vsacode</text>
<polygon fill="none" stroke="black" points="184,-299 184,-321 262,-321 262,-299 184,-299"/>
<text text-anchor="start" x="187" y="-307.2" font-family="Helvetica,sans-Serif" font-size="11.00">int4[10]</text>
<polygon fill="none" stroke="black" points="10,-277 10,-299 184,-299 184,-277 10,-277"/>
<text text-anchor="start" x="30" y="-285.2" font-family="Helvetica,sans-Serif" font-size="11.00">value_en</text>
<polygon fill="none" stroke="black" points="184,-277 184,-299 262,-299 262,-277 184,-277"/>
<text text-anchor="start" x="187" y="-285.2" font-family="Helvetica,sans-Serif" font-size="11.00">varchar[100]</text>
<polygon fill="none" stroke="black" points="10,-255 10,-277 184,-277 184,-255 10,-255"/>
<text text-anchor="start" x="30" y="-263.2" font-family="Helvetica,sans-Serif" font-size="11.00">value_de</text>
<polygon fill="none" stroke="black" points="184,-255 184,-277 262,-277 262,-255 184,-255"/>
<text text-anchor="start" x="187" y="-263.2" font-family="Helvetica,sans-Serif" font-size="11.00">varchar[100]</text>
<polygon fill="none" stroke="black" points="10,-233 10,-255 184,-255 184,-233 10,-233"/>
<text text-anchor="start" x="30" y="-241.2" font-family="Helvetica,sans-Serif" font-size="11.00">value_fr</text>
<polygon fill="none" stroke="black" points="184,-233 184,-255 262,-255 262,-233 184,-233"/>
<text text-anchor="start" x="187" y="-241.2" font-family="Helvetica,sans-Serif" font-size="11.00">varchar[100]</text>
<polygon fill="none" stroke="black" points="10,-211 10,-233 184,-233 184,-211 10,-211"/>
<text text-anchor="start" x="30" y="-219.2" font-family="Helvetica,sans-Serif" font-size="11.00">value_it</text>
<polygon fill="none" stroke="black" points="184,-211 184,-233 262,-233 262,-211 184,-211"/>
<text text-anchor="start" x="187" y="-219.2" font-family="Helvetica,sans-Serif" font-size="11.00">varchar[100]</text>
<polygon fill="none" stroke="black" points="10,-189 10,-211 184,-211 184,-189 10,-189"/>
<text text-anchor="start" x="30" y="-197.2" font-family="Helvetica,sans-Serif" font-size="11.00">value_ro</text>
<polygon fill="none" stroke="black" points="184,-189 184,-211 262,-211 262,-189 184,-189"/>
<text text-anchor="start" x="187" y="-197.2" font-family="Helvetica,sans-Serif" font-size="11.00">varchar[100]</text>
<polygon fill="none" stroke="black" points="10,-167 10,-189 184,-189 184,-167 10,-167"/>
<text text-anchor="start" x="30" y="-175.2" font-family="Helvetica,sans-Serif" font-size="11.00">abbr_en</text>
<polygon fill="none" stroke="black" points="184,-167 184,-189 262,-189 262,-167 184,-167"/>
<text text-anchor="start" x="187" y="-175.2" font-family="Helvetica,sans-Serif" font-size="11.00">varchar[3]</text>
<polygon fill="none" stroke="black" points="10,-145 10,-167 184,-167 184,-145 10,-145"/>
<text text-anchor="start" x="30" y="-153.2" font-family="Helvetica,sans-Serif" font-size="11.00">abbr_de</text>
<polygon fill="none" stroke="black" points="184,-145 184,-167 262,-167 262,-145 184,-145"/>
<text text-anchor="start" x="187" y="-153.2" font-family="Helvetica,sans-Serif" font-size="11.00">varchar[3]</text>
<polygon fill="none" stroke="black" points="10,-123 10,-145 184,-145 184,-123 10,-123"/>
<text text-anchor="start" x="30" y="-131.2" font-family="Helvetica,sans-Serif" font-size="11.00">abbr_fr</text>
<polygon fill="none" stroke="black" points="184,-123 184,-145 262,-145 262,-123 184,-123"/>
<text text-anchor="start" x="187" y="-131.2" font-family="Helvetica,sans-Serif" font-size="11.00">varchar[3]</text>
<polygon fill="none" stroke="black" points="10,-101 10,-123 184,-123 184,-101 10,-101"/>
<text text-anchor="start" x="30" y="-109.2" font-family="Helvetica,sans-Serif" font-size="11.00">abbr_it</text>
<polygon fill="none" stroke="black" points="184,-101 184,-123 262,-123 262,-101 184,-101"/>
<text text-anchor="start" x="187" y="-109.2" font-family="Helvetica,sans-Serif" font-size="11.00">varchar[3]</text>
<polygon fill="none" stroke="black" points="10,-79 10,-101 184,-101 184,-79 10,-79"/>
<text text-anchor="start" x="30" y="-87.2" font-family="Helvetica,sans-Serif" font-size="11.00">abbr_ro</text>
<polygon fill="none" stroke="black" points="184,-79 184,-101 262,-101 262,-79 184,-79"/>
<text text-anchor="start" x="187" y="-87.2" font-family="Helvetica,sans-Serif" font-size="11.00">varchar[3]</text>
<polygon fill="none" stroke="black" points="10,-57 10,-79 184,-79 184,-57 10,-57"/>
<text text-anchor="start" x="30" y="-65.2" font-family="Helvetica,sans-Serif" font-size="11.00">active</text>
<polygon fill="none" stroke="black" points="184,-57 184,-79 262,-79 262,-57 184,-57"/>
<text text-anchor="start" x="187" y="-65.2" font-family="Helvetica,sans-Serif" font-size="11.00">bool[1]</text>
<polygon fill="#ffffff" stroke="transparent" points="10,-39 10,-57 262,-57 262,-39 10,-39"/>
<polygon fill="none" stroke="black" points="10,-39 10,-57 262,-57 262,-39 10,-39"/>
<polygon fill="#ffffff" stroke="transparent" points="11,-40 11,-56 99,-56 99,-40 11,-40"/>
<text text-anchor="start" x="13" y="-45.2" font-family="Helvetica,sans-Serif" font-size="11.00">&lt; 0</text>
<polygon fill="#ffffff" stroke="transparent" points="99,-40 99,-56 174,-56 174,-40 99,-40"/>
<text text-anchor="start" x="132.5" y="-45.2" font-family="Helvetica,sans-Serif" font-size="11.00"> &#160;</text>
<polygon fill="#ffffff" stroke="transparent" points="174,-40 174,-56 261,-56 261,-40 174,-40"/>
<text text-anchor="start" x="239" y="-45.2" font-family="Helvetica,sans-Serif" font-size="11.00">1 &gt;</text>
<polygon fill="black" stroke="black" points="99,-40 99,-56 99,-56 99,-40 99,-40"/>
<polygon fill="black" stroke="black" points="174,-40 174,-56 174,-56 174,-40 174,-40"/>
<polygon fill="none" stroke="black" stroke-width="2" points="9,-38 9,-366 263,-366 263,-38 9,-38"/>
</a>
</g>
</g>
<!-- tdh_od.pipe_point_feed&#45;&gt;pipe_point_feed_kind -->
<g id="edge1" class="edge">
<title>tdh_od.pipe_point_feed:w&#45;&gt;pipe_point_feed_kind:e</title>
<path fill="none" stroke="black" d="M297.84,-332C286.41,-332 279.16,-332 263,-332"/>
<polygon fill="black" stroke="black" points="304.5,-332 312.5,-335.6 308.5,-332 312.5,-332 312.5,-332 312.5,-332 308.5,-332 312.5,-328.4 304.5,-332 304.5,-332"/>
<ellipse fill="none" stroke="black" cx="301.3" cy="-332" rx="3.2" ry="3.2"/>
</g>
</g>
</svg>
