<?xml version="1.0" encoding="UTF-8" standalone="no"?>
<!DOCTYPE svg PUBLIC "-//W3C//DTD SVG 1.1//EN"
 "http://www.w3.org/Graphics/SVG/1.1/DTD/svg11.dtd">
<!-- Generated by graphviz version 2.43.0 (0)
 -->
<!-- Title: oneDegreeRelationshipsDiagram Pages: 1 -->
<svg width="605pt" height="905pt"
 viewBox="0.00 0.00 605.00 905.00" xmlns="http://www.w3.org/2000/svg" xmlns:xlink="http://www.w3.org/1999/xlink">
<g id="graph0" class="graph" transform="scale(1 1) rotate(0) translate(4 901)">
<title>oneDegreeRelationshipsDiagram</title>
<polygon fill="#ffffff" stroke="transparent" points="-4,4 -4,-901 601,-901 601,4 -4,4"/>
<text text-anchor="middle" x="79.5" y="-7.2" font-family="Helvetica,sans-Serif" font-size="11.00">Generated by SchemaSpy</text>
<!-- tdh_od.pipe_section -->
<g id="node1" class="node">
<title>tdh_od.pipe_section</title>
<g id="a_node1"><a xlink:href="../../../tdh_od/tables/pipe_section.html" xlink:title="tdh_od.pipe_section" target="_top">
<polygon fill="#ffffff" stroke="transparent" points="397,-571 397,-893 589,-893 589,-571 397,-571"/>
<polygon fill="#f5f5f5" stroke="transparent" points="397,-871 397,-893 589,-893 589,-871 397,-871"/>
<polygon fill="none" stroke="black" points="397,-871 397,-893 589,-893 589,-871 397,-871"/>
<text text-anchor="start" x="402" y="-880.2" font-family="Helvetica,sans-Serif" font-weight="bold" font-size="11.00">tdh_od.pipe_section</text>
<text text-anchor="start" x="547" y="-879.2" font-family="Helvetica,sans-Serif" font-size="11.00">[table]</text>
<polygon fill="none" stroke="black" points="397,-849 397,-871 589,-871 589,-849 397,-849"/>
<image xlink:href="../../images/foreignKeys.png" width="11px" height="12px" preserveAspectRatio="xMinYMin meet" x="402" y="-866"/>
<text text-anchor="start" x="420" y="-857.2" font-family="Helvetica,sans-Serif" font-size="11.00">horizontal_positioning</text>
<polygon fill="none" stroke="black" points="397,-827 397,-849 589,-849 589,-827 397,-827"/>
<image xlink:href="../../images/foreignKeys.png" width="11px" height="12px" preserveAspectRatio="xMinYMin meet" x="402" y="-844"/>
<text text-anchor="start" x="420" y="-835.2" font-family="Helvetica,sans-Serif" font-size="11.00">status</text>
<polygon fill="none" stroke="black" points="397,-805 397,-827 589,-827 589,-805 397,-805"/>
<image xlink:href="../../images/foreignKeys.png" width="11px" height="12px" preserveAspectRatio="xMinYMin meet" x="402" y="-822"/>
<text text-anchor="start" x="420" y="-813.2" font-family="Helvetica,sans-Serif" font-size="11.00">function</text>
<polygon fill="none" stroke="black" points="397,-783 397,-805 589,-805 589,-783 397,-783"/>
<image xlink:href="../../images/foreignKeys.png" width="11px" height="12px" preserveAspectRatio="xMinYMin meet" x="402" y="-800"/>
<text text-anchor="start" x="420" y="-791.2" font-family="Helvetica,sans-Serif" font-size="11.00">pipe_type</text>
<polygon fill="none" stroke="black" points="397,-761 397,-783 589,-783 589,-761 397,-761"/>
<image xlink:href="../../images/foreignKeys.png" width="11px" height="12px" preserveAspectRatio="xMinYMin meet" x="402" y="-778"/>
<text text-anchor="start" x="420" y="-769.2" font-family="Helvetica,sans-Serif" font-size="11.00">fluent</text>
<polygon fill="none" stroke="black" points="397,-739 397,-761 589,-761 589,-739 397,-739"/>
<image xlink:href="../../images/foreignKeys.png" width="11px" height="12px" preserveAspectRatio="xMinYMin meet" x="402" y="-756"/>
<text text-anchor="start" x="420" y="-747.2" font-family="Helvetica,sans-Serif" font-size="11.00">insulation_kind</text>
<polygon fill="none" stroke="black" points="397,-717 397,-739 589,-739 589,-717 397,-717"/>
<image xlink:href="../../images/foreignKeys.png" width="11px" height="12px" preserveAspectRatio="xMinYMin meet" x="402" y="-734"/>
<text text-anchor="start" x="420" y="-725.2" font-family="Helvetica,sans-Serif" font-size="11.00">coating</text>
<polygon fill="none" stroke="black" points="397,-695 397,-717 589,-717 589,-695 397,-695"/>
<image xlink:href="../../images/foreignKeys.png" width="11px" height="12px" preserveAspectRatio="xMinYMin meet" x="402" y="-712"/>
<text text-anchor="start" x="420" y="-703.2" font-family="Helvetica,sans-Serif" font-size="11.00">pipeline_quality</text>
<polygon fill="none" stroke="black" points="397,-673 397,-695 589,-695 589,-673 397,-673"/>
<image xlink:href="../../images/foreignKeys.png" width="11px" height="12px" preserveAspectRatio="xMinYMin meet" x="402" y="-690"/>
<text text-anchor="start" x="420" y="-681.2" font-family="Helvetica,sans-Serif" font-size="11.00">mg_material</text>
<polygon fill="none" stroke="black" points="397,-651 397,-673 589,-673 589,-651 397,-651"/>
<image xlink:href="../../images/foreignKeys.png" width="11px" height="12px" preserveAspectRatio="xMinYMin meet" x="402" y="-668"/>
<text text-anchor="start" x="420" y="-659.2" font-family="Helvetica,sans-Serif" font-size="11.00">mg_diameter</text>
<polygon fill="none" stroke="black" points="397,-629 397,-651 589,-651 589,-629 397,-629"/>
<image xlink:href="../../images/foreignKeys.png" width="11px" height="12px" preserveAspectRatio="xMinYMin meet" x="402" y="-646"/>
<text text-anchor="start" x="420" y="-637.2" font-family="Helvetica,sans-Serif" font-size="11.00">mg_trench_type</text>
<polygon fill="none" stroke="black" points="397,-607 397,-629 589,-629 589,-607 397,-607"/>
<image xlink:href="../../images/foreignKeys.png" width="11px" height="12px" preserveAspectRatio="xMinYMin meet" x="402" y="-624"/>
<text text-anchor="start" x="420" y="-615.2" font-family="Helvetica,sans-Serif" font-size="11.00">mg_signaling_band</text>
<polygon fill="none" stroke="black" points="397,-589 397,-607 589,-607 589,-589 397,-589"/>
<text text-anchor="start" x="400" y="-595.2" font-family="Helvetica,sans-Serif" font-size="11.00">...</text>
<polygon fill="#ffffff" stroke="transparent" points="397,-571 397,-589 589,-589 589,-571 397,-571"/>
<polygon fill="none" stroke="black" points="397,-571 397,-589 589,-589 589,-571 397,-571"/>
<polygon fill="#ffffff" stroke="transparent" points="398,-572 398,-588 465,-588 465,-572 398,-572"/>
<text text-anchor="start" x="400" y="-577.2" font-family="Helvetica,sans-Serif" font-size="11.00">&lt; 12</text>
<polygon fill="#ffffff" stroke="transparent" points="465,-572 465,-588 541,-588 541,-572 465,-572"/>
<text text-anchor="start" x="484.5" y="-577.2" font-family="Helvetica,sans-Serif" font-size="11.00">0 rows</text>
<polygon fill="#ffffff" stroke="transparent" points="541,-572 541,-588 588,-588 588,-572 541,-572"/>
<text text-anchor="start" x="578" y="-577.2" font-family="Helvetica,sans-Serif" font-size="11.00"> &#160;</text>
<polygon fill="black" stroke="black" points="465,-572 465,-588 465,-588 465,-572 465,-572"/>
<polygon fill="black" stroke="black" points="541,-572 541,-588 541,-588 541,-572 541,-572"/>
</a>
</g>
</g>
<!-- pipe_section_mg_diameter -->
<g id="node2" class="node">
<title>pipe_section_mg_diameter</title>
<g id="a_node2"><a xlink:href="../../tables/pipe_section_mg_diameter.html" xlink:title="pipe_section_mg_diameter" target="_top">
<polygon fill="#ffffff" stroke="transparent" points="8,-37 8,-697 348,-697 348,-37 8,-37"/>
<polygon fill="#f5f5f5" stroke="transparent" points="10,-673 10,-695 346,-695 346,-673 10,-673"/>
<polygon fill="none" stroke="black" points="10,-673 10,-695 346,-695 346,-673 10,-673"/>
<text text-anchor="start" x="15" y="-682.2" font-family="Helvetica,sans-Serif" font-weight="bold" font-size="11.00">pipe_section_mg_diameter</text>
<text text-anchor="start" x="304" y="-681.2" font-family="Helvetica,sans-Serif" font-size="11.00">[table]</text>
<polygon fill="none" stroke="black" points="10,-651 10,-673 240,-673 240,-651 10,-651"/>
<image xlink:href="../../images/primaryKeys.png" width="11px" height="12px" preserveAspectRatio="xMinYMin meet" x="15" y="-668"/>
<text text-anchor="start" x="30" y="-659.2" font-family="Helvetica,sans-Serif" font-size="11.00">code</text>
<polygon fill="none" stroke="black" points="240,-651 240,-673 346,-673 346,-651 240,-651"/>
<text text-anchor="start" x="243" y="-659.2" font-family="Helvetica,sans-Serif" font-size="11.00">int4[10]</text>
<polygon fill="none" stroke="black" points="10,-629 10,-651 240,-651 240,-629 10,-629"/>
<text text-anchor="start" x="30" y="-637.2" font-family="Helvetica,sans-Serif" font-size="11.00">vsacode</text>
<polygon fill="none" stroke="black" points="240,-629 240,-651 346,-651 346,-629 240,-629"/>
<text text-anchor="start" x="243" y="-637.2" font-family="Helvetica,sans-Serif" font-size="11.00">int4[10]</text>
<polygon fill="none" stroke="black" points="10,-607 10,-629 240,-629 240,-607 10,-607"/>
<text text-anchor="start" x="30" y="-615.2" font-family="Helvetica,sans-Serif" font-size="11.00">value_en</text>
<polygon fill="none" stroke="black" points="240,-607 240,-629 346,-629 346,-607 240,-607"/>
<text text-anchor="start" x="243" y="-615.2" font-family="Helvetica,sans-Serif" font-size="11.00">varchar[100]</text>
<polygon fill="none" stroke="black" points="10,-585 10,-607 240,-607 240,-585 10,-585"/>
<text text-anchor="start" x="30" y="-593.2" font-family="Helvetica,sans-Serif" font-size="11.00">value_de</text>
<polygon fill="none" stroke="black" points="240,-585 240,-607 346,-607 346,-585 240,-585"/>
<text text-anchor="start" x="243" y="-593.2" font-family="Helvetica,sans-Serif" font-size="11.00">varchar[100]</text>
<polygon fill="none" stroke="black" points="10,-563 10,-585 240,-585 240,-563 10,-563"/>
<text text-anchor="start" x="30" y="-571.2" font-family="Helvetica,sans-Serif" font-size="11.00">value_fr</text>
<polygon fill="none" stroke="black" points="240,-563 240,-585 346,-585 346,-563 240,-563"/>
<text text-anchor="start" x="243" y="-571.2" font-family="Helvetica,sans-Serif" font-size="11.00">varchar[100]</text>
<polygon fill="none" stroke="black" points="10,-541 10,-563 240,-563 240,-541 10,-541"/>
<text text-anchor="start" x="30" y="-549.2" font-family="Helvetica,sans-Serif" font-size="11.00">value_it</text>
<polygon fill="none" stroke="black" points="240,-541 240,-563 346,-563 346,-541 240,-541"/>
<text text-anchor="start" x="243" y="-549.2" font-family="Helvetica,sans-Serif" font-size="11.00">varchar[100]</text>
<polygon fill="none" stroke="black" points="10,-519 10,-541 240,-541 240,-519 10,-519"/>
<text text-anchor="start" x="30" y="-527.2" font-family="Helvetica,sans-Serif" font-size="11.00">value_ro</text>
<polygon fill="none" stroke="black" points="240,-519 240,-541 346,-541 346,-519 240,-519"/>
<text text-anchor="start" x="243" y="-527.2" font-family="Helvetica,sans-Serif" font-size="11.00">varchar[100]</text>
<polygon fill="none" stroke="black" points="10,-497 10,-519 240,-519 240,-497 10,-497"/>
<text text-anchor="start" x="30" y="-505.2" font-family="Helvetica,sans-Serif" font-size="11.00">abbr_en</text>
<polygon fill="none" stroke="black" points="240,-497 240,-519 346,-519 346,-497 240,-497"/>
<text text-anchor="start" x="243" y="-505.2" font-family="Helvetica,sans-Serif" font-size="11.00">varchar[3]</text>
<polygon fill="none" stroke="black" points="10,-475 10,-497 240,-497 240,-475 10,-475"/>
<text text-anchor="start" x="30" y="-483.2" font-family="Helvetica,sans-Serif" font-size="11.00">abbr_de</text>
<polygon fill="none" stroke="black" points="240,-475 240,-497 346,-497 346,-475 240,-475"/>
<text text-anchor="start" x="243" y="-483.2" font-family="Helvetica,sans-Serif" font-size="11.00">varchar[3]</text>
<polygon fill="none" stroke="black" points="10,-453 10,-475 240,-475 240,-453 10,-453"/>
<text text-anchor="start" x="30" y="-461.2" font-family="Helvetica,sans-Serif" font-size="11.00">abbr_fr</text>
<polygon fill="none" stroke="black" points="240,-453 240,-475 346,-475 346,-453 240,-453"/>
<text text-anchor="start" x="243" y="-461.2" font-family="Helvetica,sans-Serif" font-size="11.00">varchar[3]</text>
<polygon fill="none" stroke="black" points="10,-431 10,-453 240,-453 240,-431 10,-431"/>
<text text-anchor="start" x="30" y="-439.2" font-family="Helvetica,sans-Serif" font-size="11.00">abbr_it</text>
<polygon fill="none" stroke="black" points="240,-431 240,-453 346,-453 346,-431 240,-431"/>
<text text-anchor="start" x="243" y="-439.2" font-family="Helvetica,sans-Serif" font-size="11.00">varchar[3]</text>
<polygon fill="none" stroke="black" points="10,-409 10,-431 240,-431 240,-409 10,-409"/>
<text text-anchor="start" x="30" y="-417.2" font-family="Helvetica,sans-Serif" font-size="11.00">abbr_ro</text>
<polygon fill="none" stroke="black" points="240,-409 240,-431 346,-431 346,-409 240,-409"/>
<text text-anchor="start" x="243" y="-417.2" font-family="Helvetica,sans-Serif" font-size="11.00">varchar[3]</text>
<polygon fill="none" stroke="black" points="10,-387 10,-409 240,-409 240,-387 10,-387"/>
<text text-anchor="start" x="30" y="-395.2" font-family="Helvetica,sans-Serif" font-size="11.00">description_en</text>
<polygon fill="none" stroke="black" points="240,-387 240,-409 346,-409 346,-387 240,-387"/>
<text text-anchor="start" x="243" y="-395.2" font-family="Helvetica,sans-Serif" font-size="11.00">text[2147483647]</text>
<polygon fill="none" stroke="black" points="10,-365 10,-387 240,-387 240,-365 10,-365"/>
<text text-anchor="start" x="30" y="-373.2" font-family="Helvetica,sans-Serif" font-size="11.00">description_de</text>
<polygon fill="none" stroke="black" points="240,-365 240,-387 346,-387 346,-365 240,-365"/>
<text text-anchor="start" x="243" y="-373.2" font-family="Helvetica,sans-Serif" font-size="11.00">text[2147483647]</text>
<polygon fill="none" stroke="black" points="10,-343 10,-365 240,-365 240,-343 10,-343"/>
<text text-anchor="start" x="30" y="-351.2" font-family="Helvetica,sans-Serif" font-size="11.00">description_fr</text>
<polygon fill="none" stroke="black" points="240,-343 240,-365 346,-365 346,-343 240,-343"/>
<text text-anchor="start" x="243" y="-351.2" font-family="Helvetica,sans-Serif" font-size="11.00">text[2147483647]</text>
<polygon fill="none" stroke="black" points="10,-321 10,-343 240,-343 240,-321 10,-321"/>
<text text-anchor="start" x="30" y="-329.2" font-family="Helvetica,sans-Serif" font-size="11.00">description_it</text>
<polygon fill="none" stroke="black" points="240,-321 240,-343 346,-343 346,-321 240,-321"/>
<text text-anchor="start" x="243" y="-329.2" font-family="Helvetica,sans-Serif" font-size="11.00">text[2147483647]</text>
<polygon fill="none" stroke="black" points="10,-299 10,-321 240,-321 240,-299 10,-299"/>
<text text-anchor="start" x="30" y="-307.2" font-family="Helvetica,sans-Serif" font-size="11.00">description_ro</text>
<polygon fill="none" stroke="black" points="240,-299 240,-321 346,-321 346,-299 240,-299"/>
<text text-anchor="start" x="243" y="-307.2" font-family="Helvetica,sans-Serif" font-size="11.00">text[2147483647]</text>
<polygon fill="none" stroke="black" points="10,-277 10,-299 240,-299 240,-277 10,-277"/>
<text text-anchor="start" x="30" y="-285.2" font-family="Helvetica,sans-Serif" font-size="11.00">display_en</text>
<polygon fill="none" stroke="black" points="240,-277 240,-299 346,-299 346,-277 240,-277"/>
<text text-anchor="start" x="243" y="-285.2" font-family="Helvetica,sans-Serif" font-size="11.00">varchar[100]</text>
<polygon fill="none" stroke="black" points="10,-255 10,-277 240,-277 240,-255 10,-255"/>
<text text-anchor="start" x="30" y="-263.2" font-family="Helvetica,sans-Serif" font-size="11.00">display_de</text>
<polygon fill="none" stroke="black" points="240,-255 240,-277 346,-277 346,-255 240,-255"/>
<text text-anchor="start" x="243" y="-263.2" font-family="Helvetica,sans-Serif" font-size="11.00">varchar[100]</text>
<polygon fill="none" stroke="black" points="10,-233 10,-255 240,-255 240,-233 10,-233"/>
<text text-anchor="start" x="30" y="-241.2" font-family="Helvetica,sans-Serif" font-size="11.00">display_fr</text>
<polygon fill="none" stroke="black" points="240,-233 240,-255 346,-255 346,-233 240,-233"/>
<text text-anchor="start" x="243" y="-241.2" font-family="Helvetica,sans-Serif" font-size="11.00">varchar[100]</text>
<polygon fill="none" stroke="black" points="10,-211 10,-233 240,-233 240,-211 10,-211"/>
<text text-anchor="start" x="30" y="-219.2" font-family="Helvetica,sans-Serif" font-size="11.00">display_it</text>
<polygon fill="none" stroke="black" points="240,-211 240,-233 346,-233 346,-211 240,-211"/>
<text text-anchor="start" x="243" y="-219.2" font-family="Helvetica,sans-Serif" font-size="11.00">varchar[100]</text>
<polygon fill="none" stroke="black" points="10,-189 10,-211 240,-211 240,-189 10,-189"/>
<text text-anchor="start" x="30" y="-197.2" font-family="Helvetica,sans-Serif" font-size="11.00">display_ro</text>
<polygon fill="none" stroke="black" points="240,-189 240,-211 346,-211 346,-189 240,-189"/>
<text text-anchor="start" x="243" y="-197.2" font-family="Helvetica,sans-Serif" font-size="11.00">varchar[100]</text>
<polygon fill="none" stroke="black" points="10,-167 10,-189 240,-189 240,-167 10,-167"/>
<text text-anchor="start" x="30" y="-175.2" font-family="Helvetica,sans-Serif" font-size="11.00">active</text>
<polygon fill="none" stroke="black" points="240,-167 240,-189 346,-189 346,-167 240,-167"/>
<text text-anchor="start" x="243" y="-175.2" font-family="Helvetica,sans-Serif" font-size="11.00">bool[1]</text>
<polygon fill="none" stroke="black" points="10,-145 10,-167 240,-167 240,-145 10,-145"/>
<text text-anchor="start" x="30" y="-153.2" font-family="Helvetica,sans-Serif" font-size="11.00">diameter</text>
<polygon fill="none" stroke="black" points="240,-145 240,-167 346,-167 346,-145 240,-145"/>
<text text-anchor="start" x="243" y="-153.2" font-family="Helvetica,sans-Serif" font-size="11.00">int2[5]</text>
<polygon fill="none" stroke="black" points="10,-123 10,-145 240,-145 240,-123 10,-123"/>
<text text-anchor="start" x="30" y="-131.2" font-family="Helvetica,sans-Serif" font-size="11.00">diameter_nominal</text>
<polygon fill="none" stroke="black" points="240,-123 240,-145 346,-145 346,-123 240,-123"/>
<text text-anchor="start" x="243" y="-131.2" font-family="Helvetica,sans-Serif" font-size="11.00">varchar[30]</text>
<polygon fill="none" stroke="black" points="10,-101 10,-123 240,-123 240,-101 10,-101"/>
<text text-anchor="start" x="30" y="-109.2" font-family="Helvetica,sans-Serif" font-size="11.00">diameter_inner</text>
<polygon fill="none" stroke="black" points="240,-101 240,-123 346,-123 346,-101 240,-101"/>
<text text-anchor="start" x="243" y="-109.2" font-family="Helvetica,sans-Serif" font-size="11.00">numeric[7,3]</text>
<polygon fill="none" stroke="black" points="10,-79 10,-101 240,-101 240,-79 10,-79"/>
<text text-anchor="start" x="30" y="-87.2" font-family="Helvetica,sans-Serif" font-size="11.00">diameter_outer</text>
<polygon fill="none" stroke="black" points="240,-79 240,-101 346,-101 346,-79 240,-79"/>
<text text-anchor="start" x="243" y="-87.2" font-family="Helvetica,sans-Serif" font-size="11.00">numeric[7,3]</text>
<polygon fill="none" stroke="black" points="10,-57 10,-79 240,-79 240,-57 10,-57"/>
<text text-anchor="start" x="30" y="-65.2" font-family="Helvetica,sans-Serif" font-size="11.00">fk_pipe_section_mg_material</text>
<polygon fill="none" stroke="black" points="240,-57 240,-79 346,-79 346,-57 240,-57"/>
<text text-anchor="start" x="243" y="-65.2" font-family="Helvetica,sans-Serif" font-size="11.00">int4[10]</text>
<polygon fill="#ffffff" stroke="transparent" points="10,-39 10,-57 346,-57 346,-39 10,-39"/>
<polygon fill="none" stroke="black" points="10,-39 10,-57 346,-57 346,-39 10,-39"/>
<polygon fill="#ffffff" stroke="transparent" points="11,-40 11,-56 127,-56 127,-40 11,-40"/>
<text text-anchor="start" x="13" y="-45.2" font-family="Helvetica,sans-Serif" font-size="11.00">&lt; 0</text>
<polygon fill="#ffffff" stroke="transparent" points="127,-40 127,-56 230,-56 230,-40 127,-40"/>
<text text-anchor="start" x="174.5" y="-45.2" font-family="Helvetica,sans-Serif" font-size="11.00"> &#160;</text>
<polygon fill="#ffffff" stroke="transparent" points="230,-40 230,-56 345,-56 345,-40 230,-40"/>
<text text-anchor="start" x="323" y="-45.2" font-family="Helvetica,sans-Serif" font-size="11.00">1 &gt;</text>
<polygon fill="black" stroke="black" points="127,-40 127,-56 127,-56 127,-40 127,-40"/>
<polygon fill="black" stroke="black" points="230,-40 230,-56 230,-56 230,-40 230,-40"/>
<polygon fill="none" stroke="black" stroke-width="2" points="9,-38 9,-696 347,-696 347,-38 9,-38"/>
</a>
</g>
</g>
<!-- tdh_od.pipe_section&#45;&gt;pipe_section_mg_diameter -->
<g id="edge1" class="edge">
<title>tdh_od.pipe_section:w&#45;&gt;pipe_section_mg_diameter:e</title>
<path fill="none" stroke="black" d="M381.49,-662C370.18,-662 362.99,-662 347,-662"/>
<polygon fill="black" stroke="black" points="388,-662 396,-665.6 392,-662 396,-662 396,-662 396,-662 392,-662 396,-658.4 388,-662 388,-662"/>
<ellipse fill="none" stroke="black" cx="384.8" cy="-662" rx="3.2" ry="3.2"/>
</g>
</g>
</svg>
