<?xml version="1.0" encoding="UTF-8" standalone="no"?>
<!DOCTYPE svg PUBLIC "-//W3C//DTD SVG 1.1//EN"
 "http://www.w3.org/Graphics/SVG/1.1/DTD/svg11.dtd">
<!-- Generated by graphviz version 2.43.0 (0)
 -->
<!-- Title: oneDegreeRelationshipsDiagram Pages: 1 -->
<svg width="633pt" height="839pt"
 viewBox="0.00 0.00 633.00 839.00" xmlns="http://www.w3.org/2000/svg" xmlns:xlink="http://www.w3.org/1999/xlink">
<g id="graph0" class="graph" transform="scale(1 1) rotate(0) translate(4 835)">
<title>oneDegreeRelationshipsDiagram</title>
<polygon fill="#ffffff" stroke="transparent" points="-4,4 -4,-835 629,-835 629,4 -4,4"/>
<text text-anchor="middle" x="79.5" y="-7.2" font-family="Helvetica,sans-Serif" font-size="11.00">Generated by SchemaSpy</text>
<!-- tdh_od.pipe_section -->
<g id="node1" class="node">
<title>tdh_od.pipe_section</title>
<g id="a_node1"><a xlink:href="../../../tdh_od/tables/pipe_section.html" xlink:title="tdh_od.pipe_section" target="_top">
<polygon fill="#ffffff" stroke="transparent" points="425,-505 425,-827 617,-827 617,-505 425,-505"/>
<polygon fill="#f5f5f5" stroke="transparent" points="425,-805 425,-827 617,-827 617,-805 425,-805"/>
<polygon fill="none" stroke="black" points="425,-805 425,-827 617,-827 617,-805 425,-805"/>
<text text-anchor="start" x="430" y="-814.2" font-family="Helvetica,sans-Serif" font-weight="bold" font-size="11.00">tdh_od.pipe_section</text>
<text text-anchor="start" x="575" y="-813.2" font-family="Helvetica,sans-Serif" font-size="11.00">[table]</text>
<polygon fill="none" stroke="black" points="425,-783 425,-805 617,-805 617,-783 425,-783"/>
<image xlink:href="../../images/foreignKeys.png" width="11px" height="12px" preserveAspectRatio="xMinYMin meet" x="430" y="-800"/>
<text text-anchor="start" x="448" y="-791.2" font-family="Helvetica,sans-Serif" font-size="11.00">horizontal_positioning</text>
<polygon fill="none" stroke="black" points="425,-761 425,-783 617,-783 617,-761 425,-761"/>
<image xlink:href="../../images/foreignKeys.png" width="11px" height="12px" preserveAspectRatio="xMinYMin meet" x="430" y="-778"/>
<text text-anchor="start" x="448" y="-769.2" font-family="Helvetica,sans-Serif" font-size="11.00">status</text>
<polygon fill="none" stroke="black" points="425,-739 425,-761 617,-761 617,-739 425,-739"/>
<image xlink:href="../../images/foreignKeys.png" width="11px" height="12px" preserveAspectRatio="xMinYMin meet" x="430" y="-756"/>
<text text-anchor="start" x="448" y="-747.2" font-family="Helvetica,sans-Serif" font-size="11.00">function</text>
<polygon fill="none" stroke="black" points="425,-717 425,-739 617,-739 617,-717 425,-717"/>
<image xlink:href="../../images/foreignKeys.png" width="11px" height="12px" preserveAspectRatio="xMinYMin meet" x="430" y="-734"/>
<text text-anchor="start" x="448" y="-725.2" font-family="Helvetica,sans-Serif" font-size="11.00">pipe_type</text>
<polygon fill="none" stroke="black" points="425,-695 425,-717 617,-717 617,-695 425,-695"/>
<image xlink:href="../../images/foreignKeys.png" width="11px" height="12px" preserveAspectRatio="xMinYMin meet" x="430" y="-712"/>
<text text-anchor="start" x="448" y="-703.2" font-family="Helvetica,sans-Serif" font-size="11.00">fluent</text>
<polygon fill="none" stroke="black" points="425,-673 425,-695 617,-695 617,-673 425,-673"/>
<image xlink:href="../../images/foreignKeys.png" width="11px" height="12px" preserveAspectRatio="xMinYMin meet" x="430" y="-690"/>
<text text-anchor="start" x="448" y="-681.2" font-family="Helvetica,sans-Serif" font-size="11.00">insulation_kind</text>
<polygon fill="none" stroke="black" points="425,-651 425,-673 617,-673 617,-651 425,-651"/>
<image xlink:href="../../images/foreignKeys.png" width="11px" height="12px" preserveAspectRatio="xMinYMin meet" x="430" y="-668"/>
<text text-anchor="start" x="448" y="-659.2" font-family="Helvetica,sans-Serif" font-size="11.00">coating</text>
<polygon fill="none" stroke="black" points="425,-629 425,-651 617,-651 617,-629 425,-629"/>
<image xlink:href="../../images/foreignKeys.png" width="11px" height="12px" preserveAspectRatio="xMinYMin meet" x="430" y="-646"/>
<text text-anchor="start" x="448" y="-637.2" font-family="Helvetica,sans-Serif" font-size="11.00">pipeline_quality</text>
<polygon fill="none" stroke="black" points="425,-607 425,-629 617,-629 617,-607 425,-607"/>
<image xlink:href="../../images/foreignKeys.png" width="11px" height="12px" preserveAspectRatio="xMinYMin meet" x="430" y="-624"/>
<text text-anchor="start" x="448" y="-615.2" font-family="Helvetica,sans-Serif" font-size="11.00">mg_material</text>
<polygon fill="none" stroke="black" points="425,-585 425,-607 617,-607 617,-585 425,-585"/>
<image xlink:href="../../images/foreignKeys.png" width="11px" height="12px" preserveAspectRatio="xMinYMin meet" x="430" y="-602"/>
<text text-anchor="start" x="448" y="-593.2" font-family="Helvetica,sans-Serif" font-size="11.00">mg_diameter</text>
<polygon fill="none" stroke="black" points="425,-563 425,-585 617,-585 617,-563 425,-563"/>
<image xlink:href="../../images/foreignKeys.png" width="11px" height="12px" preserveAspectRatio="xMinYMin meet" x="430" y="-580"/>
<text text-anchor="start" x="448" y="-571.2" font-family="Helvetica,sans-Serif" font-size="11.00">mg_trench_type</text>
<polygon fill="none" stroke="black" points="425,-541 425,-563 617,-563 617,-541 425,-541"/>
<image xlink:href="../../images/foreignKeys.png" width="11px" height="12px" preserveAspectRatio="xMinYMin meet" x="430" y="-558"/>
<text text-anchor="start" x="448" y="-549.2" font-family="Helvetica,sans-Serif" font-size="11.00">mg_signaling_band</text>
<polygon fill="none" stroke="black" points="425,-523 425,-541 617,-541 617,-523 425,-523"/>
<text text-anchor="start" x="428" y="-529.2" font-family="Helvetica,sans-Serif" font-size="11.00">...</text>
<polygon fill="#ffffff" stroke="transparent" points="425,-505 425,-523 617,-523 617,-505 425,-505"/>
<polygon fill="none" stroke="black" points="425,-505 425,-523 617,-523 617,-505 425,-505"/>
<polygon fill="#ffffff" stroke="transparent" points="426,-506 426,-522 493,-522 493,-506 426,-506"/>
<text text-anchor="start" x="428" y="-511.2" font-family="Helvetica,sans-Serif" font-size="11.00">&lt; 12</text>
<polygon fill="#ffffff" stroke="transparent" points="493,-506 493,-522 569,-522 569,-506 493,-506"/>
<text text-anchor="start" x="512.5" y="-511.2" font-family="Helvetica,sans-Serif" font-size="11.00">0 rows</text>
<polygon fill="#ffffff" stroke="transparent" points="569,-506 569,-522 616,-522 616,-506 569,-506"/>
<text text-anchor="start" x="606" y="-511.2" font-family="Helvetica,sans-Serif" font-size="11.00"> &#160;</text>
<polygon fill="black" stroke="black" points="493,-506 493,-522 493,-522 493,-506 493,-506"/>
<polygon fill="black" stroke="black" points="569,-506 569,-522 569,-522 569,-506 569,-506"/>
</a>
</g>
</g>
<!-- pipe_section_mg_signaling_band -->
<g id="node2" class="node">
<title>pipe_section_mg_signaling_band</title>
<g id="a_node2"><a xlink:href="../../tables/pipe_section_mg_signaling_band.html" xlink:title="pipe_section_mg_signaling_band" target="_top">
<polygon fill="#ffffff" stroke="transparent" points="8,-37 8,-587 376,-587 376,-37 8,-37"/>
<polygon fill="#f5f5f5" stroke="transparent" points="10,-563 10,-585 374,-585 374,-563 10,-563"/>
<polygon fill="none" stroke="black" points="10,-563 10,-585 374,-585 374,-563 10,-563"/>
<text text-anchor="start" x="15" y="-572.2" font-family="Helvetica,sans-Serif" font-weight="bold" font-size="11.00">pipe_section_mg_signaling_band</text>
<text text-anchor="start" x="332" y="-571.2" font-family="Helvetica,sans-Serif" font-size="11.00">[table]</text>
<polygon fill="none" stroke="black" points="10,-541 10,-563 268,-563 268,-541 10,-541"/>
<image xlink:href="../../images/primaryKeys.png" width="11px" height="12px" preserveAspectRatio="xMinYMin meet" x="15" y="-558"/>
<text text-anchor="start" x="30" y="-549.2" font-family="Helvetica,sans-Serif" font-size="11.00">code</text>
<polygon fill="none" stroke="black" points="268,-541 268,-563 374,-563 374,-541 268,-541"/>
<text text-anchor="start" x="271" y="-549.2" font-family="Helvetica,sans-Serif" font-size="11.00">int4[10]</text>
<polygon fill="none" stroke="black" points="10,-519 10,-541 268,-541 268,-519 10,-519"/>
<text text-anchor="start" x="30" y="-527.2" font-family="Helvetica,sans-Serif" font-size="11.00">vsacode</text>
<polygon fill="none" stroke="black" points="268,-519 268,-541 374,-541 374,-519 268,-519"/>
<text text-anchor="start" x="271" y="-527.2" font-family="Helvetica,sans-Serif" font-size="11.00">int4[10]</text>
<polygon fill="none" stroke="black" points="10,-497 10,-519 268,-519 268,-497 10,-497"/>
<text text-anchor="start" x="30" y="-505.2" font-family="Helvetica,sans-Serif" font-size="11.00">value_en</text>
<polygon fill="none" stroke="black" points="268,-497 268,-519 374,-519 374,-497 268,-497"/>
<text text-anchor="start" x="271" y="-505.2" font-family="Helvetica,sans-Serif" font-size="11.00">varchar[100]</text>
<polygon fill="none" stroke="black" points="10,-475 10,-497 268,-497 268,-475 10,-475"/>
<text text-anchor="start" x="30" y="-483.2" font-family="Helvetica,sans-Serif" font-size="11.00">value_de</text>
<polygon fill="none" stroke="black" points="268,-475 268,-497 374,-497 374,-475 268,-475"/>
<text text-anchor="start" x="271" y="-483.2" font-family="Helvetica,sans-Serif" font-size="11.00">varchar[100]</text>
<polygon fill="none" stroke="black" points="10,-453 10,-475 268,-475 268,-453 10,-453"/>
<text text-anchor="start" x="30" y="-461.2" font-family="Helvetica,sans-Serif" font-size="11.00">value_fr</text>
<polygon fill="none" stroke="black" points="268,-453 268,-475 374,-475 374,-453 268,-453"/>
<text text-anchor="start" x="271" y="-461.2" font-family="Helvetica,sans-Serif" font-size="11.00">varchar[100]</text>
<polygon fill="none" stroke="black" points="10,-431 10,-453 268,-453 268,-431 10,-431"/>
<text text-anchor="start" x="30" y="-439.2" font-family="Helvetica,sans-Serif" font-size="11.00">value_it</text>
<polygon fill="none" stroke="black" points="268,-431 268,-453 374,-453 374,-431 268,-431"/>
<text text-anchor="start" x="271" y="-439.2" font-family="Helvetica,sans-Serif" font-size="11.00">varchar[100]</text>
<polygon fill="none" stroke="black" points="10,-409 10,-431 268,-431 268,-409 10,-409"/>
<text text-anchor="start" x="30" y="-417.2" font-family="Helvetica,sans-Serif" font-size="11.00">value_ro</text>
<polygon fill="none" stroke="black" points="268,-409 268,-431 374,-431 374,-409 268,-409"/>
<text text-anchor="start" x="271" y="-417.2" font-family="Helvetica,sans-Serif" font-size="11.00">varchar[100]</text>
<polygon fill="none" stroke="black" points="10,-387 10,-409 268,-409 268,-387 10,-387"/>
<text text-anchor="start" x="30" y="-395.2" font-family="Helvetica,sans-Serif" font-size="11.00">abbr_en</text>
<polygon fill="none" stroke="black" points="268,-387 268,-409 374,-409 374,-387 268,-387"/>
<text text-anchor="start" x="271" y="-395.2" font-family="Helvetica,sans-Serif" font-size="11.00">varchar[3]</text>
<polygon fill="none" stroke="black" points="10,-365 10,-387 268,-387 268,-365 10,-365"/>
<text text-anchor="start" x="30" y="-373.2" font-family="Helvetica,sans-Serif" font-size="11.00">abbr_de</text>
<polygon fill="none" stroke="black" points="268,-365 268,-387 374,-387 374,-365 268,-365"/>
<text text-anchor="start" x="271" y="-373.2" font-family="Helvetica,sans-Serif" font-size="11.00">varchar[3]</text>
<polygon fill="none" stroke="black" points="10,-343 10,-365 268,-365 268,-343 10,-343"/>
<text text-anchor="start" x="30" y="-351.2" font-family="Helvetica,sans-Serif" font-size="11.00">abbr_fr</text>
<polygon fill="none" stroke="black" points="268,-343 268,-365 374,-365 374,-343 268,-343"/>
<text text-anchor="start" x="271" y="-351.2" font-family="Helvetica,sans-Serif" font-size="11.00">varchar[3]</text>
<polygon fill="none" stroke="black" points="10,-321 10,-343 268,-343 268,-321 10,-321"/>
<text text-anchor="start" x="30" y="-329.2" font-family="Helvetica,sans-Serif" font-size="11.00">abbr_it</text>
<polygon fill="none" stroke="black" points="268,-321 268,-343 374,-343 374,-321 268,-321"/>
<text text-anchor="start" x="271" y="-329.2" font-family="Helvetica,sans-Serif" font-size="11.00">varchar[3]</text>
<polygon fill="none" stroke="black" points="10,-299 10,-321 268,-321 268,-299 10,-299"/>
<text text-anchor="start" x="30" y="-307.2" font-family="Helvetica,sans-Serif" font-size="11.00">abbr_ro</text>
<polygon fill="none" stroke="black" points="268,-299 268,-321 374,-321 374,-299 268,-299"/>
<text text-anchor="start" x="271" y="-307.2" font-family="Helvetica,sans-Serif" font-size="11.00">varchar[3]</text>
<polygon fill="none" stroke="black" points="10,-277 10,-299 268,-299 268,-277 10,-277"/>
<text text-anchor="start" x="30" y="-285.2" font-family="Helvetica,sans-Serif" font-size="11.00">description_en</text>
<polygon fill="none" stroke="black" points="268,-277 268,-299 374,-299 374,-277 268,-277"/>
<text text-anchor="start" x="271" y="-285.2" font-family="Helvetica,sans-Serif" font-size="11.00">text[2147483647]</text>
<polygon fill="none" stroke="black" points="10,-255 10,-277 268,-277 268,-255 10,-255"/>
<text text-anchor="start" x="30" y="-263.2" font-family="Helvetica,sans-Serif" font-size="11.00">description_de</text>
<polygon fill="none" stroke="black" points="268,-255 268,-277 374,-277 374,-255 268,-255"/>
<text text-anchor="start" x="271" y="-263.2" font-family="Helvetica,sans-Serif" font-size="11.00">text[2147483647]</text>
<polygon fill="none" stroke="black" points="10,-233 10,-255 268,-255 268,-233 10,-233"/>
<text text-anchor="start" x="30" y="-241.2" font-family="Helvetica,sans-Serif" font-size="11.00">description_fr</text>
<polygon fill="none" stroke="black" points="268,-233 268,-255 374,-255 374,-233 268,-233"/>
<text text-anchor="start" x="271" y="-241.2" font-family="Helvetica,sans-Serif" font-size="11.00">text[2147483647]</text>
<polygon fill="none" stroke="black" points="10,-211 10,-233 268,-233 268,-211 10,-211"/>
<text text-anchor="start" x="30" y="-219.2" font-family="Helvetica,sans-Serif" font-size="11.00">description_it</text>
<polygon fill="none" stroke="black" points="268,-211 268,-233 374,-233 374,-211 268,-211"/>
<text text-anchor="start" x="271" y="-219.2" font-family="Helvetica,sans-Serif" font-size="11.00">text[2147483647]</text>
<polygon fill="none" stroke="black" points="10,-189 10,-211 268,-211 268,-189 10,-189"/>
<text text-anchor="start" x="30" y="-197.2" font-family="Helvetica,sans-Serif" font-size="11.00">description_ro</text>
<polygon fill="none" stroke="black" points="268,-189 268,-211 374,-211 374,-189 268,-189"/>
<text text-anchor="start" x="271" y="-197.2" font-family="Helvetica,sans-Serif" font-size="11.00">text[2147483647]</text>
<polygon fill="none" stroke="black" points="10,-167 10,-189 268,-189 268,-167 10,-167"/>
<text text-anchor="start" x="30" y="-175.2" font-family="Helvetica,sans-Serif" font-size="11.00">display_en</text>
<polygon fill="none" stroke="black" points="268,-167 268,-189 374,-189 374,-167 268,-167"/>
<text text-anchor="start" x="271" y="-175.2" font-family="Helvetica,sans-Serif" font-size="11.00">varchar[100]</text>
<polygon fill="none" stroke="black" points="10,-145 10,-167 268,-167 268,-145 10,-145"/>
<text text-anchor="start" x="30" y="-153.2" font-family="Helvetica,sans-Serif" font-size="11.00">display_de</text>
<polygon fill="none" stroke="black" points="268,-145 268,-167 374,-167 374,-145 268,-145"/>
<text text-anchor="start" x="271" y="-153.2" font-family="Helvetica,sans-Serif" font-size="11.00">varchar[100]</text>
<polygon fill="none" stroke="black" points="10,-123 10,-145 268,-145 268,-123 10,-123"/>
<text text-anchor="start" x="30" y="-131.2" font-family="Helvetica,sans-Serif" font-size="11.00">display_fr</text>
<polygon fill="none" stroke="black" points="268,-123 268,-145 374,-145 374,-123 268,-123"/>
<text text-anchor="start" x="271" y="-131.2" font-family="Helvetica,sans-Serif" font-size="11.00">varchar[100]</text>
<polygon fill="none" stroke="black" points="10,-101 10,-123 268,-123 268,-101 10,-101"/>
<text text-anchor="start" x="30" y="-109.2" font-family="Helvetica,sans-Serif" font-size="11.00">display_it</text>
<polygon fill="none" stroke="black" points="268,-101 268,-123 374,-123 374,-101 268,-101"/>
<text text-anchor="start" x="271" y="-109.2" font-family="Helvetica,sans-Serif" font-size="11.00">varchar[100]</text>
<polygon fill="none" stroke="black" points="10,-79 10,-101 268,-101 268,-79 10,-79"/>
<text text-anchor="start" x="30" y="-87.2" font-family="Helvetica,sans-Serif" font-size="11.00">display_ro</text>
<polygon fill="none" stroke="black" points="268,-79 268,-101 374,-101 374,-79 268,-79"/>
<text text-anchor="start" x="271" y="-87.2" font-family="Helvetica,sans-Serif" font-size="11.00">varchar[100]</text>
<polygon fill="none" stroke="black" points="10,-57 10,-79 268,-79 268,-57 10,-57"/>
<text text-anchor="start" x="30" y="-65.2" font-family="Helvetica,sans-Serif" font-size="11.00">active</text>
<polygon fill="none" stroke="black" points="268,-57 268,-79 374,-79 374,-57 268,-57"/>
<text text-anchor="start" x="271" y="-65.2" font-family="Helvetica,sans-Serif" font-size="11.00">bool[1]</text>
<polygon fill="#ffffff" stroke="transparent" points="10,-39 10,-57 374,-57 374,-39 10,-39"/>
<polygon fill="none" stroke="black" points="10,-39 10,-57 374,-57 374,-39 10,-39"/>
<polygon fill="#ffffff" stroke="transparent" points="11,-40 11,-56 136,-56 136,-40 11,-40"/>
<text text-anchor="start" x="13" y="-45.2" font-family="Helvetica,sans-Serif" font-size="11.00">&lt; 0</text>
<polygon fill="#ffffff" stroke="transparent" points="136,-40 136,-56 249,-56 249,-40 136,-40"/>
<text text-anchor="start" x="188.5" y="-45.2" font-family="Helvetica,sans-Serif" font-size="11.00"> &#160;</text>
<polygon fill="#ffffff" stroke="transparent" points="249,-40 249,-56 373,-56 373,-40 249,-40"/>
<text text-anchor="start" x="351" y="-45.2" font-family="Helvetica,sans-Serif" font-size="11.00">1 &gt;</text>
<polygon fill="black" stroke="black" points="136,-40 136,-56 136,-56 136,-40 136,-40"/>
<polygon fill="black" stroke="black" points="249,-40 249,-56 249,-56 249,-40 249,-40"/>
<polygon fill="none" stroke="black" stroke-width="2" points="9,-38 9,-586 375,-586 375,-38 9,-38"/>
</a>
</g>
</g>
<!-- tdh_od.pipe_section&#45;&gt;pipe_section_mg_signaling_band -->
<g id="edge1" class="edge">
<title>tdh_od.pipe_section:w&#45;&gt;pipe_section_mg_signaling_band:e</title>
<path fill="none" stroke="black" d="M409.49,-552C398.18,-552 390.99,-552 375,-552"/>
<polygon fill="black" stroke="black" points="416,-552 424,-555.6 420,-552 424,-552 424,-552 424,-552 420,-552 424,-548.4 416,-552 416,-552"/>
<ellipse fill="none" stroke="black" cx="412.8" cy="-552" rx="3.2" ry="3.2"/>
</g>
</g>
</svg>
