<?xml version="1.0" encoding="UTF-8" standalone="no"?>
<!DOCTYPE svg PUBLIC "-//W3C//DTD SVG 1.1//EN"
 "http://www.w3.org/Graphics/SVG/1.1/DTD/svg11.dtd">
<!-- Generated by graphviz version 2.47.1 (20210515.0534)
 -->
<!-- Title: oneDegreeRelationshipsDiagram Pages: 1 -->
<svg width="509pt" height="379pt"
 viewBox="0.00 0.00 509.00 379.00" xmlns="http://www.w3.org/2000/svg" xmlns:xlink="http://www.w3.org/1999/xlink">
<g id="graph0" class="graph" transform="scale(1 1) rotate(0) translate(4 375)">
<title>oneDegreeRelationshipsDiagram</title>
<polygon fill="#ffffff" stroke="transparent" points="-4,4 -4,-375 505,-375 505,4 -4,4"/>
<text text-anchor="middle" x="73.5" y="-7.2" font-family="Helvetica,sans-Serif" font-size="11.00">Generated by SchemaSpy</text>
<!-- tdh_od.pipe_point_normal -->
<g id="node1" class="node">
<title>tdh_od.pipe_point_normal</title>
<g id="a_node1"><a xlink:href="../../../tdh_od/tables/pipe_point_normal.html" xlink:title="tdh_od.pipe_point_normal" target="_top">
<polygon fill="#ffffff" stroke="transparent" points="294,-241 294,-365 493,-365 493,-241 294,-241"/>
<polygon fill="#f5f5f5" stroke="transparent" points="294.5,-343 294.5,-365 493.5,-365 493.5,-343 294.5,-343"/>
<polygon fill="none" stroke="black" points="294.5,-343 294.5,-365 493.5,-365 493.5,-343 294.5,-343"/>
<text text-anchor="start" x="299.5" y="-352.2" font-family="Helvetica,sans-Serif" font-weight="bold" font-size="11.00">tdh_od.pipe_point_normal</text>
<text text-anchor="start" x="454.5" y="-351.2" font-family="Helvetica,sans-Serif" font-size="11.00">[table]</text>
<polygon fill="none" stroke="black" points="294.5,-321 294.5,-343 493.5,-343 493.5,-321 294.5,-321"/>
<image xlink:href="../../images/foreignKeys.png" width="11px" height="12px" preserveAspectRatio="xMinYMin meet" x="299.5" y="-338"/>
<text text-anchor="start" x="348.5" y="-329.2" font-family="Helvetica,sans-Serif" font-size="11.00">kind</text>
<polygon fill="none" stroke="black" points="294.5,-299 294.5,-321 493.5,-321 493.5,-299 294.5,-299"/>
<image xlink:href="../../images/foreignKeys.png" width="11px" height="12px" preserveAspectRatio="xMinYMin meet" x="299.5" y="-316"/>
<text text-anchor="start" x="348.5" y="-307.2" font-family="Helvetica,sans-Serif" font-size="11.00">armature_setting</text>
<polygon fill="none" stroke="black" points="294.5,-277 294.5,-299 493.5,-299 493.5,-277 294.5,-277"/>
<image xlink:href="../../images/foreignKeys.png" width="11px" height="12px" preserveAspectRatio="xMinYMin meet" x="299.5" y="-294"/>
<text text-anchor="start" x="348.5" y="-285.2" font-family="Helvetica,sans-Serif" font-size="11.00">material</text>
<polygon fill="none" stroke="black" points="294.5,-259 294.5,-277 493.5,-277 493.5,-259 294.5,-259"/>
<text text-anchor="start" x="297.5" y="-265.2" font-family="Helvetica,sans-Serif" font-size="11.00">...</text>
<polygon fill="#ffffff" stroke="transparent" points="294.5,-241 294.5,-259 378.5,-259 378.5,-241 294.5,-241"/>
<polygon fill="none" stroke="black" points="294.5,-241 294.5,-259 378.5,-259 378.5,-241 294.5,-241"/>
<text text-anchor="start" x="297.5" y="-247.2" font-family="Helvetica,sans-Serif" font-size="11.00">&lt; 3</text>
<polygon fill="#ffffff" stroke="transparent" points="378.5,-241 378.5,-259 449.5,-259 449.5,-241 378.5,-241"/>
<polygon fill="none" stroke="black" points="378.5,-241 378.5,-259 449.5,-259 449.5,-241 378.5,-241"/>
<text text-anchor="start" x="412.5" y="-247.2" font-family="Helvetica,sans-Serif" font-size="11.00">0 rows</text>
<polygon fill="#ffffff" stroke="transparent" points="449.5,-241 449.5,-259 493.5,-259 493.5,-241 449.5,-241"/>
<polygon fill="none" stroke="black" points="449.5,-241 449.5,-259 493.5,-259 493.5,-241 449.5,-241"/>
<text text-anchor="start" x="483.5" y="-247.2" font-family="Helvetica,sans-Serif" font-size="11.00"> &#160;</text>
</a>
</g>
</g>
<!-- pipe_point_normal_kind -->
<g id="node2" class="node">
<title>pipe_point_normal_kind</title>
<g id="a_node2"><a xlink:href="../../tables/pipe_point_normal_kind.html" xlink:title="pipe_point_normal_kind" target="_top">
<polygon fill="#ffffff" stroke="transparent" points="8,-37 8,-367 245,-367 245,-37 8,-37"/>
<polygon fill="#f5f5f5" stroke="transparent" points="10.5,-343 10.5,-365 243.5,-365 243.5,-343 10.5,-343"/>
<polygon fill="none" stroke="black" points="10.5,-343 10.5,-365 243.5,-365 243.5,-343 10.5,-343"/>
<text text-anchor="start" x="15.5" y="-352.2" font-family="Helvetica,sans-Serif" font-weight="bold" font-size="11.00">pipe_point_normal_kind</text>
<text text-anchor="start" x="204.5" y="-351.2" font-family="Helvetica,sans-Serif" font-size="11.00">[table]</text>
<polygon fill="none" stroke="black" points="10.5,-321 10.5,-343 173.5,-343 173.5,-321 10.5,-321"/>
<image xlink:href="../../images/primaryKeys.png" width="11px" height="12px" preserveAspectRatio="xMinYMin meet" x="15.5" y="-338"/>
<text text-anchor="start" x="30.5" y="-329.2" font-family="Helvetica,sans-Serif" font-size="11.00">code</text>
<polygon fill="none" stroke="black" points="173.5,-321 173.5,-343 243.5,-343 243.5,-321 173.5,-321"/>
<text text-anchor="start" x="176.5" y="-329.2" font-family="Helvetica,sans-Serif" font-size="11.00">int4[10]</text>
<polygon fill="none" stroke="black" points="10.5,-299 10.5,-321 173.5,-321 173.5,-299 10.5,-299"/>
<text text-anchor="start" x="30.5" y="-307.2" font-family="Helvetica,sans-Serif" font-size="11.00">vsacode</text>
<polygon fill="none" stroke="black" points="173.5,-299 173.5,-321 243.5,-321 243.5,-299 173.5,-299"/>
<text text-anchor="start" x="176.5" y="-307.2" font-family="Helvetica,sans-Serif" font-size="11.00">int4[10]</text>
<polygon fill="none" stroke="black" points="10.5,-277 10.5,-299 173.5,-299 173.5,-277 10.5,-277"/>
<text text-anchor="start" x="30.5" y="-285.2" font-family="Helvetica,sans-Serif" font-size="11.00">value_en</text>
<polygon fill="none" stroke="black" points="173.5,-277 173.5,-299 243.5,-299 243.5,-277 173.5,-277"/>
<text text-anchor="start" x="176.5" y="-285.2" font-family="Helvetica,sans-Serif" font-size="11.00">varchar[100]</text>
<polygon fill="none" stroke="black" points="10.5,-255 10.5,-277 173.5,-277 173.5,-255 10.5,-255"/>
<text text-anchor="start" x="30.5" y="-263.2" font-family="Helvetica,sans-Serif" font-size="11.00">value_de</text>
<polygon fill="none" stroke="black" points="173.5,-255 173.5,-277 243.5,-277 243.5,-255 173.5,-255"/>
<text text-anchor="start" x="176.5" y="-263.2" font-family="Helvetica,sans-Serif" font-size="11.00">varchar[100]</text>
<polygon fill="none" stroke="black" points="10.5,-233 10.5,-255 173.5,-255 173.5,-233 10.5,-233"/>
<text text-anchor="start" x="30.5" y="-241.2" font-family="Helvetica,sans-Serif" font-size="11.00">value_fr</text>
<polygon fill="none" stroke="black" points="173.5,-233 173.5,-255 243.5,-255 243.5,-233 173.5,-233"/>
<text text-anchor="start" x="176.5" y="-241.2" font-family="Helvetica,sans-Serif" font-size="11.00">varchar[100]</text>
<polygon fill="none" stroke="black" points="10.5,-211 10.5,-233 173.5,-233 173.5,-211 10.5,-211"/>
<text text-anchor="start" x="30.5" y="-219.2" font-family="Helvetica,sans-Serif" font-size="11.00">value_it</text>
<polygon fill="none" stroke="black" points="173.5,-211 173.5,-233 243.5,-233 243.5,-211 173.5,-211"/>
<text text-anchor="start" x="176.5" y="-219.2" font-family="Helvetica,sans-Serif" font-size="11.00">varchar[100]</text>
<polygon fill="none" stroke="black" points="10.5,-189 10.5,-211 173.5,-211 173.5,-189 10.5,-189"/>
<text text-anchor="start" x="30.5" y="-197.2" font-family="Helvetica,sans-Serif" font-size="11.00">value_ro</text>
<polygon fill="none" stroke="black" points="173.5,-189 173.5,-211 243.5,-211 243.5,-189 173.5,-189"/>
<text text-anchor="start" x="176.5" y="-197.2" font-family="Helvetica,sans-Serif" font-size="11.00">varchar[100]</text>
<polygon fill="none" stroke="black" points="10.5,-167 10.5,-189 173.5,-189 173.5,-167 10.5,-167"/>
<text text-anchor="start" x="30.5" y="-175.2" font-family="Helvetica,sans-Serif" font-size="11.00">abbr_en</text>
<polygon fill="none" stroke="black" points="173.5,-167 173.5,-189 243.5,-189 243.5,-167 173.5,-167"/>
<text text-anchor="start" x="176.5" y="-175.2" font-family="Helvetica,sans-Serif" font-size="11.00">varchar[3]</text>
<polygon fill="none" stroke="black" points="10.5,-145 10.5,-167 173.5,-167 173.5,-145 10.5,-145"/>
<text text-anchor="start" x="30.5" y="-153.2" font-family="Helvetica,sans-Serif" font-size="11.00">abbr_de</text>
<polygon fill="none" stroke="black" points="173.5,-145 173.5,-167 243.5,-167 243.5,-145 173.5,-145"/>
<text text-anchor="start" x="176.5" y="-153.2" font-family="Helvetica,sans-Serif" font-size="11.00">varchar[3]</text>
<polygon fill="none" stroke="black" points="10.5,-123 10.5,-145 173.5,-145 173.5,-123 10.5,-123"/>
<text text-anchor="start" x="30.5" y="-131.2" font-family="Helvetica,sans-Serif" font-size="11.00">abbr_fr</text>
<polygon fill="none" stroke="black" points="173.5,-123 173.5,-145 243.5,-145 243.5,-123 173.5,-123"/>
<text text-anchor="start" x="176.5" y="-131.2" font-family="Helvetica,sans-Serif" font-size="11.00">varchar[3]</text>
<polygon fill="none" stroke="black" points="10.5,-101 10.5,-123 173.5,-123 173.5,-101 10.5,-101"/>
<text text-anchor="start" x="30.5" y="-109.2" font-family="Helvetica,sans-Serif" font-size="11.00">abbr_it</text>
<polygon fill="none" stroke="black" points="173.5,-101 173.5,-123 243.5,-123 243.5,-101 173.5,-101"/>
<text text-anchor="start" x="176.5" y="-109.2" font-family="Helvetica,sans-Serif" font-size="11.00">varchar[3]</text>
<polygon fill="none" stroke="black" points="10.5,-79 10.5,-101 173.5,-101 173.5,-79 10.5,-79"/>
<text text-anchor="start" x="30.5" y="-87.2" font-family="Helvetica,sans-Serif" font-size="11.00">abbr_ro</text>
<polygon fill="none" stroke="black" points="173.5,-79 173.5,-101 243.5,-101 243.5,-79 173.5,-79"/>
<text text-anchor="start" x="176.5" y="-87.2" font-family="Helvetica,sans-Serif" font-size="11.00">varchar[3]</text>
<polygon fill="none" stroke="black" points="10.5,-57 10.5,-79 173.5,-79 173.5,-57 10.5,-57"/>
<text text-anchor="start" x="30.5" y="-65.2" font-family="Helvetica,sans-Serif" font-size="11.00">active</text>
<polygon fill="none" stroke="black" points="173.5,-57 173.5,-79 243.5,-79 243.5,-57 173.5,-57"/>
<text text-anchor="start" x="176.5" y="-65.2" font-family="Helvetica,sans-Serif" font-size="11.00">bool[1]</text>
<polygon fill="#ffffff" stroke="transparent" points="10.5,-39 10.5,-57 96.5,-57 96.5,-39 10.5,-39"/>
<polygon fill="none" stroke="black" points="10.5,-39 10.5,-57 96.5,-57 96.5,-39 10.5,-39"/>
<text text-anchor="start" x="13.5" y="-45.2" font-family="Helvetica,sans-Serif" font-size="11.00">&lt; 0</text>
<polygon fill="#ffffff" stroke="transparent" points="96.5,-39 96.5,-57 173.5,-57 173.5,-39 96.5,-39"/>
<polygon fill="none" stroke="black" points="96.5,-39 96.5,-57 173.5,-57 173.5,-39 96.5,-39"/>
<text text-anchor="start" x="163.5" y="-45.2" font-family="Helvetica,sans-Serif" font-size="11.00"> &#160;</text>
<polygon fill="#ffffff" stroke="transparent" points="173.5,-39 173.5,-57 243.5,-57 243.5,-39 173.5,-39"/>
<polygon fill="none" stroke="black" points="173.5,-39 173.5,-57 243.5,-57 243.5,-39 173.5,-39"/>
<text text-anchor="start" x="224.5" y="-45.2" font-family="Helvetica,sans-Serif" font-size="11.00">1 &gt;</text>
<polygon fill="none" stroke="black" stroke-width="2" points="9,-38 9,-366 244,-366 244,-38 9,-38"/>
</a>
</g>
</g>
<!-- tdh_od.pipe_point_normal&#45;&gt;pipe_point_normal_kind -->
<g id="edge1" class="edge">
<title>tdh_od.pipe_point_normal:w&#45;&gt;pipe_point_normal_kind:e</title>
<path fill="none" stroke="black" d="M278.99,-332C267.68,-332 260.49,-332 244.5,-332"/>
<polygon fill="black" stroke="black" points="285.5,-332 293.5,-335.6 289.5,-332 293.5,-332 293.5,-332 293.5,-332 289.5,-332 293.5,-328.4 285.5,-332 285.5,-332"/>
<ellipse fill="none" stroke="black" cx="282.3" cy="-332" rx="3.2" ry="3.2"/>
</g>
</g>
</svg>
