<?xml version="1.0" encoding="UTF-8" standalone="no"?>
<!DOCTYPE svg PUBLIC "-//W3C//DTD SVG 1.1//EN"
 "http://www.w3.org/Graphics/SVG/1.1/DTD/svg11.dtd">
<!-- Generated by graphviz version 2.47.1 (20210515.0534)
 -->
<!-- Title: oneDegreeRelationshipsDiagram Pages: 1 -->
<svg width="538pt" height="379pt"
 viewBox="0.00 0.00 538.00 379.00" xmlns="http://www.w3.org/2000/svg" xmlns:xlink="http://www.w3.org/1999/xlink">
<g id="graph0" class="graph" transform="scale(1 1) rotate(0) translate(4 375)">
<title>oneDegreeRelationshipsDiagram</title>
<polygon fill="#ffffff" stroke="transparent" points="-4,4 -4,-375 534,-375 534,4 -4,4"/>
<text text-anchor="middle" x="73.5" y="-7.2" font-family="Helvetica,sans-Serif" font-size="11.00">Generated by SchemaSpy</text>
<!-- tdh_od.pipe_point -->
<g id="node1" class="node">
<title>tdh_od.pipe_point</title>
<g id="a_node1"><a xlink:href="../../../tdh_od/tables/pipe_point.html" xlink:title="tdh_od.pipe_point" target="_top">
<polygon fill="#ffffff" stroke="transparent" points="353,-263 353,-365 522,-365 522,-263 353,-263"/>
<polygon fill="#f5f5f5" stroke="transparent" points="353.5,-343 353.5,-365 522.5,-365 522.5,-343 353.5,-343"/>
<polygon fill="none" stroke="black" points="353.5,-343 353.5,-365 522.5,-365 522.5,-343 353.5,-343"/>
<text text-anchor="start" x="358.5" y="-352.2" font-family="Helvetica,sans-Serif" font-weight="bold" font-size="11.00">tdh_od.pipe_point</text>
<text text-anchor="start" x="483.5" y="-351.2" font-family="Helvetica,sans-Serif" font-size="11.00">[table]</text>
<polygon fill="none" stroke="black" points="353.5,-321 353.5,-343 522.5,-343 522.5,-321 353.5,-321"/>
<image xlink:href="../../images/foreignKeys.png" width="11px" height="12px" preserveAspectRatio="xMinYMin meet" x="358.5" y="-338"/>
<text text-anchor="start" x="373.5" y="-329.2" font-family="Helvetica,sans-Serif" font-size="11.00">horizontal_positioning</text>
<polygon fill="none" stroke="black" points="353.5,-299 353.5,-321 522.5,-321 522.5,-299 353.5,-299"/>
<image xlink:href="../../images/foreignKeys.png" width="11px" height="12px" preserveAspectRatio="xMinYMin meet" x="358.5" y="-316"/>
<text text-anchor="start" x="373.5" y="-307.2" font-family="Helvetica,sans-Serif" font-size="11.00">elevation_determination</text>
<polygon fill="none" stroke="black" points="353.5,-281 353.5,-299 522.5,-299 522.5,-281 353.5,-281"/>
<text text-anchor="start" x="356.5" y="-287.2" font-family="Helvetica,sans-Serif" font-size="11.00">...</text>
<polygon fill="#ffffff" stroke="transparent" points="353.5,-263 353.5,-281 422.5,-281 422.5,-263 353.5,-263"/>
<polygon fill="none" stroke="black" points="353.5,-263 353.5,-281 422.5,-281 422.5,-263 353.5,-263"/>
<text text-anchor="start" x="356.5" y="-269.2" font-family="Helvetica,sans-Serif" font-size="11.00">&lt; 2</text>
<polygon fill="#ffffff" stroke="transparent" points="422.5,-263 422.5,-281 485.5,-281 485.5,-263 422.5,-263"/>
<polygon fill="none" stroke="black" points="422.5,-263 422.5,-281 485.5,-281 485.5,-263 422.5,-263"/>
<text text-anchor="start" x="448.5" y="-269.2" font-family="Helvetica,sans-Serif" font-size="11.00">0 rows</text>
<polygon fill="#ffffff" stroke="transparent" points="485.5,-263 485.5,-281 522.5,-281 522.5,-263 485.5,-263"/>
<polygon fill="none" stroke="black" points="485.5,-263 485.5,-281 522.5,-281 522.5,-263 485.5,-263"/>
<text text-anchor="start" x="512.5" y="-269.2" font-family="Helvetica,sans-Serif" font-size="11.00"> &#160;</text>
</a>
</g>
</g>
<!-- pipe_point_horizontal_positioning -->
<g id="node2" class="node">
<title>pipe_point_horizontal_positioning</title>
<g id="a_node2"><a xlink:href="../../tables/pipe_point_horizontal_positioning.html" xlink:title="pipe_point_horizontal_positioning" target="_top">
<polygon fill="#ffffff" stroke="transparent" points="8,-37 8,-367 304,-367 304,-37 8,-37"/>
<polygon fill="#f5f5f5" stroke="transparent" points="10,-343 10,-365 302,-365 302,-343 10,-343"/>
<polygon fill="none" stroke="black" points="10,-343 10,-365 302,-365 302,-343 10,-343"/>
<text text-anchor="start" x="15" y="-352.2" font-family="Helvetica,sans-Serif" font-weight="bold" font-size="11.00">pipe_point_horizontal_positioning</text>
<text text-anchor="start" x="263" y="-351.2" font-family="Helvetica,sans-Serif" font-size="11.00">[table]</text>
<polygon fill="none" stroke="black" points="10,-321 10,-343 232,-343 232,-321 10,-321"/>
<image xlink:href="../../images/primaryKeys.png" width="11px" height="12px" preserveAspectRatio="xMinYMin meet" x="15" y="-338"/>
<text text-anchor="start" x="30" y="-329.2" font-family="Helvetica,sans-Serif" font-size="11.00">code</text>
<polygon fill="none" stroke="black" points="232,-321 232,-343 302,-343 302,-321 232,-321"/>
<text text-anchor="start" x="235" y="-329.2" font-family="Helvetica,sans-Serif" font-size="11.00">int4[10]</text>
<polygon fill="none" stroke="black" points="10,-299 10,-321 232,-321 232,-299 10,-299"/>
<text text-anchor="start" x="30" y="-307.2" font-family="Helvetica,sans-Serif" font-size="11.00">vsacode</text>
<polygon fill="none" stroke="black" points="232,-299 232,-321 302,-321 302,-299 232,-299"/>
<text text-anchor="start" x="235" y="-307.2" font-family="Helvetica,sans-Serif" font-size="11.00">int4[10]</text>
<polygon fill="none" stroke="black" points="10,-277 10,-299 232,-299 232,-277 10,-277"/>
<text text-anchor="start" x="30" y="-285.2" font-family="Helvetica,sans-Serif" font-size="11.00">value_en</text>
<polygon fill="none" stroke="black" points="232,-277 232,-299 302,-299 302,-277 232,-277"/>
<text text-anchor="start" x="235" y="-285.2" font-family="Helvetica,sans-Serif" font-size="11.00">varchar[100]</text>
<polygon fill="none" stroke="black" points="10,-255 10,-277 232,-277 232,-255 10,-255"/>
<text text-anchor="start" x="30" y="-263.2" font-family="Helvetica,sans-Serif" font-size="11.00">value_de</text>
<polygon fill="none" stroke="black" points="232,-255 232,-277 302,-277 302,-255 232,-255"/>
<text text-anchor="start" x="235" y="-263.2" font-family="Helvetica,sans-Serif" font-size="11.00">varchar[100]</text>
<polygon fill="none" stroke="black" points="10,-233 10,-255 232,-255 232,-233 10,-233"/>
<text text-anchor="start" x="30" y="-241.2" font-family="Helvetica,sans-Serif" font-size="11.00">value_fr</text>
<polygon fill="none" stroke="black" points="232,-233 232,-255 302,-255 302,-233 232,-233"/>
<text text-anchor="start" x="235" y="-241.2" font-family="Helvetica,sans-Serif" font-size="11.00">varchar[100]</text>
<polygon fill="none" stroke="black" points="10,-211 10,-233 232,-233 232,-211 10,-211"/>
<text text-anchor="start" x="30" y="-219.2" font-family="Helvetica,sans-Serif" font-size="11.00">value_it</text>
<polygon fill="none" stroke="black" points="232,-211 232,-233 302,-233 302,-211 232,-211"/>
<text text-anchor="start" x="235" y="-219.2" font-family="Helvetica,sans-Serif" font-size="11.00">varchar[100]</text>
<polygon fill="none" stroke="black" points="10,-189 10,-211 232,-211 232,-189 10,-189"/>
<text text-anchor="start" x="30" y="-197.2" font-family="Helvetica,sans-Serif" font-size="11.00">value_ro</text>
<polygon fill="none" stroke="black" points="232,-189 232,-211 302,-211 302,-189 232,-189"/>
<text text-anchor="start" x="235" y="-197.2" font-family="Helvetica,sans-Serif" font-size="11.00">varchar[100]</text>
<polygon fill="none" stroke="black" points="10,-167 10,-189 232,-189 232,-167 10,-167"/>
<text text-anchor="start" x="30" y="-175.2" font-family="Helvetica,sans-Serif" font-size="11.00">abbr_en</text>
<polygon fill="none" stroke="black" points="232,-167 232,-189 302,-189 302,-167 232,-167"/>
<text text-anchor="start" x="235" y="-175.2" font-family="Helvetica,sans-Serif" font-size="11.00">varchar[3]</text>
<polygon fill="none" stroke="black" points="10,-145 10,-167 232,-167 232,-145 10,-145"/>
<text text-anchor="start" x="30" y="-153.2" font-family="Helvetica,sans-Serif" font-size="11.00">abbr_de</text>
<polygon fill="none" stroke="black" points="232,-145 232,-167 302,-167 302,-145 232,-145"/>
<text text-anchor="start" x="235" y="-153.2" font-family="Helvetica,sans-Serif" font-size="11.00">varchar[3]</text>
<polygon fill="none" stroke="black" points="10,-123 10,-145 232,-145 232,-123 10,-123"/>
<text text-anchor="start" x="30" y="-131.2" font-family="Helvetica,sans-Serif" font-size="11.00">abbr_fr</text>
<polygon fill="none" stroke="black" points="232,-123 232,-145 302,-145 302,-123 232,-123"/>
<text text-anchor="start" x="235" y="-131.2" font-family="Helvetica,sans-Serif" font-size="11.00">varchar[3]</text>
<polygon fill="none" stroke="black" points="10,-101 10,-123 232,-123 232,-101 10,-101"/>
<text text-anchor="start" x="30" y="-109.2" font-family="Helvetica,sans-Serif" font-size="11.00">abbr_it</text>
<polygon fill="none" stroke="black" points="232,-101 232,-123 302,-123 302,-101 232,-101"/>
<text text-anchor="start" x="235" y="-109.2" font-family="Helvetica,sans-Serif" font-size="11.00">varchar[3]</text>
<polygon fill="none" stroke="black" points="10,-79 10,-101 232,-101 232,-79 10,-79"/>
<text text-anchor="start" x="30" y="-87.2" font-family="Helvetica,sans-Serif" font-size="11.00">abbr_ro</text>
<polygon fill="none" stroke="black" points="232,-79 232,-101 302,-101 302,-79 232,-79"/>
<text text-anchor="start" x="235" y="-87.2" font-family="Helvetica,sans-Serif" font-size="11.00">varchar[3]</text>
<polygon fill="none" stroke="black" points="10,-57 10,-79 232,-79 232,-57 10,-57"/>
<text text-anchor="start" x="30" y="-65.2" font-family="Helvetica,sans-Serif" font-size="11.00">active</text>
<polygon fill="none" stroke="black" points="232,-57 232,-79 302,-79 302,-57 232,-57"/>
<text text-anchor="start" x="235" y="-65.2" font-family="Helvetica,sans-Serif" font-size="11.00">bool[1]</text>
<polygon fill="#ffffff" stroke="transparent" points="10,-39 10,-57 125,-57 125,-39 10,-39"/>
<polygon fill="none" stroke="black" points="10,-39 10,-57 125,-57 125,-39 10,-39"/>
<text text-anchor="start" x="13" y="-45.2" font-family="Helvetica,sans-Serif" font-size="11.00">&lt; 0</text>
<polygon fill="#ffffff" stroke="transparent" points="125,-39 125,-57 232,-57 232,-39 125,-39"/>
<polygon fill="none" stroke="black" points="125,-39 125,-57 232,-57 232,-39 125,-39"/>
<text text-anchor="start" x="222" y="-45.2" font-family="Helvetica,sans-Serif" font-size="11.00"> &#160;</text>
<polygon fill="#ffffff" stroke="transparent" points="232,-39 232,-57 302,-57 302,-39 232,-39"/>
<polygon fill="none" stroke="black" points="232,-39 232,-57 302,-57 302,-39 232,-39"/>
<text text-anchor="start" x="283" y="-45.2" font-family="Helvetica,sans-Serif" font-size="11.00">1 &gt;</text>
<polygon fill="none" stroke="black" stroke-width="2" points="9,-38 9,-366 303,-366 303,-38 9,-38"/>
</a>
</g>
</g>
<!-- tdh_od.pipe_point&#45;&gt;pipe_point_horizontal_positioning -->
<g id="edge1" class="edge">
<title>tdh_od.pipe_point:w&#45;&gt;pipe_point_horizontal_positioning:e</title>
<path fill="none" stroke="black" d="M337.84,-332C326.41,-332 319.16,-332 303,-332"/>
<polygon fill="black" stroke="black" points="344.5,-332 352.5,-335.6 348.5,-332 352.5,-332 352.5,-332 352.5,-332 348.5,-332 352.5,-328.4 344.5,-332 344.5,-332"/>
<ellipse fill="none" stroke="black" cx="341.3" cy="-332" rx="3.2" ry="3.2"/>
</g>
</g>
</svg>
