<?xml version="1.0" encoding="UTF-8" standalone="no"?>
<!DOCTYPE svg PUBLIC "-//W3C//DTD SVG 1.1//EN"
 "http://www.w3.org/Graphics/SVG/1.1/DTD/svg11.dtd">
<!-- Generated by graphviz version 2.43.0 (0)
 -->
<!-- Title: oneDegreeRelationshipsDiagram Pages: 1 -->
<svg width="641pt" height="641pt"
 viewBox="0.00 0.00 641.00 641.00" xmlns="http://www.w3.org/2000/svg" xmlns:xlink="http://www.w3.org/1999/xlink">
<g id="graph0" class="graph" transform="scale(1 1) rotate(0) translate(4 637)">
<title>oneDegreeRelationshipsDiagram</title>
<polygon fill="#ffffff" stroke="transparent" points="-4,4 -4,-637 637,-637 637,4 -4,4"/>
<text text-anchor="middle" x="79.5" y="-7.2" font-family="Helvetica,sans-Serif" font-size="11.00">Generated by SchemaSpy</text>
<!-- tdh_od.pipe_point_normal -->
<g id="node1" class="node">
<title>tdh_od.pipe_point_normal</title>
<g id="a_node1"><a xlink:href="../../../tdh_od/tables/pipe_point_normal.html" xlink:title="tdh_od.pipe_point_normal" target="_top">
<polygon fill="#ffffff" stroke="transparent" points="390,-505 390,-629 625,-629 625,-505 390,-505"/>
<polygon fill="#f5f5f5" stroke="transparent" points="390.5,-607 390.5,-629 625.5,-629 625.5,-607 390.5,-607"/>
<polygon fill="none" stroke="black" points="390.5,-607 390.5,-629 625.5,-629 625.5,-607 390.5,-607"/>
<text text-anchor="start" x="395.5" y="-616.2" font-family="Helvetica,sans-Serif" font-weight="bold" font-size="11.00">tdh_od.pipe_point_normal</text>
<text text-anchor="start" x="583.5" y="-615.2" font-family="Helvetica,sans-Serif" font-size="11.00">[table]</text>
<polygon fill="none" stroke="black" points="390.5,-585 390.5,-607 625.5,-607 625.5,-585 390.5,-585"/>
<image xlink:href="../../images/foreignKeys.png" width="11px" height="12px" preserveAspectRatio="xMinYMin meet" x="395.5" y="-602"/>
<text text-anchor="start" x="450.5" y="-593.2" font-family="Helvetica,sans-Serif" font-size="11.00">kind</text>
<polygon fill="none" stroke="black" points="390.5,-563 390.5,-585 625.5,-585 625.5,-563 390.5,-563"/>
<image xlink:href="../../images/foreignKeys.png" width="11px" height="12px" preserveAspectRatio="xMinYMin meet" x="395.5" y="-580"/>
<text text-anchor="start" x="450.5" y="-571.2" font-family="Helvetica,sans-Serif" font-size="11.00">armature_setting</text>
<polygon fill="none" stroke="black" points="390.5,-541 390.5,-563 625.5,-563 625.5,-541 390.5,-541"/>
<image xlink:href="../../images/foreignKeys.png" width="11px" height="12px" preserveAspectRatio="xMinYMin meet" x="395.5" y="-558"/>
<text text-anchor="start" x="450.5" y="-549.2" font-family="Helvetica,sans-Serif" font-size="11.00">material</text>
<polygon fill="none" stroke="black" points="390.5,-523 390.5,-541 625.5,-541 625.5,-523 390.5,-523"/>
<text text-anchor="start" x="393.5" y="-529.2" font-family="Helvetica,sans-Serif" font-size="11.00">...</text>
<polygon fill="#ffffff" stroke="transparent" points="390.5,-505 390.5,-523 625.5,-523 625.5,-505 390.5,-505"/>
<polygon fill="none" stroke="black" points="390.5,-505 390.5,-523 625.5,-523 625.5,-505 390.5,-505"/>
<polygon fill="#ffffff" stroke="transparent" points="391.5,-506 391.5,-522 467.5,-522 467.5,-506 391.5,-506"/>
<text text-anchor="start" x="393.5" y="-511.2" font-family="Helvetica,sans-Serif" font-size="11.00">&lt; 3</text>
<polygon fill="#ffffff" stroke="transparent" points="467.5,-506 467.5,-522 560.5,-522 560.5,-506 467.5,-506"/>
<text text-anchor="start" x="495.5" y="-511.2" font-family="Helvetica,sans-Serif" font-size="11.00">0 rows</text>
<polygon fill="#ffffff" stroke="transparent" points="560.5,-506 560.5,-522 624.5,-522 624.5,-506 560.5,-506"/>
<text text-anchor="start" x="614.5" y="-511.2" font-family="Helvetica,sans-Serif" font-size="11.00"> &#160;</text>
<polygon fill="black" stroke="black" points="467.5,-506 467.5,-522 467.5,-522 467.5,-506 467.5,-506"/>
<polygon fill="black" stroke="black" points="560.5,-506 560.5,-522 560.5,-522 560.5,-506 560.5,-506"/>
</a>
</g>
</g>
<!-- pipe_point_normal_material -->
<g id="node2" class="node">
<title>pipe_point_normal_material</title>
<g id="a_node2"><a xlink:href="../../tables/pipe_point_normal_material.html" xlink:title="pipe_point_normal_material" target="_top">
<polygon fill="#ffffff" stroke="transparent" points="8,-37 8,-587 341,-587 341,-37 8,-37"/>
<polygon fill="#f5f5f5" stroke="transparent" points="10.5,-563 10.5,-585 339.5,-585 339.5,-563 10.5,-563"/>
<polygon fill="none" stroke="black" points="10.5,-563 10.5,-585 339.5,-585 339.5,-563 10.5,-563"/>
<text text-anchor="start" x="15.5" y="-572.2" font-family="Helvetica,sans-Serif" font-weight="bold" font-size="11.00">pipe_point_normal_material</text>
<text text-anchor="start" x="297.5" y="-571.2" font-family="Helvetica,sans-Serif" font-size="11.00">[table]</text>
<polygon fill="none" stroke="black" points="10.5,-541 10.5,-563 233.5,-563 233.5,-541 10.5,-541"/>
<image xlink:href="../../images/primaryKeys.png" width="11px" height="12px" preserveAspectRatio="xMinYMin meet" x="15.5" y="-558"/>
<text text-anchor="start" x="30.5" y="-549.2" font-family="Helvetica,sans-Serif" font-size="11.00">code</text>
<polygon fill="none" stroke="black" points="233.5,-541 233.5,-563 339.5,-563 339.5,-541 233.5,-541"/>
<text text-anchor="start" x="236.5" y="-549.2" font-family="Helvetica,sans-Serif" font-size="11.00">int4[10]</text>
<polygon fill="none" stroke="black" points="10.5,-519 10.5,-541 233.5,-541 233.5,-519 10.5,-519"/>
<text text-anchor="start" x="30.5" y="-527.2" font-family="Helvetica,sans-Serif" font-size="11.00">vsacode</text>
<polygon fill="none" stroke="black" points="233.5,-519 233.5,-541 339.5,-541 339.5,-519 233.5,-519"/>
<text text-anchor="start" x="236.5" y="-527.2" font-family="Helvetica,sans-Serif" font-size="11.00">int4[10]</text>
<polygon fill="none" stroke="black" points="10.5,-497 10.5,-519 233.5,-519 233.5,-497 10.5,-497"/>
<text text-anchor="start" x="30.5" y="-505.2" font-family="Helvetica,sans-Serif" font-size="11.00">value_en</text>
<polygon fill="none" stroke="black" points="233.5,-497 233.5,-519 339.5,-519 339.5,-497 233.5,-497"/>
<text text-anchor="start" x="236.5" y="-505.2" font-family="Helvetica,sans-Serif" font-size="11.00">varchar[100]</text>
<polygon fill="none" stroke="black" points="10.5,-475 10.5,-497 233.5,-497 233.5,-475 10.5,-475"/>
<text text-anchor="start" x="30.5" y="-483.2" font-family="Helvetica,sans-Serif" font-size="11.00">value_de</text>
<polygon fill="none" stroke="black" points="233.5,-475 233.5,-497 339.5,-497 339.5,-475 233.5,-475"/>
<text text-anchor="start" x="236.5" y="-483.2" font-family="Helvetica,sans-Serif" font-size="11.00">varchar[100]</text>
<polygon fill="none" stroke="black" points="10.5,-453 10.5,-475 233.5,-475 233.5,-453 10.5,-453"/>
<text text-anchor="start" x="30.5" y="-461.2" font-family="Helvetica,sans-Serif" font-size="11.00">value_fr</text>
<polygon fill="none" stroke="black" points="233.5,-453 233.5,-475 339.5,-475 339.5,-453 233.5,-453"/>
<text text-anchor="start" x="236.5" y="-461.2" font-family="Helvetica,sans-Serif" font-size="11.00">varchar[100]</text>
<polygon fill="none" stroke="black" points="10.5,-431 10.5,-453 233.5,-453 233.5,-431 10.5,-431"/>
<text text-anchor="start" x="30.5" y="-439.2" font-family="Helvetica,sans-Serif" font-size="11.00">value_it</text>
<polygon fill="none" stroke="black" points="233.5,-431 233.5,-453 339.5,-453 339.5,-431 233.5,-431"/>
<text text-anchor="start" x="236.5" y="-439.2" font-family="Helvetica,sans-Serif" font-size="11.00">varchar[100]</text>
<polygon fill="none" stroke="black" points="10.5,-409 10.5,-431 233.5,-431 233.5,-409 10.5,-409"/>
<text text-anchor="start" x="30.5" y="-417.2" font-family="Helvetica,sans-Serif" font-size="11.00">value_ro</text>
<polygon fill="none" stroke="black" points="233.5,-409 233.5,-431 339.5,-431 339.5,-409 233.5,-409"/>
<text text-anchor="start" x="236.5" y="-417.2" font-family="Helvetica,sans-Serif" font-size="11.00">varchar[100]</text>
<polygon fill="none" stroke="black" points="10.5,-387 10.5,-409 233.5,-409 233.5,-387 10.5,-387"/>
<text text-anchor="start" x="30.5" y="-395.2" font-family="Helvetica,sans-Serif" font-size="11.00">abbr_en</text>
<polygon fill="none" stroke="black" points="233.5,-387 233.5,-409 339.5,-409 339.5,-387 233.5,-387"/>
<text text-anchor="start" x="236.5" y="-395.2" font-family="Helvetica,sans-Serif" font-size="11.00">varchar[3]</text>
<polygon fill="none" stroke="black" points="10.5,-365 10.5,-387 233.5,-387 233.5,-365 10.5,-365"/>
<text text-anchor="start" x="30.5" y="-373.2" font-family="Helvetica,sans-Serif" font-size="11.00">abbr_de</text>
<polygon fill="none" stroke="black" points="233.5,-365 233.5,-387 339.5,-387 339.5,-365 233.5,-365"/>
<text text-anchor="start" x="236.5" y="-373.2" font-family="Helvetica,sans-Serif" font-size="11.00">varchar[3]</text>
<polygon fill="none" stroke="black" points="10.5,-343 10.5,-365 233.5,-365 233.5,-343 10.5,-343"/>
<text text-anchor="start" x="30.5" y="-351.2" font-family="Helvetica,sans-Serif" font-size="11.00">abbr_fr</text>
<polygon fill="none" stroke="black" points="233.5,-343 233.5,-365 339.5,-365 339.5,-343 233.5,-343"/>
<text text-anchor="start" x="236.5" y="-351.2" font-family="Helvetica,sans-Serif" font-size="11.00">varchar[3]</text>
<polygon fill="none" stroke="black" points="10.5,-321 10.5,-343 233.5,-343 233.5,-321 10.5,-321"/>
<text text-anchor="start" x="30.5" y="-329.2" font-family="Helvetica,sans-Serif" font-size="11.00">abbr_it</text>
<polygon fill="none" stroke="black" points="233.5,-321 233.5,-343 339.5,-343 339.5,-321 233.5,-321"/>
<text text-anchor="start" x="236.5" y="-329.2" font-family="Helvetica,sans-Serif" font-size="11.00">varchar[3]</text>
<polygon fill="none" stroke="black" points="10.5,-299 10.5,-321 233.5,-321 233.5,-299 10.5,-299"/>
<text text-anchor="start" x="30.5" y="-307.2" font-family="Helvetica,sans-Serif" font-size="11.00">abbr_ro</text>
<polygon fill="none" stroke="black" points="233.5,-299 233.5,-321 339.5,-321 339.5,-299 233.5,-299"/>
<text text-anchor="start" x="236.5" y="-307.2" font-family="Helvetica,sans-Serif" font-size="11.00">varchar[3]</text>
<polygon fill="none" stroke="black" points="10.5,-277 10.5,-299 233.5,-299 233.5,-277 10.5,-277"/>
<text text-anchor="start" x="30.5" y="-285.2" font-family="Helvetica,sans-Serif" font-size="11.00">description_en</text>
<polygon fill="none" stroke="black" points="233.5,-277 233.5,-299 339.5,-299 339.5,-277 233.5,-277"/>
<text text-anchor="start" x="236.5" y="-285.2" font-family="Helvetica,sans-Serif" font-size="11.00">text[2147483647]</text>
<polygon fill="none" stroke="black" points="10.5,-255 10.5,-277 233.5,-277 233.5,-255 10.5,-255"/>
<text text-anchor="start" x="30.5" y="-263.2" font-family="Helvetica,sans-Serif" font-size="11.00">description_de</text>
<polygon fill="none" stroke="black" points="233.5,-255 233.5,-277 339.5,-277 339.5,-255 233.5,-255"/>
<text text-anchor="start" x="236.5" y="-263.2" font-family="Helvetica,sans-Serif" font-size="11.00">text[2147483647]</text>
<polygon fill="none" stroke="black" points="10.5,-233 10.5,-255 233.5,-255 233.5,-233 10.5,-233"/>
<text text-anchor="start" x="30.5" y="-241.2" font-family="Helvetica,sans-Serif" font-size="11.00">description_fr</text>
<polygon fill="none" stroke="black" points="233.5,-233 233.5,-255 339.5,-255 339.5,-233 233.5,-233"/>
<text text-anchor="start" x="236.5" y="-241.2" font-family="Helvetica,sans-Serif" font-size="11.00">text[2147483647]</text>
<polygon fill="none" stroke="black" points="10.5,-211 10.5,-233 233.5,-233 233.5,-211 10.5,-211"/>
<text text-anchor="start" x="30.5" y="-219.2" font-family="Helvetica,sans-Serif" font-size="11.00">description_it</text>
<polygon fill="none" stroke="black" points="233.5,-211 233.5,-233 339.5,-233 339.5,-211 233.5,-211"/>
<text text-anchor="start" x="236.5" y="-219.2" font-family="Helvetica,sans-Serif" font-size="11.00">text[2147483647]</text>
<polygon fill="none" stroke="black" points="10.5,-189 10.5,-211 233.5,-211 233.5,-189 10.5,-189"/>
<text text-anchor="start" x="30.5" y="-197.2" font-family="Helvetica,sans-Serif" font-size="11.00">description_ro</text>
<polygon fill="none" stroke="black" points="233.5,-189 233.5,-211 339.5,-211 339.5,-189 233.5,-189"/>
<text text-anchor="start" x="236.5" y="-197.2" font-family="Helvetica,sans-Serif" font-size="11.00">text[2147483647]</text>
<polygon fill="none" stroke="black" points="10.5,-167 10.5,-189 233.5,-189 233.5,-167 10.5,-167"/>
<text text-anchor="start" x="30.5" y="-175.2" font-family="Helvetica,sans-Serif" font-size="11.00">display_en</text>
<polygon fill="none" stroke="black" points="233.5,-167 233.5,-189 339.5,-189 339.5,-167 233.5,-167"/>
<text text-anchor="start" x="236.5" y="-175.2" font-family="Helvetica,sans-Serif" font-size="11.00">varchar[100]</text>
<polygon fill="none" stroke="black" points="10.5,-145 10.5,-167 233.5,-167 233.5,-145 10.5,-145"/>
<text text-anchor="start" x="30.5" y="-153.2" font-family="Helvetica,sans-Serif" font-size="11.00">display_de</text>
<polygon fill="none" stroke="black" points="233.5,-145 233.5,-167 339.5,-167 339.5,-145 233.5,-145"/>
<text text-anchor="start" x="236.5" y="-153.2" font-family="Helvetica,sans-Serif" font-size="11.00">varchar[100]</text>
<polygon fill="none" stroke="black" points="10.5,-123 10.5,-145 233.5,-145 233.5,-123 10.5,-123"/>
<text text-anchor="start" x="30.5" y="-131.2" font-family="Helvetica,sans-Serif" font-size="11.00">display_fr</text>
<polygon fill="none" stroke="black" points="233.5,-123 233.5,-145 339.5,-145 339.5,-123 233.5,-123"/>
<text text-anchor="start" x="236.5" y="-131.2" font-family="Helvetica,sans-Serif" font-size="11.00">varchar[100]</text>
<polygon fill="none" stroke="black" points="10.5,-101 10.5,-123 233.5,-123 233.5,-101 10.5,-101"/>
<text text-anchor="start" x="30.5" y="-109.2" font-family="Helvetica,sans-Serif" font-size="11.00">display_it</text>
<polygon fill="none" stroke="black" points="233.5,-101 233.5,-123 339.5,-123 339.5,-101 233.5,-101"/>
<text text-anchor="start" x="236.5" y="-109.2" font-family="Helvetica,sans-Serif" font-size="11.00">varchar[100]</text>
<polygon fill="none" stroke="black" points="10.5,-79 10.5,-101 233.5,-101 233.5,-79 10.5,-79"/>
<text text-anchor="start" x="30.5" y="-87.2" font-family="Helvetica,sans-Serif" font-size="11.00">display_ro</text>
<polygon fill="none" stroke="black" points="233.5,-79 233.5,-101 339.5,-101 339.5,-79 233.5,-79"/>
<text text-anchor="start" x="236.5" y="-87.2" font-family="Helvetica,sans-Serif" font-size="11.00">varchar[100]</text>
<polygon fill="none" stroke="black" points="10.5,-57 10.5,-79 233.5,-79 233.5,-57 10.5,-57"/>
<text text-anchor="start" x="30.5" y="-65.2" font-family="Helvetica,sans-Serif" font-size="11.00">active</text>
<polygon fill="none" stroke="black" points="233.5,-57 233.5,-79 339.5,-79 339.5,-57 233.5,-57"/>
<text text-anchor="start" x="236.5" y="-65.2" font-family="Helvetica,sans-Serif" font-size="11.00">bool[1]</text>
<polygon fill="#ffffff" stroke="transparent" points="10.5,-39 10.5,-57 339.5,-57 339.5,-39 10.5,-39"/>
<polygon fill="none" stroke="black" points="10.5,-39 10.5,-57 339.5,-57 339.5,-39 10.5,-39"/>
<polygon fill="#ffffff" stroke="transparent" points="11.5,-40 11.5,-56 124.5,-56 124.5,-40 11.5,-40"/>
<text text-anchor="start" x="13.5" y="-45.2" font-family="Helvetica,sans-Serif" font-size="11.00">&lt; 0</text>
<polygon fill="#ffffff" stroke="transparent" points="124.5,-40 124.5,-56 225.5,-56 225.5,-40 124.5,-40"/>
<text text-anchor="start" x="171" y="-45.2" font-family="Helvetica,sans-Serif" font-size="11.00"> &#160;</text>
<polygon fill="#ffffff" stroke="transparent" points="225.5,-40 225.5,-56 338.5,-56 338.5,-40 225.5,-40"/>
<text text-anchor="start" x="316.5" y="-45.2" font-family="Helvetica,sans-Serif" font-size="11.00">1 &gt;</text>
<polygon fill="black" stroke="black" points="124.5,-40 124.5,-56 124.5,-56 124.5,-40 124.5,-40"/>
<polygon fill="black" stroke="black" points="225.5,-40 225.5,-56 225.5,-56 225.5,-40 225.5,-40"/>
<polygon fill="none" stroke="black" stroke-width="2" points="9,-38 9,-586 340,-586 340,-38 9,-38"/>
</a>
</g>
</g>
<!-- tdh_od.pipe_point_normal&#45;&gt;pipe_point_normal_material -->
<g id="edge1" class="edge">
<title>tdh_od.pipe_point_normal:w&#45;&gt;pipe_point_normal_material:e</title>
<path fill="none" stroke="black" d="M374.99,-552C363.68,-552 356.49,-552 340.5,-552"/>
<polygon fill="black" stroke="black" points="381.5,-552 389.5,-555.6 385.5,-552 389.5,-552 389.5,-552 389.5,-552 385.5,-552 389.5,-548.4 381.5,-552 381.5,-552"/>
<ellipse fill="none" stroke="black" cx="378.3" cy="-552" rx="3.2" ry="3.2"/>
</g>
</g>
</svg>
