<?xml version="1.0" encoding="UTF-8" standalone="no"?>
<!DOCTYPE svg PUBLIC "-//W3C//DTD SVG 1.1//EN"
 "http://www.w3.org/Graphics/SVG/1.1/DTD/svg11.dtd">
<!-- Generated by graphviz version 2.43.0 (0)
 -->
<!-- Title: oneDegreeRelationshipsDiagram Pages: 1 -->
<svg width="565pt" height="663pt"
 viewBox="0.00 0.00 565.00 663.00" xmlns="http://www.w3.org/2000/svg" xmlns:xlink="http://www.w3.org/1999/xlink">
<g id="graph0" class="graph" transform="scale(1 1) rotate(0) translate(4 659)">
<title>oneDegreeRelationshipsDiagram</title>
<polygon fill="#ffffff" stroke="transparent" points="-4,4 -4,-659 561,-659 561,4 -4,4"/>
<text text-anchor="middle" x="79.5" y="-7.2" font-family="Helvetica,sans-Serif" font-size="11.00">Generated by SchemaSpy</text>
<!-- tdh_od.pipe_section -->
<g id="node1" class="node">
<title>tdh_od.pipe_section</title>
<g id="a_node1"><a xlink:href="../../../tdh_od/tables/pipe_section.html" xlink:title="tdh_od.pipe_section" target="_top">
<polygon fill="#ffffff" stroke="transparent" points="357,-329 357,-651 549,-651 549,-329 357,-329"/>
<polygon fill="#f5f5f5" stroke="transparent" points="357,-629 357,-651 549,-651 549,-629 357,-629"/>
<polygon fill="none" stroke="black" points="357,-629 357,-651 549,-651 549,-629 357,-629"/>
<text text-anchor="start" x="362" y="-638.2" font-family="Helvetica,sans-Serif" font-weight="bold" font-size="11.00">tdh_od.pipe_section</text>
<text text-anchor="start" x="507" y="-637.2" font-family="Helvetica,sans-Serif" font-size="11.00">[table]</text>
<polygon fill="none" stroke="black" points="357,-607 357,-629 549,-629 549,-607 357,-607"/>
<image xlink:href="../../images/foreignKeys.png" width="11px" height="12px" preserveAspectRatio="xMinYMin meet" x="362" y="-624"/>
<text text-anchor="start" x="380" y="-615.2" font-family="Helvetica,sans-Serif" font-size="11.00">horizontal_positioning</text>
<polygon fill="none" stroke="black" points="357,-585 357,-607 549,-607 549,-585 357,-585"/>
<image xlink:href="../../images/foreignKeys.png" width="11px" height="12px" preserveAspectRatio="xMinYMin meet" x="362" y="-602"/>
<text text-anchor="start" x="380" y="-593.2" font-family="Helvetica,sans-Serif" font-size="11.00">status</text>
<polygon fill="none" stroke="black" points="357,-563 357,-585 549,-585 549,-563 357,-563"/>
<image xlink:href="../../images/foreignKeys.png" width="11px" height="12px" preserveAspectRatio="xMinYMin meet" x="362" y="-580"/>
<text text-anchor="start" x="380" y="-571.2" font-family="Helvetica,sans-Serif" font-size="11.00">function</text>
<polygon fill="none" stroke="black" points="357,-541 357,-563 549,-563 549,-541 357,-541"/>
<image xlink:href="../../images/foreignKeys.png" width="11px" height="12px" preserveAspectRatio="xMinYMin meet" x="362" y="-558"/>
<text text-anchor="start" x="380" y="-549.2" font-family="Helvetica,sans-Serif" font-size="11.00">pipe_type</text>
<polygon fill="none" stroke="black" points="357,-519 357,-541 549,-541 549,-519 357,-519"/>
<image xlink:href="../../images/foreignKeys.png" width="11px" height="12px" preserveAspectRatio="xMinYMin meet" x="362" y="-536"/>
<text text-anchor="start" x="380" y="-527.2" font-family="Helvetica,sans-Serif" font-size="11.00">fluent</text>
<polygon fill="none" stroke="black" points="357,-497 357,-519 549,-519 549,-497 357,-497"/>
<image xlink:href="../../images/foreignKeys.png" width="11px" height="12px" preserveAspectRatio="xMinYMin meet" x="362" y="-514"/>
<text text-anchor="start" x="380" y="-505.2" font-family="Helvetica,sans-Serif" font-size="11.00">insulation_kind</text>
<polygon fill="none" stroke="black" points="357,-475 357,-497 549,-497 549,-475 357,-475"/>
<image xlink:href="../../images/foreignKeys.png" width="11px" height="12px" preserveAspectRatio="xMinYMin meet" x="362" y="-492"/>
<text text-anchor="start" x="380" y="-483.2" font-family="Helvetica,sans-Serif" font-size="11.00">coating</text>
<polygon fill="none" stroke="black" points="357,-453 357,-475 549,-475 549,-453 357,-453"/>
<image xlink:href="../../images/foreignKeys.png" width="11px" height="12px" preserveAspectRatio="xMinYMin meet" x="362" y="-470"/>
<text text-anchor="start" x="380" y="-461.2" font-family="Helvetica,sans-Serif" font-size="11.00">pipeline_quality</text>
<polygon fill="none" stroke="black" points="357,-431 357,-453 549,-453 549,-431 357,-431"/>
<image xlink:href="../../images/foreignKeys.png" width="11px" height="12px" preserveAspectRatio="xMinYMin meet" x="362" y="-448"/>
<text text-anchor="start" x="380" y="-439.2" font-family="Helvetica,sans-Serif" font-size="11.00">mg_material</text>
<polygon fill="none" stroke="black" points="357,-409 357,-431 549,-431 549,-409 357,-409"/>
<image xlink:href="../../images/foreignKeys.png" width="11px" height="12px" preserveAspectRatio="xMinYMin meet" x="362" y="-426"/>
<text text-anchor="start" x="380" y="-417.2" font-family="Helvetica,sans-Serif" font-size="11.00">mg_diameter</text>
<polygon fill="none" stroke="black" points="357,-387 357,-409 549,-409 549,-387 357,-387"/>
<image xlink:href="../../images/foreignKeys.png" width="11px" height="12px" preserveAspectRatio="xMinYMin meet" x="362" y="-404"/>
<text text-anchor="start" x="380" y="-395.2" font-family="Helvetica,sans-Serif" font-size="11.00">mg_trench_type</text>
<polygon fill="none" stroke="black" points="357,-365 357,-387 549,-387 549,-365 357,-365"/>
<image xlink:href="../../images/foreignKeys.png" width="11px" height="12px" preserveAspectRatio="xMinYMin meet" x="362" y="-382"/>
<text text-anchor="start" x="380" y="-373.2" font-family="Helvetica,sans-Serif" font-size="11.00">mg_signaling_band</text>
<polygon fill="none" stroke="black" points="357,-347 357,-365 549,-365 549,-347 357,-347"/>
<text text-anchor="start" x="360" y="-353.2" font-family="Helvetica,sans-Serif" font-size="11.00">...</text>
<polygon fill="#ffffff" stroke="transparent" points="357,-329 357,-347 549,-347 549,-329 357,-329"/>
<polygon fill="none" stroke="black" points="357,-329 357,-347 549,-347 549,-329 357,-329"/>
<polygon fill="#ffffff" stroke="transparent" points="358,-330 358,-346 425,-346 425,-330 358,-330"/>
<text text-anchor="start" x="360" y="-335.2" font-family="Helvetica,sans-Serif" font-size="11.00">&lt; 12</text>
<polygon fill="#ffffff" stroke="transparent" points="425,-330 425,-346 501,-346 501,-330 425,-330"/>
<text text-anchor="start" x="444.5" y="-335.2" font-family="Helvetica,sans-Serif" font-size="11.00">0 rows</text>
<polygon fill="#ffffff" stroke="transparent" points="501,-330 501,-346 548,-346 548,-330 501,-330"/>
<text text-anchor="start" x="538" y="-335.2" font-family="Helvetica,sans-Serif" font-size="11.00"> &#160;</text>
<polygon fill="black" stroke="black" points="425,-330 425,-346 425,-346 425,-330 425,-330"/>
<polygon fill="black" stroke="black" points="501,-330 501,-346 501,-346 501,-330 501,-330"/>
</a>
</g>
</g>
<!-- pipe_section_pipe_type -->
<g id="node2" class="node">
<title>pipe_section_pipe_type</title>
<g id="a_node2"><a xlink:href="../../tables/pipe_section_pipe_type.html" xlink:title="pipe_section_pipe_type" target="_top">
<polygon fill="#ffffff" stroke="transparent" points="8,-37 8,-587 308,-587 308,-37 8,-37"/>
<polygon fill="#f5f5f5" stroke="transparent" points="10,-563 10,-585 306,-585 306,-563 10,-563"/>
<polygon fill="none" stroke="black" points="10,-563 10,-585 306,-585 306,-563 10,-563"/>
<text text-anchor="start" x="15" y="-572.2" font-family="Helvetica,sans-Serif" font-weight="bold" font-size="11.00">pipe_section_pipe_type</text>
<text text-anchor="start" x="264" y="-571.2" font-family="Helvetica,sans-Serif" font-size="11.00">[table]</text>
<polygon fill="none" stroke="black" points="10,-541 10,-563 200,-563 200,-541 10,-541"/>
<image xlink:href="../../images/primaryKeys.png" width="11px" height="12px" preserveAspectRatio="xMinYMin meet" x="15" y="-558"/>
<text text-anchor="start" x="30" y="-549.2" font-family="Helvetica,sans-Serif" font-size="11.00">code</text>
<polygon fill="none" stroke="black" points="200,-541 200,-563 306,-563 306,-541 200,-541"/>
<text text-anchor="start" x="203" y="-549.2" font-family="Helvetica,sans-Serif" font-size="11.00">int4[10]</text>
<polygon fill="none" stroke="black" points="10,-519 10,-541 200,-541 200,-519 10,-519"/>
<text text-anchor="start" x="30" y="-527.2" font-family="Helvetica,sans-Serif" font-size="11.00">vsacode</text>
<polygon fill="none" stroke="black" points="200,-519 200,-541 306,-541 306,-519 200,-519"/>
<text text-anchor="start" x="203" y="-527.2" font-family="Helvetica,sans-Serif" font-size="11.00">int4[10]</text>
<polygon fill="none" stroke="black" points="10,-497 10,-519 200,-519 200,-497 10,-497"/>
<text text-anchor="start" x="30" y="-505.2" font-family="Helvetica,sans-Serif" font-size="11.00">value_en</text>
<polygon fill="none" stroke="black" points="200,-497 200,-519 306,-519 306,-497 200,-497"/>
<text text-anchor="start" x="203" y="-505.2" font-family="Helvetica,sans-Serif" font-size="11.00">varchar[100]</text>
<polygon fill="none" stroke="black" points="10,-475 10,-497 200,-497 200,-475 10,-475"/>
<text text-anchor="start" x="30" y="-483.2" font-family="Helvetica,sans-Serif" font-size="11.00">value_de</text>
<polygon fill="none" stroke="black" points="200,-475 200,-497 306,-497 306,-475 200,-475"/>
<text text-anchor="start" x="203" y="-483.2" font-family="Helvetica,sans-Serif" font-size="11.00">varchar[100]</text>
<polygon fill="none" stroke="black" points="10,-453 10,-475 200,-475 200,-453 10,-453"/>
<text text-anchor="start" x="30" y="-461.2" font-family="Helvetica,sans-Serif" font-size="11.00">value_fr</text>
<polygon fill="none" stroke="black" points="200,-453 200,-475 306,-475 306,-453 200,-453"/>
<text text-anchor="start" x="203" y="-461.2" font-family="Helvetica,sans-Serif" font-size="11.00">varchar[100]</text>
<polygon fill="none" stroke="black" points="10,-431 10,-453 200,-453 200,-431 10,-431"/>
<text text-anchor="start" x="30" y="-439.2" font-family="Helvetica,sans-Serif" font-size="11.00">value_it</text>
<polygon fill="none" stroke="black" points="200,-431 200,-453 306,-453 306,-431 200,-431"/>
<text text-anchor="start" x="203" y="-439.2" font-family="Helvetica,sans-Serif" font-size="11.00">varchar[100]</text>
<polygon fill="none" stroke="black" points="10,-409 10,-431 200,-431 200,-409 10,-409"/>
<text text-anchor="start" x="30" y="-417.2" font-family="Helvetica,sans-Serif" font-size="11.00">value_ro</text>
<polygon fill="none" stroke="black" points="200,-409 200,-431 306,-431 306,-409 200,-409"/>
<text text-anchor="start" x="203" y="-417.2" font-family="Helvetica,sans-Serif" font-size="11.00">varchar[100]</text>
<polygon fill="none" stroke="black" points="10,-387 10,-409 200,-409 200,-387 10,-387"/>
<text text-anchor="start" x="30" y="-395.2" font-family="Helvetica,sans-Serif" font-size="11.00">abbr_en</text>
<polygon fill="none" stroke="black" points="200,-387 200,-409 306,-409 306,-387 200,-387"/>
<text text-anchor="start" x="203" y="-395.2" font-family="Helvetica,sans-Serif" font-size="11.00">varchar[3]</text>
<polygon fill="none" stroke="black" points="10,-365 10,-387 200,-387 200,-365 10,-365"/>
<text text-anchor="start" x="30" y="-373.2" font-family="Helvetica,sans-Serif" font-size="11.00">abbr_de</text>
<polygon fill="none" stroke="black" points="200,-365 200,-387 306,-387 306,-365 200,-365"/>
<text text-anchor="start" x="203" y="-373.2" font-family="Helvetica,sans-Serif" font-size="11.00">varchar[3]</text>
<polygon fill="none" stroke="black" points="10,-343 10,-365 200,-365 200,-343 10,-343"/>
<text text-anchor="start" x="30" y="-351.2" font-family="Helvetica,sans-Serif" font-size="11.00">abbr_fr</text>
<polygon fill="none" stroke="black" points="200,-343 200,-365 306,-365 306,-343 200,-343"/>
<text text-anchor="start" x="203" y="-351.2" font-family="Helvetica,sans-Serif" font-size="11.00">varchar[3]</text>
<polygon fill="none" stroke="black" points="10,-321 10,-343 200,-343 200,-321 10,-321"/>
<text text-anchor="start" x="30" y="-329.2" font-family="Helvetica,sans-Serif" font-size="11.00">abbr_it</text>
<polygon fill="none" stroke="black" points="200,-321 200,-343 306,-343 306,-321 200,-321"/>
<text text-anchor="start" x="203" y="-329.2" font-family="Helvetica,sans-Serif" font-size="11.00">varchar[3]</text>
<polygon fill="none" stroke="black" points="10,-299 10,-321 200,-321 200,-299 10,-299"/>
<text text-anchor="start" x="30" y="-307.2" font-family="Helvetica,sans-Serif" font-size="11.00">abbr_ro</text>
<polygon fill="none" stroke="black" points="200,-299 200,-321 306,-321 306,-299 200,-299"/>
<text text-anchor="start" x="203" y="-307.2" font-family="Helvetica,sans-Serif" font-size="11.00">varchar[3]</text>
<polygon fill="none" stroke="black" points="10,-277 10,-299 200,-299 200,-277 10,-277"/>
<text text-anchor="start" x="30" y="-285.2" font-family="Helvetica,sans-Serif" font-size="11.00">description_en</text>
<polygon fill="none" stroke="black" points="200,-277 200,-299 306,-299 306,-277 200,-277"/>
<text text-anchor="start" x="203" y="-285.2" font-family="Helvetica,sans-Serif" font-size="11.00">text[2147483647]</text>
<polygon fill="none" stroke="black" points="10,-255 10,-277 200,-277 200,-255 10,-255"/>
<text text-anchor="start" x="30" y="-263.2" font-family="Helvetica,sans-Serif" font-size="11.00">description_de</text>
<polygon fill="none" stroke="black" points="200,-255 200,-277 306,-277 306,-255 200,-255"/>
<text text-anchor="start" x="203" y="-263.2" font-family="Helvetica,sans-Serif" font-size="11.00">text[2147483647]</text>
<polygon fill="none" stroke="black" points="10,-233 10,-255 200,-255 200,-233 10,-233"/>
<text text-anchor="start" x="30" y="-241.2" font-family="Helvetica,sans-Serif" font-size="11.00">description_fr</text>
<polygon fill="none" stroke="black" points="200,-233 200,-255 306,-255 306,-233 200,-233"/>
<text text-anchor="start" x="203" y="-241.2" font-family="Helvetica,sans-Serif" font-size="11.00">text[2147483647]</text>
<polygon fill="none" stroke="black" points="10,-211 10,-233 200,-233 200,-211 10,-211"/>
<text text-anchor="start" x="30" y="-219.2" font-family="Helvetica,sans-Serif" font-size="11.00">description_it</text>
<polygon fill="none" stroke="black" points="200,-211 200,-233 306,-233 306,-211 200,-211"/>
<text text-anchor="start" x="203" y="-219.2" font-family="Helvetica,sans-Serif" font-size="11.00">text[2147483647]</text>
<polygon fill="none" stroke="black" points="10,-189 10,-211 200,-211 200,-189 10,-189"/>
<text text-anchor="start" x="30" y="-197.2" font-family="Helvetica,sans-Serif" font-size="11.00">description_ro</text>
<polygon fill="none" stroke="black" points="200,-189 200,-211 306,-211 306,-189 200,-189"/>
<text text-anchor="start" x="203" y="-197.2" font-family="Helvetica,sans-Serif" font-size="11.00">text[2147483647]</text>
<polygon fill="none" stroke="black" points="10,-167 10,-189 200,-189 200,-167 10,-167"/>
<text text-anchor="start" x="30" y="-175.2" font-family="Helvetica,sans-Serif" font-size="11.00">display_en</text>
<polygon fill="none" stroke="black" points="200,-167 200,-189 306,-189 306,-167 200,-167"/>
<text text-anchor="start" x="203" y="-175.2" font-family="Helvetica,sans-Serif" font-size="11.00">varchar[100]</text>
<polygon fill="none" stroke="black" points="10,-145 10,-167 200,-167 200,-145 10,-145"/>
<text text-anchor="start" x="30" y="-153.2" font-family="Helvetica,sans-Serif" font-size="11.00">display_de</text>
<polygon fill="none" stroke="black" points="200,-145 200,-167 306,-167 306,-145 200,-145"/>
<text text-anchor="start" x="203" y="-153.2" font-family="Helvetica,sans-Serif" font-size="11.00">varchar[100]</text>
<polygon fill="none" stroke="black" points="10,-123 10,-145 200,-145 200,-123 10,-123"/>
<text text-anchor="start" x="30" y="-131.2" font-family="Helvetica,sans-Serif" font-size="11.00">display_fr</text>
<polygon fill="none" stroke="black" points="200,-123 200,-145 306,-145 306,-123 200,-123"/>
<text text-anchor="start" x="203" y="-131.2" font-family="Helvetica,sans-Serif" font-size="11.00">varchar[100]</text>
<polygon fill="none" stroke="black" points="10,-101 10,-123 200,-123 200,-101 10,-101"/>
<text text-anchor="start" x="30" y="-109.2" font-family="Helvetica,sans-Serif" font-size="11.00">display_it</text>
<polygon fill="none" stroke="black" points="200,-101 200,-123 306,-123 306,-101 200,-101"/>
<text text-anchor="start" x="203" y="-109.2" font-family="Helvetica,sans-Serif" font-size="11.00">varchar[100]</text>
<polygon fill="none" stroke="black" points="10,-79 10,-101 200,-101 200,-79 10,-79"/>
<text text-anchor="start" x="30" y="-87.2" font-family="Helvetica,sans-Serif" font-size="11.00">display_ro</text>
<polygon fill="none" stroke="black" points="200,-79 200,-101 306,-101 306,-79 200,-79"/>
<text text-anchor="start" x="203" y="-87.2" font-family="Helvetica,sans-Serif" font-size="11.00">varchar[100]</text>
<polygon fill="none" stroke="black" points="10,-57 10,-79 200,-79 200,-57 10,-57"/>
<text text-anchor="start" x="30" y="-65.2" font-family="Helvetica,sans-Serif" font-size="11.00">active</text>
<polygon fill="none" stroke="black" points="200,-57 200,-79 306,-79 306,-57 200,-57"/>
<text text-anchor="start" x="203" y="-65.2" font-family="Helvetica,sans-Serif" font-size="11.00">bool[1]</text>
<polygon fill="#ffffff" stroke="transparent" points="10,-39 10,-57 306,-57 306,-39 10,-39"/>
<polygon fill="none" stroke="black" points="10,-39 10,-57 306,-57 306,-39 10,-39"/>
<polygon fill="#ffffff" stroke="transparent" points="11,-40 11,-56 113,-56 113,-40 11,-40"/>
<text text-anchor="start" x="13" y="-45.2" font-family="Helvetica,sans-Serif" font-size="11.00">&lt; 0</text>
<polygon fill="#ffffff" stroke="transparent" points="113,-40 113,-56 203,-56 203,-40 113,-40"/>
<text text-anchor="start" x="154" y="-45.2" font-family="Helvetica,sans-Serif" font-size="11.00"> &#160;</text>
<polygon fill="#ffffff" stroke="transparent" points="203,-40 203,-56 305,-56 305,-40 203,-40"/>
<text text-anchor="start" x="283" y="-45.2" font-family="Helvetica,sans-Serif" font-size="11.00">1 &gt;</text>
<polygon fill="black" stroke="black" points="113,-40 113,-56 113,-56 113,-40 113,-40"/>
<polygon fill="black" stroke="black" points="203,-40 203,-56 203,-56 203,-40 203,-40"/>
<polygon fill="none" stroke="black" stroke-width="2" points="9,-38 9,-586 307,-586 307,-38 9,-38"/>
</a>
</g>
</g>
<!-- tdh_od.pipe_section&#45;&gt;pipe_section_pipe_type -->
<g id="edge1" class="edge">
<title>tdh_od.pipe_section:w&#45;&gt;pipe_section_pipe_type:e</title>
<path fill="none" stroke="black" d="M341.49,-552C330.18,-552 322.99,-552 307,-552"/>
<polygon fill="black" stroke="black" points="348,-552 356,-555.6 352,-552 356,-552 356,-552 356,-552 352,-552 356,-548.4 348,-552 348,-552"/>
<ellipse fill="none" stroke="black" cx="344.8" cy="-552" rx="3.2" ry="3.2"/>
</g>
</g>
</svg>
