<?xml version="1.0" encoding="UTF-8" standalone="no"?>
<!DOCTYPE svg PUBLIC "-//W3C//DTD SVG 1.1//EN"
 "http://www.w3.org/Graphics/SVG/1.1/DTD/svg11.dtd">
<!-- Generated by graphviz version 2.47.1 (20210515.0534)
 -->
<!-- Title: oneDegreeRelationshipsDiagram Pages: 1 -->
<svg width="501pt" height="487pt"
 viewBox="0.00 0.00 501.00 487.00" xmlns="http://www.w3.org/2000/svg" xmlns:xlink="http://www.w3.org/1999/xlink">
<g id="graph0" class="graph" transform="scale(1 1) rotate(0) translate(4 483)">
<title>oneDegreeRelationshipsDiagram</title>
<polygon fill="#ffffff" stroke="transparent" points="-4,4 -4,-483 497,-483 497,4 -4,4"/>
<text text-anchor="middle" x="73.5" y="-7.2" font-family="Helvetica,sans-Serif" font-size="11.00">Generated by SchemaSpy</text>
<!-- tdh_od.pipe_section -->
<g id="node1" class="node">
<title>tdh_od.pipe_section</title>
<g id="a_node1"><a xlink:href="../../../tdh_od/tables/pipe_section.html" xlink:title="tdh_od.pipe_section" target="_top">
<polygon fill="#ffffff" stroke="transparent" points="323,-241 323,-475 485,-475 485,-241 323,-241"/>
<polygon fill="#f5f5f5" stroke="transparent" points="323,-453 323,-475 485,-475 485,-453 323,-453"/>
<polygon fill="none" stroke="black" points="323,-453 323,-475 485,-475 485,-453 323,-453"/>
<text text-anchor="start" x="328" y="-462.2" font-family="Helvetica,sans-Serif" font-weight="bold" font-size="11.00">tdh_od.pipe_section</text>
<text text-anchor="start" x="446" y="-461.2" font-family="Helvetica,sans-Serif" font-size="11.00">[table]</text>
<polygon fill="none" stroke="black" points="323,-431 323,-453 485,-453 485,-431 323,-431"/>
<image xlink:href="../../images/foreignKeys.png" width="11px" height="12px" preserveAspectRatio="xMinYMin meet" x="328" y="-448"/>
<text text-anchor="start" x="347" y="-439.2" font-family="Helvetica,sans-Serif" font-size="11.00">horizontal_positioning</text>
<polygon fill="none" stroke="black" points="323,-409 323,-431 485,-431 485,-409 323,-409"/>
<image xlink:href="../../images/foreignKeys.png" width="11px" height="12px" preserveAspectRatio="xMinYMin meet" x="328" y="-426"/>
<text text-anchor="start" x="347" y="-417.2" font-family="Helvetica,sans-Serif" font-size="11.00">status</text>
<polygon fill="none" stroke="black" points="323,-387 323,-409 485,-409 485,-387 323,-387"/>
<image xlink:href="../../images/foreignKeys.png" width="11px" height="12px" preserveAspectRatio="xMinYMin meet" x="328" y="-404"/>
<text text-anchor="start" x="347" y="-395.2" font-family="Helvetica,sans-Serif" font-size="11.00">function</text>
<polygon fill="none" stroke="black" points="323,-365 323,-387 485,-387 485,-365 323,-365"/>
<image xlink:href="../../images/foreignKeys.png" width="11px" height="12px" preserveAspectRatio="xMinYMin meet" x="328" y="-382"/>
<text text-anchor="start" x="347" y="-373.2" font-family="Helvetica,sans-Serif" font-size="11.00">pipe_type</text>
<polygon fill="none" stroke="black" points="323,-343 323,-365 485,-365 485,-343 323,-343"/>
<image xlink:href="../../images/foreignKeys.png" width="11px" height="12px" preserveAspectRatio="xMinYMin meet" x="328" y="-360"/>
<text text-anchor="start" x="347" y="-351.2" font-family="Helvetica,sans-Serif" font-size="11.00">fluent</text>
<polygon fill="none" stroke="black" points="323,-321 323,-343 485,-343 485,-321 323,-321"/>
<image xlink:href="../../images/foreignKeys.png" width="11px" height="12px" preserveAspectRatio="xMinYMin meet" x="328" y="-338"/>
<text text-anchor="start" x="347" y="-329.2" font-family="Helvetica,sans-Serif" font-size="11.00">insulation_kind</text>
<polygon fill="none" stroke="black" points="323,-299 323,-321 485,-321 485,-299 323,-299"/>
<image xlink:href="../../images/foreignKeys.png" width="11px" height="12px" preserveAspectRatio="xMinYMin meet" x="328" y="-316"/>
<text text-anchor="start" x="347" y="-307.2" font-family="Helvetica,sans-Serif" font-size="11.00">coating</text>
<polygon fill="none" stroke="black" points="323,-277 323,-299 485,-299 485,-277 323,-277"/>
<image xlink:href="../../images/foreignKeys.png" width="11px" height="12px" preserveAspectRatio="xMinYMin meet" x="328" y="-294"/>
<text text-anchor="start" x="347" y="-285.2" font-family="Helvetica,sans-Serif" font-size="11.00">pipeline_quality</text>
<polygon fill="none" stroke="black" points="323,-259 323,-277 485,-277 485,-259 323,-259"/>
<text text-anchor="start" x="326" y="-265.2" font-family="Helvetica,sans-Serif" font-size="11.00">...</text>
<polygon fill="#ffffff" stroke="transparent" points="323,-241 323,-259 388,-259 388,-241 323,-241"/>
<polygon fill="none" stroke="black" points="323,-241 323,-259 388,-259 388,-241 323,-241"/>
<text text-anchor="start" x="326" y="-247.2" font-family="Helvetica,sans-Serif" font-size="11.00">&lt; 8</text>
<polygon fill="#ffffff" stroke="transparent" points="388,-241 388,-259 450,-259 450,-241 388,-241"/>
<polygon fill="none" stroke="black" points="388,-241 388,-259 450,-259 450,-241 388,-241"/>
<text text-anchor="start" x="413" y="-247.2" font-family="Helvetica,sans-Serif" font-size="11.00">0 rows</text>
<polygon fill="#ffffff" stroke="transparent" points="450,-241 450,-259 485,-259 485,-241 450,-241"/>
<polygon fill="none" stroke="black" points="450,-241 450,-259 485,-259 485,-241 450,-241"/>
<text text-anchor="start" x="475" y="-247.2" font-family="Helvetica,sans-Serif" font-size="11.00"> &#160;</text>
</a>
</g>
</g>
<!-- pipe_section_insulation_kind -->
<g id="node2" class="node">
<title>pipe_section_insulation_kind</title>
<g id="a_node2"><a xlink:href="../../tables/pipe_section_insulation_kind.html" xlink:title="pipe_section_insulation_kind" target="_top">
<polygon fill="#ffffff" stroke="transparent" points="8,-37 8,-367 274,-367 274,-37 8,-37"/>
<polygon fill="#f5f5f5" stroke="transparent" points="10,-343 10,-365 272,-365 272,-343 10,-343"/>
<polygon fill="none" stroke="black" points="10,-343 10,-365 272,-365 272,-343 10,-343"/>
<text text-anchor="start" x="15" y="-352.2" font-family="Helvetica,sans-Serif" font-weight="bold" font-size="11.00">pipe_section_insulation_kind</text>
<text text-anchor="start" x="233" y="-351.2" font-family="Helvetica,sans-Serif" font-size="11.00">[table]</text>
<polygon fill="none" stroke="black" points="10,-321 10,-343 202,-343 202,-321 10,-321"/>
<image xlink:href="../../images/primaryKeys.png" width="11px" height="12px" preserveAspectRatio="xMinYMin meet" x="15" y="-338"/>
<text text-anchor="start" x="30" y="-329.2" font-family="Helvetica,sans-Serif" font-size="11.00">code</text>
<polygon fill="none" stroke="black" points="202,-321 202,-343 272,-343 272,-321 202,-321"/>
<text text-anchor="start" x="205" y="-329.2" font-family="Helvetica,sans-Serif" font-size="11.00">int4[10]</text>
<polygon fill="none" stroke="black" points="10,-299 10,-321 202,-321 202,-299 10,-299"/>
<text text-anchor="start" x="30" y="-307.2" font-family="Helvetica,sans-Serif" font-size="11.00">vsacode</text>
<polygon fill="none" stroke="black" points="202,-299 202,-321 272,-321 272,-299 202,-299"/>
<text text-anchor="start" x="205" y="-307.2" font-family="Helvetica,sans-Serif" font-size="11.00">int4[10]</text>
<polygon fill="none" stroke="black" points="10,-277 10,-299 202,-299 202,-277 10,-277"/>
<text text-anchor="start" x="30" y="-285.2" font-family="Helvetica,sans-Serif" font-size="11.00">value_en</text>
<polygon fill="none" stroke="black" points="202,-277 202,-299 272,-299 272,-277 202,-277"/>
<text text-anchor="start" x="205" y="-285.2" font-family="Helvetica,sans-Serif" font-size="11.00">varchar[100]</text>
<polygon fill="none" stroke="black" points="10,-255 10,-277 202,-277 202,-255 10,-255"/>
<text text-anchor="start" x="30" y="-263.2" font-family="Helvetica,sans-Serif" font-size="11.00">value_de</text>
<polygon fill="none" stroke="black" points="202,-255 202,-277 272,-277 272,-255 202,-255"/>
<text text-anchor="start" x="205" y="-263.2" font-family="Helvetica,sans-Serif" font-size="11.00">varchar[100]</text>
<polygon fill="none" stroke="black" points="10,-233 10,-255 202,-255 202,-233 10,-233"/>
<text text-anchor="start" x="30" y="-241.2" font-family="Helvetica,sans-Serif" font-size="11.00">value_fr</text>
<polygon fill="none" stroke="black" points="202,-233 202,-255 272,-255 272,-233 202,-233"/>
<text text-anchor="start" x="205" y="-241.2" font-family="Helvetica,sans-Serif" font-size="11.00">varchar[100]</text>
<polygon fill="none" stroke="black" points="10,-211 10,-233 202,-233 202,-211 10,-211"/>
<text text-anchor="start" x="30" y="-219.2" font-family="Helvetica,sans-Serif" font-size="11.00">value_it</text>
<polygon fill="none" stroke="black" points="202,-211 202,-233 272,-233 272,-211 202,-211"/>
<text text-anchor="start" x="205" y="-219.2" font-family="Helvetica,sans-Serif" font-size="11.00">varchar[100]</text>
<polygon fill="none" stroke="black" points="10,-189 10,-211 202,-211 202,-189 10,-189"/>
<text text-anchor="start" x="30" y="-197.2" font-family="Helvetica,sans-Serif" font-size="11.00">value_ro</text>
<polygon fill="none" stroke="black" points="202,-189 202,-211 272,-211 272,-189 202,-189"/>
<text text-anchor="start" x="205" y="-197.2" font-family="Helvetica,sans-Serif" font-size="11.00">varchar[100]</text>
<polygon fill="none" stroke="black" points="10,-167 10,-189 202,-189 202,-167 10,-167"/>
<text text-anchor="start" x="30" y="-175.2" font-family="Helvetica,sans-Serif" font-size="11.00">abbr_en</text>
<polygon fill="none" stroke="black" points="202,-167 202,-189 272,-189 272,-167 202,-167"/>
<text text-anchor="start" x="205" y="-175.2" font-family="Helvetica,sans-Serif" font-size="11.00">varchar[3]</text>
<polygon fill="none" stroke="black" points="10,-145 10,-167 202,-167 202,-145 10,-145"/>
<text text-anchor="start" x="30" y="-153.2" font-family="Helvetica,sans-Serif" font-size="11.00">abbr_de</text>
<polygon fill="none" stroke="black" points="202,-145 202,-167 272,-167 272,-145 202,-145"/>
<text text-anchor="start" x="205" y="-153.2" font-family="Helvetica,sans-Serif" font-size="11.00">varchar[3]</text>
<polygon fill="none" stroke="black" points="10,-123 10,-145 202,-145 202,-123 10,-123"/>
<text text-anchor="start" x="30" y="-131.2" font-family="Helvetica,sans-Serif" font-size="11.00">abbr_fr</text>
<polygon fill="none" stroke="black" points="202,-123 202,-145 272,-145 272,-123 202,-123"/>
<text text-anchor="start" x="205" y="-131.2" font-family="Helvetica,sans-Serif" font-size="11.00">varchar[3]</text>
<polygon fill="none" stroke="black" points="10,-101 10,-123 202,-123 202,-101 10,-101"/>
<text text-anchor="start" x="30" y="-109.2" font-family="Helvetica,sans-Serif" font-size="11.00">abbr_it</text>
<polygon fill="none" stroke="black" points="202,-101 202,-123 272,-123 272,-101 202,-101"/>
<text text-anchor="start" x="205" y="-109.2" font-family="Helvetica,sans-Serif" font-size="11.00">varchar[3]</text>
<polygon fill="none" stroke="black" points="10,-79 10,-101 202,-101 202,-79 10,-79"/>
<text text-anchor="start" x="30" y="-87.2" font-family="Helvetica,sans-Serif" font-size="11.00">abbr_ro</text>
<polygon fill="none" stroke="black" points="202,-79 202,-101 272,-101 272,-79 202,-79"/>
<text text-anchor="start" x="205" y="-87.2" font-family="Helvetica,sans-Serif" font-size="11.00">varchar[3]</text>
<polygon fill="none" stroke="black" points="10,-57 10,-79 202,-79 202,-57 10,-57"/>
<text text-anchor="start" x="30" y="-65.2" font-family="Helvetica,sans-Serif" font-size="11.00">active</text>
<polygon fill="none" stroke="black" points="202,-57 202,-79 272,-79 272,-57 202,-57"/>
<text text-anchor="start" x="205" y="-65.2" font-family="Helvetica,sans-Serif" font-size="11.00">bool[1]</text>
<polygon fill="#ffffff" stroke="transparent" points="10,-39 10,-57 110,-57 110,-39 10,-39"/>
<polygon fill="none" stroke="black" points="10,-39 10,-57 110,-57 110,-39 10,-39"/>
<text text-anchor="start" x="13" y="-45.2" font-family="Helvetica,sans-Serif" font-size="11.00">&lt; 0</text>
<polygon fill="#ffffff" stroke="transparent" points="110,-39 110,-57 202,-57 202,-39 110,-39"/>
<polygon fill="none" stroke="black" points="110,-39 110,-57 202,-57 202,-39 110,-39"/>
<text text-anchor="start" x="192" y="-45.2" font-family="Helvetica,sans-Serif" font-size="11.00"> &#160;</text>
<polygon fill="#ffffff" stroke="transparent" points="202,-39 202,-57 272,-57 272,-39 202,-39"/>
<polygon fill="none" stroke="black" points="202,-39 202,-57 272,-57 272,-39 202,-39"/>
<text text-anchor="start" x="253" y="-45.2" font-family="Helvetica,sans-Serif" font-size="11.00">1 &gt;</text>
<polygon fill="none" stroke="black" stroke-width="2" points="9,-38 9,-366 273,-366 273,-38 9,-38"/>
</a>
</g>
</g>
<!-- tdh_od.pipe_section&#45;&gt;pipe_section_insulation_kind -->
<g id="edge1" class="edge">
<title>tdh_od.pipe_section:w&#45;&gt;pipe_section_insulation_kind:e</title>
<path fill="none" stroke="black" d="M307.49,-332C296.18,-332 288.99,-332 273,-332"/>
<polygon fill="black" stroke="black" points="314,-332 322,-335.6 318,-332 322,-332 322,-332 322,-332 318,-332 322,-328.4 314,-332 314,-332"/>
<ellipse fill="none" stroke="black" cx="310.8" cy="-332" rx="3.2" ry="3.2"/>
</g>
</g>
</svg>
