<?xml version="1.0" encoding="UTF-8" standalone="no"?>
<!DOCTYPE svg PUBLIC "-//W3C//DTD SVG 1.1//EN"
 "http://www.w3.org/Graphics/SVG/1.1/DTD/svg11.dtd">
<!-- Generated by graphviz version 2.47.1 (20210515.0534)
 -->
<!-- Title: oneDegreeRelationshipsDiagram Pages: 1 -->
<svg width="504pt" height="531pt"
 viewBox="0.00 0.00 504.00 531.00" xmlns="http://www.w3.org/2000/svg" xmlns:xlink="http://www.w3.org/1999/xlink">
<g id="graph0" class="graph" transform="scale(1 1) rotate(0) translate(4 527)">
<title>oneDegreeRelationshipsDiagram</title>
<polygon fill="#ffffff" stroke="transparent" points="-4,4 -4,-527 500,-527 500,4 -4,4"/>
<text text-anchor="middle" x="73.5" y="-7.2" font-family="Helvetica,sans-Serif" font-size="11.00">Generated by SchemaSpy</text>
<!-- tdh_od.pipe_section -->
<g id="node1" class="node">
<title>tdh_od.pipe_section</title>
<g id="a_node1"><a xlink:href="../../../tdh_od/tables/pipe_section.html" xlink:title="tdh_od.pipe_section" target="_top">
<polygon fill="#ffffff" stroke="transparent" points="326,-285 326,-519 488,-519 488,-285 326,-285"/>
<polygon fill="#f5f5f5" stroke="transparent" points="326,-497 326,-519 488,-519 488,-497 326,-497"/>
<polygon fill="none" stroke="black" points="326,-497 326,-519 488,-519 488,-497 326,-497"/>
<text text-anchor="start" x="331" y="-506.2" font-family="Helvetica,sans-Serif" font-weight="bold" font-size="11.00">tdh_od.pipe_section</text>
<text text-anchor="start" x="449" y="-505.2" font-family="Helvetica,sans-Serif" font-size="11.00">[table]</text>
<polygon fill="none" stroke="black" points="326,-475 326,-497 488,-497 488,-475 326,-475"/>
<image xlink:href="../../images/foreignKeys.png" width="11px" height="12px" preserveAspectRatio="xMinYMin meet" x="331" y="-492"/>
<text text-anchor="start" x="350" y="-483.2" font-family="Helvetica,sans-Serif" font-size="11.00">horizontal_positioning</text>
<polygon fill="none" stroke="black" points="326,-453 326,-475 488,-475 488,-453 326,-453"/>
<image xlink:href="../../images/foreignKeys.png" width="11px" height="12px" preserveAspectRatio="xMinYMin meet" x="331" y="-470"/>
<text text-anchor="start" x="350" y="-461.2" font-family="Helvetica,sans-Serif" font-size="11.00">status</text>
<polygon fill="none" stroke="black" points="326,-431 326,-453 488,-453 488,-431 326,-431"/>
<image xlink:href="../../images/foreignKeys.png" width="11px" height="12px" preserveAspectRatio="xMinYMin meet" x="331" y="-448"/>
<text text-anchor="start" x="350" y="-439.2" font-family="Helvetica,sans-Serif" font-size="11.00">function</text>
<polygon fill="none" stroke="black" points="326,-409 326,-431 488,-431 488,-409 326,-409"/>
<image xlink:href="../../images/foreignKeys.png" width="11px" height="12px" preserveAspectRatio="xMinYMin meet" x="331" y="-426"/>
<text text-anchor="start" x="350" y="-417.2" font-family="Helvetica,sans-Serif" font-size="11.00">pipe_type</text>
<polygon fill="none" stroke="black" points="326,-387 326,-409 488,-409 488,-387 326,-387"/>
<image xlink:href="../../images/foreignKeys.png" width="11px" height="12px" preserveAspectRatio="xMinYMin meet" x="331" y="-404"/>
<text text-anchor="start" x="350" y="-395.2" font-family="Helvetica,sans-Serif" font-size="11.00">fluent</text>
<polygon fill="none" stroke="black" points="326,-365 326,-387 488,-387 488,-365 326,-365"/>
<image xlink:href="../../images/foreignKeys.png" width="11px" height="12px" preserveAspectRatio="xMinYMin meet" x="331" y="-382"/>
<text text-anchor="start" x="350" y="-373.2" font-family="Helvetica,sans-Serif" font-size="11.00">insulation_kind</text>
<polygon fill="none" stroke="black" points="326,-343 326,-365 488,-365 488,-343 326,-343"/>
<image xlink:href="../../images/foreignKeys.png" width="11px" height="12px" preserveAspectRatio="xMinYMin meet" x="331" y="-360"/>
<text text-anchor="start" x="350" y="-351.2" font-family="Helvetica,sans-Serif" font-size="11.00">coating</text>
<polygon fill="none" stroke="black" points="326,-321 326,-343 488,-343 488,-321 326,-321"/>
<image xlink:href="../../images/foreignKeys.png" width="11px" height="12px" preserveAspectRatio="xMinYMin meet" x="331" y="-338"/>
<text text-anchor="start" x="350" y="-329.2" font-family="Helvetica,sans-Serif" font-size="11.00">pipeline_quality</text>
<polygon fill="none" stroke="black" points="326,-303 326,-321 488,-321 488,-303 326,-303"/>
<text text-anchor="start" x="329" y="-309.2" font-family="Helvetica,sans-Serif" font-size="11.00">...</text>
<polygon fill="#ffffff" stroke="transparent" points="326,-285 326,-303 391,-303 391,-285 326,-285"/>
<polygon fill="none" stroke="black" points="326,-285 326,-303 391,-303 391,-285 326,-285"/>
<text text-anchor="start" x="329" y="-291.2" font-family="Helvetica,sans-Serif" font-size="11.00">&lt; 8</text>
<polygon fill="#ffffff" stroke="transparent" points="391,-285 391,-303 453,-303 453,-285 391,-285"/>
<polygon fill="none" stroke="black" points="391,-285 391,-303 453,-303 453,-285 391,-285"/>
<text text-anchor="start" x="416" y="-291.2" font-family="Helvetica,sans-Serif" font-size="11.00">0 rows</text>
<polygon fill="#ffffff" stroke="transparent" points="453,-285 453,-303 488,-303 488,-285 453,-285"/>
<polygon fill="none" stroke="black" points="453,-285 453,-303 488,-303 488,-285 453,-285"/>
<text text-anchor="start" x="478" y="-291.2" font-family="Helvetica,sans-Serif" font-size="11.00"> &#160;</text>
</a>
</g>
</g>
<!-- pipe_section_pipeline_quality -->
<g id="node2" class="node">
<title>pipe_section_pipeline_quality</title>
<g id="a_node2"><a xlink:href="../../tables/pipe_section_pipeline_quality.html" xlink:title="pipe_section_pipeline_quality" target="_top">
<polygon fill="#ffffff" stroke="transparent" points="8,-37 8,-367 277,-367 277,-37 8,-37"/>
<polygon fill="#f5f5f5" stroke="transparent" points="10.5,-343 10.5,-365 275.5,-365 275.5,-343 10.5,-343"/>
<polygon fill="none" stroke="black" points="10.5,-343 10.5,-365 275.5,-365 275.5,-343 10.5,-343"/>
<text text-anchor="start" x="15.5" y="-352.2" font-family="Helvetica,sans-Serif" font-weight="bold" font-size="11.00">pipe_section_pipeline_quality</text>
<text text-anchor="start" x="236.5" y="-351.2" font-family="Helvetica,sans-Serif" font-size="11.00">[table]</text>
<polygon fill="none" stroke="black" points="10.5,-321 10.5,-343 205.5,-343 205.5,-321 10.5,-321"/>
<image xlink:href="../../images/primaryKeys.png" width="11px" height="12px" preserveAspectRatio="xMinYMin meet" x="15.5" y="-338"/>
<text text-anchor="start" x="30.5" y="-329.2" font-family="Helvetica,sans-Serif" font-size="11.00">code</text>
<polygon fill="none" stroke="black" points="205.5,-321 205.5,-343 275.5,-343 275.5,-321 205.5,-321"/>
<text text-anchor="start" x="208.5" y="-329.2" font-family="Helvetica,sans-Serif" font-size="11.00">int4[10]</text>
<polygon fill="none" stroke="black" points="10.5,-299 10.5,-321 205.5,-321 205.5,-299 10.5,-299"/>
<text text-anchor="start" x="30.5" y="-307.2" font-family="Helvetica,sans-Serif" font-size="11.00">vsacode</text>
<polygon fill="none" stroke="black" points="205.5,-299 205.5,-321 275.5,-321 275.5,-299 205.5,-299"/>
<text text-anchor="start" x="208.5" y="-307.2" font-family="Helvetica,sans-Serif" font-size="11.00">int4[10]</text>
<polygon fill="none" stroke="black" points="10.5,-277 10.5,-299 205.5,-299 205.5,-277 10.5,-277"/>
<text text-anchor="start" x="30.5" y="-285.2" font-family="Helvetica,sans-Serif" font-size="11.00">value_en</text>
<polygon fill="none" stroke="black" points="205.5,-277 205.5,-299 275.5,-299 275.5,-277 205.5,-277"/>
<text text-anchor="start" x="208.5" y="-285.2" font-family="Helvetica,sans-Serif" font-size="11.00">varchar[100]</text>
<polygon fill="none" stroke="black" points="10.5,-255 10.5,-277 205.5,-277 205.5,-255 10.5,-255"/>
<text text-anchor="start" x="30.5" y="-263.2" font-family="Helvetica,sans-Serif" font-size="11.00">value_de</text>
<polygon fill="none" stroke="black" points="205.5,-255 205.5,-277 275.5,-277 275.5,-255 205.5,-255"/>
<text text-anchor="start" x="208.5" y="-263.2" font-family="Helvetica,sans-Serif" font-size="11.00">varchar[100]</text>
<polygon fill="none" stroke="black" points="10.5,-233 10.5,-255 205.5,-255 205.5,-233 10.5,-233"/>
<text text-anchor="start" x="30.5" y="-241.2" font-family="Helvetica,sans-Serif" font-size="11.00">value_fr</text>
<polygon fill="none" stroke="black" points="205.5,-233 205.5,-255 275.5,-255 275.5,-233 205.5,-233"/>
<text text-anchor="start" x="208.5" y="-241.2" font-family="Helvetica,sans-Serif" font-size="11.00">varchar[100]</text>
<polygon fill="none" stroke="black" points="10.5,-211 10.5,-233 205.5,-233 205.5,-211 10.5,-211"/>
<text text-anchor="start" x="30.5" y="-219.2" font-family="Helvetica,sans-Serif" font-size="11.00">value_it</text>
<polygon fill="none" stroke="black" points="205.5,-211 205.5,-233 275.5,-233 275.5,-211 205.5,-211"/>
<text text-anchor="start" x="208.5" y="-219.2" font-family="Helvetica,sans-Serif" font-size="11.00">varchar[100]</text>
<polygon fill="none" stroke="black" points="10.5,-189 10.5,-211 205.5,-211 205.5,-189 10.5,-189"/>
<text text-anchor="start" x="30.5" y="-197.2" font-family="Helvetica,sans-Serif" font-size="11.00">value_ro</text>
<polygon fill="none" stroke="black" points="205.5,-189 205.5,-211 275.5,-211 275.5,-189 205.5,-189"/>
<text text-anchor="start" x="208.5" y="-197.2" font-family="Helvetica,sans-Serif" font-size="11.00">varchar[100]</text>
<polygon fill="none" stroke="black" points="10.5,-167 10.5,-189 205.5,-189 205.5,-167 10.5,-167"/>
<text text-anchor="start" x="30.5" y="-175.2" font-family="Helvetica,sans-Serif" font-size="11.00">abbr_en</text>
<polygon fill="none" stroke="black" points="205.5,-167 205.5,-189 275.5,-189 275.5,-167 205.5,-167"/>
<text text-anchor="start" x="208.5" y="-175.2" font-family="Helvetica,sans-Serif" font-size="11.00">varchar[3]</text>
<polygon fill="none" stroke="black" points="10.5,-145 10.5,-167 205.5,-167 205.5,-145 10.5,-145"/>
<text text-anchor="start" x="30.5" y="-153.2" font-family="Helvetica,sans-Serif" font-size="11.00">abbr_de</text>
<polygon fill="none" stroke="black" points="205.5,-145 205.5,-167 275.5,-167 275.5,-145 205.5,-145"/>
<text text-anchor="start" x="208.5" y="-153.2" font-family="Helvetica,sans-Serif" font-size="11.00">varchar[3]</text>
<polygon fill="none" stroke="black" points="10.5,-123 10.5,-145 205.5,-145 205.5,-123 10.5,-123"/>
<text text-anchor="start" x="30.5" y="-131.2" font-family="Helvetica,sans-Serif" font-size="11.00">abbr_fr</text>
<polygon fill="none" stroke="black" points="205.5,-123 205.5,-145 275.5,-145 275.5,-123 205.5,-123"/>
<text text-anchor="start" x="208.5" y="-131.2" font-family="Helvetica,sans-Serif" font-size="11.00">varchar[3]</text>
<polygon fill="none" stroke="black" points="10.5,-101 10.5,-123 205.5,-123 205.5,-101 10.5,-101"/>
<text text-anchor="start" x="30.5" y="-109.2" font-family="Helvetica,sans-Serif" font-size="11.00">abbr_it</text>
<polygon fill="none" stroke="black" points="205.5,-101 205.5,-123 275.5,-123 275.5,-101 205.5,-101"/>
<text text-anchor="start" x="208.5" y="-109.2" font-family="Helvetica,sans-Serif" font-size="11.00">varchar[3]</text>
<polygon fill="none" stroke="black" points="10.5,-79 10.5,-101 205.5,-101 205.5,-79 10.5,-79"/>
<text text-anchor="start" x="30.5" y="-87.2" font-family="Helvetica,sans-Serif" font-size="11.00">abbr_ro</text>
<polygon fill="none" stroke="black" points="205.5,-79 205.5,-101 275.5,-101 275.5,-79 205.5,-79"/>
<text text-anchor="start" x="208.5" y="-87.2" font-family="Helvetica,sans-Serif" font-size="11.00">varchar[3]</text>
<polygon fill="none" stroke="black" points="10.5,-57 10.5,-79 205.5,-79 205.5,-57 10.5,-57"/>
<text text-anchor="start" x="30.5" y="-65.2" font-family="Helvetica,sans-Serif" font-size="11.00">active</text>
<polygon fill="none" stroke="black" points="205.5,-57 205.5,-79 275.5,-79 275.5,-57 205.5,-57"/>
<text text-anchor="start" x="208.5" y="-65.2" font-family="Helvetica,sans-Serif" font-size="11.00">bool[1]</text>
<polygon fill="#ffffff" stroke="transparent" points="10.5,-39 10.5,-57 112.5,-57 112.5,-39 10.5,-39"/>
<polygon fill="none" stroke="black" points="10.5,-39 10.5,-57 112.5,-57 112.5,-39 10.5,-39"/>
<text text-anchor="start" x="13.5" y="-45.2" font-family="Helvetica,sans-Serif" font-size="11.00">&lt; 0</text>
<polygon fill="#ffffff" stroke="transparent" points="112.5,-39 112.5,-57 205.5,-57 205.5,-39 112.5,-39"/>
<polygon fill="none" stroke="black" points="112.5,-39 112.5,-57 205.5,-57 205.5,-39 112.5,-39"/>
<text text-anchor="start" x="195.5" y="-45.2" font-family="Helvetica,sans-Serif" font-size="11.00"> &#160;</text>
<polygon fill="#ffffff" stroke="transparent" points="205.5,-39 205.5,-57 275.5,-57 275.5,-39 205.5,-39"/>
<polygon fill="none" stroke="black" points="205.5,-39 205.5,-57 275.5,-57 275.5,-39 205.5,-39"/>
<text text-anchor="start" x="256.5" y="-45.2" font-family="Helvetica,sans-Serif" font-size="11.00">1 &gt;</text>
<polygon fill="none" stroke="black" stroke-width="2" points="9,-38 9,-366 276,-366 276,-38 9,-38"/>
</a>
</g>
</g>
<!-- tdh_od.pipe_section&#45;&gt;pipe_section_pipeline_quality -->
<g id="edge1" class="edge">
<title>tdh_od.pipe_section:w&#45;&gt;pipe_section_pipeline_quality:e</title>
<path fill="none" stroke="black" d="M310.28,-332C299.29,-332 292.16,-332 276.5,-332"/>
<polygon fill="black" stroke="black" points="317,-332 325,-335.6 321,-332 325,-332 325,-332 325,-332 321,-332 325,-328.4 317,-332 317,-332"/>
<ellipse fill="none" stroke="black" cx="313.8" cy="-332" rx="3.2" ry="3.2"/>
</g>
</g>
</svg>
