<?xml version="1.0" encoding="UTF-8" standalone="no"?>
<!DOCTYPE svg PUBLIC "-//W3C//DTD SVG 1.1//EN"
 "http://www.w3.org/Graphics/SVG/1.1/DTD/svg11.dtd">
<!-- Generated by graphviz version 2.47.1 (20210515.0534)
 -->
<!-- Title: oneDegreeRelationshipsDiagram Pages: 1 -->
<svg width="453pt" height="509pt"
 viewBox="0.00 0.00 453.00 509.00" xmlns="http://www.w3.org/2000/svg" xmlns:xlink="http://www.w3.org/1999/xlink">
<g id="graph0" class="graph" transform="scale(1 1) rotate(0) translate(4 505)">
<title>oneDegreeRelationshipsDiagram</title>
<polygon fill="#ffffff" stroke="transparent" points="-4,4 -4,-505 449,-505 449,4 -4,4"/>
<text text-anchor="middle" x="73.5" y="-7.2" font-family="Helvetica,sans-Serif" font-size="11.00">Generated by SchemaSpy</text>
<!-- tdh_od.pipe_section -->
<g id="node1" class="node">
<title>tdh_od.pipe_section</title>
<g id="a_node1"><a xlink:href="../../../tdh_od/tables/pipe_section.html" xlink:title="tdh_od.pipe_section" target="_top">
<polygon fill="#ffffff" stroke="transparent" points="275,-263 275,-497 437,-497 437,-263 275,-263"/>
<polygon fill="#f5f5f5" stroke="transparent" points="275,-475 275,-497 437,-497 437,-475 275,-475"/>
<polygon fill="none" stroke="black" points="275,-475 275,-497 437,-497 437,-475 275,-475"/>
<text text-anchor="start" x="280" y="-484.2" font-family="Helvetica,sans-Serif" font-weight="bold" font-size="11.00">tdh_od.pipe_section</text>
<text text-anchor="start" x="398" y="-483.2" font-family="Helvetica,sans-Serif" font-size="11.00">[table]</text>
<polygon fill="none" stroke="black" points="275,-453 275,-475 437,-475 437,-453 275,-453"/>
<image xlink:href="../../images/foreignKeys.png" width="11px" height="12px" preserveAspectRatio="xMinYMin meet" x="280" y="-470"/>
<text text-anchor="start" x="299" y="-461.2" font-family="Helvetica,sans-Serif" font-size="11.00">horizontal_positioning</text>
<polygon fill="none" stroke="black" points="275,-431 275,-453 437,-453 437,-431 275,-431"/>
<image xlink:href="../../images/foreignKeys.png" width="11px" height="12px" preserveAspectRatio="xMinYMin meet" x="280" y="-448"/>
<text text-anchor="start" x="299" y="-439.2" font-family="Helvetica,sans-Serif" font-size="11.00">status</text>
<polygon fill="none" stroke="black" points="275,-409 275,-431 437,-431 437,-409 275,-409"/>
<image xlink:href="../../images/foreignKeys.png" width="11px" height="12px" preserveAspectRatio="xMinYMin meet" x="280" y="-426"/>
<text text-anchor="start" x="299" y="-417.2" font-family="Helvetica,sans-Serif" font-size="11.00">function</text>
<polygon fill="none" stroke="black" points="275,-387 275,-409 437,-409 437,-387 275,-387"/>
<image xlink:href="../../images/foreignKeys.png" width="11px" height="12px" preserveAspectRatio="xMinYMin meet" x="280" y="-404"/>
<text text-anchor="start" x="299" y="-395.2" font-family="Helvetica,sans-Serif" font-size="11.00">pipe_type</text>
<polygon fill="none" stroke="black" points="275,-365 275,-387 437,-387 437,-365 275,-365"/>
<image xlink:href="../../images/foreignKeys.png" width="11px" height="12px" preserveAspectRatio="xMinYMin meet" x="280" y="-382"/>
<text text-anchor="start" x="299" y="-373.2" font-family="Helvetica,sans-Serif" font-size="11.00">fluent</text>
<polygon fill="none" stroke="black" points="275,-343 275,-365 437,-365 437,-343 275,-343"/>
<image xlink:href="../../images/foreignKeys.png" width="11px" height="12px" preserveAspectRatio="xMinYMin meet" x="280" y="-360"/>
<text text-anchor="start" x="299" y="-351.2" font-family="Helvetica,sans-Serif" font-size="11.00">insulation_kind</text>
<polygon fill="none" stroke="black" points="275,-321 275,-343 437,-343 437,-321 275,-321"/>
<image xlink:href="../../images/foreignKeys.png" width="11px" height="12px" preserveAspectRatio="xMinYMin meet" x="280" y="-338"/>
<text text-anchor="start" x="299" y="-329.2" font-family="Helvetica,sans-Serif" font-size="11.00">coating</text>
<polygon fill="none" stroke="black" points="275,-299 275,-321 437,-321 437,-299 275,-299"/>
<image xlink:href="../../images/foreignKeys.png" width="11px" height="12px" preserveAspectRatio="xMinYMin meet" x="280" y="-316"/>
<text text-anchor="start" x="299" y="-307.2" font-family="Helvetica,sans-Serif" font-size="11.00">pipeline_quality</text>
<polygon fill="none" stroke="black" points="275,-281 275,-299 437,-299 437,-281 275,-281"/>
<text text-anchor="start" x="278" y="-287.2" font-family="Helvetica,sans-Serif" font-size="11.00">...</text>
<polygon fill="#ffffff" stroke="transparent" points="275,-263 275,-281 340,-281 340,-263 275,-263"/>
<polygon fill="none" stroke="black" points="275,-263 275,-281 340,-281 340,-263 275,-263"/>
<text text-anchor="start" x="278" y="-269.2" font-family="Helvetica,sans-Serif" font-size="11.00">&lt; 8</text>
<polygon fill="#ffffff" stroke="transparent" points="340,-263 340,-281 402,-281 402,-263 340,-263"/>
<polygon fill="none" stroke="black" points="340,-263 340,-281 402,-281 402,-263 340,-263"/>
<text text-anchor="start" x="365" y="-269.2" font-family="Helvetica,sans-Serif" font-size="11.00">0 rows</text>
<polygon fill="#ffffff" stroke="transparent" points="402,-263 402,-281 437,-281 437,-263 402,-263"/>
<polygon fill="none" stroke="black" points="402,-263 402,-281 437,-281 437,-263 402,-263"/>
<text text-anchor="start" x="427" y="-269.2" font-family="Helvetica,sans-Serif" font-size="11.00"> &#160;</text>
</a>
</g>
</g>
<!-- pipe_section_coating -->
<g id="node2" class="node">
<title>pipe_section_coating</title>
<g id="a_node2"><a xlink:href="../../tables/pipe_section_coating.html" xlink:title="pipe_section_coating" target="_top">
<polygon fill="#ffffff" stroke="transparent" points="8,-37 8,-367 226,-367 226,-37 8,-37"/>
<polygon fill="#f5f5f5" stroke="transparent" points="10,-343 10,-365 224,-365 224,-343 10,-343"/>
<polygon fill="none" stroke="black" points="10,-343 10,-365 224,-365 224,-343 10,-343"/>
<text text-anchor="start" x="15" y="-352.2" font-family="Helvetica,sans-Serif" font-weight="bold" font-size="11.00">pipe_section_coating</text>
<text text-anchor="start" x="185" y="-351.2" font-family="Helvetica,sans-Serif" font-size="11.00">[table]</text>
<polygon fill="none" stroke="black" points="10,-321 10,-343 154,-343 154,-321 10,-321"/>
<image xlink:href="../../images/primaryKeys.png" width="11px" height="12px" preserveAspectRatio="xMinYMin meet" x="15" y="-338"/>
<text text-anchor="start" x="30" y="-329.2" font-family="Helvetica,sans-Serif" font-size="11.00">code</text>
<polygon fill="none" stroke="black" points="154,-321 154,-343 224,-343 224,-321 154,-321"/>
<text text-anchor="start" x="157" y="-329.2" font-family="Helvetica,sans-Serif" font-size="11.00">int4[10]</text>
<polygon fill="none" stroke="black" points="10,-299 10,-321 154,-321 154,-299 10,-299"/>
<text text-anchor="start" x="30" y="-307.2" font-family="Helvetica,sans-Serif" font-size="11.00">vsacode</text>
<polygon fill="none" stroke="black" points="154,-299 154,-321 224,-321 224,-299 154,-299"/>
<text text-anchor="start" x="157" y="-307.2" font-family="Helvetica,sans-Serif" font-size="11.00">int4[10]</text>
<polygon fill="none" stroke="black" points="10,-277 10,-299 154,-299 154,-277 10,-277"/>
<text text-anchor="start" x="30" y="-285.2" font-family="Helvetica,sans-Serif" font-size="11.00">value_en</text>
<polygon fill="none" stroke="black" points="154,-277 154,-299 224,-299 224,-277 154,-277"/>
<text text-anchor="start" x="157" y="-285.2" font-family="Helvetica,sans-Serif" font-size="11.00">varchar[100]</text>
<polygon fill="none" stroke="black" points="10,-255 10,-277 154,-277 154,-255 10,-255"/>
<text text-anchor="start" x="30" y="-263.2" font-family="Helvetica,sans-Serif" font-size="11.00">value_de</text>
<polygon fill="none" stroke="black" points="154,-255 154,-277 224,-277 224,-255 154,-255"/>
<text text-anchor="start" x="157" y="-263.2" font-family="Helvetica,sans-Serif" font-size="11.00">varchar[100]</text>
<polygon fill="none" stroke="black" points="10,-233 10,-255 154,-255 154,-233 10,-233"/>
<text text-anchor="start" x="30" y="-241.2" font-family="Helvetica,sans-Serif" font-size="11.00">value_fr</text>
<polygon fill="none" stroke="black" points="154,-233 154,-255 224,-255 224,-233 154,-233"/>
<text text-anchor="start" x="157" y="-241.2" font-family="Helvetica,sans-Serif" font-size="11.00">varchar[100]</text>
<polygon fill="none" stroke="black" points="10,-211 10,-233 154,-233 154,-211 10,-211"/>
<text text-anchor="start" x="30" y="-219.2" font-family="Helvetica,sans-Serif" font-size="11.00">value_it</text>
<polygon fill="none" stroke="black" points="154,-211 154,-233 224,-233 224,-211 154,-211"/>
<text text-anchor="start" x="157" y="-219.2" font-family="Helvetica,sans-Serif" font-size="11.00">varchar[100]</text>
<polygon fill="none" stroke="black" points="10,-189 10,-211 154,-211 154,-189 10,-189"/>
<text text-anchor="start" x="30" y="-197.2" font-family="Helvetica,sans-Serif" font-size="11.00">value_ro</text>
<polygon fill="none" stroke="black" points="154,-189 154,-211 224,-211 224,-189 154,-189"/>
<text text-anchor="start" x="157" y="-197.2" font-family="Helvetica,sans-Serif" font-size="11.00">varchar[100]</text>
<polygon fill="none" stroke="black" points="10,-167 10,-189 154,-189 154,-167 10,-167"/>
<text text-anchor="start" x="30" y="-175.2" font-family="Helvetica,sans-Serif" font-size="11.00">abbr_en</text>
<polygon fill="none" stroke="black" points="154,-167 154,-189 224,-189 224,-167 154,-167"/>
<text text-anchor="start" x="157" y="-175.2" font-family="Helvetica,sans-Serif" font-size="11.00">varchar[3]</text>
<polygon fill="none" stroke="black" points="10,-145 10,-167 154,-167 154,-145 10,-145"/>
<text text-anchor="start" x="30" y="-153.2" font-family="Helvetica,sans-Serif" font-size="11.00">abbr_de</text>
<polygon fill="none" stroke="black" points="154,-145 154,-167 224,-167 224,-145 154,-145"/>
<text text-anchor="start" x="157" y="-153.2" font-family="Helvetica,sans-Serif" font-size="11.00">varchar[3]</text>
<polygon fill="none" stroke="black" points="10,-123 10,-145 154,-145 154,-123 10,-123"/>
<text text-anchor="start" x="30" y="-131.2" font-family="Helvetica,sans-Serif" font-size="11.00">abbr_fr</text>
<polygon fill="none" stroke="black" points="154,-123 154,-145 224,-145 224,-123 154,-123"/>
<text text-anchor="start" x="157" y="-131.2" font-family="Helvetica,sans-Serif" font-size="11.00">varchar[3]</text>
<polygon fill="none" stroke="black" points="10,-101 10,-123 154,-123 154,-101 10,-101"/>
<text text-anchor="start" x="30" y="-109.2" font-family="Helvetica,sans-Serif" font-size="11.00">abbr_it</text>
<polygon fill="none" stroke="black" points="154,-101 154,-123 224,-123 224,-101 154,-101"/>
<text text-anchor="start" x="157" y="-109.2" font-family="Helvetica,sans-Serif" font-size="11.00">varchar[3]</text>
<polygon fill="none" stroke="black" points="10,-79 10,-101 154,-101 154,-79 10,-79"/>
<text text-anchor="start" x="30" y="-87.2" font-family="Helvetica,sans-Serif" font-size="11.00">abbr_ro</text>
<polygon fill="none" stroke="black" points="154,-79 154,-101 224,-101 224,-79 154,-79"/>
<text text-anchor="start" x="157" y="-87.2" font-family="Helvetica,sans-Serif" font-size="11.00">varchar[3]</text>
<polygon fill="none" stroke="black" points="10,-57 10,-79 154,-79 154,-57 10,-57"/>
<text text-anchor="start" x="30" y="-65.2" font-family="Helvetica,sans-Serif" font-size="11.00">active</text>
<polygon fill="none" stroke="black" points="154,-57 154,-79 224,-79 224,-57 154,-57"/>
<text text-anchor="start" x="157" y="-65.2" font-family="Helvetica,sans-Serif" font-size="11.00">bool[1]</text>
<polygon fill="#ffffff" stroke="transparent" points="10,-39 10,-57 86,-57 86,-39 10,-39"/>
<polygon fill="none" stroke="black" points="10,-39 10,-57 86,-57 86,-39 10,-39"/>
<text text-anchor="start" x="13" y="-45.2" font-family="Helvetica,sans-Serif" font-size="11.00">&lt; 0</text>
<polygon fill="#ffffff" stroke="transparent" points="86,-39 86,-57 154,-57 154,-39 86,-39"/>
<polygon fill="none" stroke="black" points="86,-39 86,-57 154,-57 154,-39 86,-39"/>
<text text-anchor="start" x="144" y="-45.2" font-family="Helvetica,sans-Serif" font-size="11.00"> &#160;</text>
<polygon fill="#ffffff" stroke="transparent" points="154,-39 154,-57 224,-57 224,-39 154,-39"/>
<polygon fill="none" stroke="black" points="154,-39 154,-57 224,-57 224,-39 154,-39"/>
<text text-anchor="start" x="205" y="-45.2" font-family="Helvetica,sans-Serif" font-size="11.00">1 &gt;</text>
<polygon fill="none" stroke="black" stroke-width="2" points="9,-38 9,-366 225,-366 225,-38 9,-38"/>
</a>
</g>
</g>
<!-- tdh_od.pipe_section&#45;&gt;pipe_section_coating -->
<g id="edge1" class="edge">
<title>tdh_od.pipe_section:w&#45;&gt;pipe_section_coating:e</title>
<path fill="none" stroke="black" d="M259.49,-332C248.18,-332 240.99,-332 225,-332"/>
<polygon fill="black" stroke="black" points="266,-332 274,-335.6 270,-332 274,-332 274,-332 274,-332 270,-332 274,-328.4 266,-332 266,-332"/>
<ellipse fill="none" stroke="black" cx="262.8" cy="-332" rx="3.2" ry="3.2"/>
</g>
</g>
</svg>
