<?xml version="1.0" encoding="UTF-8" standalone="no"?>
<!DOCTYPE svg PUBLIC "-//W3C//DTD SVG 1.1//EN"
 "http://www.w3.org/Graphics/SVG/1.1/DTD/svg11.dtd">
<!-- Generated by graphviz version 2.43.0 (0)
 -->
<!-- Title: oneDegreeRelationshipsDiagram Pages: 1 -->
<svg width="574pt" height="599pt"
 viewBox="0.00 0.00 574.00 599.00" xmlns="http://www.w3.org/2000/svg" xmlns:xlink="http://www.w3.org/1999/xlink">
<g id="graph0" class="graph" transform="scale(1 1) rotate(0) translate(4 595)">
<title>oneDegreeRelationshipsDiagram</title>
<polygon fill="#ffffff" stroke="transparent" points="-4,4 -4,-595 570,-595 570,4 -4,4"/>
<text text-anchor="middle" x="79.5" y="-7.2" font-family="Helvetica,sans-Serif" font-size="11.00">Generated by SchemaSpy</text>
<!-- tdh_od.pipe_point_feed -->
<g id="node1" class="node">
<title>tdh_od.pipe_point_feed</title>
<g id="a_node1"><a xlink:href="../../../tdh_od/tables/pipe_point_feed.html" xlink:title="tdh_od.pipe_point_feed" target="_top">
<polygon fill="#ffffff" stroke="transparent" points="341,-483 341,-585 558,-585 558,-483 341,-483"/>
<polygon fill="#f5f5f5" stroke="transparent" points="341.5,-563 341.5,-585 558.5,-585 558.5,-563 341.5,-563"/>
<polygon fill="none" stroke="black" points="341.5,-563 341.5,-585 558.5,-585 558.5,-563 341.5,-563"/>
<text text-anchor="start" x="346.5" y="-572.2" font-family="Helvetica,sans-Serif" font-weight="bold" font-size="11.00">tdh_od.pipe_point_feed</text>
<text text-anchor="start" x="516.5" y="-571.2" font-family="Helvetica,sans-Serif" font-size="11.00">[table]</text>
<polygon fill="none" stroke="black" points="341.5,-541 341.5,-563 558.5,-563 558.5,-541 341.5,-541"/>
<image xlink:href="../../images/foreignKeys.png" width="11px" height="12px" preserveAspectRatio="xMinYMin meet" x="346.5" y="-558"/>
<text text-anchor="start" x="368.5" y="-549.2" font-family="Helvetica,sans-Serif" font-size="11.00">kind</text>
<polygon fill="none" stroke="black" points="341.5,-519 341.5,-541 558.5,-541 558.5,-519 341.5,-519"/>
<image xlink:href="../../images/foreignKeys.png" width="11px" height="12px" preserveAspectRatio="xMinYMin meet" x="346.5" y="-536"/>
<text text-anchor="start" x="368.5" y="-527.2" font-family="Helvetica,sans-Serif" font-size="11.00">category</text>
<polygon fill="none" stroke="black" points="341.5,-501 341.5,-519 558.5,-519 558.5,-501 341.5,-501"/>
<text text-anchor="start" x="344.5" y="-507.2" font-family="Helvetica,sans-Serif" font-size="11.00">...</text>
<polygon fill="#ffffff" stroke="transparent" points="341.5,-483 341.5,-501 558.5,-501 558.5,-483 341.5,-483"/>
<polygon fill="none" stroke="black" points="341.5,-483 341.5,-501 558.5,-501 558.5,-483 341.5,-483"/>
<polygon fill="#ffffff" stroke="transparent" points="342.5,-484 342.5,-500 412.5,-500 412.5,-484 342.5,-484"/>
<text text-anchor="start" x="344.5" y="-489.2" font-family="Helvetica,sans-Serif" font-size="11.00">&lt; 2</text>
<polygon fill="#ffffff" stroke="transparent" points="412.5,-484 412.5,-500 499.5,-500 499.5,-484 412.5,-484"/>
<text text-anchor="start" x="437.5" y="-489.2" font-family="Helvetica,sans-Serif" font-size="11.00">0 rows</text>
<polygon fill="#ffffff" stroke="transparent" points="499.5,-484 499.5,-500 557.5,-500 557.5,-484 499.5,-484"/>
<text text-anchor="start" x="547.5" y="-489.2" font-family="Helvetica,sans-Serif" font-size="11.00"> &#160;</text>
<polygon fill="black" stroke="black" points="412.5,-484 412.5,-500 412.5,-500 412.5,-484 412.5,-484"/>
<polygon fill="black" stroke="black" points="499.5,-484 499.5,-500 499.5,-500 499.5,-484 499.5,-484"/>
</a>
</g>
</g>
<!-- pipe_point_feed_kind -->
<g id="node2" class="node">
<title>pipe_point_feed_kind</title>
<g id="a_node2"><a xlink:href="../../tables/pipe_point_feed_kind.html" xlink:title="pipe_point_feed_kind" target="_top">
<polygon fill="#ffffff" stroke="transparent" points="8,-37 8,-587 292,-587 292,-37 8,-37"/>
<polygon fill="#f5f5f5" stroke="transparent" points="10,-563 10,-585 290,-585 290,-563 10,-563"/>
<polygon fill="none" stroke="black" points="10,-563 10,-585 290,-585 290,-563 10,-563"/>
<text text-anchor="start" x="15" y="-572.2" font-family="Helvetica,sans-Serif" font-weight="bold" font-size="11.00">pipe_point_feed_kind</text>
<text text-anchor="start" x="248" y="-571.2" font-family="Helvetica,sans-Serif" font-size="11.00">[table]</text>
<polygon fill="none" stroke="black" points="10,-541 10,-563 184,-563 184,-541 10,-541"/>
<image xlink:href="../../images/primaryKeys.png" width="11px" height="12px" preserveAspectRatio="xMinYMin meet" x="15" y="-558"/>
<text text-anchor="start" x="30" y="-549.2" font-family="Helvetica,sans-Serif" font-size="11.00">code</text>
<polygon fill="none" stroke="black" points="184,-541 184,-563 290,-563 290,-541 184,-541"/>
<text text-anchor="start" x="187" y="-549.2" font-family="Helvetica,sans-Serif" font-size="11.00">int4[10]</text>
<polygon fill="none" stroke="black" points="10,-519 10,-541 184,-541 184,-519 10,-519"/>
<text text-anchor="start" x="30" y="-527.2" font-family="Helvetica,sans-Serif" font-size="11.00">vsacode</text>
<polygon fill="none" stroke="black" points="184,-519 184,-541 290,-541 290,-519 184,-519"/>
<text text-anchor="start" x="187" y="-527.2" font-family="Helvetica,sans-Serif" font-size="11.00">int4[10]</text>
<polygon fill="none" stroke="black" points="10,-497 10,-519 184,-519 184,-497 10,-497"/>
<text text-anchor="start" x="30" y="-505.2" font-family="Helvetica,sans-Serif" font-size="11.00">value_en</text>
<polygon fill="none" stroke="black" points="184,-497 184,-519 290,-519 290,-497 184,-497"/>
<text text-anchor="start" x="187" y="-505.2" font-family="Helvetica,sans-Serif" font-size="11.00">varchar[100]</text>
<polygon fill="none" stroke="black" points="10,-475 10,-497 184,-497 184,-475 10,-475"/>
<text text-anchor="start" x="30" y="-483.2" font-family="Helvetica,sans-Serif" font-size="11.00">value_de</text>
<polygon fill="none" stroke="black" points="184,-475 184,-497 290,-497 290,-475 184,-475"/>
<text text-anchor="start" x="187" y="-483.2" font-family="Helvetica,sans-Serif" font-size="11.00">varchar[100]</text>
<polygon fill="none" stroke="black" points="10,-453 10,-475 184,-475 184,-453 10,-453"/>
<text text-anchor="start" x="30" y="-461.2" font-family="Helvetica,sans-Serif" font-size="11.00">value_fr</text>
<polygon fill="none" stroke="black" points="184,-453 184,-475 290,-475 290,-453 184,-453"/>
<text text-anchor="start" x="187" y="-461.2" font-family="Helvetica,sans-Serif" font-size="11.00">varchar[100]</text>
<polygon fill="none" stroke="black" points="10,-431 10,-453 184,-453 184,-431 10,-431"/>
<text text-anchor="start" x="30" y="-439.2" font-family="Helvetica,sans-Serif" font-size="11.00">value_it</text>
<polygon fill="none" stroke="black" points="184,-431 184,-453 290,-453 290,-431 184,-431"/>
<text text-anchor="start" x="187" y="-439.2" font-family="Helvetica,sans-Serif" font-size="11.00">varchar[100]</text>
<polygon fill="none" stroke="black" points="10,-409 10,-431 184,-431 184,-409 10,-409"/>
<text text-anchor="start" x="30" y="-417.2" font-family="Helvetica,sans-Serif" font-size="11.00">value_ro</text>
<polygon fill="none" stroke="black" points="184,-409 184,-431 290,-431 290,-409 184,-409"/>
<text text-anchor="start" x="187" y="-417.2" font-family="Helvetica,sans-Serif" font-size="11.00">varchar[100]</text>
<polygon fill="none" stroke="black" points="10,-387 10,-409 184,-409 184,-387 10,-387"/>
<text text-anchor="start" x="30" y="-395.2" font-family="Helvetica,sans-Serif" font-size="11.00">abbr_en</text>
<polygon fill="none" stroke="black" points="184,-387 184,-409 290,-409 290,-387 184,-387"/>
<text text-anchor="start" x="187" y="-395.2" font-family="Helvetica,sans-Serif" font-size="11.00">varchar[3]</text>
<polygon fill="none" stroke="black" points="10,-365 10,-387 184,-387 184,-365 10,-365"/>
<text text-anchor="start" x="30" y="-373.2" font-family="Helvetica,sans-Serif" font-size="11.00">abbr_de</text>
<polygon fill="none" stroke="black" points="184,-365 184,-387 290,-387 290,-365 184,-365"/>
<text text-anchor="start" x="187" y="-373.2" font-family="Helvetica,sans-Serif" font-size="11.00">varchar[3]</text>
<polygon fill="none" stroke="black" points="10,-343 10,-365 184,-365 184,-343 10,-343"/>
<text text-anchor="start" x="30" y="-351.2" font-family="Helvetica,sans-Serif" font-size="11.00">abbr_fr</text>
<polygon fill="none" stroke="black" points="184,-343 184,-365 290,-365 290,-343 184,-343"/>
<text text-anchor="start" x="187" y="-351.2" font-family="Helvetica,sans-Serif" font-size="11.00">varchar[3]</text>
<polygon fill="none" stroke="black" points="10,-321 10,-343 184,-343 184,-321 10,-321"/>
<text text-anchor="start" x="30" y="-329.2" font-family="Helvetica,sans-Serif" font-size="11.00">abbr_it</text>
<polygon fill="none" stroke="black" points="184,-321 184,-343 290,-343 290,-321 184,-321"/>
<text text-anchor="start" x="187" y="-329.2" font-family="Helvetica,sans-Serif" font-size="11.00">varchar[3]</text>
<polygon fill="none" stroke="black" points="10,-299 10,-321 184,-321 184,-299 10,-299"/>
<text text-anchor="start" x="30" y="-307.2" font-family="Helvetica,sans-Serif" font-size="11.00">abbr_ro</text>
<polygon fill="none" stroke="black" points="184,-299 184,-321 290,-321 290,-299 184,-299"/>
<text text-anchor="start" x="187" y="-307.2" font-family="Helvetica,sans-Serif" font-size="11.00">varchar[3]</text>
<polygon fill="none" stroke="black" points="10,-277 10,-299 184,-299 184,-277 10,-277"/>
<text text-anchor="start" x="30" y="-285.2" font-family="Helvetica,sans-Serif" font-size="11.00">description_en</text>
<polygon fill="none" stroke="black" points="184,-277 184,-299 290,-299 290,-277 184,-277"/>
<text text-anchor="start" x="187" y="-285.2" font-family="Helvetica,sans-Serif" font-size="11.00">text[2147483647]</text>
<polygon fill="none" stroke="black" points="10,-255 10,-277 184,-277 184,-255 10,-255"/>
<text text-anchor="start" x="30" y="-263.2" font-family="Helvetica,sans-Serif" font-size="11.00">description_de</text>
<polygon fill="none" stroke="black" points="184,-255 184,-277 290,-277 290,-255 184,-255"/>
<text text-anchor="start" x="187" y="-263.2" font-family="Helvetica,sans-Serif" font-size="11.00">text[2147483647]</text>
<polygon fill="none" stroke="black" points="10,-233 10,-255 184,-255 184,-233 10,-233"/>
<text text-anchor="start" x="30" y="-241.2" font-family="Helvetica,sans-Serif" font-size="11.00">description_fr</text>
<polygon fill="none" stroke="black" points="184,-233 184,-255 290,-255 290,-233 184,-233"/>
<text text-anchor="start" x="187" y="-241.2" font-family="Helvetica,sans-Serif" font-size="11.00">text[2147483647]</text>
<polygon fill="none" stroke="black" points="10,-211 10,-233 184,-233 184,-211 10,-211"/>
<text text-anchor="start" x="30" y="-219.2" font-family="Helvetica,sans-Serif" font-size="11.00">description_it</text>
<polygon fill="none" stroke="black" points="184,-211 184,-233 290,-233 290,-211 184,-211"/>
<text text-anchor="start" x="187" y="-219.2" font-family="Helvetica,sans-Serif" font-size="11.00">text[2147483647]</text>
<polygon fill="none" stroke="black" points="10,-189 10,-211 184,-211 184,-189 10,-189"/>
<text text-anchor="start" x="30" y="-197.2" font-family="Helvetica,sans-Serif" font-size="11.00">description_ro</text>
<polygon fill="none" stroke="black" points="184,-189 184,-211 290,-211 290,-189 184,-189"/>
<text text-anchor="start" x="187" y="-197.2" font-family="Helvetica,sans-Serif" font-size="11.00">text[2147483647]</text>
<polygon fill="none" stroke="black" points="10,-167 10,-189 184,-189 184,-167 10,-167"/>
<text text-anchor="start" x="30" y="-175.2" font-family="Helvetica,sans-Serif" font-size="11.00">display_en</text>
<polygon fill="none" stroke="black" points="184,-167 184,-189 290,-189 290,-167 184,-167"/>
<text text-anchor="start" x="187" y="-175.2" font-family="Helvetica,sans-Serif" font-size="11.00">varchar[100]</text>
<polygon fill="none" stroke="black" points="10,-145 10,-167 184,-167 184,-145 10,-145"/>
<text text-anchor="start" x="30" y="-153.2" font-family="Helvetica,sans-Serif" font-size="11.00">display_de</text>
<polygon fill="none" stroke="black" points="184,-145 184,-167 290,-167 290,-145 184,-145"/>
<text text-anchor="start" x="187" y="-153.2" font-family="Helvetica,sans-Serif" font-size="11.00">varchar[100]</text>
<polygon fill="none" stroke="black" points="10,-123 10,-145 184,-145 184,-123 10,-123"/>
<text text-anchor="start" x="30" y="-131.2" font-family="Helvetica,sans-Serif" font-size="11.00">display_fr</text>
<polygon fill="none" stroke="black" points="184,-123 184,-145 290,-145 290,-123 184,-123"/>
<text text-anchor="start" x="187" y="-131.2" font-family="Helvetica,sans-Serif" font-size="11.00">varchar[100]</text>
<polygon fill="none" stroke="black" points="10,-101 10,-123 184,-123 184,-101 10,-101"/>
<text text-anchor="start" x="30" y="-109.2" font-family="Helvetica,sans-Serif" font-size="11.00">display_it</text>
<polygon fill="none" stroke="black" points="184,-101 184,-123 290,-123 290,-101 184,-101"/>
<text text-anchor="start" x="187" y="-109.2" font-family="Helvetica,sans-Serif" font-size="11.00">varchar[100]</text>
<polygon fill="none" stroke="black" points="10,-79 10,-101 184,-101 184,-79 10,-79"/>
<text text-anchor="start" x="30" y="-87.2" font-family="Helvetica,sans-Serif" font-size="11.00">display_ro</text>
<polygon fill="none" stroke="black" points="184,-79 184,-101 290,-101 290,-79 184,-79"/>
<text text-anchor="start" x="187" y="-87.2" font-family="Helvetica,sans-Serif" font-size="11.00">varchar[100]</text>
<polygon fill="none" stroke="black" points="10,-57 10,-79 184,-79 184,-57 10,-57"/>
<text text-anchor="start" x="30" y="-65.2" font-family="Helvetica,sans-Serif" font-size="11.00">active</text>
<polygon fill="none" stroke="black" points="184,-57 184,-79 290,-79 290,-57 184,-57"/>
<text text-anchor="start" x="187" y="-65.2" font-family="Helvetica,sans-Serif" font-size="11.00">bool[1]</text>
<polygon fill="#ffffff" stroke="transparent" points="10,-39 10,-57 290,-57 290,-39 10,-39"/>
<polygon fill="none" stroke="black" points="10,-39 10,-57 290,-57 290,-39 10,-39"/>
<polygon fill="#ffffff" stroke="transparent" points="11,-40 11,-56 108,-56 108,-40 11,-40"/>
<text text-anchor="start" x="13" y="-45.2" font-family="Helvetica,sans-Serif" font-size="11.00">&lt; 0</text>
<polygon fill="#ffffff" stroke="transparent" points="108,-40 108,-56 193,-56 193,-40 108,-40"/>
<text text-anchor="start" x="146.5" y="-45.2" font-family="Helvetica,sans-Serif" font-size="11.00"> &#160;</text>
<polygon fill="#ffffff" stroke="transparent" points="193,-40 193,-56 289,-56 289,-40 193,-40"/>
<text text-anchor="start" x="267" y="-45.2" font-family="Helvetica,sans-Serif" font-size="11.00">1 &gt;</text>
<polygon fill="black" stroke="black" points="108,-40 108,-56 108,-56 108,-40 108,-40"/>
<polygon fill="black" stroke="black" points="193,-40 193,-56 193,-56 193,-40 193,-40"/>
<polygon fill="none" stroke="black" stroke-width="2" points="9,-38 9,-586 291,-586 291,-38 9,-38"/>
</a>
</g>
</g>
<!-- tdh_od.pipe_point_feed&#45;&gt;pipe_point_feed_kind -->
<g id="edge1" class="edge">
<title>tdh_od.pipe_point_feed:w&#45;&gt;pipe_point_feed_kind:e</title>
<path fill="none" stroke="black" d="M325.84,-552C314.41,-552 307.16,-552 291,-552"/>
<polygon fill="black" stroke="black" points="332.5,-552 340.5,-555.6 336.5,-552 340.5,-552 340.5,-552 340.5,-552 336.5,-552 340.5,-548.4 332.5,-552 332.5,-552"/>
<ellipse fill="none" stroke="black" cx="329.3" cy="-552" rx="3.2" ry="3.2"/>
</g>
</g>
</svg>
