<?xml version="1.0" encoding="UTF-8" standalone="no"?>
<!DOCTYPE svg PUBLIC "-//W3C//DTD SVG 1.1//EN"
 "http://www.w3.org/Graphics/SVG/1.1/DTD/svg11.dtd">
<!-- Generated by graphviz version 2.43.0 (0)
 -->
<!-- Title: oneDegreeRelationshipsDiagram Pages: 1 -->
<svg width="611pt" height="599pt"
 viewBox="0.00 0.00 611.00 599.00" xmlns="http://www.w3.org/2000/svg" xmlns:xlink="http://www.w3.org/1999/xlink">
<g id="graph0" class="graph" transform="scale(1 1) rotate(0) translate(4 595)">
<title>oneDegreeRelationshipsDiagram</title>
<polygon fill="#ffffff" stroke="transparent" points="-4,4 -4,-595 607,-595 607,4 -4,4"/>
<text text-anchor="middle" x="79.5" y="-7.2" font-family="Helvetica,sans-Serif" font-size="11.00">Generated by SchemaSpy</text>
<!-- tdh_od.pipe_point_normal -->
<g id="node1" class="node">
<title>tdh_od.pipe_point_normal</title>
<g id="a_node1"><a xlink:href="../../../tdh_od/tables/pipe_point_normal.html" xlink:title="tdh_od.pipe_point_normal" target="_top">
<polygon fill="#ffffff" stroke="transparent" points="360,-461 360,-585 595,-585 595,-461 360,-461"/>
<polygon fill="#f5f5f5" stroke="transparent" points="360.5,-563 360.5,-585 595.5,-585 595.5,-563 360.5,-563"/>
<polygon fill="none" stroke="black" points="360.5,-563 360.5,-585 595.5,-585 595.5,-563 360.5,-563"/>
<text text-anchor="start" x="365.5" y="-572.2" font-family="Helvetica,sans-Serif" font-weight="bold" font-size="11.00">tdh_od.pipe_point_normal</text>
<text text-anchor="start" x="553.5" y="-571.2" font-family="Helvetica,sans-Serif" font-size="11.00">[table]</text>
<polygon fill="none" stroke="black" points="360.5,-541 360.5,-563 595.5,-563 595.5,-541 360.5,-541"/>
<image xlink:href="../../images/foreignKeys.png" width="11px" height="12px" preserveAspectRatio="xMinYMin meet" x="365.5" y="-558"/>
<text text-anchor="start" x="420.5" y="-549.2" font-family="Helvetica,sans-Serif" font-size="11.00">kind</text>
<polygon fill="none" stroke="black" points="360.5,-519 360.5,-541 595.5,-541 595.5,-519 360.5,-519"/>
<image xlink:href="../../images/foreignKeys.png" width="11px" height="12px" preserveAspectRatio="xMinYMin meet" x="365.5" y="-536"/>
<text text-anchor="start" x="420.5" y="-527.2" font-family="Helvetica,sans-Serif" font-size="11.00">armature_setting</text>
<polygon fill="none" stroke="black" points="360.5,-497 360.5,-519 595.5,-519 595.5,-497 360.5,-497"/>
<image xlink:href="../../images/foreignKeys.png" width="11px" height="12px" preserveAspectRatio="xMinYMin meet" x="365.5" y="-514"/>
<text text-anchor="start" x="420.5" y="-505.2" font-family="Helvetica,sans-Serif" font-size="11.00">material</text>
<polygon fill="none" stroke="black" points="360.5,-479 360.5,-497 595.5,-497 595.5,-479 360.5,-479"/>
<text text-anchor="start" x="363.5" y="-485.2" font-family="Helvetica,sans-Serif" font-size="11.00">...</text>
<polygon fill="#ffffff" stroke="transparent" points="360.5,-461 360.5,-479 595.5,-479 595.5,-461 360.5,-461"/>
<polygon fill="none" stroke="black" points="360.5,-461 360.5,-479 595.5,-479 595.5,-461 360.5,-461"/>
<polygon fill="#ffffff" stroke="transparent" points="361.5,-462 361.5,-478 437.5,-478 437.5,-462 361.5,-462"/>
<text text-anchor="start" x="363.5" y="-467.2" font-family="Helvetica,sans-Serif" font-size="11.00">&lt; 3</text>
<polygon fill="#ffffff" stroke="transparent" points="437.5,-462 437.5,-478 530.5,-478 530.5,-462 437.5,-462"/>
<text text-anchor="start" x="465.5" y="-467.2" font-family="Helvetica,sans-Serif" font-size="11.00">0 rows</text>
<polygon fill="#ffffff" stroke="transparent" points="530.5,-462 530.5,-478 594.5,-478 594.5,-462 530.5,-462"/>
<text text-anchor="start" x="584.5" y="-467.2" font-family="Helvetica,sans-Serif" font-size="11.00"> &#160;</text>
<polygon fill="black" stroke="black" points="437.5,-462 437.5,-478 437.5,-478 437.5,-462 437.5,-462"/>
<polygon fill="black" stroke="black" points="530.5,-462 530.5,-478 530.5,-478 530.5,-462 530.5,-462"/>
</a>
</g>
</g>
<!-- pipe_point_normal_kind -->
<g id="node2" class="node">
<title>pipe_point_normal_kind</title>
<g id="a_node2"><a xlink:href="../../tables/pipe_point_normal_kind.html" xlink:title="pipe_point_normal_kind" target="_top">
<polygon fill="#ffffff" stroke="transparent" points="8,-37 8,-587 311,-587 311,-37 8,-37"/>
<polygon fill="#f5f5f5" stroke="transparent" points="10.5,-563 10.5,-585 309.5,-585 309.5,-563 10.5,-563"/>
<polygon fill="none" stroke="black" points="10.5,-563 10.5,-585 309.5,-585 309.5,-563 10.5,-563"/>
<text text-anchor="start" x="15.5" y="-572.2" font-family="Helvetica,sans-Serif" font-weight="bold" font-size="11.00">pipe_point_normal_kind</text>
<text text-anchor="start" x="267.5" y="-571.2" font-family="Helvetica,sans-Serif" font-size="11.00">[table]</text>
<polygon fill="none" stroke="black" points="10.5,-541 10.5,-563 203.5,-563 203.5,-541 10.5,-541"/>
<image xlink:href="../../images/primaryKeys.png" width="11px" height="12px" preserveAspectRatio="xMinYMin meet" x="15.5" y="-558"/>
<text text-anchor="start" x="30.5" y="-549.2" font-family="Helvetica,sans-Serif" font-size="11.00">code</text>
<polygon fill="none" stroke="black" points="203.5,-541 203.5,-563 309.5,-563 309.5,-541 203.5,-541"/>
<text text-anchor="start" x="206.5" y="-549.2" font-family="Helvetica,sans-Serif" font-size="11.00">int4[10]</text>
<polygon fill="none" stroke="black" points="10.5,-519 10.5,-541 203.5,-541 203.5,-519 10.5,-519"/>
<text text-anchor="start" x="30.5" y="-527.2" font-family="Helvetica,sans-Serif" font-size="11.00">vsacode</text>
<polygon fill="none" stroke="black" points="203.5,-519 203.5,-541 309.5,-541 309.5,-519 203.5,-519"/>
<text text-anchor="start" x="206.5" y="-527.2" font-family="Helvetica,sans-Serif" font-size="11.00">int4[10]</text>
<polygon fill="none" stroke="black" points="10.5,-497 10.5,-519 203.5,-519 203.5,-497 10.5,-497"/>
<text text-anchor="start" x="30.5" y="-505.2" font-family="Helvetica,sans-Serif" font-size="11.00">value_en</text>
<polygon fill="none" stroke="black" points="203.5,-497 203.5,-519 309.5,-519 309.5,-497 203.5,-497"/>
<text text-anchor="start" x="206.5" y="-505.2" font-family="Helvetica,sans-Serif" font-size="11.00">varchar[100]</text>
<polygon fill="none" stroke="black" points="10.5,-475 10.5,-497 203.5,-497 203.5,-475 10.5,-475"/>
<text text-anchor="start" x="30.5" y="-483.2" font-family="Helvetica,sans-Serif" font-size="11.00">value_de</text>
<polygon fill="none" stroke="black" points="203.5,-475 203.5,-497 309.5,-497 309.5,-475 203.5,-475"/>
<text text-anchor="start" x="206.5" y="-483.2" font-family="Helvetica,sans-Serif" font-size="11.00">varchar[100]</text>
<polygon fill="none" stroke="black" points="10.5,-453 10.5,-475 203.5,-475 203.5,-453 10.5,-453"/>
<text text-anchor="start" x="30.5" y="-461.2" font-family="Helvetica,sans-Serif" font-size="11.00">value_fr</text>
<polygon fill="none" stroke="black" points="203.5,-453 203.5,-475 309.5,-475 309.5,-453 203.5,-453"/>
<text text-anchor="start" x="206.5" y="-461.2" font-family="Helvetica,sans-Serif" font-size="11.00">varchar[100]</text>
<polygon fill="none" stroke="black" points="10.5,-431 10.5,-453 203.5,-453 203.5,-431 10.5,-431"/>
<text text-anchor="start" x="30.5" y="-439.2" font-family="Helvetica,sans-Serif" font-size="11.00">value_it</text>
<polygon fill="none" stroke="black" points="203.5,-431 203.5,-453 309.5,-453 309.5,-431 203.5,-431"/>
<text text-anchor="start" x="206.5" y="-439.2" font-family="Helvetica,sans-Serif" font-size="11.00">varchar[100]</text>
<polygon fill="none" stroke="black" points="10.5,-409 10.5,-431 203.5,-431 203.5,-409 10.5,-409"/>
<text text-anchor="start" x="30.5" y="-417.2" font-family="Helvetica,sans-Serif" font-size="11.00">value_ro</text>
<polygon fill="none" stroke="black" points="203.5,-409 203.5,-431 309.5,-431 309.5,-409 203.5,-409"/>
<text text-anchor="start" x="206.5" y="-417.2" font-family="Helvetica,sans-Serif" font-size="11.00">varchar[100]</text>
<polygon fill="none" stroke="black" points="10.5,-387 10.5,-409 203.5,-409 203.5,-387 10.5,-387"/>
<text text-anchor="start" x="30.5" y="-395.2" font-family="Helvetica,sans-Serif" font-size="11.00">abbr_en</text>
<polygon fill="none" stroke="black" points="203.5,-387 203.5,-409 309.5,-409 309.5,-387 203.5,-387"/>
<text text-anchor="start" x="206.5" y="-395.2" font-family="Helvetica,sans-Serif" font-size="11.00">varchar[3]</text>
<polygon fill="none" stroke="black" points="10.5,-365 10.5,-387 203.5,-387 203.5,-365 10.5,-365"/>
<text text-anchor="start" x="30.5" y="-373.2" font-family="Helvetica,sans-Serif" font-size="11.00">abbr_de</text>
<polygon fill="none" stroke="black" points="203.5,-365 203.5,-387 309.5,-387 309.5,-365 203.5,-365"/>
<text text-anchor="start" x="206.5" y="-373.2" font-family="Helvetica,sans-Serif" font-size="11.00">varchar[3]</text>
<polygon fill="none" stroke="black" points="10.5,-343 10.5,-365 203.5,-365 203.5,-343 10.5,-343"/>
<text text-anchor="start" x="30.5" y="-351.2" font-family="Helvetica,sans-Serif" font-size="11.00">abbr_fr</text>
<polygon fill="none" stroke="black" points="203.5,-343 203.5,-365 309.5,-365 309.5,-343 203.5,-343"/>
<text text-anchor="start" x="206.5" y="-351.2" font-family="Helvetica,sans-Serif" font-size="11.00">varchar[3]</text>
<polygon fill="none" stroke="black" points="10.5,-321 10.5,-343 203.5,-343 203.5,-321 10.5,-321"/>
<text text-anchor="start" x="30.5" y="-329.2" font-family="Helvetica,sans-Serif" font-size="11.00">abbr_it</text>
<polygon fill="none" stroke="black" points="203.5,-321 203.5,-343 309.5,-343 309.5,-321 203.5,-321"/>
<text text-anchor="start" x="206.5" y="-329.2" font-family="Helvetica,sans-Serif" font-size="11.00">varchar[3]</text>
<polygon fill="none" stroke="black" points="10.5,-299 10.5,-321 203.5,-321 203.5,-299 10.5,-299"/>
<text text-anchor="start" x="30.5" y="-307.2" font-family="Helvetica,sans-Serif" font-size="11.00">abbr_ro</text>
<polygon fill="none" stroke="black" points="203.5,-299 203.5,-321 309.5,-321 309.5,-299 203.5,-299"/>
<text text-anchor="start" x="206.5" y="-307.2" font-family="Helvetica,sans-Serif" font-size="11.00">varchar[3]</text>
<polygon fill="none" stroke="black" points="10.5,-277 10.5,-299 203.5,-299 203.5,-277 10.5,-277"/>
<text text-anchor="start" x="30.5" y="-285.2" font-family="Helvetica,sans-Serif" font-size="11.00">description_en</text>
<polygon fill="none" stroke="black" points="203.5,-277 203.5,-299 309.5,-299 309.5,-277 203.5,-277"/>
<text text-anchor="start" x="206.5" y="-285.2" font-family="Helvetica,sans-Serif" font-size="11.00">text[2147483647]</text>
<polygon fill="none" stroke="black" points="10.5,-255 10.5,-277 203.5,-277 203.5,-255 10.5,-255"/>
<text text-anchor="start" x="30.5" y="-263.2" font-family="Helvetica,sans-Serif" font-size="11.00">description_de</text>
<polygon fill="none" stroke="black" points="203.5,-255 203.5,-277 309.5,-277 309.5,-255 203.5,-255"/>
<text text-anchor="start" x="206.5" y="-263.2" font-family="Helvetica,sans-Serif" font-size="11.00">text[2147483647]</text>
<polygon fill="none" stroke="black" points="10.5,-233 10.5,-255 203.5,-255 203.5,-233 10.5,-233"/>
<text text-anchor="start" x="30.5" y="-241.2" font-family="Helvetica,sans-Serif" font-size="11.00">description_fr</text>
<polygon fill="none" stroke="black" points="203.5,-233 203.5,-255 309.5,-255 309.5,-233 203.5,-233"/>
<text text-anchor="start" x="206.5" y="-241.2" font-family="Helvetica,sans-Serif" font-size="11.00">text[2147483647]</text>
<polygon fill="none" stroke="black" points="10.5,-211 10.5,-233 203.5,-233 203.5,-211 10.5,-211"/>
<text text-anchor="start" x="30.5" y="-219.2" font-family="Helvetica,sans-Serif" font-size="11.00">description_it</text>
<polygon fill="none" stroke="black" points="203.5,-211 203.5,-233 309.5,-233 309.5,-211 203.5,-211"/>
<text text-anchor="start" x="206.5" y="-219.2" font-family="Helvetica,sans-Serif" font-size="11.00">text[2147483647]</text>
<polygon fill="none" stroke="black" points="10.5,-189 10.5,-211 203.5,-211 203.5,-189 10.5,-189"/>
<text text-anchor="start" x="30.5" y="-197.2" font-family="Helvetica,sans-Serif" font-size="11.00">description_ro</text>
<polygon fill="none" stroke="black" points="203.5,-189 203.5,-211 309.5,-211 309.5,-189 203.5,-189"/>
<text text-anchor="start" x="206.5" y="-197.2" font-family="Helvetica,sans-Serif" font-size="11.00">text[2147483647]</text>
<polygon fill="none" stroke="black" points="10.5,-167 10.5,-189 203.5,-189 203.5,-167 10.5,-167"/>
<text text-anchor="start" x="30.5" y="-175.2" font-family="Helvetica,sans-Serif" font-size="11.00">display_en</text>
<polygon fill="none" stroke="black" points="203.5,-167 203.5,-189 309.5,-189 309.5,-167 203.5,-167"/>
<text text-anchor="start" x="206.5" y="-175.2" font-family="Helvetica,sans-Serif" font-size="11.00">varchar[100]</text>
<polygon fill="none" stroke="black" points="10.5,-145 10.5,-167 203.5,-167 203.5,-145 10.5,-145"/>
<text text-anchor="start" x="30.5" y="-153.2" font-family="Helvetica,sans-Serif" font-size="11.00">display_de</text>
<polygon fill="none" stroke="black" points="203.5,-145 203.5,-167 309.5,-167 309.5,-145 203.5,-145"/>
<text text-anchor="start" x="206.5" y="-153.2" font-family="Helvetica,sans-Serif" font-size="11.00">varchar[100]</text>
<polygon fill="none" stroke="black" points="10.5,-123 10.5,-145 203.5,-145 203.5,-123 10.5,-123"/>
<text text-anchor="start" x="30.5" y="-131.2" font-family="Helvetica,sans-Serif" font-size="11.00">display_fr</text>
<polygon fill="none" stroke="black" points="203.5,-123 203.5,-145 309.5,-145 309.5,-123 203.5,-123"/>
<text text-anchor="start" x="206.5" y="-131.2" font-family="Helvetica,sans-Serif" font-size="11.00">varchar[100]</text>
<polygon fill="none" stroke="black" points="10.5,-101 10.5,-123 203.5,-123 203.5,-101 10.5,-101"/>
<text text-anchor="start" x="30.5" y="-109.2" font-family="Helvetica,sans-Serif" font-size="11.00">display_it</text>
<polygon fill="none" stroke="black" points="203.5,-101 203.5,-123 309.5,-123 309.5,-101 203.5,-101"/>
<text text-anchor="start" x="206.5" y="-109.2" font-family="Helvetica,sans-Serif" font-size="11.00">varchar[100]</text>
<polygon fill="none" stroke="black" points="10.5,-79 10.5,-101 203.5,-101 203.5,-79 10.5,-79"/>
<text text-anchor="start" x="30.5" y="-87.2" font-family="Helvetica,sans-Serif" font-size="11.00">display_ro</text>
<polygon fill="none" stroke="black" points="203.5,-79 203.5,-101 309.5,-101 309.5,-79 203.5,-79"/>
<text text-anchor="start" x="206.5" y="-87.2" font-family="Helvetica,sans-Serif" font-size="11.00">varchar[100]</text>
<polygon fill="none" stroke="black" points="10.5,-57 10.5,-79 203.5,-79 203.5,-57 10.5,-57"/>
<text text-anchor="start" x="30.5" y="-65.2" font-family="Helvetica,sans-Serif" font-size="11.00">active</text>
<polygon fill="none" stroke="black" points="203.5,-57 203.5,-79 309.5,-79 309.5,-57 203.5,-57"/>
<text text-anchor="start" x="206.5" y="-65.2" font-family="Helvetica,sans-Serif" font-size="11.00">bool[1]</text>
<polygon fill="#ffffff" stroke="transparent" points="10.5,-39 10.5,-57 309.5,-57 309.5,-39 10.5,-39"/>
<polygon fill="none" stroke="black" points="10.5,-39 10.5,-57 309.5,-57 309.5,-39 10.5,-39"/>
<polygon fill="#ffffff" stroke="transparent" points="11.5,-40 11.5,-56 114.5,-56 114.5,-40 11.5,-40"/>
<text text-anchor="start" x="13.5" y="-45.2" font-family="Helvetica,sans-Serif" font-size="11.00">&lt; 0</text>
<polygon fill="#ffffff" stroke="transparent" points="114.5,-40 114.5,-56 205.5,-56 205.5,-40 114.5,-40"/>
<text text-anchor="start" x="156" y="-45.2" font-family="Helvetica,sans-Serif" font-size="11.00"> &#160;</text>
<polygon fill="#ffffff" stroke="transparent" points="205.5,-40 205.5,-56 308.5,-56 308.5,-40 205.5,-40"/>
<text text-anchor="start" x="286.5" y="-45.2" font-family="Helvetica,sans-Serif" font-size="11.00">1 &gt;</text>
<polygon fill="black" stroke="black" points="114.5,-40 114.5,-56 114.5,-56 114.5,-40 114.5,-40"/>
<polygon fill="black" stroke="black" points="205.5,-40 205.5,-56 205.5,-56 205.5,-40 205.5,-40"/>
<polygon fill="none" stroke="black" stroke-width="2" points="9,-38 9,-586 310,-586 310,-38 9,-38"/>
</a>
</g>
</g>
<!-- tdh_od.pipe_point_normal&#45;&gt;pipe_point_normal_kind -->
<g id="edge1" class="edge">
<title>tdh_od.pipe_point_normal:w&#45;&gt;pipe_point_normal_kind:e</title>
<path fill="none" stroke="black" d="M344.99,-552C333.68,-552 326.49,-552 310.5,-552"/>
<polygon fill="black" stroke="black" points="351.5,-552 359.5,-555.6 355.5,-552 359.5,-552 359.5,-552 359.5,-552 355.5,-552 359.5,-548.4 351.5,-552 351.5,-552"/>
<ellipse fill="none" stroke="black" cx="348.3" cy="-552" rx="3.2" ry="3.2"/>
</g>
</g>
</svg>
