<?xml version="1.0" encoding="UTF-8" standalone="no"?>
<!DOCTYPE svg PUBLIC "-//W3C//DTD SVG 1.1//EN"
 "http://www.w3.org/Graphics/SVG/1.1/DTD/svg11.dtd">
<!-- Generated by graphviz version 2.43.0 (0)
 -->
<!-- Title: oneDegreeRelationshipsDiagram Pages: 1 -->
<svg width="664pt" height="421pt"
 viewBox="0.00 0.00 664.00 421.00" xmlns="http://www.w3.org/2000/svg" xmlns:xlink="http://www.w3.org/1999/xlink">
<g id="graph0" class="graph" transform="scale(1 1) rotate(0) translate(4 417)">
<title>oneDegreeRelationshipsDiagram</title>
<polygon fill="#ffffff" stroke="transparent" points="-4,4 -4,-417 660,-417 660,4 -4,4"/>
<text text-anchor="middle" x="79.5" y="-7.2" font-family="Helvetica,sans-Serif" font-size="11.00">Generated by SchemaSpy</text>
<!-- tdh_od.sia405cc_cable -->
<g id="node1" class="node">
<title>tdh_od.sia405cc_cable</title>
<g id="a_node1"><a xlink:href="../../../tdh_od/tables/sia405cc_cable.html" xlink:title="tdh_od.sia405cc_cable" target="_top">
<polygon fill="#ffffff" stroke="transparent" points="438,-241 438,-409 648,-409 648,-241 438,-241"/>
<polygon fill="#f5f5f5" stroke="transparent" points="438,-387 438,-409 648,-409 648,-387 438,-387"/>
<polygon fill="none" stroke="black" points="438,-387 438,-409 648,-409 648,-387 438,-387"/>
<text text-anchor="start" x="443" y="-396.2" font-family="Helvetica,sans-Serif" font-weight="bold" font-size="11.00">tdh_od.sia405cc_cable</text>
<text text-anchor="start" x="606" y="-395.2" font-family="Helvetica,sans-Serif" font-size="11.00">[table]</text>
<polygon fill="none" stroke="black" points="438,-365 438,-387 648,-387 648,-365 438,-365"/>
<image xlink:href="../../images/foreignKeys.png" width="11px" height="12px" preserveAspectRatio="xMinYMin meet" x="443" y="-382"/>
<text text-anchor="start" x="463" y="-373.2" font-family="Helvetica,sans-Serif" font-size="11.00">function</text>
<polygon fill="none" stroke="black" points="438,-343 438,-365 648,-365 648,-343 438,-343"/>
<image xlink:href="../../images/foreignKeys.png" width="11px" height="12px" preserveAspectRatio="xMinYMin meet" x="443" y="-360"/>
<text text-anchor="start" x="463" y="-351.2" font-family="Helvetica,sans-Serif" font-size="11.00">cable_type</text>
<polygon fill="none" stroke="black" points="438,-321 438,-343 648,-343 648,-321 438,-321"/>
<image xlink:href="../../images/foreignKeys.png" width="11px" height="12px" preserveAspectRatio="xMinYMin meet" x="443" y="-338"/>
<text text-anchor="start" x="463" y="-329.2" font-family="Helvetica,sans-Serif" font-size="11.00">horizontal_positioning</text>
<polygon fill="none" stroke="black" points="438,-299 438,-321 648,-321 648,-299 438,-299"/>
<image xlink:href="../../images/foreignKeys.png" width="11px" height="12px" preserveAspectRatio="xMinYMin meet" x="443" y="-316"/>
<text text-anchor="start" x="463" y="-307.2" font-family="Helvetica,sans-Serif" font-size="11.00">status</text>
<polygon fill="none" stroke="black" points="438,-277 438,-299 648,-299 648,-277 438,-277"/>
<image xlink:href="../../images/foreignKeys.png" width="11px" height="12px" preserveAspectRatio="xMinYMin meet" x="443" y="-294"/>
<text text-anchor="start" x="463" y="-285.2" font-family="Helvetica,sans-Serif" font-size="11.00">elevation_determination</text>
<polygon fill="none" stroke="black" points="438,-259 438,-277 648,-277 648,-259 438,-259"/>
<text text-anchor="start" x="441" y="-265.2" font-family="Helvetica,sans-Serif" font-size="11.00">...</text>
<polygon fill="#ffffff" stroke="transparent" points="438,-241 438,-259 648,-259 648,-241 438,-241"/>
<polygon fill="none" stroke="black" points="438,-241 438,-259 648,-259 648,-241 438,-241"/>
<polygon fill="#ffffff" stroke="transparent" points="439,-242 439,-258 507,-258 507,-242 439,-242"/>
<text text-anchor="start" x="441" y="-247.2" font-family="Helvetica,sans-Serif" font-size="11.00">&lt; 5</text>
<polygon fill="#ffffff" stroke="transparent" points="507,-242 507,-258 592,-258 592,-242 507,-242"/>
<text text-anchor="start" x="531" y="-247.2" font-family="Helvetica,sans-Serif" font-size="11.00">0 rows</text>
<polygon fill="#ffffff" stroke="transparent" points="592,-242 592,-258 647,-258 647,-242 592,-242"/>
<text text-anchor="start" x="637" y="-247.2" font-family="Helvetica,sans-Serif" font-size="11.00"> &#160;</text>
<polygon fill="black" stroke="black" points="507,-242 507,-258 507,-258 507,-242 507,-242"/>
<polygon fill="black" stroke="black" points="592,-242 592,-258 592,-258 592,-242 592,-242"/>
</a>
</g>
</g>
<!-- sia405cc_cable_horizontal_positioning -->
<g id="node2" class="node">
<title>sia405cc_cable_horizontal_positioning</title>
<g id="a_node2"><a xlink:href="../../tables/sia405cc_cable_horizontal_positioning.html" xlink:title="sia405cc_cable_horizontal_positioning" target="_top">
<polygon fill="#ffffff" stroke="transparent" points="8,-37 8,-367 389,-367 389,-37 8,-37"/>
<polygon fill="#f5f5f5" stroke="transparent" points="10.5,-343 10.5,-365 387.5,-365 387.5,-343 10.5,-343"/>
<polygon fill="none" stroke="black" points="10.5,-343 10.5,-365 387.5,-365 387.5,-343 10.5,-343"/>
<text text-anchor="start" x="15.5" y="-352.2" font-family="Helvetica,sans-Serif" font-weight="bold" font-size="11.00">sia405cc_cable_horizontal_positioning</text>
<text text-anchor="start" x="345.5" y="-351.2" font-family="Helvetica,sans-Serif" font-size="11.00">[table]</text>
<polygon fill="none" stroke="black" points="10.5,-321 10.5,-343 309.5,-343 309.5,-321 10.5,-321"/>
<image xlink:href="../../images/primaryKeys.png" width="11px" height="12px" preserveAspectRatio="xMinYMin meet" x="15.5" y="-338"/>
<text text-anchor="start" x="30.5" y="-329.2" font-family="Helvetica,sans-Serif" font-size="11.00">code</text>
<polygon fill="none" stroke="black" points="309.5,-321 309.5,-343 387.5,-343 387.5,-321 309.5,-321"/>
<text text-anchor="start" x="312.5" y="-329.2" font-family="Helvetica,sans-Serif" font-size="11.00">int4[10]</text>
<polygon fill="none" stroke="black" points="10.5,-299 10.5,-321 309.5,-321 309.5,-299 10.5,-299"/>
<text text-anchor="start" x="30.5" y="-307.2" font-family="Helvetica,sans-Serif" font-size="11.00">vsacode</text>
<polygon fill="none" stroke="black" points="309.5,-299 309.5,-321 387.5,-321 387.5,-299 309.5,-299"/>
<text text-anchor="start" x="312.5" y="-307.2" font-family="Helvetica,sans-Serif" font-size="11.00">int4[10]</text>
<polygon fill="none" stroke="black" points="10.5,-277 10.5,-299 309.5,-299 309.5,-277 10.5,-277"/>
<text text-anchor="start" x="30.5" y="-285.2" font-family="Helvetica,sans-Serif" font-size="11.00">value_en</text>
<polygon fill="none" stroke="black" points="309.5,-277 309.5,-299 387.5,-299 387.5,-277 309.5,-277"/>
<text text-anchor="start" x="312.5" y="-285.2" font-family="Helvetica,sans-Serif" font-size="11.00">varchar[100]</text>
<polygon fill="none" stroke="black" points="10.5,-255 10.5,-277 309.5,-277 309.5,-255 10.5,-255"/>
<text text-anchor="start" x="30.5" y="-263.2" font-family="Helvetica,sans-Serif" font-size="11.00">value_de</text>
<polygon fill="none" stroke="black" points="309.5,-255 309.5,-277 387.5,-277 387.5,-255 309.5,-255"/>
<text text-anchor="start" x="312.5" y="-263.2" font-family="Helvetica,sans-Serif" font-size="11.00">varchar[100]</text>
<polygon fill="none" stroke="black" points="10.5,-233 10.5,-255 309.5,-255 309.5,-233 10.5,-233"/>
<text text-anchor="start" x="30.5" y="-241.2" font-family="Helvetica,sans-Serif" font-size="11.00">value_fr</text>
<polygon fill="none" stroke="black" points="309.5,-233 309.5,-255 387.5,-255 387.5,-233 309.5,-233"/>
<text text-anchor="start" x="312.5" y="-241.2" font-family="Helvetica,sans-Serif" font-size="11.00">varchar[100]</text>
<polygon fill="none" stroke="black" points="10.5,-211 10.5,-233 309.5,-233 309.5,-211 10.5,-211"/>
<text text-anchor="start" x="30.5" y="-219.2" font-family="Helvetica,sans-Serif" font-size="11.00">value_it</text>
<polygon fill="none" stroke="black" points="309.5,-211 309.5,-233 387.5,-233 387.5,-211 309.5,-211"/>
<text text-anchor="start" x="312.5" y="-219.2" font-family="Helvetica,sans-Serif" font-size="11.00">varchar[100]</text>
<polygon fill="none" stroke="black" points="10.5,-189 10.5,-211 309.5,-211 309.5,-189 10.5,-189"/>
<text text-anchor="start" x="30.5" y="-197.2" font-family="Helvetica,sans-Serif" font-size="11.00">value_ro</text>
<polygon fill="none" stroke="black" points="309.5,-189 309.5,-211 387.5,-211 387.5,-189 309.5,-189"/>
<text text-anchor="start" x="312.5" y="-197.2" font-family="Helvetica,sans-Serif" font-size="11.00">varchar[100]</text>
<polygon fill="none" stroke="black" points="10.5,-167 10.5,-189 309.5,-189 309.5,-167 10.5,-167"/>
<text text-anchor="start" x="30.5" y="-175.2" font-family="Helvetica,sans-Serif" font-size="11.00">abbr_en</text>
<polygon fill="none" stroke="black" points="309.5,-167 309.5,-189 387.5,-189 387.5,-167 309.5,-167"/>
<text text-anchor="start" x="312.5" y="-175.2" font-family="Helvetica,sans-Serif" font-size="11.00">varchar[3]</text>
<polygon fill="none" stroke="black" points="10.5,-145 10.5,-167 309.5,-167 309.5,-145 10.5,-145"/>
<text text-anchor="start" x="30.5" y="-153.2" font-family="Helvetica,sans-Serif" font-size="11.00">abbr_de</text>
<polygon fill="none" stroke="black" points="309.5,-145 309.5,-167 387.5,-167 387.5,-145 309.5,-145"/>
<text text-anchor="start" x="312.5" y="-153.2" font-family="Helvetica,sans-Serif" font-size="11.00">varchar[3]</text>
<polygon fill="none" stroke="black" points="10.5,-123 10.5,-145 309.5,-145 309.5,-123 10.5,-123"/>
<text text-anchor="start" x="30.5" y="-131.2" font-family="Helvetica,sans-Serif" font-size="11.00">abbr_fr</text>
<polygon fill="none" stroke="black" points="309.5,-123 309.5,-145 387.5,-145 387.5,-123 309.5,-123"/>
<text text-anchor="start" x="312.5" y="-131.2" font-family="Helvetica,sans-Serif" font-size="11.00">varchar[3]</text>
<polygon fill="none" stroke="black" points="10.5,-101 10.5,-123 309.5,-123 309.5,-101 10.5,-101"/>
<text text-anchor="start" x="30.5" y="-109.2" font-family="Helvetica,sans-Serif" font-size="11.00">abbr_it</text>
<polygon fill="none" stroke="black" points="309.5,-101 309.5,-123 387.5,-123 387.5,-101 309.5,-101"/>
<text text-anchor="start" x="312.5" y="-109.2" font-family="Helvetica,sans-Serif" font-size="11.00">varchar[3]</text>
<polygon fill="none" stroke="black" points="10.5,-79 10.5,-101 309.5,-101 309.5,-79 10.5,-79"/>
<text text-anchor="start" x="30.5" y="-87.2" font-family="Helvetica,sans-Serif" font-size="11.00">abbr_ro</text>
<polygon fill="none" stroke="black" points="309.5,-79 309.5,-101 387.5,-101 387.5,-79 309.5,-79"/>
<text text-anchor="start" x="312.5" y="-87.2" font-family="Helvetica,sans-Serif" font-size="11.00">varchar[3]</text>
<polygon fill="none" stroke="black" points="10.5,-57 10.5,-79 309.5,-79 309.5,-57 10.5,-57"/>
<text text-anchor="start" x="30.5" y="-65.2" font-family="Helvetica,sans-Serif" font-size="11.00">active</text>
<polygon fill="none" stroke="black" points="309.5,-57 309.5,-79 387.5,-79 387.5,-57 309.5,-57"/>
<text text-anchor="start" x="312.5" y="-65.2" font-family="Helvetica,sans-Serif" font-size="11.00">bool[1]</text>
<polygon fill="#ffffff" stroke="transparent" points="10.5,-39 10.5,-57 387.5,-57 387.5,-39 10.5,-39"/>
<polygon fill="none" stroke="black" points="10.5,-39 10.5,-57 387.5,-57 387.5,-39 10.5,-39"/>
<polygon fill="#ffffff" stroke="transparent" points="11.5,-40 11.5,-56 140.5,-56 140.5,-40 11.5,-40"/>
<text text-anchor="start" x="13.5" y="-45.2" font-family="Helvetica,sans-Serif" font-size="11.00">&lt; 0</text>
<polygon fill="#ffffff" stroke="transparent" points="140.5,-40 140.5,-56 257.5,-56 257.5,-40 140.5,-40"/>
<text text-anchor="start" x="195" y="-45.2" font-family="Helvetica,sans-Serif" font-size="11.00"> &#160;</text>
<polygon fill="#ffffff" stroke="transparent" points="257.5,-40 257.5,-56 386.5,-56 386.5,-40 257.5,-40"/>
<text text-anchor="start" x="364.5" y="-45.2" font-family="Helvetica,sans-Serif" font-size="11.00">1 &gt;</text>
<polygon fill="black" stroke="black" points="140.5,-40 140.5,-56 140.5,-56 140.5,-40 140.5,-40"/>
<polygon fill="black" stroke="black" points="257.5,-40 257.5,-56 257.5,-56 257.5,-40 257.5,-40"/>
<polygon fill="none" stroke="black" stroke-width="2" points="9,-38 9,-366 388,-366 388,-38 9,-38"/>
</a>
</g>
</g>
<!-- tdh_od.sia405cc_cable&#45;&gt;sia405cc_cable_horizontal_positioning -->
<g id="edge1" class="edge">
<title>tdh_od.sia405cc_cable:w&#45;&gt;sia405cc_cable_horizontal_positioning:e</title>
<path fill="none" stroke="black" d="M422.28,-332C411.29,-332 404.16,-332 388.5,-332"/>
<polygon fill="black" stroke="black" points="429,-332 437,-335.6 433,-332 437,-332 437,-332 437,-332 433,-332 437,-328.4 429,-332 429,-332"/>
<ellipse fill="none" stroke="black" cx="425.8" cy="-332" rx="3.2" ry="3.2"/>
</g>
</g>
</svg>
