<?xml version="1.0" encoding="UTF-8" standalone="no"?>
<!DOCTYPE svg PUBLIC "-//W3C//DTD SVG 1.1//EN"
 "http://www.w3.org/Graphics/SVG/1.1/DTD/svg11.dtd">
<!-- Generated by graphviz version 2.47.1 (20210515.0534)
 -->
<!-- Title: oneDegreeRelationshipsDiagram Pages: 1 -->
<svg width="640pt" height="399pt"
 viewBox="0.00 0.00 640.00 399.00" xmlns="http://www.w3.org/2000/svg" xmlns:xlink="http://www.w3.org/1999/xlink">
<g id="graph0" class="graph" transform="scale(1 1) rotate(0) translate(4 395)">
<title>oneDegreeRelationshipsDiagram</title>
<polygon fill="#ffffff" stroke="transparent" points="-4,4 -4,-395 636,-395 636,4 -4,4"/>
<text text-anchor="middle" x="73.5" y="-7.2" font-family="Helvetica,sans-Serif" font-size="11.00">Generated by SchemaSpy</text>
<!-- tdh_od.sia405cc_cable_point -->
<g id="node1" class="node">
<title>tdh_od.sia405cc_cable_point</title>
<g id="a_node1"><a xlink:href="../../../tdh_od/tables/sia405cc_cable_point.html" xlink:title="tdh_od.sia405cc_cable_point" target="_top">
<polygon fill="#ffffff" stroke="transparent" points="413,-241 413,-387 624,-387 624,-241 413,-241"/>
<polygon fill="#f5f5f5" stroke="transparent" points="413.5,-365 413.5,-387 624.5,-387 624.5,-365 413.5,-365"/>
<polygon fill="none" stroke="black" points="413.5,-365 413.5,-387 624.5,-387 624.5,-365 413.5,-365"/>
<text text-anchor="start" x="418.5" y="-374.2" font-family="Helvetica,sans-Serif" font-weight="bold" font-size="11.00">tdh_od.sia405cc_cable_point</text>
<text text-anchor="start" x="585.5" y="-373.2" font-family="Helvetica,sans-Serif" font-size="11.00">[table]</text>
<polygon fill="none" stroke="black" points="413.5,-343 413.5,-365 624.5,-365 624.5,-343 413.5,-343"/>
<image xlink:href="../../images/foreignKeys.png" width="11px" height="12px" preserveAspectRatio="xMinYMin meet" x="418.5" y="-360"/>
<text text-anchor="start" x="454.5" y="-351.2" font-family="Helvetica,sans-Serif" font-size="11.00">kind</text>
<polygon fill="none" stroke="black" points="413.5,-321 413.5,-343 624.5,-343 624.5,-321 413.5,-321"/>
<image xlink:href="../../images/foreignKeys.png" width="11px" height="12px" preserveAspectRatio="xMinYMin meet" x="418.5" y="-338"/>
<text text-anchor="start" x="454.5" y="-329.2" font-family="Helvetica,sans-Serif" font-size="11.00">horizontal_positioning</text>
<polygon fill="none" stroke="black" points="413.5,-299 413.5,-321 624.5,-321 624.5,-299 413.5,-299"/>
<image xlink:href="../../images/foreignKeys.png" width="11px" height="12px" preserveAspectRatio="xMinYMin meet" x="418.5" y="-316"/>
<text text-anchor="start" x="454.5" y="-307.2" font-family="Helvetica,sans-Serif" font-size="11.00">elevation_determination</text>
<polygon fill="none" stroke="black" points="413.5,-277 413.5,-299 624.5,-299 624.5,-277 413.5,-277"/>
<image xlink:href="../../images/foreignKeys.png" width="11px" height="12px" preserveAspectRatio="xMinYMin meet" x="418.5" y="-294"/>
<text text-anchor="start" x="454.5" y="-285.2" font-family="Helvetica,sans-Serif" font-size="11.00">status</text>
<polygon fill="none" stroke="black" points="413.5,-259 413.5,-277 624.5,-277 624.5,-259 413.5,-259"/>
<text text-anchor="start" x="416.5" y="-265.2" font-family="Helvetica,sans-Serif" font-size="11.00">...</text>
<polygon fill="#ffffff" stroke="transparent" points="413.5,-241 413.5,-259 503.5,-259 503.5,-241 413.5,-241"/>
<polygon fill="none" stroke="black" points="413.5,-241 413.5,-259 503.5,-259 503.5,-241 413.5,-241"/>
<text text-anchor="start" x="416.5" y="-247.2" font-family="Helvetica,sans-Serif" font-size="11.00">&lt; 4</text>
<polygon fill="#ffffff" stroke="transparent" points="503.5,-241 503.5,-259 577.5,-259 577.5,-241 503.5,-241"/>
<polygon fill="none" stroke="black" points="503.5,-241 503.5,-259 577.5,-259 577.5,-241 503.5,-241"/>
<text text-anchor="start" x="540.5" y="-247.2" font-family="Helvetica,sans-Serif" font-size="11.00">0 rows</text>
<polygon fill="#ffffff" stroke="transparent" points="577.5,-241 577.5,-259 624.5,-259 624.5,-241 577.5,-241"/>
<polygon fill="none" stroke="black" points="577.5,-241 577.5,-259 624.5,-259 624.5,-241 577.5,-241"/>
<text text-anchor="start" x="614.5" y="-247.2" font-family="Helvetica,sans-Serif" font-size="11.00"> &#160;</text>
</a>
</g>
</g>
<!-- sia405cc_cable_point_horizontal_positioning -->
<g id="node2" class="node">
<title>sia405cc_cable_point_horizontal_positioning</title>
<g id="a_node2"><a xlink:href="../../tables/sia405cc_cable_point_horizontal_dbbdef40.html" xlink:title="sia405cc_cable_point_horizontal_positioning" target="_top">
<polygon fill="#ffffff" stroke="transparent" points="8,-37 8,-367 364,-367 364,-37 8,-37"/>
<polygon fill="#f5f5f5" stroke="transparent" points="10,-343 10,-365 362,-365 362,-343 10,-343"/>
<polygon fill="none" stroke="black" points="10,-343 10,-365 362,-365 362,-343 10,-343"/>
<text text-anchor="start" x="15" y="-352.2" font-family="Helvetica,sans-Serif" font-weight="bold" font-size="11.00">sia405cc_cable_point_horizontal_positioning</text>
<text text-anchor="start" x="323" y="-351.2" font-family="Helvetica,sans-Serif" font-size="11.00">[table]</text>
<polygon fill="none" stroke="black" points="10,-321 10,-343 292,-343 292,-321 10,-321"/>
<image xlink:href="../../images/primaryKeys.png" width="11px" height="12px" preserveAspectRatio="xMinYMin meet" x="15" y="-338"/>
<text text-anchor="start" x="30" y="-329.2" font-family="Helvetica,sans-Serif" font-size="11.00">code</text>
<polygon fill="none" stroke="black" points="292,-321 292,-343 362,-343 362,-321 292,-321"/>
<text text-anchor="start" x="295" y="-329.2" font-family="Helvetica,sans-Serif" font-size="11.00">int4[10]</text>
<polygon fill="none" stroke="black" points="10,-299 10,-321 292,-321 292,-299 10,-299"/>
<text text-anchor="start" x="30" y="-307.2" font-family="Helvetica,sans-Serif" font-size="11.00">vsacode</text>
<polygon fill="none" stroke="black" points="292,-299 292,-321 362,-321 362,-299 292,-299"/>
<text text-anchor="start" x="295" y="-307.2" font-family="Helvetica,sans-Serif" font-size="11.00">int4[10]</text>
<polygon fill="none" stroke="black" points="10,-277 10,-299 292,-299 292,-277 10,-277"/>
<text text-anchor="start" x="30" y="-285.2" font-family="Helvetica,sans-Serif" font-size="11.00">value_en</text>
<polygon fill="none" stroke="black" points="292,-277 292,-299 362,-299 362,-277 292,-277"/>
<text text-anchor="start" x="295" y="-285.2" font-family="Helvetica,sans-Serif" font-size="11.00">varchar[100]</text>
<polygon fill="none" stroke="black" points="10,-255 10,-277 292,-277 292,-255 10,-255"/>
<text text-anchor="start" x="30" y="-263.2" font-family="Helvetica,sans-Serif" font-size="11.00">value_de</text>
<polygon fill="none" stroke="black" points="292,-255 292,-277 362,-277 362,-255 292,-255"/>
<text text-anchor="start" x="295" y="-263.2" font-family="Helvetica,sans-Serif" font-size="11.00">varchar[100]</text>
<polygon fill="none" stroke="black" points="10,-233 10,-255 292,-255 292,-233 10,-233"/>
<text text-anchor="start" x="30" y="-241.2" font-family="Helvetica,sans-Serif" font-size="11.00">value_fr</text>
<polygon fill="none" stroke="black" points="292,-233 292,-255 362,-255 362,-233 292,-233"/>
<text text-anchor="start" x="295" y="-241.2" font-family="Helvetica,sans-Serif" font-size="11.00">varchar[100]</text>
<polygon fill="none" stroke="black" points="10,-211 10,-233 292,-233 292,-211 10,-211"/>
<text text-anchor="start" x="30" y="-219.2" font-family="Helvetica,sans-Serif" font-size="11.00">value_it</text>
<polygon fill="none" stroke="black" points="292,-211 292,-233 362,-233 362,-211 292,-211"/>
<text text-anchor="start" x="295" y="-219.2" font-family="Helvetica,sans-Serif" font-size="11.00">varchar[100]</text>
<polygon fill="none" stroke="black" points="10,-189 10,-211 292,-211 292,-189 10,-189"/>
<text text-anchor="start" x="30" y="-197.2" font-family="Helvetica,sans-Serif" font-size="11.00">value_ro</text>
<polygon fill="none" stroke="black" points="292,-189 292,-211 362,-211 362,-189 292,-189"/>
<text text-anchor="start" x="295" y="-197.2" font-family="Helvetica,sans-Serif" font-size="11.00">varchar[100]</text>
<polygon fill="none" stroke="black" points="10,-167 10,-189 292,-189 292,-167 10,-167"/>
<text text-anchor="start" x="30" y="-175.2" font-family="Helvetica,sans-Serif" font-size="11.00">abbr_en</text>
<polygon fill="none" stroke="black" points="292,-167 292,-189 362,-189 362,-167 292,-167"/>
<text text-anchor="start" x="295" y="-175.2" font-family="Helvetica,sans-Serif" font-size="11.00">varchar[3]</text>
<polygon fill="none" stroke="black" points="10,-145 10,-167 292,-167 292,-145 10,-145"/>
<text text-anchor="start" x="30" y="-153.2" font-family="Helvetica,sans-Serif" font-size="11.00">abbr_de</text>
<polygon fill="none" stroke="black" points="292,-145 292,-167 362,-167 362,-145 292,-145"/>
<text text-anchor="start" x="295" y="-153.2" font-family="Helvetica,sans-Serif" font-size="11.00">varchar[3]</text>
<polygon fill="none" stroke="black" points="10,-123 10,-145 292,-145 292,-123 10,-123"/>
<text text-anchor="start" x="30" y="-131.2" font-family="Helvetica,sans-Serif" font-size="11.00">abbr_fr</text>
<polygon fill="none" stroke="black" points="292,-123 292,-145 362,-145 362,-123 292,-123"/>
<text text-anchor="start" x="295" y="-131.2" font-family="Helvetica,sans-Serif" font-size="11.00">varchar[3]</text>
<polygon fill="none" stroke="black" points="10,-101 10,-123 292,-123 292,-101 10,-101"/>
<text text-anchor="start" x="30" y="-109.2" font-family="Helvetica,sans-Serif" font-size="11.00">abbr_it</text>
<polygon fill="none" stroke="black" points="292,-101 292,-123 362,-123 362,-101 292,-101"/>
<text text-anchor="start" x="295" y="-109.2" font-family="Helvetica,sans-Serif" font-size="11.00">varchar[3]</text>
<polygon fill="none" stroke="black" points="10,-79 10,-101 292,-101 292,-79 10,-79"/>
<text text-anchor="start" x="30" y="-87.2" font-family="Helvetica,sans-Serif" font-size="11.00">abbr_ro</text>
<polygon fill="none" stroke="black" points="292,-79 292,-101 362,-101 362,-79 292,-79"/>
<text text-anchor="start" x="295" y="-87.2" font-family="Helvetica,sans-Serif" font-size="11.00">varchar[3]</text>
<polygon fill="none" stroke="black" points="10,-57 10,-79 292,-79 292,-57 10,-57"/>
<text text-anchor="start" x="30" y="-65.2" font-family="Helvetica,sans-Serif" font-size="11.00">active</text>
<polygon fill="none" stroke="black" points="292,-57 292,-79 362,-79 362,-57 292,-57"/>
<text text-anchor="start" x="295" y="-65.2" font-family="Helvetica,sans-Serif" font-size="11.00">bool[1]</text>
<polygon fill="#ffffff" stroke="transparent" points="10,-39 10,-57 155,-57 155,-39 10,-39"/>
<polygon fill="none" stroke="black" points="10,-39 10,-57 155,-57 155,-39 10,-39"/>
<text text-anchor="start" x="13" y="-45.2" font-family="Helvetica,sans-Serif" font-size="11.00">&lt; 0</text>
<polygon fill="#ffffff" stroke="transparent" points="155,-39 155,-57 292,-57 292,-39 155,-39"/>
<polygon fill="none" stroke="black" points="155,-39 155,-57 292,-57 292,-39 155,-39"/>
<text text-anchor="start" x="282" y="-45.2" font-family="Helvetica,sans-Serif" font-size="11.00"> &#160;</text>
<polygon fill="#ffffff" stroke="transparent" points="292,-39 292,-57 362,-57 362,-39 292,-39"/>
<polygon fill="none" stroke="black" points="292,-39 292,-57 362,-57 362,-39 292,-39"/>
<text text-anchor="start" x="343" y="-45.2" font-family="Helvetica,sans-Serif" font-size="11.00">1 &gt;</text>
<polygon fill="none" stroke="black" stroke-width="2" points="9,-38 9,-366 363,-366 363,-38 9,-38"/>
</a>
</g>
</g>
<!-- tdh_od.sia405cc_cable_point&#45;&gt;sia405cc_cable_point_horizontal_positioning -->
<g id="edge1" class="edge">
<title>tdh_od.sia405cc_cable_point:w&#45;&gt;sia405cc_cable_point_horizontal_positioning:e</title>
<path fill="none" stroke="black" d="M397.84,-332C386.41,-332 379.16,-332 363,-332"/>
<polygon fill="black" stroke="black" points="404.5,-332 412.5,-335.6 408.5,-332 412.5,-332 412.5,-332 412.5,-332 408.5,-332 412.5,-328.4 404.5,-332 404.5,-332"/>
<ellipse fill="none" stroke="black" cx="401.3" cy="-332" rx="3.2" ry="3.2"/>
</g>
</g>
</svg>
