<?xml version="1.0" encoding="UTF-8" standalone="no"?>
<!DOCTYPE svg PUBLIC "-//W3C//DTD SVG 1.1//EN"
 "http://www.w3.org/Graphics/SVG/1.1/DTD/svg11.dtd">
<!-- Generated by graphviz version 2.43.0 (0)
 -->
<!-- Title: oneDegreeRelationshipsDiagram Pages: 1 -->
<svg width="547pt" height="443pt"
 viewBox="0.00 0.00 547.00 443.00" xmlns="http://www.w3.org/2000/svg" xmlns:xlink="http://www.w3.org/1999/xlink">
<g id="graph0" class="graph" transform="scale(1 1) rotate(0) translate(4 439)">
<title>oneDegreeRelationshipsDiagram</title>
<polygon fill="#ffffff" stroke="transparent" points="-4,4 -4,-439 543,-439 543,4 -4,4"/>
<text text-anchor="middle" x="79.5" y="-7.2" font-family="Helvetica,sans-Serif" font-size="11.00">Generated by SchemaSpy</text>
<!-- tdh_od.sia405cc_cable -->
<g id="node1" class="node">
<title>tdh_od.sia405cc_cable</title>
<g id="a_node1"><a xlink:href="../../../tdh_od/tables/sia405cc_cable.html" xlink:title="tdh_od.sia405cc_cable" target="_top">
<polygon fill="#ffffff" stroke="transparent" points="321,-263 321,-431 531,-431 531,-263 321,-263"/>
<polygon fill="#f5f5f5" stroke="transparent" points="321,-409 321,-431 531,-431 531,-409 321,-409"/>
<polygon fill="none" stroke="black" points="321,-409 321,-431 531,-431 531,-409 321,-409"/>
<text text-anchor="start" x="326" y="-418.2" font-family="Helvetica,sans-Serif" font-weight="bold" font-size="11.00">tdh_od.sia405cc_cable</text>
<text text-anchor="start" x="489" y="-417.2" font-family="Helvetica,sans-Serif" font-size="11.00">[table]</text>
<polygon fill="none" stroke="black" points="321,-387 321,-409 531,-409 531,-387 321,-387"/>
<image xlink:href="../../images/foreignKeys.png" width="11px" height="12px" preserveAspectRatio="xMinYMin meet" x="326" y="-404"/>
<text text-anchor="start" x="346" y="-395.2" font-family="Helvetica,sans-Serif" font-size="11.00">function</text>
<polygon fill="none" stroke="black" points="321,-365 321,-387 531,-387 531,-365 321,-365"/>
<image xlink:href="../../images/foreignKeys.png" width="11px" height="12px" preserveAspectRatio="xMinYMin meet" x="326" y="-382"/>
<text text-anchor="start" x="346" y="-373.2" font-family="Helvetica,sans-Serif" font-size="11.00">cable_type</text>
<polygon fill="none" stroke="black" points="321,-343 321,-365 531,-365 531,-343 321,-343"/>
<image xlink:href="../../images/foreignKeys.png" width="11px" height="12px" preserveAspectRatio="xMinYMin meet" x="326" y="-360"/>
<text text-anchor="start" x="346" y="-351.2" font-family="Helvetica,sans-Serif" font-size="11.00">horizontal_positioning</text>
<polygon fill="none" stroke="black" points="321,-321 321,-343 531,-343 531,-321 321,-321"/>
<image xlink:href="../../images/foreignKeys.png" width="11px" height="12px" preserveAspectRatio="xMinYMin meet" x="326" y="-338"/>
<text text-anchor="start" x="346" y="-329.2" font-family="Helvetica,sans-Serif" font-size="11.00">status</text>
<polygon fill="none" stroke="black" points="321,-299 321,-321 531,-321 531,-299 321,-299"/>
<image xlink:href="../../images/foreignKeys.png" width="11px" height="12px" preserveAspectRatio="xMinYMin meet" x="326" y="-316"/>
<text text-anchor="start" x="346" y="-307.2" font-family="Helvetica,sans-Serif" font-size="11.00">elevation_determination</text>
<polygon fill="none" stroke="black" points="321,-281 321,-299 531,-299 531,-281 321,-281"/>
<text text-anchor="start" x="324" y="-287.2" font-family="Helvetica,sans-Serif" font-size="11.00">...</text>
<polygon fill="#ffffff" stroke="transparent" points="321,-263 321,-281 531,-281 531,-263 321,-263"/>
<polygon fill="none" stroke="black" points="321,-263 321,-281 531,-281 531,-263 321,-263"/>
<polygon fill="#ffffff" stroke="transparent" points="322,-264 322,-280 390,-280 390,-264 322,-264"/>
<text text-anchor="start" x="324" y="-269.2" font-family="Helvetica,sans-Serif" font-size="11.00">&lt; 5</text>
<polygon fill="#ffffff" stroke="transparent" points="390,-264 390,-280 475,-280 475,-264 390,-264"/>
<text text-anchor="start" x="414" y="-269.2" font-family="Helvetica,sans-Serif" font-size="11.00">0 rows</text>
<polygon fill="#ffffff" stroke="transparent" points="475,-264 475,-280 530,-280 530,-264 475,-264"/>
<text text-anchor="start" x="520" y="-269.2" font-family="Helvetica,sans-Serif" font-size="11.00"> &#160;</text>
<polygon fill="black" stroke="black" points="390,-264 390,-280 390,-280 390,-264 390,-264"/>
<polygon fill="black" stroke="black" points="475,-264 475,-280 475,-280 475,-264 475,-264"/>
</a>
</g>
</g>
<!-- sia405cc_cable_status -->
<g id="node2" class="node">
<title>sia405cc_cable_status</title>
<g id="a_node2"><a xlink:href="../../tables/sia405cc_cable_status.html" xlink:title="sia405cc_cable_status" target="_top">
<polygon fill="#ffffff" stroke="transparent" points="8,-37 8,-367 272,-367 272,-37 8,-37"/>
<polygon fill="#f5f5f5" stroke="transparent" points="10,-343 10,-365 270,-365 270,-343 10,-343"/>
<polygon fill="none" stroke="black" points="10,-343 10,-365 270,-365 270,-343 10,-343"/>
<text text-anchor="start" x="15" y="-352.2" font-family="Helvetica,sans-Serif" font-weight="bold" font-size="11.00">sia405cc_cable_status</text>
<text text-anchor="start" x="228" y="-351.2" font-family="Helvetica,sans-Serif" font-size="11.00">[table]</text>
<polygon fill="none" stroke="black" points="10,-321 10,-343 192,-343 192,-321 10,-321"/>
<image xlink:href="../../images/primaryKeys.png" width="11px" height="12px" preserveAspectRatio="xMinYMin meet" x="15" y="-338"/>
<text text-anchor="start" x="30" y="-329.2" font-family="Helvetica,sans-Serif" font-size="11.00">code</text>
<polygon fill="none" stroke="black" points="192,-321 192,-343 270,-343 270,-321 192,-321"/>
<text text-anchor="start" x="195" y="-329.2" font-family="Helvetica,sans-Serif" font-size="11.00">int4[10]</text>
<polygon fill="none" stroke="black" points="10,-299 10,-321 192,-321 192,-299 10,-299"/>
<text text-anchor="start" x="30" y="-307.2" font-family="Helvetica,sans-Serif" font-size="11.00">vsacode</text>
<polygon fill="none" stroke="black" points="192,-299 192,-321 270,-321 270,-299 192,-299"/>
<text text-anchor="start" x="195" y="-307.2" font-family="Helvetica,sans-Serif" font-size="11.00">int4[10]</text>
<polygon fill="none" stroke="black" points="10,-277 10,-299 192,-299 192,-277 10,-277"/>
<text text-anchor="start" x="30" y="-285.2" font-family="Helvetica,sans-Serif" font-size="11.00">value_en</text>
<polygon fill="none" stroke="black" points="192,-277 192,-299 270,-299 270,-277 192,-277"/>
<text text-anchor="start" x="195" y="-285.2" font-family="Helvetica,sans-Serif" font-size="11.00">varchar[100]</text>
<polygon fill="none" stroke="black" points="10,-255 10,-277 192,-277 192,-255 10,-255"/>
<text text-anchor="start" x="30" y="-263.2" font-family="Helvetica,sans-Serif" font-size="11.00">value_de</text>
<polygon fill="none" stroke="black" points="192,-255 192,-277 270,-277 270,-255 192,-255"/>
<text text-anchor="start" x="195" y="-263.2" font-family="Helvetica,sans-Serif" font-size="11.00">varchar[100]</text>
<polygon fill="none" stroke="black" points="10,-233 10,-255 192,-255 192,-233 10,-233"/>
<text text-anchor="start" x="30" y="-241.2" font-family="Helvetica,sans-Serif" font-size="11.00">value_fr</text>
<polygon fill="none" stroke="black" points="192,-233 192,-255 270,-255 270,-233 192,-233"/>
<text text-anchor="start" x="195" y="-241.2" font-family="Helvetica,sans-Serif" font-size="11.00">varchar[100]</text>
<polygon fill="none" stroke="black" points="10,-211 10,-233 192,-233 192,-211 10,-211"/>
<text text-anchor="start" x="30" y="-219.2" font-family="Helvetica,sans-Serif" font-size="11.00">value_it</text>
<polygon fill="none" stroke="black" points="192,-211 192,-233 270,-233 270,-211 192,-211"/>
<text text-anchor="start" x="195" y="-219.2" font-family="Helvetica,sans-Serif" font-size="11.00">varchar[100]</text>
<polygon fill="none" stroke="black" points="10,-189 10,-211 192,-211 192,-189 10,-189"/>
<text text-anchor="start" x="30" y="-197.2" font-family="Helvetica,sans-Serif" font-size="11.00">value_ro</text>
<polygon fill="none" stroke="black" points="192,-189 192,-211 270,-211 270,-189 192,-189"/>
<text text-anchor="start" x="195" y="-197.2" font-family="Helvetica,sans-Serif" font-size="11.00">varchar[100]</text>
<polygon fill="none" stroke="black" points="10,-167 10,-189 192,-189 192,-167 10,-167"/>
<text text-anchor="start" x="30" y="-175.2" font-family="Helvetica,sans-Serif" font-size="11.00">abbr_en</text>
<polygon fill="none" stroke="black" points="192,-167 192,-189 270,-189 270,-167 192,-167"/>
<text text-anchor="start" x="195" y="-175.2" font-family="Helvetica,sans-Serif" font-size="11.00">varchar[3]</text>
<polygon fill="none" stroke="black" points="10,-145 10,-167 192,-167 192,-145 10,-145"/>
<text text-anchor="start" x="30" y="-153.2" font-family="Helvetica,sans-Serif" font-size="11.00">abbr_de</text>
<polygon fill="none" stroke="black" points="192,-145 192,-167 270,-167 270,-145 192,-145"/>
<text text-anchor="start" x="195" y="-153.2" font-family="Helvetica,sans-Serif" font-size="11.00">varchar[3]</text>
<polygon fill="none" stroke="black" points="10,-123 10,-145 192,-145 192,-123 10,-123"/>
<text text-anchor="start" x="30" y="-131.2" font-family="Helvetica,sans-Serif" font-size="11.00">abbr_fr</text>
<polygon fill="none" stroke="black" points="192,-123 192,-145 270,-145 270,-123 192,-123"/>
<text text-anchor="start" x="195" y="-131.2" font-family="Helvetica,sans-Serif" font-size="11.00">varchar[3]</text>
<polygon fill="none" stroke="black" points="10,-101 10,-123 192,-123 192,-101 10,-101"/>
<text text-anchor="start" x="30" y="-109.2" font-family="Helvetica,sans-Serif" font-size="11.00">abbr_it</text>
<polygon fill="none" stroke="black" points="192,-101 192,-123 270,-123 270,-101 192,-101"/>
<text text-anchor="start" x="195" y="-109.2" font-family="Helvetica,sans-Serif" font-size="11.00">varchar[3]</text>
<polygon fill="none" stroke="black" points="10,-79 10,-101 192,-101 192,-79 10,-79"/>
<text text-anchor="start" x="30" y="-87.2" font-family="Helvetica,sans-Serif" font-size="11.00">abbr_ro</text>
<polygon fill="none" stroke="black" points="192,-79 192,-101 270,-101 270,-79 192,-79"/>
<text text-anchor="start" x="195" y="-87.2" font-family="Helvetica,sans-Serif" font-size="11.00">varchar[3]</text>
<polygon fill="none" stroke="black" points="10,-57 10,-79 192,-79 192,-57 10,-57"/>
<text text-anchor="start" x="30" y="-65.2" font-family="Helvetica,sans-Serif" font-size="11.00">active</text>
<polygon fill="none" stroke="black" points="192,-57 192,-79 270,-79 270,-57 192,-57"/>
<text text-anchor="start" x="195" y="-65.2" font-family="Helvetica,sans-Serif" font-size="11.00">bool[1]</text>
<polygon fill="#ffffff" stroke="transparent" points="10,-39 10,-57 270,-57 270,-39 10,-39"/>
<polygon fill="none" stroke="black" points="10,-39 10,-57 270,-57 270,-39 10,-39"/>
<polygon fill="#ffffff" stroke="transparent" points="11,-40 11,-56 101,-56 101,-40 11,-40"/>
<text text-anchor="start" x="13" y="-45.2" font-family="Helvetica,sans-Serif" font-size="11.00">&lt; 0</text>
<polygon fill="#ffffff" stroke="transparent" points="101,-40 101,-56 179,-56 179,-40 101,-40"/>
<text text-anchor="start" x="136" y="-45.2" font-family="Helvetica,sans-Serif" font-size="11.00"> &#160;</text>
<polygon fill="#ffffff" stroke="transparent" points="179,-40 179,-56 269,-56 269,-40 179,-40"/>
<text text-anchor="start" x="247" y="-45.2" font-family="Helvetica,sans-Serif" font-size="11.00">1 &gt;</text>
<polygon fill="black" stroke="black" points="101,-40 101,-56 101,-56 101,-40 101,-40"/>
<polygon fill="black" stroke="black" points="179,-40 179,-56 179,-56 179,-40 179,-40"/>
<polygon fill="none" stroke="black" stroke-width="2" points="9,-38 9,-366 271,-366 271,-38 9,-38"/>
</a>
</g>
</g>
<!-- tdh_od.sia405cc_cable&#45;&gt;sia405cc_cable_status -->
<g id="edge1" class="edge">
<title>tdh_od.sia405cc_cable:w&#45;&gt;sia405cc_cable_status:e</title>
<path fill="none" stroke="black" d="M305.49,-332C294.18,-332 286.99,-332 271,-332"/>
<polygon fill="black" stroke="black" points="312,-332 320,-335.6 316,-332 320,-332 320,-332 320,-332 316,-332 320,-328.4 312,-332 312,-332"/>
<ellipse fill="none" stroke="black" cx="308.8" cy="-332" rx="3.2" ry="3.2"/>
</g>
</g>
</svg>
