<?xml version="1.0" encoding="UTF-8" standalone="no"?>
<!DOCTYPE svg PUBLIC "-//W3C//DTD SVG 1.1//EN"
 "http://www.w3.org/Graphics/SVG/1.1/DTD/svg11.dtd">
<!-- Generated by graphviz version 2.47.1 (20210515.0534)
 -->
<!-- Title: oneDegreeRelationshipsDiagram Pages: 1 -->
<svg width="537pt" height="379pt"
 viewBox="0.00 0.00 537.00 379.00" xmlns="http://www.w3.org/2000/svg" xmlns:xlink="http://www.w3.org/1999/xlink">
<g id="graph0" class="graph" transform="scale(1 1) rotate(0) translate(4 375)">
<title>oneDegreeRelationshipsDiagram</title>
<polygon fill="#ffffff" stroke="transparent" points="-4,4 -4,-375 533,-375 533,4 -4,4"/>
<text text-anchor="middle" x="73.5" y="-7.2" font-family="Helvetica,sans-Serif" font-size="11.00">Generated by SchemaSpy</text>
<!-- tdh_od.structure -->
<g id="node1" class="node">
<title>tdh_od.structure</title>
<g id="a_node1"><a xlink:href="../../../tdh_od/tables/structure.html" xlink:title="tdh_od.structure" target="_top">
<polygon fill="#ffffff" stroke="transparent" points="347,-87 347,-365 521,-365 521,-87 347,-87"/>
<polygon fill="#f5f5f5" stroke="transparent" points="347,-343 347,-365 521,-365 521,-343 347,-343"/>
<polygon fill="none" stroke="black" points="347,-343 347,-365 521,-365 521,-343 347,-343"/>
<text text-anchor="start" x="352" y="-352.2" font-family="Helvetica,sans-Serif" font-weight="bold" font-size="11.00">tdh_od.structure</text>
<text text-anchor="start" x="482" y="-351.2" font-family="Helvetica,sans-Serif" font-size="11.00">[table]</text>
<polygon fill="none" stroke="black" points="347,-321 347,-343 521,-343 521,-321 347,-321"/>
<image xlink:href="../../images/foreignKeys.png" width="11px" height="12px" preserveAspectRatio="xMinYMin meet" x="352" y="-338"/>
<text text-anchor="start" x="367" y="-329.2" font-family="Helvetica,sans-Serif" font-size="11.00">horizontal_positioning</text>
<polygon fill="none" stroke="black" points="347,-299 347,-321 521,-321 521,-299 347,-299"/>
<image xlink:href="../../images/foreignKeys.png" width="11px" height="12px" preserveAspectRatio="xMinYMin meet" x="352" y="-316"/>
<text text-anchor="start" x="367" y="-307.2" font-family="Helvetica,sans-Serif" font-size="11.00">status</text>
<polygon fill="none" stroke="black" points="347,-277 347,-299 521,-299 521,-277 347,-277"/>
<image xlink:href="../../images/foreignKeys.png" width="11px" height="12px" preserveAspectRatio="xMinYMin meet" x="352" y="-294"/>
<text text-anchor="start" x="367" y="-285.2" font-family="Helvetica,sans-Serif" font-size="11.00">kind</text>
<polygon fill="none" stroke="black" points="347,-255 347,-277 521,-277 521,-255 347,-255"/>
<image xlink:href="../../images/foreignKeys.png" width="11px" height="12px" preserveAspectRatio="xMinYMin meet" x="352" y="-272"/>
<text text-anchor="start" x="367" y="-263.2" font-family="Helvetica,sans-Serif" font-size="11.00">venting</text>
<polygon fill="none" stroke="black" points="347,-233 347,-255 521,-255 521,-233 347,-233"/>
<image xlink:href="../../images/foreignKeys.png" width="11px" height="12px" preserveAspectRatio="xMinYMin meet" x="352" y="-250"/>
<text text-anchor="start" x="367" y="-241.2" font-family="Helvetica,sans-Serif" font-size="11.00">discharge_type</text>
<polygon fill="none" stroke="black" points="347,-211 347,-233 521,-233 521,-211 347,-211"/>
<image xlink:href="../../images/foreignKeys.png" width="11px" height="12px" preserveAspectRatio="xMinYMin meet" x="352" y="-228"/>
<text text-anchor="start" x="367" y="-219.2" font-family="Helvetica,sans-Serif" font-size="11.00">grid_type</text>
<polygon fill="none" stroke="black" points="347,-189 347,-211 521,-211 521,-189 347,-189"/>
<image xlink:href="../../images/foreignKeys.png" width="11px" height="12px" preserveAspectRatio="xMinYMin meet" x="352" y="-206"/>
<text text-anchor="start" x="367" y="-197.2" font-family="Helvetica,sans-Serif" font-size="11.00">drainage_pump</text>
<polygon fill="none" stroke="black" points="347,-167 347,-189 521,-189 521,-167 347,-167"/>
<image xlink:href="../../images/foreignKeys.png" width="11px" height="12px" preserveAspectRatio="xMinYMin meet" x="352" y="-184"/>
<text text-anchor="start" x="367" y="-175.2" font-family="Helvetica,sans-Serif" font-size="11.00">power_connection</text>
<polygon fill="none" stroke="black" points="347,-145 347,-167 521,-167 521,-145 347,-145"/>
<image xlink:href="../../images/foreignKeys.png" width="11px" height="12px" preserveAspectRatio="xMinYMin meet" x="352" y="-162"/>
<text text-anchor="start" x="367" y="-153.2" font-family="Helvetica,sans-Serif" font-size="11.00">measuring_system</text>
<polygon fill="none" stroke="black" points="347,-123 347,-145 521,-145 521,-123 347,-123"/>
<image xlink:href="../../images/foreignKeys.png" width="11px" height="12px" preserveAspectRatio="xMinYMin meet" x="352" y="-140"/>
<text text-anchor="start" x="367" y="-131.2" font-family="Helvetica,sans-Serif" font-size="11.00">condition</text>
<polygon fill="none" stroke="black" points="347,-105 347,-123 521,-123 521,-105 347,-105"/>
<text text-anchor="start" x="350" y="-111.2" font-family="Helvetica,sans-Serif" font-size="11.00">...</text>
<polygon fill="#ffffff" stroke="transparent" points="347,-87 347,-105 421,-105 421,-87 347,-87"/>
<polygon fill="none" stroke="black" points="347,-87 347,-105 421,-105 421,-87 347,-87"/>
<text text-anchor="start" x="350" y="-93.2" font-family="Helvetica,sans-Serif" font-size="11.00">&lt; 10</text>
<polygon fill="#ffffff" stroke="transparent" points="421,-87 421,-105 484,-105 484,-87 421,-87"/>
<polygon fill="none" stroke="black" points="421,-87 421,-105 484,-105 484,-87 421,-87"/>
<text text-anchor="start" x="447" y="-93.2" font-family="Helvetica,sans-Serif" font-size="11.00">0 rows</text>
<polygon fill="#ffffff" stroke="transparent" points="484,-87 484,-105 521,-105 521,-87 484,-87"/>
<polygon fill="none" stroke="black" points="484,-87 484,-105 521,-105 521,-87 484,-87"/>
<text text-anchor="start" x="511" y="-93.2" font-family="Helvetica,sans-Serif" font-size="11.00"> &#160;</text>
</a>
</g>
</g>
<!-- structure_horizontal_positioning -->
<g id="node2" class="node">
<title>structure_horizontal_positioning</title>
<g id="a_node2"><a xlink:href="../../tables/structure_horizontal_positioning.html" xlink:title="structure_horizontal_positioning" target="_top">
<polygon fill="#ffffff" stroke="transparent" points="8,-37 8,-367 298,-367 298,-37 8,-37"/>
<polygon fill="#f5f5f5" stroke="transparent" points="10,-343 10,-365 296,-365 296,-343 10,-343"/>
<polygon fill="none" stroke="black" points="10,-343 10,-365 296,-365 296,-343 10,-343"/>
<text text-anchor="start" x="15" y="-352.2" font-family="Helvetica,sans-Serif" font-weight="bold" font-size="11.00">structure_horizontal_positioning</text>
<text text-anchor="start" x="257" y="-351.2" font-family="Helvetica,sans-Serif" font-size="11.00">[table]</text>
<polygon fill="none" stroke="black" points="10,-321 10,-343 226,-343 226,-321 10,-321"/>
<image xlink:href="../../images/primaryKeys.png" width="11px" height="12px" preserveAspectRatio="xMinYMin meet" x="15" y="-338"/>
<text text-anchor="start" x="30" y="-329.2" font-family="Helvetica,sans-Serif" font-size="11.00">code</text>
<polygon fill="none" stroke="black" points="226,-321 226,-343 296,-343 296,-321 226,-321"/>
<text text-anchor="start" x="229" y="-329.2" font-family="Helvetica,sans-Serif" font-size="11.00">int4[10]</text>
<polygon fill="none" stroke="black" points="10,-299 10,-321 226,-321 226,-299 10,-299"/>
<text text-anchor="start" x="30" y="-307.2" font-family="Helvetica,sans-Serif" font-size="11.00">vsacode</text>
<polygon fill="none" stroke="black" points="226,-299 226,-321 296,-321 296,-299 226,-299"/>
<text text-anchor="start" x="229" y="-307.2" font-family="Helvetica,sans-Serif" font-size="11.00">int4[10]</text>
<polygon fill="none" stroke="black" points="10,-277 10,-299 226,-299 226,-277 10,-277"/>
<text text-anchor="start" x="30" y="-285.2" font-family="Helvetica,sans-Serif" font-size="11.00">value_en</text>
<polygon fill="none" stroke="black" points="226,-277 226,-299 296,-299 296,-277 226,-277"/>
<text text-anchor="start" x="229" y="-285.2" font-family="Helvetica,sans-Serif" font-size="11.00">varchar[100]</text>
<polygon fill="none" stroke="black" points="10,-255 10,-277 226,-277 226,-255 10,-255"/>
<text text-anchor="start" x="30" y="-263.2" font-family="Helvetica,sans-Serif" font-size="11.00">value_de</text>
<polygon fill="none" stroke="black" points="226,-255 226,-277 296,-277 296,-255 226,-255"/>
<text text-anchor="start" x="229" y="-263.2" font-family="Helvetica,sans-Serif" font-size="11.00">varchar[100]</text>
<polygon fill="none" stroke="black" points="10,-233 10,-255 226,-255 226,-233 10,-233"/>
<text text-anchor="start" x="30" y="-241.2" font-family="Helvetica,sans-Serif" font-size="11.00">value_fr</text>
<polygon fill="none" stroke="black" points="226,-233 226,-255 296,-255 296,-233 226,-233"/>
<text text-anchor="start" x="229" y="-241.2" font-family="Helvetica,sans-Serif" font-size="11.00">varchar[100]</text>
<polygon fill="none" stroke="black" points="10,-211 10,-233 226,-233 226,-211 10,-211"/>
<text text-anchor="start" x="30" y="-219.2" font-family="Helvetica,sans-Serif" font-size="11.00">value_it</text>
<polygon fill="none" stroke="black" points="226,-211 226,-233 296,-233 296,-211 226,-211"/>
<text text-anchor="start" x="229" y="-219.2" font-family="Helvetica,sans-Serif" font-size="11.00">varchar[100]</text>
<polygon fill="none" stroke="black" points="10,-189 10,-211 226,-211 226,-189 10,-189"/>
<text text-anchor="start" x="30" y="-197.2" font-family="Helvetica,sans-Serif" font-size="11.00">value_ro</text>
<polygon fill="none" stroke="black" points="226,-189 226,-211 296,-211 296,-189 226,-189"/>
<text text-anchor="start" x="229" y="-197.2" font-family="Helvetica,sans-Serif" font-size="11.00">varchar[100]</text>
<polygon fill="none" stroke="black" points="10,-167 10,-189 226,-189 226,-167 10,-167"/>
<text text-anchor="start" x="30" y="-175.2" font-family="Helvetica,sans-Serif" font-size="11.00">abbr_en</text>
<polygon fill="none" stroke="black" points="226,-167 226,-189 296,-189 296,-167 226,-167"/>
<text text-anchor="start" x="229" y="-175.2" font-family="Helvetica,sans-Serif" font-size="11.00">varchar[3]</text>
<polygon fill="none" stroke="black" points="10,-145 10,-167 226,-167 226,-145 10,-145"/>
<text text-anchor="start" x="30" y="-153.2" font-family="Helvetica,sans-Serif" font-size="11.00">abbr_de</text>
<polygon fill="none" stroke="black" points="226,-145 226,-167 296,-167 296,-145 226,-145"/>
<text text-anchor="start" x="229" y="-153.2" font-family="Helvetica,sans-Serif" font-size="11.00">varchar[3]</text>
<polygon fill="none" stroke="black" points="10,-123 10,-145 226,-145 226,-123 10,-123"/>
<text text-anchor="start" x="30" y="-131.2" font-family="Helvetica,sans-Serif" font-size="11.00">abbr_fr</text>
<polygon fill="none" stroke="black" points="226,-123 226,-145 296,-145 296,-123 226,-123"/>
<text text-anchor="start" x="229" y="-131.2" font-family="Helvetica,sans-Serif" font-size="11.00">varchar[3]</text>
<polygon fill="none" stroke="black" points="10,-101 10,-123 226,-123 226,-101 10,-101"/>
<text text-anchor="start" x="30" y="-109.2" font-family="Helvetica,sans-Serif" font-size="11.00">abbr_it</text>
<polygon fill="none" stroke="black" points="226,-101 226,-123 296,-123 296,-101 226,-101"/>
<text text-anchor="start" x="229" y="-109.2" font-family="Helvetica,sans-Serif" font-size="11.00">varchar[3]</text>
<polygon fill="none" stroke="black" points="10,-79 10,-101 226,-101 226,-79 10,-79"/>
<text text-anchor="start" x="30" y="-87.2" font-family="Helvetica,sans-Serif" font-size="11.00">abbr_ro</text>
<polygon fill="none" stroke="black" points="226,-79 226,-101 296,-101 296,-79 226,-79"/>
<text text-anchor="start" x="229" y="-87.2" font-family="Helvetica,sans-Serif" font-size="11.00">varchar[3]</text>
<polygon fill="none" stroke="black" points="10,-57 10,-79 226,-79 226,-57 10,-57"/>
<text text-anchor="start" x="30" y="-65.2" font-family="Helvetica,sans-Serif" font-size="11.00">active</text>
<polygon fill="none" stroke="black" points="226,-57 226,-79 296,-79 296,-57 226,-57"/>
<text text-anchor="start" x="229" y="-65.2" font-family="Helvetica,sans-Serif" font-size="11.00">bool[1]</text>
<polygon fill="#ffffff" stroke="transparent" points="10,-39 10,-57 122,-57 122,-39 10,-39"/>
<polygon fill="none" stroke="black" points="10,-39 10,-57 122,-57 122,-39 10,-39"/>
<text text-anchor="start" x="13" y="-45.2" font-family="Helvetica,sans-Serif" font-size="11.00">&lt; 0</text>
<polygon fill="#ffffff" stroke="transparent" points="122,-39 122,-57 226,-57 226,-39 122,-39"/>
<polygon fill="none" stroke="black" points="122,-39 122,-57 226,-57 226,-39 122,-39"/>
<text text-anchor="start" x="216" y="-45.2" font-family="Helvetica,sans-Serif" font-size="11.00"> &#160;</text>
<polygon fill="#ffffff" stroke="transparent" points="226,-39 226,-57 296,-57 296,-39 226,-39"/>
<polygon fill="none" stroke="black" points="226,-39 226,-57 296,-57 296,-39 226,-39"/>
<text text-anchor="start" x="277" y="-45.2" font-family="Helvetica,sans-Serif" font-size="11.00">1 &gt;</text>
<polygon fill="none" stroke="black" stroke-width="2" points="9,-38 9,-366 297,-366 297,-38 9,-38"/>
</a>
</g>
</g>
<!-- tdh_od.structure&#45;&gt;structure_horizontal_positioning -->
<g id="edge1" class="edge">
<title>tdh_od.structure:w&#45;&gt;structure_horizontal_positioning:e</title>
<path fill="none" stroke="black" d="M331.49,-332C320.18,-332 312.99,-332 297,-332"/>
<polygon fill="black" stroke="black" points="338,-332 346,-335.6 342,-332 346,-332 346,-332 346,-332 342,-332 346,-328.4 338,-332 338,-332"/>
<ellipse fill="none" stroke="black" cx="334.8" cy="-332" rx="3.2" ry="3.2"/>
</g>
</g>
</svg>
