<?xml version="1.0" encoding="UTF-8" standalone="no"?>
<!DOCTYPE svg PUBLIC "-//W3C//DTD SVG 1.1//EN"
 "http://www.w3.org/Graphics/SVG/1.1/DTD/svg11.dtd">
<!-- Generated by graphviz version 2.43.0 (0)
 -->
<!-- Title: oneDegreeRelationshipsDiagram Pages: 1 -->
<svg width="595pt" height="685pt"
 viewBox="0.00 0.00 595.00 685.00" xmlns="http://www.w3.org/2000/svg" xmlns:xlink="http://www.w3.org/1999/xlink">
<g id="graph0" class="graph" transform="scale(1 1) rotate(0) translate(4 681)">
<title>oneDegreeRelationshipsDiagram</title>
<polygon fill="#ffffff" stroke="transparent" points="-4,4 -4,-681 591,-681 591,4 -4,4"/>
<text text-anchor="middle" x="79.5" y="-7.2" font-family="Helvetica,sans-Serif" font-size="11.00">Generated by SchemaSpy</text>
<!-- tdh_od.structure -->
<g id="node1" class="node">
<title>tdh_od.structure</title>
<g id="a_node1"><a xlink:href="../../../tdh_od/tables/structure.html" xlink:title="tdh_od.structure" target="_top">
<polygon fill="#ffffff" stroke="transparent" points="373,-395 373,-673 579,-673 579,-395 373,-395"/>
<polygon fill="#f5f5f5" stroke="transparent" points="373,-651 373,-673 579,-673 579,-651 373,-651"/>
<polygon fill="none" stroke="black" points="373,-651 373,-673 579,-673 579,-651 373,-651"/>
<text text-anchor="start" x="378" y="-660.2" font-family="Helvetica,sans-Serif" font-weight="bold" font-size="11.00">tdh_od.structure</text>
<text text-anchor="start" x="537" y="-659.2" font-family="Helvetica,sans-Serif" font-size="11.00">[table]</text>
<polygon fill="none" stroke="black" points="373,-629 373,-651 579,-651 579,-629 373,-629"/>
<image xlink:href="../../images/foreignKeys.png" width="11px" height="12px" preserveAspectRatio="xMinYMin meet" x="378" y="-646"/>
<text text-anchor="start" x="393" y="-637.2" font-family="Helvetica,sans-Serif" font-size="11.00">horizontal_positioning</text>
<polygon fill="none" stroke="black" points="373,-607 373,-629 579,-629 579,-607 373,-607"/>
<image xlink:href="../../images/foreignKeys.png" width="11px" height="12px" preserveAspectRatio="xMinYMin meet" x="378" y="-624"/>
<text text-anchor="start" x="393" y="-615.2" font-family="Helvetica,sans-Serif" font-size="11.00">status</text>
<polygon fill="none" stroke="black" points="373,-585 373,-607 579,-607 579,-585 373,-585"/>
<image xlink:href="../../images/foreignKeys.png" width="11px" height="12px" preserveAspectRatio="xMinYMin meet" x="378" y="-602"/>
<text text-anchor="start" x="393" y="-593.2" font-family="Helvetica,sans-Serif" font-size="11.00">kind</text>
<polygon fill="none" stroke="black" points="373,-563 373,-585 579,-585 579,-563 373,-563"/>
<image xlink:href="../../images/foreignKeys.png" width="11px" height="12px" preserveAspectRatio="xMinYMin meet" x="378" y="-580"/>
<text text-anchor="start" x="393" y="-571.2" font-family="Helvetica,sans-Serif" font-size="11.00">venting</text>
<polygon fill="none" stroke="black" points="373,-541 373,-563 579,-563 579,-541 373,-541"/>
<image xlink:href="../../images/foreignKeys.png" width="11px" height="12px" preserveAspectRatio="xMinYMin meet" x="378" y="-558"/>
<text text-anchor="start" x="393" y="-549.2" font-family="Helvetica,sans-Serif" font-size="11.00">discharge_type</text>
<polygon fill="none" stroke="black" points="373,-519 373,-541 579,-541 579,-519 373,-519"/>
<image xlink:href="../../images/foreignKeys.png" width="11px" height="12px" preserveAspectRatio="xMinYMin meet" x="378" y="-536"/>
<text text-anchor="start" x="393" y="-527.2" font-family="Helvetica,sans-Serif" font-size="11.00">grid_type</text>
<polygon fill="none" stroke="black" points="373,-497 373,-519 579,-519 579,-497 373,-497"/>
<image xlink:href="../../images/foreignKeys.png" width="11px" height="12px" preserveAspectRatio="xMinYMin meet" x="378" y="-514"/>
<text text-anchor="start" x="393" y="-505.2" font-family="Helvetica,sans-Serif" font-size="11.00">drainage_pump</text>
<polygon fill="none" stroke="black" points="373,-475 373,-497 579,-497 579,-475 373,-475"/>
<image xlink:href="../../images/foreignKeys.png" width="11px" height="12px" preserveAspectRatio="xMinYMin meet" x="378" y="-492"/>
<text text-anchor="start" x="393" y="-483.2" font-family="Helvetica,sans-Serif" font-size="11.00">power_connection</text>
<polygon fill="none" stroke="black" points="373,-453 373,-475 579,-475 579,-453 373,-453"/>
<image xlink:href="../../images/foreignKeys.png" width="11px" height="12px" preserveAspectRatio="xMinYMin meet" x="378" y="-470"/>
<text text-anchor="start" x="393" y="-461.2" font-family="Helvetica,sans-Serif" font-size="11.00">measuring_system</text>
<polygon fill="none" stroke="black" points="373,-431 373,-453 579,-453 579,-431 373,-431"/>
<image xlink:href="../../images/foreignKeys.png" width="11px" height="12px" preserveAspectRatio="xMinYMin meet" x="378" y="-448"/>
<text text-anchor="start" x="393" y="-439.2" font-family="Helvetica,sans-Serif" font-size="11.00">condition</text>
<polygon fill="none" stroke="black" points="373,-413 373,-431 579,-431 579,-413 373,-413"/>
<text text-anchor="start" x="376" y="-419.2" font-family="Helvetica,sans-Serif" font-size="11.00">...</text>
<polygon fill="#ffffff" stroke="transparent" points="373,-395 373,-413 579,-413 579,-395 373,-395"/>
<polygon fill="none" stroke="black" points="373,-395 373,-413 579,-413 579,-395 373,-395"/>
<polygon fill="#ffffff" stroke="transparent" points="374,-396 374,-412 445,-412 445,-396 374,-396"/>
<text text-anchor="start" x="376" y="-401.2" font-family="Helvetica,sans-Serif" font-size="11.00">&lt; 10</text>
<polygon fill="#ffffff" stroke="transparent" points="445,-396 445,-412 526,-412 526,-396 445,-396"/>
<text text-anchor="start" x="467" y="-401.2" font-family="Helvetica,sans-Serif" font-size="11.00">0 rows</text>
<polygon fill="#ffffff" stroke="transparent" points="526,-396 526,-412 578,-412 578,-396 526,-396"/>
<text text-anchor="start" x="568" y="-401.2" font-family="Helvetica,sans-Serif" font-size="11.00"> &#160;</text>
<polygon fill="black" stroke="black" points="445,-396 445,-412 445,-412 445,-396 445,-396"/>
<polygon fill="black" stroke="black" points="526,-396 526,-412 526,-412 526,-396 526,-396"/>
</a>
</g>
</g>
<!-- structure_discharge_type -->
<g id="node2" class="node">
<title>structure_discharge_type</title>
<g id="a_node2"><a xlink:href="../../tables/structure_discharge_type.html" xlink:title="structure_discharge_type" target="_top">
<polygon fill="#ffffff" stroke="transparent" points="8,-37 8,-587 324,-587 324,-37 8,-37"/>
<polygon fill="#f5f5f5" stroke="transparent" points="10,-563 10,-585 322,-585 322,-563 10,-563"/>
<polygon fill="none" stroke="black" points="10,-563 10,-585 322,-585 322,-563 10,-563"/>
<text text-anchor="start" x="15" y="-572.2" font-family="Helvetica,sans-Serif" font-weight="bold" font-size="11.00">structure_discharge_type</text>
<text text-anchor="start" x="280" y="-571.2" font-family="Helvetica,sans-Serif" font-size="11.00">[table]</text>
<polygon fill="none" stroke="black" points="10,-541 10,-563 216,-563 216,-541 10,-541"/>
<image xlink:href="../../images/primaryKeys.png" width="11px" height="12px" preserveAspectRatio="xMinYMin meet" x="15" y="-558"/>
<text text-anchor="start" x="30" y="-549.2" font-family="Helvetica,sans-Serif" font-size="11.00">code</text>
<polygon fill="none" stroke="black" points="216,-541 216,-563 322,-563 322,-541 216,-541"/>
<text text-anchor="start" x="219" y="-549.2" font-family="Helvetica,sans-Serif" font-size="11.00">int4[10]</text>
<polygon fill="none" stroke="black" points="10,-519 10,-541 216,-541 216,-519 10,-519"/>
<text text-anchor="start" x="30" y="-527.2" font-family="Helvetica,sans-Serif" font-size="11.00">vsacode</text>
<polygon fill="none" stroke="black" points="216,-519 216,-541 322,-541 322,-519 216,-519"/>
<text text-anchor="start" x="219" y="-527.2" font-family="Helvetica,sans-Serif" font-size="11.00">int4[10]</text>
<polygon fill="none" stroke="black" points="10,-497 10,-519 216,-519 216,-497 10,-497"/>
<text text-anchor="start" x="30" y="-505.2" font-family="Helvetica,sans-Serif" font-size="11.00">value_en</text>
<polygon fill="none" stroke="black" points="216,-497 216,-519 322,-519 322,-497 216,-497"/>
<text text-anchor="start" x="219" y="-505.2" font-family="Helvetica,sans-Serif" font-size="11.00">varchar[100]</text>
<polygon fill="none" stroke="black" points="10,-475 10,-497 216,-497 216,-475 10,-475"/>
<text text-anchor="start" x="30" y="-483.2" font-family="Helvetica,sans-Serif" font-size="11.00">value_de</text>
<polygon fill="none" stroke="black" points="216,-475 216,-497 322,-497 322,-475 216,-475"/>
<text text-anchor="start" x="219" y="-483.2" font-family="Helvetica,sans-Serif" font-size="11.00">varchar[100]</text>
<polygon fill="none" stroke="black" points="10,-453 10,-475 216,-475 216,-453 10,-453"/>
<text text-anchor="start" x="30" y="-461.2" font-family="Helvetica,sans-Serif" font-size="11.00">value_fr</text>
<polygon fill="none" stroke="black" points="216,-453 216,-475 322,-475 322,-453 216,-453"/>
<text text-anchor="start" x="219" y="-461.2" font-family="Helvetica,sans-Serif" font-size="11.00">varchar[100]</text>
<polygon fill="none" stroke="black" points="10,-431 10,-453 216,-453 216,-431 10,-431"/>
<text text-anchor="start" x="30" y="-439.2" font-family="Helvetica,sans-Serif" font-size="11.00">value_it</text>
<polygon fill="none" stroke="black" points="216,-431 216,-453 322,-453 322,-431 216,-431"/>
<text text-anchor="start" x="219" y="-439.2" font-family="Helvetica,sans-Serif" font-size="11.00">varchar[100]</text>
<polygon fill="none" stroke="black" points="10,-409 10,-431 216,-431 216,-409 10,-409"/>
<text text-anchor="start" x="30" y="-417.2" font-family="Helvetica,sans-Serif" font-size="11.00">value_ro</text>
<polygon fill="none" stroke="black" points="216,-409 216,-431 322,-431 322,-409 216,-409"/>
<text text-anchor="start" x="219" y="-417.2" font-family="Helvetica,sans-Serif" font-size="11.00">varchar[100]</text>
<polygon fill="none" stroke="black" points="10,-387 10,-409 216,-409 216,-387 10,-387"/>
<text text-anchor="start" x="30" y="-395.2" font-family="Helvetica,sans-Serif" font-size="11.00">abbr_en</text>
<polygon fill="none" stroke="black" points="216,-387 216,-409 322,-409 322,-387 216,-387"/>
<text text-anchor="start" x="219" y="-395.2" font-family="Helvetica,sans-Serif" font-size="11.00">varchar[3]</text>
<polygon fill="none" stroke="black" points="10,-365 10,-387 216,-387 216,-365 10,-365"/>
<text text-anchor="start" x="30" y="-373.2" font-family="Helvetica,sans-Serif" font-size="11.00">abbr_de</text>
<polygon fill="none" stroke="black" points="216,-365 216,-387 322,-387 322,-365 216,-365"/>
<text text-anchor="start" x="219" y="-373.2" font-family="Helvetica,sans-Serif" font-size="11.00">varchar[3]</text>
<polygon fill="none" stroke="black" points="10,-343 10,-365 216,-365 216,-343 10,-343"/>
<text text-anchor="start" x="30" y="-351.2" font-family="Helvetica,sans-Serif" font-size="11.00">abbr_fr</text>
<polygon fill="none" stroke="black" points="216,-343 216,-365 322,-365 322,-343 216,-343"/>
<text text-anchor="start" x="219" y="-351.2" font-family="Helvetica,sans-Serif" font-size="11.00">varchar[3]</text>
<polygon fill="none" stroke="black" points="10,-321 10,-343 216,-343 216,-321 10,-321"/>
<text text-anchor="start" x="30" y="-329.2" font-family="Helvetica,sans-Serif" font-size="11.00">abbr_it</text>
<polygon fill="none" stroke="black" points="216,-321 216,-343 322,-343 322,-321 216,-321"/>
<text text-anchor="start" x="219" y="-329.2" font-family="Helvetica,sans-Serif" font-size="11.00">varchar[3]</text>
<polygon fill="none" stroke="black" points="10,-299 10,-321 216,-321 216,-299 10,-299"/>
<text text-anchor="start" x="30" y="-307.2" font-family="Helvetica,sans-Serif" font-size="11.00">abbr_ro</text>
<polygon fill="none" stroke="black" points="216,-299 216,-321 322,-321 322,-299 216,-299"/>
<text text-anchor="start" x="219" y="-307.2" font-family="Helvetica,sans-Serif" font-size="11.00">varchar[3]</text>
<polygon fill="none" stroke="black" points="10,-277 10,-299 216,-299 216,-277 10,-277"/>
<text text-anchor="start" x="30" y="-285.2" font-family="Helvetica,sans-Serif" font-size="11.00">description_en</text>
<polygon fill="none" stroke="black" points="216,-277 216,-299 322,-299 322,-277 216,-277"/>
<text text-anchor="start" x="219" y="-285.2" font-family="Helvetica,sans-Serif" font-size="11.00">text[2147483647]</text>
<polygon fill="none" stroke="black" points="10,-255 10,-277 216,-277 216,-255 10,-255"/>
<text text-anchor="start" x="30" y="-263.2" font-family="Helvetica,sans-Serif" font-size="11.00">description_de</text>
<polygon fill="none" stroke="black" points="216,-255 216,-277 322,-277 322,-255 216,-255"/>
<text text-anchor="start" x="219" y="-263.2" font-family="Helvetica,sans-Serif" font-size="11.00">text[2147483647]</text>
<polygon fill="none" stroke="black" points="10,-233 10,-255 216,-255 216,-233 10,-233"/>
<text text-anchor="start" x="30" y="-241.2" font-family="Helvetica,sans-Serif" font-size="11.00">description_fr</text>
<polygon fill="none" stroke="black" points="216,-233 216,-255 322,-255 322,-233 216,-233"/>
<text text-anchor="start" x="219" y="-241.2" font-family="Helvetica,sans-Serif" font-size="11.00">text[2147483647]</text>
<polygon fill="none" stroke="black" points="10,-211 10,-233 216,-233 216,-211 10,-211"/>
<text text-anchor="start" x="30" y="-219.2" font-family="Helvetica,sans-Serif" font-size="11.00">description_it</text>
<polygon fill="none" stroke="black" points="216,-211 216,-233 322,-233 322,-211 216,-211"/>
<text text-anchor="start" x="219" y="-219.2" font-family="Helvetica,sans-Serif" font-size="11.00">text[2147483647]</text>
<polygon fill="none" stroke="black" points="10,-189 10,-211 216,-211 216,-189 10,-189"/>
<text text-anchor="start" x="30" y="-197.2" font-family="Helvetica,sans-Serif" font-size="11.00">description_ro</text>
<polygon fill="none" stroke="black" points="216,-189 216,-211 322,-211 322,-189 216,-189"/>
<text text-anchor="start" x="219" y="-197.2" font-family="Helvetica,sans-Serif" font-size="11.00">text[2147483647]</text>
<polygon fill="none" stroke="black" points="10,-167 10,-189 216,-189 216,-167 10,-167"/>
<text text-anchor="start" x="30" y="-175.2" font-family="Helvetica,sans-Serif" font-size="11.00">display_en</text>
<polygon fill="none" stroke="black" points="216,-167 216,-189 322,-189 322,-167 216,-167"/>
<text text-anchor="start" x="219" y="-175.2" font-family="Helvetica,sans-Serif" font-size="11.00">varchar[100]</text>
<polygon fill="none" stroke="black" points="10,-145 10,-167 216,-167 216,-145 10,-145"/>
<text text-anchor="start" x="30" y="-153.2" font-family="Helvetica,sans-Serif" font-size="11.00">display_de</text>
<polygon fill="none" stroke="black" points="216,-145 216,-167 322,-167 322,-145 216,-145"/>
<text text-anchor="start" x="219" y="-153.2" font-family="Helvetica,sans-Serif" font-size="11.00">varchar[100]</text>
<polygon fill="none" stroke="black" points="10,-123 10,-145 216,-145 216,-123 10,-123"/>
<text text-anchor="start" x="30" y="-131.2" font-family="Helvetica,sans-Serif" font-size="11.00">display_fr</text>
<polygon fill="none" stroke="black" points="216,-123 216,-145 322,-145 322,-123 216,-123"/>
<text text-anchor="start" x="219" y="-131.2" font-family="Helvetica,sans-Serif" font-size="11.00">varchar[100]</text>
<polygon fill="none" stroke="black" points="10,-101 10,-123 216,-123 216,-101 10,-101"/>
<text text-anchor="start" x="30" y="-109.2" font-family="Helvetica,sans-Serif" font-size="11.00">display_it</text>
<polygon fill="none" stroke="black" points="216,-101 216,-123 322,-123 322,-101 216,-101"/>
<text text-anchor="start" x="219" y="-109.2" font-family="Helvetica,sans-Serif" font-size="11.00">varchar[100]</text>
<polygon fill="none" stroke="black" points="10,-79 10,-101 216,-101 216,-79 10,-79"/>
<text text-anchor="start" x="30" y="-87.2" font-family="Helvetica,sans-Serif" font-size="11.00">display_ro</text>
<polygon fill="none" stroke="black" points="216,-79 216,-101 322,-101 322,-79 216,-79"/>
<text text-anchor="start" x="219" y="-87.2" font-family="Helvetica,sans-Serif" font-size="11.00">varchar[100]</text>
<polygon fill="none" stroke="black" points="10,-57 10,-79 216,-79 216,-57 10,-57"/>
<text text-anchor="start" x="30" y="-65.2" font-family="Helvetica,sans-Serif" font-size="11.00">active</text>
<polygon fill="none" stroke="black" points="216,-57 216,-79 322,-79 322,-57 216,-57"/>
<text text-anchor="start" x="219" y="-65.2" font-family="Helvetica,sans-Serif" font-size="11.00">bool[1]</text>
<polygon fill="#ffffff" stroke="transparent" points="10,-39 10,-57 322,-57 322,-39 10,-39"/>
<polygon fill="none" stroke="black" points="10,-39 10,-57 322,-57 322,-39 10,-39"/>
<polygon fill="#ffffff" stroke="transparent" points="11,-40 11,-56 119,-56 119,-40 11,-40"/>
<text text-anchor="start" x="13" y="-45.2" font-family="Helvetica,sans-Serif" font-size="11.00">&lt; 0</text>
<polygon fill="#ffffff" stroke="transparent" points="119,-40 119,-56 214,-56 214,-40 119,-40"/>
<text text-anchor="start" x="162.5" y="-45.2" font-family="Helvetica,sans-Serif" font-size="11.00"> &#160;</text>
<polygon fill="#ffffff" stroke="transparent" points="214,-40 214,-56 321,-56 321,-40 214,-40"/>
<text text-anchor="start" x="299" y="-45.2" font-family="Helvetica,sans-Serif" font-size="11.00">1 &gt;</text>
<polygon fill="black" stroke="black" points="119,-40 119,-56 119,-56 119,-40 119,-40"/>
<polygon fill="black" stroke="black" points="214,-40 214,-56 214,-56 214,-40 214,-40"/>
<polygon fill="none" stroke="black" stroke-width="2" points="9,-38 9,-586 323,-586 323,-38 9,-38"/>
</a>
</g>
</g>
<!-- tdh_od.structure&#45;&gt;structure_discharge_type -->
<g id="edge1" class="edge">
<title>tdh_od.structure:w&#45;&gt;structure_discharge_type:e</title>
<path fill="none" stroke="black" d="M357.49,-552C346.18,-552 338.99,-552 323,-552"/>
<polygon fill="black" stroke="black" points="364,-552 372,-555.6 368,-552 372,-552 372,-552 372,-552 368,-552 372,-548.4 364,-552 364,-552"/>
<ellipse fill="none" stroke="black" cx="360.8" cy="-552" rx="3.2" ry="3.2"/>
</g>
</g>
</svg>
