<?xml version="1.0" encoding="UTF-8" standalone="no"?>
<!DOCTYPE svg PUBLIC "-//W3C//DTD SVG 1.1//EN"
 "http://www.w3.org/Graphics/SVG/1.1/DTD/svg11.dtd">
<!-- Generated by graphviz version 2.43.0 (0)
 -->
<!-- Title: oneDegreeRelationshipsDiagram Pages: 1 -->
<svg width="567pt" height="465pt"
 viewBox="0.00 0.00 567.00 465.00" xmlns="http://www.w3.org/2000/svg" xmlns:xlink="http://www.w3.org/1999/xlink">
<g id="graph0" class="graph" transform="scale(1 1) rotate(0) translate(4 461)">
<title>oneDegreeRelationshipsDiagram</title>
<polygon fill="#ffffff" stroke="transparent" points="-4,4 -4,-461 563,-461 563,4 -4,4"/>
<text text-anchor="middle" x="79.5" y="-7.2" font-family="Helvetica,sans-Serif" font-size="11.00">Generated by SchemaSpy</text>
<!-- tdh_od.structure -->
<g id="node1" class="node">
<title>tdh_od.structure</title>
<g id="a_node1"><a xlink:href="../../../tdh_od/tables/structure.html" xlink:title="tdh_od.structure" target="_top">
<polygon fill="#ffffff" stroke="transparent" points="345,-175 345,-453 551,-453 551,-175 345,-175"/>
<polygon fill="#f5f5f5" stroke="transparent" points="345,-431 345,-453 551,-453 551,-431 345,-431"/>
<polygon fill="none" stroke="black" points="345,-431 345,-453 551,-453 551,-431 345,-431"/>
<text text-anchor="start" x="350" y="-440.2" font-family="Helvetica,sans-Serif" font-weight="bold" font-size="11.00">tdh_od.structure</text>
<text text-anchor="start" x="509" y="-439.2" font-family="Helvetica,sans-Serif" font-size="11.00">[table]</text>
<polygon fill="none" stroke="black" points="345,-409 345,-431 551,-431 551,-409 345,-409"/>
<image xlink:href="../../images/foreignKeys.png" width="11px" height="12px" preserveAspectRatio="xMinYMin meet" x="350" y="-426"/>
<text text-anchor="start" x="365" y="-417.2" font-family="Helvetica,sans-Serif" font-size="11.00">horizontal_positioning</text>
<polygon fill="none" stroke="black" points="345,-387 345,-409 551,-409 551,-387 345,-387"/>
<image xlink:href="../../images/foreignKeys.png" width="11px" height="12px" preserveAspectRatio="xMinYMin meet" x="350" y="-404"/>
<text text-anchor="start" x="365" y="-395.2" font-family="Helvetica,sans-Serif" font-size="11.00">status</text>
<polygon fill="none" stroke="black" points="345,-365 345,-387 551,-387 551,-365 345,-365"/>
<image xlink:href="../../images/foreignKeys.png" width="11px" height="12px" preserveAspectRatio="xMinYMin meet" x="350" y="-382"/>
<text text-anchor="start" x="365" y="-373.2" font-family="Helvetica,sans-Serif" font-size="11.00">kind</text>
<polygon fill="none" stroke="black" points="345,-343 345,-365 551,-365 551,-343 345,-343"/>
<image xlink:href="../../images/foreignKeys.png" width="11px" height="12px" preserveAspectRatio="xMinYMin meet" x="350" y="-360"/>
<text text-anchor="start" x="365" y="-351.2" font-family="Helvetica,sans-Serif" font-size="11.00">venting</text>
<polygon fill="none" stroke="black" points="345,-321 345,-343 551,-343 551,-321 345,-321"/>
<image xlink:href="../../images/foreignKeys.png" width="11px" height="12px" preserveAspectRatio="xMinYMin meet" x="350" y="-338"/>
<text text-anchor="start" x="365" y="-329.2" font-family="Helvetica,sans-Serif" font-size="11.00">discharge_type</text>
<polygon fill="none" stroke="black" points="345,-299 345,-321 551,-321 551,-299 345,-299"/>
<image xlink:href="../../images/foreignKeys.png" width="11px" height="12px" preserveAspectRatio="xMinYMin meet" x="350" y="-316"/>
<text text-anchor="start" x="365" y="-307.2" font-family="Helvetica,sans-Serif" font-size="11.00">grid_type</text>
<polygon fill="none" stroke="black" points="345,-277 345,-299 551,-299 551,-277 345,-277"/>
<image xlink:href="../../images/foreignKeys.png" width="11px" height="12px" preserveAspectRatio="xMinYMin meet" x="350" y="-294"/>
<text text-anchor="start" x="365" y="-285.2" font-family="Helvetica,sans-Serif" font-size="11.00">drainage_pump</text>
<polygon fill="none" stroke="black" points="345,-255 345,-277 551,-277 551,-255 345,-255"/>
<image xlink:href="../../images/foreignKeys.png" width="11px" height="12px" preserveAspectRatio="xMinYMin meet" x="350" y="-272"/>
<text text-anchor="start" x="365" y="-263.2" font-family="Helvetica,sans-Serif" font-size="11.00">power_connection</text>
<polygon fill="none" stroke="black" points="345,-233 345,-255 551,-255 551,-233 345,-233"/>
<image xlink:href="../../images/foreignKeys.png" width="11px" height="12px" preserveAspectRatio="xMinYMin meet" x="350" y="-250"/>
<text text-anchor="start" x="365" y="-241.2" font-family="Helvetica,sans-Serif" font-size="11.00">measuring_system</text>
<polygon fill="none" stroke="black" points="345,-211 345,-233 551,-233 551,-211 345,-211"/>
<image xlink:href="../../images/foreignKeys.png" width="11px" height="12px" preserveAspectRatio="xMinYMin meet" x="350" y="-228"/>
<text text-anchor="start" x="365" y="-219.2" font-family="Helvetica,sans-Serif" font-size="11.00">condition</text>
<polygon fill="none" stroke="black" points="345,-193 345,-211 551,-211 551,-193 345,-193"/>
<text text-anchor="start" x="348" y="-199.2" font-family="Helvetica,sans-Serif" font-size="11.00">...</text>
<polygon fill="#ffffff" stroke="transparent" points="345,-175 345,-193 551,-193 551,-175 345,-175"/>
<polygon fill="none" stroke="black" points="345,-175 345,-193 551,-193 551,-175 345,-175"/>
<polygon fill="#ffffff" stroke="transparent" points="346,-176 346,-192 417,-192 417,-176 346,-176"/>
<text text-anchor="start" x="348" y="-181.2" font-family="Helvetica,sans-Serif" font-size="11.00">&lt; 10</text>
<polygon fill="#ffffff" stroke="transparent" points="417,-176 417,-192 498,-192 498,-176 417,-176"/>
<text text-anchor="start" x="439" y="-181.2" font-family="Helvetica,sans-Serif" font-size="11.00">0 rows</text>
<polygon fill="#ffffff" stroke="transparent" points="498,-176 498,-192 550,-192 550,-176 498,-176"/>
<text text-anchor="start" x="540" y="-181.2" font-family="Helvetica,sans-Serif" font-size="11.00"> &#160;</text>
<polygon fill="black" stroke="black" points="417,-176 417,-192 417,-192 417,-176 417,-176"/>
<polygon fill="black" stroke="black" points="498,-176 498,-192 498,-192 498,-176 498,-176"/>
</a>
</g>
</g>
<!-- structure_discharge_type -->
<g id="node2" class="node">
<title>structure_discharge_type</title>
<g id="a_node2"><a xlink:href="../../tables/structure_discharge_type.html" xlink:title="structure_discharge_type" target="_top">
<polygon fill="#ffffff" stroke="transparent" points="8,-37 8,-367 296,-367 296,-37 8,-37"/>
<polygon fill="#f5f5f5" stroke="transparent" points="10,-343 10,-365 294,-365 294,-343 10,-343"/>
<polygon fill="none" stroke="black" points="10,-343 10,-365 294,-365 294,-343 10,-343"/>
<text text-anchor="start" x="15" y="-352.2" font-family="Helvetica,sans-Serif" font-weight="bold" font-size="11.00">structure_discharge_type</text>
<text text-anchor="start" x="252" y="-351.2" font-family="Helvetica,sans-Serif" font-size="11.00">[table]</text>
<polygon fill="none" stroke="black" points="10,-321 10,-343 216,-343 216,-321 10,-321"/>
<image xlink:href="../../images/primaryKeys.png" width="11px" height="12px" preserveAspectRatio="xMinYMin meet" x="15" y="-338"/>
<text text-anchor="start" x="30" y="-329.2" font-family="Helvetica,sans-Serif" font-size="11.00">code</text>
<polygon fill="none" stroke="black" points="216,-321 216,-343 294,-343 294,-321 216,-321"/>
<text text-anchor="start" x="219" y="-329.2" font-family="Helvetica,sans-Serif" font-size="11.00">int4[10]</text>
<polygon fill="none" stroke="black" points="10,-299 10,-321 216,-321 216,-299 10,-299"/>
<text text-anchor="start" x="30" y="-307.2" font-family="Helvetica,sans-Serif" font-size="11.00">vsacode</text>
<polygon fill="none" stroke="black" points="216,-299 216,-321 294,-321 294,-299 216,-299"/>
<text text-anchor="start" x="219" y="-307.2" font-family="Helvetica,sans-Serif" font-size="11.00">int4[10]</text>
<polygon fill="none" stroke="black" points="10,-277 10,-299 216,-299 216,-277 10,-277"/>
<text text-anchor="start" x="30" y="-285.2" font-family="Helvetica,sans-Serif" font-size="11.00">value_en</text>
<polygon fill="none" stroke="black" points="216,-277 216,-299 294,-299 294,-277 216,-277"/>
<text text-anchor="start" x="219" y="-285.2" font-family="Helvetica,sans-Serif" font-size="11.00">varchar[100]</text>
<polygon fill="none" stroke="black" points="10,-255 10,-277 216,-277 216,-255 10,-255"/>
<text text-anchor="start" x="30" y="-263.2" font-family="Helvetica,sans-Serif" font-size="11.00">value_de</text>
<polygon fill="none" stroke="black" points="216,-255 216,-277 294,-277 294,-255 216,-255"/>
<text text-anchor="start" x="219" y="-263.2" font-family="Helvetica,sans-Serif" font-size="11.00">varchar[100]</text>
<polygon fill="none" stroke="black" points="10,-233 10,-255 216,-255 216,-233 10,-233"/>
<text text-anchor="start" x="30" y="-241.2" font-family="Helvetica,sans-Serif" font-size="11.00">value_fr</text>
<polygon fill="none" stroke="black" points="216,-233 216,-255 294,-255 294,-233 216,-233"/>
<text text-anchor="start" x="219" y="-241.2" font-family="Helvetica,sans-Serif" font-size="11.00">varchar[100]</text>
<polygon fill="none" stroke="black" points="10,-211 10,-233 216,-233 216,-211 10,-211"/>
<text text-anchor="start" x="30" y="-219.2" font-family="Helvetica,sans-Serif" font-size="11.00">value_it</text>
<polygon fill="none" stroke="black" points="216,-211 216,-233 294,-233 294,-211 216,-211"/>
<text text-anchor="start" x="219" y="-219.2" font-family="Helvetica,sans-Serif" font-size="11.00">varchar[100]</text>
<polygon fill="none" stroke="black" points="10,-189 10,-211 216,-211 216,-189 10,-189"/>
<text text-anchor="start" x="30" y="-197.2" font-family="Helvetica,sans-Serif" font-size="11.00">value_ro</text>
<polygon fill="none" stroke="black" points="216,-189 216,-211 294,-211 294,-189 216,-189"/>
<text text-anchor="start" x="219" y="-197.2" font-family="Helvetica,sans-Serif" font-size="11.00">varchar[100]</text>
<polygon fill="none" stroke="black" points="10,-167 10,-189 216,-189 216,-167 10,-167"/>
<text text-anchor="start" x="30" y="-175.2" font-family="Helvetica,sans-Serif" font-size="11.00">abbr_en</text>
<polygon fill="none" stroke="black" points="216,-167 216,-189 294,-189 294,-167 216,-167"/>
<text text-anchor="start" x="219" y="-175.2" font-family="Helvetica,sans-Serif" font-size="11.00">varchar[3]</text>
<polygon fill="none" stroke="black" points="10,-145 10,-167 216,-167 216,-145 10,-145"/>
<text text-anchor="start" x="30" y="-153.2" font-family="Helvetica,sans-Serif" font-size="11.00">abbr_de</text>
<polygon fill="none" stroke="black" points="216,-145 216,-167 294,-167 294,-145 216,-145"/>
<text text-anchor="start" x="219" y="-153.2" font-family="Helvetica,sans-Serif" font-size="11.00">varchar[3]</text>
<polygon fill="none" stroke="black" points="10,-123 10,-145 216,-145 216,-123 10,-123"/>
<text text-anchor="start" x="30" y="-131.2" font-family="Helvetica,sans-Serif" font-size="11.00">abbr_fr</text>
<polygon fill="none" stroke="black" points="216,-123 216,-145 294,-145 294,-123 216,-123"/>
<text text-anchor="start" x="219" y="-131.2" font-family="Helvetica,sans-Serif" font-size="11.00">varchar[3]</text>
<polygon fill="none" stroke="black" points="10,-101 10,-123 216,-123 216,-101 10,-101"/>
<text text-anchor="start" x="30" y="-109.2" font-family="Helvetica,sans-Serif" font-size="11.00">abbr_it</text>
<polygon fill="none" stroke="black" points="216,-101 216,-123 294,-123 294,-101 216,-101"/>
<text text-anchor="start" x="219" y="-109.2" font-family="Helvetica,sans-Serif" font-size="11.00">varchar[3]</text>
<polygon fill="none" stroke="black" points="10,-79 10,-101 216,-101 216,-79 10,-79"/>
<text text-anchor="start" x="30" y="-87.2" font-family="Helvetica,sans-Serif" font-size="11.00">abbr_ro</text>
<polygon fill="none" stroke="black" points="216,-79 216,-101 294,-101 294,-79 216,-79"/>
<text text-anchor="start" x="219" y="-87.2" font-family="Helvetica,sans-Serif" font-size="11.00">varchar[3]</text>
<polygon fill="none" stroke="black" points="10,-57 10,-79 216,-79 216,-57 10,-57"/>
<text text-anchor="start" x="30" y="-65.2" font-family="Helvetica,sans-Serif" font-size="11.00">active</text>
<polygon fill="none" stroke="black" points="216,-57 216,-79 294,-79 294,-57 216,-57"/>
<text text-anchor="start" x="219" y="-65.2" font-family="Helvetica,sans-Serif" font-size="11.00">bool[1]</text>
<polygon fill="#ffffff" stroke="transparent" points="10,-39 10,-57 294,-57 294,-39 10,-39"/>
<polygon fill="none" stroke="black" points="10,-39 10,-57 294,-57 294,-39 10,-39"/>
<polygon fill="#ffffff" stroke="transparent" points="11,-40 11,-56 109,-56 109,-40 11,-40"/>
<text text-anchor="start" x="13" y="-45.2" font-family="Helvetica,sans-Serif" font-size="11.00">&lt; 0</text>
<polygon fill="#ffffff" stroke="transparent" points="109,-40 109,-56 195,-56 195,-40 109,-40"/>
<text text-anchor="start" x="148" y="-45.2" font-family="Helvetica,sans-Serif" font-size="11.00"> &#160;</text>
<polygon fill="#ffffff" stroke="transparent" points="195,-40 195,-56 293,-56 293,-40 195,-40"/>
<text text-anchor="start" x="271" y="-45.2" font-family="Helvetica,sans-Serif" font-size="11.00">1 &gt;</text>
<polygon fill="black" stroke="black" points="109,-40 109,-56 109,-56 109,-40 109,-40"/>
<polygon fill="black" stroke="black" points="195,-40 195,-56 195,-56 195,-40 195,-40"/>
<polygon fill="none" stroke="black" stroke-width="2" points="9,-38 9,-366 295,-366 295,-38 9,-38"/>
</a>
</g>
</g>
<!-- tdh_od.structure&#45;&gt;structure_discharge_type -->
<g id="edge1" class="edge">
<title>tdh_od.structure:w&#45;&gt;structure_discharge_type:e</title>
<path fill="none" stroke="black" d="M329.49,-332C318.18,-332 310.99,-332 295,-332"/>
<polygon fill="black" stroke="black" points="336,-332 344,-335.6 340,-332 344,-332 344,-332 344,-332 340,-332 344,-328.4 336,-332 336,-332"/>
<ellipse fill="none" stroke="black" cx="332.8" cy="-332" rx="3.2" ry="3.2"/>
</g>
</g>
</svg>
