<?xml version="1.0" encoding="UTF-8" standalone="no"?>
<!DOCTYPE svg PUBLIC "-//W3C//DTD SVG 1.1//EN"
 "http://www.w3.org/Graphics/SVG/1.1/DTD/svg11.dtd">
<!-- Generated by graphviz version 2.43.0 (0)
 -->
<!-- Title: oneDegreeRelationshipsDiagram Pages: 1 -->
<svg width="546pt" height="663pt"
 viewBox="0.00 0.00 546.00 663.00" xmlns="http://www.w3.org/2000/svg" xmlns:xlink="http://www.w3.org/1999/xlink">
<g id="graph0" class="graph" transform="scale(1 1) rotate(0) translate(4 659)">
<title>oneDegreeRelationshipsDiagram</title>
<polygon fill="#ffffff" stroke="transparent" points="-4,4 -4,-659 542,-659 542,4 -4,4"/>
<text text-anchor="middle" x="79.5" y="-7.2" font-family="Helvetica,sans-Serif" font-size="11.00">Generated by SchemaSpy</text>
<!-- tdh_od.trench -->
<g id="node1" class="node">
<title>tdh_od.trench</title>
<g id="a_node1"><a xlink:href="../../../tdh_od/tables/trench.html" xlink:title="tdh_od.trench" target="_top">
<polygon fill="#ffffff" stroke="transparent" points="324,-461 324,-651 530,-651 530,-461 324,-461"/>
<polygon fill="#f5f5f5" stroke="transparent" points="324,-629 324,-651 530,-651 530,-629 324,-629"/>
<polygon fill="none" stroke="black" points="324,-629 324,-651 530,-651 530,-629 324,-629"/>
<text text-anchor="start" x="329" y="-638.2" font-family="Helvetica,sans-Serif" font-weight="bold" font-size="11.00">tdh_od.trench</text>
<text text-anchor="start" x="488" y="-637.2" font-family="Helvetica,sans-Serif" font-size="11.00">[table]</text>
<polygon fill="none" stroke="black" points="324,-607 324,-629 530,-629 530,-607 324,-607"/>
<image xlink:href="../../images/foreignKeys.png" width="11px" height="12px" preserveAspectRatio="xMinYMin meet" x="329" y="-624"/>
<text text-anchor="start" x="344" y="-615.2" font-family="Helvetica,sans-Serif" font-size="11.00">horizontal_positioning</text>
<polygon fill="none" stroke="black" points="324,-585 324,-607 530,-607 530,-585 324,-585"/>
<image xlink:href="../../images/foreignKeys.png" width="11px" height="12px" preserveAspectRatio="xMinYMin meet" x="329" y="-602"/>
<text text-anchor="start" x="344" y="-593.2" font-family="Helvetica,sans-Serif" font-size="11.00">status</text>
<polygon fill="none" stroke="black" points="324,-563 324,-585 530,-585 530,-563 324,-563"/>
<image xlink:href="../../images/foreignKeys.png" width="11px" height="12px" preserveAspectRatio="xMinYMin meet" x="329" y="-580"/>
<text text-anchor="start" x="344" y="-571.2" font-family="Helvetica,sans-Serif" font-size="11.00">trench_type</text>
<polygon fill="none" stroke="black" points="324,-541 324,-563 530,-563 530,-541 324,-541"/>
<image xlink:href="../../images/foreignKeys.png" width="11px" height="12px" preserveAspectRatio="xMinYMin meet" x="329" y="-558"/>
<text text-anchor="start" x="344" y="-549.2" font-family="Helvetica,sans-Serif" font-size="11.00">embedding</text>
<polygon fill="none" stroke="black" points="324,-519 324,-541 530,-541 530,-519 324,-519"/>
<image xlink:href="../../images/foreignKeys.png" width="11px" height="12px" preserveAspectRatio="xMinYMin meet" x="329" y="-536"/>
<text text-anchor="start" x="344" y="-527.2" font-family="Helvetica,sans-Serif" font-size="11.00">control_system</text>
<polygon fill="none" stroke="black" points="324,-497 324,-519 530,-519 530,-497 324,-497"/>
<image xlink:href="../../images/foreignKeys.png" width="11px" height="12px" preserveAspectRatio="xMinYMin meet" x="329" y="-514"/>
<text text-anchor="start" x="344" y="-505.2" font-family="Helvetica,sans-Serif" font-size="11.00">cable_conduits</text>
<polygon fill="none" stroke="black" points="324,-479 324,-497 530,-497 530,-479 324,-479"/>
<text text-anchor="start" x="327" y="-485.2" font-family="Helvetica,sans-Serif" font-size="11.00">...</text>
<polygon fill="#ffffff" stroke="transparent" points="324,-461 324,-479 530,-479 530,-461 324,-461"/>
<polygon fill="none" stroke="black" points="324,-461 324,-479 530,-479 530,-461 324,-461"/>
<polygon fill="#ffffff" stroke="transparent" points="325,-462 325,-478 392,-478 392,-462 325,-462"/>
<text text-anchor="start" x="327" y="-467.2" font-family="Helvetica,sans-Serif" font-size="11.00">&lt; 6</text>
<polygon fill="#ffffff" stroke="transparent" points="392,-462 392,-478 475,-478 475,-462 392,-462"/>
<text text-anchor="start" x="415" y="-467.2" font-family="Helvetica,sans-Serif" font-size="11.00">0 rows</text>
<polygon fill="#ffffff" stroke="transparent" points="475,-462 475,-478 529,-478 529,-462 475,-462"/>
<text text-anchor="start" x="519" y="-467.2" font-family="Helvetica,sans-Serif" font-size="11.00"> &#160;</text>
<polygon fill="black" stroke="black" points="392,-462 392,-478 392,-478 392,-462 392,-462"/>
<polygon fill="black" stroke="black" points="475,-462 475,-478 475,-478 475,-462 475,-462"/>
</a>
</g>
</g>
<!-- trench_embedding -->
<g id="node2" class="node">
<title>trench_embedding</title>
<g id="a_node2"><a xlink:href="../../tables/trench_embedding.html" xlink:title="trench_embedding" target="_top">
<polygon fill="#ffffff" stroke="transparent" points="8,-37 8,-587 275,-587 275,-37 8,-37"/>
<polygon fill="#f5f5f5" stroke="transparent" points="10.5,-563 10.5,-585 273.5,-585 273.5,-563 10.5,-563"/>
<polygon fill="none" stroke="black" points="10.5,-563 10.5,-585 273.5,-585 273.5,-563 10.5,-563"/>
<text text-anchor="start" x="15.5" y="-572.2" font-family="Helvetica,sans-Serif" font-weight="bold" font-size="11.00">trench_embedding</text>
<text text-anchor="start" x="231.5" y="-571.2" font-family="Helvetica,sans-Serif" font-size="11.00">[table]</text>
<polygon fill="none" stroke="black" points="10.5,-541 10.5,-563 167.5,-563 167.5,-541 10.5,-541"/>
<image xlink:href="../../images/primaryKeys.png" width="11px" height="12px" preserveAspectRatio="xMinYMin meet" x="15.5" y="-558"/>
<text text-anchor="start" x="30.5" y="-549.2" font-family="Helvetica,sans-Serif" font-size="11.00">code</text>
<polygon fill="none" stroke="black" points="167.5,-541 167.5,-563 273.5,-563 273.5,-541 167.5,-541"/>
<text text-anchor="start" x="170.5" y="-549.2" font-family="Helvetica,sans-Serif" font-size="11.00">int4[10]</text>
<polygon fill="none" stroke="black" points="10.5,-519 10.5,-541 167.5,-541 167.5,-519 10.5,-519"/>
<text text-anchor="start" x="30.5" y="-527.2" font-family="Helvetica,sans-Serif" font-size="11.00">vsacode</text>
<polygon fill="none" stroke="black" points="167.5,-519 167.5,-541 273.5,-541 273.5,-519 167.5,-519"/>
<text text-anchor="start" x="170.5" y="-527.2" font-family="Helvetica,sans-Serif" font-size="11.00">int4[10]</text>
<polygon fill="none" stroke="black" points="10.5,-497 10.5,-519 167.5,-519 167.5,-497 10.5,-497"/>
<text text-anchor="start" x="30.5" y="-505.2" font-family="Helvetica,sans-Serif" font-size="11.00">value_en</text>
<polygon fill="none" stroke="black" points="167.5,-497 167.5,-519 273.5,-519 273.5,-497 167.5,-497"/>
<text text-anchor="start" x="170.5" y="-505.2" font-family="Helvetica,sans-Serif" font-size="11.00">varchar[100]</text>
<polygon fill="none" stroke="black" points="10.5,-475 10.5,-497 167.5,-497 167.5,-475 10.5,-475"/>
<text text-anchor="start" x="30.5" y="-483.2" font-family="Helvetica,sans-Serif" font-size="11.00">value_de</text>
<polygon fill="none" stroke="black" points="167.5,-475 167.5,-497 273.5,-497 273.5,-475 167.5,-475"/>
<text text-anchor="start" x="170.5" y="-483.2" font-family="Helvetica,sans-Serif" font-size="11.00">varchar[100]</text>
<polygon fill="none" stroke="black" points="10.5,-453 10.5,-475 167.5,-475 167.5,-453 10.5,-453"/>
<text text-anchor="start" x="30.5" y="-461.2" font-family="Helvetica,sans-Serif" font-size="11.00">value_fr</text>
<polygon fill="none" stroke="black" points="167.5,-453 167.5,-475 273.5,-475 273.5,-453 167.5,-453"/>
<text text-anchor="start" x="170.5" y="-461.2" font-family="Helvetica,sans-Serif" font-size="11.00">varchar[100]</text>
<polygon fill="none" stroke="black" points="10.5,-431 10.5,-453 167.5,-453 167.5,-431 10.5,-431"/>
<text text-anchor="start" x="30.5" y="-439.2" font-family="Helvetica,sans-Serif" font-size="11.00">value_it</text>
<polygon fill="none" stroke="black" points="167.5,-431 167.5,-453 273.5,-453 273.5,-431 167.5,-431"/>
<text text-anchor="start" x="170.5" y="-439.2" font-family="Helvetica,sans-Serif" font-size="11.00">varchar[100]</text>
<polygon fill="none" stroke="black" points="10.5,-409 10.5,-431 167.5,-431 167.5,-409 10.5,-409"/>
<text text-anchor="start" x="30.5" y="-417.2" font-family="Helvetica,sans-Serif" font-size="11.00">value_ro</text>
<polygon fill="none" stroke="black" points="167.5,-409 167.5,-431 273.5,-431 273.5,-409 167.5,-409"/>
<text text-anchor="start" x="170.5" y="-417.2" font-family="Helvetica,sans-Serif" font-size="11.00">varchar[100]</text>
<polygon fill="none" stroke="black" points="10.5,-387 10.5,-409 167.5,-409 167.5,-387 10.5,-387"/>
<text text-anchor="start" x="30.5" y="-395.2" font-family="Helvetica,sans-Serif" font-size="11.00">abbr_en</text>
<polygon fill="none" stroke="black" points="167.5,-387 167.5,-409 273.5,-409 273.5,-387 167.5,-387"/>
<text text-anchor="start" x="170.5" y="-395.2" font-family="Helvetica,sans-Serif" font-size="11.00">varchar[3]</text>
<polygon fill="none" stroke="black" points="10.5,-365 10.5,-387 167.5,-387 167.5,-365 10.5,-365"/>
<text text-anchor="start" x="30.5" y="-373.2" font-family="Helvetica,sans-Serif" font-size="11.00">abbr_de</text>
<polygon fill="none" stroke="black" points="167.5,-365 167.5,-387 273.5,-387 273.5,-365 167.5,-365"/>
<text text-anchor="start" x="170.5" y="-373.2" font-family="Helvetica,sans-Serif" font-size="11.00">varchar[3]</text>
<polygon fill="none" stroke="black" points="10.5,-343 10.5,-365 167.5,-365 167.5,-343 10.5,-343"/>
<text text-anchor="start" x="30.5" y="-351.2" font-family="Helvetica,sans-Serif" font-size="11.00">abbr_fr</text>
<polygon fill="none" stroke="black" points="167.5,-343 167.5,-365 273.5,-365 273.5,-343 167.5,-343"/>
<text text-anchor="start" x="170.5" y="-351.2" font-family="Helvetica,sans-Serif" font-size="11.00">varchar[3]</text>
<polygon fill="none" stroke="black" points="10.5,-321 10.5,-343 167.5,-343 167.5,-321 10.5,-321"/>
<text text-anchor="start" x="30.5" y="-329.2" font-family="Helvetica,sans-Serif" font-size="11.00">abbr_it</text>
<polygon fill="none" stroke="black" points="167.5,-321 167.5,-343 273.5,-343 273.5,-321 167.5,-321"/>
<text text-anchor="start" x="170.5" y="-329.2" font-family="Helvetica,sans-Serif" font-size="11.00">varchar[3]</text>
<polygon fill="none" stroke="black" points="10.5,-299 10.5,-321 167.5,-321 167.5,-299 10.5,-299"/>
<text text-anchor="start" x="30.5" y="-307.2" font-family="Helvetica,sans-Serif" font-size="11.00">abbr_ro</text>
<polygon fill="none" stroke="black" points="167.5,-299 167.5,-321 273.5,-321 273.5,-299 167.5,-299"/>
<text text-anchor="start" x="170.5" y="-307.2" font-family="Helvetica,sans-Serif" font-size="11.00">varchar[3]</text>
<polygon fill="none" stroke="black" points="10.5,-277 10.5,-299 167.5,-299 167.5,-277 10.5,-277"/>
<text text-anchor="start" x="30.5" y="-285.2" font-family="Helvetica,sans-Serif" font-size="11.00">description_en</text>
<polygon fill="none" stroke="black" points="167.5,-277 167.5,-299 273.5,-299 273.5,-277 167.5,-277"/>
<text text-anchor="start" x="170.5" y="-285.2" font-family="Helvetica,sans-Serif" font-size="11.00">text[2147483647]</text>
<polygon fill="none" stroke="black" points="10.5,-255 10.5,-277 167.5,-277 167.5,-255 10.5,-255"/>
<text text-anchor="start" x="30.5" y="-263.2" font-family="Helvetica,sans-Serif" font-size="11.00">description_de</text>
<polygon fill="none" stroke="black" points="167.5,-255 167.5,-277 273.5,-277 273.5,-255 167.5,-255"/>
<text text-anchor="start" x="170.5" y="-263.2" font-family="Helvetica,sans-Serif" font-size="11.00">text[2147483647]</text>
<polygon fill="none" stroke="black" points="10.5,-233 10.5,-255 167.5,-255 167.5,-233 10.5,-233"/>
<text text-anchor="start" x="30.5" y="-241.2" font-family="Helvetica,sans-Serif" font-size="11.00">description_fr</text>
<polygon fill="none" stroke="black" points="167.5,-233 167.5,-255 273.5,-255 273.5,-233 167.5,-233"/>
<text text-anchor="start" x="170.5" y="-241.2" font-family="Helvetica,sans-Serif" font-size="11.00">text[2147483647]</text>
<polygon fill="none" stroke="black" points="10.5,-211 10.5,-233 167.5,-233 167.5,-211 10.5,-211"/>
<text text-anchor="start" x="30.5" y="-219.2" font-family="Helvetica,sans-Serif" font-size="11.00">description_it</text>
<polygon fill="none" stroke="black" points="167.5,-211 167.5,-233 273.5,-233 273.5,-211 167.5,-211"/>
<text text-anchor="start" x="170.5" y="-219.2" font-family="Helvetica,sans-Serif" font-size="11.00">text[2147483647]</text>
<polygon fill="none" stroke="black" points="10.5,-189 10.5,-211 167.5,-211 167.5,-189 10.5,-189"/>
<text text-anchor="start" x="30.5" y="-197.2" font-family="Helvetica,sans-Serif" font-size="11.00">description_ro</text>
<polygon fill="none" stroke="black" points="167.5,-189 167.5,-211 273.5,-211 273.5,-189 167.5,-189"/>
<text text-anchor="start" x="170.5" y="-197.2" font-family="Helvetica,sans-Serif" font-size="11.00">text[2147483647]</text>
<polygon fill="none" stroke="black" points="10.5,-167 10.5,-189 167.5,-189 167.5,-167 10.5,-167"/>
<text text-anchor="start" x="30.5" y="-175.2" font-family="Helvetica,sans-Serif" font-size="11.00">display_en</text>
<polygon fill="none" stroke="black" points="167.5,-167 167.5,-189 273.5,-189 273.5,-167 167.5,-167"/>
<text text-anchor="start" x="170.5" y="-175.2" font-family="Helvetica,sans-Serif" font-size="11.00">varchar[100]</text>
<polygon fill="none" stroke="black" points="10.5,-145 10.5,-167 167.5,-167 167.5,-145 10.5,-145"/>
<text text-anchor="start" x="30.5" y="-153.2" font-family="Helvetica,sans-Serif" font-size="11.00">display_de</text>
<polygon fill="none" stroke="black" points="167.5,-145 167.5,-167 273.5,-167 273.5,-145 167.5,-145"/>
<text text-anchor="start" x="170.5" y="-153.2" font-family="Helvetica,sans-Serif" font-size="11.00">varchar[100]</text>
<polygon fill="none" stroke="black" points="10.5,-123 10.5,-145 167.5,-145 167.5,-123 10.5,-123"/>
<text text-anchor="start" x="30.5" y="-131.2" font-family="Helvetica,sans-Serif" font-size="11.00">display_fr</text>
<polygon fill="none" stroke="black" points="167.5,-123 167.5,-145 273.5,-145 273.5,-123 167.5,-123"/>
<text text-anchor="start" x="170.5" y="-131.2" font-family="Helvetica,sans-Serif" font-size="11.00">varchar[100]</text>
<polygon fill="none" stroke="black" points="10.5,-101 10.5,-123 167.5,-123 167.5,-101 10.5,-101"/>
<text text-anchor="start" x="30.5" y="-109.2" font-family="Helvetica,sans-Serif" font-size="11.00">display_it</text>
<polygon fill="none" stroke="black" points="167.5,-101 167.5,-123 273.5,-123 273.5,-101 167.5,-101"/>
<text text-anchor="start" x="170.5" y="-109.2" font-family="Helvetica,sans-Serif" font-size="11.00">varchar[100]</text>
<polygon fill="none" stroke="black" points="10.5,-79 10.5,-101 167.5,-101 167.5,-79 10.5,-79"/>
<text text-anchor="start" x="30.5" y="-87.2" font-family="Helvetica,sans-Serif" font-size="11.00">display_ro</text>
<polygon fill="none" stroke="black" points="167.5,-79 167.5,-101 273.5,-101 273.5,-79 167.5,-79"/>
<text text-anchor="start" x="170.5" y="-87.2" font-family="Helvetica,sans-Serif" font-size="11.00">varchar[100]</text>
<polygon fill="none" stroke="black" points="10.5,-57 10.5,-79 167.5,-79 167.5,-57 10.5,-57"/>
<text text-anchor="start" x="30.5" y="-65.2" font-family="Helvetica,sans-Serif" font-size="11.00">active</text>
<polygon fill="none" stroke="black" points="167.5,-57 167.5,-79 273.5,-79 273.5,-57 167.5,-57"/>
<text text-anchor="start" x="170.5" y="-65.2" font-family="Helvetica,sans-Serif" font-size="11.00">bool[1]</text>
<polygon fill="#ffffff" stroke="transparent" points="10.5,-39 10.5,-57 273.5,-57 273.5,-39 10.5,-39"/>
<polygon fill="none" stroke="black" points="10.5,-39 10.5,-57 273.5,-57 273.5,-39 10.5,-39"/>
<polygon fill="#ffffff" stroke="transparent" points="11.5,-40 11.5,-56 102.5,-56 102.5,-40 11.5,-40"/>
<text text-anchor="start" x="13.5" y="-45.2" font-family="Helvetica,sans-Serif" font-size="11.00">&lt; 0</text>
<polygon fill="#ffffff" stroke="transparent" points="102.5,-40 102.5,-56 181.5,-56 181.5,-40 102.5,-40"/>
<text text-anchor="start" x="138" y="-45.2" font-family="Helvetica,sans-Serif" font-size="11.00"> &#160;</text>
<polygon fill="#ffffff" stroke="transparent" points="181.5,-40 181.5,-56 272.5,-56 272.5,-40 181.5,-40"/>
<text text-anchor="start" x="250.5" y="-45.2" font-family="Helvetica,sans-Serif" font-size="11.00">1 &gt;</text>
<polygon fill="black" stroke="black" points="102.5,-40 102.5,-56 102.5,-56 102.5,-40 102.5,-40"/>
<polygon fill="black" stroke="black" points="181.5,-40 181.5,-56 181.5,-56 181.5,-40 181.5,-40"/>
<polygon fill="none" stroke="black" stroke-width="2" points="9,-38 9,-586 274,-586 274,-38 9,-38"/>
</a>
</g>
</g>
<!-- tdh_od.trench&#45;&gt;trench_embedding -->
<g id="edge1" class="edge">
<title>tdh_od.trench:w&#45;&gt;trench_embedding:e</title>
<path fill="none" stroke="black" d="M308.28,-552C297.29,-552 290.16,-552 274.5,-552"/>
<polygon fill="black" stroke="black" points="315,-552 323,-555.6 319,-552 323,-552 323,-552 323,-552 319,-552 323,-548.4 315,-552 315,-552"/>
<ellipse fill="none" stroke="black" cx="311.8" cy="-552" rx="3.2" ry="3.2"/>
</g>
</g>
</svg>
