<?xml version="1.0" encoding="UTF-8" standalone="no"?>
<!DOCTYPE svg PUBLIC "-//W3C//DTD SVG 1.1//EN"
 "http://www.w3.org/Graphics/SVG/1.1/DTD/svg11.dtd">
<!-- Generated by graphviz version 2.43.0 (0)
 -->
<!-- Title: oneDegreeRelationshipsDiagram Pages: 1 -->
<svg width="518pt" height="443pt"
 viewBox="0.00 0.00 518.00 443.00" xmlns="http://www.w3.org/2000/svg" xmlns:xlink="http://www.w3.org/1999/xlink">
<g id="graph0" class="graph" transform="scale(1 1) rotate(0) translate(4 439)">
<title>oneDegreeRelationshipsDiagram</title>
<polygon fill="#ffffff" stroke="transparent" points="-4,4 -4,-439 514,-439 514,4 -4,4"/>
<text text-anchor="middle" x="79.5" y="-7.2" font-family="Helvetica,sans-Serif" font-size="11.00">Generated by SchemaSpy</text>
<!-- tdh_od.trench -->
<g id="node1" class="node">
<title>tdh_od.trench</title>
<g id="a_node1"><a xlink:href="../../../tdh_od/tables/trench.html" xlink:title="tdh_od.trench" target="_top">
<polygon fill="#ffffff" stroke="transparent" points="296,-241 296,-431 502,-431 502,-241 296,-241"/>
<polygon fill="#f5f5f5" stroke="transparent" points="296,-409 296,-431 502,-431 502,-409 296,-409"/>
<polygon fill="none" stroke="black" points="296,-409 296,-431 502,-431 502,-409 296,-409"/>
<text text-anchor="start" x="301" y="-418.2" font-family="Helvetica,sans-Serif" font-weight="bold" font-size="11.00">tdh_od.trench</text>
<text text-anchor="start" x="460" y="-417.2" font-family="Helvetica,sans-Serif" font-size="11.00">[table]</text>
<polygon fill="none" stroke="black" points="296,-387 296,-409 502,-409 502,-387 296,-387"/>
<image xlink:href="../../images/foreignKeys.png" width="11px" height="12px" preserveAspectRatio="xMinYMin meet" x="301" y="-404"/>
<text text-anchor="start" x="316" y="-395.2" font-family="Helvetica,sans-Serif" font-size="11.00">horizontal_positioning</text>
<polygon fill="none" stroke="black" points="296,-365 296,-387 502,-387 502,-365 296,-365"/>
<image xlink:href="../../images/foreignKeys.png" width="11px" height="12px" preserveAspectRatio="xMinYMin meet" x="301" y="-382"/>
<text text-anchor="start" x="316" y="-373.2" font-family="Helvetica,sans-Serif" font-size="11.00">status</text>
<polygon fill="none" stroke="black" points="296,-343 296,-365 502,-365 502,-343 296,-343"/>
<image xlink:href="../../images/foreignKeys.png" width="11px" height="12px" preserveAspectRatio="xMinYMin meet" x="301" y="-360"/>
<text text-anchor="start" x="316" y="-351.2" font-family="Helvetica,sans-Serif" font-size="11.00">trench_type</text>
<polygon fill="none" stroke="black" points="296,-321 296,-343 502,-343 502,-321 296,-321"/>
<image xlink:href="../../images/foreignKeys.png" width="11px" height="12px" preserveAspectRatio="xMinYMin meet" x="301" y="-338"/>
<text text-anchor="start" x="316" y="-329.2" font-family="Helvetica,sans-Serif" font-size="11.00">embedding</text>
<polygon fill="none" stroke="black" points="296,-299 296,-321 502,-321 502,-299 296,-299"/>
<image xlink:href="../../images/foreignKeys.png" width="11px" height="12px" preserveAspectRatio="xMinYMin meet" x="301" y="-316"/>
<text text-anchor="start" x="316" y="-307.2" font-family="Helvetica,sans-Serif" font-size="11.00">control_system</text>
<polygon fill="none" stroke="black" points="296,-277 296,-299 502,-299 502,-277 296,-277"/>
<image xlink:href="../../images/foreignKeys.png" width="11px" height="12px" preserveAspectRatio="xMinYMin meet" x="301" y="-294"/>
<text text-anchor="start" x="316" y="-285.2" font-family="Helvetica,sans-Serif" font-size="11.00">cable_conduits</text>
<polygon fill="none" stroke="black" points="296,-259 296,-277 502,-277 502,-259 296,-259"/>
<text text-anchor="start" x="299" y="-265.2" font-family="Helvetica,sans-Serif" font-size="11.00">...</text>
<polygon fill="#ffffff" stroke="transparent" points="296,-241 296,-259 502,-259 502,-241 296,-241"/>
<polygon fill="none" stroke="black" points="296,-241 296,-259 502,-259 502,-241 296,-241"/>
<polygon fill="#ffffff" stroke="transparent" points="297,-242 297,-258 364,-258 364,-242 297,-242"/>
<text text-anchor="start" x="299" y="-247.2" font-family="Helvetica,sans-Serif" font-size="11.00">&lt; 6</text>
<polygon fill="#ffffff" stroke="transparent" points="364,-242 364,-258 447,-258 447,-242 364,-242"/>
<text text-anchor="start" x="387" y="-247.2" font-family="Helvetica,sans-Serif" font-size="11.00">0 rows</text>
<polygon fill="#ffffff" stroke="transparent" points="447,-242 447,-258 501,-258 501,-242 447,-242"/>
<text text-anchor="start" x="491" y="-247.2" font-family="Helvetica,sans-Serif" font-size="11.00"> &#160;</text>
<polygon fill="black" stroke="black" points="364,-242 364,-258 364,-258 364,-242 364,-242"/>
<polygon fill="black" stroke="black" points="447,-242 447,-258 447,-258 447,-242 447,-242"/>
</a>
</g>
</g>
<!-- trench_embedding -->
<g id="node2" class="node">
<title>trench_embedding</title>
<g id="a_node2"><a xlink:href="../../tables/trench_embedding.html" xlink:title="trench_embedding" target="_top">
<polygon fill="#ffffff" stroke="transparent" points="8,-37 8,-367 247,-367 247,-37 8,-37"/>
<polygon fill="#f5f5f5" stroke="transparent" points="10.5,-343 10.5,-365 245.5,-365 245.5,-343 10.5,-343"/>
<polygon fill="none" stroke="black" points="10.5,-343 10.5,-365 245.5,-365 245.5,-343 10.5,-343"/>
<text text-anchor="start" x="15.5" y="-352.2" font-family="Helvetica,sans-Serif" font-weight="bold" font-size="11.00">trench_embedding</text>
<text text-anchor="start" x="203.5" y="-351.2" font-family="Helvetica,sans-Serif" font-size="11.00">[table]</text>
<polygon fill="none" stroke="black" points="10.5,-321 10.5,-343 167.5,-343 167.5,-321 10.5,-321"/>
<image xlink:href="../../images/primaryKeys.png" width="11px" height="12px" preserveAspectRatio="xMinYMin meet" x="15.5" y="-338"/>
<text text-anchor="start" x="30.5" y="-329.2" font-family="Helvetica,sans-Serif" font-size="11.00">code</text>
<polygon fill="none" stroke="black" points="167.5,-321 167.5,-343 245.5,-343 245.5,-321 167.5,-321"/>
<text text-anchor="start" x="170.5" y="-329.2" font-family="Helvetica,sans-Serif" font-size="11.00">int4[10]</text>
<polygon fill="none" stroke="black" points="10.5,-299 10.5,-321 167.5,-321 167.5,-299 10.5,-299"/>
<text text-anchor="start" x="30.5" y="-307.2" font-family="Helvetica,sans-Serif" font-size="11.00">vsacode</text>
<polygon fill="none" stroke="black" points="167.5,-299 167.5,-321 245.5,-321 245.5,-299 167.5,-299"/>
<text text-anchor="start" x="170.5" y="-307.2" font-family="Helvetica,sans-Serif" font-size="11.00">int4[10]</text>
<polygon fill="none" stroke="black" points="10.5,-277 10.5,-299 167.5,-299 167.5,-277 10.5,-277"/>
<text text-anchor="start" x="30.5" y="-285.2" font-family="Helvetica,sans-Serif" font-size="11.00">value_en</text>
<polygon fill="none" stroke="black" points="167.5,-277 167.5,-299 245.5,-299 245.5,-277 167.5,-277"/>
<text text-anchor="start" x="170.5" y="-285.2" font-family="Helvetica,sans-Serif" font-size="11.00">varchar[100]</text>
<polygon fill="none" stroke="black" points="10.5,-255 10.5,-277 167.5,-277 167.5,-255 10.5,-255"/>
<text text-anchor="start" x="30.5" y="-263.2" font-family="Helvetica,sans-Serif" font-size="11.00">value_de</text>
<polygon fill="none" stroke="black" points="167.5,-255 167.5,-277 245.5,-277 245.5,-255 167.5,-255"/>
<text text-anchor="start" x="170.5" y="-263.2" font-family="Helvetica,sans-Serif" font-size="11.00">varchar[100]</text>
<polygon fill="none" stroke="black" points="10.5,-233 10.5,-255 167.5,-255 167.5,-233 10.5,-233"/>
<text text-anchor="start" x="30.5" y="-241.2" font-family="Helvetica,sans-Serif" font-size="11.00">value_fr</text>
<polygon fill="none" stroke="black" points="167.5,-233 167.5,-255 245.5,-255 245.5,-233 167.5,-233"/>
<text text-anchor="start" x="170.5" y="-241.2" font-family="Helvetica,sans-Serif" font-size="11.00">varchar[100]</text>
<polygon fill="none" stroke="black" points="10.5,-211 10.5,-233 167.5,-233 167.5,-211 10.5,-211"/>
<text text-anchor="start" x="30.5" y="-219.2" font-family="Helvetica,sans-Serif" font-size="11.00">value_it</text>
<polygon fill="none" stroke="black" points="167.5,-211 167.5,-233 245.5,-233 245.5,-211 167.5,-211"/>
<text text-anchor="start" x="170.5" y="-219.2" font-family="Helvetica,sans-Serif" font-size="11.00">varchar[100]</text>
<polygon fill="none" stroke="black" points="10.5,-189 10.5,-211 167.5,-211 167.5,-189 10.5,-189"/>
<text text-anchor="start" x="30.5" y="-197.2" font-family="Helvetica,sans-Serif" font-size="11.00">value_ro</text>
<polygon fill="none" stroke="black" points="167.5,-189 167.5,-211 245.5,-211 245.5,-189 167.5,-189"/>
<text text-anchor="start" x="170.5" y="-197.2" font-family="Helvetica,sans-Serif" font-size="11.00">varchar[100]</text>
<polygon fill="none" stroke="black" points="10.5,-167 10.5,-189 167.5,-189 167.5,-167 10.5,-167"/>
<text text-anchor="start" x="30.5" y="-175.2" font-family="Helvetica,sans-Serif" font-size="11.00">abbr_en</text>
<polygon fill="none" stroke="black" points="167.5,-167 167.5,-189 245.5,-189 245.5,-167 167.5,-167"/>
<text text-anchor="start" x="170.5" y="-175.2" font-family="Helvetica,sans-Serif" font-size="11.00">varchar[3]</text>
<polygon fill="none" stroke="black" points="10.5,-145 10.5,-167 167.5,-167 167.5,-145 10.5,-145"/>
<text text-anchor="start" x="30.5" y="-153.2" font-family="Helvetica,sans-Serif" font-size="11.00">abbr_de</text>
<polygon fill="none" stroke="black" points="167.5,-145 167.5,-167 245.5,-167 245.5,-145 167.5,-145"/>
<text text-anchor="start" x="170.5" y="-153.2" font-family="Helvetica,sans-Serif" font-size="11.00">varchar[3]</text>
<polygon fill="none" stroke="black" points="10.5,-123 10.5,-145 167.5,-145 167.5,-123 10.5,-123"/>
<text text-anchor="start" x="30.5" y="-131.2" font-family="Helvetica,sans-Serif" font-size="11.00">abbr_fr</text>
<polygon fill="none" stroke="black" points="167.5,-123 167.5,-145 245.5,-145 245.5,-123 167.5,-123"/>
<text text-anchor="start" x="170.5" y="-131.2" font-family="Helvetica,sans-Serif" font-size="11.00">varchar[3]</text>
<polygon fill="none" stroke="black" points="10.5,-101 10.5,-123 167.5,-123 167.5,-101 10.5,-101"/>
<text text-anchor="start" x="30.5" y="-109.2" font-family="Helvetica,sans-Serif" font-size="11.00">abbr_it</text>
<polygon fill="none" stroke="black" points="167.5,-101 167.5,-123 245.5,-123 245.5,-101 167.5,-101"/>
<text text-anchor="start" x="170.5" y="-109.2" font-family="Helvetica,sans-Serif" font-size="11.00">varchar[3]</text>
<polygon fill="none" stroke="black" points="10.5,-79 10.5,-101 167.5,-101 167.5,-79 10.5,-79"/>
<text text-anchor="start" x="30.5" y="-87.2" font-family="Helvetica,sans-Serif" font-size="11.00">abbr_ro</text>
<polygon fill="none" stroke="black" points="167.5,-79 167.5,-101 245.5,-101 245.5,-79 167.5,-79"/>
<text text-anchor="start" x="170.5" y="-87.2" font-family="Helvetica,sans-Serif" font-size="11.00">varchar[3]</text>
<polygon fill="none" stroke="black" points="10.5,-57 10.5,-79 167.5,-79 167.5,-57 10.5,-57"/>
<text text-anchor="start" x="30.5" y="-65.2" font-family="Helvetica,sans-Serif" font-size="11.00">active</text>
<polygon fill="none" stroke="black" points="167.5,-57 167.5,-79 245.5,-79 245.5,-57 167.5,-57"/>
<text text-anchor="start" x="170.5" y="-65.2" font-family="Helvetica,sans-Serif" font-size="11.00">bool[1]</text>
<polygon fill="#ffffff" stroke="transparent" points="10.5,-39 10.5,-57 245.5,-57 245.5,-39 10.5,-39"/>
<polygon fill="none" stroke="black" points="10.5,-39 10.5,-57 245.5,-57 245.5,-39 10.5,-39"/>
<polygon fill="#ffffff" stroke="transparent" points="11.5,-40 11.5,-56 93.5,-56 93.5,-40 11.5,-40"/>
<text text-anchor="start" x="13.5" y="-45.2" font-family="Helvetica,sans-Serif" font-size="11.00">&lt; 0</text>
<polygon fill="#ffffff" stroke="transparent" points="93.5,-40 93.5,-56 163.5,-56 163.5,-40 93.5,-40"/>
<text text-anchor="start" x="124.5" y="-45.2" font-family="Helvetica,sans-Serif" font-size="11.00"> &#160;</text>
<polygon fill="#ffffff" stroke="transparent" points="163.5,-40 163.5,-56 244.5,-56 244.5,-40 163.5,-40"/>
<text text-anchor="start" x="222.5" y="-45.2" font-family="Helvetica,sans-Serif" font-size="11.00">1 &gt;</text>
<polygon fill="black" stroke="black" points="93.5,-40 93.5,-56 93.5,-56 93.5,-40 93.5,-40"/>
<polygon fill="black" stroke="black" points="163.5,-40 163.5,-56 163.5,-56 163.5,-40 163.5,-40"/>
<polygon fill="none" stroke="black" stroke-width="2" points="9,-38 9,-366 246,-366 246,-38 9,-38"/>
</a>
</g>
</g>
<!-- tdh_od.trench&#45;&gt;trench_embedding -->
<g id="edge1" class="edge">
<title>tdh_od.trench:w&#45;&gt;trench_embedding:e</title>
<path fill="none" stroke="black" d="M280.28,-332C269.29,-332 262.16,-332 246.5,-332"/>
<polygon fill="black" stroke="black" points="287,-332 295,-335.6 291,-332 295,-332 295,-332 295,-332 291,-332 295,-328.4 287,-332 287,-332"/>
<ellipse fill="none" stroke="black" cx="283.8" cy="-332" rx="3.2" ry="3.2"/>
</g>
</g>
</svg>
