<?xml version="1.0" encoding="UTF-8" standalone="no"?>
<!DOCTYPE svg PUBLIC "-//W3C//DTD SVG 1.1//EN"
 "http://www.w3.org/Graphics/SVG/1.1/DTD/svg11.dtd">
<!-- Generated by graphviz version 2.43.0 (0)
 -->
<!-- Title: oneDegreeRelationshipsDiagram Pages: 1 -->
<svg width="523pt" height="421pt"
 viewBox="0.00 0.00 523.00 421.00" xmlns="http://www.w3.org/2000/svg" xmlns:xlink="http://www.w3.org/1999/xlink">
<g id="graph0" class="graph" transform="scale(1 1) rotate(0) translate(4 417)">
<title>oneDegreeRelationshipsDiagram</title>
<polygon fill="#ffffff" stroke="transparent" points="-4,4 -4,-417 519,-417 519,4 -4,4"/>
<text text-anchor="middle" x="79.5" y="-7.2" font-family="Helvetica,sans-Serif" font-size="11.00">Generated by SchemaSpy</text>
<!-- tdh_od.trench -->
<g id="node1" class="node">
<title>tdh_od.trench</title>
<g id="a_node1"><a xlink:href="../../../tdh_od/tables/trench.html" xlink:title="tdh_od.trench" target="_top">
<polygon fill="#ffffff" stroke="transparent" points="301,-219 301,-409 507,-409 507,-219 301,-219"/>
<polygon fill="#f5f5f5" stroke="transparent" points="301,-387 301,-409 507,-409 507,-387 301,-387"/>
<polygon fill="none" stroke="black" points="301,-387 301,-409 507,-409 507,-387 301,-387"/>
<text text-anchor="start" x="306" y="-396.2" font-family="Helvetica,sans-Serif" font-weight="bold" font-size="11.00">tdh_od.trench</text>
<text text-anchor="start" x="465" y="-395.2" font-family="Helvetica,sans-Serif" font-size="11.00">[table]</text>
<polygon fill="none" stroke="black" points="301,-365 301,-387 507,-387 507,-365 301,-365"/>
<image xlink:href="../../images/foreignKeys.png" width="11px" height="12px" preserveAspectRatio="xMinYMin meet" x="306" y="-382"/>
<text text-anchor="start" x="321" y="-373.2" font-family="Helvetica,sans-Serif" font-size="11.00">horizontal_positioning</text>
<polygon fill="none" stroke="black" points="301,-343 301,-365 507,-365 507,-343 301,-343"/>
<image xlink:href="../../images/foreignKeys.png" width="11px" height="12px" preserveAspectRatio="xMinYMin meet" x="306" y="-360"/>
<text text-anchor="start" x="321" y="-351.2" font-family="Helvetica,sans-Serif" font-size="11.00">status</text>
<polygon fill="none" stroke="black" points="301,-321 301,-343 507,-343 507,-321 301,-321"/>
<image xlink:href="../../images/foreignKeys.png" width="11px" height="12px" preserveAspectRatio="xMinYMin meet" x="306" y="-338"/>
<text text-anchor="start" x="321" y="-329.2" font-family="Helvetica,sans-Serif" font-size="11.00">trench_type</text>
<polygon fill="none" stroke="black" points="301,-299 301,-321 507,-321 507,-299 301,-299"/>
<image xlink:href="../../images/foreignKeys.png" width="11px" height="12px" preserveAspectRatio="xMinYMin meet" x="306" y="-316"/>
<text text-anchor="start" x="321" y="-307.2" font-family="Helvetica,sans-Serif" font-size="11.00">embedding</text>
<polygon fill="none" stroke="black" points="301,-277 301,-299 507,-299 507,-277 301,-277"/>
<image xlink:href="../../images/foreignKeys.png" width="11px" height="12px" preserveAspectRatio="xMinYMin meet" x="306" y="-294"/>
<text text-anchor="start" x="321" y="-285.2" font-family="Helvetica,sans-Serif" font-size="11.00">control_system</text>
<polygon fill="none" stroke="black" points="301,-255 301,-277 507,-277 507,-255 301,-255"/>
<image xlink:href="../../images/foreignKeys.png" width="11px" height="12px" preserveAspectRatio="xMinYMin meet" x="306" y="-272"/>
<text text-anchor="start" x="321" y="-263.2" font-family="Helvetica,sans-Serif" font-size="11.00">cable_conduits</text>
<polygon fill="none" stroke="black" points="301,-237 301,-255 507,-255 507,-237 301,-237"/>
<text text-anchor="start" x="304" y="-243.2" font-family="Helvetica,sans-Serif" font-size="11.00">...</text>
<polygon fill="#ffffff" stroke="transparent" points="301,-219 301,-237 507,-237 507,-219 301,-219"/>
<polygon fill="none" stroke="black" points="301,-219 301,-237 507,-237 507,-219 301,-219"/>
<polygon fill="#ffffff" stroke="transparent" points="302,-220 302,-236 369,-236 369,-220 302,-220"/>
<text text-anchor="start" x="304" y="-225.2" font-family="Helvetica,sans-Serif" font-size="11.00">&lt; 6</text>
<polygon fill="#ffffff" stroke="transparent" points="369,-220 369,-236 452,-236 452,-220 369,-220"/>
<text text-anchor="start" x="392" y="-225.2" font-family="Helvetica,sans-Serif" font-size="11.00">0 rows</text>
<polygon fill="#ffffff" stroke="transparent" points="452,-220 452,-236 506,-236 506,-220 452,-220"/>
<text text-anchor="start" x="496" y="-225.2" font-family="Helvetica,sans-Serif" font-size="11.00"> &#160;</text>
<polygon fill="black" stroke="black" points="369,-220 369,-236 369,-236 369,-220 369,-220"/>
<polygon fill="black" stroke="black" points="452,-220 452,-236 452,-236 452,-220 452,-220"/>
</a>
</g>
</g>
<!-- trench_trench_type -->
<g id="node2" class="node">
<title>trench_trench_type</title>
<g id="a_node2"><a xlink:href="../../tables/trench_trench_type.html" xlink:title="trench_trench_type" target="_top">
<polygon fill="#ffffff" stroke="transparent" points="8,-37 8,-367 252,-367 252,-37 8,-37"/>
<polygon fill="#f5f5f5" stroke="transparent" points="10,-343 10,-365 250,-365 250,-343 10,-343"/>
<polygon fill="none" stroke="black" points="10,-343 10,-365 250,-365 250,-343 10,-343"/>
<text text-anchor="start" x="15" y="-352.2" font-family="Helvetica,sans-Serif" font-weight="bold" font-size="11.00">trench_trench_type</text>
<text text-anchor="start" x="208" y="-351.2" font-family="Helvetica,sans-Serif" font-size="11.00">[table]</text>
<polygon fill="none" stroke="black" points="10,-321 10,-343 172,-343 172,-321 10,-321"/>
<image xlink:href="../../images/primaryKeys.png" width="11px" height="12px" preserveAspectRatio="xMinYMin meet" x="15" y="-338"/>
<text text-anchor="start" x="30" y="-329.2" font-family="Helvetica,sans-Serif" font-size="11.00">code</text>
<polygon fill="none" stroke="black" points="172,-321 172,-343 250,-343 250,-321 172,-321"/>
<text text-anchor="start" x="175" y="-329.2" font-family="Helvetica,sans-Serif" font-size="11.00">int4[10]</text>
<polygon fill="none" stroke="black" points="10,-299 10,-321 172,-321 172,-299 10,-299"/>
<text text-anchor="start" x="30" y="-307.2" font-family="Helvetica,sans-Serif" font-size="11.00">vsacode</text>
<polygon fill="none" stroke="black" points="172,-299 172,-321 250,-321 250,-299 172,-299"/>
<text text-anchor="start" x="175" y="-307.2" font-family="Helvetica,sans-Serif" font-size="11.00">int4[10]</text>
<polygon fill="none" stroke="black" points="10,-277 10,-299 172,-299 172,-277 10,-277"/>
<text text-anchor="start" x="30" y="-285.2" font-family="Helvetica,sans-Serif" font-size="11.00">value_en</text>
<polygon fill="none" stroke="black" points="172,-277 172,-299 250,-299 250,-277 172,-277"/>
<text text-anchor="start" x="175" y="-285.2" font-family="Helvetica,sans-Serif" font-size="11.00">varchar[100]</text>
<polygon fill="none" stroke="black" points="10,-255 10,-277 172,-277 172,-255 10,-255"/>
<text text-anchor="start" x="30" y="-263.2" font-family="Helvetica,sans-Serif" font-size="11.00">value_de</text>
<polygon fill="none" stroke="black" points="172,-255 172,-277 250,-277 250,-255 172,-255"/>
<text text-anchor="start" x="175" y="-263.2" font-family="Helvetica,sans-Serif" font-size="11.00">varchar[100]</text>
<polygon fill="none" stroke="black" points="10,-233 10,-255 172,-255 172,-233 10,-233"/>
<text text-anchor="start" x="30" y="-241.2" font-family="Helvetica,sans-Serif" font-size="11.00">value_fr</text>
<polygon fill="none" stroke="black" points="172,-233 172,-255 250,-255 250,-233 172,-233"/>
<text text-anchor="start" x="175" y="-241.2" font-family="Helvetica,sans-Serif" font-size="11.00">varchar[100]</text>
<polygon fill="none" stroke="black" points="10,-211 10,-233 172,-233 172,-211 10,-211"/>
<text text-anchor="start" x="30" y="-219.2" font-family="Helvetica,sans-Serif" font-size="11.00">value_it</text>
<polygon fill="none" stroke="black" points="172,-211 172,-233 250,-233 250,-211 172,-211"/>
<text text-anchor="start" x="175" y="-219.2" font-family="Helvetica,sans-Serif" font-size="11.00">varchar[100]</text>
<polygon fill="none" stroke="black" points="10,-189 10,-211 172,-211 172,-189 10,-189"/>
<text text-anchor="start" x="30" y="-197.2" font-family="Helvetica,sans-Serif" font-size="11.00">value_ro</text>
<polygon fill="none" stroke="black" points="172,-189 172,-211 250,-211 250,-189 172,-189"/>
<text text-anchor="start" x="175" y="-197.2" font-family="Helvetica,sans-Serif" font-size="11.00">varchar[100]</text>
<polygon fill="none" stroke="black" points="10,-167 10,-189 172,-189 172,-167 10,-167"/>
<text text-anchor="start" x="30" y="-175.2" font-family="Helvetica,sans-Serif" font-size="11.00">abbr_en</text>
<polygon fill="none" stroke="black" points="172,-167 172,-189 250,-189 250,-167 172,-167"/>
<text text-anchor="start" x="175" y="-175.2" font-family="Helvetica,sans-Serif" font-size="11.00">varchar[3]</text>
<polygon fill="none" stroke="black" points="10,-145 10,-167 172,-167 172,-145 10,-145"/>
<text text-anchor="start" x="30" y="-153.2" font-family="Helvetica,sans-Serif" font-size="11.00">abbr_de</text>
<polygon fill="none" stroke="black" points="172,-145 172,-167 250,-167 250,-145 172,-145"/>
<text text-anchor="start" x="175" y="-153.2" font-family="Helvetica,sans-Serif" font-size="11.00">varchar[3]</text>
<polygon fill="none" stroke="black" points="10,-123 10,-145 172,-145 172,-123 10,-123"/>
<text text-anchor="start" x="30" y="-131.2" font-family="Helvetica,sans-Serif" font-size="11.00">abbr_fr</text>
<polygon fill="none" stroke="black" points="172,-123 172,-145 250,-145 250,-123 172,-123"/>
<text text-anchor="start" x="175" y="-131.2" font-family="Helvetica,sans-Serif" font-size="11.00">varchar[3]</text>
<polygon fill="none" stroke="black" points="10,-101 10,-123 172,-123 172,-101 10,-101"/>
<text text-anchor="start" x="30" y="-109.2" font-family="Helvetica,sans-Serif" font-size="11.00">abbr_it</text>
<polygon fill="none" stroke="black" points="172,-101 172,-123 250,-123 250,-101 172,-101"/>
<text text-anchor="start" x="175" y="-109.2" font-family="Helvetica,sans-Serif" font-size="11.00">varchar[3]</text>
<polygon fill="none" stroke="black" points="10,-79 10,-101 172,-101 172,-79 10,-79"/>
<text text-anchor="start" x="30" y="-87.2" font-family="Helvetica,sans-Serif" font-size="11.00">abbr_ro</text>
<polygon fill="none" stroke="black" points="172,-79 172,-101 250,-101 250,-79 172,-79"/>
<text text-anchor="start" x="175" y="-87.2" font-family="Helvetica,sans-Serif" font-size="11.00">varchar[3]</text>
<polygon fill="none" stroke="black" points="10,-57 10,-79 172,-79 172,-57 10,-57"/>
<text text-anchor="start" x="30" y="-65.2" font-family="Helvetica,sans-Serif" font-size="11.00">active</text>
<polygon fill="none" stroke="black" points="172,-57 172,-79 250,-79 250,-57 172,-57"/>
<text text-anchor="start" x="175" y="-65.2" font-family="Helvetica,sans-Serif" font-size="11.00">bool[1]</text>
<polygon fill="#ffffff" stroke="transparent" points="10,-39 10,-57 250,-57 250,-39 10,-39"/>
<polygon fill="none" stroke="black" points="10,-39 10,-57 250,-57 250,-39 10,-39"/>
<polygon fill="#ffffff" stroke="transparent" points="11,-40 11,-56 95,-56 95,-40 11,-40"/>
<text text-anchor="start" x="13" y="-45.2" font-family="Helvetica,sans-Serif" font-size="11.00">&lt; 0</text>
<polygon fill="#ffffff" stroke="transparent" points="95,-40 95,-56 166,-56 166,-40 95,-40"/>
<text text-anchor="start" x="126.5" y="-45.2" font-family="Helvetica,sans-Serif" font-size="11.00"> &#160;</text>
<polygon fill="#ffffff" stroke="transparent" points="166,-40 166,-56 249,-56 249,-40 166,-40"/>
<text text-anchor="start" x="227" y="-45.2" font-family="Helvetica,sans-Serif" font-size="11.00">1 &gt;</text>
<polygon fill="black" stroke="black" points="95,-40 95,-56 95,-56 95,-40 95,-40"/>
<polygon fill="black" stroke="black" points="166,-40 166,-56 166,-56 166,-40 166,-40"/>
<polygon fill="none" stroke="black" stroke-width="2" points="9,-38 9,-366 251,-366 251,-38 9,-38"/>
</a>
</g>
</g>
<!-- tdh_od.trench&#45;&gt;trench_trench_type -->
<g id="edge1" class="edge">
<title>tdh_od.trench:w&#45;&gt;trench_trench_type:e</title>
<path fill="none" stroke="black" d="M285.49,-332C274.18,-332 266.99,-332 251,-332"/>
<polygon fill="black" stroke="black" points="292,-332 300,-335.6 296,-332 300,-332 300,-332 300,-332 296,-332 300,-328.4 292,-332 292,-332"/>
<ellipse fill="none" stroke="black" cx="288.8" cy="-332" rx="3.2" ry="3.2"/>
</g>
</g>
</svg>
