<?xml version="1.0" encoding="UTF-8" standalone="no"?>
<!DOCTYPE svg PUBLIC "-//W3C//DTD SVG 1.1//EN"
 "http://www.w3.org/Graphics/SVG/1.1/DTD/svg11.dtd">
<!-- Generated by graphviz version 2.43.0 (0)
 -->
<!-- Title: oneDegreeRelationshipsDiagram Pages: 1 -->
<svg width="742pt" height="536pt"
 viewBox="0.00 0.00 742.00 536.00" xmlns="http://www.w3.org/2000/svg" xmlns:xlink="http://www.w3.org/1999/xlink">
<g id="graph0" class="graph" transform="scale(1 1) rotate(0) translate(4 532)">
<title>oneDegreeRelationshipsDiagram</title>
<polygon fill="#ffffff" stroke="transparent" points="-4,4 -4,-532 738,-532 738,4 -4,4"/>
<text text-anchor="middle" x="79.5" y="-7.2" font-family="Helvetica,sans-Serif" font-size="11.00">Generated by SchemaSpy</text>
<!-- data_media -->
<g id="node1" class="node">
<title>data_media</title>
<g id="a_node1"><a xlink:href="../../tables/data_media.html" xlink:title="data_media" target="_top">
<polygon fill="#ffffff" stroke="transparent" points="275,-152 275,-394 531,-394 531,-152 275,-152"/>
<polygon fill="#f5f5f5" stroke="transparent" points="277,-370 277,-392 529,-392 529,-370 277,-370"/>
<polygon fill="none" stroke="black" points="277,-370 277,-392 529,-392 529,-370 277,-370"/>
<text text-anchor="start" x="282" y="-379.2" font-family="Helvetica,sans-Serif" font-weight="bold" font-size="11.00">data_media</text>
<text text-anchor="start" x="487" y="-378.2" font-family="Helvetica,sans-Serif" font-size="11.00">[table]</text>
<polygon fill="none" stroke="black" points="277,-348 277,-370 423,-370 423,-348 277,-348"/>
<image xlink:href="../../images/primaryKeys.png" width="11px" height="12px" preserveAspectRatio="xMinYMin meet" x="282" y="-365"/>
<text text-anchor="start" x="297" y="-356.2" font-family="Helvetica,sans-Serif" font-size="11.00">obj_id</text>
<polygon fill="none" stroke="black" points="423,-348 423,-370 529,-370 529,-348 423,-348"/>
<text text-anchor="start" x="426" y="-356.2" font-family="Helvetica,sans-Serif" font-size="11.00">varchar[16]</text>
<polygon fill="#ffffff" stroke="transparent" points="277,-326 277,-348 423,-348 423,-326 277,-326"/>
<polygon fill="none" stroke="black" points="277,-326 277,-348 423,-348 423,-326 277,-326"/>
<text text-anchor="start" x="297" y="-334.2" font-family="Helvetica,sans-Serif" font-size="11.00">identifier</text>
<polygon fill="none" stroke="black" points="423,-326 423,-348 529,-348 529,-326 423,-326"/>
<text text-anchor="start" x="426" y="-334.2" font-family="Helvetica,sans-Serif" font-size="11.00">text[2147483647]</text>
<polygon fill="none" stroke="black" points="277,-304 277,-326 423,-326 423,-304 277,-304"/>
<image xlink:href="../../images/foreignKeys.png" width="11px" height="12px" preserveAspectRatio="xMinYMin meet" x="282" y="-321"/>
<text text-anchor="start" x="297" y="-312.2" font-family="Helvetica,sans-Serif" font-size="11.00">kind</text>
<polygon fill="none" stroke="black" points="423,-304 423,-326 529,-326 529,-304 423,-304"/>
<text text-anchor="start" x="426" y="-312.2" font-family="Helvetica,sans-Serif" font-size="11.00">int4[10]</text>
<polygon fill="none" stroke="black" points="277,-282 277,-304 423,-304 423,-282 277,-282"/>
<text text-anchor="start" x="297" y="-290.2" font-family="Helvetica,sans-Serif" font-size="11.00">location</text>
<polygon fill="none" stroke="black" points="423,-282 423,-304 529,-304 529,-282 423,-282"/>
<text text-anchor="start" x="426" y="-290.2" font-family="Helvetica,sans-Serif" font-size="11.00">text[2147483647]</text>
<polygon fill="none" stroke="black" points="277,-260 277,-282 423,-282 423,-260 277,-260"/>
<text text-anchor="start" x="297" y="-268.2" font-family="Helvetica,sans-Serif" font-size="11.00">path</text>
<polygon fill="none" stroke="black" points="423,-260 423,-282 529,-282 529,-260 423,-260"/>
<text text-anchor="start" x="426" y="-268.2" font-family="Helvetica,sans-Serif" font-size="11.00">text[2147483647]</text>
<polygon fill="none" stroke="black" points="277,-238 277,-260 423,-260 423,-238 277,-238"/>
<text text-anchor="start" x="297" y="-246.2" font-family="Helvetica,sans-Serif" font-size="11.00">remark</text>
<polygon fill="none" stroke="black" points="423,-238 423,-260 529,-260 529,-238 423,-238"/>
<text text-anchor="start" x="426" y="-246.2" font-family="Helvetica,sans-Serif" font-size="11.00">text[2147483647]</text>
<polygon fill="none" stroke="black" points="277,-216 277,-238 423,-238 423,-216 277,-216"/>
<text text-anchor="start" x="297" y="-224.2" font-family="Helvetica,sans-Serif" font-size="11.00">last_modification</text>
<polygon fill="none" stroke="black" points="423,-216 423,-238 529,-238 529,-216 423,-216"/>
<text text-anchor="start" x="426" y="-224.2" font-family="Helvetica,sans-Serif" font-size="11.00">timestamp[29,6]</text>
<polygon fill="#ffffff" stroke="transparent" points="277,-194 277,-216 423,-216 423,-194 277,-194"/>
<polygon fill="none" stroke="black" points="277,-194 277,-216 423,-216 423,-194 277,-194"/>
<image xlink:href="../../images/foreignKeys.png" width="11px" height="12px" preserveAspectRatio="xMinYMin meet" x="282" y="-211"/>
<text text-anchor="start" x="297" y="-202.2" font-family="Helvetica,sans-Serif" font-size="11.00">fk_dataowner</text>
<polygon fill="none" stroke="black" points="423,-194 423,-216 529,-216 529,-194 423,-194"/>
<text text-anchor="start" x="426" y="-202.2" font-family="Helvetica,sans-Serif" font-size="11.00">varchar[16]</text>
<polygon fill="none" stroke="black" points="277,-172 277,-194 423,-194 423,-172 277,-172"/>
<image xlink:href="../../images/foreignKeys.png" width="11px" height="12px" preserveAspectRatio="xMinYMin meet" x="282" y="-189"/>
<text text-anchor="start" x="297" y="-180.2" font-family="Helvetica,sans-Serif" font-size="11.00">fk_provider</text>
<polygon fill="none" stroke="black" points="423,-172 423,-194 529,-194 529,-172 423,-172"/>
<text text-anchor="start" x="426" y="-180.2" font-family="Helvetica,sans-Serif" font-size="11.00">varchar[16]</text>
<polygon fill="#ffffff" stroke="transparent" points="277,-154 277,-172 529,-172 529,-154 277,-154"/>
<polygon fill="none" stroke="black" points="277,-154 277,-172 529,-172 529,-154 277,-154"/>
<polygon fill="#ffffff" stroke="transparent" points="278,-155 278,-171 366,-171 366,-155 278,-155"/>
<text text-anchor="start" x="280" y="-160.2" font-family="Helvetica,sans-Serif" font-size="11.00">&lt; 3</text>
<polygon fill="#ffffff" stroke="transparent" points="366,-155 366,-171 441,-171 441,-155 366,-155"/>
<text text-anchor="start" x="399.5" y="-160.2" font-family="Helvetica,sans-Serif" font-size="11.00"> &#160;</text>
<polygon fill="#ffffff" stroke="transparent" points="441,-155 441,-171 528,-171 528,-155 441,-155"/>
<text text-anchor="start" x="506" y="-160.2" font-family="Helvetica,sans-Serif" font-size="11.00">1 &gt;</text>
<polygon fill="black" stroke="black" points="366,-155 366,-171 366,-171 366,-155 366,-155"/>
<polygon fill="black" stroke="black" points="441,-155 441,-171 441,-171 441,-155 441,-155"/>
<polygon fill="none" stroke="black" stroke-width="2" points="276,-153 276,-393 530,-393 530,-153 276,-153"/>
</a>
</g>
</g>
<!-- organisation -->
<g id="node2" class="node">
<title>organisation</title>
<g id="a_node2"><a xlink:href="../../tables/organisation.html" xlink:title="organisation" target="_top">
<polygon fill="#ffffff" stroke="transparent" points="30,-37 30,-227 204,-227 204,-37 30,-37"/>
<polygon fill="#f5f5f5" stroke="transparent" points="30,-205 30,-227 204,-227 204,-205 30,-205"/>
<polygon fill="none" stroke="black" points="30,-205 30,-227 204,-227 204,-205 30,-205"/>
<text text-anchor="start" x="35" y="-214.2" font-family="Helvetica,sans-Serif" font-weight="bold" font-size="11.00">organisation</text>
<text text-anchor="start" x="162" y="-213.2" font-family="Helvetica,sans-Serif" font-size="11.00">[table]</text>
<polygon fill="none" stroke="black" points="30,-183 30,-205 204,-205 204,-183 30,-183"/>
<image xlink:href="../../images/primaryKeys.png" width="11px" height="12px" preserveAspectRatio="xMinYMin meet" x="35" y="-200"/>
<text text-anchor="start" x="50" y="-191.2" font-family="Helvetica,sans-Serif" font-size="11.00">obj_id</text>
<polygon fill="#ffffff" stroke="transparent" points="30,-161 30,-183 204,-183 204,-161 30,-161"/>
<polygon fill="none" stroke="black" points="30,-161 30,-183 204,-183 204,-161 30,-161"/>
<text text-anchor="start" x="50" y="-169.2" font-family="Helvetica,sans-Serif" font-size="11.00">identifier</text>
<polygon fill="none" stroke="black" points="30,-139 30,-161 204,-161 204,-139 30,-139"/>
<image xlink:href="../../images/foreignKeys.png" width="11px" height="12px" preserveAspectRatio="xMinYMin meet" x="35" y="-156"/>
<text text-anchor="start" x="50" y="-147.2" font-family="Helvetica,sans-Serif" font-size="11.00">organisation_type</text>
<polygon fill="none" stroke="black" points="30,-117 30,-139 204,-139 204,-117 30,-117"/>
<image xlink:href="../../images/foreignKeys.png" width="11px" height="12px" preserveAspectRatio="xMinYMin meet" x="35" y="-134"/>
<text text-anchor="start" x="50" y="-125.2" font-family="Helvetica,sans-Serif" font-size="11.00">status</text>
<polygon fill="#ffffff" stroke="transparent" points="30,-95 30,-117 204,-117 204,-95 30,-95"/>
<polygon fill="none" stroke="black" points="30,-95 30,-117 204,-117 204,-95 30,-95"/>
<image xlink:href="../../images/foreignKeys.png" width="11px" height="12px" preserveAspectRatio="xMinYMin meet" x="35" y="-112"/>
<text text-anchor="start" x="50" y="-103.2" font-family="Helvetica,sans-Serif" font-size="11.00">fk_dataowner</text>
<polygon fill="none" stroke="black" points="30,-73 30,-95 204,-95 204,-73 30,-73"/>
<image xlink:href="../../images/foreignKeys.png" width="11px" height="12px" preserveAspectRatio="xMinYMin meet" x="35" y="-90"/>
<text text-anchor="start" x="50" y="-81.2" font-family="Helvetica,sans-Serif" font-size="11.00">fk_provider</text>
<polygon fill="none" stroke="black" points="30,-55 30,-73 204,-73 204,-55 30,-55"/>
<text text-anchor="start" x="33" y="-61.2" font-family="Helvetica,sans-Serif" font-size="11.00">...</text>
<polygon fill="#ffffff" stroke="transparent" points="30,-37 30,-55 204,-55 204,-37 30,-37"/>
<polygon fill="none" stroke="black" points="30,-37 30,-55 204,-55 204,-37 30,-37"/>
<polygon fill="#ffffff" stroke="transparent" points="31,-38 31,-54 90,-54 90,-38 31,-38"/>
<text text-anchor="start" x="33" y="-43.2" font-family="Helvetica,sans-Serif" font-size="11.00">&lt; 4</text>
<polygon fill="#ffffff" stroke="transparent" points="90,-38 90,-54 137,-54 137,-38 90,-38"/>
<text text-anchor="start" x="109.5" y="-43.2" font-family="Helvetica,sans-Serif" font-size="11.00"> &#160;</text>
<polygon fill="#ffffff" stroke="transparent" points="137,-38 137,-54 203,-54 203,-38 137,-38"/>
<text text-anchor="start" x="174" y="-43.2" font-family="Helvetica,sans-Serif" font-size="11.00">33 &gt;</text>
<polygon fill="black" stroke="black" points="90,-38 90,-54 90,-54 90,-38 90,-38"/>
<polygon fill="black" stroke="black" points="137,-38 137,-54 137,-54 137,-38 137,-38"/>
</a>
</g>
</g>
<!-- data_media&#45;&gt;organisation -->
<g id="edge1" class="edge">
<title>data_media:w&#45;&gt;organisation:e</title>
<path fill="none" stroke="black" d="M261.48,-204.14C240.88,-201.54 231.44,-194 205,-194"/>
<polygon fill="black" stroke="black" points="268.01,-204.53 275.79,-208.59 272.01,-204.76 276,-205 276,-205 276,-205 272.01,-204.76 276.21,-201.41 268.01,-204.53 268.01,-204.53"/>
<ellipse fill="none" stroke="black" cx="264.82" cy="-204.34" rx="3.2" ry="3.2"/>
</g>
<!-- data_media&#45;&gt;organisation -->
<g id="edge2" class="edge">
<title>data_media:w&#45;&gt;organisation:e</title>
<path fill="none" stroke="black" d="M261.48,-183.86C240.88,-186.46 231.44,-194 205,-194"/>
<polygon fill="black" stroke="black" points="268.01,-183.47 276.21,-186.59 272.01,-183.24 276,-183 276,-183 276,-183 272.01,-183.24 275.79,-179.41 268.01,-183.47 268.01,-183.47"/>
<ellipse fill="none" stroke="black" cx="264.82" cy="-183.66" rx="3.2" ry="3.2"/>
</g>
<!-- tdh_vl.data_media_kind -->
<g id="node3" class="node">
<title>tdh_vl.data_media_kind</title>
<g id="a_node3"><a xlink:href="../../../tdh_vl/tables/data_media_kind.html" xlink:title="tdh_vl.data_media_kind" target="_top">
<polygon fill="#ffffff" stroke="transparent" points="8,-286 8,-344 226,-344 226,-286 8,-286"/>
<polygon fill="#f5f5f5" stroke="transparent" points="8,-322 8,-344 226,-344 226,-322 8,-322"/>
<polygon fill="none" stroke="black" points="8,-322 8,-344 226,-344 226,-322 8,-322"/>
<text text-anchor="start" x="13" y="-331.2" font-family="Helvetica,sans-Serif" font-weight="bold" font-size="11.00">tdh_vl.data_media_kind</text>
<text text-anchor="start" x="184" y="-330.2" font-family="Helvetica,sans-Serif" font-size="11.00">[table]</text>
<polygon fill="none" stroke="black" points="8,-304 8,-322 226,-322 226,-304 8,-304"/>
<text text-anchor="start" x="11" y="-310.2" font-family="Helvetica,sans-Serif" font-size="11.00">...</text>
<polygon fill="#ffffff" stroke="transparent" points="8,-286 8,-304 226,-304 226,-286 8,-286"/>
<polygon fill="none" stroke="black" points="8,-286 8,-304 226,-304 226,-286 8,-286"/>
<polygon fill="#ffffff" stroke="transparent" points="9,-287 9,-303 68,-303 68,-287 9,-287"/>
<text text-anchor="start" x="11" y="-292.2" font-family="Helvetica,sans-Serif" font-size="11.00"> &#160;</text>
<polygon fill="#ffffff" stroke="transparent" points="68,-287 68,-303 155,-303 155,-287 68,-287"/>
<text text-anchor="start" x="93" y="-292.2" font-family="Helvetica,sans-Serif" font-size="11.00">0 rows</text>
<polygon fill="#ffffff" stroke="transparent" points="155,-287 155,-303 225,-303 225,-287 155,-287"/>
<text text-anchor="start" x="203" y="-292.2" font-family="Helvetica,sans-Serif" font-size="11.00">1 &gt;</text>
<polygon fill="black" stroke="black" points="68,-287 68,-303 68,-303 68,-287 68,-287"/>
<polygon fill="black" stroke="black" points="155,-287 155,-303 155,-303 155,-287 155,-287"/>
</a>
</g>
</g>
<!-- data_media&#45;&gt;tdh_vl.data_media_kind -->
<g id="edge3" class="edge">
<title>data_media:w&#45;&gt;tdh_vl.data_media_kind:e</title>
<path fill="none" stroke="black" d="M261.47,-315C252.43,-315 243.22,-315 234.06,-315"/>
<polygon fill="black" stroke="black" points="268,-315 276,-318.6 272,-315 276,-315 276,-315 276,-315 272,-315 276,-311.4 268,-315 268,-315"/>
<ellipse fill="none" stroke="black" cx="264.8" cy="-315" rx="3.2" ry="3.2"/>
</g>
<!-- file -->
<g id="node4" class="node">
<title>file</title>
<g id="a_node4"><a xlink:href="../../tables/file.html" xlink:title="file" target="_top">
<polygon fill="#ffffff" stroke="transparent" points="580,-312 580,-524 726,-524 726,-312 580,-312"/>
<polygon fill="#f5f5f5" stroke="transparent" points="580,-502 580,-524 726,-524 726,-502 580,-502"/>
<polygon fill="none" stroke="black" points="580,-502 580,-524 726,-524 726,-502 580,-502"/>
<text text-anchor="start" x="584.5" y="-511.2" font-family="Helvetica,sans-Serif" font-weight="bold" font-size="11.00">file</text>
<text text-anchor="start" x="684" y="-510.2" font-family="Helvetica,sans-Serif" font-size="11.00">[table]</text>
<polygon fill="none" stroke="black" points="580,-480 580,-502 726,-502 726,-480 580,-480"/>
<image xlink:href="../../images/primaryKeys.png" width="11px" height="12px" preserveAspectRatio="xMinYMin meet" x="585" y="-497"/>
<text text-anchor="start" x="600" y="-488.2" font-family="Helvetica,sans-Serif" font-size="11.00">obj_id</text>
<polygon fill="none" stroke="black" points="580,-458 580,-480 726,-480 726,-458 580,-458"/>
<image xlink:href="../../images/foreignKeys.png" width="11px" height="12px" preserveAspectRatio="xMinYMin meet" x="585" y="-475"/>
<text text-anchor="start" x="600" y="-466.2" font-family="Helvetica,sans-Serif" font-size="11.00">classname</text>
<polygon fill="#ffffff" stroke="transparent" points="580,-436 580,-458 726,-458 726,-436 580,-436"/>
<polygon fill="none" stroke="black" points="580,-436 580,-458 726,-458 726,-436 580,-436"/>
<text text-anchor="start" x="600" y="-444.2" font-family="Helvetica,sans-Serif" font-size="11.00">identifier</text>
<polygon fill="none" stroke="black" points="580,-414 580,-436 726,-436 726,-414 580,-414"/>
<image xlink:href="../../images/foreignKeys.png" width="11px" height="12px" preserveAspectRatio="xMinYMin meet" x="585" y="-431"/>
<text text-anchor="start" x="600" y="-422.2" font-family="Helvetica,sans-Serif" font-size="11.00">kind</text>
<polygon fill="#ffffff" stroke="transparent" points="580,-392 580,-414 726,-414 726,-392 580,-392"/>
<polygon fill="none" stroke="black" points="580,-392 580,-414 726,-414 726,-392 580,-392"/>
<image xlink:href="../../images/foreignKeys.png" width="11px" height="12px" preserveAspectRatio="xMinYMin meet" x="585" y="-409"/>
<text text-anchor="start" x="600" y="-400.2" font-family="Helvetica,sans-Serif" font-size="11.00">fk_dataowner</text>
<polygon fill="none" stroke="black" points="580,-370 580,-392 726,-392 726,-370 580,-370"/>
<image xlink:href="../../images/foreignKeys.png" width="11px" height="12px" preserveAspectRatio="xMinYMin meet" x="585" y="-387"/>
<text text-anchor="start" x="600" y="-378.2" font-family="Helvetica,sans-Serif" font-size="11.00">fk_provider</text>
<polygon fill="none" stroke="black" points="580,-348 580,-370 726,-370 726,-348 580,-348"/>
<image xlink:href="../../images/foreignKeys.png" width="11px" height="12px" preserveAspectRatio="xMinYMin meet" x="585" y="-365"/>
<text text-anchor="start" x="600" y="-356.2" font-family="Helvetica,sans-Serif" font-size="11.00">fk_data_media</text>
<polygon fill="none" stroke="black" points="580,-330 580,-348 726,-348 726,-330 580,-330"/>
<text text-anchor="start" x="583" y="-336.2" font-family="Helvetica,sans-Serif" font-size="11.00">...</text>
<polygon fill="#ffffff" stroke="transparent" points="580,-312 580,-330 726,-330 726,-312 580,-312"/>
<polygon fill="none" stroke="black" points="580,-312 580,-330 726,-330 726,-312 580,-312"/>
<polygon fill="#ffffff" stroke="transparent" points="581,-313 581,-329 637,-329 637,-313 581,-313"/>
<text text-anchor="start" x="583" y="-318.2" font-family="Helvetica,sans-Serif" font-size="11.00">&lt; 5</text>
<polygon fill="#ffffff" stroke="transparent" points="637,-313 637,-329 681,-329 681,-313 637,-313"/>
<text text-anchor="start" x="655" y="-318.2" font-family="Helvetica,sans-Serif" font-size="11.00"> &#160;</text>
<polygon fill="#ffffff" stroke="transparent" points="681,-313 681,-329 725,-329 725,-313 681,-313"/>
<text text-anchor="start" x="715" y="-318.2" font-family="Helvetica,sans-Serif" font-size="11.00"> &#160;</text>
<polygon fill="black" stroke="black" points="637,-313 637,-329 637,-329 637,-313 637,-313"/>
<polygon fill="black" stroke="black" points="681,-313 681,-329 681,-329 681,-313 681,-313"/>
</a>
</g>
</g>
<!-- file&#45;&gt;data_media -->
<g id="edge4" class="edge">
<title>file:w&#45;&gt;data_media:e</title>
<path fill="none" stroke="black" d="M564.49,-359C553.18,-359 545.99,-359 530,-359"/>
<polygon fill="black" stroke="black" points="571,-359 579,-362.6 575,-359 579,-359 579,-359 579,-359 575,-359 579,-355.4 571,-359 571,-359"/>
<ellipse fill="none" stroke="black" cx="567.8" cy="-359" rx="3.2" ry="3.2"/>
</g>
<!-- file&#45;&gt;organisation -->
<g id="edge5" class="edge">
<title>file:w&#45;&gt;organisation:e</title>
<path fill="none" stroke="black" d="M564.26,-403.33C435.66,-409.07 372.58,-486.97 267,-405 189.79,-345.06 302.74,-194 205,-194"/>
<polygon fill="black" stroke="black" points="571,-403.18 579.08,-406.6 575,-403.09 579,-403 579,-403 579,-403 575,-403.09 578.92,-399.4 571,-403.18 571,-403.18"/>
<ellipse fill="none" stroke="black" cx="567.8" cy="-403.25" rx="3.2" ry="3.2"/>
</g>
<!-- file&#45;&gt;organisation -->
<g id="edge6" class="edge">
<title>file:w&#45;&gt;organisation:e</title>
<path fill="none" stroke="black" d="M565.74,-375.07C535.32,-341.27 575.93,-173.26 539,-142 446.73,-63.89 380.6,-100.67 267,-142 233.2,-154.3 240.96,-194 205,-194"/>
<polygon fill="black" stroke="black" points="571.7,-377.73 577.53,-384.29 575.35,-379.37 579,-381 579,-381 579,-381 575.35,-379.37 580.47,-377.71 571.7,-377.73 571.7,-377.73"/>
<ellipse fill="none" stroke="black" cx="568.78" cy="-376.43" rx="3.2" ry="3.2"/>
</g>
</g>
</svg>
