<?xml version="1.0" encoding="UTF-8" standalone="no"?>
<!DOCTYPE svg PUBLIC "-//W3C//DTD SVG 1.1//EN"
 "http://www.w3.org/Graphics/SVG/1.1/DTD/svg11.dtd">
<!-- Generated by graphviz version 2.43.0 (0)
 -->
<!-- Title: oneDegreeRelationshipsDiagram Pages: 1 -->
<svg width="666pt" height="498pt"
 viewBox="0.00 0.00 666.00 498.00" xmlns="http://www.w3.org/2000/svg" xmlns:xlink="http://www.w3.org/1999/xlink">
<g id="graph0" class="graph" transform="scale(1 1) rotate(0) translate(4 494)">
<title>oneDegreeRelationshipsDiagram</title>
<polygon fill="#ffffff" stroke="transparent" points="-4,4 -4,-494 662,-494 662,4 -4,4"/>
<text text-anchor="middle" x="79.5" y="-7.2" font-family="Helvetica,sans-Serif" font-size="11.00">Generated by SchemaSpy</text>
<!-- pipe_point_normal -->
<g id="node1" class="node">
<title>pipe_point_normal</title>
<g id="a_node1"><a xlink:href="../../tables/pipe_point_normal.html" xlink:title="pipe_point_normal" target="_top">
<polygon fill="#ffffff" stroke="transparent" points="420,-120 420,-252 650,-252 650,-120 420,-120"/>
<polygon fill="#f5f5f5" stroke="transparent" points="422,-228 422,-250 648,-250 648,-228 422,-228"/>
<polygon fill="none" stroke="black" points="422,-228 422,-250 648,-250 648,-228 422,-228"/>
<text text-anchor="start" x="427" y="-237.2" font-family="Helvetica,sans-Serif" font-weight="bold" font-size="11.00">pipe_point_normal</text>
<text text-anchor="start" x="606" y="-236.2" font-family="Helvetica,sans-Serif" font-size="11.00">[table]</text>
<polygon fill="none" stroke="black" points="422,-206 422,-228 577,-228 577,-206 422,-206"/>
<image xlink:href="../../images/primaryKeys.png" width="11px" height="12px" preserveAspectRatio="xMinYMin meet" x="427" y="-223"/>
<text text-anchor="start" x="442" y="-214.2" font-family="Helvetica,sans-Serif" font-size="11.00">obj_id</text>
<polygon fill="none" stroke="black" points="577,-206 577,-228 648,-228 648,-206 577,-206"/>
<text text-anchor="start" x="580" y="-214.2" font-family="Helvetica,sans-Serif" font-size="11.00">varchar[16]</text>
<polygon fill="none" stroke="black" points="422,-184 422,-206 577,-206 577,-184 422,-184"/>
<image xlink:href="../../images/foreignKeys.png" width="11px" height="12px" preserveAspectRatio="xMinYMin meet" x="427" y="-201"/>
<text text-anchor="start" x="442" y="-192.2" font-family="Helvetica,sans-Serif" font-size="11.00">kind</text>
<polygon fill="none" stroke="black" points="577,-184 577,-206 648,-206 648,-184 577,-184"/>
<text text-anchor="start" x="580" y="-192.2" font-family="Helvetica,sans-Serif" font-size="11.00">int4[10]</text>
<polygon fill="none" stroke="black" points="422,-162 422,-184 577,-184 577,-162 422,-162"/>
<image xlink:href="../../images/foreignKeys.png" width="11px" height="12px" preserveAspectRatio="xMinYMin meet" x="427" y="-179"/>
<text text-anchor="start" x="442" y="-170.2" font-family="Helvetica,sans-Serif" font-size="11.00">armature_setting</text>
<polygon fill="none" stroke="black" points="577,-162 577,-184 648,-184 648,-162 577,-162"/>
<text text-anchor="start" x="580" y="-170.2" font-family="Helvetica,sans-Serif" font-size="11.00">int4[10]</text>
<polygon fill="none" stroke="black" points="422,-140 422,-162 577,-162 577,-140 422,-140"/>
<image xlink:href="../../images/foreignKeys.png" width="11px" height="12px" preserveAspectRatio="xMinYMin meet" x="427" y="-157"/>
<text text-anchor="start" x="442" y="-148.2" font-family="Helvetica,sans-Serif" font-size="11.00">material</text>
<polygon fill="none" stroke="black" points="577,-140 577,-162 648,-162 648,-140 577,-140"/>
<text text-anchor="start" x="580" y="-148.2" font-family="Helvetica,sans-Serif" font-size="11.00">int4[10]</text>
<polygon fill="#ffffff" stroke="transparent" points="422,-122 422,-140 648,-140 648,-122 422,-122"/>
<polygon fill="none" stroke="black" points="422,-122 422,-140 648,-140 648,-122 422,-122"/>
<polygon fill="#ffffff" stroke="transparent" points="423,-123 423,-139 502,-139 502,-123 423,-123"/>
<text text-anchor="start" x="425" y="-128.2" font-family="Helvetica,sans-Serif" font-size="11.00">&lt; 4</text>
<polygon fill="#ffffff" stroke="transparent" points="502,-123 502,-139 569,-139 569,-123 502,-123"/>
<text text-anchor="start" x="531.5" y="-128.2" font-family="Helvetica,sans-Serif" font-size="11.00"> &#160;</text>
<polygon fill="#ffffff" stroke="transparent" points="569,-123 569,-139 647,-139 647,-123 569,-123"/>
<text text-anchor="start" x="625" y="-128.2" font-family="Helvetica,sans-Serif" font-size="11.00">0 &gt;</text>
<polygon fill="black" stroke="black" points="502,-123 502,-139 502,-139 502,-123 502,-123"/>
<polygon fill="black" stroke="black" points="569,-123 569,-139 569,-139 569,-123 569,-123"/>
<polygon fill="none" stroke="black" stroke-width="2" points="421,-121 421,-251 649,-251 649,-121 421,-121"/>
</a>
</g>
</g>
<!-- tdh_vl.pipe_point_normal_armature_setting -->
<g id="node2" class="node">
<title>tdh_vl.pipe_point_normal_armature_setting</title>
<g id="a_node2"><a xlink:href="../../../tdh_vl/tables/pipe_point_normal_armature_setting.html" xlink:title="tdh_vl.pipe_point_normal_armature_setting" target="_top">
<polygon fill="#ffffff" stroke="transparent" points="8,-116 8,-174 371,-174 371,-116 8,-116"/>
<polygon fill="#f5f5f5" stroke="transparent" points="8.5,-152 8.5,-174 371.5,-174 371.5,-152 8.5,-152"/>
<polygon fill="none" stroke="black" points="8.5,-152 8.5,-174 371.5,-174 371.5,-152 8.5,-152"/>
<text text-anchor="start" x="13.5" y="-161.2" font-family="Helvetica,sans-Serif" font-weight="bold" font-size="11.00">tdh_vl.pipe_point_normal_armature_setting</text>
<text text-anchor="start" x="329.5" y="-160.2" font-family="Helvetica,sans-Serif" font-size="11.00">[table]</text>
<polygon fill="none" stroke="black" points="8.5,-134 8.5,-152 371.5,-152 371.5,-134 8.5,-134"/>
<text text-anchor="start" x="11.5" y="-140.2" font-family="Helvetica,sans-Serif" font-size="11.00">...</text>
<polygon fill="#ffffff" stroke="transparent" points="8.5,-116 8.5,-134 371.5,-134 371.5,-116 8.5,-116"/>
<polygon fill="none" stroke="black" points="8.5,-116 8.5,-134 371.5,-134 371.5,-116 8.5,-116"/>
<polygon fill="#ffffff" stroke="transparent" points="9.5,-117 9.5,-133 116.5,-133 116.5,-117 9.5,-117"/>
<text text-anchor="start" x="11.5" y="-122.2" font-family="Helvetica,sans-Serif" font-size="11.00"> &#160;</text>
<polygon fill="#ffffff" stroke="transparent" points="116.5,-117 116.5,-133 252.5,-133 252.5,-117 116.5,-117"/>
<text text-anchor="start" x="166" y="-122.2" font-family="Helvetica,sans-Serif" font-size="11.00">0 rows</text>
<polygon fill="#ffffff" stroke="transparent" points="252.5,-117 252.5,-133 370.5,-133 370.5,-117 252.5,-117"/>
<text text-anchor="start" x="348.5" y="-122.2" font-family="Helvetica,sans-Serif" font-size="11.00">1 &gt;</text>
<polygon fill="black" stroke="black" points="116.5,-117 116.5,-133 116.5,-133 116.5,-117 116.5,-117"/>
<polygon fill="black" stroke="black" points="252.5,-117 252.5,-133 252.5,-133 252.5,-117 252.5,-117"/>
</a>
</g>
</g>
<!-- pipe_point_normal&#45;&gt;tdh_vl.pipe_point_normal_armature_setting -->
<g id="edge1" class="edge">
<title>pipe_point_normal:w&#45;&gt;tdh_vl.pipe_point_normal_armature_setting:e</title>
<path fill="none" stroke="black" d="M406.51,-172.83C397.53,-172.61 388.42,-172.22 379.27,-171.67"/>
<polygon fill="black" stroke="black" points="413,-172.9 420.96,-176.6 417,-172.95 421,-173 421,-173 421,-173 417,-172.95 421.04,-169.4 413,-172.9 413,-172.9"/>
<ellipse fill="none" stroke="black" cx="409.8" cy="-172.86" rx="3.2" ry="3.2"/>
</g>
<!-- tdh_vl.pipe_point_normal_kind -->
<g id="node3" class="node">
<title>tdh_vl.pipe_point_normal_kind</title>
<g id="a_node3"><a xlink:href="../../../tdh_vl/tables/pipe_point_normal_kind.html" xlink:title="tdh_vl.pipe_point_normal_kind" target="_top">
<polygon fill="#ffffff" stroke="transparent" points="55.5,-195 55.5,-253 323.5,-253 323.5,-195 55.5,-195"/>
<polygon fill="#f5f5f5" stroke="transparent" points="55.5,-231 55.5,-253 323.5,-253 323.5,-231 55.5,-231"/>
<polygon fill="none" stroke="black" points="55.5,-231 55.5,-253 323.5,-253 323.5,-231 55.5,-231"/>
<text text-anchor="start" x="60.5" y="-240.2" font-family="Helvetica,sans-Serif" font-weight="bold" font-size="11.00">tdh_vl.pipe_point_normal_kind</text>
<text text-anchor="start" x="281.5" y="-239.2" font-family="Helvetica,sans-Serif" font-size="11.00">[table]</text>
<polygon fill="none" stroke="black" points="55.5,-213 55.5,-231 323.5,-231 323.5,-213 55.5,-213"/>
<text text-anchor="start" x="58.5" y="-219.2" font-family="Helvetica,sans-Serif" font-size="11.00">...</text>
<polygon fill="#ffffff" stroke="transparent" points="55.5,-195 55.5,-213 323.5,-213 323.5,-195 55.5,-195"/>
<polygon fill="none" stroke="black" points="55.5,-195 55.5,-213 323.5,-213 323.5,-195 55.5,-195"/>
<polygon fill="#ffffff" stroke="transparent" points="56.5,-196 56.5,-212 131.5,-212 131.5,-196 56.5,-196"/>
<text text-anchor="start" x="58.5" y="-201.2" font-family="Helvetica,sans-Serif" font-size="11.00"> &#160;</text>
<polygon fill="#ffffff" stroke="transparent" points="131.5,-196 131.5,-212 235.5,-212 235.5,-196 131.5,-196"/>
<text text-anchor="start" x="165" y="-201.2" font-family="Helvetica,sans-Serif" font-size="11.00">0 rows</text>
<polygon fill="#ffffff" stroke="transparent" points="235.5,-196 235.5,-212 322.5,-212 322.5,-196 235.5,-196"/>
<text text-anchor="start" x="300.5" y="-201.2" font-family="Helvetica,sans-Serif" font-size="11.00">1 &gt;</text>
<polygon fill="black" stroke="black" points="131.5,-196 131.5,-212 131.5,-212 131.5,-196 131.5,-196"/>
<polygon fill="black" stroke="black" points="235.5,-196 235.5,-212 235.5,-212 235.5,-196 235.5,-196"/>
</a>
</g>
</g>
<!-- pipe_point_normal&#45;&gt;tdh_vl.pipe_point_normal_kind -->
<g id="edge2" class="edge">
<title>pipe_point_normal:w&#45;&gt;tdh_vl.pipe_point_normal_kind:e</title>
<path fill="none" stroke="black" d="M406.57,-195.18C381.85,-195.78 356.19,-197.83 331.55,-200.59"/>
<polygon fill="black" stroke="black" points="413,-195.1 421.04,-198.6 417,-195.05 421,-195 421,-195 421,-195 417,-195.05 420.96,-191.4 413,-195.1 413,-195.1"/>
<ellipse fill="none" stroke="black" cx="409.8" cy="-195.14" rx="3.2" ry="3.2"/>
</g>
<!-- tdh_vl.pipe_point_normal_material -->
<g id="node4" class="node">
<title>tdh_vl.pipe_point_normal_material</title>
<g id="a_node4"><a xlink:href="../../../tdh_vl/tables/pipe_point_normal_material.html" xlink:title="tdh_vl.pipe_point_normal_material" target="_top">
<polygon fill="#ffffff" stroke="transparent" points="40.5,-37 40.5,-95 338.5,-95 338.5,-37 40.5,-37"/>
<polygon fill="#f5f5f5" stroke="transparent" points="40.5,-73 40.5,-95 338.5,-95 338.5,-73 40.5,-73"/>
<polygon fill="none" stroke="black" points="40.5,-73 40.5,-95 338.5,-95 338.5,-73 40.5,-73"/>
<text text-anchor="start" x="45.5" y="-82.2" font-family="Helvetica,sans-Serif" font-weight="bold" font-size="11.00">tdh_vl.pipe_point_normal_material</text>
<text text-anchor="start" x="296.5" y="-81.2" font-family="Helvetica,sans-Serif" font-size="11.00">[table]</text>
<polygon fill="none" stroke="black" points="40.5,-55 40.5,-73 338.5,-73 338.5,-55 40.5,-55"/>
<text text-anchor="start" x="43.5" y="-61.2" font-family="Helvetica,sans-Serif" font-size="11.00">...</text>
<polygon fill="#ffffff" stroke="transparent" points="40.5,-37 40.5,-55 338.5,-55 338.5,-37 40.5,-37"/>
<polygon fill="none" stroke="black" points="40.5,-37 40.5,-55 338.5,-55 338.5,-37 40.5,-37"/>
<polygon fill="#ffffff" stroke="transparent" points="41.5,-38 41.5,-54 126.5,-54 126.5,-38 41.5,-38"/>
<text text-anchor="start" x="43.5" y="-43.2" font-family="Helvetica,sans-Serif" font-size="11.00"> &#160;</text>
<polygon fill="#ffffff" stroke="transparent" points="126.5,-38 126.5,-54 240.5,-54 240.5,-38 126.5,-38"/>
<text text-anchor="start" x="165" y="-43.2" font-family="Helvetica,sans-Serif" font-size="11.00">0 rows</text>
<polygon fill="#ffffff" stroke="transparent" points="240.5,-38 240.5,-54 337.5,-54 337.5,-38 240.5,-38"/>
<text text-anchor="start" x="315.5" y="-43.2" font-family="Helvetica,sans-Serif" font-size="11.00">1 &gt;</text>
<polygon fill="black" stroke="black" points="126.5,-38 126.5,-54 126.5,-54 126.5,-38 126.5,-38"/>
<polygon fill="black" stroke="black" points="240.5,-38 240.5,-54 240.5,-54 240.5,-38 240.5,-38"/>
</a>
</g>
</g>
<!-- pipe_point_normal&#45;&gt;tdh_vl.pipe_point_normal_material -->
<g id="edge3" class="edge">
<title>pipe_point_normal:w&#45;&gt;tdh_vl.pipe_point_normal_material:e</title>
<path fill="none" stroke="black" d="M407.12,-146.62C396,-137.32 397.61,-115.59 379,-105 368.83,-99.21 357.93,-94.28 346.67,-90.08"/>
<polygon fill="black" stroke="black" points="413.37,-148.59 419.92,-154.43 417.19,-149.8 421,-151 421,-151 421,-151 417.19,-149.8 422.08,-147.57 413.37,-148.59 413.37,-148.59"/>
<ellipse fill="none" stroke="black" cx="410.32" cy="-147.63" rx="3.2" ry="3.2"/>
</g>
<!-- pipe_point -->
<g id="node5" class="node">
<title>pipe_point</title>
<g id="a_node5"><a xlink:href="../../tables/pipe_point.html" xlink:title="pipe_point" target="_top">
<polygon fill="#ffffff" stroke="transparent" points="89.5,-274 89.5,-486 289.5,-486 289.5,-274 89.5,-274"/>
<polygon fill="#f5f5f5" stroke="transparent" points="89.5,-464 89.5,-486 289.5,-486 289.5,-464 89.5,-464"/>
<polygon fill="none" stroke="black" points="89.5,-464 89.5,-486 289.5,-486 289.5,-464 89.5,-464"/>
<text text-anchor="start" x="94.5" y="-473.2" font-family="Helvetica,sans-Serif" font-weight="bold" font-size="11.00">pipe_point</text>
<text text-anchor="start" x="247.5" y="-472.2" font-family="Helvetica,sans-Serif" font-size="11.00">[table]</text>
<polygon fill="none" stroke="black" points="89.5,-442 89.5,-464 289.5,-464 289.5,-442 89.5,-442"/>
<image xlink:href="../../images/primaryKeys.png" width="11px" height="12px" preserveAspectRatio="xMinYMin meet" x="94.5" y="-459"/>
<text text-anchor="start" x="109.5" y="-450.2" font-family="Helvetica,sans-Serif" font-size="11.00">obj_id</text>
<polygon fill="#ffffff" stroke="transparent" points="89.5,-420 89.5,-442 289.5,-442 289.5,-420 89.5,-420"/>
<polygon fill="none" stroke="black" points="89.5,-420 89.5,-442 289.5,-442 289.5,-420 89.5,-420"/>
<text text-anchor="start" x="109.5" y="-428.2" font-family="Helvetica,sans-Serif" font-size="11.00">geometry3d_geometry</text>
<polygon fill="none" stroke="black" points="89.5,-398 89.5,-420 289.5,-420 289.5,-398 89.5,-398"/>
<image xlink:href="../../images/foreignKeys.png" width="11px" height="12px" preserveAspectRatio="xMinYMin meet" x="94.5" y="-415"/>
<text text-anchor="start" x="109.5" y="-406.2" font-family="Helvetica,sans-Serif" font-size="11.00">horizontal_positioning</text>
<polygon fill="none" stroke="black" points="89.5,-376 89.5,-398 289.5,-398 289.5,-376 89.5,-376"/>
<image xlink:href="../../images/foreignKeys.png" width="11px" height="12px" preserveAspectRatio="xMinYMin meet" x="94.5" y="-393"/>
<text text-anchor="start" x="109.5" y="-384.2" font-family="Helvetica,sans-Serif" font-size="11.00">elevation_determination</text>
<polygon fill="none" stroke="black" points="89.5,-354 89.5,-376 289.5,-376 289.5,-354 89.5,-354"/>
<image xlink:href="../../images/foreignKeys.png" width="11px" height="12px" preserveAspectRatio="xMinYMin meet" x="94.5" y="-371"/>
<text text-anchor="start" x="109.5" y="-362.2" font-family="Helvetica,sans-Serif" font-size="11.00">fk_dataowner</text>
<polygon fill="none" stroke="black" points="89.5,-332 89.5,-354 289.5,-354 289.5,-332 89.5,-332"/>
<image xlink:href="../../images/foreignKeys.png" width="11px" height="12px" preserveAspectRatio="xMinYMin meet" x="94.5" y="-349"/>
<text text-anchor="start" x="109.5" y="-340.2" font-family="Helvetica,sans-Serif" font-size="11.00">fk_provider</text>
<polygon fill="none" stroke="black" points="89.5,-310 89.5,-332 289.5,-332 289.5,-310 89.5,-310"/>
<image xlink:href="../../images/foreignKeys.png" width="11px" height="12px" preserveAspectRatio="xMinYMin meet" x="94.5" y="-327"/>
<text text-anchor="start" x="109.5" y="-318.2" font-family="Helvetica,sans-Serif" font-size="11.00">fk_owner</text>
<polygon fill="none" stroke="black" points="89.5,-292 89.5,-310 289.5,-310 289.5,-292 89.5,-292"/>
<text text-anchor="start" x="92.5" y="-298.2" font-family="Helvetica,sans-Serif" font-size="11.00">...</text>
<polygon fill="#ffffff" stroke="transparent" points="89.5,-274 89.5,-292 289.5,-292 289.5,-274 89.5,-274"/>
<polygon fill="none" stroke="black" points="89.5,-274 89.5,-292 289.5,-292 289.5,-274 89.5,-274"/>
<polygon fill="#ffffff" stroke="transparent" points="90.5,-275 90.5,-291 160.5,-291 160.5,-275 90.5,-275"/>
<text text-anchor="start" x="92.5" y="-280.2" font-family="Helvetica,sans-Serif" font-size="11.00">&lt; 5</text>
<polygon fill="#ffffff" stroke="transparent" points="160.5,-275 160.5,-291 218.5,-291 218.5,-275 160.5,-275"/>
<text text-anchor="start" x="185.5" y="-280.2" font-family="Helvetica,sans-Serif" font-size="11.00"> &#160;</text>
<polygon fill="#ffffff" stroke="transparent" points="218.5,-275 218.5,-291 288.5,-291 288.5,-275 218.5,-275"/>
<text text-anchor="start" x="266.5" y="-280.2" font-family="Helvetica,sans-Serif" font-size="11.00">2 &gt;</text>
<polygon fill="black" stroke="black" points="160.5,-275 160.5,-291 160.5,-291 160.5,-275 160.5,-275"/>
<polygon fill="black" stroke="black" points="218.5,-275 218.5,-291 218.5,-291 218.5,-275 218.5,-275"/>
</a>
</g>
</g>
<!-- pipe_point_normal&#45;&gt;pipe_point -->
<g id="edge4" class="edge">
<title>pipe_point_normal:w&#45;&gt;pipe_point:e</title>
<path fill="none" stroke="black" d="M410.63,-219.49C359.6,-244.71 346.8,-453 290.5,-453"/>
<polygon fill="black" stroke="black" points="419.29,-213.3 421.16,-221.08 419.6,-221.45 417.73,-213.67 419.29,-213.3"/>
<polyline fill="none" stroke="black" points="421,-217 417.11,-217.93 "/>
<ellipse fill="none" stroke="black" cx="414" cy="-218.68" rx="3.2" ry="3.2"/>
</g>
</g>
</svg>
