<?xml version="1.0" encoding="UTF-8" standalone="no"?>
<!DOCTYPE svg PUBLIC "-//W3C//DTD SVG 1.1//EN"
 "http://www.w3.org/Graphics/SVG/1.1/DTD/svg11.dtd">
<!-- Generated by graphviz version 2.43.0 (0)
 -->
<!-- Title: oneDegreeRelationshipsDiagram Pages: 1 -->
<svg width="605pt" height="549pt"
 viewBox="0.00 0.00 605.00 549.00" xmlns="http://www.w3.org/2000/svg" xmlns:xlink="http://www.w3.org/1999/xlink">
<g id="graph0" class="graph" transform="scale(1 1) rotate(0) translate(4 545)">
<title>oneDegreeRelationshipsDiagram</title>
<polygon fill="#ffffff" stroke="transparent" points="-4,4 -4,-545 601,-545 601,4 -4,4"/>
<text text-anchor="middle" x="79.5" y="-7.2" font-family="Helvetica,sans-Serif" font-size="11.00">Generated by SchemaSpy</text>
<!-- structure_line -->
<g id="node1" class="node">
<title>structure_line</title>
<g id="a_node1"><a xlink:href="../../tables/structure_line.html" xlink:title="structure_line" target="_top">
<polygon fill="#ffffff" stroke="transparent" points="263,-405 263,-537 589,-537 589,-405 263,-405"/>
<polygon fill="#f5f5f5" stroke="transparent" points="265,-513 265,-535 587,-535 587,-513 265,-513"/>
<polygon fill="none" stroke="black" points="265,-513 265,-535 587,-535 587,-513 265,-513"/>
<text text-anchor="start" x="270" y="-522.2" font-family="Helvetica,sans-Serif" font-weight="bold" font-size="11.00">structure_line</text>
<text text-anchor="start" x="545" y="-521.2" font-family="Helvetica,sans-Serif" font-size="11.00">[table]</text>
<polygon fill="none" stroke="black" points="265,-491 265,-513 451,-513 451,-491 265,-491"/>
<image xlink:href="../../images/primaryKeys.png" width="11px" height="12px" preserveAspectRatio="xMinYMin meet" x="270" y="-508"/>
<text text-anchor="start" x="285" y="-499.2" font-family="Helvetica,sans-Serif" font-size="11.00">id</text>
<polygon fill="none" stroke="black" points="451,-491 451,-513 587,-513 587,-491 451,-491"/>
<text text-anchor="start" x="454" y="-499.2" font-family="Helvetica,sans-Serif" font-size="11.00">uuid[2147483647]</text>
<polygon fill="#ffffff" stroke="transparent" points="265,-469 265,-491 451,-491 451,-469 265,-469"/>
<polygon fill="none" stroke="black" points="265,-469 265,-491 451,-491 451,-469 265,-469"/>
<text text-anchor="start" x="285" y="-477.2" font-family="Helvetica,sans-Serif" font-size="11.00">geometry3d_geometry</text>
<polygon fill="none" stroke="black" points="451,-469 451,-491 587,-491 587,-469 451,-469"/>
<text text-anchor="start" x="454" y="-477.2" font-family="Helvetica,sans-Serif" font-size="11.00">geometry[2147483647]</text>
<polygon fill="none" stroke="black" points="265,-447 265,-469 451,-469 451,-447 265,-447"/>
<text text-anchor="start" x="285" y="-455.2" font-family="Helvetica,sans-Serif" font-size="11.00">last_modification</text>
<polygon fill="none" stroke="black" points="451,-447 451,-469 587,-469 587,-447 451,-447"/>
<text text-anchor="start" x="454" y="-455.2" font-family="Helvetica,sans-Serif" font-size="11.00">timestamp[29,6]</text>
<polygon fill="none" stroke="black" points="265,-425 265,-447 451,-447 451,-425 265,-425"/>
<image xlink:href="../../images/foreignKeys.png" width="11px" height="12px" preserveAspectRatio="xMinYMin meet" x="270" y="-442"/>
<text text-anchor="start" x="285" y="-433.2" font-family="Helvetica,sans-Serif" font-size="11.00">fk_structure</text>
<polygon fill="none" stroke="black" points="451,-425 451,-447 587,-447 587,-425 451,-425"/>
<text text-anchor="start" x="454" y="-433.2" font-family="Helvetica,sans-Serif" font-size="11.00">varchar[16]</text>
<polygon fill="#ffffff" stroke="transparent" points="265,-407 265,-425 587,-425 587,-407 265,-407"/>
<polygon fill="none" stroke="black" points="265,-407 265,-425 587,-425 587,-407 265,-407"/>
<polygon fill="#ffffff" stroke="transparent" points="266,-408 266,-424 377,-424 377,-408 266,-408"/>
<text text-anchor="start" x="268" y="-413.2" font-family="Helvetica,sans-Serif" font-size="11.00">&lt; 1</text>
<polygon fill="#ffffff" stroke="transparent" points="377,-408 377,-424 476,-424 476,-408 377,-408"/>
<text text-anchor="start" x="422.5" y="-413.2" font-family="Helvetica,sans-Serif" font-size="11.00"> &#160;</text>
<polygon fill="#ffffff" stroke="transparent" points="476,-408 476,-424 586,-424 586,-408 476,-408"/>
<text text-anchor="start" x="564" y="-413.2" font-family="Helvetica,sans-Serif" font-size="11.00">0 &gt;</text>
<polygon fill="black" stroke="black" points="377,-408 377,-424 377,-424 377,-408 377,-408"/>
<polygon fill="black" stroke="black" points="476,-408 476,-424 476,-424 476,-408 476,-408"/>
<polygon fill="none" stroke="black" stroke-width="2" points="264,-406 264,-536 588,-536 588,-406 264,-406"/>
</a>
</g>
</g>
<!-- structure -->
<g id="node2" class="node">
<title>structure</title>
<g id="a_node2"><a xlink:href="../../tables/structure.html" xlink:title="structure" target="_top">
<polygon fill="#ffffff" stroke="transparent" points="8,-37 8,-469 214,-469 214,-37 8,-37"/>
<polygon fill="#f5f5f5" stroke="transparent" points="8,-447 8,-469 214,-469 214,-447 8,-447"/>
<polygon fill="none" stroke="black" points="8,-447 8,-469 214,-469 214,-447 8,-447"/>
<text text-anchor="start" x="13" y="-456.2" font-family="Helvetica,sans-Serif" font-weight="bold" font-size="11.00">structure</text>
<text text-anchor="start" x="172" y="-455.2" font-family="Helvetica,sans-Serif" font-size="11.00">[table]</text>
<polygon fill="none" stroke="black" points="8,-425 8,-447 214,-447 214,-425 8,-425"/>
<image xlink:href="../../images/primaryKeys.png" width="11px" height="12px" preserveAspectRatio="xMinYMin meet" x="13" y="-442"/>
<text text-anchor="start" x="28" y="-433.2" font-family="Helvetica,sans-Serif" font-size="11.00">obj_id</text>
<polygon fill="#ffffff" stroke="transparent" points="8,-403 8,-425 214,-425 214,-403 8,-403"/>
<polygon fill="none" stroke="black" points="8,-403 8,-425 214,-425 214,-403 8,-403"/>
<text text-anchor="start" x="28" y="-411.2" font-family="Helvetica,sans-Serif" font-size="11.00">name_number</text>
<polygon fill="#ffffff" stroke="transparent" points="8,-381 8,-403 214,-403 214,-381 8,-381"/>
<polygon fill="none" stroke="black" points="8,-381 8,-403 214,-403 214,-381 8,-381"/>
<text text-anchor="start" x="28" y="-389.2" font-family="Helvetica,sans-Serif" font-size="11.00">geometry3d_geometry</text>
<polygon fill="none" stroke="black" points="8,-359 8,-381 214,-381 214,-359 8,-359"/>
<image xlink:href="../../images/foreignKeys.png" width="11px" height="12px" preserveAspectRatio="xMinYMin meet" x="13" y="-376"/>
<text text-anchor="start" x="28" y="-367.2" font-family="Helvetica,sans-Serif" font-size="11.00">horizontal_positioning</text>
<polygon fill="none" stroke="black" points="8,-337 8,-359 214,-359 214,-337 8,-337"/>
<image xlink:href="../../images/foreignKeys.png" width="11px" height="12px" preserveAspectRatio="xMinYMin meet" x="13" y="-354"/>
<text text-anchor="start" x="28" y="-345.2" font-family="Helvetica,sans-Serif" font-size="11.00">status</text>
<polygon fill="none" stroke="black" points="8,-315 8,-337 214,-337 214,-315 8,-315"/>
<image xlink:href="../../images/foreignKeys.png" width="11px" height="12px" preserveAspectRatio="xMinYMin meet" x="13" y="-332"/>
<text text-anchor="start" x="28" y="-323.2" font-family="Helvetica,sans-Serif" font-size="11.00">kind</text>
<polygon fill="none" stroke="black" points="8,-293 8,-315 214,-315 214,-293 8,-293"/>
<image xlink:href="../../images/foreignKeys.png" width="11px" height="12px" preserveAspectRatio="xMinYMin meet" x="13" y="-310"/>
<text text-anchor="start" x="28" y="-301.2" font-family="Helvetica,sans-Serif" font-size="11.00">venting</text>
<polygon fill="none" stroke="black" points="8,-271 8,-293 214,-293 214,-271 8,-271"/>
<image xlink:href="../../images/foreignKeys.png" width="11px" height="12px" preserveAspectRatio="xMinYMin meet" x="13" y="-288"/>
<text text-anchor="start" x="28" y="-279.2" font-family="Helvetica,sans-Serif" font-size="11.00">discharge_type</text>
<polygon fill="none" stroke="black" points="8,-249 8,-271 214,-271 214,-249 8,-249"/>
<image xlink:href="../../images/foreignKeys.png" width="11px" height="12px" preserveAspectRatio="xMinYMin meet" x="13" y="-266"/>
<text text-anchor="start" x="28" y="-257.2" font-family="Helvetica,sans-Serif" font-size="11.00">grid_type</text>
<polygon fill="none" stroke="black" points="8,-227 8,-249 214,-249 214,-227 8,-227"/>
<image xlink:href="../../images/foreignKeys.png" width="11px" height="12px" preserveAspectRatio="xMinYMin meet" x="13" y="-244"/>
<text text-anchor="start" x="28" y="-235.2" font-family="Helvetica,sans-Serif" font-size="11.00">drainage_pump</text>
<polygon fill="none" stroke="black" points="8,-205 8,-227 214,-227 214,-205 8,-205"/>
<image xlink:href="../../images/foreignKeys.png" width="11px" height="12px" preserveAspectRatio="xMinYMin meet" x="13" y="-222"/>
<text text-anchor="start" x="28" y="-213.2" font-family="Helvetica,sans-Serif" font-size="11.00">power_connection</text>
<polygon fill="none" stroke="black" points="8,-183 8,-205 214,-205 214,-183 8,-183"/>
<image xlink:href="../../images/foreignKeys.png" width="11px" height="12px" preserveAspectRatio="xMinYMin meet" x="13" y="-200"/>
<text text-anchor="start" x="28" y="-191.2" font-family="Helvetica,sans-Serif" font-size="11.00">measuring_system</text>
<polygon fill="none" stroke="black" points="8,-161 8,-183 214,-183 214,-161 8,-161"/>
<image xlink:href="../../images/foreignKeys.png" width="11px" height="12px" preserveAspectRatio="xMinYMin meet" x="13" y="-178"/>
<text text-anchor="start" x="28" y="-169.2" font-family="Helvetica,sans-Serif" font-size="11.00">condition</text>
<polygon fill="#ffffff" stroke="transparent" points="8,-139 8,-161 214,-161 214,-139 8,-139"/>
<polygon fill="none" stroke="black" points="8,-139 8,-161 214,-161 214,-139 8,-139"/>
<image xlink:href="../../images/foreignKeys.png" width="11px" height="12px" preserveAspectRatio="xMinYMin meet" x="13" y="-156"/>
<text text-anchor="start" x="28" y="-147.2" font-family="Helvetica,sans-Serif" font-size="11.00">fk_dataowner</text>
<polygon fill="none" stroke="black" points="8,-117 8,-139 214,-139 214,-117 8,-117"/>
<image xlink:href="../../images/foreignKeys.png" width="11px" height="12px" preserveAspectRatio="xMinYMin meet" x="13" y="-134"/>
<text text-anchor="start" x="28" y="-125.2" font-family="Helvetica,sans-Serif" font-size="11.00">fk_provider</text>
<polygon fill="none" stroke="black" points="8,-95 8,-117 214,-117 214,-95 8,-95"/>
<image xlink:href="../../images/foreignKeys.png" width="11px" height="12px" preserveAspectRatio="xMinYMin meet" x="13" y="-112"/>
<text text-anchor="start" x="28" y="-103.2" font-family="Helvetica,sans-Serif" font-size="11.00">fk_owner</text>
<polygon fill="none" stroke="black" points="8,-73 8,-95 214,-95 214,-73 8,-73"/>
<image xlink:href="../../images/foreignKeys.png" width="11px" height="12px" preserveAspectRatio="xMinYMin meet" x="13" y="-90"/>
<text text-anchor="start" x="28" y="-81.2" font-family="Helvetica,sans-Serif" font-size="11.00">fk_construction_company</text>
<polygon fill="none" stroke="black" points="8,-55 8,-73 214,-73 214,-55 8,-55"/>
<text text-anchor="start" x="11" y="-61.2" font-family="Helvetica,sans-Serif" font-size="11.00">...</text>
<polygon fill="#ffffff" stroke="transparent" points="8,-37 8,-55 214,-55 214,-37 8,-37"/>
<polygon fill="none" stroke="black" points="8,-37 8,-55 214,-55 214,-37 8,-37"/>
<polygon fill="#ffffff" stroke="transparent" points="9,-38 9,-54 86,-54 86,-38 9,-38"/>
<text text-anchor="start" x="11" y="-43.2" font-family="Helvetica,sans-Serif" font-size="11.00">&lt; 14</text>
<polygon fill="#ffffff" stroke="transparent" points="86,-38 86,-54 144,-54 144,-38 86,-38"/>
<text text-anchor="start" x="111" y="-43.2" font-family="Helvetica,sans-Serif" font-size="11.00"> &#160;</text>
<polygon fill="#ffffff" stroke="transparent" points="144,-38 144,-54 213,-54 213,-38 144,-38"/>
<text text-anchor="start" x="191" y="-43.2" font-family="Helvetica,sans-Serif" font-size="11.00">1 &gt;</text>
<polygon fill="black" stroke="black" points="86,-38 86,-54 86,-54 86,-38 86,-38"/>
<polygon fill="black" stroke="black" points="144,-38 144,-54 144,-54 144,-38 144,-38"/>
</a>
</g>
</g>
<!-- structure_line&#45;&gt;structure -->
<g id="edge1" class="edge">
<title>structure_line:w&#45;&gt;structure:e</title>
<path fill="none" stroke="black" d="M249.49,-436C238.18,-436 230.99,-436 215,-436"/>
<polygon fill="black" stroke="black" points="256,-436 264,-439.6 260,-436 264,-436 264,-436 264,-436 260,-436 264,-432.4 256,-436 256,-436"/>
<ellipse fill="none" stroke="black" cx="252.8" cy="-436" rx="3.2" ry="3.2"/>
</g>
</g>
</svg>
