<?xml version="1.0" encoding="UTF-8" standalone="no"?>
<!DOCTYPE svg PUBLIC "-//W3C//DTD SVG 1.1//EN"
 "http://www.w3.org/Graphics/SVG/1.1/DTD/svg11.dtd">
<!-- Generated by graphviz version 2.47.1 (20210515.0534)
 -->
<!-- Title: oneDegreeRelationshipsDiagram Pages: 1 -->
<svg width="529pt" height="549pt"
 viewBox="0.00 0.00 529.00 549.00" xmlns="http://www.w3.org/2000/svg" xmlns:xlink="http://www.w3.org/1999/xlink">
<g id="graph0" class="graph" transform="scale(1 1) rotate(0) translate(4 545)">
<title>oneDegreeRelationshipsDiagram</title>
<polygon fill="#ffffff" stroke="transparent" points="-4,4 -4,-545 525,-545 525,4 -4,4"/>
<text text-anchor="middle" x="73.5" y="-7.2" font-family="Helvetica,sans-Serif" font-size="11.00">Generated by SchemaSpy</text>
<!-- structure_line -->
<g id="node1" class="node">
<title>structure_line</title>
<g id="a_node1"><a xlink:href="../../tables/structure_line.html" xlink:title="structure_line" target="_top">
<polygon fill="#ffffff" stroke="transparent" points="231,-405 231,-537 513,-537 513,-405 231,-405"/>
<polygon fill="#f5f5f5" stroke="transparent" points="233,-513 233,-535 511,-535 511,-513 233,-513"/>
<polygon fill="none" stroke="black" points="233,-513 233,-535 511,-535 511,-513 233,-513"/>
<text text-anchor="start" x="238" y="-522.2" font-family="Helvetica,sans-Serif" font-weight="bold" font-size="11.00">structure_line</text>
<text text-anchor="start" x="472" y="-521.2" font-family="Helvetica,sans-Serif" font-size="11.00">[table]</text>
<polygon fill="none" stroke="black" points="233,-491 233,-513 388,-513 388,-491 233,-491"/>
<image xlink:href="../../images/primaryKeys.png" width="11px" height="12px" preserveAspectRatio="xMinYMin meet" x="238" y="-508"/>
<text text-anchor="start" x="253" y="-499.2" font-family="Helvetica,sans-Serif" font-size="11.00">id</text>
<polygon fill="none" stroke="black" points="388,-491 388,-513 511,-513 511,-491 388,-491"/>
<text text-anchor="start" x="391" y="-499.2" font-family="Helvetica,sans-Serif" font-size="11.00">uuid[2147483647]</text>
<polygon fill="#ffffff" stroke="transparent" points="233,-469 233,-491 388,-491 388,-469 233,-469"/>
<polygon fill="none" stroke="black" points="233,-469 233,-491 388,-491 388,-469 233,-469"/>
<text text-anchor="start" x="253" y="-477.2" font-family="Helvetica,sans-Serif" font-size="11.00">geometry3d_geometry</text>
<polygon fill="none" stroke="black" points="388,-469 388,-491 511,-491 511,-469 388,-469"/>
<text text-anchor="start" x="391" y="-477.2" font-family="Helvetica,sans-Serif" font-size="11.00">geometry[2147483647]</text>
<polygon fill="none" stroke="black" points="233,-447 233,-469 388,-469 388,-447 233,-447"/>
<text text-anchor="start" x="253" y="-455.2" font-family="Helvetica,sans-Serif" font-size="11.00">last_modification</text>
<polygon fill="none" stroke="black" points="388,-447 388,-469 511,-469 511,-447 388,-447"/>
<text text-anchor="start" x="391" y="-455.2" font-family="Helvetica,sans-Serif" font-size="11.00">timestamp[29,6]</text>
<polygon fill="none" stroke="black" points="233,-425 233,-447 388,-447 388,-425 233,-425"/>
<image xlink:href="../../images/foreignKeys.png" width="11px" height="12px" preserveAspectRatio="xMinYMin meet" x="238" y="-442"/>
<text text-anchor="start" x="253" y="-433.2" font-family="Helvetica,sans-Serif" font-size="11.00">fk_structure</text>
<polygon fill="none" stroke="black" points="388,-425 388,-447 511,-447 511,-425 388,-425"/>
<text text-anchor="start" x="391" y="-433.2" font-family="Helvetica,sans-Serif" font-size="11.00">varchar[16]</text>
<polygon fill="#ffffff" stroke="transparent" points="233,-407 233,-425 315,-425 315,-407 233,-407"/>
<polygon fill="none" stroke="black" points="233,-407 233,-425 315,-425 315,-407 233,-407"/>
<text text-anchor="start" x="236" y="-413.2" font-family="Helvetica,sans-Serif" font-size="11.00">&lt; 1</text>
<polygon fill="#ffffff" stroke="transparent" points="315,-407 315,-425 388,-425 388,-407 315,-407"/>
<polygon fill="none" stroke="black" points="315,-407 315,-425 388,-425 388,-407 315,-407"/>
<text text-anchor="start" x="378" y="-413.2" font-family="Helvetica,sans-Serif" font-size="11.00"> &#160;</text>
<polygon fill="#ffffff" stroke="transparent" points="388,-407 388,-425 511,-425 511,-407 388,-407"/>
<polygon fill="none" stroke="black" points="388,-407 388,-425 511,-425 511,-407 388,-407"/>
<text text-anchor="start" x="492" y="-413.2" font-family="Helvetica,sans-Serif" font-size="11.00">0 &gt;</text>
<polygon fill="none" stroke="black" stroke-width="2" points="232,-406 232,-536 512,-536 512,-406 232,-406"/>
</a>
</g>
</g>
<!-- structure -->
<g id="node2" class="node">
<title>structure</title>
<g id="a_node2"><a xlink:href="../../tables/structure.html" xlink:title="structure" target="_top">
<polygon fill="#ffffff" stroke="transparent" points="8,-37 8,-469 182,-469 182,-37 8,-37"/>
<polygon fill="#f5f5f5" stroke="transparent" points="8,-447 8,-469 182,-469 182,-447 8,-447"/>
<polygon fill="none" stroke="black" points="8,-447 8,-469 182,-469 182,-447 8,-447"/>
<text text-anchor="start" x="12.5" y="-456.2" font-family="Helvetica,sans-Serif" font-weight="bold" font-size="11.00">structure</text>
<text text-anchor="start" x="143" y="-455.2" font-family="Helvetica,sans-Serif" font-size="11.00">[table]</text>
<polygon fill="none" stroke="black" points="8,-425 8,-447 182,-447 182,-425 8,-425"/>
<image xlink:href="../../images/primaryKeys.png" width="11px" height="12px" preserveAspectRatio="xMinYMin meet" x="13" y="-442"/>
<text text-anchor="start" x="28" y="-433.2" font-family="Helvetica,sans-Serif" font-size="11.00">obj_id</text>
<polygon fill="#ffffff" stroke="transparent" points="8,-403 8,-425 182,-425 182,-403 8,-403"/>
<polygon fill="none" stroke="black" points="8,-403 8,-425 182,-425 182,-403 8,-403"/>
<text text-anchor="start" x="28" y="-411.2" font-family="Helvetica,sans-Serif" font-size="11.00">name_number</text>
<polygon fill="#ffffff" stroke="transparent" points="8,-381 8,-403 182,-403 182,-381 8,-381"/>
<polygon fill="none" stroke="black" points="8,-381 8,-403 182,-403 182,-381 8,-381"/>
<text text-anchor="start" x="28" y="-389.2" font-family="Helvetica,sans-Serif" font-size="11.00">geometry3d_geometry</text>
<polygon fill="none" stroke="black" points="8,-359 8,-381 182,-381 182,-359 8,-359"/>
<image xlink:href="../../images/foreignKeys.png" width="11px" height="12px" preserveAspectRatio="xMinYMin meet" x="13" y="-376"/>
<text text-anchor="start" x="28" y="-367.2" font-family="Helvetica,sans-Serif" font-size="11.00">horizontal_positioning</text>
<polygon fill="none" stroke="black" points="8,-337 8,-359 182,-359 182,-337 8,-337"/>
<image xlink:href="../../images/foreignKeys.png" width="11px" height="12px" preserveAspectRatio="xMinYMin meet" x="13" y="-354"/>
<text text-anchor="start" x="28" y="-345.2" font-family="Helvetica,sans-Serif" font-size="11.00">status</text>
<polygon fill="none" stroke="black" points="8,-315 8,-337 182,-337 182,-315 8,-315"/>
<image xlink:href="../../images/foreignKeys.png" width="11px" height="12px" preserveAspectRatio="xMinYMin meet" x="13" y="-332"/>
<text text-anchor="start" x="28" y="-323.2" font-family="Helvetica,sans-Serif" font-size="11.00">kind</text>
<polygon fill="none" stroke="black" points="8,-293 8,-315 182,-315 182,-293 8,-293"/>
<image xlink:href="../../images/foreignKeys.png" width="11px" height="12px" preserveAspectRatio="xMinYMin meet" x="13" y="-310"/>
<text text-anchor="start" x="28" y="-301.2" font-family="Helvetica,sans-Serif" font-size="11.00">venting</text>
<polygon fill="none" stroke="black" points="8,-271 8,-293 182,-293 182,-271 8,-271"/>
<image xlink:href="../../images/foreignKeys.png" width="11px" height="12px" preserveAspectRatio="xMinYMin meet" x="13" y="-288"/>
<text text-anchor="start" x="28" y="-279.2" font-family="Helvetica,sans-Serif" font-size="11.00">discharge_type</text>
<polygon fill="none" stroke="black" points="8,-249 8,-271 182,-271 182,-249 8,-249"/>
<image xlink:href="../../images/foreignKeys.png" width="11px" height="12px" preserveAspectRatio="xMinYMin meet" x="13" y="-266"/>
<text text-anchor="start" x="28" y="-257.2" font-family="Helvetica,sans-Serif" font-size="11.00">grid_type</text>
<polygon fill="none" stroke="black" points="8,-227 8,-249 182,-249 182,-227 8,-227"/>
<image xlink:href="../../images/foreignKeys.png" width="11px" height="12px" preserveAspectRatio="xMinYMin meet" x="13" y="-244"/>
<text text-anchor="start" x="28" y="-235.2" font-family="Helvetica,sans-Serif" font-size="11.00">drainage_pump</text>
<polygon fill="none" stroke="black" points="8,-205 8,-227 182,-227 182,-205 8,-205"/>
<image xlink:href="../../images/foreignKeys.png" width="11px" height="12px" preserveAspectRatio="xMinYMin meet" x="13" y="-222"/>
<text text-anchor="start" x="28" y="-213.2" font-family="Helvetica,sans-Serif" font-size="11.00">power_connection</text>
<polygon fill="none" stroke="black" points="8,-183 8,-205 182,-205 182,-183 8,-183"/>
<image xlink:href="../../images/foreignKeys.png" width="11px" height="12px" preserveAspectRatio="xMinYMin meet" x="13" y="-200"/>
<text text-anchor="start" x="28" y="-191.2" font-family="Helvetica,sans-Serif" font-size="11.00">measuring_system</text>
<polygon fill="none" stroke="black" points="8,-161 8,-183 182,-183 182,-161 8,-161"/>
<image xlink:href="../../images/foreignKeys.png" width="11px" height="12px" preserveAspectRatio="xMinYMin meet" x="13" y="-178"/>
<text text-anchor="start" x="28" y="-169.2" font-family="Helvetica,sans-Serif" font-size="11.00">condition</text>
<polygon fill="#ffffff" stroke="transparent" points="8,-139 8,-161 182,-161 182,-139 8,-139"/>
<polygon fill="none" stroke="black" points="8,-139 8,-161 182,-161 182,-139 8,-139"/>
<image xlink:href="../../images/foreignKeys.png" width="11px" height="12px" preserveAspectRatio="xMinYMin meet" x="13" y="-156"/>
<text text-anchor="start" x="28" y="-147.2" font-family="Helvetica,sans-Serif" font-size="11.00">fk_dataowner</text>
<polygon fill="none" stroke="black" points="8,-117 8,-139 182,-139 182,-117 8,-117"/>
<image xlink:href="../../images/foreignKeys.png" width="11px" height="12px" preserveAspectRatio="xMinYMin meet" x="13" y="-134"/>
<text text-anchor="start" x="28" y="-125.2" font-family="Helvetica,sans-Serif" font-size="11.00">fk_provider</text>
<polygon fill="none" stroke="black" points="8,-95 8,-117 182,-117 182,-95 8,-95"/>
<image xlink:href="../../images/foreignKeys.png" width="11px" height="12px" preserveAspectRatio="xMinYMin meet" x="13" y="-112"/>
<text text-anchor="start" x="28" y="-103.2" font-family="Helvetica,sans-Serif" font-size="11.00">fk_owner</text>
<polygon fill="none" stroke="black" points="8,-73 8,-95 182,-95 182,-73 8,-73"/>
<image xlink:href="../../images/foreignKeys.png" width="11px" height="12px" preserveAspectRatio="xMinYMin meet" x="13" y="-90"/>
<text text-anchor="start" x="28" y="-81.2" font-family="Helvetica,sans-Serif" font-size="11.00">fk_construction_company</text>
<polygon fill="none" stroke="black" points="8,-55 8,-73 182,-73 182,-55 8,-55"/>
<text text-anchor="start" x="11" y="-61.2" font-family="Helvetica,sans-Serif" font-size="11.00">...</text>
<polygon fill="#ffffff" stroke="transparent" points="8,-37 8,-55 91,-55 91,-37 8,-37"/>
<polygon fill="none" stroke="black" points="8,-37 8,-55 91,-55 91,-37 8,-37"/>
<text text-anchor="start" x="11" y="-43.2" font-family="Helvetica,sans-Serif" font-size="11.00">&lt; 14</text>
<polygon fill="#ffffff" stroke="transparent" points="91,-37 91,-55 132,-55 132,-37 91,-37"/>
<polygon fill="none" stroke="black" points="91,-37 91,-55 132,-55 132,-37 91,-37"/>
<text text-anchor="start" x="122" y="-43.2" font-family="Helvetica,sans-Serif" font-size="11.00"> &#160;</text>
<polygon fill="#ffffff" stroke="transparent" points="132,-37 132,-55 182,-55 182,-37 132,-37"/>
<polygon fill="none" stroke="black" points="132,-37 132,-55 182,-55 182,-37 132,-37"/>
<text text-anchor="start" x="163" y="-43.2" font-family="Helvetica,sans-Serif" font-size="11.00">1 &gt;</text>
</a>
</g>
</g>
<!-- structure_line&#45;&gt;structure -->
<g id="edge1" class="edge">
<title>structure_line:w&#45;&gt;structure:e</title>
<path fill="none" stroke="black" d="M217.49,-436C206.18,-436 198.99,-436 183,-436"/>
<polygon fill="black" stroke="black" points="224,-436 232,-439.6 228,-436 232,-436 232,-436 232,-436 228,-436 232,-432.4 224,-436 224,-436"/>
<ellipse fill="none" stroke="black" cx="220.8" cy="-436" rx="3.2" ry="3.2"/>
</g>
</g>
</svg>
