<?xml version="1.0" encoding="UTF-8" standalone="no"?>
<!DOCTYPE svg PUBLIC "-//W3C//DTD SVG 1.1//EN"
 "http://www.w3.org/Graphics/SVG/1.1/DTD/svg11.dtd">
<!-- Generated by graphviz version 2.43.0 (0)
 -->
<!-- Title: oneDegreeRelationshipsDiagram Pages: 1 -->
<svg width="789pt" height="571pt"
 viewBox="0.00 0.00 789.00 571.00" xmlns="http://www.w3.org/2000/svg" xmlns:xlink="http://www.w3.org/1999/xlink">
<g id="graph0" class="graph" transform="scale(1 1) rotate(0) translate(4 567)">
<title>oneDegreeRelationshipsDiagram</title>
<polygon fill="#ffffff" stroke="transparent" points="-4,4 -4,-567 785,-567 785,4 -4,4"/>
<text text-anchor="middle" x="79.5" y="-7.2" font-family="Helvetica,sans-Serif" font-size="11.00">Generated by SchemaSpy</text>
<!-- trench_point -->
<g id="node1" class="node">
<title>trench_point</title>
<g id="a_node1"><a xlink:href="../../tables/trench_point.html" xlink:title="trench_point" target="_top">
<polygon fill="#ffffff" stroke="transparent" points="431,-141 431,-559 773,-559 773,-141 431,-141"/>
<polygon fill="#f5f5f5" stroke="transparent" points="433,-535 433,-557 771,-557 771,-535 433,-535"/>
<polygon fill="none" stroke="black" points="433,-535 433,-557 771,-557 771,-535 433,-535"/>
<text text-anchor="start" x="438" y="-544.2" font-family="Helvetica,sans-Serif" font-weight="bold" font-size="11.00">trench_point</text>
<text text-anchor="start" x="729" y="-543.2" font-family="Helvetica,sans-Serif" font-size="11.00">[table]</text>
<polygon fill="none" stroke="black" points="433,-513 433,-535 635,-535 635,-513 433,-513"/>
<image xlink:href="../../images/primaryKeys.png" width="11px" height="12px" preserveAspectRatio="xMinYMin meet" x="438" y="-530"/>
<text text-anchor="start" x="453" y="-521.2" font-family="Helvetica,sans-Serif" font-size="11.00">obj_id</text>
<polygon fill="none" stroke="black" points="635,-513 635,-535 771,-535 771,-513 635,-513"/>
<text text-anchor="start" x="638" y="-521.2" font-family="Helvetica,sans-Serif" font-size="11.00">varchar[16]</text>
<polygon fill="#ffffff" stroke="transparent" points="433,-491 433,-513 635,-513 635,-491 433,-491"/>
<polygon fill="none" stroke="black" points="433,-491 433,-513 635,-513 635,-491 433,-491"/>
<text text-anchor="start" x="453" y="-499.2" font-family="Helvetica,sans-Serif" font-size="11.00">name_number</text>
<polygon fill="none" stroke="black" points="635,-491 635,-513 771,-513 771,-491 635,-491"/>
<text text-anchor="start" x="638" y="-499.2" font-family="Helvetica,sans-Serif" font-size="11.00">text[2147483647]</text>
<polygon fill="#ffffff" stroke="transparent" points="433,-469 433,-491 635,-491 635,-469 433,-469"/>
<polygon fill="none" stroke="black" points="433,-469 433,-491 635,-491 635,-469 433,-469"/>
<text text-anchor="start" x="453" y="-477.2" font-family="Helvetica,sans-Serif" font-size="11.00">geometry3d_geometry</text>
<polygon fill="none" stroke="black" points="635,-469 635,-491 771,-491 771,-469 635,-469"/>
<text text-anchor="start" x="638" y="-477.2" font-family="Helvetica,sans-Serif" font-size="11.00">geometry[2147483647]</text>
<polygon fill="none" stroke="black" points="433,-447 433,-469 635,-469 635,-447 433,-447"/>
<image xlink:href="../../images/foreignKeys.png" width="11px" height="12px" preserveAspectRatio="xMinYMin meet" x="438" y="-464"/>
<text text-anchor="start" x="453" y="-455.2" font-family="Helvetica,sans-Serif" font-size="11.00">horizontal_positioning</text>
<polygon fill="none" stroke="black" points="635,-447 635,-469 771,-469 771,-447 635,-447"/>
<text text-anchor="start" x="638" y="-455.2" font-family="Helvetica,sans-Serif" font-size="11.00">int4[10]</text>
<polygon fill="none" stroke="black" points="433,-425 433,-447 635,-447 635,-425 433,-425"/>
<image xlink:href="../../images/foreignKeys.png" width="11px" height="12px" preserveAspectRatio="xMinYMin meet" x="438" y="-442"/>
<text text-anchor="start" x="453" y="-433.2" font-family="Helvetica,sans-Serif" font-size="11.00">kind</text>
<polygon fill="none" stroke="black" points="635,-425 635,-447 771,-447 771,-425 635,-425"/>
<text text-anchor="start" x="638" y="-433.2" font-family="Helvetica,sans-Serif" font-size="11.00">int4[10]</text>
<polygon fill="none" stroke="black" points="433,-403 433,-425 635,-425 635,-403 433,-403"/>
<text text-anchor="start" x="453" y="-411.2" font-family="Helvetica,sans-Serif" font-size="11.00">altitude_channel_bottom</text>
<polygon fill="none" stroke="black" points="635,-403 635,-425 771,-425 771,-403 635,-403"/>
<text text-anchor="start" x="638" y="-411.2" font-family="Helvetica,sans-Serif" font-size="11.00">numeric[7,3]</text>
<polygon fill="none" stroke="black" points="433,-381 433,-403 635,-403 635,-381 433,-381"/>
<text text-anchor="start" x="453" y="-389.2" font-family="Helvetica,sans-Serif" font-size="11.00">altitude_channel_cover</text>
<polygon fill="none" stroke="black" points="635,-381 635,-403 771,-403 771,-381 635,-381"/>
<text text-anchor="start" x="638" y="-389.2" font-family="Helvetica,sans-Serif" font-size="11.00">numeric[7,3]</text>
<polygon fill="none" stroke="black" points="433,-359 433,-381 635,-381 635,-359 433,-359"/>
<text text-anchor="start" x="453" y="-367.2" font-family="Helvetica,sans-Serif" font-size="11.00">altitude_entry_cover</text>
<polygon fill="none" stroke="black" points="635,-359 635,-381 771,-381 771,-359 635,-359"/>
<text text-anchor="start" x="638" y="-367.2" font-family="Helvetica,sans-Serif" font-size="11.00">numeric[7,3]</text>
<polygon fill="none" stroke="black" points="433,-337 433,-359 635,-359 635,-337 433,-337"/>
<text text-anchor="start" x="453" y="-345.2" font-family="Helvetica,sans-Serif" font-size="11.00">sur_plus_cover</text>
<polygon fill="none" stroke="black" points="635,-337 635,-359 771,-359 771,-337 635,-337"/>
<text text-anchor="start" x="638" y="-345.2" font-family="Helvetica,sans-Serif" font-size="11.00">numeric[4,1]</text>
<polygon fill="none" stroke="black" points="433,-315 433,-337 635,-337 635,-315 433,-315"/>
<image xlink:href="../../images/foreignKeys.png" width="11px" height="12px" preserveAspectRatio="xMinYMin meet" x="438" y="-332"/>
<text text-anchor="start" x="453" y="-323.2" font-family="Helvetica,sans-Serif" font-size="11.00">elevation_determination</text>
<polygon fill="none" stroke="black" points="635,-315 635,-337 771,-337 771,-315 635,-315"/>
<text text-anchor="start" x="638" y="-323.2" font-family="Helvetica,sans-Serif" font-size="11.00">int4[10]</text>
<polygon fill="none" stroke="black" points="433,-293 433,-315 635,-315 635,-293 433,-293"/>
<text text-anchor="start" x="453" y="-301.2" font-family="Helvetica,sans-Serif" font-size="11.00">remark</text>
<polygon fill="none" stroke="black" points="635,-293 635,-315 771,-315 771,-293 635,-293"/>
<text text-anchor="start" x="638" y="-301.2" font-family="Helvetica,sans-Serif" font-size="11.00">text[2147483647]</text>
<polygon fill="none" stroke="black" points="433,-271 433,-293 635,-293 635,-271 433,-271"/>
<text text-anchor="start" x="453" y="-279.2" font-family="Helvetica,sans-Serif" font-size="11.00">dimension1</text>
<polygon fill="none" stroke="black" points="635,-271 635,-293 771,-293 771,-271 635,-271"/>
<text text-anchor="start" x="638" y="-279.2" font-family="Helvetica,sans-Serif" font-size="11.00">int2[5]</text>
<polygon fill="none" stroke="black" points="433,-249 433,-271 635,-271 635,-249 433,-249"/>
<text text-anchor="start" x="453" y="-257.2" font-family="Helvetica,sans-Serif" font-size="11.00">depth</text>
<polygon fill="none" stroke="black" points="635,-249 635,-271 771,-271 771,-249 635,-249"/>
<text text-anchor="start" x="638" y="-257.2" font-family="Helvetica,sans-Serif" font-size="11.00">int2[5]</text>
<polygon fill="none" stroke="black" points="433,-227 433,-249 635,-249 635,-227 433,-227"/>
<text text-anchor="start" x="453" y="-235.2" font-family="Helvetica,sans-Serif" font-size="11.00">last_modification</text>
<polygon fill="none" stroke="black" points="635,-227 635,-249 771,-249 771,-227 635,-227"/>
<text text-anchor="start" x="638" y="-235.2" font-family="Helvetica,sans-Serif" font-size="11.00">timestamp[29,6]</text>
<polygon fill="#ffffff" stroke="transparent" points="433,-205 433,-227 635,-227 635,-205 433,-205"/>
<polygon fill="none" stroke="black" points="433,-205 433,-227 635,-227 635,-205 433,-205"/>
<image xlink:href="../../images/foreignKeys.png" width="11px" height="12px" preserveAspectRatio="xMinYMin meet" x="438" y="-222"/>
<text text-anchor="start" x="453" y="-213.2" font-family="Helvetica,sans-Serif" font-size="11.00">fk_dataowner</text>
<polygon fill="none" stroke="black" points="635,-205 635,-227 771,-227 771,-205 635,-205"/>
<text text-anchor="start" x="638" y="-213.2" font-family="Helvetica,sans-Serif" font-size="11.00">varchar[16]</text>
<polygon fill="none" stroke="black" points="433,-183 433,-205 635,-205 635,-183 433,-183"/>
<image xlink:href="../../images/foreignKeys.png" width="11px" height="12px" preserveAspectRatio="xMinYMin meet" x="438" y="-200"/>
<text text-anchor="start" x="453" y="-191.2" font-family="Helvetica,sans-Serif" font-size="11.00">fk_provider</text>
<polygon fill="none" stroke="black" points="635,-183 635,-205 771,-205 771,-183 635,-183"/>
<text text-anchor="start" x="638" y="-191.2" font-family="Helvetica,sans-Serif" font-size="11.00">varchar[16]</text>
<polygon fill="none" stroke="black" points="433,-161 433,-183 635,-183 635,-161 433,-161"/>
<image xlink:href="../../images/foreignKeys.png" width="11px" height="12px" preserveAspectRatio="xMinYMin meet" x="438" y="-178"/>
<text text-anchor="start" x="453" y="-169.2" font-family="Helvetica,sans-Serif" font-size="11.00">fk_owner</text>
<polygon fill="none" stroke="black" points="635,-161 635,-183 771,-183 771,-161 635,-161"/>
<text text-anchor="start" x="638" y="-169.2" font-family="Helvetica,sans-Serif" font-size="11.00">varchar[16]</text>
<polygon fill="#ffffff" stroke="transparent" points="433,-143 433,-161 771,-161 771,-143 433,-143"/>
<polygon fill="none" stroke="black" points="433,-143 433,-161 771,-161 771,-143 433,-143"/>
<polygon fill="#ffffff" stroke="transparent" points="434,-144 434,-160 550,-160 550,-144 434,-144"/>
<text text-anchor="start" x="436" y="-149.2" font-family="Helvetica,sans-Serif" font-size="11.00">&lt; 6</text>
<polygon fill="#ffffff" stroke="transparent" points="550,-144 550,-160 654,-160 654,-144 550,-144"/>
<text text-anchor="start" x="598" y="-149.2" font-family="Helvetica,sans-Serif" font-size="11.00"> &#160;</text>
<polygon fill="#ffffff" stroke="transparent" points="654,-144 654,-160 770,-160 770,-144 654,-144"/>
<text text-anchor="start" x="748" y="-149.2" font-family="Helvetica,sans-Serif" font-size="11.00">0 &gt;</text>
<polygon fill="black" stroke="black" points="550,-144 550,-160 550,-160 550,-144 550,-144"/>
<polygon fill="black" stroke="black" points="654,-144 654,-160 654,-160 654,-144 654,-144"/>
<polygon fill="none" stroke="black" stroke-width="2" points="432,-142 432,-558 772,-558 772,-142 432,-142"/>
</a>
</g>
</g>
<!-- tdh_vl.trench_point_elevation_determination -->
<g id="node2" class="node">
<title>tdh_vl.trench_point_elevation_determination</title>
<g id="a_node2"><a xlink:href="../../../tdh_vl/tables/trench_point_elevation_determination.html" xlink:title="tdh_vl.trench_point_elevation_determination" target="_top">
<polygon fill="#ffffff" stroke="transparent" points="8,-297 8,-355 382,-355 382,-297 8,-297"/>
<polygon fill="#f5f5f5" stroke="transparent" points="8,-333 8,-355 382,-355 382,-333 8,-333"/>
<polygon fill="none" stroke="black" points="8,-333 8,-355 382,-355 382,-333 8,-333"/>
<text text-anchor="start" x="13" y="-342.2" font-family="Helvetica,sans-Serif" font-weight="bold" font-size="11.00">tdh_vl.trench_point_elevation_determination</text>
<text text-anchor="start" x="340" y="-341.2" font-family="Helvetica,sans-Serif" font-size="11.00">[table]</text>
<polygon fill="none" stroke="black" points="8,-315 8,-333 382,-333 382,-315 8,-315"/>
<text text-anchor="start" x="11" y="-321.2" font-family="Helvetica,sans-Serif" font-size="11.00">...</text>
<polygon fill="#ffffff" stroke="transparent" points="8,-297 8,-315 382,-315 382,-297 8,-297"/>
<polygon fill="none" stroke="black" points="8,-297 8,-315 382,-315 382,-297 8,-297"/>
<polygon fill="#ffffff" stroke="transparent" points="9,-298 9,-314 120,-314 120,-298 9,-298"/>
<text text-anchor="start" x="11" y="-303.2" font-family="Helvetica,sans-Serif" font-size="11.00"> &#160;</text>
<polygon fill="#ffffff" stroke="transparent" points="120,-298 120,-314 259,-314 259,-298 120,-298"/>
<text text-anchor="start" x="171" y="-303.2" font-family="Helvetica,sans-Serif" font-size="11.00">0 rows</text>
<polygon fill="#ffffff" stroke="transparent" points="259,-298 259,-314 381,-314 381,-298 259,-298"/>
<text text-anchor="start" x="359" y="-303.2" font-family="Helvetica,sans-Serif" font-size="11.00">1 &gt;</text>
<polygon fill="black" stroke="black" points="120,-298 120,-314 120,-314 120,-298 120,-298"/>
<polygon fill="black" stroke="black" points="259,-298 259,-314 259,-314 259,-298 259,-298"/>
</a>
</g>
</g>
<!-- trench_point&#45;&gt;tdh_vl.trench_point_elevation_determination -->
<g id="edge1" class="edge">
<title>trench_point:w&#45;&gt;tdh_vl.trench_point_elevation_determination:e</title>
<path fill="none" stroke="black" d="M417.48,-326C408.47,-326 399.33,-326 390.15,-326"/>
<polygon fill="black" stroke="black" points="424,-326 432,-329.6 428,-326 432,-326 432,-326 432,-326 428,-326 432,-322.4 424,-326 424,-326"/>
<ellipse fill="none" stroke="black" cx="420.8" cy="-326" rx="3.2" ry="3.2"/>
</g>
<!-- organisation -->
<g id="node3" class="node">
<title>organisation</title>
<g id="a_node3"><a xlink:href="../../tables/organisation.html" xlink:title="organisation" target="_top">
<polygon fill="#ffffff" stroke="transparent" points="108,-37 108,-227 282,-227 282,-37 108,-37"/>
<polygon fill="#f5f5f5" stroke="transparent" points="108,-205 108,-227 282,-227 282,-205 108,-205"/>
<polygon fill="none" stroke="black" points="108,-205 108,-227 282,-227 282,-205 108,-205"/>
<text text-anchor="start" x="113" y="-214.2" font-family="Helvetica,sans-Serif" font-weight="bold" font-size="11.00">organisation</text>
<text text-anchor="start" x="240" y="-213.2" font-family="Helvetica,sans-Serif" font-size="11.00">[table]</text>
<polygon fill="none" stroke="black" points="108,-183 108,-205 282,-205 282,-183 108,-183"/>
<image xlink:href="../../images/primaryKeys.png" width="11px" height="12px" preserveAspectRatio="xMinYMin meet" x="113" y="-200"/>
<text text-anchor="start" x="128" y="-191.2" font-family="Helvetica,sans-Serif" font-size="11.00">obj_id</text>
<polygon fill="#ffffff" stroke="transparent" points="108,-161 108,-183 282,-183 282,-161 108,-161"/>
<polygon fill="none" stroke="black" points="108,-161 108,-183 282,-183 282,-161 108,-161"/>
<text text-anchor="start" x="128" y="-169.2" font-family="Helvetica,sans-Serif" font-size="11.00">identifier</text>
<polygon fill="none" stroke="black" points="108,-139 108,-161 282,-161 282,-139 108,-139"/>
<image xlink:href="../../images/foreignKeys.png" width="11px" height="12px" preserveAspectRatio="xMinYMin meet" x="113" y="-156"/>
<text text-anchor="start" x="128" y="-147.2" font-family="Helvetica,sans-Serif" font-size="11.00">organisation_type</text>
<polygon fill="none" stroke="black" points="108,-117 108,-139 282,-139 282,-117 108,-117"/>
<image xlink:href="../../images/foreignKeys.png" width="11px" height="12px" preserveAspectRatio="xMinYMin meet" x="113" y="-134"/>
<text text-anchor="start" x="128" y="-125.2" font-family="Helvetica,sans-Serif" font-size="11.00">status</text>
<polygon fill="#ffffff" stroke="transparent" points="108,-95 108,-117 282,-117 282,-95 108,-95"/>
<polygon fill="none" stroke="black" points="108,-95 108,-117 282,-117 282,-95 108,-95"/>
<image xlink:href="../../images/foreignKeys.png" width="11px" height="12px" preserveAspectRatio="xMinYMin meet" x="113" y="-112"/>
<text text-anchor="start" x="128" y="-103.2" font-family="Helvetica,sans-Serif" font-size="11.00">fk_dataowner</text>
<polygon fill="none" stroke="black" points="108,-73 108,-95 282,-95 282,-73 108,-73"/>
<image xlink:href="../../images/foreignKeys.png" width="11px" height="12px" preserveAspectRatio="xMinYMin meet" x="113" y="-90"/>
<text text-anchor="start" x="128" y="-81.2" font-family="Helvetica,sans-Serif" font-size="11.00">fk_provider</text>
<polygon fill="none" stroke="black" points="108,-55 108,-73 282,-73 282,-55 108,-55"/>
<text text-anchor="start" x="111" y="-61.2" font-family="Helvetica,sans-Serif" font-size="11.00">...</text>
<polygon fill="#ffffff" stroke="transparent" points="108,-37 108,-55 282,-55 282,-37 108,-37"/>
<polygon fill="none" stroke="black" points="108,-37 108,-55 282,-55 282,-37 108,-37"/>
<polygon fill="#ffffff" stroke="transparent" points="109,-38 109,-54 168,-54 168,-38 109,-38"/>
<text text-anchor="start" x="111" y="-43.2" font-family="Helvetica,sans-Serif" font-size="11.00">&lt; 4</text>
<polygon fill="#ffffff" stroke="transparent" points="168,-38 168,-54 215,-54 215,-38 168,-38"/>
<text text-anchor="start" x="187.5" y="-43.2" font-family="Helvetica,sans-Serif" font-size="11.00"> &#160;</text>
<polygon fill="#ffffff" stroke="transparent" points="215,-38 215,-54 281,-54 281,-38 215,-38"/>
<text text-anchor="start" x="252" y="-43.2" font-family="Helvetica,sans-Serif" font-size="11.00">33 &gt;</text>
<polygon fill="black" stroke="black" points="168,-38 168,-54 168,-54 168,-38 168,-38"/>
<polygon fill="black" stroke="black" points="215,-38 215,-54 215,-54 215,-38 215,-38"/>
</a>
</g>
</g>
<!-- trench_point&#45;&gt;organisation -->
<g id="edge2" class="edge">
<title>trench_point:w&#45;&gt;organisation:e</title>
<path fill="none" stroke="black" d="M417.56,-215.64C362.46,-212.78 344.84,-194 283,-194"/>
<polygon fill="black" stroke="black" points="424,-215.8 431.91,-219.6 428,-215.9 432,-216 432,-216 432,-216 428,-215.9 432.09,-212.4 424,-215.8 424,-215.8"/>
<ellipse fill="none" stroke="black" cx="420.8" cy="-215.72" rx="3.2" ry="3.2"/>
</g>
<!-- trench_point&#45;&gt;organisation -->
<g id="edge3" class="edge">
<title>trench_point:w&#45;&gt;organisation:e</title>
<path fill="none" stroke="black" d="M417.56,-172.36C362.46,-175.22 344.84,-194 283,-194"/>
<polygon fill="black" stroke="black" points="424,-172.2 432.09,-175.6 428,-172.1 432,-172 432,-172 432,-172 428,-172.1 431.91,-168.4 424,-172.2 424,-172.2"/>
<ellipse fill="none" stroke="black" cx="420.8" cy="-172.28" rx="3.2" ry="3.2"/>
</g>
<!-- trench_point&#45;&gt;organisation -->
<g id="edge4" class="edge">
<title>trench_point:w&#45;&gt;organisation:e</title>
<path fill="none" stroke="black" d="M417.34,-194C362.89,-194 344.05,-194 283,-194"/>
<polygon fill="black" stroke="black" points="424,-194 432,-197.6 428,-194 432,-194 432,-194 432,-194 428,-194 432,-190.4 424,-194 424,-194"/>
<ellipse fill="none" stroke="black" cx="420.8" cy="-194" rx="3.2" ry="3.2"/>
</g>
<!-- tdh_vl.trench_point_horizontal_positioning -->
<g id="node4" class="node">
<title>tdh_vl.trench_point_horizontal_positioning</title>
<g id="a_node4"><a xlink:href="../../../tdh_vl/tables/trench_point_horizontal_positioning.html" xlink:title="tdh_vl.trench_point_horizontal_positioning" target="_top">
<polygon fill="#ffffff" stroke="transparent" points="16,-470 16,-528 374,-528 374,-470 16,-470"/>
<polygon fill="#f5f5f5" stroke="transparent" points="16,-506 16,-528 374,-528 374,-506 16,-506"/>
<polygon fill="none" stroke="black" points="16,-506 16,-528 374,-528 374,-506 16,-506"/>
<text text-anchor="start" x="21" y="-515.2" font-family="Helvetica,sans-Serif" font-weight="bold" font-size="11.00">tdh_vl.trench_point_horizontal_positioning</text>
<text text-anchor="start" x="332" y="-514.2" font-family="Helvetica,sans-Serif" font-size="11.00">[table]</text>
<polygon fill="none" stroke="black" points="16,-488 16,-506 374,-506 374,-488 16,-488"/>
<text text-anchor="start" x="19" y="-494.2" font-family="Helvetica,sans-Serif" font-size="11.00">...</text>
<polygon fill="#ffffff" stroke="transparent" points="16,-470 16,-488 374,-488 374,-470 16,-470"/>
<polygon fill="none" stroke="black" points="16,-470 16,-488 374,-488 374,-470 16,-470"/>
<polygon fill="#ffffff" stroke="transparent" points="17,-471 17,-487 122,-487 122,-471 17,-471"/>
<text text-anchor="start" x="19" y="-476.2" font-family="Helvetica,sans-Serif" font-size="11.00"> &#160;</text>
<polygon fill="#ffffff" stroke="transparent" points="122,-471 122,-487 256,-487 256,-471 122,-471"/>
<text text-anchor="start" x="170.5" y="-476.2" font-family="Helvetica,sans-Serif" font-size="11.00">0 rows</text>
<polygon fill="#ffffff" stroke="transparent" points="256,-471 256,-487 373,-487 373,-471 256,-471"/>
<text text-anchor="start" x="351" y="-476.2" font-family="Helvetica,sans-Serif" font-size="11.00">1 &gt;</text>
<polygon fill="black" stroke="black" points="122,-471 122,-487 122,-487 122,-471 122,-471"/>
<polygon fill="black" stroke="black" points="256,-471 256,-487 256,-487 256,-471 256,-471"/>
</a>
</g>
</g>
<!-- trench_point&#45;&gt;tdh_vl.trench_point_horizontal_positioning -->
<g id="edge5" class="edge">
<title>trench_point:w&#45;&gt;tdh_vl.trench_point_horizontal_positioning:e</title>
<path fill="none" stroke="black" d="M417.51,-458.69C402.87,-459.89 383.81,-462.55 363,-465.95"/>
<polygon fill="black" stroke="black" points="424.01,-458.38 432.17,-461.6 428,-458.19 432,-458 432,-458 432,-458 428,-458.19 431.83,-454.4 424.01,-458.38 424.01,-458.38"/>
<ellipse fill="none" stroke="black" cx="420.81" cy="-458.54" rx="3.2" ry="3.2"/>
</g>
<!-- tdh_vl.trench_point_kind -->
<g id="node5" class="node">
<title>tdh_vl.trench_point_kind</title>
<g id="a_node5"><a xlink:href="../../../tdh_vl/tables/trench_point_kind.html" xlink:title="tdh_vl.trench_point_kind" target="_top">
<polygon fill="#ffffff" stroke="transparent" points="82,-391 82,-449 308,-449 308,-391 82,-391"/>
<polygon fill="#f5f5f5" stroke="transparent" points="82,-427 82,-449 308,-449 308,-427 82,-427"/>
<polygon fill="none" stroke="black" points="82,-427 82,-449 308,-449 308,-427 82,-427"/>
<text text-anchor="start" x="87" y="-436.2" font-family="Helvetica,sans-Serif" font-weight="bold" font-size="11.00">tdh_vl.trench_point_kind</text>
<text text-anchor="start" x="266" y="-435.2" font-family="Helvetica,sans-Serif" font-size="11.00">[table]</text>
<polygon fill="none" stroke="black" points="82,-409 82,-427 308,-427 308,-409 82,-409"/>
<text text-anchor="start" x="85" y="-415.2" font-family="Helvetica,sans-Serif" font-size="11.00">...</text>
<polygon fill="#ffffff" stroke="transparent" points="82,-391 82,-409 308,-409 308,-391 82,-391"/>
<polygon fill="none" stroke="black" points="82,-391 82,-409 308,-409 308,-391 82,-391"/>
<polygon fill="#ffffff" stroke="transparent" points="83,-392 83,-408 144,-408 144,-392 83,-392"/>
<text text-anchor="start" x="85" y="-397.2" font-family="Helvetica,sans-Serif" font-size="11.00"> &#160;</text>
<polygon fill="#ffffff" stroke="transparent" points="144,-392 144,-408 234,-408 234,-392 144,-392"/>
<text text-anchor="start" x="170.5" y="-397.2" font-family="Helvetica,sans-Serif" font-size="11.00">0 rows</text>
<polygon fill="#ffffff" stroke="transparent" points="234,-392 234,-408 307,-408 307,-392 234,-392"/>
<text text-anchor="start" x="285" y="-397.2" font-family="Helvetica,sans-Serif" font-size="11.00">1 &gt;</text>
<polygon fill="black" stroke="black" points="144,-392 144,-408 144,-408 144,-392 144,-392"/>
<polygon fill="black" stroke="black" points="234,-392 234,-408 234,-408 234,-392 234,-392"/>
</a>
</g>
</g>
<!-- trench_point&#45;&gt;tdh_vl.trench_point_kind -->
<g id="edge6" class="edge">
<title>trench_point:w&#45;&gt;tdh_vl.trench_point_kind:e</title>
<path fill="none" stroke="black" d="M417.28,-435.9C383.82,-435.46 348.56,-433.6 316.26,-431.31"/>
<polygon fill="black" stroke="black" points="424,-435.95 431.98,-439.6 428,-435.97 432,-436 432,-436 432,-436 428,-435.97 432.02,-432.4 424,-435.95 424,-435.95"/>
<ellipse fill="none" stroke="black" cx="420.8" cy="-435.92" rx="3.2" ry="3.2"/>
</g>
</g>
</svg>
