<?xml version="1.0" encoding="UTF-8" standalone="no"?>
<!DOCTYPE svg PUBLIC "-//W3C//DTD SVG 1.1//EN"
 "http://www.w3.org/Graphics/SVG/1.1/DTD/svg11.dtd">
<!-- Generated by graphviz version 2.47.1 (20210515.0534)
 -->
<!-- Title: oneDegreeRelationshipsDiagram Pages: 1 -->
<svg width="839pt" height="716pt"
 viewBox="0.00 0.00 839.00 716.00" xmlns="http://www.w3.org/2000/svg" xmlns:xlink="http://www.w3.org/1999/xlink">
<g id="graph0" class="graph" transform="scale(1 1) rotate(0) translate(4 712)">
<title>oneDegreeRelationshipsDiagram</title>
<polygon fill="#ffffff" stroke="transparent" points="-4,4 -4,-712 835,-712 835,4 -4,4"/>
<text text-anchor="middle" x="73.5" y="-7.2" font-family="Helvetica,sans-Serif" font-size="11.00">Generated by SchemaSpy</text>
<!-- trench -->
<g id="node1" class="node">
<title>trench</title>
<g id="a_node1"><a xlink:href="../../tables/trench.html" xlink:title="trench" target="_top">
<polygon fill="#ffffff" stroke="transparent" points="318,-125 318,-653 619,-653 619,-125 318,-125"/>
<polygon fill="#f5f5f5" stroke="transparent" points="320.5,-629 320.5,-651 617.5,-651 617.5,-629 320.5,-629"/>
<polygon fill="none" stroke="black" points="320.5,-629 320.5,-651 617.5,-651 617.5,-629 320.5,-629"/>
<text text-anchor="start" x="324" y="-638.2" font-family="Helvetica,sans-Serif" font-weight="bold" font-size="11.00">trench</text>
<text text-anchor="start" x="578.5" y="-637.2" font-family="Helvetica,sans-Serif" font-size="11.00">[table]</text>
<polygon fill="none" stroke="black" points="320.5,-607 320.5,-629 494.5,-629 494.5,-607 320.5,-607"/>
<image xlink:href="../../images/primaryKeys.png" width="11px" height="12px" preserveAspectRatio="xMinYMin meet" x="325.5" y="-624"/>
<text text-anchor="start" x="340.5" y="-615.2" font-family="Helvetica,sans-Serif" font-size="11.00">obj_id</text>
<polygon fill="none" stroke="black" points="494.5,-607 494.5,-629 617.5,-629 617.5,-607 494.5,-607"/>
<text text-anchor="start" x="497.5" y="-615.2" font-family="Helvetica,sans-Serif" font-size="11.00">varchar[16]</text>
<polygon fill="#ffffff" stroke="transparent" points="320.5,-585 320.5,-607 494.5,-607 494.5,-585 320.5,-585"/>
<polygon fill="none" stroke="black" points="320.5,-585 320.5,-607 494.5,-607 494.5,-585 320.5,-585"/>
<text text-anchor="start" x="340.5" y="-593.2" font-family="Helvetica,sans-Serif" font-size="11.00">name_number</text>
<polygon fill="none" stroke="black" points="494.5,-585 494.5,-607 617.5,-607 617.5,-585 494.5,-585"/>
<text text-anchor="start" x="497.5" y="-593.2" font-family="Helvetica,sans-Serif" font-size="11.00">text[2147483647]</text>
<polygon fill="#ffffff" stroke="transparent" points="320.5,-563 320.5,-585 494.5,-585 494.5,-563 320.5,-563"/>
<polygon fill="none" stroke="black" points="320.5,-563 320.5,-585 494.5,-585 494.5,-563 320.5,-563"/>
<text text-anchor="start" x="340.5" y="-571.2" font-family="Helvetica,sans-Serif" font-size="11.00">geometry3d_geometry</text>
<polygon fill="none" stroke="black" points="494.5,-563 494.5,-585 617.5,-585 617.5,-563 494.5,-563"/>
<text text-anchor="start" x="497.5" y="-571.2" font-family="Helvetica,sans-Serif" font-size="11.00">geometry[2147483647]</text>
<polygon fill="none" stroke="black" points="320.5,-541 320.5,-563 494.5,-563 494.5,-541 320.5,-541"/>
<image xlink:href="../../images/foreignKeys.png" width="11px" height="12px" preserveAspectRatio="xMinYMin meet" x="325.5" y="-558"/>
<text text-anchor="start" x="340.5" y="-549.2" font-family="Helvetica,sans-Serif" font-size="11.00">horizontal_positioning</text>
<polygon fill="none" stroke="black" points="494.5,-541 494.5,-563 617.5,-563 617.5,-541 494.5,-541"/>
<text text-anchor="start" x="497.5" y="-549.2" font-family="Helvetica,sans-Serif" font-size="11.00">int4[10]</text>
<polygon fill="none" stroke="black" points="320.5,-519 320.5,-541 494.5,-541 494.5,-519 320.5,-519"/>
<image xlink:href="../../images/foreignKeys.png" width="11px" height="12px" preserveAspectRatio="xMinYMin meet" x="325.5" y="-536"/>
<text text-anchor="start" x="340.5" y="-527.2" font-family="Helvetica,sans-Serif" font-size="11.00">status</text>
<polygon fill="none" stroke="black" points="494.5,-519 494.5,-541 617.5,-541 617.5,-519 494.5,-519"/>
<text text-anchor="start" x="497.5" y="-527.2" font-family="Helvetica,sans-Serif" font-size="11.00">int4[10]</text>
<polygon fill="none" stroke="black" points="320.5,-497 320.5,-519 494.5,-519 494.5,-497 320.5,-497"/>
<image xlink:href="../../images/foreignKeys.png" width="11px" height="12px" preserveAspectRatio="xMinYMin meet" x="325.5" y="-514"/>
<text text-anchor="start" x="340.5" y="-505.2" font-family="Helvetica,sans-Serif" font-size="11.00">trench_type</text>
<polygon fill="none" stroke="black" points="494.5,-497 494.5,-519 617.5,-519 617.5,-497 494.5,-497"/>
<text text-anchor="start" x="497.5" y="-505.2" font-family="Helvetica,sans-Serif" font-size="11.00">int4[10]</text>
<polygon fill="none" stroke="black" points="320.5,-475 320.5,-497 494.5,-497 494.5,-475 320.5,-475"/>
<text text-anchor="start" x="340.5" y="-483.2" font-family="Helvetica,sans-Serif" font-size="11.00">trench_width</text>
<polygon fill="none" stroke="black" points="494.5,-475 494.5,-497 617.5,-497 617.5,-475 494.5,-475"/>
<text text-anchor="start" x="497.5" y="-483.2" font-family="Helvetica,sans-Serif" font-size="11.00">int2[5]</text>
<polygon fill="none" stroke="black" points="320.5,-453 320.5,-475 494.5,-475 494.5,-453 320.5,-453"/>
<text text-anchor="start" x="340.5" y="-461.2" font-family="Helvetica,sans-Serif" font-size="11.00">installation_year</text>
<polygon fill="none" stroke="black" points="494.5,-453 494.5,-475 617.5,-475 617.5,-453 494.5,-453"/>
<text text-anchor="start" x="497.5" y="-461.2" font-family="Helvetica,sans-Serif" font-size="11.00">int2[5]</text>
<polygon fill="none" stroke="black" points="320.5,-431 320.5,-453 494.5,-453 494.5,-431 320.5,-431"/>
<image xlink:href="../../images/foreignKeys.png" width="11px" height="12px" preserveAspectRatio="xMinYMin meet" x="325.5" y="-448"/>
<text text-anchor="start" x="340.5" y="-439.2" font-family="Helvetica,sans-Serif" font-size="11.00">embedding</text>
<polygon fill="none" stroke="black" points="494.5,-431 494.5,-453 617.5,-453 617.5,-431 494.5,-431"/>
<text text-anchor="start" x="497.5" y="-439.2" font-family="Helvetica,sans-Serif" font-size="11.00">int4[10]</text>
<polygon fill="none" stroke="black" points="320.5,-409 320.5,-431 494.5,-431 494.5,-409 320.5,-409"/>
<image xlink:href="../../images/foreignKeys.png" width="11px" height="12px" preserveAspectRatio="xMinYMin meet" x="325.5" y="-426"/>
<text text-anchor="start" x="340.5" y="-417.2" font-family="Helvetica,sans-Serif" font-size="11.00">control_system</text>
<polygon fill="none" stroke="black" points="494.5,-409 494.5,-431 617.5,-431 617.5,-409 494.5,-409"/>
<text text-anchor="start" x="497.5" y="-417.2" font-family="Helvetica,sans-Serif" font-size="11.00">int4[10]</text>
<polygon fill="none" stroke="black" points="320.5,-387 320.5,-409 494.5,-409 494.5,-387 320.5,-387"/>
<image xlink:href="../../images/foreignKeys.png" width="11px" height="12px" preserveAspectRatio="xMinYMin meet" x="325.5" y="-404"/>
<text text-anchor="start" x="340.5" y="-395.2" font-family="Helvetica,sans-Serif" font-size="11.00">cable_conduits</text>
<polygon fill="none" stroke="black" points="494.5,-387 494.5,-409 617.5,-409 617.5,-387 494.5,-387"/>
<text text-anchor="start" x="497.5" y="-395.2" font-family="Helvetica,sans-Serif" font-size="11.00">int4[10]</text>
<polygon fill="none" stroke="black" points="320.5,-365 320.5,-387 494.5,-387 494.5,-365 320.5,-365"/>
<text text-anchor="start" x="340.5" y="-373.2" font-family="Helvetica,sans-Serif" font-size="11.00">construction_company</text>
<polygon fill="none" stroke="black" points="494.5,-365 494.5,-387 617.5,-387 617.5,-365 494.5,-365"/>
<text text-anchor="start" x="497.5" y="-373.2" font-family="Helvetica,sans-Serif" font-size="11.00">text[2147483647]</text>
<polygon fill="none" stroke="black" points="320.5,-343 320.5,-365 494.5,-365 494.5,-343 320.5,-343"/>
<text text-anchor="start" x="340.5" y="-351.2" font-family="Helvetica,sans-Serif" font-size="11.00">repair</text>
<polygon fill="none" stroke="black" points="494.5,-343 494.5,-365 617.5,-365 617.5,-343 494.5,-343"/>
<text text-anchor="start" x="497.5" y="-351.2" font-family="Helvetica,sans-Serif" font-size="11.00">timestamp[29,6]</text>
<polygon fill="none" stroke="black" points="320.5,-321 320.5,-343 494.5,-343 494.5,-321 320.5,-321"/>
<text text-anchor="start" x="340.5" y="-329.2" font-family="Helvetica,sans-Serif" font-size="11.00">documentation</text>
<polygon fill="none" stroke="black" points="494.5,-321 494.5,-343 617.5,-343 617.5,-321 494.5,-321"/>
<text text-anchor="start" x="497.5" y="-329.2" font-family="Helvetica,sans-Serif" font-size="11.00">text[2147483647]</text>
<polygon fill="none" stroke="black" points="320.5,-299 320.5,-321 494.5,-321 494.5,-299 320.5,-299"/>
<text text-anchor="start" x="340.5" y="-307.2" font-family="Helvetica,sans-Serif" font-size="11.00">mandate</text>
<polygon fill="none" stroke="black" points="494.5,-299 494.5,-321 617.5,-321 617.5,-299 494.5,-299"/>
<text text-anchor="start" x="497.5" y="-307.2" font-family="Helvetica,sans-Serif" font-size="11.00">text[2147483647]</text>
<polygon fill="none" stroke="black" points="320.5,-277 320.5,-299 494.5,-299 494.5,-277 320.5,-277"/>
<text text-anchor="start" x="340.5" y="-285.2" font-family="Helvetica,sans-Serif" font-size="11.00">remark</text>
<polygon fill="none" stroke="black" points="494.5,-277 494.5,-299 617.5,-299 617.5,-277 494.5,-277"/>
<text text-anchor="start" x="497.5" y="-285.2" font-family="Helvetica,sans-Serif" font-size="11.00">text[2147483647]</text>
<polygon fill="none" stroke="black" points="320.5,-255 320.5,-277 494.5,-277 494.5,-255 320.5,-255"/>
<text text-anchor="start" x="340.5" y="-263.2" font-family="Helvetica,sans-Serif" font-size="11.00">depth</text>
<polygon fill="none" stroke="black" points="494.5,-255 494.5,-277 617.5,-277 617.5,-255 494.5,-255"/>
<text text-anchor="start" x="497.5" y="-263.2" font-family="Helvetica,sans-Serif" font-size="11.00">int2[5]</text>
<polygon fill="none" stroke="black" points="320.5,-233 320.5,-255 494.5,-255 494.5,-233 320.5,-233"/>
<text text-anchor="start" x="340.5" y="-241.2" font-family="Helvetica,sans-Serif" font-size="11.00">last_modification</text>
<polygon fill="none" stroke="black" points="494.5,-233 494.5,-255 617.5,-255 617.5,-233 494.5,-233"/>
<text text-anchor="start" x="497.5" y="-241.2" font-family="Helvetica,sans-Serif" font-size="11.00">timestamp[29,6]</text>
<polygon fill="#ffffff" stroke="transparent" points="320.5,-211 320.5,-233 494.5,-233 494.5,-211 320.5,-211"/>
<polygon fill="none" stroke="black" points="320.5,-211 320.5,-233 494.5,-233 494.5,-211 320.5,-211"/>
<image xlink:href="../../images/foreignKeys.png" width="11px" height="12px" preserveAspectRatio="xMinYMin meet" x="325.5" y="-228"/>
<text text-anchor="start" x="340.5" y="-219.2" font-family="Helvetica,sans-Serif" font-size="11.00">fk_dataowner</text>
<polygon fill="none" stroke="black" points="494.5,-211 494.5,-233 617.5,-233 617.5,-211 494.5,-211"/>
<text text-anchor="start" x="497.5" y="-219.2" font-family="Helvetica,sans-Serif" font-size="11.00">varchar[16]</text>
<polygon fill="none" stroke="black" points="320.5,-189 320.5,-211 494.5,-211 494.5,-189 320.5,-189"/>
<image xlink:href="../../images/foreignKeys.png" width="11px" height="12px" preserveAspectRatio="xMinYMin meet" x="325.5" y="-206"/>
<text text-anchor="start" x="340.5" y="-197.2" font-family="Helvetica,sans-Serif" font-size="11.00">fk_provider</text>
<polygon fill="none" stroke="black" points="494.5,-189 494.5,-211 617.5,-211 617.5,-189 494.5,-189"/>
<text text-anchor="start" x="497.5" y="-197.2" font-family="Helvetica,sans-Serif" font-size="11.00">varchar[16]</text>
<polygon fill="none" stroke="black" points="320.5,-167 320.5,-189 494.5,-189 494.5,-167 320.5,-167"/>
<image xlink:href="../../images/foreignKeys.png" width="11px" height="12px" preserveAspectRatio="xMinYMin meet" x="325.5" y="-184"/>
<text text-anchor="start" x="340.5" y="-175.2" font-family="Helvetica,sans-Serif" font-size="11.00">fk_owner</text>
<polygon fill="none" stroke="black" points="494.5,-167 494.5,-189 617.5,-189 617.5,-167 494.5,-167"/>
<text text-anchor="start" x="497.5" y="-175.2" font-family="Helvetica,sans-Serif" font-size="11.00">varchar[16]</text>
<polygon fill="none" stroke="black" points="320.5,-145 320.5,-167 494.5,-167 494.5,-145 320.5,-145"/>
<image xlink:href="../../images/foreignKeys.png" width="11px" height="12px" preserveAspectRatio="xMinYMin meet" x="325.5" y="-162"/>
<text text-anchor="start" x="340.5" y="-153.2" font-family="Helvetica,sans-Serif" font-size="11.00">fk_construction_company</text>
<polygon fill="none" stroke="black" points="494.5,-145 494.5,-167 617.5,-167 617.5,-145 494.5,-145"/>
<text text-anchor="start" x="497.5" y="-153.2" font-family="Helvetica,sans-Serif" font-size="11.00">varchar[16]</text>
<polygon fill="#ffffff" stroke="transparent" points="320.5,-127 320.5,-145 414.5,-145 414.5,-127 320.5,-127"/>
<polygon fill="none" stroke="black" points="320.5,-127 320.5,-145 414.5,-145 414.5,-127 320.5,-127"/>
<text text-anchor="start" x="323.5" y="-133.2" font-family="Helvetica,sans-Serif" font-size="11.00">&lt; 10</text>
<polygon fill="#ffffff" stroke="transparent" points="414.5,-127 414.5,-145 494.5,-145 494.5,-127 414.5,-127"/>
<polygon fill="none" stroke="black" points="414.5,-127 414.5,-145 494.5,-145 494.5,-127 414.5,-127"/>
<text text-anchor="start" x="484.5" y="-133.2" font-family="Helvetica,sans-Serif" font-size="11.00"> &#160;</text>
<polygon fill="#ffffff" stroke="transparent" points="494.5,-127 494.5,-145 617.5,-145 617.5,-127 494.5,-127"/>
<polygon fill="none" stroke="black" points="494.5,-127 494.5,-145 617.5,-145 617.5,-127 494.5,-127"/>
<text text-anchor="start" x="598.5" y="-133.2" font-family="Helvetica,sans-Serif" font-size="11.00">1 &gt;</text>
<polygon fill="none" stroke="black" stroke-width="2" points="319,-126 319,-652 618,-652 618,-126 319,-126"/>
</a>
</g>
</g>
<!-- tdh_vl.trench_cable_conduits -->
<g id="node2" class="node">
<title>tdh_vl.trench_cable_conduits</title>
<g id="a_node2"><a xlink:href="../../../tdh_vl/tables/trench_cable_conduits.html" xlink:title="tdh_vl.trench_cable_conduits" target="_top">
<polygon fill="#ffffff" stroke="transparent" points="30.5,-251 30.5,-309 246.5,-309 246.5,-251 30.5,-251"/>
<polygon fill="#f5f5f5" stroke="transparent" points="30.5,-287 30.5,-309 246.5,-309 246.5,-287 30.5,-287"/>
<polygon fill="none" stroke="black" points="30.5,-287 30.5,-309 246.5,-309 246.5,-287 30.5,-287"/>
<text text-anchor="start" x="35.5" y="-296.2" font-family="Helvetica,sans-Serif" font-weight="bold" font-size="11.00">tdh_vl.trench_cable_conduits</text>
<text text-anchor="start" x="207.5" y="-295.2" font-family="Helvetica,sans-Serif" font-size="11.00">[table]</text>
<polygon fill="none" stroke="black" points="30.5,-269 30.5,-287 246.5,-287 246.5,-269 30.5,-269"/>
<text text-anchor="start" x="33.5" y="-275.2" font-family="Helvetica,sans-Serif" font-size="11.00">...</text>
<polygon fill="#ffffff" stroke="transparent" points="30.5,-251 30.5,-269 113.5,-269 113.5,-251 30.5,-251"/>
<polygon fill="none" stroke="black" points="30.5,-251 30.5,-269 113.5,-269 113.5,-251 30.5,-251"/>
<text text-anchor="start" x="33.5" y="-257.2" font-family="Helvetica,sans-Serif" font-size="11.00"> &#160;</text>
<polygon fill="#ffffff" stroke="transparent" points="113.5,-251 113.5,-269 188.5,-269 188.5,-251 113.5,-251"/>
<polygon fill="none" stroke="black" points="113.5,-251 113.5,-269 188.5,-269 188.5,-251 113.5,-251"/>
<text text-anchor="start" x="151.5" y="-257.2" font-family="Helvetica,sans-Serif" font-size="11.00">0 rows</text>
<polygon fill="#ffffff" stroke="transparent" points="188.5,-251 188.5,-269 246.5,-269 246.5,-251 188.5,-251"/>
<polygon fill="none" stroke="black" points="188.5,-251 188.5,-269 246.5,-269 246.5,-251 188.5,-251"/>
<text text-anchor="start" x="227.5" y="-257.2" font-family="Helvetica,sans-Serif" font-size="11.00">1 &gt;</text>
</a>
</g>
</g>
<!-- trench&#45;&gt;tdh_vl.trench_cable_conduits -->
<g id="edge1" class="edge">
<title>trench:w&#45;&gt;tdh_vl.trench_cable_conduits:e</title>
<path fill="none" stroke="black" d="M305.33,-394.36C287.07,-381.83 303.22,-340.07 277,-319 270.13,-313.48 262.53,-308.75 254.52,-304.68"/>
<polygon fill="black" stroke="black" points="311.75,-396.01 318.6,-401.49 315.63,-397 319.5,-398 319.5,-398 319.5,-398 315.63,-397 320.4,-394.51 311.75,-396.01 311.75,-396.01"/>
<ellipse fill="none" stroke="black" cx="308.65" cy="-395.21" rx="3.2" ry="3.2"/>
</g>
<!-- tdh_vl.trench_control_system -->
<g id="node3" class="node">
<title>tdh_vl.trench_control_system</title>
<g id="a_node3"><a xlink:href="../../../tdh_vl/tables/trench_control_system.html" xlink:title="tdh_vl.trench_control_system" target="_top">
<polygon fill="#ffffff" stroke="transparent" points="29,-330 29,-388 248,-388 248,-330 29,-330"/>
<polygon fill="#f5f5f5" stroke="transparent" points="29.5,-366 29.5,-388 248.5,-388 248.5,-366 29.5,-366"/>
<polygon fill="none" stroke="black" points="29.5,-366 29.5,-388 248.5,-388 248.5,-366 29.5,-366"/>
<text text-anchor="start" x="34.5" y="-375.2" font-family="Helvetica,sans-Serif" font-weight="bold" font-size="11.00">tdh_vl.trench_control_system</text>
<text text-anchor="start" x="209.5" y="-374.2" font-family="Helvetica,sans-Serif" font-size="11.00">[table]</text>
<polygon fill="none" stroke="black" points="29.5,-348 29.5,-366 248.5,-366 248.5,-348 29.5,-348"/>
<text text-anchor="start" x="32.5" y="-354.2" font-family="Helvetica,sans-Serif" font-size="11.00">...</text>
<polygon fill="#ffffff" stroke="transparent" points="29.5,-330 29.5,-348 114.5,-348 114.5,-330 29.5,-330"/>
<polygon fill="none" stroke="black" points="29.5,-330 29.5,-348 114.5,-348 114.5,-330 29.5,-330"/>
<text text-anchor="start" x="32.5" y="-336.2" font-family="Helvetica,sans-Serif" font-size="11.00"> &#160;</text>
<polygon fill="#ffffff" stroke="transparent" points="114.5,-330 114.5,-348 190.5,-348 190.5,-330 114.5,-330"/>
<polygon fill="none" stroke="black" points="114.5,-330 114.5,-348 190.5,-348 190.5,-330 114.5,-330"/>
<text text-anchor="start" x="153.5" y="-336.2" font-family="Helvetica,sans-Serif" font-size="11.00">0 rows</text>
<polygon fill="#ffffff" stroke="transparent" points="190.5,-330 190.5,-348 248.5,-348 248.5,-330 190.5,-330"/>
<polygon fill="none" stroke="black" points="190.5,-330 190.5,-348 248.5,-348 248.5,-330 190.5,-330"/>
<text text-anchor="start" x="229.5" y="-336.2" font-family="Helvetica,sans-Serif" font-size="11.00">1 &gt;</text>
</a>
</g>
</g>
<!-- trench&#45;&gt;tdh_vl.trench_control_system -->
<g id="edge2" class="edge">
<title>trench:w&#45;&gt;tdh_vl.trench_control_system:e</title>
<path fill="none" stroke="black" d="M305.16,-417.11C295.9,-412.75 290.96,-404.43 277,-399 270.28,-396.39 263.32,-393.85 256.26,-391.41"/>
<polygon fill="black" stroke="black" points="311.66,-418.42 318.79,-423.53 315.58,-419.21 319.5,-420 319.5,-420 319.5,-420 315.58,-419.21 320.21,-416.47 311.66,-418.42 311.66,-418.42"/>
<ellipse fill="none" stroke="black" cx="308.52" cy="-417.79" rx="3.2" ry="3.2"/>
</g>
<!-- tdh_vl.trench_embedding -->
<g id="node4" class="node">
<title>tdh_vl.trench_embedding</title>
<g id="a_node4"><a xlink:href="../../../tdh_vl/tables/trench_embedding.html" xlink:title="tdh_vl.trench_embedding" target="_top">
<polygon fill="#ffffff" stroke="transparent" points="41,-409 41,-467 236,-467 236,-409 41,-409"/>
<polygon fill="#f5f5f5" stroke="transparent" points="41.5,-445 41.5,-467 236.5,-467 236.5,-445 41.5,-445"/>
<polygon fill="none" stroke="black" points="41.5,-445 41.5,-467 236.5,-467 236.5,-445 41.5,-445"/>
<text text-anchor="start" x="46.5" y="-454.2" font-family="Helvetica,sans-Serif" font-weight="bold" font-size="11.00">tdh_vl.trench_embedding</text>
<text text-anchor="start" x="197.5" y="-453.2" font-family="Helvetica,sans-Serif" font-size="11.00">[table]</text>
<polygon fill="none" stroke="black" points="41.5,-427 41.5,-445 236.5,-445 236.5,-427 41.5,-427"/>
<text text-anchor="start" x="44.5" y="-433.2" font-family="Helvetica,sans-Serif" font-size="11.00">...</text>
<polygon fill="#ffffff" stroke="transparent" points="41.5,-409 41.5,-427 114.5,-427 114.5,-409 41.5,-409"/>
<polygon fill="none" stroke="black" points="41.5,-409 41.5,-427 114.5,-427 114.5,-409 41.5,-409"/>
<text text-anchor="start" x="44.5" y="-415.2" font-family="Helvetica,sans-Serif" font-size="11.00"> &#160;</text>
<polygon fill="#ffffff" stroke="transparent" points="114.5,-409 114.5,-427 184.5,-427 184.5,-409 114.5,-409"/>
<polygon fill="none" stroke="black" points="114.5,-409 114.5,-427 184.5,-427 184.5,-409 114.5,-409"/>
<text text-anchor="start" x="147.5" y="-415.2" font-family="Helvetica,sans-Serif" font-size="11.00">0 rows</text>
<polygon fill="#ffffff" stroke="transparent" points="184.5,-409 184.5,-427 236.5,-427 236.5,-409 184.5,-409"/>
<polygon fill="none" stroke="black" points="184.5,-409 184.5,-427 236.5,-427 236.5,-409 184.5,-409"/>
<text text-anchor="start" x="217.5" y="-415.2" font-family="Helvetica,sans-Serif" font-size="11.00">1 &gt;</text>
</a>
</g>
</g>
<!-- trench&#45;&gt;tdh_vl.trench_embedding -->
<g id="edge3" class="edge">
<title>trench:w&#45;&gt;tdh_vl.trench_embedding:e</title>
<path fill="none" stroke="black" d="M305.03,-441.96C284.93,-441.85 264.06,-441.53 244.19,-441.11"/>
<polygon fill="black" stroke="black" points="311.5,-441.98 319.49,-445.6 315.5,-441.99 319.5,-442 319.5,-442 319.5,-442 315.5,-441.99 319.51,-438.4 311.5,-441.98 311.5,-441.98"/>
<ellipse fill="none" stroke="black" cx="308.3" cy="-441.97" rx="3.2" ry="3.2"/>
</g>
<!-- organisation -->
<g id="node5" class="node">
<title>organisation</title>
<g id="a_node5"><a xlink:href="../../tables/organisation.html" xlink:title="organisation" target="_top">
<polygon fill="#ffffff" stroke="transparent" points="64.5,-37 64.5,-227 212.5,-227 212.5,-37 64.5,-37"/>
<polygon fill="#f5f5f5" stroke="transparent" points="64.5,-205 64.5,-227 212.5,-227 212.5,-205 64.5,-205"/>
<polygon fill="none" stroke="black" points="64.5,-205 64.5,-227 212.5,-227 212.5,-205 64.5,-205"/>
<text text-anchor="start" x="69.5" y="-214.2" font-family="Helvetica,sans-Serif" font-weight="bold" font-size="11.00">organisation</text>
<text text-anchor="start" x="173.5" y="-213.2" font-family="Helvetica,sans-Serif" font-size="11.00">[table]</text>
<polygon fill="none" stroke="black" points="64.5,-183 64.5,-205 212.5,-205 212.5,-183 64.5,-183"/>
<image xlink:href="../../images/primaryKeys.png" width="11px" height="12px" preserveAspectRatio="xMinYMin meet" x="69.5" y="-200"/>
<text text-anchor="start" x="84.5" y="-191.2" font-family="Helvetica,sans-Serif" font-size="11.00">obj_id</text>
<polygon fill="#ffffff" stroke="transparent" points="64.5,-161 64.5,-183 212.5,-183 212.5,-161 64.5,-161"/>
<polygon fill="none" stroke="black" points="64.5,-161 64.5,-183 212.5,-183 212.5,-161 64.5,-161"/>
<text text-anchor="start" x="84.5" y="-169.2" font-family="Helvetica,sans-Serif" font-size="11.00">identifier</text>
<polygon fill="none" stroke="black" points="64.5,-139 64.5,-161 212.5,-161 212.5,-139 64.5,-139"/>
<image xlink:href="../../images/foreignKeys.png" width="11px" height="12px" preserveAspectRatio="xMinYMin meet" x="69.5" y="-156"/>
<text text-anchor="start" x="84.5" y="-147.2" font-family="Helvetica,sans-Serif" font-size="11.00">organisation_type</text>
<polygon fill="none" stroke="black" points="64.5,-117 64.5,-139 212.5,-139 212.5,-117 64.5,-117"/>
<image xlink:href="../../images/foreignKeys.png" width="11px" height="12px" preserveAspectRatio="xMinYMin meet" x="69.5" y="-134"/>
<text text-anchor="start" x="84.5" y="-125.2" font-family="Helvetica,sans-Serif" font-size="11.00">status</text>
<polygon fill="#ffffff" stroke="transparent" points="64.5,-95 64.5,-117 212.5,-117 212.5,-95 64.5,-95"/>
<polygon fill="none" stroke="black" points="64.5,-95 64.5,-117 212.5,-117 212.5,-95 64.5,-95"/>
<image xlink:href="../../images/foreignKeys.png" width="11px" height="12px" preserveAspectRatio="xMinYMin meet" x="69.5" y="-112"/>
<text text-anchor="start" x="84.5" y="-103.2" font-family="Helvetica,sans-Serif" font-size="11.00">fk_dataowner</text>
<polygon fill="none" stroke="black" points="64.5,-73 64.5,-95 212.5,-95 212.5,-73 64.5,-73"/>
<image xlink:href="../../images/foreignKeys.png" width="11px" height="12px" preserveAspectRatio="xMinYMin meet" x="69.5" y="-90"/>
<text text-anchor="start" x="84.5" y="-81.2" font-family="Helvetica,sans-Serif" font-size="11.00">fk_provider</text>
<polygon fill="none" stroke="black" points="64.5,-55 64.5,-73 212.5,-73 212.5,-55 64.5,-55"/>
<text text-anchor="start" x="67.5" y="-61.2" font-family="Helvetica,sans-Serif" font-size="11.00">...</text>
<polygon fill="#ffffff" stroke="transparent" points="64.5,-37 64.5,-55 128.5,-55 128.5,-37 64.5,-37"/>
<polygon fill="none" stroke="black" points="64.5,-37 64.5,-55 128.5,-55 128.5,-37 64.5,-37"/>
<text text-anchor="start" x="67.5" y="-43.2" font-family="Helvetica,sans-Serif" font-size="11.00">&lt; 4</text>
<polygon fill="#ffffff" stroke="transparent" points="128.5,-37 128.5,-55 162.5,-55 162.5,-37 128.5,-37"/>
<polygon fill="none" stroke="black" points="128.5,-37 128.5,-55 162.5,-55 162.5,-37 128.5,-37"/>
<text text-anchor="start" x="152.5" y="-43.2" font-family="Helvetica,sans-Serif" font-size="11.00"> &#160;</text>
<polygon fill="#ffffff" stroke="transparent" points="162.5,-37 162.5,-55 212.5,-55 212.5,-37 162.5,-37"/>
<polygon fill="none" stroke="black" points="162.5,-37 162.5,-55 212.5,-55 212.5,-37 162.5,-37"/>
<text text-anchor="start" x="187.5" y="-43.2" font-family="Helvetica,sans-Serif" font-size="11.00">29 &gt;</text>
</a>
</g>
</g>
<!-- trench&#45;&gt;organisation -->
<g id="edge4" class="edge">
<title>trench:w&#45;&gt;organisation:e</title>
<path fill="none" stroke="black" d="M305.03,-157.18C267.72,-163.59 258.27,-194 213.5,-194"/>
<polygon fill="black" stroke="black" points="311.53,-156.65 319.79,-159.59 315.51,-156.32 319.5,-156 319.5,-156 319.5,-156 315.51,-156.32 319.21,-152.41 311.53,-156.65 311.53,-156.65"/>
<ellipse fill="none" stroke="black" cx="308.34" cy="-156.91" rx="3.2" ry="3.2"/>
</g>
<!-- trench&#45;&gt;organisation -->
<g id="edge5" class="edge">
<title>trench:w&#45;&gt;organisation:e</title>
<path fill="none" stroke="black" d="M304.85,-221.07C268.42,-216.21 256.9,-194 213.5,-194"/>
<polygon fill="black" stroke="black" points="311.52,-221.49 319.27,-225.59 315.51,-221.75 319.5,-222 319.5,-222 319.5,-222 315.51,-221.75 319.73,-218.41 311.52,-221.49 311.52,-221.49"/>
<ellipse fill="none" stroke="black" cx="308.32" cy="-221.29" rx="3.2" ry="3.2"/>
</g>
<!-- trench&#45;&gt;organisation -->
<g id="edge6" class="edge">
<title>trench:w&#45;&gt;organisation:e</title>
<path fill="none" stroke="black" d="M305.1,-178.53C269.07,-181.31 255.93,-194 213.5,-194"/>
<polygon fill="black" stroke="black" points="311.51,-178.3 319.63,-181.6 315.5,-178.15 319.5,-178 319.5,-178 319.5,-178 315.5,-178.15 319.37,-174.4 311.51,-178.3 311.51,-178.3"/>
<ellipse fill="none" stroke="black" cx="308.31" cy="-178.41" rx="3.2" ry="3.2"/>
</g>
<!-- trench&#45;&gt;organisation -->
<g id="edge7" class="edge">
<title>trench:w&#45;&gt;organisation:e</title>
<path fill="none" stroke="black" d="M304.73,-199.79C269.22,-198.72 255.34,-194 213.5,-194"/>
<polygon fill="black" stroke="black" points="311.5,-199.88 319.45,-203.6 315.5,-199.94 319.5,-200 319.5,-200 319.5,-200 315.5,-199.94 319.55,-196.4 311.5,-199.88 311.5,-199.88"/>
<ellipse fill="none" stroke="black" cx="308.3" cy="-199.84" rx="3.2" ry="3.2"/>
</g>
<!-- tdh_vl.trench_horizontal_positioning -->
<g id="node6" class="node">
<title>tdh_vl.trench_horizontal_positioning</title>
<g id="a_node6"><a xlink:href="../../../tdh_vl/tables/trench_horizontal_positioning.html" xlink:title="tdh_vl.trench_horizontal_positioning" target="_top">
<polygon fill="#ffffff" stroke="transparent" points="8,-646 8,-704 269,-704 269,-646 8,-646"/>
<polygon fill="#f5f5f5" stroke="transparent" points="8.5,-682 8.5,-704 269.5,-704 269.5,-682 8.5,-682"/>
<polygon fill="none" stroke="black" points="8.5,-682 8.5,-704 269.5,-704 269.5,-682 8.5,-682"/>
<text text-anchor="start" x="13.5" y="-691.2" font-family="Helvetica,sans-Serif" font-weight="bold" font-size="11.00">tdh_vl.trench_horizontal_positioning</text>
<text text-anchor="start" x="230.5" y="-690.2" font-family="Helvetica,sans-Serif" font-size="11.00">[table]</text>
<polygon fill="none" stroke="black" points="8.5,-664 8.5,-682 269.5,-682 269.5,-664 8.5,-664"/>
<text text-anchor="start" x="11.5" y="-670.2" font-family="Helvetica,sans-Serif" font-size="11.00">...</text>
<polygon fill="#ffffff" stroke="transparent" points="8.5,-646 8.5,-664 114.5,-664 114.5,-646 8.5,-646"/>
<polygon fill="none" stroke="black" points="8.5,-646 8.5,-664 114.5,-664 114.5,-646 8.5,-646"/>
<text text-anchor="start" x="11.5" y="-652.2" font-family="Helvetica,sans-Serif" font-size="11.00"> &#160;</text>
<polygon fill="#ffffff" stroke="transparent" points="114.5,-646 114.5,-664 200.5,-664 200.5,-646 114.5,-646"/>
<polygon fill="none" stroke="black" points="114.5,-646 114.5,-664 200.5,-664 200.5,-646 114.5,-646"/>
<text text-anchor="start" x="163.5" y="-652.2" font-family="Helvetica,sans-Serif" font-size="11.00">0 rows</text>
<polygon fill="#ffffff" stroke="transparent" points="200.5,-646 200.5,-664 269.5,-664 269.5,-646 200.5,-646"/>
<polygon fill="none" stroke="black" points="200.5,-646 200.5,-664 269.5,-664 269.5,-646 200.5,-646"/>
<text text-anchor="start" x="250.5" y="-652.2" font-family="Helvetica,sans-Serif" font-size="11.00">1 &gt;</text>
</a>
</g>
</g>
<!-- trench&#45;&gt;tdh_vl.trench_horizontal_positioning -->
<g id="edge8" class="edge">
<title>trench:w&#45;&gt;tdh_vl.trench_horizontal_positioning:e</title>
<path fill="none" stroke="black" d="M305.28,-555.51C285.64,-568.36 304.49,-613.34 277,-636 274.51,-638.05 271.92,-640 269.24,-641.84"/>
<polygon fill="black" stroke="black" points="311.73,-553.91 320.36,-555.5 315.62,-552.96 319.5,-552 319.5,-552 319.5,-552 315.62,-552.96 318.64,-548.5 311.73,-553.91 311.73,-553.91"/>
<ellipse fill="none" stroke="black" cx="308.63" cy="-554.68" rx="3.2" ry="3.2"/>
</g>
<!-- tdh_vl.trench_status -->
<g id="node7" class="node">
<title>tdh_vl.trench_status</title>
<g id="a_node7"><a xlink:href="../../../tdh_vl/tables/trench_status.html" xlink:title="tdh_vl.trench_status" target="_top">
<polygon fill="#ffffff" stroke="transparent" points="56,-567 56,-625 221,-625 221,-567 56,-567"/>
<polygon fill="#f5f5f5" stroke="transparent" points="56.5,-603 56.5,-625 221.5,-625 221.5,-603 56.5,-603"/>
<polygon fill="none" stroke="black" points="56.5,-603 56.5,-625 221.5,-625 221.5,-603 56.5,-603"/>
<text text-anchor="start" x="61.5" y="-612.2" font-family="Helvetica,sans-Serif" font-weight="bold" font-size="11.00">tdh_vl.trench_status</text>
<text text-anchor="start" x="182.5" y="-611.2" font-family="Helvetica,sans-Serif" font-size="11.00">[table]</text>
<polygon fill="none" stroke="black" points="56.5,-585 56.5,-603 221.5,-603 221.5,-585 56.5,-585"/>
<text text-anchor="start" x="59.5" y="-591.2" font-family="Helvetica,sans-Serif" font-size="11.00">...</text>
<polygon fill="#ffffff" stroke="transparent" points="56.5,-567 56.5,-585 114.5,-585 114.5,-567 56.5,-567"/>
<polygon fill="none" stroke="black" points="56.5,-567 56.5,-585 114.5,-585 114.5,-567 56.5,-567"/>
<text text-anchor="start" x="59.5" y="-573.2" font-family="Helvetica,sans-Serif" font-size="11.00"> &#160;</text>
<polygon fill="#ffffff" stroke="transparent" points="114.5,-567 114.5,-585 176.5,-585 176.5,-567 114.5,-567"/>
<polygon fill="none" stroke="black" points="114.5,-567 114.5,-585 176.5,-585 176.5,-567 114.5,-567"/>
<text text-anchor="start" x="139.5" y="-573.2" font-family="Helvetica,sans-Serif" font-size="11.00">0 rows</text>
<polygon fill="#ffffff" stroke="transparent" points="176.5,-567 176.5,-585 221.5,-585 221.5,-567 176.5,-567"/>
<polygon fill="none" stroke="black" points="176.5,-567 176.5,-585 221.5,-585 221.5,-567 176.5,-567"/>
<text text-anchor="start" x="202.5" y="-573.2" font-family="Helvetica,sans-Serif" font-size="11.00">1 &gt;</text>
</a>
</g>
</g>
<!-- trench&#45;&gt;tdh_vl.trench_status -->
<g id="edge9" class="edge">
<title>trench:w&#45;&gt;tdh_vl.trench_status:e</title>
<path fill="none" stroke="black" d="M305.34,-533.46C295.74,-539.11 291.84,-550.35 277,-557 261.94,-563.75 245.43,-569.62 229.23,-574.62"/>
<polygon fill="black" stroke="black" points="311.73,-531.9 320.35,-533.5 315.61,-530.95 319.5,-530 319.5,-530 319.5,-530 315.61,-530.95 318.65,-526.5 311.73,-531.9 311.73,-531.9"/>
<ellipse fill="none" stroke="black" cx="308.62" cy="-532.66" rx="3.2" ry="3.2"/>
</g>
<!-- tdh_vl.trench_trench_type -->
<g id="node8" class="node">
<title>tdh_vl.trench_trench_type</title>
<g id="a_node8"><a xlink:href="../../../tdh_vl/tables/trench_trench_type.html" xlink:title="tdh_vl.trench_trench_type" target="_top">
<polygon fill="#ffffff" stroke="transparent" points="39,-488 39,-546 238,-546 238,-488 39,-488"/>
<polygon fill="#f5f5f5" stroke="transparent" points="39.5,-524 39.5,-546 238.5,-546 238.5,-524 39.5,-524"/>
<polygon fill="none" stroke="black" points="39.5,-524 39.5,-546 238.5,-546 238.5,-524 39.5,-524"/>
<text text-anchor="start" x="44.5" y="-533.2" font-family="Helvetica,sans-Serif" font-weight="bold" font-size="11.00">tdh_vl.trench_trench_type</text>
<text text-anchor="start" x="199.5" y="-532.2" font-family="Helvetica,sans-Serif" font-size="11.00">[table]</text>
<polygon fill="none" stroke="black" points="39.5,-506 39.5,-524 238.5,-524 238.5,-506 39.5,-506"/>
<text text-anchor="start" x="42.5" y="-512.2" font-family="Helvetica,sans-Serif" font-size="11.00">...</text>
<polygon fill="#ffffff" stroke="transparent" points="39.5,-488 39.5,-506 114.5,-506 114.5,-488 39.5,-488"/>
<polygon fill="none" stroke="black" points="39.5,-488 39.5,-506 114.5,-506 114.5,-488 39.5,-488"/>
<text text-anchor="start" x="42.5" y="-494.2" font-family="Helvetica,sans-Serif" font-size="11.00"> &#160;</text>
<polygon fill="#ffffff" stroke="transparent" points="114.5,-488 114.5,-506 185.5,-506 185.5,-488 114.5,-488"/>
<polygon fill="none" stroke="black" points="114.5,-488 114.5,-506 185.5,-506 185.5,-488 114.5,-488"/>
<text text-anchor="start" x="148.5" y="-494.2" font-family="Helvetica,sans-Serif" font-size="11.00">0 rows</text>
<polygon fill="#ffffff" stroke="transparent" points="185.5,-488 185.5,-506 238.5,-506 238.5,-488 185.5,-488"/>
<polygon fill="none" stroke="black" points="185.5,-488 185.5,-506 238.5,-506 238.5,-488 185.5,-488"/>
<text text-anchor="start" x="219.5" y="-494.2" font-family="Helvetica,sans-Serif" font-size="11.00">1 &gt;</text>
</a>
</g>
</g>
<!-- trench&#45;&gt;tdh_vl.trench_trench_type -->
<g id="edge10" class="edge">
<title>trench:w&#45;&gt;tdh_vl.trench_trench_type:e</title>
<path fill="none" stroke="black" d="M304.82,-508.09C285.41,-508.34 265.29,-509.02 246.06,-509.91"/>
<polygon fill="black" stroke="black" points="311.5,-508.05 319.52,-511.6 315.5,-508.03 319.5,-508 319.5,-508 319.5,-508 315.5,-508.03 319.48,-504.4 311.5,-508.05 311.5,-508.05"/>
<ellipse fill="none" stroke="black" cx="308.3" cy="-508.07" rx="3.2" ry="3.2"/>
</g>
<!-- trench_line -->
<g id="node9" class="node">
<title>trench_line</title>
<g id="a_node9"><a xlink:href="../../tables/trench_line.html" xlink:title="trench_line" target="_top">
<polygon fill="#ffffff" stroke="transparent" points="668,-571 668,-695 823,-695 823,-571 668,-571"/>
<polygon fill="#f5f5f5" stroke="transparent" points="668.5,-673 668.5,-695 823.5,-695 823.5,-673 668.5,-673"/>
<polygon fill="none" stroke="black" points="668.5,-673 668.5,-695 823.5,-695 823.5,-673 668.5,-673"/>
<text text-anchor="start" x="673" y="-682.2" font-family="Helvetica,sans-Serif" font-weight="bold" font-size="11.00">trench_line</text>
<text text-anchor="start" x="784.5" y="-681.2" font-family="Helvetica,sans-Serif" font-size="11.00">[table]</text>
<polygon fill="none" stroke="black" points="668.5,-651 668.5,-673 823.5,-673 823.5,-651 668.5,-651"/>
<image xlink:href="../../images/primaryKeys.png" width="11px" height="12px" preserveAspectRatio="xMinYMin meet" x="673.5" y="-668"/>
<text text-anchor="start" x="688.5" y="-659.2" font-family="Helvetica,sans-Serif" font-size="11.00">id</text>
<polygon fill="#ffffff" stroke="transparent" points="668.5,-629 668.5,-651 823.5,-651 823.5,-629 668.5,-629"/>
<polygon fill="none" stroke="black" points="668.5,-629 668.5,-651 823.5,-651 823.5,-629 668.5,-629"/>
<text text-anchor="start" x="688.5" y="-637.2" font-family="Helvetica,sans-Serif" font-size="11.00">geometry3d_geometry</text>
<polygon fill="none" stroke="black" points="668.5,-607 668.5,-629 823.5,-629 823.5,-607 668.5,-607"/>
<image xlink:href="../../images/foreignKeys.png" width="11px" height="12px" preserveAspectRatio="xMinYMin meet" x="673.5" y="-624"/>
<text text-anchor="start" x="688.5" y="-615.2" font-family="Helvetica,sans-Serif" font-size="11.00">fk_trench</text>
<polygon fill="none" stroke="black" points="668.5,-589 668.5,-607 823.5,-607 823.5,-589 668.5,-589"/>
<text text-anchor="start" x="671.5" y="-595.2" font-family="Helvetica,sans-Serif" font-size="11.00">...</text>
<polygon fill="#ffffff" stroke="transparent" points="668.5,-571 668.5,-589 743.5,-589 743.5,-571 668.5,-571"/>
<polygon fill="none" stroke="black" points="668.5,-571 668.5,-589 743.5,-589 743.5,-571 668.5,-571"/>
<text text-anchor="start" x="671.5" y="-577.2" font-family="Helvetica,sans-Serif" font-size="11.00">&lt; 1</text>
<polygon fill="#ffffff" stroke="transparent" points="743.5,-571 743.5,-589 783.5,-589 783.5,-571 743.5,-571"/>
<polygon fill="none" stroke="black" points="743.5,-571 743.5,-589 783.5,-589 783.5,-571 743.5,-571"/>
<text text-anchor="start" x="773.5" y="-577.2" font-family="Helvetica,sans-Serif" font-size="11.00"> &#160;</text>
<polygon fill="#ffffff" stroke="transparent" points="783.5,-571 783.5,-589 823.5,-589 823.5,-571 783.5,-571"/>
<polygon fill="none" stroke="black" points="783.5,-571 783.5,-589 823.5,-589 823.5,-571 783.5,-571"/>
<text text-anchor="start" x="813.5" y="-577.2" font-family="Helvetica,sans-Serif" font-size="11.00"> &#160;</text>
</a>
</g>
</g>
<!-- trench_line&#45;&gt;trench -->
<g id="edge11" class="edge">
<title>trench_line:w&#45;&gt;trench:e</title>
<path fill="none" stroke="black" d="M652.99,-618C641.68,-618 634.49,-618 618.5,-618"/>
<polygon fill="black" stroke="black" points="659.5,-618 667.5,-621.6 663.5,-618 667.5,-618 667.5,-618 667.5,-618 663.5,-618 667.5,-614.4 659.5,-618 659.5,-618"/>
<ellipse fill="none" stroke="black" cx="656.3" cy="-618" rx="3.2" ry="3.2"/>
</g>
</g>
</svg>
