<?xml version="1.0" encoding="UTF-8" standalone="no"?>
<!DOCTYPE svg PUBLIC "-//W3C//DTD SVG 1.1//EN"
 "http://www.w3.org/Graphics/SVG/1.1/DTD/svg11.dtd">
<!-- Generated by graphviz version 2.47.1 (20210515.0534)
 -->
<!-- Title: oneDegreeRelationshipsDiagram Pages: 1 -->
<svg width="652pt" height="536pt"
 viewBox="0.00 0.00 652.00 536.00" xmlns="http://www.w3.org/2000/svg" xmlns:xlink="http://www.w3.org/1999/xlink">
<g id="graph0" class="graph" transform="scale(1 1) rotate(0) translate(4 532)">
<title>oneDegreeRelationshipsDiagram</title>
<polygon fill="#ffffff" stroke="transparent" points="-4,4 -4,-532 648,-532 648,4 -4,4"/>
<text text-anchor="middle" x="73.5" y="-7.2" font-family="Helvetica,sans-Serif" font-size="11.00">Generated by SchemaSpy</text>
<!-- data_media -->
<g id="node1" class="node">
<title>data_media</title>
<g id="a_node1"><a xlink:href="../../tables/data_media.html" xlink:title="data_media" target="_top">
<polygon fill="#ffffff" stroke="transparent" points="241,-152 241,-394 463,-394 463,-152 241,-152"/>
<polygon fill="#f5f5f5" stroke="transparent" points="243,-370 243,-392 461,-392 461,-370 243,-370"/>
<polygon fill="none" stroke="black" points="243,-370 243,-392 461,-392 461,-370 243,-370"/>
<text text-anchor="start" x="248" y="-379.2" font-family="Helvetica,sans-Serif" font-weight="bold" font-size="11.00">data_media</text>
<text text-anchor="start" x="422" y="-378.2" font-family="Helvetica,sans-Serif" font-size="11.00">[table]</text>
<polygon fill="none" stroke="black" points="243,-348 243,-370 367,-370 367,-348 243,-348"/>
<image xlink:href="../../images/primaryKeys.png" width="11px" height="12px" preserveAspectRatio="xMinYMin meet" x="248" y="-365"/>
<text text-anchor="start" x="263" y="-356.2" font-family="Helvetica,sans-Serif" font-size="11.00">obj_id</text>
<polygon fill="none" stroke="black" points="367,-348 367,-370 461,-370 461,-348 367,-348"/>
<text text-anchor="start" x="370" y="-356.2" font-family="Helvetica,sans-Serif" font-size="11.00">varchar[16]</text>
<polygon fill="#ffffff" stroke="transparent" points="243,-326 243,-348 367,-348 367,-326 243,-326"/>
<polygon fill="none" stroke="black" points="243,-326 243,-348 367,-348 367,-326 243,-326"/>
<text text-anchor="start" x="263" y="-334.2" font-family="Helvetica,sans-Serif" font-size="11.00">identifier</text>
<polygon fill="none" stroke="black" points="367,-326 367,-348 461,-348 461,-326 367,-326"/>
<text text-anchor="start" x="370" y="-334.2" font-family="Helvetica,sans-Serif" font-size="11.00">text[2147483647]</text>
<polygon fill="none" stroke="black" points="243,-304 243,-326 367,-326 367,-304 243,-304"/>
<image xlink:href="../../images/foreignKeys.png" width="11px" height="12px" preserveAspectRatio="xMinYMin meet" x="248" y="-321"/>
<text text-anchor="start" x="263" y="-312.2" font-family="Helvetica,sans-Serif" font-size="11.00">kind</text>
<polygon fill="none" stroke="black" points="367,-304 367,-326 461,-326 461,-304 367,-304"/>
<text text-anchor="start" x="370" y="-312.2" font-family="Helvetica,sans-Serif" font-size="11.00">int4[10]</text>
<polygon fill="none" stroke="black" points="243,-282 243,-304 367,-304 367,-282 243,-282"/>
<text text-anchor="start" x="263" y="-290.2" font-family="Helvetica,sans-Serif" font-size="11.00">location</text>
<polygon fill="none" stroke="black" points="367,-282 367,-304 461,-304 461,-282 367,-282"/>
<text text-anchor="start" x="370" y="-290.2" font-family="Helvetica,sans-Serif" font-size="11.00">text[2147483647]</text>
<polygon fill="none" stroke="black" points="243,-260 243,-282 367,-282 367,-260 243,-260"/>
<text text-anchor="start" x="263" y="-268.2" font-family="Helvetica,sans-Serif" font-size="11.00">path</text>
<polygon fill="none" stroke="black" points="367,-260 367,-282 461,-282 461,-260 367,-260"/>
<text text-anchor="start" x="370" y="-268.2" font-family="Helvetica,sans-Serif" font-size="11.00">text[2147483647]</text>
<polygon fill="none" stroke="black" points="243,-238 243,-260 367,-260 367,-238 243,-238"/>
<text text-anchor="start" x="263" y="-246.2" font-family="Helvetica,sans-Serif" font-size="11.00">remark</text>
<polygon fill="none" stroke="black" points="367,-238 367,-260 461,-260 461,-238 367,-238"/>
<text text-anchor="start" x="370" y="-246.2" font-family="Helvetica,sans-Serif" font-size="11.00">text[2147483647]</text>
<polygon fill="none" stroke="black" points="243,-216 243,-238 367,-238 367,-216 243,-216"/>
<text text-anchor="start" x="263" y="-224.2" font-family="Helvetica,sans-Serif" font-size="11.00">last_modification</text>
<polygon fill="none" stroke="black" points="367,-216 367,-238 461,-238 461,-216 367,-216"/>
<text text-anchor="start" x="370" y="-224.2" font-family="Helvetica,sans-Serif" font-size="11.00">timestamp[29,6]</text>
<polygon fill="#ffffff" stroke="transparent" points="243,-194 243,-216 367,-216 367,-194 243,-194"/>
<polygon fill="none" stroke="black" points="243,-194 243,-216 367,-216 367,-194 243,-194"/>
<image xlink:href="../../images/foreignKeys.png" width="11px" height="12px" preserveAspectRatio="xMinYMin meet" x="248" y="-211"/>
<text text-anchor="start" x="263" y="-202.2" font-family="Helvetica,sans-Serif" font-size="11.00">fk_dataowner</text>
<polygon fill="none" stroke="black" points="367,-194 367,-216 461,-216 461,-194 367,-194"/>
<text text-anchor="start" x="370" y="-202.2" font-family="Helvetica,sans-Serif" font-size="11.00">varchar[16]</text>
<polygon fill="none" stroke="black" points="243,-172 243,-194 367,-194 367,-172 243,-172"/>
<image xlink:href="../../images/foreignKeys.png" width="11px" height="12px" preserveAspectRatio="xMinYMin meet" x="248" y="-189"/>
<text text-anchor="start" x="263" y="-180.2" font-family="Helvetica,sans-Serif" font-size="11.00">fk_provider</text>
<polygon fill="none" stroke="black" points="367,-172 367,-194 461,-194 461,-172 367,-172"/>
<text text-anchor="start" x="370" y="-180.2" font-family="Helvetica,sans-Serif" font-size="11.00">varchar[16]</text>
<polygon fill="#ffffff" stroke="transparent" points="243,-154 243,-172 309,-172 309,-154 243,-154"/>
<polygon fill="none" stroke="black" points="243,-154 243,-172 309,-172 309,-154 243,-154"/>
<text text-anchor="start" x="246" y="-160.2" font-family="Helvetica,sans-Serif" font-size="11.00">&lt; 3</text>
<polygon fill="#ffffff" stroke="transparent" points="309,-154 309,-172 367,-172 367,-154 309,-154"/>
<polygon fill="none" stroke="black" points="309,-154 309,-172 367,-172 367,-154 309,-154"/>
<text text-anchor="start" x="357" y="-160.2" font-family="Helvetica,sans-Serif" font-size="11.00"> &#160;</text>
<polygon fill="#ffffff" stroke="transparent" points="367,-154 367,-172 461,-172 461,-154 367,-154"/>
<polygon fill="none" stroke="black" points="367,-154 367,-172 461,-172 461,-154 367,-154"/>
<text text-anchor="start" x="442" y="-160.2" font-family="Helvetica,sans-Serif" font-size="11.00">1 &gt;</text>
<polygon fill="none" stroke="black" stroke-width="2" points="242,-153 242,-393 462,-393 462,-153 242,-153"/>
</a>
</g>
</g>
<!-- organisation -->
<g id="node2" class="node">
<title>organisation</title>
<g id="a_node2"><a xlink:href="../../tables/organisation.html" xlink:title="organisation" target="_top">
<polygon fill="#ffffff" stroke="transparent" points="26,-37 26,-227 174,-227 174,-37 26,-37"/>
<polygon fill="#f5f5f5" stroke="transparent" points="26,-205 26,-227 174,-227 174,-205 26,-205"/>
<polygon fill="none" stroke="black" points="26,-205 26,-227 174,-227 174,-205 26,-205"/>
<text text-anchor="start" x="31" y="-214.2" font-family="Helvetica,sans-Serif" font-weight="bold" font-size="11.00">organisation</text>
<text text-anchor="start" x="135" y="-213.2" font-family="Helvetica,sans-Serif" font-size="11.00">[table]</text>
<polygon fill="none" stroke="black" points="26,-183 26,-205 174,-205 174,-183 26,-183"/>
<image xlink:href="../../images/primaryKeys.png" width="11px" height="12px" preserveAspectRatio="xMinYMin meet" x="31" y="-200"/>
<text text-anchor="start" x="46" y="-191.2" font-family="Helvetica,sans-Serif" font-size="11.00">obj_id</text>
<polygon fill="#ffffff" stroke="transparent" points="26,-161 26,-183 174,-183 174,-161 26,-161"/>
<polygon fill="none" stroke="black" points="26,-161 26,-183 174,-183 174,-161 26,-161"/>
<text text-anchor="start" x="46" y="-169.2" font-family="Helvetica,sans-Serif" font-size="11.00">identifier</text>
<polygon fill="none" stroke="black" points="26,-139 26,-161 174,-161 174,-139 26,-139"/>
<image xlink:href="../../images/foreignKeys.png" width="11px" height="12px" preserveAspectRatio="xMinYMin meet" x="31" y="-156"/>
<text text-anchor="start" x="46" y="-147.2" font-family="Helvetica,sans-Serif" font-size="11.00">organisation_type</text>
<polygon fill="none" stroke="black" points="26,-117 26,-139 174,-139 174,-117 26,-117"/>
<image xlink:href="../../images/foreignKeys.png" width="11px" height="12px" preserveAspectRatio="xMinYMin meet" x="31" y="-134"/>
<text text-anchor="start" x="46" y="-125.2" font-family="Helvetica,sans-Serif" font-size="11.00">status</text>
<polygon fill="#ffffff" stroke="transparent" points="26,-95 26,-117 174,-117 174,-95 26,-95"/>
<polygon fill="none" stroke="black" points="26,-95 26,-117 174,-117 174,-95 26,-95"/>
<image xlink:href="../../images/foreignKeys.png" width="11px" height="12px" preserveAspectRatio="xMinYMin meet" x="31" y="-112"/>
<text text-anchor="start" x="46" y="-103.2" font-family="Helvetica,sans-Serif" font-size="11.00">fk_dataowner</text>
<polygon fill="none" stroke="black" points="26,-73 26,-95 174,-95 174,-73 26,-73"/>
<image xlink:href="../../images/foreignKeys.png" width="11px" height="12px" preserveAspectRatio="xMinYMin meet" x="31" y="-90"/>
<text text-anchor="start" x="46" y="-81.2" font-family="Helvetica,sans-Serif" font-size="11.00">fk_provider</text>
<polygon fill="none" stroke="black" points="26,-55 26,-73 174,-73 174,-55 26,-55"/>
<text text-anchor="start" x="29" y="-61.2" font-family="Helvetica,sans-Serif" font-size="11.00">...</text>
<polygon fill="#ffffff" stroke="transparent" points="26,-37 26,-55 90,-55 90,-37 26,-37"/>
<polygon fill="none" stroke="black" points="26,-37 26,-55 90,-55 90,-37 26,-37"/>
<text text-anchor="start" x="29" y="-43.2" font-family="Helvetica,sans-Serif" font-size="11.00">&lt; 4</text>
<polygon fill="#ffffff" stroke="transparent" points="90,-37 90,-55 124,-55 124,-37 90,-37"/>
<polygon fill="none" stroke="black" points="90,-37 90,-55 124,-55 124,-37 90,-37"/>
<text text-anchor="start" x="114" y="-43.2" font-family="Helvetica,sans-Serif" font-size="11.00"> &#160;</text>
<polygon fill="#ffffff" stroke="transparent" points="124,-37 124,-55 174,-55 174,-37 124,-37"/>
<polygon fill="none" stroke="black" points="124,-37 124,-55 174,-55 174,-37 124,-37"/>
<text text-anchor="start" x="149" y="-43.2" font-family="Helvetica,sans-Serif" font-size="11.00">33 &gt;</text>
</a>
</g>
</g>
<!-- data_media&#45;&gt;organisation -->
<g id="edge1" class="edge">
<title>data_media:w&#45;&gt;organisation:e</title>
<path fill="none" stroke="black" d="M227.47,-204.02C208.59,-201.33 199.64,-194 175,-194"/>
<polygon fill="black" stroke="black" points="234.02,-204.46 241.76,-208.59 238.01,-204.73 242,-205 242,-205 242,-205 238.01,-204.73 242.24,-201.41 234.02,-204.46 234.02,-204.46"/>
<ellipse fill="none" stroke="black" cx="230.83" cy="-204.25" rx="3.2" ry="3.2"/>
</g>
<!-- data_media&#45;&gt;organisation -->
<g id="edge2" class="edge">
<title>data_media:w&#45;&gt;organisation:e</title>
<path fill="none" stroke="black" d="M227.47,-183.98C208.59,-186.67 199.64,-194 175,-194"/>
<polygon fill="black" stroke="black" points="234.02,-183.54 242.24,-186.59 238.01,-183.27 242,-183 242,-183 242,-183 238.01,-183.27 241.76,-179.41 234.02,-183.54 234.02,-183.54"/>
<ellipse fill="none" stroke="black" cx="230.83" cy="-183.75" rx="3.2" ry="3.2"/>
</g>
<!-- tdh_vl.data_media_kind -->
<g id="node3" class="node">
<title>tdh_vl.data_media_kind</title>
<g id="a_node3"><a xlink:href="../../../tdh_vl/tables/data_media_kind.html" xlink:title="tdh_vl.data_media_kind" target="_top">
<polygon fill="#ffffff" stroke="transparent" points="8,-286 8,-344 192,-344 192,-286 8,-286"/>
<polygon fill="#f5f5f5" stroke="transparent" points="8,-322 8,-344 192,-344 192,-322 8,-322"/>
<polygon fill="none" stroke="black" points="8,-322 8,-344 192,-344 192,-322 8,-322"/>
<text text-anchor="start" x="13" y="-331.2" font-family="Helvetica,sans-Serif" font-weight="bold" font-size="11.00">tdh_vl.data_media_kind</text>
<text text-anchor="start" x="153" y="-330.2" font-family="Helvetica,sans-Serif" font-size="11.00">[table]</text>
<polygon fill="none" stroke="black" points="8,-304 8,-322 192,-322 192,-304 8,-304"/>
<text text-anchor="start" x="11" y="-310.2" font-family="Helvetica,sans-Serif" font-size="11.00">...</text>
<polygon fill="#ffffff" stroke="transparent" points="8,-286 8,-304 75,-304 75,-286 8,-286"/>
<polygon fill="none" stroke="black" points="8,-286 8,-304 75,-304 75,-286 8,-286"/>
<text text-anchor="start" x="11" y="-292.2" font-family="Helvetica,sans-Serif" font-size="11.00"> &#160;</text>
<polygon fill="#ffffff" stroke="transparent" points="75,-286 75,-304 142,-304 142,-286 75,-286"/>
<polygon fill="none" stroke="black" points="75,-286 75,-304 142,-304 142,-286 75,-286"/>
<text text-anchor="start" x="105" y="-292.2" font-family="Helvetica,sans-Serif" font-size="11.00">0 rows</text>
<polygon fill="#ffffff" stroke="transparent" points="142,-286 142,-304 192,-304 192,-286 142,-286"/>
<polygon fill="none" stroke="black" points="142,-286 142,-304 192,-304 192,-286 142,-286"/>
<text text-anchor="start" x="173" y="-292.2" font-family="Helvetica,sans-Serif" font-size="11.00">1 &gt;</text>
</a>
</g>
</g>
<!-- data_media&#45;&gt;tdh_vl.data_media_kind -->
<g id="edge3" class="edge">
<title>data_media:w&#45;&gt;tdh_vl.data_media_kind:e</title>
<path fill="none" stroke="black" d="M227.57,-315C218.59,-315 209.44,-315 200.37,-315"/>
<polygon fill="black" stroke="black" points="234,-315 242,-318.6 238,-315 242,-315 242,-315 242,-315 238,-315 242,-311.4 234,-315 234,-315"/>
<ellipse fill="none" stroke="black" cx="230.8" cy="-315" rx="3.2" ry="3.2"/>
</g>
<!-- file -->
<g id="node4" class="node">
<title>file</title>
<g id="a_node4"><a xlink:href="../../tables/file.html" xlink:title="file" target="_top">
<polygon fill="#ffffff" stroke="transparent" points="512,-312 512,-524 636,-524 636,-312 512,-312"/>
<polygon fill="#f5f5f5" stroke="transparent" points="512,-502 512,-524 636,-524 636,-502 512,-502"/>
<polygon fill="none" stroke="black" points="512,-502 512,-524 636,-524 636,-502 512,-502"/>
<text text-anchor="start" x="515.5" y="-511.2" font-family="Helvetica,sans-Serif" font-weight="bold" font-size="11.00">file</text>
<text text-anchor="start" x="597" y="-510.2" font-family="Helvetica,sans-Serif" font-size="11.00">[table]</text>
<polygon fill="none" stroke="black" points="512,-480 512,-502 636,-502 636,-480 512,-480"/>
<image xlink:href="../../images/primaryKeys.png" width="11px" height="12px" preserveAspectRatio="xMinYMin meet" x="517" y="-497"/>
<text text-anchor="start" x="532" y="-488.2" font-family="Helvetica,sans-Serif" font-size="11.00">obj_id</text>
<polygon fill="none" stroke="black" points="512,-458 512,-480 636,-480 636,-458 512,-458"/>
<image xlink:href="../../images/foreignKeys.png" width="11px" height="12px" preserveAspectRatio="xMinYMin meet" x="517" y="-475"/>
<text text-anchor="start" x="532" y="-466.2" font-family="Helvetica,sans-Serif" font-size="11.00">classname</text>
<polygon fill="#ffffff" stroke="transparent" points="512,-436 512,-458 636,-458 636,-436 512,-436"/>
<polygon fill="none" stroke="black" points="512,-436 512,-458 636,-458 636,-436 512,-436"/>
<text text-anchor="start" x="532" y="-444.2" font-family="Helvetica,sans-Serif" font-size="11.00">identifier</text>
<polygon fill="none" stroke="black" points="512,-414 512,-436 636,-436 636,-414 512,-414"/>
<image xlink:href="../../images/foreignKeys.png" width="11px" height="12px" preserveAspectRatio="xMinYMin meet" x="517" y="-431"/>
<text text-anchor="start" x="532" y="-422.2" font-family="Helvetica,sans-Serif" font-size="11.00">kind</text>
<polygon fill="#ffffff" stroke="transparent" points="512,-392 512,-414 636,-414 636,-392 512,-392"/>
<polygon fill="none" stroke="black" points="512,-392 512,-414 636,-414 636,-392 512,-392"/>
<image xlink:href="../../images/foreignKeys.png" width="11px" height="12px" preserveAspectRatio="xMinYMin meet" x="517" y="-409"/>
<text text-anchor="start" x="532" y="-400.2" font-family="Helvetica,sans-Serif" font-size="11.00">fk_dataowner</text>
<polygon fill="none" stroke="black" points="512,-370 512,-392 636,-392 636,-370 512,-370"/>
<image xlink:href="../../images/foreignKeys.png" width="11px" height="12px" preserveAspectRatio="xMinYMin meet" x="517" y="-387"/>
<text text-anchor="start" x="532" y="-378.2" font-family="Helvetica,sans-Serif" font-size="11.00">fk_provider</text>
<polygon fill="none" stroke="black" points="512,-348 512,-370 636,-370 636,-348 512,-348"/>
<image xlink:href="../../images/foreignKeys.png" width="11px" height="12px" preserveAspectRatio="xMinYMin meet" x="517" y="-365"/>
<text text-anchor="start" x="532" y="-356.2" font-family="Helvetica,sans-Serif" font-size="11.00">fk_data_media</text>
<polygon fill="none" stroke="black" points="512,-330 512,-348 636,-348 636,-330 512,-330"/>
<text text-anchor="start" x="515" y="-336.2" font-family="Helvetica,sans-Serif" font-size="11.00">...</text>
<polygon fill="#ffffff" stroke="transparent" points="512,-312 512,-330 572,-330 572,-312 512,-312"/>
<polygon fill="none" stroke="black" points="512,-312 512,-330 572,-330 572,-312 512,-312"/>
<text text-anchor="start" x="515" y="-318.2" font-family="Helvetica,sans-Serif" font-size="11.00">&lt; 5</text>
<polygon fill="#ffffff" stroke="transparent" points="572,-312 572,-330 604,-330 604,-312 572,-312"/>
<polygon fill="none" stroke="black" points="572,-312 572,-330 604,-330 604,-312 572,-312"/>
<text text-anchor="start" x="594" y="-318.2" font-family="Helvetica,sans-Serif" font-size="11.00"> &#160;</text>
<polygon fill="#ffffff" stroke="transparent" points="604,-312 604,-330 636,-330 636,-312 604,-312"/>
<polygon fill="none" stroke="black" points="604,-312 604,-330 636,-330 636,-312 604,-312"/>
<text text-anchor="start" x="626" y="-318.2" font-family="Helvetica,sans-Serif" font-size="11.00"> &#160;</text>
</a>
</g>
</g>
<!-- file&#45;&gt;data_media -->
<g id="edge4" class="edge">
<title>file:w&#45;&gt;data_media:e</title>
<path fill="none" stroke="black" d="M496.49,-359C485.18,-359 477.99,-359 462,-359"/>
<polygon fill="black" stroke="black" points="503,-359 511,-362.6 507,-359 511,-359 511,-359 511,-359 507,-359 511,-355.4 503,-359 503,-359"/>
<ellipse fill="none" stroke="black" cx="499.8" cy="-359" rx="3.2" ry="3.2"/>
</g>
<!-- file&#45;&gt;organisation -->
<g id="edge5" class="edge">
<title>file:w&#45;&gt;organisation:e</title>
<path fill="none" stroke="black" d="M496.47,-403.36C382.82,-408.98 326.69,-477.74 233,-405 156.18,-345.36 272.26,-194 175,-194"/>
<polygon fill="black" stroke="black" points="503,-403.2 511.09,-406.6 507,-403.1 511,-403 511,-403 511,-403 507,-403.1 510.91,-399.4 503,-403.2 503,-403.2"/>
<ellipse fill="none" stroke="black" cx="499.8" cy="-403.28" rx="3.2" ry="3.2"/>
</g>
<!-- file&#45;&gt;organisation -->
<g id="edge6" class="edge">
<title>file:w&#45;&gt;organisation:e</title>
<path fill="none" stroke="black" d="M497.74,-375.07C467.32,-341.27 507.93,-173.26 471,-142 390.27,-73.66 331.79,-104.2 233,-142 200.67,-154.37 209.62,-194 175,-194"/>
<polygon fill="black" stroke="black" points="503.7,-377.73 509.53,-384.29 507.35,-379.37 511,-381 511,-381 511,-381 507.35,-379.37 512.47,-377.71 503.7,-377.73 503.7,-377.73"/>
<ellipse fill="none" stroke="black" cx="500.78" cy="-376.43" rx="3.2" ry="3.2"/>
</g>
</g>
</svg>
