<?xml version="1.0" encoding="UTF-8" standalone="no"?>
<!DOCTYPE svg PUBLIC "-//W3C//DTD SVG 1.1//EN"
 "http://www.w3.org/Graphics/SVG/1.1/DTD/svg11.dtd">
<!-- Generated by graphviz version 2.43.0 (0)
 -->
<!-- Title: oneDegreeRelationshipsDiagram Pages: 1 -->
<svg width="754pt" height="501pt"
 viewBox="0.00 0.00 754.00 501.00" xmlns="http://www.w3.org/2000/svg" xmlns:xlink="http://www.w3.org/1999/xlink">
<g id="graph0" class="graph" transform="scale(1 1) rotate(0) translate(4 497)">
<title>oneDegreeRelationshipsDiagram</title>
<polygon fill="#ffffff" stroke="transparent" points="-4,4 -4,-497 750,-497 750,4 -4,4"/>
<text text-anchor="middle" x="79.5" y="-7.2" font-family="Helvetica,sans-Serif" font-size="11.00">Generated by SchemaSpy</text>
<!-- data_media -->
<g id="node1" class="node">
<title>data_media</title>
<g id="a_node1"><a xlink:href="../../tables/data_media.html" xlink:title="data_media" target="_top">
<polygon fill="#ffffff" stroke="transparent" points="259,-64 259,-232 405,-232 405,-64 259,-64"/>
<polygon fill="#f5f5f5" stroke="transparent" points="259,-210 259,-232 405,-232 405,-210 259,-210"/>
<polygon fill="none" stroke="black" points="259,-210 259,-232 405,-232 405,-210 259,-210"/>
<text text-anchor="start" x="264" y="-219.2" font-family="Helvetica,sans-Serif" font-weight="bold" font-size="11.00">data_media</text>
<text text-anchor="start" x="363" y="-218.2" font-family="Helvetica,sans-Serif" font-size="11.00">[table]</text>
<polygon fill="none" stroke="black" points="259,-188 259,-210 405,-210 405,-188 259,-188"/>
<image xlink:href="../../images/primaryKeys.png" width="11px" height="12px" preserveAspectRatio="xMinYMin meet" x="264" y="-205"/>
<text text-anchor="start" x="279" y="-196.2" font-family="Helvetica,sans-Serif" font-size="11.00">obj_id</text>
<polygon fill="#ffffff" stroke="transparent" points="259,-166 259,-188 405,-188 405,-166 259,-166"/>
<polygon fill="none" stroke="black" points="259,-166 259,-188 405,-188 405,-166 259,-166"/>
<text text-anchor="start" x="279" y="-174.2" font-family="Helvetica,sans-Serif" font-size="11.00">identifier</text>
<polygon fill="none" stroke="black" points="259,-144 259,-166 405,-166 405,-144 259,-144"/>
<image xlink:href="../../images/foreignKeys.png" width="11px" height="12px" preserveAspectRatio="xMinYMin meet" x="264" y="-161"/>
<text text-anchor="start" x="279" y="-152.2" font-family="Helvetica,sans-Serif" font-size="11.00">kind</text>
<polygon fill="#ffffff" stroke="transparent" points="259,-122 259,-144 405,-144 405,-122 259,-122"/>
<polygon fill="none" stroke="black" points="259,-122 259,-144 405,-144 405,-122 259,-122"/>
<image xlink:href="../../images/foreignKeys.png" width="11px" height="12px" preserveAspectRatio="xMinYMin meet" x="264" y="-139"/>
<text text-anchor="start" x="279" y="-130.2" font-family="Helvetica,sans-Serif" font-size="11.00">fk_dataowner</text>
<polygon fill="none" stroke="black" points="259,-100 259,-122 405,-122 405,-100 259,-100"/>
<image xlink:href="../../images/foreignKeys.png" width="11px" height="12px" preserveAspectRatio="xMinYMin meet" x="264" y="-117"/>
<text text-anchor="start" x="279" y="-108.2" font-family="Helvetica,sans-Serif" font-size="11.00">fk_provider</text>
<polygon fill="none" stroke="black" points="259,-82 259,-100 405,-100 405,-82 259,-82"/>
<text text-anchor="start" x="262" y="-88.2" font-family="Helvetica,sans-Serif" font-size="11.00">...</text>
<polygon fill="#ffffff" stroke="transparent" points="259,-64 259,-82 405,-82 405,-64 259,-64"/>
<polygon fill="none" stroke="black" points="259,-64 259,-82 405,-82 405,-64 259,-64"/>
<polygon fill="#ffffff" stroke="transparent" points="260,-65 260,-81 312,-81 312,-65 260,-65"/>
<text text-anchor="start" x="262" y="-70.2" font-family="Helvetica,sans-Serif" font-size="11.00">&lt; 3</text>
<polygon fill="#ffffff" stroke="transparent" points="312,-65 312,-81 352,-81 352,-65 312,-65"/>
<text text-anchor="start" x="328" y="-70.2" font-family="Helvetica,sans-Serif" font-size="11.00"> &#160;</text>
<polygon fill="#ffffff" stroke="transparent" points="352,-65 352,-81 404,-81 404,-65 352,-65"/>
<text text-anchor="start" x="382" y="-70.2" font-family="Helvetica,sans-Serif" font-size="11.00">1 &gt;</text>
<polygon fill="black" stroke="black" points="312,-65 312,-81 312,-81 312,-65 312,-65"/>
<polygon fill="black" stroke="black" points="352,-65 352,-81 352,-81 352,-65 352,-65"/>
</a>
</g>
</g>
<!-- organisation -->
<g id="node2" class="node">
<title>organisation</title>
<g id="a_node2"><a xlink:href="../../tables/organisation.html" xlink:title="organisation" target="_top">
<polygon fill="#ffffff" stroke="transparent" points="8,-37 8,-227 182,-227 182,-37 8,-37"/>
<polygon fill="#f5f5f5" stroke="transparent" points="8,-205 8,-227 182,-227 182,-205 8,-205"/>
<polygon fill="none" stroke="black" points="8,-205 8,-227 182,-227 182,-205 8,-205"/>
<text text-anchor="start" x="13" y="-214.2" font-family="Helvetica,sans-Serif" font-weight="bold" font-size="11.00">organisation</text>
<text text-anchor="start" x="140" y="-213.2" font-family="Helvetica,sans-Serif" font-size="11.00">[table]</text>
<polygon fill="none" stroke="black" points="8,-183 8,-205 182,-205 182,-183 8,-183"/>
<image xlink:href="../../images/primaryKeys.png" width="11px" height="12px" preserveAspectRatio="xMinYMin meet" x="13" y="-200"/>
<text text-anchor="start" x="28" y="-191.2" font-family="Helvetica,sans-Serif" font-size="11.00">obj_id</text>
<polygon fill="#ffffff" stroke="transparent" points="8,-161 8,-183 182,-183 182,-161 8,-161"/>
<polygon fill="none" stroke="black" points="8,-161 8,-183 182,-183 182,-161 8,-161"/>
<text text-anchor="start" x="28" y="-169.2" font-family="Helvetica,sans-Serif" font-size="11.00">identifier</text>
<polygon fill="none" stroke="black" points="8,-139 8,-161 182,-161 182,-139 8,-139"/>
<image xlink:href="../../images/foreignKeys.png" width="11px" height="12px" preserveAspectRatio="xMinYMin meet" x="13" y="-156"/>
<text text-anchor="start" x="28" y="-147.2" font-family="Helvetica,sans-Serif" font-size="11.00">organisation_type</text>
<polygon fill="none" stroke="black" points="8,-117 8,-139 182,-139 182,-117 8,-117"/>
<image xlink:href="../../images/foreignKeys.png" width="11px" height="12px" preserveAspectRatio="xMinYMin meet" x="13" y="-134"/>
<text text-anchor="start" x="28" y="-125.2" font-family="Helvetica,sans-Serif" font-size="11.00">status</text>
<polygon fill="#ffffff" stroke="transparent" points="8,-95 8,-117 182,-117 182,-95 8,-95"/>
<polygon fill="none" stroke="black" points="8,-95 8,-117 182,-117 182,-95 8,-95"/>
<image xlink:href="../../images/foreignKeys.png" width="11px" height="12px" preserveAspectRatio="xMinYMin meet" x="13" y="-112"/>
<text text-anchor="start" x="28" y="-103.2" font-family="Helvetica,sans-Serif" font-size="11.00">fk_dataowner</text>
<polygon fill="none" stroke="black" points="8,-73 8,-95 182,-95 182,-73 8,-73"/>
<image xlink:href="../../images/foreignKeys.png" width="11px" height="12px" preserveAspectRatio="xMinYMin meet" x="13" y="-90"/>
<text text-anchor="start" x="28" y="-81.2" font-family="Helvetica,sans-Serif" font-size="11.00">fk_provider</text>
<polygon fill="none" stroke="black" points="8,-55 8,-73 182,-73 182,-55 8,-55"/>
<text text-anchor="start" x="11" y="-61.2" font-family="Helvetica,sans-Serif" font-size="11.00">...</text>
<polygon fill="#ffffff" stroke="transparent" points="8,-37 8,-55 182,-55 182,-37 8,-37"/>
<polygon fill="none" stroke="black" points="8,-37 8,-55 182,-55 182,-37 8,-37"/>
<polygon fill="#ffffff" stroke="transparent" points="9,-38 9,-54 68,-54 68,-38 9,-38"/>
<text text-anchor="start" x="11" y="-43.2" font-family="Helvetica,sans-Serif" font-size="11.00">&lt; 4</text>
<polygon fill="#ffffff" stroke="transparent" points="68,-38 68,-54 115,-54 115,-38 68,-38"/>
<text text-anchor="start" x="87.5" y="-43.2" font-family="Helvetica,sans-Serif" font-size="11.00"> &#160;</text>
<polygon fill="#ffffff" stroke="transparent" points="115,-38 115,-54 181,-54 181,-38 115,-38"/>
<text text-anchor="start" x="152" y="-43.2" font-family="Helvetica,sans-Serif" font-size="11.00">33 &gt;</text>
<polygon fill="black" stroke="black" points="68,-38 68,-54 68,-54 68,-38 68,-38"/>
<polygon fill="black" stroke="black" points="115,-38 115,-54 115,-54 115,-38 115,-38"/>
</a>
</g>
</g>
<!-- data_media&#45;&gt;organisation -->
<g id="edge1" class="edge">
<title>data_media:w&#45;&gt;organisation:e</title>
<path fill="none" stroke="black" d="M243.84,-135.78C216.96,-147.71 220.43,-194 183,-194"/>
<polygon fill="black" stroke="black" points="250.15,-134.54 258.69,-136.53 254.07,-133.77 258,-133 258,-133 258,-133 254.07,-133.77 257.31,-129.47 250.15,-134.54 250.15,-134.54"/>
<ellipse fill="none" stroke="black" cx="247.01" cy="-135.16" rx="3.2" ry="3.2"/>
</g>
<!-- data_media&#45;&gt;organisation -->
<g id="edge2" class="edge">
<title>data_media:w&#45;&gt;organisation:e</title>
<path fill="none" stroke="black" d="M243.74,-113.95C212.87,-128.74 227.09,-194 183,-194"/>
<polygon fill="black" stroke="black" points="250.17,-112.62 258.73,-114.53 254.08,-111.81 258,-111 258,-111 258,-111 254.08,-111.81 257.27,-107.47 250.17,-112.62 250.17,-112.62"/>
<ellipse fill="none" stroke="black" cx="247.03" cy="-113.27" rx="3.2" ry="3.2"/>
</g>
<!-- file -->
<g id="node3" class="node">
<title>file</title>
<g id="a_node3"><a xlink:href="../../tables/file.html" xlink:title="file" target="_top">
<polygon fill="#ffffff" stroke="transparent" points="482,-203 482,-489 738,-489 738,-203 482,-203"/>
<polygon fill="#f5f5f5" stroke="transparent" points="484,-465 484,-487 736,-487 736,-465 484,-465"/>
<polygon fill="none" stroke="black" points="484,-465 484,-487 736,-487 736,-465 484,-465"/>
<text text-anchor="start" x="488.5" y="-474.2" font-family="Helvetica,sans-Serif" font-weight="bold" font-size="11.00">file</text>
<text text-anchor="start" x="694" y="-473.2" font-family="Helvetica,sans-Serif" font-size="11.00">[table]</text>
<polygon fill="none" stroke="black" points="484,-443 484,-465 630,-465 630,-443 484,-443"/>
<image xlink:href="../../images/primaryKeys.png" width="11px" height="12px" preserveAspectRatio="xMinYMin meet" x="489" y="-460"/>
<text text-anchor="start" x="504" y="-451.2" font-family="Helvetica,sans-Serif" font-size="11.00">obj_id</text>
<polygon fill="none" stroke="black" points="630,-443 630,-465 736,-465 736,-443 630,-443"/>
<text text-anchor="start" x="633" y="-451.2" font-family="Helvetica,sans-Serif" font-size="11.00">varchar[16]</text>
<polygon fill="none" stroke="black" points="484,-421 484,-443 630,-443 630,-421 484,-421"/>
<image xlink:href="../../images/foreignKeys.png" width="11px" height="12px" preserveAspectRatio="xMinYMin meet" x="489" y="-438"/>
<text text-anchor="start" x="504" y="-429.2" font-family="Helvetica,sans-Serif" font-size="11.00">classname</text>
<polygon fill="none" stroke="black" points="630,-421 630,-443 736,-443 736,-421 630,-421"/>
<text text-anchor="start" x="633" y="-429.2" font-family="Helvetica,sans-Serif" font-size="11.00">int4[10]</text>
<polygon fill="#ffffff" stroke="transparent" points="484,-399 484,-421 630,-421 630,-399 484,-399"/>
<polygon fill="none" stroke="black" points="484,-399 484,-421 630,-421 630,-399 484,-399"/>
<text text-anchor="start" x="504" y="-407.2" font-family="Helvetica,sans-Serif" font-size="11.00">identifier</text>
<polygon fill="none" stroke="black" points="630,-399 630,-421 736,-421 736,-399 630,-399"/>
<text text-anchor="start" x="633" y="-407.2" font-family="Helvetica,sans-Serif" font-size="11.00">text[2147483647]</text>
<polygon fill="none" stroke="black" points="484,-377 484,-399 630,-399 630,-377 484,-377"/>
<image xlink:href="../../images/foreignKeys.png" width="11px" height="12px" preserveAspectRatio="xMinYMin meet" x="489" y="-394"/>
<text text-anchor="start" x="504" y="-385.2" font-family="Helvetica,sans-Serif" font-size="11.00">kind</text>
<polygon fill="none" stroke="black" points="630,-377 630,-399 736,-399 736,-377 630,-377"/>
<text text-anchor="start" x="633" y="-385.2" font-family="Helvetica,sans-Serif" font-size="11.00">int4[10]</text>
<polygon fill="none" stroke="black" points="484,-355 484,-377 630,-377 630,-355 484,-355"/>
<text text-anchor="start" x="504" y="-363.2" font-family="Helvetica,sans-Serif" font-size="11.00">object</text>
<polygon fill="none" stroke="black" points="630,-355 630,-377 736,-377 736,-355 630,-355"/>
<text text-anchor="start" x="633" y="-363.2" font-family="Helvetica,sans-Serif" font-size="11.00">text[2147483647]</text>
<polygon fill="none" stroke="black" points="484,-333 484,-355 630,-355 630,-333 484,-333"/>
<text text-anchor="start" x="504" y="-341.2" font-family="Helvetica,sans-Serif" font-size="11.00">path_relative</text>
<polygon fill="none" stroke="black" points="630,-333 630,-355 736,-355 736,-333 630,-333"/>
<text text-anchor="start" x="633" y="-341.2" font-family="Helvetica,sans-Serif" font-size="11.00">text[2147483647]</text>
<polygon fill="none" stroke="black" points="484,-311 484,-333 630,-333 630,-311 484,-311"/>
<text text-anchor="start" x="504" y="-319.2" font-family="Helvetica,sans-Serif" font-size="11.00">remark</text>
<polygon fill="none" stroke="black" points="630,-311 630,-333 736,-333 736,-311 630,-311"/>
<text text-anchor="start" x="633" y="-319.2" font-family="Helvetica,sans-Serif" font-size="11.00">text[2147483647]</text>
<polygon fill="none" stroke="black" points="484,-289 484,-311 630,-311 630,-289 484,-289"/>
<text text-anchor="start" x="504" y="-297.2" font-family="Helvetica,sans-Serif" font-size="11.00">last_modification</text>
<polygon fill="none" stroke="black" points="630,-289 630,-311 736,-311 736,-289 630,-289"/>
<text text-anchor="start" x="633" y="-297.2" font-family="Helvetica,sans-Serif" font-size="11.00">timestamp[29,6]</text>
<polygon fill="#ffffff" stroke="transparent" points="484,-267 484,-289 630,-289 630,-267 484,-267"/>
<polygon fill="none" stroke="black" points="484,-267 484,-289 630,-289 630,-267 484,-267"/>
<image xlink:href="../../images/foreignKeys.png" width="11px" height="12px" preserveAspectRatio="xMinYMin meet" x="489" y="-284"/>
<text text-anchor="start" x="504" y="-275.2" font-family="Helvetica,sans-Serif" font-size="11.00">fk_dataowner</text>
<polygon fill="none" stroke="black" points="630,-267 630,-289 736,-289 736,-267 630,-267"/>
<text text-anchor="start" x="633" y="-275.2" font-family="Helvetica,sans-Serif" font-size="11.00">varchar[16]</text>
<polygon fill="none" stroke="black" points="484,-245 484,-267 630,-267 630,-245 484,-245"/>
<image xlink:href="../../images/foreignKeys.png" width="11px" height="12px" preserveAspectRatio="xMinYMin meet" x="489" y="-262"/>
<text text-anchor="start" x="504" y="-253.2" font-family="Helvetica,sans-Serif" font-size="11.00">fk_provider</text>
<polygon fill="none" stroke="black" points="630,-245 630,-267 736,-267 736,-245 630,-245"/>
<text text-anchor="start" x="633" y="-253.2" font-family="Helvetica,sans-Serif" font-size="11.00">varchar[16]</text>
<polygon fill="none" stroke="black" points="484,-223 484,-245 630,-245 630,-223 484,-223"/>
<image xlink:href="../../images/foreignKeys.png" width="11px" height="12px" preserveAspectRatio="xMinYMin meet" x="489" y="-240"/>
<text text-anchor="start" x="504" y="-231.2" font-family="Helvetica,sans-Serif" font-size="11.00">fk_data_media</text>
<polygon fill="none" stroke="black" points="630,-223 630,-245 736,-245 736,-223 630,-223"/>
<text text-anchor="start" x="633" y="-231.2" font-family="Helvetica,sans-Serif" font-size="11.00">varchar[16]</text>
<polygon fill="#ffffff" stroke="transparent" points="484,-205 484,-223 736,-223 736,-205 484,-205"/>
<polygon fill="none" stroke="black" points="484,-205 484,-223 736,-223 736,-205 484,-205"/>
<polygon fill="#ffffff" stroke="transparent" points="485,-206 485,-222 573,-222 573,-206 485,-206"/>
<text text-anchor="start" x="487" y="-211.2" font-family="Helvetica,sans-Serif" font-size="11.00">&lt; 5</text>
<polygon fill="#ffffff" stroke="transparent" points="573,-206 573,-222 648,-222 648,-206 573,-206"/>
<text text-anchor="start" x="606.5" y="-211.2" font-family="Helvetica,sans-Serif" font-size="11.00"> &#160;</text>
<polygon fill="#ffffff" stroke="transparent" points="648,-206 648,-222 735,-222 735,-206 648,-206"/>
<text text-anchor="start" x="713" y="-211.2" font-family="Helvetica,sans-Serif" font-size="11.00">0 &gt;</text>
<polygon fill="black" stroke="black" points="573,-206 573,-222 573,-222 573,-206 573,-206"/>
<polygon fill="black" stroke="black" points="648,-206 648,-222 648,-222 648,-206 648,-206"/>
<polygon fill="none" stroke="black" stroke-width="2" points="483,-204 483,-488 737,-488 737,-204 483,-204"/>
</a>
</g>
</g>
<!-- file&#45;&gt;data_media -->
<g id="edge4" class="edge">
<title>file:w&#45;&gt;data_media:e</title>
<path fill="none" stroke="black" d="M468.73,-232.02C444.14,-224.61 438.16,-199 406,-199"/>
<polygon fill="black" stroke="black" points="475.08,-232.9 482.5,-237.57 479.04,-233.45 483,-234 483,-234 483,-234 479.04,-233.45 483.5,-230.43 475.08,-232.9 475.08,-232.9"/>
<ellipse fill="none" stroke="black" cx="471.91" cy="-232.46" rx="3.2" ry="3.2"/>
</g>
<!-- file&#45;&gt;organisation -->
<g id="edge5" class="edge">
<title>file:w&#45;&gt;organisation:e</title>
<path fill="none" stroke="black" d="M468.46,-278.26C363.27,-282 317.1,-324.33 223,-266 191.89,-246.71 219.61,-194 183,-194"/>
<polygon fill="black" stroke="black" points="475,-278.14 483.06,-281.6 479,-278.07 483,-278 483,-278 483,-278 479,-278.07 482.94,-274.4 475,-278.14 475,-278.14"/>
<ellipse fill="none" stroke="black" cx="471.8" cy="-278.2" rx="3.2" ry="3.2"/>
</g>
<!-- file&#45;&gt;organisation -->
<g id="edge6" class="edge">
<title>file:w&#45;&gt;organisation:e</title>
<path fill="none" stroke="black" d="M468.25,-256.19C402.8,-257.6 270.78,-265.97 223,-242 198.18,-229.55 210.77,-194 183,-194"/>
<polygon fill="black" stroke="black" points="475,-256.1 483.05,-259.6 479,-256.05 483,-256 483,-256 483,-256 479,-256.05 482.95,-252.4 475,-256.1 475,-256.1"/>
<ellipse fill="none" stroke="black" cx="471.8" cy="-256.14" rx="3.2" ry="3.2"/>
</g>
<!-- tdh_vl.file_classname -->
<g id="node4" class="node">
<title>tdh_vl.file_classname</title>
<g id="a_node4"><a xlink:href="../../../tdh_vl/tables/file_classname.html" xlink:title="tdh_vl.file_classname" target="_top">
<polygon fill="#ffffff" stroke="transparent" points="231,-420 231,-478 433,-478 433,-420 231,-420"/>
<polygon fill="#f5f5f5" stroke="transparent" points="231,-456 231,-478 433,-478 433,-456 231,-456"/>
<polygon fill="none" stroke="black" points="231,-456 231,-478 433,-478 433,-456 231,-456"/>
<text text-anchor="start" x="236" y="-465.2" font-family="Helvetica,sans-Serif" font-weight="bold" font-size="11.00">tdh_vl.file_classname</text>
<text text-anchor="start" x="391" y="-464.2" font-family="Helvetica,sans-Serif" font-size="11.00">[table]</text>
<polygon fill="none" stroke="black" points="231,-438 231,-456 433,-456 433,-438 231,-438"/>
<text text-anchor="start" x="234" y="-444.2" font-family="Helvetica,sans-Serif" font-size="11.00">...</text>
<polygon fill="#ffffff" stroke="transparent" points="231,-420 231,-438 433,-438 433,-420 231,-420"/>
<polygon fill="none" stroke="black" points="231,-420 231,-438 433,-438 433,-420 231,-420"/>
<polygon fill="#ffffff" stroke="transparent" points="232,-421 232,-437 285,-437 285,-421 232,-421"/>
<text text-anchor="start" x="234" y="-426.2" font-family="Helvetica,sans-Serif" font-size="11.00"> &#160;</text>
<polygon fill="#ffffff" stroke="transparent" points="285,-421 285,-437 367,-437 367,-421 285,-421"/>
<text text-anchor="start" x="307.5" y="-426.2" font-family="Helvetica,sans-Serif" font-size="11.00">0 rows</text>
<polygon fill="#ffffff" stroke="transparent" points="367,-421 367,-437 432,-437 432,-421 367,-421"/>
<text text-anchor="start" x="410" y="-426.2" font-family="Helvetica,sans-Serif" font-size="11.00">1 &gt;</text>
<polygon fill="black" stroke="black" points="285,-421 285,-437 285,-437 285,-421 285,-421"/>
<polygon fill="black" stroke="black" points="367,-421 367,-437 367,-437 367,-421 367,-421"/>
</a>
</g>
</g>
<!-- file&#45;&gt;tdh_vl.file_classname -->
<g id="edge3" class="edge">
<title>file:w&#45;&gt;tdh_vl.file_classname:e</title>
<path fill="none" stroke="black" d="M468.56,-432.24C459.58,-432.53 450.45,-433.07 441.39,-433.79"/>
<polygon fill="black" stroke="black" points="475,-432.13 483.06,-435.6 479,-432.07 483,-432 483,-432 483,-432 479,-432.07 482.94,-428.4 475,-432.13 475,-432.13"/>
<ellipse fill="none" stroke="black" cx="471.8" cy="-432.19" rx="3.2" ry="3.2"/>
</g>
<!-- tdh_vl.file_kind -->
<g id="node5" class="node">
<title>tdh_vl.file_kind</title>
<g id="a_node5"><a xlink:href="../../../tdh_vl/tables/file_kind.html" xlink:title="tdh_vl.file_kind" target="_top">
<polygon fill="#ffffff" stroke="transparent" points="253.5,-341 253.5,-399 410.5,-399 410.5,-341 253.5,-341"/>
<polygon fill="#f5f5f5" stroke="transparent" points="254,-377 254,-399 411,-399 411,-377 254,-377"/>
<polygon fill="none" stroke="black" points="254,-377 254,-399 411,-399 411,-377 254,-377"/>
<text text-anchor="start" x="259" y="-386.2" font-family="Helvetica,sans-Serif" font-weight="bold" font-size="11.00">tdh_vl.file_kind</text>
<text text-anchor="start" x="369" y="-385.2" font-family="Helvetica,sans-Serif" font-size="11.00">[table]</text>
<polygon fill="none" stroke="black" points="254,-359 254,-377 411,-377 411,-359 254,-359"/>
<text text-anchor="start" x="257" y="-365.2" font-family="Helvetica,sans-Serif" font-size="11.00">...</text>
<polygon fill="#ffffff" stroke="transparent" points="254,-341 254,-359 411,-359 411,-341 254,-341"/>
<polygon fill="none" stroke="black" points="254,-341 254,-359 411,-359 411,-341 254,-341"/>
<polygon fill="#ffffff" stroke="transparent" points="255,-342 255,-358 293,-358 293,-342 255,-342"/>
<text text-anchor="start" x="257" y="-347.2" font-family="Helvetica,sans-Serif" font-size="11.00"> &#160;</text>
<polygon fill="#ffffff" stroke="transparent" points="293,-342 293,-358 360,-358 360,-342 293,-342"/>
<text text-anchor="start" x="308" y="-347.2" font-family="Helvetica,sans-Serif" font-size="11.00">0 rows</text>
<polygon fill="#ffffff" stroke="transparent" points="360,-342 360,-358 410,-358 410,-342 360,-342"/>
<text text-anchor="start" x="388" y="-347.2" font-family="Helvetica,sans-Serif" font-size="11.00">1 &gt;</text>
<polygon fill="black" stroke="black" points="293,-342 293,-358 293,-358 293,-342 293,-342"/>
<polygon fill="black" stroke="black" points="360,-342 360,-358 360,-358 360,-342 360,-342"/>
</a>
</g>
</g>
<!-- file&#45;&gt;tdh_vl.file_kind -->
<g id="edge7" class="edge">
<title>file:w&#45;&gt;tdh_vl.file_kind:e</title>
<path fill="none" stroke="black" d="M468.38,-387.74C451.92,-387.16 434.96,-385.71 418.85,-383.87"/>
<polygon fill="black" stroke="black" points="475,-387.86 482.94,-391.6 479,-387.93 483,-388 483,-388 483,-388 479,-387.93 483.06,-384.4 475,-387.86 475,-387.86"/>
<ellipse fill="none" stroke="black" cx="471.8" cy="-387.8" rx="3.2" ry="3.2"/>
</g>
</g>
</svg>
