<?xml version="1.0" encoding="UTF-8" standalone="no"?>
<!DOCTYPE svg PUBLIC "-//W3C//DTD SVG 1.1//EN"
 "http://www.w3.org/Graphics/SVG/1.1/DTD/svg11.dtd">
<!-- Generated by graphviz version 2.47.1 (20210515.0534)
 -->
<!-- Title: oneDegreeRelationshipsDiagram Pages: 1 -->
<svg width="576pt" height="498pt"
 viewBox="0.00 0.00 576.00 498.00" xmlns="http://www.w3.org/2000/svg" xmlns:xlink="http://www.w3.org/1999/xlink">
<g id="graph0" class="graph" transform="scale(1 1) rotate(0) translate(4 494)">
<title>oneDegreeRelationshipsDiagram</title>
<polygon fill="#ffffff" stroke="transparent" points="-4,4 -4,-494 572,-494 572,4 -4,4"/>
<text text-anchor="middle" x="73.5" y="-7.2" font-family="Helvetica,sans-Serif" font-size="11.00">Generated by SchemaSpy</text>
<!-- pipe_point_normal -->
<g id="node1" class="node">
<title>pipe_point_normal</title>
<g id="a_node1"><a xlink:href="../../tables/pipe_point_normal.html" xlink:title="pipe_point_normal" target="_top">
<polygon fill="#ffffff" stroke="transparent" points="360,-120 360,-252 560,-252 560,-120 360,-120"/>
<polygon fill="#f5f5f5" stroke="transparent" points="362,-228 362,-250 558,-250 558,-228 362,-228"/>
<polygon fill="none" stroke="black" points="362,-228 362,-250 558,-250 558,-228 362,-228"/>
<text text-anchor="start" x="367" y="-237.2" font-family="Helvetica,sans-Serif" font-weight="bold" font-size="11.00">pipe_point_normal</text>
<text text-anchor="start" x="519" y="-236.2" font-family="Helvetica,sans-Serif" font-size="11.00">[table]</text>
<polygon fill="none" stroke="black" points="362,-206 362,-228 494,-228 494,-206 362,-206"/>
<image xlink:href="../../images/primaryKeys.png" width="11px" height="12px" preserveAspectRatio="xMinYMin meet" x="367" y="-223"/>
<text text-anchor="start" x="382" y="-214.2" font-family="Helvetica,sans-Serif" font-size="11.00">obj_id</text>
<polygon fill="none" stroke="black" points="494,-206 494,-228 558,-228 558,-206 494,-206"/>
<text text-anchor="start" x="497" y="-214.2" font-family="Helvetica,sans-Serif" font-size="11.00">varchar[16]</text>
<polygon fill="none" stroke="black" points="362,-184 362,-206 494,-206 494,-184 362,-184"/>
<image xlink:href="../../images/foreignKeys.png" width="11px" height="12px" preserveAspectRatio="xMinYMin meet" x="367" y="-201"/>
<text text-anchor="start" x="382" y="-192.2" font-family="Helvetica,sans-Serif" font-size="11.00">kind</text>
<polygon fill="none" stroke="black" points="494,-184 494,-206 558,-206 558,-184 494,-184"/>
<text text-anchor="start" x="497" y="-192.2" font-family="Helvetica,sans-Serif" font-size="11.00">int4[10]</text>
<polygon fill="none" stroke="black" points="362,-162 362,-184 494,-184 494,-162 362,-162"/>
<image xlink:href="../../images/foreignKeys.png" width="11px" height="12px" preserveAspectRatio="xMinYMin meet" x="367" y="-179"/>
<text text-anchor="start" x="382" y="-170.2" font-family="Helvetica,sans-Serif" font-size="11.00">armature_setting</text>
<polygon fill="none" stroke="black" points="494,-162 494,-184 558,-184 558,-162 494,-162"/>
<text text-anchor="start" x="497" y="-170.2" font-family="Helvetica,sans-Serif" font-size="11.00">int4[10]</text>
<polygon fill="none" stroke="black" points="362,-140 362,-162 494,-162 494,-140 362,-140"/>
<image xlink:href="../../images/foreignKeys.png" width="11px" height="12px" preserveAspectRatio="xMinYMin meet" x="367" y="-157"/>
<text text-anchor="start" x="382" y="-148.2" font-family="Helvetica,sans-Serif" font-size="11.00">material</text>
<polygon fill="none" stroke="black" points="494,-140 494,-162 558,-162 558,-140 494,-140"/>
<text text-anchor="start" x="497" y="-148.2" font-family="Helvetica,sans-Serif" font-size="11.00">int4[10]</text>
<polygon fill="#ffffff" stroke="transparent" points="362,-122 362,-140 432,-140 432,-122 362,-122"/>
<polygon fill="none" stroke="black" points="362,-122 362,-140 432,-140 432,-122 362,-122"/>
<text text-anchor="start" x="365" y="-128.2" font-family="Helvetica,sans-Serif" font-size="11.00">&lt; 4</text>
<polygon fill="#ffffff" stroke="transparent" points="432,-122 432,-140 494,-140 494,-122 432,-122"/>
<polygon fill="none" stroke="black" points="432,-122 432,-140 494,-140 494,-122 432,-122"/>
<text text-anchor="start" x="484" y="-128.2" font-family="Helvetica,sans-Serif" font-size="11.00"> &#160;</text>
<polygon fill="#ffffff" stroke="transparent" points="494,-122 494,-140 558,-140 558,-122 494,-122"/>
<polygon fill="none" stroke="black" points="494,-122 494,-140 558,-140 558,-122 494,-122"/>
<text text-anchor="start" x="539" y="-128.2" font-family="Helvetica,sans-Serif" font-size="11.00">0 &gt;</text>
<polygon fill="none" stroke="black" stroke-width="2" points="361,-121 361,-251 559,-251 559,-121 361,-121"/>
</a>
</g>
</g>
<!-- tdh_vl.pipe_point_normal_armature_setting -->
<g id="node2" class="node">
<title>tdh_vl.pipe_point_normal_armature_setting</title>
<g id="a_node2"><a xlink:href="../../../tdh_vl/tables/pipe_point_normal_armature_setting.html" xlink:title="tdh_vl.pipe_point_normal_armature_setting" target="_top">
<polygon fill="#ffffff" stroke="transparent" points="8,-116 8,-174 311,-174 311,-116 8,-116"/>
<polygon fill="#f5f5f5" stroke="transparent" points="8.5,-152 8.5,-174 311.5,-174 311.5,-152 8.5,-152"/>
<polygon fill="none" stroke="black" points="8.5,-152 8.5,-174 311.5,-174 311.5,-152 8.5,-152"/>
<text text-anchor="start" x="13.5" y="-161.2" font-family="Helvetica,sans-Serif" font-weight="bold" font-size="11.00">tdh_vl.pipe_point_normal_armature_setting</text>
<text text-anchor="start" x="272.5" y="-160.2" font-family="Helvetica,sans-Serif" font-size="11.00">[table]</text>
<polygon fill="none" stroke="black" points="8.5,-134 8.5,-152 311.5,-152 311.5,-134 8.5,-134"/>
<text text-anchor="start" x="11.5" y="-140.2" font-family="Helvetica,sans-Serif" font-size="11.00">...</text>
<polygon fill="#ffffff" stroke="transparent" points="8.5,-116 8.5,-134 135.5,-134 135.5,-116 8.5,-116"/>
<polygon fill="none" stroke="black" points="8.5,-116 8.5,-134 135.5,-134 135.5,-116 8.5,-116"/>
<text text-anchor="start" x="11.5" y="-122.2" font-family="Helvetica,sans-Serif" font-size="11.00"> &#160;</text>
<polygon fill="#ffffff" stroke="transparent" points="135.5,-116 135.5,-134 232.5,-134 232.5,-116 135.5,-116"/>
<polygon fill="none" stroke="black" points="135.5,-116 135.5,-134 232.5,-134 232.5,-116 135.5,-116"/>
<text text-anchor="start" x="195.5" y="-122.2" font-family="Helvetica,sans-Serif" font-size="11.00">0 rows</text>
<polygon fill="#ffffff" stroke="transparent" points="232.5,-116 232.5,-134 311.5,-134 311.5,-116 232.5,-116"/>
<polygon fill="none" stroke="black" points="232.5,-116 232.5,-134 311.5,-134 311.5,-116 232.5,-116"/>
<text text-anchor="start" x="292.5" y="-122.2" font-family="Helvetica,sans-Serif" font-size="11.00">1 &gt;</text>
</a>
</g>
</g>
<!-- pipe_point_normal&#45;&gt;tdh_vl.pipe_point_normal_armature_setting -->
<g id="edge1" class="edge">
<title>pipe_point_normal:w&#45;&gt;tdh_vl.pipe_point_normal_armature_setting:e</title>
<path fill="none" stroke="black" d="M346.48,-172.77C337.47,-172.49 328.33,-171.98 319.18,-171.27"/>
<polygon fill="black" stroke="black" points="353,-172.87 360.94,-176.6 357,-172.94 361,-173 361,-173 361,-173 357,-172.94 361.06,-169.4 353,-172.87 353,-172.87"/>
<ellipse fill="none" stroke="black" cx="349.8" cy="-172.82" rx="3.2" ry="3.2"/>
</g>
<!-- tdh_vl.pipe_point_normal_kind -->
<g id="node3" class="node">
<title>tdh_vl.pipe_point_normal_kind</title>
<g id="a_node3"><a xlink:href="../../../tdh_vl/tables/pipe_point_normal_kind.html" xlink:title="tdh_vl.pipe_point_normal_kind" target="_top">
<polygon fill="#ffffff" stroke="transparent" points="46.5,-195 46.5,-253 272.5,-253 272.5,-195 46.5,-195"/>
<polygon fill="#f5f5f5" stroke="transparent" points="46.5,-231 46.5,-253 272.5,-253 272.5,-231 46.5,-231"/>
<polygon fill="none" stroke="black" points="46.5,-231 46.5,-253 272.5,-253 272.5,-231 46.5,-231"/>
<text text-anchor="start" x="51.5" y="-240.2" font-family="Helvetica,sans-Serif" font-weight="bold" font-size="11.00">tdh_vl.pipe_point_normal_kind</text>
<text text-anchor="start" x="233.5" y="-239.2" font-family="Helvetica,sans-Serif" font-size="11.00">[table]</text>
<polygon fill="none" stroke="black" points="46.5,-213 46.5,-231 272.5,-231 272.5,-213 46.5,-213"/>
<text text-anchor="start" x="49.5" y="-219.2" font-family="Helvetica,sans-Serif" font-size="11.00">...</text>
<polygon fill="#ffffff" stroke="transparent" points="46.5,-195 46.5,-213 134.5,-213 134.5,-195 46.5,-195"/>
<polygon fill="none" stroke="black" points="46.5,-195 46.5,-213 134.5,-213 134.5,-195 46.5,-195"/>
<text text-anchor="start" x="49.5" y="-201.2" font-family="Helvetica,sans-Serif" font-size="11.00"> &#160;</text>
<polygon fill="#ffffff" stroke="transparent" points="134.5,-195 134.5,-213 212.5,-213 212.5,-195 134.5,-195"/>
<polygon fill="none" stroke="black" points="134.5,-195 134.5,-213 212.5,-213 212.5,-195 134.5,-195"/>
<text text-anchor="start" x="175.5" y="-201.2" font-family="Helvetica,sans-Serif" font-size="11.00">0 rows</text>
<polygon fill="#ffffff" stroke="transparent" points="212.5,-195 212.5,-213 272.5,-213 272.5,-195 212.5,-195"/>
<polygon fill="none" stroke="black" points="212.5,-195 212.5,-213 272.5,-213 272.5,-195 212.5,-195"/>
<text text-anchor="start" x="253.5" y="-201.2" font-family="Helvetica,sans-Serif" font-size="11.00">1 &gt;</text>
</a>
</g>
</g>
<!-- pipe_point_normal&#45;&gt;tdh_vl.pipe_point_normal_kind -->
<g id="edge2" class="edge">
<title>pipe_point_normal:w&#45;&gt;tdh_vl.pipe_point_normal_kind:e</title>
<path fill="none" stroke="black" d="M346.46,-195.24C324.72,-195.93 302.21,-198.08 280.7,-200.9"/>
<polygon fill="black" stroke="black" points="353,-195.13 361.06,-198.6 357,-195.07 361,-195 361,-195 361,-195 357,-195.07 360.94,-191.4 353,-195.13 353,-195.13"/>
<ellipse fill="none" stroke="black" cx="349.8" cy="-195.18" rx="3.2" ry="3.2"/>
</g>
<!-- tdh_vl.pipe_point_normal_material -->
<g id="node4" class="node">
<title>tdh_vl.pipe_point_normal_material</title>
<g id="a_node4"><a xlink:href="../../../tdh_vl/tables/pipe_point_normal_material.html" xlink:title="tdh_vl.pipe_point_normal_material" target="_top">
<polygon fill="#ffffff" stroke="transparent" points="34.5,-37 34.5,-95 284.5,-95 284.5,-37 34.5,-37"/>
<polygon fill="#f5f5f5" stroke="transparent" points="34.5,-73 34.5,-95 284.5,-95 284.5,-73 34.5,-73"/>
<polygon fill="none" stroke="black" points="34.5,-73 34.5,-95 284.5,-95 284.5,-73 34.5,-73"/>
<text text-anchor="start" x="39.5" y="-82.2" font-family="Helvetica,sans-Serif" font-weight="bold" font-size="11.00">tdh_vl.pipe_point_normal_material</text>
<text text-anchor="start" x="245.5" y="-81.2" font-family="Helvetica,sans-Serif" font-size="11.00">[table]</text>
<polygon fill="none" stroke="black" points="34.5,-55 34.5,-73 284.5,-73 284.5,-55 34.5,-55"/>
<text text-anchor="start" x="37.5" y="-61.2" font-family="Helvetica,sans-Serif" font-size="11.00">...</text>
<polygon fill="#ffffff" stroke="transparent" points="34.5,-37 34.5,-55 134.5,-55 134.5,-37 34.5,-37"/>
<polygon fill="none" stroke="black" points="34.5,-37 34.5,-55 134.5,-55 134.5,-37 34.5,-37"/>
<text text-anchor="start" x="37.5" y="-43.2" font-family="Helvetica,sans-Serif" font-size="11.00"> &#160;</text>
<polygon fill="#ffffff" stroke="transparent" points="134.5,-37 134.5,-55 218.5,-55 218.5,-37 134.5,-37"/>
<polygon fill="none" stroke="black" points="134.5,-37 134.5,-55 218.5,-55 218.5,-37 134.5,-37"/>
<text text-anchor="start" x="181.5" y="-43.2" font-family="Helvetica,sans-Serif" font-size="11.00">0 rows</text>
<polygon fill="#ffffff" stroke="transparent" points="218.5,-37 218.5,-55 284.5,-55 284.5,-37 218.5,-37"/>
<polygon fill="none" stroke="black" points="218.5,-37 218.5,-55 284.5,-55 284.5,-37 218.5,-37"/>
<text text-anchor="start" x="265.5" y="-43.2" font-family="Helvetica,sans-Serif" font-size="11.00">1 &gt;</text>
</a>
</g>
</g>
<!-- pipe_point_normal&#45;&gt;tdh_vl.pipe_point_normal_material -->
<g id="edge3" class="edge">
<title>pipe_point_normal:w&#45;&gt;tdh_vl.pipe_point_normal_material:e</title>
<path fill="none" stroke="black" d="M347.09,-146.67C335.91,-137.47 337.41,-115.94 319,-105 310.72,-100.08 301.84,-95.78 292.67,-92.02"/>
<polygon fill="black" stroke="black" points="353.36,-148.62 359.93,-154.44 357.18,-149.81 361,-151 361,-151 361,-151 357.18,-149.81 362.07,-147.56 353.36,-148.62 353.36,-148.62"/>
<ellipse fill="none" stroke="black" cx="350.31" cy="-147.67" rx="3.2" ry="3.2"/>
</g>
<!-- pipe_point -->
<g id="node5" class="node">
<title>pipe_point</title>
<g id="a_node5"><a xlink:href="../../tables/pipe_point.html" xlink:title="pipe_point" target="_top">
<polygon fill="#ffffff" stroke="transparent" points="75,-274 75,-486 244,-486 244,-274 75,-274"/>
<polygon fill="#f5f5f5" stroke="transparent" points="75.5,-464 75.5,-486 244.5,-486 244.5,-464 75.5,-464"/>
<polygon fill="none" stroke="black" points="75.5,-464 75.5,-486 244.5,-486 244.5,-464 75.5,-464"/>
<text text-anchor="start" x="80.5" y="-473.2" font-family="Helvetica,sans-Serif" font-weight="bold" font-size="11.00">pipe_point</text>
<text text-anchor="start" x="205.5" y="-472.2" font-family="Helvetica,sans-Serif" font-size="11.00">[table]</text>
<polygon fill="none" stroke="black" points="75.5,-442 75.5,-464 244.5,-464 244.5,-442 75.5,-442"/>
<image xlink:href="../../images/primaryKeys.png" width="11px" height="12px" preserveAspectRatio="xMinYMin meet" x="80.5" y="-459"/>
<text text-anchor="start" x="95.5" y="-450.2" font-family="Helvetica,sans-Serif" font-size="11.00">obj_id</text>
<polygon fill="#ffffff" stroke="transparent" points="75.5,-420 75.5,-442 244.5,-442 244.5,-420 75.5,-420"/>
<polygon fill="none" stroke="black" points="75.5,-420 75.5,-442 244.5,-442 244.5,-420 75.5,-420"/>
<text text-anchor="start" x="95.5" y="-428.2" font-family="Helvetica,sans-Serif" font-size="11.00">geometry3d_geometry</text>
<polygon fill="none" stroke="black" points="75.5,-398 75.5,-420 244.5,-420 244.5,-398 75.5,-398"/>
<image xlink:href="../../images/foreignKeys.png" width="11px" height="12px" preserveAspectRatio="xMinYMin meet" x="80.5" y="-415"/>
<text text-anchor="start" x="95.5" y="-406.2" font-family="Helvetica,sans-Serif" font-size="11.00">horizontal_positioning</text>
<polygon fill="none" stroke="black" points="75.5,-376 75.5,-398 244.5,-398 244.5,-376 75.5,-376"/>
<image xlink:href="../../images/foreignKeys.png" width="11px" height="12px" preserveAspectRatio="xMinYMin meet" x="80.5" y="-393"/>
<text text-anchor="start" x="95.5" y="-384.2" font-family="Helvetica,sans-Serif" font-size="11.00">elevation_determination</text>
<polygon fill="none" stroke="black" points="75.5,-354 75.5,-376 244.5,-376 244.5,-354 75.5,-354"/>
<image xlink:href="../../images/foreignKeys.png" width="11px" height="12px" preserveAspectRatio="xMinYMin meet" x="80.5" y="-371"/>
<text text-anchor="start" x="95.5" y="-362.2" font-family="Helvetica,sans-Serif" font-size="11.00">fk_dataowner</text>
<polygon fill="none" stroke="black" points="75.5,-332 75.5,-354 244.5,-354 244.5,-332 75.5,-332"/>
<image xlink:href="../../images/foreignKeys.png" width="11px" height="12px" preserveAspectRatio="xMinYMin meet" x="80.5" y="-349"/>
<text text-anchor="start" x="95.5" y="-340.2" font-family="Helvetica,sans-Serif" font-size="11.00">fk_provider</text>
<polygon fill="none" stroke="black" points="75.5,-310 75.5,-332 244.5,-332 244.5,-310 75.5,-310"/>
<image xlink:href="../../images/foreignKeys.png" width="11px" height="12px" preserveAspectRatio="xMinYMin meet" x="80.5" y="-327"/>
<text text-anchor="start" x="95.5" y="-318.2" font-family="Helvetica,sans-Serif" font-size="11.00">fk_owner</text>
<polygon fill="none" stroke="black" points="75.5,-292 75.5,-310 244.5,-310 244.5,-292 75.5,-292"/>
<text text-anchor="start" x="78.5" y="-298.2" font-family="Helvetica,sans-Serif" font-size="11.00">...</text>
<polygon fill="#ffffff" stroke="transparent" points="75.5,-274 75.5,-292 153.5,-292 153.5,-274 75.5,-274"/>
<polygon fill="none" stroke="black" points="75.5,-274 75.5,-292 153.5,-292 153.5,-274 75.5,-274"/>
<text text-anchor="start" x="78.5" y="-280.2" font-family="Helvetica,sans-Serif" font-size="11.00">&lt; 5</text>
<polygon fill="#ffffff" stroke="transparent" points="153.5,-274 153.5,-292 194.5,-292 194.5,-274 153.5,-274"/>
<polygon fill="none" stroke="black" points="153.5,-274 153.5,-292 194.5,-292 194.5,-274 153.5,-274"/>
<text text-anchor="start" x="184.5" y="-280.2" font-family="Helvetica,sans-Serif" font-size="11.00"> &#160;</text>
<polygon fill="#ffffff" stroke="transparent" points="194.5,-274 194.5,-292 244.5,-292 244.5,-274 194.5,-274"/>
<polygon fill="none" stroke="black" points="194.5,-274 194.5,-292 244.5,-292 244.5,-274 194.5,-274"/>
<text text-anchor="start" x="225.5" y="-280.2" font-family="Helvetica,sans-Serif" font-size="11.00">2 &gt;</text>
</a>
</g>
</g>
<!-- pipe_point_normal&#45;&gt;pipe_point -->
<g id="edge4" class="edge">
<title>pipe_point_normal:w&#45;&gt;pipe_point:e</title>
<path fill="none" stroke="black" d="M350.72,-219.65C302.54,-245.58 300.24,-453 245.5,-453"/>
<polygon fill="black" stroke="black" points="359.23,-213.33 361.22,-221.07 359.67,-221.47 357.68,-213.73 359.23,-213.33"/>
<polyline fill="none" stroke="black" points="361,-217 357.13,-218 "/>
<ellipse fill="none" stroke="black" cx="354.03" cy="-218.8" rx="3.2" ry="3.2"/>
</g>
</g>
</svg>
