<?xml version="1.0" encoding="UTF-8" standalone="no"?>
<!DOCTYPE svg PUBLIC "-//W3C//DTD SVG 1.1//EN"
 "http://www.w3.org/Graphics/SVG/1.1/DTD/svg11.dtd">
<!-- Generated by graphviz version 2.47.1 (20210515.0534)
 -->
<!-- Title: oneDegreeRelationshipsDiagram Pages: 1 -->
<svg width="555pt" height="612pt"
 viewBox="0.00 0.00 555.00 612.00" xmlns="http://www.w3.org/2000/svg" xmlns:xlink="http://www.w3.org/1999/xlink">
<g id="graph0" class="graph" transform="scale(1 1) rotate(0) translate(4 608)">
<title>oneDegreeRelationshipsDiagram</title>
<polygon fill="#ffffff" stroke="transparent" points="-4,4 -4,-608 551,-608 551,4 -4,4"/>
<text text-anchor="middle" x="73.5" y="-7.2" font-family="Helvetica,sans-Serif" font-size="11.00">Generated by SchemaSpy</text>
<!-- pipe_point_feed -->
<g id="node1" class="node">
<title>pipe_point_feed</title>
<g id="a_node1"><a xlink:href="../../tables/pipe_point_feed.html" xlink:title="pipe_point_feed" target="_top">
<polygon fill="#ffffff" stroke="transparent" points="291,-37 291,-411 539,-411 539,-37 291,-37"/>
<polygon fill="#f5f5f5" stroke="transparent" points="293,-387 293,-409 537,-409 537,-387 293,-387"/>
<polygon fill="none" stroke="black" points="293,-387 293,-409 537,-409 537,-387 293,-387"/>
<text text-anchor="start" x="298" y="-396.2" font-family="Helvetica,sans-Serif" font-weight="bold" font-size="11.00">pipe_point_feed</text>
<text text-anchor="start" x="498" y="-395.2" font-family="Helvetica,sans-Serif" font-size="11.00">[table]</text>
<polygon fill="none" stroke="black" points="293,-365 293,-387 465,-387 465,-365 293,-365"/>
<image xlink:href="../../images/primaryKeys.png" width="11px" height="12px" preserveAspectRatio="xMinYMin meet" x="298" y="-382"/>
<text text-anchor="start" x="313" y="-373.2" font-family="Helvetica,sans-Serif" font-size="11.00">obj_id</text>
<polygon fill="none" stroke="black" points="465,-365 465,-387 537,-387 537,-365 465,-365"/>
<text text-anchor="start" x="468" y="-373.2" font-family="Helvetica,sans-Serif" font-size="11.00">varchar[16]</text>
<polygon fill="none" stroke="black" points="293,-343 293,-365 465,-365 465,-343 293,-343"/>
<image xlink:href="../../images/foreignKeys.png" width="11px" height="12px" preserveAspectRatio="xMinYMin meet" x="298" y="-360"/>
<text text-anchor="start" x="313" y="-351.2" font-family="Helvetica,sans-Serif" font-size="11.00">kind</text>
<polygon fill="none" stroke="black" points="465,-343 465,-365 537,-365 537,-343 465,-343"/>
<text text-anchor="start" x="468" y="-351.2" font-family="Helvetica,sans-Serif" font-size="11.00">int4[10]</text>
<polygon fill="none" stroke="black" points="293,-321 293,-343 465,-343 465,-321 293,-321"/>
<text text-anchor="start" x="313" y="-329.2" font-family="Helvetica,sans-Serif" font-size="11.00">power_output_ordered</text>
<polygon fill="none" stroke="black" points="465,-321 465,-343 537,-343 537,-321 465,-321"/>
<text text-anchor="start" x="468" y="-329.2" font-family="Helvetica,sans-Serif" font-size="11.00">int4[10]</text>
<polygon fill="none" stroke="black" points="293,-299 293,-321 465,-321 465,-299 293,-299"/>
<text text-anchor="start" x="313" y="-307.2" font-family="Helvetica,sans-Serif" font-size="11.00">power_output_installed</text>
<polygon fill="none" stroke="black" points="465,-299 465,-321 537,-321 537,-299 465,-299"/>
<text text-anchor="start" x="468" y="-307.2" font-family="Helvetica,sans-Serif" font-size="11.00">int4[10]</text>
<polygon fill="none" stroke="black" points="293,-277 293,-299 465,-299 465,-277 293,-277"/>
<text text-anchor="start" x="313" y="-285.2" font-family="Helvetica,sans-Serif" font-size="11.00">aperture_value</text>
<polygon fill="none" stroke="black" points="465,-277 465,-299 537,-299 537,-277 465,-277"/>
<text text-anchor="start" x="468" y="-285.2" font-family="Helvetica,sans-Serif" font-size="11.00">int4[10]</text>
<polygon fill="none" stroke="black" points="293,-255 293,-277 465,-277 465,-255 293,-255"/>
<text text-anchor="start" x="313" y="-263.2" font-family="Helvetica,sans-Serif" font-size="11.00">q_subscribed</text>
<polygon fill="none" stroke="black" points="465,-255 465,-277 537,-277 537,-255 465,-255"/>
<text text-anchor="start" x="468" y="-263.2" font-family="Helvetica,sans-Serif" font-size="11.00">numeric[7,3]</text>
<polygon fill="none" stroke="black" points="293,-233 293,-255 465,-255 465,-233 293,-233"/>
<image xlink:href="../../images/foreignKeys.png" width="11px" height="12px" preserveAspectRatio="xMinYMin meet" x="298" y="-250"/>
<text text-anchor="start" x="313" y="-241.2" font-family="Helvetica,sans-Serif" font-size="11.00">category</text>
<polygon fill="none" stroke="black" points="465,-233 465,-255 537,-255 537,-233 465,-233"/>
<text text-anchor="start" x="468" y="-241.2" font-family="Helvetica,sans-Serif" font-size="11.00">int4[10]</text>
<polygon fill="none" stroke="black" points="293,-211 293,-233 465,-233 465,-211 293,-211"/>
<text text-anchor="start" x="313" y="-219.2" font-family="Helvetica,sans-Serif" font-size="11.00">year_of_commissioning</text>
<polygon fill="none" stroke="black" points="465,-211 465,-233 537,-233 537,-211 465,-211"/>
<text text-anchor="start" x="468" y="-219.2" font-family="Helvetica,sans-Serif" font-size="11.00">int2[5]</text>
<polygon fill="none" stroke="black" points="293,-189 293,-211 465,-211 465,-189 293,-189"/>
<text text-anchor="start" x="313" y="-197.2" font-family="Helvetica,sans-Serif" font-size="11.00">year_of_reconstruction</text>
<polygon fill="none" stroke="black" points="465,-189 465,-211 537,-211 537,-189 465,-189"/>
<text text-anchor="start" x="468" y="-197.2" font-family="Helvetica,sans-Serif" font-size="11.00">int2[5]</text>
<polygon fill="none" stroke="black" points="293,-167 293,-189 465,-189 465,-167 293,-167"/>
<text text-anchor="start" x="313" y="-175.2" font-family="Helvetica,sans-Serif" font-size="11.00">pressure</text>
<polygon fill="none" stroke="black" points="465,-167 465,-189 537,-189 537,-167 465,-167"/>
<text text-anchor="start" x="468" y="-175.2" font-family="Helvetica,sans-Serif" font-size="11.00">int2[5]</text>
<polygon fill="none" stroke="black" points="293,-145 293,-167 465,-167 465,-145 293,-145"/>
<text text-anchor="start" x="313" y="-153.2" font-family="Helvetica,sans-Serif" font-size="11.00">flow_temperature</text>
<polygon fill="none" stroke="black" points="465,-145 465,-167 537,-167 537,-145 465,-145"/>
<text text-anchor="start" x="468" y="-153.2" font-family="Helvetica,sans-Serif" font-size="11.00">int4[10]</text>
<polygon fill="none" stroke="black" points="293,-123 293,-145 465,-145 465,-123 293,-123"/>
<text text-anchor="start" x="313" y="-131.2" font-family="Helvetica,sans-Serif" font-size="11.00">return_flow_temperature</text>
<polygon fill="none" stroke="black" points="465,-123 465,-145 537,-145 537,-123 465,-123"/>
<text text-anchor="start" x="468" y="-131.2" font-family="Helvetica,sans-Serif" font-size="11.00">int4[10]</text>
<polygon fill="none" stroke="black" points="293,-101 293,-123 465,-123 465,-101 293,-101"/>
<text text-anchor="start" x="313" y="-109.2" font-family="Helvetica,sans-Serif" font-size="11.00">heated_volume</text>
<polygon fill="none" stroke="black" points="465,-101 465,-123 537,-123 537,-101 465,-101"/>
<text text-anchor="start" x="468" y="-109.2" font-family="Helvetica,sans-Serif" font-size="11.00">int4[10]</text>
<polygon fill="none" stroke="black" points="293,-79 293,-101 465,-101 465,-79 293,-79"/>
<text text-anchor="start" x="313" y="-87.2" font-family="Helvetica,sans-Serif" font-size="11.00">heat_consumption</text>
<polygon fill="none" stroke="black" points="465,-79 465,-101 537,-101 537,-79 465,-79"/>
<text text-anchor="start" x="468" y="-87.2" font-family="Helvetica,sans-Serif" font-size="11.00">int4[10]</text>
<polygon fill="none" stroke="black" points="293,-57 293,-79 465,-79 465,-57 293,-57"/>
<text text-anchor="start" x="313" y="-65.2" font-family="Helvetica,sans-Serif" font-size="11.00">power_output</text>
<polygon fill="none" stroke="black" points="465,-57 465,-79 537,-79 537,-57 465,-57"/>
<text text-anchor="start" x="468" y="-65.2" font-family="Helvetica,sans-Serif" font-size="11.00">int4[10]</text>
<polygon fill="#ffffff" stroke="transparent" points="293,-39 293,-57 383,-57 383,-39 293,-39"/>
<polygon fill="none" stroke="black" points="293,-39 293,-57 383,-57 383,-39 293,-39"/>
<text text-anchor="start" x="296" y="-45.2" font-family="Helvetica,sans-Serif" font-size="11.00">&lt; 3</text>
<polygon fill="#ffffff" stroke="transparent" points="383,-39 383,-57 465,-57 465,-39 383,-39"/>
<polygon fill="none" stroke="black" points="383,-39 383,-57 465,-57 465,-39 383,-39"/>
<text text-anchor="start" x="455" y="-45.2" font-family="Helvetica,sans-Serif" font-size="11.00"> &#160;</text>
<polygon fill="#ffffff" stroke="transparent" points="465,-39 465,-57 537,-57 537,-39 465,-39"/>
<polygon fill="none" stroke="black" points="465,-39 465,-57 537,-57 537,-39 465,-39"/>
<text text-anchor="start" x="518" y="-45.2" font-family="Helvetica,sans-Serif" font-size="11.00">0 &gt;</text>
<polygon fill="none" stroke="black" stroke-width="2" points="292,-38 292,-410 538,-410 538,-38 292,-38"/>
</a>
</g>
</g>
<!-- tdh_vl.pipe_point_feed_category -->
<g id="node2" class="node">
<title>tdh_vl.pipe_point_feed_category</title>
<g id="a_node2"><a xlink:href="../../../tdh_vl/tables/pipe_point_feed_category.html" xlink:title="tdh_vl.pipe_point_feed_category" target="_top">
<polygon fill="#ffffff" stroke="transparent" points="8,-215 8,-273 242,-273 242,-215 8,-215"/>
<polygon fill="#f5f5f5" stroke="transparent" points="8,-251 8,-273 242,-273 242,-251 8,-251"/>
<polygon fill="none" stroke="black" points="8,-251 8,-273 242,-273 242,-251 8,-251"/>
<text text-anchor="start" x="13" y="-260.2" font-family="Helvetica,sans-Serif" font-weight="bold" font-size="11.00">tdh_vl.pipe_point_feed_category</text>
<text text-anchor="start" x="203" y="-259.2" font-family="Helvetica,sans-Serif" font-size="11.00">[table]</text>
<polygon fill="none" stroke="black" points="8,-233 8,-251 242,-251 242,-233 8,-233"/>
<text text-anchor="start" x="11" y="-239.2" font-family="Helvetica,sans-Serif" font-size="11.00">...</text>
<polygon fill="#ffffff" stroke="transparent" points="8,-215 8,-233 100,-233 100,-215 8,-215"/>
<polygon fill="none" stroke="black" points="8,-215 8,-233 100,-233 100,-215 8,-215"/>
<text text-anchor="start" x="11" y="-221.2" font-family="Helvetica,sans-Serif" font-size="11.00"> &#160;</text>
<polygon fill="#ffffff" stroke="transparent" points="100,-215 100,-233 180,-233 180,-215 100,-215"/>
<polygon fill="none" stroke="black" points="100,-215 100,-233 180,-233 180,-215 100,-215"/>
<text text-anchor="start" x="143" y="-221.2" font-family="Helvetica,sans-Serif" font-size="11.00">0 rows</text>
<polygon fill="#ffffff" stroke="transparent" points="180,-215 180,-233 242,-233 242,-215 180,-215"/>
<polygon fill="none" stroke="black" points="180,-215 180,-233 242,-233 242,-215 180,-215"/>
<text text-anchor="start" x="223" y="-221.2" font-family="Helvetica,sans-Serif" font-size="11.00">1 &gt;</text>
</a>
</g>
</g>
<!-- pipe_point_feed&#45;&gt;tdh_vl.pipe_point_feed_category -->
<g id="edge1" class="edge">
<title>pipe_point_feed:w&#45;&gt;tdh_vl.pipe_point_feed_category:e</title>
<path fill="none" stroke="black" d="M277.51,-244C268.5,-244 259.33,-244 250.18,-244"/>
<polygon fill="black" stroke="black" points="284,-244 292,-247.6 288,-244 292,-244 292,-244 292,-244 288,-244 292,-240.4 284,-244 284,-244"/>
<ellipse fill="none" stroke="black" cx="280.8" cy="-244" rx="3.2" ry="3.2"/>
</g>
<!-- tdh_vl.pipe_point_feed_kind -->
<g id="node3" class="node">
<title>tdh_vl.pipe_point_feed_kind</title>
<g id="a_node3"><a xlink:href="../../../tdh_vl/tables/pipe_point_feed_kind.html" xlink:title="tdh_vl.pipe_point_feed_kind" target="_top">
<polygon fill="#ffffff" stroke="transparent" points="20.5,-309 20.5,-367 229.5,-367 229.5,-309 20.5,-309"/>
<polygon fill="#f5f5f5" stroke="transparent" points="21,-345 21,-367 230,-367 230,-345 21,-345"/>
<polygon fill="none" stroke="black" points="21,-345 21,-367 230,-367 230,-345 21,-345"/>
<text text-anchor="start" x="26" y="-354.2" font-family="Helvetica,sans-Serif" font-weight="bold" font-size="11.00">tdh_vl.pipe_point_feed_kind</text>
<text text-anchor="start" x="191" y="-353.2" font-family="Helvetica,sans-Serif" font-size="11.00">[table]</text>
<polygon fill="none" stroke="black" points="21,-327 21,-345 230,-345 230,-327 21,-327"/>
<text text-anchor="start" x="24" y="-333.2" font-family="Helvetica,sans-Serif" font-size="11.00">...</text>
<polygon fill="#ffffff" stroke="transparent" points="21,-309 21,-327 101,-327 101,-309 21,-309"/>
<polygon fill="none" stroke="black" points="21,-309 21,-327 101,-327 101,-309 21,-309"/>
<text text-anchor="start" x="24" y="-315.2" font-family="Helvetica,sans-Serif" font-size="11.00"> &#160;</text>
<polygon fill="#ffffff" stroke="transparent" points="101,-309 101,-327 174,-327 174,-309 101,-309"/>
<polygon fill="none" stroke="black" points="101,-309 101,-327 174,-327 174,-309 101,-309"/>
<text text-anchor="start" x="137" y="-315.2" font-family="Helvetica,sans-Serif" font-size="11.00">0 rows</text>
<polygon fill="#ffffff" stroke="transparent" points="174,-309 174,-327 230,-327 230,-309 174,-309"/>
<polygon fill="none" stroke="black" points="174,-309 174,-327 230,-327 230,-309 174,-309"/>
<text text-anchor="start" x="211" y="-315.2" font-family="Helvetica,sans-Serif" font-size="11.00">1 &gt;</text>
</a>
</g>
</g>
<!-- pipe_point_feed&#45;&gt;tdh_vl.pipe_point_feed_kind -->
<g id="edge2" class="edge">
<title>pipe_point_feed:w&#45;&gt;tdh_vl.pipe_point_feed_kind:e</title>
<path fill="none" stroke="black" d="M277.44,-353.81C264.4,-353.48 251.04,-352.73 237.92,-351.74"/>
<polygon fill="black" stroke="black" points="284,-353.89 291.95,-357.6 288,-353.95 292,-354 292,-354 292,-354 288,-353.95 292.05,-350.4 284,-353.89 284,-353.89"/>
<ellipse fill="none" stroke="black" cx="280.8" cy="-353.85" rx="3.2" ry="3.2"/>
</g>
<!-- pipe_point -->
<g id="node4" class="node">
<title>pipe_point</title>
<g id="a_node4"><a xlink:href="../../tables/pipe_point.html" xlink:title="pipe_point" target="_top">
<polygon fill="#ffffff" stroke="transparent" points="40.5,-388 40.5,-600 209.5,-600 209.5,-388 40.5,-388"/>
<polygon fill="#f5f5f5" stroke="transparent" points="41,-578 41,-600 210,-600 210,-578 41,-578"/>
<polygon fill="none" stroke="black" points="41,-578 41,-600 210,-600 210,-578 41,-578"/>
<text text-anchor="start" x="46" y="-587.2" font-family="Helvetica,sans-Serif" font-weight="bold" font-size="11.00">pipe_point</text>
<text text-anchor="start" x="171" y="-586.2" font-family="Helvetica,sans-Serif" font-size="11.00">[table]</text>
<polygon fill="none" stroke="black" points="41,-556 41,-578 210,-578 210,-556 41,-556"/>
<image xlink:href="../../images/primaryKeys.png" width="11px" height="12px" preserveAspectRatio="xMinYMin meet" x="46" y="-573"/>
<text text-anchor="start" x="61" y="-564.2" font-family="Helvetica,sans-Serif" font-size="11.00">obj_id</text>
<polygon fill="#ffffff" stroke="transparent" points="41,-534 41,-556 210,-556 210,-534 41,-534"/>
<polygon fill="none" stroke="black" points="41,-534 41,-556 210,-556 210,-534 41,-534"/>
<text text-anchor="start" x="61" y="-542.2" font-family="Helvetica,sans-Serif" font-size="11.00">geometry3d_geometry</text>
<polygon fill="none" stroke="black" points="41,-512 41,-534 210,-534 210,-512 41,-512"/>
<image xlink:href="../../images/foreignKeys.png" width="11px" height="12px" preserveAspectRatio="xMinYMin meet" x="46" y="-529"/>
<text text-anchor="start" x="61" y="-520.2" font-family="Helvetica,sans-Serif" font-size="11.00">horizontal_positioning</text>
<polygon fill="none" stroke="black" points="41,-490 41,-512 210,-512 210,-490 41,-490"/>
<image xlink:href="../../images/foreignKeys.png" width="11px" height="12px" preserveAspectRatio="xMinYMin meet" x="46" y="-507"/>
<text text-anchor="start" x="61" y="-498.2" font-family="Helvetica,sans-Serif" font-size="11.00">elevation_determination</text>
<polygon fill="none" stroke="black" points="41,-468 41,-490 210,-490 210,-468 41,-468"/>
<image xlink:href="../../images/foreignKeys.png" width="11px" height="12px" preserveAspectRatio="xMinYMin meet" x="46" y="-485"/>
<text text-anchor="start" x="61" y="-476.2" font-family="Helvetica,sans-Serif" font-size="11.00">fk_dataowner</text>
<polygon fill="none" stroke="black" points="41,-446 41,-468 210,-468 210,-446 41,-446"/>
<image xlink:href="../../images/foreignKeys.png" width="11px" height="12px" preserveAspectRatio="xMinYMin meet" x="46" y="-463"/>
<text text-anchor="start" x="61" y="-454.2" font-family="Helvetica,sans-Serif" font-size="11.00">fk_provider</text>
<polygon fill="none" stroke="black" points="41,-424 41,-446 210,-446 210,-424 41,-424"/>
<image xlink:href="../../images/foreignKeys.png" width="11px" height="12px" preserveAspectRatio="xMinYMin meet" x="46" y="-441"/>
<text text-anchor="start" x="61" y="-432.2" font-family="Helvetica,sans-Serif" font-size="11.00">fk_owner</text>
<polygon fill="none" stroke="black" points="41,-406 41,-424 210,-424 210,-406 41,-406"/>
<text text-anchor="start" x="44" y="-412.2" font-family="Helvetica,sans-Serif" font-size="11.00">...</text>
<polygon fill="#ffffff" stroke="transparent" points="41,-388 41,-406 119,-406 119,-388 41,-388"/>
<polygon fill="none" stroke="black" points="41,-388 41,-406 119,-406 119,-388 41,-388"/>
<text text-anchor="start" x="44" y="-394.2" font-family="Helvetica,sans-Serif" font-size="11.00">&lt; 5</text>
<polygon fill="#ffffff" stroke="transparent" points="119,-388 119,-406 160,-406 160,-388 119,-388"/>
<polygon fill="none" stroke="black" points="119,-388 119,-406 160,-406 160,-388 119,-388"/>
<text text-anchor="start" x="150" y="-394.2" font-family="Helvetica,sans-Serif" font-size="11.00"> &#160;</text>
<polygon fill="#ffffff" stroke="transparent" points="160,-388 160,-406 210,-406 210,-388 160,-388"/>
<polygon fill="none" stroke="black" points="160,-388 160,-406 210,-406 210,-388 160,-388"/>
<text text-anchor="start" x="191" y="-394.2" font-family="Helvetica,sans-Serif" font-size="11.00">2 &gt;</text>
</a>
</g>
</g>
<!-- pipe_point_feed&#45;&gt;pipe_point -->
<g id="edge3" class="edge">
<title>pipe_point_feed:w&#45;&gt;pipe_point:e</title>
<path fill="none" stroke="black" d="M281.61,-376.94C207.95,-391.35 299.43,-567 211,-567"/>
<polygon fill="black" stroke="black" points="290.84,-372.09 291.56,-380.06 289.97,-380.2 289.25,-372.23 290.84,-372.09"/>
<polyline fill="none" stroke="black" points="292,-376 288.02,-376.36 "/>
<ellipse fill="none" stroke="black" cx="284.83" cy="-376.65" rx="3.2" ry="3.2"/>
</g>
</g>
</svg>
