<?xml version="1.0" encoding="UTF-8" standalone="no"?>
<!DOCTYPE svg PUBLIC "-//W3C//DTD SVG 1.1//EN"
 "http://www.w3.org/Graphics/SVG/1.1/DTD/svg11.dtd">
<!-- Generated by graphviz version 2.43.0 (0)
 -->
<!-- Title: oneDegreeRelationshipsDiagram Pages: 1 -->
<svg width="1023pt" height="531pt"
 viewBox="0.00 0.00 1023.00 531.00" xmlns="http://www.w3.org/2000/svg" xmlns:xlink="http://www.w3.org/1999/xlink">
<g id="graph0" class="graph" transform="scale(1 1) rotate(0) translate(4 527)">
<title>oneDegreeRelationshipsDiagram</title>
<polygon fill="#ffffff" stroke="transparent" points="-4,4 -4,-527 1019,-527 1019,4 -4,4"/>
<text text-anchor="middle" x="79.5" y="-7.2" font-family="Helvetica,sans-Serif" font-size="11.00">Generated by SchemaSpy</text>
<!-- pipe_point -->
<g id="node1" class="node">
<title>pipe_point</title>
<g id="a_node1"><a xlink:href="../../tables/pipe_point.html" xlink:title="pipe_point" target="_top">
<polygon fill="#ffffff" stroke="transparent" points="415,-141 415,-449 755,-449 755,-141 415,-141"/>
<polygon fill="#f5f5f5" stroke="transparent" points="417,-425 417,-447 753,-447 753,-425 417,-425"/>
<polygon fill="none" stroke="black" points="417,-425 417,-447 753,-447 753,-425 417,-425"/>
<text text-anchor="start" x="422" y="-434.2" font-family="Helvetica,sans-Serif" font-weight="bold" font-size="11.00">pipe_point</text>
<text text-anchor="start" x="711" y="-433.2" font-family="Helvetica,sans-Serif" font-size="11.00">[table]</text>
<polygon fill="none" stroke="black" points="417,-403 417,-425 617,-425 617,-403 417,-403"/>
<image xlink:href="../../images/primaryKeys.png" width="11px" height="12px" preserveAspectRatio="xMinYMin meet" x="422" y="-420"/>
<text text-anchor="start" x="437" y="-411.2" font-family="Helvetica,sans-Serif" font-size="11.00">obj_id</text>
<polygon fill="none" stroke="black" points="617,-403 617,-425 753,-425 753,-403 617,-403"/>
<text text-anchor="start" x="620" y="-411.2" font-family="Helvetica,sans-Serif" font-size="11.00">varchar[16]</text>
<polygon fill="#ffffff" stroke="transparent" points="417,-381 417,-403 617,-403 617,-381 417,-381"/>
<polygon fill="none" stroke="black" points="417,-381 417,-403 617,-403 617,-381 417,-381"/>
<text text-anchor="start" x="437" y="-389.2" font-family="Helvetica,sans-Serif" font-size="11.00">geometry3d_geometry</text>
<polygon fill="none" stroke="black" points="617,-381 617,-403 753,-403 753,-381 617,-381"/>
<text text-anchor="start" x="620" y="-389.2" font-family="Helvetica,sans-Serif" font-size="11.00">geometry[2147483647]</text>
<polygon fill="none" stroke="black" points="417,-359 417,-381 617,-381 617,-359 417,-359"/>
<text text-anchor="start" x="437" y="-367.2" font-family="Helvetica,sans-Serif" font-size="11.00">symbolori</text>
<polygon fill="none" stroke="black" points="617,-359 617,-381 753,-381 753,-359 617,-359"/>
<text text-anchor="start" x="620" y="-367.2" font-family="Helvetica,sans-Serif" font-size="11.00">numeric[4,1]</text>
<polygon fill="none" stroke="black" points="417,-337 417,-359 617,-359 617,-337 417,-337"/>
<image xlink:href="../../images/foreignKeys.png" width="11px" height="12px" preserveAspectRatio="xMinYMin meet" x="422" y="-354"/>
<text text-anchor="start" x="437" y="-345.2" font-family="Helvetica,sans-Serif" font-size="11.00">horizontal_positioning</text>
<polygon fill="none" stroke="black" points="617,-337 617,-359 753,-359 753,-337 617,-337"/>
<text text-anchor="start" x="620" y="-345.2" font-family="Helvetica,sans-Serif" font-size="11.00">int4[10]</text>
<polygon fill="none" stroke="black" points="417,-315 417,-337 617,-337 617,-315 417,-315"/>
<text text-anchor="start" x="437" y="-323.2" font-family="Helvetica,sans-Serif" font-size="11.00">altitude1</text>
<polygon fill="none" stroke="black" points="617,-315 617,-337 753,-337 753,-315 617,-315"/>
<text text-anchor="start" x="620" y="-323.2" font-family="Helvetica,sans-Serif" font-size="11.00">numeric[7,3]</text>
<polygon fill="none" stroke="black" points="417,-293 417,-315 617,-315 617,-293 417,-293"/>
<text text-anchor="start" x="437" y="-301.2" font-family="Helvetica,sans-Serif" font-size="11.00">altitude2</text>
<polygon fill="none" stroke="black" points="617,-293 617,-315 753,-315 753,-293 617,-293"/>
<text text-anchor="start" x="620" y="-301.2" font-family="Helvetica,sans-Serif" font-size="11.00">numeric[7,3]</text>
<polygon fill="none" stroke="black" points="417,-271 417,-293 617,-293 617,-271 417,-271"/>
<image xlink:href="../../images/foreignKeys.png" width="11px" height="12px" preserveAspectRatio="xMinYMin meet" x="422" y="-288"/>
<text text-anchor="start" x="437" y="-279.2" font-family="Helvetica,sans-Serif" font-size="11.00">elevation_determination</text>
<polygon fill="none" stroke="black" points="617,-271 617,-293 753,-293 753,-271 617,-271"/>
<text text-anchor="start" x="620" y="-279.2" font-family="Helvetica,sans-Serif" font-size="11.00">int4[10]</text>
<polygon fill="none" stroke="black" points="417,-249 417,-271 617,-271 617,-249 417,-249"/>
<text text-anchor="start" x="437" y="-257.2" font-family="Helvetica,sans-Serif" font-size="11.00">remark</text>
<polygon fill="none" stroke="black" points="617,-249 617,-271 753,-271 753,-249 617,-249"/>
<text text-anchor="start" x="620" y="-257.2" font-family="Helvetica,sans-Serif" font-size="11.00">text[2147483647]</text>
<polygon fill="none" stroke="black" points="417,-227 417,-249 617,-249 617,-227 417,-227"/>
<text text-anchor="start" x="437" y="-235.2" font-family="Helvetica,sans-Serif" font-size="11.00">last_modification</text>
<polygon fill="none" stroke="black" points="617,-227 617,-249 753,-249 753,-227 617,-227"/>
<text text-anchor="start" x="620" y="-235.2" font-family="Helvetica,sans-Serif" font-size="11.00">timestamp[29,6]</text>
<polygon fill="none" stroke="black" points="417,-205 417,-227 617,-227 617,-205 417,-205"/>
<image xlink:href="../../images/foreignKeys.png" width="11px" height="12px" preserveAspectRatio="xMinYMin meet" x="422" y="-222"/>
<text text-anchor="start" x="437" y="-213.2" font-family="Helvetica,sans-Serif" font-size="11.00">fk_dataowner</text>
<polygon fill="none" stroke="black" points="617,-205 617,-227 753,-227 753,-205 617,-205"/>
<text text-anchor="start" x="620" y="-213.2" font-family="Helvetica,sans-Serif" font-size="11.00">varchar[16]</text>
<polygon fill="none" stroke="black" points="417,-183 417,-205 617,-205 617,-183 417,-183"/>
<image xlink:href="../../images/foreignKeys.png" width="11px" height="12px" preserveAspectRatio="xMinYMin meet" x="422" y="-200"/>
<text text-anchor="start" x="437" y="-191.2" font-family="Helvetica,sans-Serif" font-size="11.00">fk_provider</text>
<polygon fill="none" stroke="black" points="617,-183 617,-205 753,-205 753,-183 617,-183"/>
<text text-anchor="start" x="620" y="-191.2" font-family="Helvetica,sans-Serif" font-size="11.00">varchar[16]</text>
<polygon fill="none" stroke="black" points="417,-161 417,-183 617,-183 617,-161 417,-161"/>
<image xlink:href="../../images/foreignKeys.png" width="11px" height="12px" preserveAspectRatio="xMinYMin meet" x="422" y="-178"/>
<text text-anchor="start" x="437" y="-169.2" font-family="Helvetica,sans-Serif" font-size="11.00">fk_owner</text>
<polygon fill="none" stroke="black" points="617,-161 617,-183 753,-183 753,-161 617,-161"/>
<text text-anchor="start" x="620" y="-169.2" font-family="Helvetica,sans-Serif" font-size="11.00">varchar[16]</text>
<polygon fill="#ffffff" stroke="transparent" points="417,-143 417,-161 753,-161 753,-143 417,-143"/>
<polygon fill="none" stroke="black" points="417,-143 417,-161 753,-161 753,-143 417,-143"/>
<polygon fill="#ffffff" stroke="transparent" points="418,-144 418,-160 534,-160 534,-144 418,-144"/>
<text text-anchor="start" x="420" y="-149.2" font-family="Helvetica,sans-Serif" font-size="11.00">&lt; 5</text>
<polygon fill="#ffffff" stroke="transparent" points="534,-144 534,-160 637,-160 637,-144 534,-144"/>
<text text-anchor="start" x="581.5" y="-149.2" font-family="Helvetica,sans-Serif" font-size="11.00"> &#160;</text>
<polygon fill="#ffffff" stroke="transparent" points="637,-144 637,-160 752,-160 752,-144 637,-144"/>
<text text-anchor="start" x="730" y="-149.2" font-family="Helvetica,sans-Serif" font-size="11.00">2 &gt;</text>
<polygon fill="black" stroke="black" points="534,-144 534,-160 534,-160 534,-144 534,-144"/>
<polygon fill="black" stroke="black" points="637,-144 637,-160 637,-160 637,-144 637,-144"/>
<polygon fill="none" stroke="black" stroke-width="2" points="416,-142 416,-448 754,-448 754,-142 416,-142"/>
</a>
</g>
</g>
<!-- tdh_vl.pipe_point_elevation_determination -->
<g id="node2" class="node">
<title>tdh_vl.pipe_point_elevation_determination</title>
<g id="a_node2"><a xlink:href="../../../tdh_vl/tables/pipe_point_elevation_determination.html" xlink:title="tdh_vl.pipe_point_elevation_determination" target="_top">
<polygon fill="#ffffff" stroke="transparent" points="8,-250 8,-308 366,-308 366,-250 8,-250"/>
<polygon fill="#f5f5f5" stroke="transparent" points="8,-286 8,-308 366,-308 366,-286 8,-286"/>
<polygon fill="none" stroke="black" points="8,-286 8,-308 366,-308 366,-286 8,-286"/>
<text text-anchor="start" x="13" y="-295.2" font-family="Helvetica,sans-Serif" font-weight="bold" font-size="11.00">tdh_vl.pipe_point_elevation_determination</text>
<text text-anchor="start" x="324" y="-294.2" font-family="Helvetica,sans-Serif" font-size="11.00">[table]</text>
<polygon fill="none" stroke="black" points="8,-268 8,-286 366,-286 366,-268 8,-268"/>
<text text-anchor="start" x="11" y="-274.2" font-family="Helvetica,sans-Serif" font-size="11.00">...</text>
<polygon fill="#ffffff" stroke="transparent" points="8,-250 8,-268 366,-268 366,-250 8,-250"/>
<polygon fill="none" stroke="black" points="8,-250 8,-268 366,-268 366,-250 8,-250"/>
<polygon fill="#ffffff" stroke="transparent" points="9,-251 9,-267 114,-267 114,-251 9,-251"/>
<text text-anchor="start" x="11" y="-256.2" font-family="Helvetica,sans-Serif" font-size="11.00"> &#160;</text>
<polygon fill="#ffffff" stroke="transparent" points="114,-251 114,-267 248,-267 248,-251 114,-251"/>
<text text-anchor="start" x="162.5" y="-256.2" font-family="Helvetica,sans-Serif" font-size="11.00">0 rows</text>
<polygon fill="#ffffff" stroke="transparent" points="248,-251 248,-267 365,-267 365,-251 248,-251"/>
<text text-anchor="start" x="343" y="-256.2" font-family="Helvetica,sans-Serif" font-size="11.00">1 &gt;</text>
<polygon fill="black" stroke="black" points="114,-251 114,-267 114,-267 114,-251 114,-251"/>
<polygon fill="black" stroke="black" points="248,-251 248,-267 248,-267 248,-251 248,-251"/>
</a>
</g>
</g>
<!-- pipe_point&#45;&gt;tdh_vl.pipe_point_elevation_determination -->
<g id="edge1" class="edge">
<title>pipe_point:w&#45;&gt;tdh_vl.pipe_point_elevation_determination:e</title>
<path fill="none" stroke="black" d="M401.44,-281.98C392.41,-281.96 383.23,-281.91 374.02,-281.85"/>
<polygon fill="black" stroke="black" points="408,-281.99 416,-285.6 412,-281.99 416,-282 416,-282 416,-282 412,-281.99 416,-278.4 408,-281.99 408,-281.99"/>
<ellipse fill="none" stroke="black" cx="404.8" cy="-281.98" rx="3.2" ry="3.2"/>
</g>
<!-- organisation -->
<g id="node3" class="node">
<title>organisation</title>
<g id="a_node3"><a xlink:href="../../tables/organisation.html" xlink:title="organisation" target="_top">
<polygon fill="#ffffff" stroke="transparent" points="100,-37 100,-227 274,-227 274,-37 100,-37"/>
<polygon fill="#f5f5f5" stroke="transparent" points="100,-205 100,-227 274,-227 274,-205 100,-205"/>
<polygon fill="none" stroke="black" points="100,-205 100,-227 274,-227 274,-205 100,-205"/>
<text text-anchor="start" x="105" y="-214.2" font-family="Helvetica,sans-Serif" font-weight="bold" font-size="11.00">organisation</text>
<text text-anchor="start" x="232" y="-213.2" font-family="Helvetica,sans-Serif" font-size="11.00">[table]</text>
<polygon fill="none" stroke="black" points="100,-183 100,-205 274,-205 274,-183 100,-183"/>
<image xlink:href="../../images/primaryKeys.png" width="11px" height="12px" preserveAspectRatio="xMinYMin meet" x="105" y="-200"/>
<text text-anchor="start" x="120" y="-191.2" font-family="Helvetica,sans-Serif" font-size="11.00">obj_id</text>
<polygon fill="#ffffff" stroke="transparent" points="100,-161 100,-183 274,-183 274,-161 100,-161"/>
<polygon fill="none" stroke="black" points="100,-161 100,-183 274,-183 274,-161 100,-161"/>
<text text-anchor="start" x="120" y="-169.2" font-family="Helvetica,sans-Serif" font-size="11.00">identifier</text>
<polygon fill="none" stroke="black" points="100,-139 100,-161 274,-161 274,-139 100,-139"/>
<image xlink:href="../../images/foreignKeys.png" width="11px" height="12px" preserveAspectRatio="xMinYMin meet" x="105" y="-156"/>
<text text-anchor="start" x="120" y="-147.2" font-family="Helvetica,sans-Serif" font-size="11.00">organisation_type</text>
<polygon fill="none" stroke="black" points="100,-117 100,-139 274,-139 274,-117 100,-117"/>
<image xlink:href="../../images/foreignKeys.png" width="11px" height="12px" preserveAspectRatio="xMinYMin meet" x="105" y="-134"/>
<text text-anchor="start" x="120" y="-125.2" font-family="Helvetica,sans-Serif" font-size="11.00">status</text>
<polygon fill="#ffffff" stroke="transparent" points="100,-95 100,-117 274,-117 274,-95 100,-95"/>
<polygon fill="none" stroke="black" points="100,-95 100,-117 274,-117 274,-95 100,-95"/>
<image xlink:href="../../images/foreignKeys.png" width="11px" height="12px" preserveAspectRatio="xMinYMin meet" x="105" y="-112"/>
<text text-anchor="start" x="120" y="-103.2" font-family="Helvetica,sans-Serif" font-size="11.00">fk_dataowner</text>
<polygon fill="none" stroke="black" points="100,-73 100,-95 274,-95 274,-73 100,-73"/>
<image xlink:href="../../images/foreignKeys.png" width="11px" height="12px" preserveAspectRatio="xMinYMin meet" x="105" y="-90"/>
<text text-anchor="start" x="120" y="-81.2" font-family="Helvetica,sans-Serif" font-size="11.00">fk_provider</text>
<polygon fill="none" stroke="black" points="100,-55 100,-73 274,-73 274,-55 100,-55"/>
<text text-anchor="start" x="103" y="-61.2" font-family="Helvetica,sans-Serif" font-size="11.00">...</text>
<polygon fill="#ffffff" stroke="transparent" points="100,-37 100,-55 274,-55 274,-37 100,-37"/>
<polygon fill="none" stroke="black" points="100,-37 100,-55 274,-55 274,-37 100,-37"/>
<polygon fill="#ffffff" stroke="transparent" points="101,-38 101,-54 160,-54 160,-38 101,-38"/>
<text text-anchor="start" x="103" y="-43.2" font-family="Helvetica,sans-Serif" font-size="11.00">&lt; 4</text>
<polygon fill="#ffffff" stroke="transparent" points="160,-38 160,-54 207,-54 207,-38 160,-38"/>
<text text-anchor="start" x="179.5" y="-43.2" font-family="Helvetica,sans-Serif" font-size="11.00"> &#160;</text>
<polygon fill="#ffffff" stroke="transparent" points="207,-38 207,-54 273,-54 273,-38 207,-38"/>
<text text-anchor="start" x="244" y="-43.2" font-family="Helvetica,sans-Serif" font-size="11.00">33 &gt;</text>
<polygon fill="black" stroke="black" points="160,-38 160,-54 160,-54 160,-38 160,-38"/>
<polygon fill="black" stroke="black" points="207,-38 207,-54 207,-54 207,-38 207,-38"/>
</a>
</g>
</g>
<!-- pipe_point&#45;&gt;organisation -->
<g id="edge2" class="edge">
<title>pipe_point:w&#45;&gt;organisation:e</title>
<path fill="none" stroke="black" d="M401.33,-215.58C349.92,-212.54 333.22,-194 275,-194"/>
<polygon fill="black" stroke="black" points="408,-215.77 415.9,-219.6 412,-215.89 416,-216 416,-216 416,-216 412,-215.89 416.1,-212.4 408,-215.77 408,-215.77"/>
<ellipse fill="none" stroke="black" cx="404.8" cy="-215.68" rx="3.2" ry="3.2"/>
</g>
<!-- pipe_point&#45;&gt;organisation -->
<g id="edge3" class="edge">
<title>pipe_point:w&#45;&gt;organisation:e</title>
<path fill="none" stroke="black" d="M401.33,-172.42C349.92,-175.46 333.22,-194 275,-194"/>
<polygon fill="black" stroke="black" points="408,-172.23 416.1,-175.6 412,-172.11 416,-172 416,-172 416,-172 412,-172.11 415.9,-168.4 408,-172.23 408,-172.23"/>
<ellipse fill="none" stroke="black" cx="404.8" cy="-172.32" rx="3.2" ry="3.2"/>
</g>
<!-- pipe_point&#45;&gt;organisation -->
<g id="edge4" class="edge">
<title>pipe_point:w&#45;&gt;organisation:e</title>
<path fill="none" stroke="black" d="M401.48,-194C350.45,-194 332.53,-194 275,-194"/>
<polygon fill="black" stroke="black" points="408,-194 416,-197.6 412,-194 416,-194 416,-194 416,-194 412,-194 416,-190.4 408,-194 408,-194"/>
<ellipse fill="none" stroke="black" cx="404.8" cy="-194" rx="3.2" ry="3.2"/>
</g>
<!-- tdh_vl.pipe_point_horizontal_positioning -->
<g id="node4" class="node">
<title>tdh_vl.pipe_point_horizontal_positioning</title>
<g id="a_node4"><a xlink:href="../../../tdh_vl/tables/pipe_point_horizontal_positioning.html" xlink:title="tdh_vl.pipe_point_horizontal_positioning" target="_top">
<polygon fill="#ffffff" stroke="transparent" points="16,-329 16,-387 358,-387 358,-329 16,-329"/>
<polygon fill="#f5f5f5" stroke="transparent" points="16,-365 16,-387 358,-387 358,-365 16,-365"/>
<polygon fill="none" stroke="black" points="16,-365 16,-387 358,-387 358,-365 16,-365"/>
<text text-anchor="start" x="21" y="-374.2" font-family="Helvetica,sans-Serif" font-weight="bold" font-size="11.00">tdh_vl.pipe_point_horizontal_positioning</text>
<text text-anchor="start" x="316" y="-373.2" font-family="Helvetica,sans-Serif" font-size="11.00">[table]</text>
<polygon fill="none" stroke="black" points="16,-347 16,-365 358,-365 358,-347 16,-347"/>
<text text-anchor="start" x="19" y="-353.2" font-family="Helvetica,sans-Serif" font-size="11.00">...</text>
<polygon fill="#ffffff" stroke="transparent" points="16,-329 16,-347 358,-347 358,-329 16,-329"/>
<polygon fill="none" stroke="black" points="16,-329 16,-347 358,-347 358,-329 16,-329"/>
<polygon fill="#ffffff" stroke="transparent" points="17,-330 17,-346 117,-346 117,-330 17,-330"/>
<text text-anchor="start" x="19" y="-335.2" font-family="Helvetica,sans-Serif" font-size="11.00"> &#160;</text>
<polygon fill="#ffffff" stroke="transparent" points="117,-330 117,-346 246,-346 246,-330 117,-330"/>
<text text-anchor="start" x="163" y="-335.2" font-family="Helvetica,sans-Serif" font-size="11.00">0 rows</text>
<polygon fill="#ffffff" stroke="transparent" points="246,-330 246,-346 357,-346 357,-330 246,-330"/>
<text text-anchor="start" x="335" y="-335.2" font-family="Helvetica,sans-Serif" font-size="11.00">1 &gt;</text>
<polygon fill="black" stroke="black" points="117,-330 117,-346 117,-346 117,-330 117,-330"/>
<polygon fill="black" stroke="black" points="246,-330 246,-346 246,-346 246,-330 246,-330"/>
</a>
</g>
</g>
<!-- pipe_point&#45;&gt;tdh_vl.pipe_point_horizontal_positioning -->
<g id="edge5" class="edge">
<title>pipe_point:w&#45;&gt;tdh_vl.pipe_point_horizontal_positioning:e</title>
<path fill="none" stroke="black" d="M401.47,-348.06C389.89,-348.17 378.08,-348.38 366.26,-348.68"/>
<polygon fill="black" stroke="black" points="408,-348.04 416.02,-351.6 412,-348.02 416,-348 416,-348 416,-348 412,-348.02 415.98,-344.4 408,-348.04 408,-348.04"/>
<ellipse fill="none" stroke="black" cx="404.8" cy="-348.05" rx="3.2" ry="3.2"/>
</g>
<!-- pipe_point_feed -->
<g id="node5" class="node">
<title>pipe_point_feed</title>
<g id="a_node5"><a xlink:href="../../tables/pipe_point_feed.html" xlink:title="pipe_point_feed" target="_top">
<polygon fill="#ffffff" stroke="transparent" points="804,-395 804,-519 1007,-519 1007,-395 804,-395"/>
<polygon fill="#f5f5f5" stroke="transparent" points="804.5,-497 804.5,-519 1007.5,-519 1007.5,-497 804.5,-497"/>
<polygon fill="none" stroke="black" points="804.5,-497 804.5,-519 1007.5,-519 1007.5,-497 804.5,-497"/>
<text text-anchor="start" x="809.5" y="-506.2" font-family="Helvetica,sans-Serif" font-weight="bold" font-size="11.00">pipe_point_feed</text>
<text text-anchor="start" x="965.5" y="-505.2" font-family="Helvetica,sans-Serif" font-size="11.00">[table]</text>
<polygon fill="none" stroke="black" points="804.5,-475 804.5,-497 1007.5,-497 1007.5,-475 804.5,-475"/>
<image xlink:href="../../images/primaryKeys.png" width="11px" height="12px" preserveAspectRatio="xMinYMin meet" x="809.5" y="-492"/>
<text text-anchor="start" x="824.5" y="-483.2" font-family="Helvetica,sans-Serif" font-size="11.00">obj_id</text>
<polygon fill="none" stroke="black" points="804.5,-453 804.5,-475 1007.5,-475 1007.5,-453 804.5,-453"/>
<image xlink:href="../../images/foreignKeys.png" width="11px" height="12px" preserveAspectRatio="xMinYMin meet" x="809.5" y="-470"/>
<text text-anchor="start" x="824.5" y="-461.2" font-family="Helvetica,sans-Serif" font-size="11.00">kind</text>
<polygon fill="none" stroke="black" points="804.5,-431 804.5,-453 1007.5,-453 1007.5,-431 804.5,-431"/>
<image xlink:href="../../images/foreignKeys.png" width="11px" height="12px" preserveAspectRatio="xMinYMin meet" x="809.5" y="-448"/>
<text text-anchor="start" x="824.5" y="-439.2" font-family="Helvetica,sans-Serif" font-size="11.00">category</text>
<polygon fill="none" stroke="black" points="804.5,-413 804.5,-431 1007.5,-431 1007.5,-413 804.5,-413"/>
<text text-anchor="start" x="807.5" y="-419.2" font-family="Helvetica,sans-Serif" font-size="11.00">...</text>
<polygon fill="#ffffff" stroke="transparent" points="804.5,-395 804.5,-413 1007.5,-413 1007.5,-395 804.5,-395"/>
<polygon fill="none" stroke="black" points="804.5,-395 804.5,-413 1007.5,-413 1007.5,-395 804.5,-395"/>
<polygon fill="#ffffff" stroke="transparent" points="805.5,-396 805.5,-412 880.5,-412 880.5,-396 805.5,-396"/>
<text text-anchor="start" x="807.5" y="-401.2" font-family="Helvetica,sans-Serif" font-size="11.00">&lt; 3</text>
<polygon fill="#ffffff" stroke="transparent" points="880.5,-396 880.5,-412 943.5,-412 943.5,-396 880.5,-396"/>
<text text-anchor="start" x="908" y="-401.2" font-family="Helvetica,sans-Serif" font-size="11.00"> &#160;</text>
<polygon fill="#ffffff" stroke="transparent" points="943.5,-396 943.5,-412 1006.5,-412 1006.5,-396 943.5,-396"/>
<text text-anchor="start" x="996.5" y="-401.2" font-family="Helvetica,sans-Serif" font-size="11.00"> &#160;</text>
<polygon fill="black" stroke="black" points="880.5,-396 880.5,-412 880.5,-412 880.5,-396 880.5,-396"/>
<polygon fill="black" stroke="black" points="943.5,-396 943.5,-412 943.5,-412 943.5,-396 943.5,-396"/>
</a>
</g>
</g>
<!-- pipe_point_feed&#45;&gt;pipe_point -->
<g id="edge6" class="edge">
<title>pipe_point_feed:w&#45;&gt;pipe_point:e</title>
<path fill="none" stroke="black" d="M793.29,-483.77C769.86,-471.61 788.74,-414 754,-414"/>
<polygon fill="black" stroke="black" points="803.57,-481.92 801.86,-489.74 800.3,-489.39 802.01,-481.58 803.57,-481.92"/>
<polyline fill="none" stroke="black" points="803.5,-486 799.59,-485.14 "/>
<ellipse fill="none" stroke="black" cx="796.47" cy="-484.46" rx="3.2" ry="3.2"/>
</g>
<!-- pipe_point_normal -->
<g id="node6" class="node">
<title>pipe_point_normal</title>
<g id="a_node6"><a xlink:href="../../tables/pipe_point_normal.html" xlink:title="pipe_point_normal" target="_top">
<polygon fill="#ffffff" stroke="transparent" points="815,-246 815,-374 996,-374 996,-246 815,-246"/>
<polygon fill="#f5f5f5" stroke="transparent" points="815.5,-352 815.5,-374 996.5,-374 996.5,-352 815.5,-352"/>
<polygon fill="none" stroke="black" points="815.5,-352 815.5,-374 996.5,-374 996.5,-352 815.5,-352"/>
<text text-anchor="start" x="820.5" y="-361.2" font-family="Helvetica,sans-Serif" font-weight="bold" font-size="11.00">pipe_point_normal</text>
<text text-anchor="start" x="954.5" y="-360.2" font-family="Helvetica,sans-Serif" font-size="11.00">[table]</text>
<polygon fill="none" stroke="black" points="815.5,-330 815.5,-352 996.5,-352 996.5,-330 815.5,-330"/>
<image xlink:href="../../images/primaryKeys.png" width="11px" height="12px" preserveAspectRatio="xMinYMin meet" x="820.5" y="-347"/>
<text text-anchor="start" x="848.5" y="-338.2" font-family="Helvetica,sans-Serif" font-size="11.00">obj_id</text>
<polygon fill="none" stroke="black" points="815.5,-308 815.5,-330 996.5,-330 996.5,-308 815.5,-308"/>
<image xlink:href="../../images/foreignKeys.png" width="11px" height="12px" preserveAspectRatio="xMinYMin meet" x="820.5" y="-325"/>
<text text-anchor="start" x="848.5" y="-316.2" font-family="Helvetica,sans-Serif" font-size="11.00">kind</text>
<polygon fill="none" stroke="black" points="815.5,-286 815.5,-308 996.5,-308 996.5,-286 815.5,-286"/>
<image xlink:href="../../images/foreignKeys.png" width="11px" height="12px" preserveAspectRatio="xMinYMin meet" x="820.5" y="-303"/>
<text text-anchor="start" x="848.5" y="-294.2" font-family="Helvetica,sans-Serif" font-size="11.00">armature_setting</text>
<polygon fill="none" stroke="black" points="815.5,-264 815.5,-286 996.5,-286 996.5,-264 815.5,-264"/>
<image xlink:href="../../images/foreignKeys.png" width="11px" height="12px" preserveAspectRatio="xMinYMin meet" x="820.5" y="-281"/>
<text text-anchor="start" x="848.5" y="-272.2" font-family="Helvetica,sans-Serif" font-size="11.00">material</text>
<polygon fill="#ffffff" stroke="transparent" points="815.5,-246 815.5,-264 996.5,-264 996.5,-246 815.5,-246"/>
<polygon fill="none" stroke="black" points="815.5,-246 815.5,-264 996.5,-264 996.5,-246 815.5,-246"/>
<polygon fill="#ffffff" stroke="transparent" points="816.5,-247 816.5,-263 884.5,-263 884.5,-247 816.5,-247"/>
<text text-anchor="start" x="818.5" y="-252.2" font-family="Helvetica,sans-Serif" font-size="11.00">&lt; 4</text>
<polygon fill="#ffffff" stroke="transparent" points="884.5,-247 884.5,-263 940.5,-263 940.5,-247 884.5,-247"/>
<text text-anchor="start" x="908.5" y="-252.2" font-family="Helvetica,sans-Serif" font-size="11.00"> &#160;</text>
<polygon fill="#ffffff" stroke="transparent" points="940.5,-247 940.5,-263 995.5,-263 995.5,-247 940.5,-247"/>
<text text-anchor="start" x="985.5" y="-252.2" font-family="Helvetica,sans-Serif" font-size="11.00"> &#160;</text>
<polygon fill="black" stroke="black" points="884.5,-247 884.5,-263 884.5,-263 884.5,-247 884.5,-247"/>
<polygon fill="black" stroke="black" points="940.5,-247 940.5,-263 940.5,-263 940.5,-247 940.5,-247"/>
</a>
</g>
</g>
<!-- pipe_point_normal&#45;&gt;pipe_point -->
<g id="edge7" class="edge">
<title>pipe_point_normal:w&#45;&gt;pipe_point:e</title>
<path fill="none" stroke="black" d="M803.92,-342.95C776.38,-354.56 792.02,-414 754,-414"/>
<polygon fill="black" stroke="black" points="812.99,-337.21 814.44,-345.08 812.87,-345.37 811.41,-337.5 812.99,-337.21"/>
<polyline fill="none" stroke="black" points="814.5,-341 810.57,-341.73 "/>
<ellipse fill="none" stroke="black" cx="807.42" cy="-342.31" rx="3.2" ry="3.2"/>
</g>
</g>
</svg>
