<?xml version="1.0" encoding="UTF-8" standalone="no"?>
<!DOCTYPE svg PUBLIC "-//W3C//DTD SVG 1.1//EN"
 "http://www.w3.org/Graphics/SVG/1.1/DTD/svg11.dtd">
<!-- Generated by graphviz version 2.47.1 (20210515.0534)
 -->
<!-- Title: oneDegreeRelationshipsDiagram Pages: 1 -->
<svg width="692pt" height="648pt"
 viewBox="0.00 0.00 692.00 648.00" xmlns="http://www.w3.org/2000/svg" xmlns:xlink="http://www.w3.org/1999/xlink">
<g id="graph0" class="graph" transform="scale(1 1) rotate(0) translate(4 644)">
<title>oneDegreeRelationshipsDiagram</title>
<polygon fill="#ffffff" stroke="transparent" points="-4,4 -4,-644 688,-644 688,4 -4,4"/>
<text text-anchor="middle" x="73.5" y="-7.2" font-family="Helvetica,sans-Serif" font-size="11.00">Generated by SchemaSpy</text>
<!-- sia405cc_cable -->
<g id="node1" class="node">
<title>sia405cc_cable</title>
<g id="a_node1"><a xlink:href="../../tables/sia405cc_cable.html" xlink:title="sia405cc_cable" target="_top">
<polygon fill="#ffffff" stroke="transparent" points="380,-141 380,-581 676,-581 676,-141 380,-141"/>
<polygon fill="#f5f5f5" stroke="transparent" points="382,-557 382,-579 674,-579 674,-557 382,-557"/>
<polygon fill="none" stroke="black" points="382,-557 382,-579 674,-579 674,-557 382,-557"/>
<text text-anchor="start" x="387" y="-566.2" font-family="Helvetica,sans-Serif" font-weight="bold" font-size="11.00">sia405cc_cable</text>
<text text-anchor="start" x="635" y="-565.2" font-family="Helvetica,sans-Serif" font-size="11.00">[table]</text>
<polygon fill="none" stroke="black" points="382,-535 382,-557 551,-557 551,-535 382,-535"/>
<image xlink:href="../../images/primaryKeys.png" width="11px" height="12px" preserveAspectRatio="xMinYMin meet" x="387" y="-552"/>
<text text-anchor="start" x="402" y="-543.2" font-family="Helvetica,sans-Serif" font-size="11.00">obj_id</text>
<polygon fill="none" stroke="black" points="551,-535 551,-557 674,-557 674,-535 551,-535"/>
<text text-anchor="start" x="554" y="-543.2" font-family="Helvetica,sans-Serif" font-size="11.00">varchar[16]</text>
<polygon fill="#ffffff" stroke="transparent" points="382,-513 382,-535 551,-535 551,-513 382,-513"/>
<polygon fill="none" stroke="black" points="382,-513 382,-535 551,-535 551,-513 382,-513"/>
<text text-anchor="start" x="402" y="-521.2" font-family="Helvetica,sans-Serif" font-size="11.00">name_number</text>
<polygon fill="none" stroke="black" points="551,-513 551,-535 674,-535 674,-513 551,-513"/>
<text text-anchor="start" x="554" y="-521.2" font-family="Helvetica,sans-Serif" font-size="11.00">text[2147483647]</text>
<polygon fill="none" stroke="black" points="382,-491 382,-513 551,-513 551,-491 382,-491"/>
<image xlink:href="../../images/foreignKeys.png" width="11px" height="12px" preserveAspectRatio="xMinYMin meet" x="387" y="-508"/>
<text text-anchor="start" x="402" y="-499.2" font-family="Helvetica,sans-Serif" font-size="11.00">function</text>
<polygon fill="none" stroke="black" points="551,-491 551,-513 674,-513 674,-491 551,-491"/>
<text text-anchor="start" x="554" y="-499.2" font-family="Helvetica,sans-Serif" font-size="11.00">int4[10]</text>
<polygon fill="none" stroke="black" points="382,-469 382,-491 551,-491 551,-469 382,-469"/>
<image xlink:href="../../images/foreignKeys.png" width="11px" height="12px" preserveAspectRatio="xMinYMin meet" x="387" y="-486"/>
<text text-anchor="start" x="402" y="-477.2" font-family="Helvetica,sans-Serif" font-size="11.00">cable_type</text>
<polygon fill="none" stroke="black" points="551,-469 551,-491 674,-491 674,-469 551,-469"/>
<text text-anchor="start" x="554" y="-477.2" font-family="Helvetica,sans-Serif" font-size="11.00">int4[10]</text>
<polygon fill="none" stroke="black" points="382,-447 382,-469 551,-469 551,-447 382,-447"/>
<image xlink:href="../../images/foreignKeys.png" width="11px" height="12px" preserveAspectRatio="xMinYMin meet" x="387" y="-464"/>
<text text-anchor="start" x="402" y="-455.2" font-family="Helvetica,sans-Serif" font-size="11.00">horizontal_positioning</text>
<polygon fill="none" stroke="black" points="551,-447 551,-469 674,-469 674,-447 551,-447"/>
<text text-anchor="start" x="554" y="-455.2" font-family="Helvetica,sans-Serif" font-size="11.00">int4[10]</text>
<polygon fill="none" stroke="black" points="382,-425 382,-447 551,-447 551,-425 382,-425"/>
<image xlink:href="../../images/foreignKeys.png" width="11px" height="12px" preserveAspectRatio="xMinYMin meet" x="387" y="-442"/>
<text text-anchor="start" x="402" y="-433.2" font-family="Helvetica,sans-Serif" font-size="11.00">status</text>
<polygon fill="none" stroke="black" points="551,-425 551,-447 674,-447 674,-425 551,-425"/>
<text text-anchor="start" x="554" y="-433.2" font-family="Helvetica,sans-Serif" font-size="11.00">int4[10]</text>
<polygon fill="none" stroke="black" points="382,-403 382,-425 551,-425 551,-403 382,-403"/>
<text text-anchor="start" x="402" y="-411.2" font-family="Helvetica,sans-Serif" font-size="11.00">installation_year</text>
<polygon fill="none" stroke="black" points="551,-403 551,-425 674,-425 674,-403 551,-403"/>
<text text-anchor="start" x="554" y="-411.2" font-family="Helvetica,sans-Serif" font-size="11.00">int2[5]</text>
<polygon fill="none" stroke="black" points="382,-381 382,-403 551,-403 551,-381 382,-381"/>
<text text-anchor="start" x="402" y="-389.2" font-family="Helvetica,sans-Serif" font-size="11.00">sur_plus_cover</text>
<polygon fill="none" stroke="black" points="551,-381 551,-403 674,-403 674,-381 551,-381"/>
<text text-anchor="start" x="554" y="-389.2" font-family="Helvetica,sans-Serif" font-size="11.00">numeric[4,1]</text>
<polygon fill="none" stroke="black" points="382,-359 382,-381 551,-381 551,-359 382,-359"/>
<text text-anchor="start" x="402" y="-367.2" font-family="Helvetica,sans-Serif" font-size="11.00">condition</text>
<polygon fill="none" stroke="black" points="551,-359 551,-381 674,-381 674,-359 551,-359"/>
<text text-anchor="start" x="554" y="-367.2" font-family="Helvetica,sans-Serif" font-size="11.00">text[2147483647]</text>
<polygon fill="none" stroke="black" points="382,-337 382,-359 551,-359 551,-337 382,-337"/>
<text text-anchor="start" x="402" y="-345.2" font-family="Helvetica,sans-Serif" font-size="11.00">remark</text>
<polygon fill="none" stroke="black" points="551,-337 551,-359 674,-359 674,-337 551,-337"/>
<text text-anchor="start" x="554" y="-345.2" font-family="Helvetica,sans-Serif" font-size="11.00">text[2147483647]</text>
<polygon fill="none" stroke="black" points="382,-315 382,-337 551,-337 551,-315 382,-315"/>
<text text-anchor="start" x="402" y="-323.2" font-family="Helvetica,sans-Serif" font-size="11.00">width</text>
<polygon fill="none" stroke="black" points="551,-315 551,-337 674,-337 674,-315 551,-315"/>
<text text-anchor="start" x="554" y="-323.2" font-family="Helvetica,sans-Serif" font-size="11.00">int2[5]</text>
<polygon fill="#ffffff" stroke="transparent" points="382,-293 382,-315 551,-315 551,-293 382,-293"/>
<polygon fill="none" stroke="black" points="382,-293 382,-315 551,-315 551,-293 382,-293"/>
<text text-anchor="start" x="402" y="-301.2" font-family="Helvetica,sans-Serif" font-size="11.00">geometry3d_geometry</text>
<polygon fill="none" stroke="black" points="551,-293 551,-315 674,-315 674,-293 551,-293"/>
<text text-anchor="start" x="554" y="-301.2" font-family="Helvetica,sans-Serif" font-size="11.00">geometry[2147483647]</text>
<polygon fill="none" stroke="black" points="382,-271 382,-293 551,-293 551,-271 382,-271"/>
<image xlink:href="../../images/foreignKeys.png" width="11px" height="12px" preserveAspectRatio="xMinYMin meet" x="387" y="-288"/>
<text text-anchor="start" x="402" y="-279.2" font-family="Helvetica,sans-Serif" font-size="11.00">elevation_determination</text>
<polygon fill="none" stroke="black" points="551,-271 551,-293 674,-293 674,-271 551,-271"/>
<text text-anchor="start" x="554" y="-279.2" font-family="Helvetica,sans-Serif" font-size="11.00">int4[10]</text>
<polygon fill="none" stroke="black" points="382,-249 382,-271 551,-271 551,-249 382,-249"/>
<text text-anchor="start" x="402" y="-257.2" font-family="Helvetica,sans-Serif" font-size="11.00">depth</text>
<polygon fill="none" stroke="black" points="551,-249 551,-271 674,-271 674,-249 551,-249"/>
<text text-anchor="start" x="554" y="-257.2" font-family="Helvetica,sans-Serif" font-size="11.00">int2[5]</text>
<polygon fill="none" stroke="black" points="382,-227 382,-249 551,-249 551,-227 382,-227"/>
<text text-anchor="start" x="402" y="-235.2" font-family="Helvetica,sans-Serif" font-size="11.00">last_modification</text>
<polygon fill="none" stroke="black" points="551,-227 551,-249 674,-249 674,-227 551,-227"/>
<text text-anchor="start" x="554" y="-235.2" font-family="Helvetica,sans-Serif" font-size="11.00">timestamp[29,6]</text>
<polygon fill="#ffffff" stroke="transparent" points="382,-205 382,-227 551,-227 551,-205 382,-205"/>
<polygon fill="none" stroke="black" points="382,-205 382,-227 551,-227 551,-205 382,-205"/>
<image xlink:href="../../images/foreignKeys.png" width="11px" height="12px" preserveAspectRatio="xMinYMin meet" x="387" y="-222"/>
<text text-anchor="start" x="402" y="-213.2" font-family="Helvetica,sans-Serif" font-size="11.00">fk_dataowner</text>
<polygon fill="none" stroke="black" points="551,-205 551,-227 674,-227 674,-205 551,-205"/>
<text text-anchor="start" x="554" y="-213.2" font-family="Helvetica,sans-Serif" font-size="11.00">varchar[16]</text>
<polygon fill="none" stroke="black" points="382,-183 382,-205 551,-205 551,-183 382,-183"/>
<image xlink:href="../../images/foreignKeys.png" width="11px" height="12px" preserveAspectRatio="xMinYMin meet" x="387" y="-200"/>
<text text-anchor="start" x="402" y="-191.2" font-family="Helvetica,sans-Serif" font-size="11.00">fk_provider</text>
<polygon fill="none" stroke="black" points="551,-183 551,-205 674,-205 674,-183 551,-183"/>
<text text-anchor="start" x="554" y="-191.2" font-family="Helvetica,sans-Serif" font-size="11.00">varchar[16]</text>
<polygon fill="none" stroke="black" points="382,-161 382,-183 551,-183 551,-161 382,-161"/>
<image xlink:href="../../images/foreignKeys.png" width="11px" height="12px" preserveAspectRatio="xMinYMin meet" x="387" y="-178"/>
<text text-anchor="start" x="402" y="-169.2" font-family="Helvetica,sans-Serif" font-size="11.00">fk_owner</text>
<polygon fill="none" stroke="black" points="551,-161 551,-183 674,-183 674,-161 551,-161"/>
<text text-anchor="start" x="554" y="-169.2" font-family="Helvetica,sans-Serif" font-size="11.00">varchar[16]</text>
<polygon fill="#ffffff" stroke="transparent" points="382,-143 382,-161 471,-161 471,-143 382,-143"/>
<polygon fill="none" stroke="black" points="382,-143 382,-161 471,-161 471,-143 382,-143"/>
<text text-anchor="start" x="385" y="-149.2" font-family="Helvetica,sans-Serif" font-size="11.00">&lt; 8</text>
<polygon fill="#ffffff" stroke="transparent" points="471,-143 471,-161 551,-161 551,-143 471,-143"/>
<polygon fill="none" stroke="black" points="471,-143 471,-161 551,-161 551,-143 471,-143"/>
<text text-anchor="start" x="541" y="-149.2" font-family="Helvetica,sans-Serif" font-size="11.00"> &#160;</text>
<polygon fill="#ffffff" stroke="transparent" points="551,-143 551,-161 674,-161 674,-143 551,-143"/>
<polygon fill="none" stroke="black" points="551,-143 551,-161 674,-161 674,-143 551,-143"/>
<text text-anchor="start" x="655" y="-149.2" font-family="Helvetica,sans-Serif" font-size="11.00">0 &gt;</text>
<polygon fill="none" stroke="black" stroke-width="2" points="381,-142 381,-580 675,-580 675,-142 381,-142"/>
</a>
</g>
</g>
<!-- tdh_vl.sia405cc_cable_cable_type -->
<g id="node2" class="node">
<title>tdh_vl.sia405cc_cable_cable_type</title>
<g id="a_node2"><a xlink:href="../../../tdh_vl/tables/sia405cc_cable_cable_type.html" xlink:title="tdh_vl.sia405cc_cable_cable_type" target="_top">
<polygon fill="#ffffff" stroke="transparent" points="50.5,-499 50.5,-557 288.5,-557 288.5,-499 50.5,-499"/>
<polygon fill="#f5f5f5" stroke="transparent" points="50.5,-535 50.5,-557 288.5,-557 288.5,-535 50.5,-535"/>
<polygon fill="none" stroke="black" points="50.5,-535 50.5,-557 288.5,-557 288.5,-535 50.5,-535"/>
<text text-anchor="start" x="55.5" y="-544.2" font-family="Helvetica,sans-Serif" font-weight="bold" font-size="11.00">tdh_vl.sia405cc_cable_cable_type</text>
<text text-anchor="start" x="249.5" y="-543.2" font-family="Helvetica,sans-Serif" font-size="11.00">[table]</text>
<polygon fill="none" stroke="black" points="50.5,-517 50.5,-535 288.5,-535 288.5,-517 50.5,-517"/>
<text text-anchor="start" x="53.5" y="-523.2" font-family="Helvetica,sans-Serif" font-size="11.00">...</text>
<polygon fill="#ffffff" stroke="transparent" points="50.5,-499 50.5,-517 144.5,-517 144.5,-499 50.5,-499"/>
<polygon fill="none" stroke="black" points="50.5,-499 50.5,-517 144.5,-517 144.5,-499 50.5,-499"/>
<text text-anchor="start" x="53.5" y="-505.2" font-family="Helvetica,sans-Serif" font-size="11.00"> &#160;</text>
<polygon fill="#ffffff" stroke="transparent" points="144.5,-499 144.5,-517 225.5,-517 225.5,-499 144.5,-499"/>
<polygon fill="none" stroke="black" points="144.5,-499 144.5,-517 225.5,-517 225.5,-499 144.5,-499"/>
<text text-anchor="start" x="188.5" y="-505.2" font-family="Helvetica,sans-Serif" font-size="11.00">0 rows</text>
<polygon fill="#ffffff" stroke="transparent" points="225.5,-499 225.5,-517 288.5,-517 288.5,-499 225.5,-499"/>
<polygon fill="none" stroke="black" points="225.5,-499 225.5,-517 288.5,-517 288.5,-499 225.5,-499"/>
<text text-anchor="start" x="269.5" y="-505.2" font-family="Helvetica,sans-Serif" font-size="11.00">1 &gt;</text>
</a>
</g>
</g>
<!-- sia405cc_cable&#45;&gt;tdh_vl.sia405cc_cable_cable_type -->
<g id="edge1" class="edge">
<title>sia405cc_cable:w&#45;&gt;tdh_vl.sia405cc_cable_cable_type:e</title>
<path fill="none" stroke="black" d="M366.78,-483.02C351.31,-486.46 324.98,-492.46 296.55,-498.97"/>
<polygon fill="black" stroke="black" points="373.17,-481.66 381.75,-483.52 377.09,-480.83 381,-480 381,-480 381,-480 377.09,-480.83 380.25,-476.48 373.17,-481.66 373.17,-481.66"/>
<ellipse fill="none" stroke="black" cx="370.04" cy="-482.33" rx="3.2" ry="3.2"/>
</g>
<!-- tdh_vl.sia405cc_cable_elevation_determination -->
<g id="node3" class="node">
<title>tdh_vl.sia405cc_cable_elevation_determination</title>
<g id="a_node3"><a xlink:href="../../../tdh_vl/tables/sia405cc_cable_elevation_determination.html" xlink:title="tdh_vl.sia405cc_cable_elevation_determination" target="_top">
<polygon fill="#ffffff" stroke="transparent" points="8,-253 8,-311 331,-311 331,-253 8,-253"/>
<polygon fill="#f5f5f5" stroke="transparent" points="8.5,-289 8.5,-311 331.5,-311 331.5,-289 8.5,-289"/>
<polygon fill="none" stroke="black" points="8.5,-289 8.5,-311 331.5,-311 331.5,-289 8.5,-289"/>
<text text-anchor="start" x="13.5" y="-298.2" font-family="Helvetica,sans-Serif" font-weight="bold" font-size="11.00">tdh_vl.sia405cc_cable_elevation_determination</text>
<text text-anchor="start" x="292.5" y="-297.2" font-family="Helvetica,sans-Serif" font-size="11.00">[table]</text>
<polygon fill="none" stroke="black" points="8.5,-271 8.5,-289 331.5,-289 331.5,-271 8.5,-271"/>
<text text-anchor="start" x="11.5" y="-277.2" font-family="Helvetica,sans-Serif" font-size="11.00">...</text>
<polygon fill="#ffffff" stroke="transparent" points="8.5,-253 8.5,-271 145.5,-271 145.5,-253 8.5,-253"/>
<polygon fill="none" stroke="black" points="8.5,-253 8.5,-271 145.5,-271 145.5,-253 8.5,-253"/>
<text text-anchor="start" x="11.5" y="-259.2" font-family="Helvetica,sans-Serif" font-size="11.00"> &#160;</text>
<polygon fill="#ffffff" stroke="transparent" points="145.5,-253 145.5,-271 247.5,-271 247.5,-253 145.5,-253"/>
<polygon fill="none" stroke="black" points="145.5,-253 145.5,-271 247.5,-271 247.5,-253 145.5,-253"/>
<text text-anchor="start" x="210.5" y="-259.2" font-family="Helvetica,sans-Serif" font-size="11.00">0 rows</text>
<polygon fill="#ffffff" stroke="transparent" points="247.5,-253 247.5,-271 331.5,-271 331.5,-253 247.5,-253"/>
<polygon fill="none" stroke="black" points="247.5,-253 247.5,-271 331.5,-271 331.5,-253 247.5,-253"/>
<text text-anchor="start" x="312.5" y="-259.2" font-family="Helvetica,sans-Serif" font-size="11.00">1 &gt;</text>
</a>
</g>
</g>
<!-- sia405cc_cable&#45;&gt;tdh_vl.sia405cc_cable_elevation_determination -->
<g id="edge2" class="edge">
<title>sia405cc_cable:w&#45;&gt;tdh_vl.sia405cc_cable_elevation_determination:e</title>
<path fill="none" stroke="black" d="M366.48,-282C357.46,-282 348.3,-282 339.11,-282"/>
<polygon fill="black" stroke="black" points="373,-282 381,-285.6 377,-282 381,-282 381,-282 381,-282 377,-282 381,-278.4 373,-282 373,-282"/>
<ellipse fill="none" stroke="black" cx="369.8" cy="-282" rx="3.2" ry="3.2"/>
</g>
<!-- organisation -->
<g id="node4" class="node">
<title>organisation</title>
<g id="a_node4"><a xlink:href="../../tables/organisation.html" xlink:title="organisation" target="_top">
<polygon fill="#ffffff" stroke="transparent" points="95.5,-37 95.5,-227 243.5,-227 243.5,-37 95.5,-37"/>
<polygon fill="#f5f5f5" stroke="transparent" points="95.5,-205 95.5,-227 243.5,-227 243.5,-205 95.5,-205"/>
<polygon fill="none" stroke="black" points="95.5,-205 95.5,-227 243.5,-227 243.5,-205 95.5,-205"/>
<text text-anchor="start" x="100.5" y="-214.2" font-family="Helvetica,sans-Serif" font-weight="bold" font-size="11.00">organisation</text>
<text text-anchor="start" x="204.5" y="-213.2" font-family="Helvetica,sans-Serif" font-size="11.00">[table]</text>
<polygon fill="none" stroke="black" points="95.5,-183 95.5,-205 243.5,-205 243.5,-183 95.5,-183"/>
<image xlink:href="../../images/primaryKeys.png" width="11px" height="12px" preserveAspectRatio="xMinYMin meet" x="100.5" y="-200"/>
<text text-anchor="start" x="115.5" y="-191.2" font-family="Helvetica,sans-Serif" font-size="11.00">obj_id</text>
<polygon fill="#ffffff" stroke="transparent" points="95.5,-161 95.5,-183 243.5,-183 243.5,-161 95.5,-161"/>
<polygon fill="none" stroke="black" points="95.5,-161 95.5,-183 243.5,-183 243.5,-161 95.5,-161"/>
<text text-anchor="start" x="115.5" y="-169.2" font-family="Helvetica,sans-Serif" font-size="11.00">identifier</text>
<polygon fill="none" stroke="black" points="95.5,-139 95.5,-161 243.5,-161 243.5,-139 95.5,-139"/>
<image xlink:href="../../images/foreignKeys.png" width="11px" height="12px" preserveAspectRatio="xMinYMin meet" x="100.5" y="-156"/>
<text text-anchor="start" x="115.5" y="-147.2" font-family="Helvetica,sans-Serif" font-size="11.00">organisation_type</text>
<polygon fill="none" stroke="black" points="95.5,-117 95.5,-139 243.5,-139 243.5,-117 95.5,-117"/>
<image xlink:href="../../images/foreignKeys.png" width="11px" height="12px" preserveAspectRatio="xMinYMin meet" x="100.5" y="-134"/>
<text text-anchor="start" x="115.5" y="-125.2" font-family="Helvetica,sans-Serif" font-size="11.00">status</text>
<polygon fill="#ffffff" stroke="transparent" points="95.5,-95 95.5,-117 243.5,-117 243.5,-95 95.5,-95"/>
<polygon fill="none" stroke="black" points="95.5,-95 95.5,-117 243.5,-117 243.5,-95 95.5,-95"/>
<image xlink:href="../../images/foreignKeys.png" width="11px" height="12px" preserveAspectRatio="xMinYMin meet" x="100.5" y="-112"/>
<text text-anchor="start" x="115.5" y="-103.2" font-family="Helvetica,sans-Serif" font-size="11.00">fk_dataowner</text>
<polygon fill="none" stroke="black" points="95.5,-73 95.5,-95 243.5,-95 243.5,-73 95.5,-73"/>
<image xlink:href="../../images/foreignKeys.png" width="11px" height="12px" preserveAspectRatio="xMinYMin meet" x="100.5" y="-90"/>
<text text-anchor="start" x="115.5" y="-81.2" font-family="Helvetica,sans-Serif" font-size="11.00">fk_provider</text>
<polygon fill="none" stroke="black" points="95.5,-55 95.5,-73 243.5,-73 243.5,-55 95.5,-55"/>
<text text-anchor="start" x="98.5" y="-61.2" font-family="Helvetica,sans-Serif" font-size="11.00">...</text>
<polygon fill="#ffffff" stroke="transparent" points="95.5,-37 95.5,-55 159.5,-55 159.5,-37 95.5,-37"/>
<polygon fill="none" stroke="black" points="95.5,-37 95.5,-55 159.5,-55 159.5,-37 95.5,-37"/>
<text text-anchor="start" x="98.5" y="-43.2" font-family="Helvetica,sans-Serif" font-size="11.00">&lt; 4</text>
<polygon fill="#ffffff" stroke="transparent" points="159.5,-37 159.5,-55 193.5,-55 193.5,-37 159.5,-37"/>
<polygon fill="none" stroke="black" points="159.5,-37 159.5,-55 193.5,-55 193.5,-37 159.5,-37"/>
<text text-anchor="start" x="183.5" y="-43.2" font-family="Helvetica,sans-Serif" font-size="11.00"> &#160;</text>
<polygon fill="#ffffff" stroke="transparent" points="193.5,-37 193.5,-55 243.5,-55 243.5,-37 193.5,-37"/>
<polygon fill="none" stroke="black" points="193.5,-37 193.5,-55 243.5,-55 243.5,-37 193.5,-37"/>
<text text-anchor="start" x="218.5" y="-43.2" font-family="Helvetica,sans-Serif" font-size="11.00">33 &gt;</text>
</a>
</g>
</g>
<!-- sia405cc_cable&#45;&gt;organisation -->
<g id="edge3" class="edge">
<title>sia405cc_cable:w&#45;&gt;organisation:e</title>
<path fill="none" stroke="black" d="M366.47,-215.56C316.93,-212.46 300.79,-194 244.5,-194"/>
<polygon fill="black" stroke="black" points="373,-215.76 380.89,-219.6 377,-215.88 381,-216 381,-216 381,-216 377,-215.88 381.11,-212.4 373,-215.76 373,-215.76"/>
<ellipse fill="none" stroke="black" cx="369.81" cy="-215.66" rx="3.2" ry="3.2"/>
</g>
<!-- sia405cc_cable&#45;&gt;organisation -->
<g id="edge4" class="edge">
<title>sia405cc_cable:w&#45;&gt;organisation:e</title>
<path fill="none" stroke="black" d="M366.47,-172.44C316.93,-175.54 300.79,-194 244.5,-194"/>
<polygon fill="black" stroke="black" points="373,-172.24 381.11,-175.6 377,-172.12 381,-172 381,-172 381,-172 377,-172.12 380.89,-168.4 373,-172.24 373,-172.24"/>
<ellipse fill="none" stroke="black" cx="369.81" cy="-172.34" rx="3.2" ry="3.2"/>
</g>
<!-- sia405cc_cable&#45;&gt;organisation -->
<g id="edge5" class="edge">
<title>sia405cc_cable:w&#45;&gt;organisation:e</title>
<path fill="none" stroke="black" d="M366.31,-194C317.39,-194 299.95,-194 244.5,-194"/>
<polygon fill="black" stroke="black" points="373,-194 381,-197.6 377,-194 381,-194 381,-194 381,-194 377,-194 381,-190.4 373,-194 373,-194"/>
<ellipse fill="none" stroke="black" cx="369.8" cy="-194" rx="3.2" ry="3.2"/>
</g>
<!-- tdh_vl.sia405cc_cable_function -->
<g id="node5" class="node">
<title>tdh_vl.sia405cc_cable_function</title>
<g id="a_node5"><a xlink:href="../../../tdh_vl/tables/sia405cc_cable_function.html" xlink:title="tdh_vl.sia405cc_cable_function" target="_top">
<polygon fill="#ffffff" stroke="transparent" points="57,-578 57,-636 282,-636 282,-578 57,-578"/>
<polygon fill="#f5f5f5" stroke="transparent" points="57.5,-614 57.5,-636 282.5,-636 282.5,-614 57.5,-614"/>
<polygon fill="none" stroke="black" points="57.5,-614 57.5,-636 282.5,-636 282.5,-614 57.5,-614"/>
<text text-anchor="start" x="62.5" y="-623.2" font-family="Helvetica,sans-Serif" font-weight="bold" font-size="11.00">tdh_vl.sia405cc_cable_function</text>
<text text-anchor="start" x="243.5" y="-622.2" font-family="Helvetica,sans-Serif" font-size="11.00">[table]</text>
<polygon fill="none" stroke="black" points="57.5,-596 57.5,-614 282.5,-614 282.5,-596 57.5,-596"/>
<text text-anchor="start" x="60.5" y="-602.2" font-family="Helvetica,sans-Serif" font-size="11.00">...</text>
<polygon fill="#ffffff" stroke="transparent" points="57.5,-578 57.5,-596 145.5,-596 145.5,-578 57.5,-578"/>
<polygon fill="none" stroke="black" points="57.5,-578 57.5,-596 145.5,-596 145.5,-578 57.5,-578"/>
<text text-anchor="start" x="60.5" y="-584.2" font-family="Helvetica,sans-Serif" font-size="11.00"> &#160;</text>
<polygon fill="#ffffff" stroke="transparent" points="145.5,-578 145.5,-596 222.5,-596 222.5,-578 145.5,-578"/>
<polygon fill="none" stroke="black" points="145.5,-578 145.5,-596 222.5,-596 222.5,-578 145.5,-578"/>
<text text-anchor="start" x="185.5" y="-584.2" font-family="Helvetica,sans-Serif" font-size="11.00">0 rows</text>
<polygon fill="#ffffff" stroke="transparent" points="222.5,-578 222.5,-596 282.5,-596 282.5,-578 222.5,-578"/>
<polygon fill="none" stroke="black" points="222.5,-578 222.5,-596 282.5,-596 282.5,-578 222.5,-578"/>
<text text-anchor="start" x="263.5" y="-584.2" font-family="Helvetica,sans-Serif" font-size="11.00">1 &gt;</text>
</a>
</g>
</g>
<!-- sia405cc_cable&#45;&gt;tdh_vl.sia405cc_cable_function -->
<g id="edge6" class="edge">
<title>sia405cc_cable:w&#45;&gt;tdh_vl.sia405cc_cable_function:e</title>
<path fill="none" stroke="black" d="M367.06,-506.03C352.23,-517.67 362.28,-551.53 339,-568 324.42,-578.32 307.51,-585.95 290.15,-591.58"/>
<polygon fill="black" stroke="black" points="373.32,-504.22 382,-505.46 377.16,-503.11 381,-502 381,-502 381,-502 377.16,-503.11 380,-498.54 373.32,-504.22 373.32,-504.22"/>
<ellipse fill="none" stroke="black" cx="370.24" cy="-505.11" rx="3.2" ry="3.2"/>
</g>
<!-- tdh_vl.sia405cc_cable_horizontal_positioning -->
<g id="node6" class="node">
<title>tdh_vl.sia405cc_cable_horizontal_positioning</title>
<g id="a_node6"><a xlink:href="../../../tdh_vl/tables/sia405cc_cable_horizontal_positioning.html" xlink:title="tdh_vl.sia405cc_cable_horizontal_positioning" target="_top">
<polygon fill="#ffffff" stroke="transparent" points="15.5,-420 15.5,-478 323.5,-478 323.5,-420 15.5,-420"/>
<polygon fill="#f5f5f5" stroke="transparent" points="15.5,-456 15.5,-478 323.5,-478 323.5,-456 15.5,-456"/>
<polygon fill="none" stroke="black" points="15.5,-456 15.5,-478 323.5,-478 323.5,-456 15.5,-456"/>
<text text-anchor="start" x="20.5" y="-465.2" font-family="Helvetica,sans-Serif" font-weight="bold" font-size="11.00">tdh_vl.sia405cc_cable_horizontal_positioning</text>
<text text-anchor="start" x="284.5" y="-464.2" font-family="Helvetica,sans-Serif" font-size="11.00">[table]</text>
<polygon fill="none" stroke="black" points="15.5,-438 15.5,-456 323.5,-456 323.5,-438 15.5,-438"/>
<text text-anchor="start" x="18.5" y="-444.2" font-family="Helvetica,sans-Serif" font-size="11.00">...</text>
<polygon fill="#ffffff" stroke="transparent" points="15.5,-420 15.5,-438 144.5,-438 144.5,-420 15.5,-420"/>
<polygon fill="none" stroke="black" points="15.5,-420 15.5,-438 144.5,-438 144.5,-420 15.5,-420"/>
<text text-anchor="start" x="18.5" y="-426.2" font-family="Helvetica,sans-Serif" font-size="11.00"> &#160;</text>
<polygon fill="#ffffff" stroke="transparent" points="144.5,-420 144.5,-438 242.5,-438 242.5,-420 144.5,-420"/>
<polygon fill="none" stroke="black" points="144.5,-420 144.5,-438 242.5,-438 242.5,-420 144.5,-420"/>
<text text-anchor="start" x="205.5" y="-426.2" font-family="Helvetica,sans-Serif" font-size="11.00">0 rows</text>
<polygon fill="#ffffff" stroke="transparent" points="242.5,-420 242.5,-438 323.5,-438 323.5,-420 242.5,-420"/>
<polygon fill="none" stroke="black" points="242.5,-420 242.5,-438 323.5,-438 323.5,-420 242.5,-420"/>
<text text-anchor="start" x="304.5" y="-426.2" font-family="Helvetica,sans-Serif" font-size="11.00">1 &gt;</text>
</a>
</g>
</g>
<!-- sia405cc_cable&#45;&gt;tdh_vl.sia405cc_cable_horizontal_positioning -->
<g id="edge7" class="edge">
<title>sia405cc_cable:w&#45;&gt;tdh_vl.sia405cc_cable_horizontal_positioning:e</title>
<path fill="none" stroke="black" d="M366.59,-457.93C355.09,-457.83 343.37,-457.61 331.66,-457.3"/>
<polygon fill="black" stroke="black" points="373,-457.96 380.98,-461.6 377,-457.98 381,-458 381,-458 381,-458 377,-457.98 381.02,-454.4 373,-457.96 373,-457.96"/>
<ellipse fill="none" stroke="black" cx="369.8" cy="-457.95" rx="3.2" ry="3.2"/>
</g>
<!-- tdh_vl.sia405cc_cable_status -->
<g id="node7" class="node">
<title>tdh_vl.sia405cc_cable_status</title>
<g id="a_node7"><a xlink:href="../../../tdh_vl/tables/sia405cc_cable_status.html" xlink:title="tdh_vl.sia405cc_cable_status" target="_top">
<polygon fill="#ffffff" stroke="transparent" points="63.5,-341 63.5,-399 275.5,-399 275.5,-341 63.5,-341"/>
<polygon fill="#f5f5f5" stroke="transparent" points="63.5,-377 63.5,-399 275.5,-399 275.5,-377 63.5,-377"/>
<polygon fill="none" stroke="black" points="63.5,-377 63.5,-399 275.5,-399 275.5,-377 63.5,-377"/>
<text text-anchor="start" x="68.5" y="-386.2" font-family="Helvetica,sans-Serif" font-weight="bold" font-size="11.00">tdh_vl.sia405cc_cable_status</text>
<text text-anchor="start" x="236.5" y="-385.2" font-family="Helvetica,sans-Serif" font-size="11.00">[table]</text>
<polygon fill="none" stroke="black" points="63.5,-359 63.5,-377 275.5,-377 275.5,-359 63.5,-359"/>
<text text-anchor="start" x="66.5" y="-365.2" font-family="Helvetica,sans-Serif" font-size="11.00">...</text>
<polygon fill="#ffffff" stroke="transparent" points="63.5,-341 63.5,-359 144.5,-359 144.5,-341 63.5,-341"/>
<polygon fill="none" stroke="black" points="63.5,-341 63.5,-359 144.5,-359 144.5,-341 63.5,-341"/>
<text text-anchor="start" x="66.5" y="-347.2" font-family="Helvetica,sans-Serif" font-size="11.00"> &#160;</text>
<polygon fill="#ffffff" stroke="transparent" points="144.5,-341 144.5,-359 218.5,-359 218.5,-341 144.5,-341"/>
<polygon fill="none" stroke="black" points="144.5,-341 144.5,-359 218.5,-359 218.5,-341 144.5,-341"/>
<text text-anchor="start" x="181.5" y="-347.2" font-family="Helvetica,sans-Serif" font-size="11.00">0 rows</text>
<polygon fill="#ffffff" stroke="transparent" points="218.5,-341 218.5,-359 275.5,-359 275.5,-341 218.5,-341"/>
<polygon fill="none" stroke="black" points="218.5,-341 218.5,-359 275.5,-359 275.5,-341 218.5,-341"/>
<text text-anchor="start" x="256.5" y="-347.2" font-family="Helvetica,sans-Serif" font-size="11.00">1 &gt;</text>
</a>
</g>
</g>
<!-- sia405cc_cable&#45;&gt;tdh_vl.sia405cc_cable_status -->
<g id="edge8" class="edge">
<title>sia405cc_cable:w&#45;&gt;tdh_vl.sia405cc_cable_status:e</title>
<path fill="none" stroke="black" d="M366.79,-432.42C357.55,-426.84 353.57,-416.05 339,-410 321.51,-402.73 302.42,-396.62 283.58,-391.54"/>
<polygon fill="black" stroke="black" points="373.24,-434.05 380.12,-439.49 377.12,-435.02 381,-436 381,-436 381,-436 377.12,-435.02 381.88,-432.51 373.24,-434.05 373.24,-434.05"/>
<ellipse fill="none" stroke="black" cx="370.14" cy="-433.27" rx="3.2" ry="3.2"/>
</g>
</g>
</svg>
