<?xml version="1.0" encoding="UTF-8" standalone="no"?>
<!DOCTYPE svg PUBLIC "-//W3C//DTD SVG 1.1//EN"
 "http://www.w3.org/Graphics/SVG/1.1/DTD/svg11.dtd">
<!-- Generated by graphviz version 2.43.0 (0)
 -->
<!-- Title: oneDegreeRelationshipsDiagram Pages: 1 -->
<svg width="803pt" height="648pt"
 viewBox="0.00 0.00 803.00 648.00" xmlns="http://www.w3.org/2000/svg" xmlns:xlink="http://www.w3.org/1999/xlink">
<g id="graph0" class="graph" transform="scale(1 1) rotate(0) translate(4 644)">
<title>oneDegreeRelationshipsDiagram</title>
<polygon fill="#ffffff" stroke="transparent" points="-4,4 -4,-644 799,-644 799,4 -4,4"/>
<text text-anchor="middle" x="79.5" y="-7.2" font-family="Helvetica,sans-Serif" font-size="11.00">Generated by SchemaSpy</text>
<!-- sia405cc_cable -->
<g id="node1" class="node">
<title>sia405cc_cable</title>
<g id="a_node1"><a xlink:href="../../tables/sia405cc_cable.html" xlink:title="sia405cc_cable" target="_top">
<polygon fill="#ffffff" stroke="transparent" points="447,-141 447,-581 787,-581 787,-141 447,-141"/>
<polygon fill="#f5f5f5" stroke="transparent" points="449,-557 449,-579 785,-579 785,-557 449,-557"/>
<polygon fill="none" stroke="black" points="449,-557 449,-579 785,-579 785,-557 449,-557"/>
<text text-anchor="start" x="454" y="-566.2" font-family="Helvetica,sans-Serif" font-weight="bold" font-size="11.00">sia405cc_cable</text>
<text text-anchor="start" x="743" y="-565.2" font-family="Helvetica,sans-Serif" font-size="11.00">[table]</text>
<polygon fill="none" stroke="black" points="449,-535 449,-557 649,-557 649,-535 449,-535"/>
<image xlink:href="../../images/primaryKeys.png" width="11px" height="12px" preserveAspectRatio="xMinYMin meet" x="454" y="-552"/>
<text text-anchor="start" x="469" y="-543.2" font-family="Helvetica,sans-Serif" font-size="11.00">obj_id</text>
<polygon fill="none" stroke="black" points="649,-535 649,-557 785,-557 785,-535 649,-535"/>
<text text-anchor="start" x="652" y="-543.2" font-family="Helvetica,sans-Serif" font-size="11.00">varchar[16]</text>
<polygon fill="#ffffff" stroke="transparent" points="449,-513 449,-535 649,-535 649,-513 449,-513"/>
<polygon fill="none" stroke="black" points="449,-513 449,-535 649,-535 649,-513 449,-513"/>
<text text-anchor="start" x="469" y="-521.2" font-family="Helvetica,sans-Serif" font-size="11.00">name_number</text>
<polygon fill="none" stroke="black" points="649,-513 649,-535 785,-535 785,-513 649,-513"/>
<text text-anchor="start" x="652" y="-521.2" font-family="Helvetica,sans-Serif" font-size="11.00">text[2147483647]</text>
<polygon fill="none" stroke="black" points="449,-491 449,-513 649,-513 649,-491 449,-491"/>
<image xlink:href="../../images/foreignKeys.png" width="11px" height="12px" preserveAspectRatio="xMinYMin meet" x="454" y="-508"/>
<text text-anchor="start" x="469" y="-499.2" font-family="Helvetica,sans-Serif" font-size="11.00">function</text>
<polygon fill="none" stroke="black" points="649,-491 649,-513 785,-513 785,-491 649,-491"/>
<text text-anchor="start" x="652" y="-499.2" font-family="Helvetica,sans-Serif" font-size="11.00">int4[10]</text>
<polygon fill="none" stroke="black" points="449,-469 449,-491 649,-491 649,-469 449,-469"/>
<image xlink:href="../../images/foreignKeys.png" width="11px" height="12px" preserveAspectRatio="xMinYMin meet" x="454" y="-486"/>
<text text-anchor="start" x="469" y="-477.2" font-family="Helvetica,sans-Serif" font-size="11.00">cable_type</text>
<polygon fill="none" stroke="black" points="649,-469 649,-491 785,-491 785,-469 649,-469"/>
<text text-anchor="start" x="652" y="-477.2" font-family="Helvetica,sans-Serif" font-size="11.00">int4[10]</text>
<polygon fill="none" stroke="black" points="449,-447 449,-469 649,-469 649,-447 449,-447"/>
<image xlink:href="../../images/foreignKeys.png" width="11px" height="12px" preserveAspectRatio="xMinYMin meet" x="454" y="-464"/>
<text text-anchor="start" x="469" y="-455.2" font-family="Helvetica,sans-Serif" font-size="11.00">horizontal_positioning</text>
<polygon fill="none" stroke="black" points="649,-447 649,-469 785,-469 785,-447 649,-447"/>
<text text-anchor="start" x="652" y="-455.2" font-family="Helvetica,sans-Serif" font-size="11.00">int4[10]</text>
<polygon fill="none" stroke="black" points="449,-425 449,-447 649,-447 649,-425 449,-425"/>
<image xlink:href="../../images/foreignKeys.png" width="11px" height="12px" preserveAspectRatio="xMinYMin meet" x="454" y="-442"/>
<text text-anchor="start" x="469" y="-433.2" font-family="Helvetica,sans-Serif" font-size="11.00">status</text>
<polygon fill="none" stroke="black" points="649,-425 649,-447 785,-447 785,-425 649,-425"/>
<text text-anchor="start" x="652" y="-433.2" font-family="Helvetica,sans-Serif" font-size="11.00">int4[10]</text>
<polygon fill="none" stroke="black" points="449,-403 449,-425 649,-425 649,-403 449,-403"/>
<text text-anchor="start" x="469" y="-411.2" font-family="Helvetica,sans-Serif" font-size="11.00">installation_year</text>
<polygon fill="none" stroke="black" points="649,-403 649,-425 785,-425 785,-403 649,-403"/>
<text text-anchor="start" x="652" y="-411.2" font-family="Helvetica,sans-Serif" font-size="11.00">int2[5]</text>
<polygon fill="none" stroke="black" points="449,-381 449,-403 649,-403 649,-381 449,-381"/>
<text text-anchor="start" x="469" y="-389.2" font-family="Helvetica,sans-Serif" font-size="11.00">sur_plus_cover</text>
<polygon fill="none" stroke="black" points="649,-381 649,-403 785,-403 785,-381 649,-381"/>
<text text-anchor="start" x="652" y="-389.2" font-family="Helvetica,sans-Serif" font-size="11.00">numeric[4,1]</text>
<polygon fill="none" stroke="black" points="449,-359 449,-381 649,-381 649,-359 449,-359"/>
<text text-anchor="start" x="469" y="-367.2" font-family="Helvetica,sans-Serif" font-size="11.00">condition</text>
<polygon fill="none" stroke="black" points="649,-359 649,-381 785,-381 785,-359 649,-359"/>
<text text-anchor="start" x="652" y="-367.2" font-family="Helvetica,sans-Serif" font-size="11.00">text[2147483647]</text>
<polygon fill="none" stroke="black" points="449,-337 449,-359 649,-359 649,-337 449,-337"/>
<text text-anchor="start" x="469" y="-345.2" font-family="Helvetica,sans-Serif" font-size="11.00">remark</text>
<polygon fill="none" stroke="black" points="649,-337 649,-359 785,-359 785,-337 649,-337"/>
<text text-anchor="start" x="652" y="-345.2" font-family="Helvetica,sans-Serif" font-size="11.00">text[2147483647]</text>
<polygon fill="none" stroke="black" points="449,-315 449,-337 649,-337 649,-315 449,-315"/>
<text text-anchor="start" x="469" y="-323.2" font-family="Helvetica,sans-Serif" font-size="11.00">width</text>
<polygon fill="none" stroke="black" points="649,-315 649,-337 785,-337 785,-315 649,-315"/>
<text text-anchor="start" x="652" y="-323.2" font-family="Helvetica,sans-Serif" font-size="11.00">int2[5]</text>
<polygon fill="#ffffff" stroke="transparent" points="449,-293 449,-315 649,-315 649,-293 449,-293"/>
<polygon fill="none" stroke="black" points="449,-293 449,-315 649,-315 649,-293 449,-293"/>
<text text-anchor="start" x="469" y="-301.2" font-family="Helvetica,sans-Serif" font-size="11.00">geometry3d_geometry</text>
<polygon fill="none" stroke="black" points="649,-293 649,-315 785,-315 785,-293 649,-293"/>
<text text-anchor="start" x="652" y="-301.2" font-family="Helvetica,sans-Serif" font-size="11.00">geometry[2147483647]</text>
<polygon fill="none" stroke="black" points="449,-271 449,-293 649,-293 649,-271 449,-271"/>
<image xlink:href="../../images/foreignKeys.png" width="11px" height="12px" preserveAspectRatio="xMinYMin meet" x="454" y="-288"/>
<text text-anchor="start" x="469" y="-279.2" font-family="Helvetica,sans-Serif" font-size="11.00">elevation_determination</text>
<polygon fill="none" stroke="black" points="649,-271 649,-293 785,-293 785,-271 649,-271"/>
<text text-anchor="start" x="652" y="-279.2" font-family="Helvetica,sans-Serif" font-size="11.00">int4[10]</text>
<polygon fill="none" stroke="black" points="449,-249 449,-271 649,-271 649,-249 449,-249"/>
<text text-anchor="start" x="469" y="-257.2" font-family="Helvetica,sans-Serif" font-size="11.00">depth</text>
<polygon fill="none" stroke="black" points="649,-249 649,-271 785,-271 785,-249 649,-249"/>
<text text-anchor="start" x="652" y="-257.2" font-family="Helvetica,sans-Serif" font-size="11.00">int2[5]</text>
<polygon fill="none" stroke="black" points="449,-227 449,-249 649,-249 649,-227 449,-227"/>
<text text-anchor="start" x="469" y="-235.2" font-family="Helvetica,sans-Serif" font-size="11.00">last_modification</text>
<polygon fill="none" stroke="black" points="649,-227 649,-249 785,-249 785,-227 649,-227"/>
<text text-anchor="start" x="652" y="-235.2" font-family="Helvetica,sans-Serif" font-size="11.00">timestamp[29,6]</text>
<polygon fill="#ffffff" stroke="transparent" points="449,-205 449,-227 649,-227 649,-205 449,-205"/>
<polygon fill="none" stroke="black" points="449,-205 449,-227 649,-227 649,-205 449,-205"/>
<image xlink:href="../../images/foreignKeys.png" width="11px" height="12px" preserveAspectRatio="xMinYMin meet" x="454" y="-222"/>
<text text-anchor="start" x="469" y="-213.2" font-family="Helvetica,sans-Serif" font-size="11.00">fk_dataowner</text>
<polygon fill="none" stroke="black" points="649,-205 649,-227 785,-227 785,-205 649,-205"/>
<text text-anchor="start" x="652" y="-213.2" font-family="Helvetica,sans-Serif" font-size="11.00">varchar[16]</text>
<polygon fill="none" stroke="black" points="449,-183 449,-205 649,-205 649,-183 449,-183"/>
<image xlink:href="../../images/foreignKeys.png" width="11px" height="12px" preserveAspectRatio="xMinYMin meet" x="454" y="-200"/>
<text text-anchor="start" x="469" y="-191.2" font-family="Helvetica,sans-Serif" font-size="11.00">fk_provider</text>
<polygon fill="none" stroke="black" points="649,-183 649,-205 785,-205 785,-183 649,-183"/>
<text text-anchor="start" x="652" y="-191.2" font-family="Helvetica,sans-Serif" font-size="11.00">varchar[16]</text>
<polygon fill="none" stroke="black" points="449,-161 449,-183 649,-183 649,-161 449,-161"/>
<image xlink:href="../../images/foreignKeys.png" width="11px" height="12px" preserveAspectRatio="xMinYMin meet" x="454" y="-178"/>
<text text-anchor="start" x="469" y="-169.2" font-family="Helvetica,sans-Serif" font-size="11.00">fk_owner</text>
<polygon fill="none" stroke="black" points="649,-161 649,-183 785,-183 785,-161 649,-161"/>
<text text-anchor="start" x="652" y="-169.2" font-family="Helvetica,sans-Serif" font-size="11.00">varchar[16]</text>
<polygon fill="#ffffff" stroke="transparent" points="449,-143 449,-161 785,-161 785,-143 449,-143"/>
<polygon fill="none" stroke="black" points="449,-143 449,-161 785,-161 785,-143 449,-143"/>
<polygon fill="#ffffff" stroke="transparent" points="450,-144 450,-160 566,-160 566,-144 450,-144"/>
<text text-anchor="start" x="452" y="-149.2" font-family="Helvetica,sans-Serif" font-size="11.00">&lt; 8</text>
<polygon fill="#ffffff" stroke="transparent" points="566,-144 566,-160 669,-160 669,-144 566,-144"/>
<text text-anchor="start" x="613.5" y="-149.2" font-family="Helvetica,sans-Serif" font-size="11.00"> &#160;</text>
<polygon fill="#ffffff" stroke="transparent" points="669,-144 669,-160 784,-160 784,-144 669,-144"/>
<text text-anchor="start" x="762" y="-149.2" font-family="Helvetica,sans-Serif" font-size="11.00">0 &gt;</text>
<polygon fill="black" stroke="black" points="566,-144 566,-160 566,-160 566,-144 566,-144"/>
<polygon fill="black" stroke="black" points="669,-144 669,-160 669,-160 669,-144 669,-144"/>
<polygon fill="none" stroke="black" stroke-width="2" points="448,-142 448,-580 786,-580 786,-142 448,-142"/>
</a>
</g>
</g>
<!-- tdh_vl.sia405cc_cable_cable_type -->
<g id="node2" class="node">
<title>tdh_vl.sia405cc_cable_cable_type</title>
<g id="a_node2"><a xlink:href="../../../tdh_vl/tables/sia405cc_cable_cable_type.html" xlink:title="tdh_vl.sia405cc_cable_cable_type" target="_top">
<polygon fill="#ffffff" stroke="transparent" points="58,-499 58,-557 348,-557 348,-499 58,-499"/>
<polygon fill="#f5f5f5" stroke="transparent" points="58,-535 58,-557 348,-557 348,-535 58,-535"/>
<polygon fill="none" stroke="black" points="58,-535 58,-557 348,-557 348,-535 58,-535"/>
<text text-anchor="start" x="63" y="-544.2" font-family="Helvetica,sans-Serif" font-weight="bold" font-size="11.00">tdh_vl.sia405cc_cable_cable_type</text>
<text text-anchor="start" x="306" y="-543.2" font-family="Helvetica,sans-Serif" font-size="11.00">[table]</text>
<polygon fill="none" stroke="black" points="58,-517 58,-535 348,-535 348,-517 58,-517"/>
<text text-anchor="start" x="61" y="-523.2" font-family="Helvetica,sans-Serif" font-size="11.00">...</text>
<polygon fill="#ffffff" stroke="transparent" points="58,-499 58,-517 348,-517 348,-499 58,-499"/>
<polygon fill="none" stroke="black" points="58,-499 58,-517 348,-517 348,-499 58,-499"/>
<polygon fill="#ffffff" stroke="transparent" points="59,-500 59,-516 142,-516 142,-500 59,-500"/>
<text text-anchor="start" x="61" y="-505.2" font-family="Helvetica,sans-Serif" font-size="11.00"> &#160;</text>
<polygon fill="#ffffff" stroke="transparent" points="142,-500 142,-516 253,-516 253,-500 142,-500"/>
<text text-anchor="start" x="179" y="-505.2" font-family="Helvetica,sans-Serif" font-size="11.00">0 rows</text>
<polygon fill="#ffffff" stroke="transparent" points="253,-500 253,-516 347,-516 347,-500 253,-500"/>
<text text-anchor="start" x="325" y="-505.2" font-family="Helvetica,sans-Serif" font-size="11.00">1 &gt;</text>
<polygon fill="black" stroke="black" points="142,-500 142,-516 142,-516 142,-500 142,-500"/>
<polygon fill="black" stroke="black" points="253,-500 253,-516 253,-516 253,-500 253,-500"/>
</a>
</g>
</g>
<!-- sia405cc_cable&#45;&gt;tdh_vl.sia405cc_cable_cable_type -->
<g id="edge1" class="edge">
<title>sia405cc_cable:w&#45;&gt;tdh_vl.sia405cc_cable_cable_type:e</title>
<path fill="none" stroke="black" d="M433.57,-481.32C424.87,-483.11 418.86,-486.38 406,-489 389.81,-492.3 372.88,-495.67 356,-499"/>
<polygon fill="black" stroke="black" points="440.03,-480.73 448.33,-483.59 444.02,-480.36 448,-480 448,-480 448,-480 444.02,-480.36 447.67,-476.41 440.03,-480.73 440.03,-480.73"/>
<ellipse fill="none" stroke="black" cx="436.85" cy="-481.02" rx="3.2" ry="3.2"/>
</g>
<!-- tdh_vl.sia405cc_cable_elevation_determination -->
<g id="node3" class="node">
<title>tdh_vl.sia405cc_cable_elevation_determination</title>
<g id="a_node3"><a xlink:href="../../../tdh_vl/tables/sia405cc_cable_elevation_determination.html" xlink:title="tdh_vl.sia405cc_cable_elevation_determination" target="_top">
<polygon fill="#ffffff" stroke="transparent" points="8,-253 8,-311 398,-311 398,-253 8,-253"/>
<polygon fill="#f5f5f5" stroke="transparent" points="8,-289 8,-311 398,-311 398,-289 8,-289"/>
<polygon fill="none" stroke="black" points="8,-289 8,-311 398,-311 398,-289 8,-289"/>
<text text-anchor="start" x="13" y="-298.2" font-family="Helvetica,sans-Serif" font-weight="bold" font-size="11.00">tdh_vl.sia405cc_cable_elevation_determination</text>
<text text-anchor="start" x="356" y="-297.2" font-family="Helvetica,sans-Serif" font-size="11.00">[table]</text>
<polygon fill="none" stroke="black" points="8,-271 8,-289 398,-289 398,-271 8,-271"/>
<text text-anchor="start" x="11" y="-277.2" font-family="Helvetica,sans-Serif" font-size="11.00">...</text>
<polygon fill="#ffffff" stroke="transparent" points="8,-253 8,-271 398,-271 398,-253 8,-253"/>
<polygon fill="none" stroke="black" points="8,-253 8,-271 398,-271 398,-253 8,-253"/>
<polygon fill="#ffffff" stroke="transparent" points="9,-254 9,-270 125,-270 125,-254 9,-254"/>
<text text-anchor="start" x="11" y="-259.2" font-family="Helvetica,sans-Serif" font-size="11.00"> &#160;</text>
<polygon fill="#ffffff" stroke="transparent" points="125,-254 125,-270 270,-270 270,-254 125,-254"/>
<text text-anchor="start" x="179" y="-259.2" font-family="Helvetica,sans-Serif" font-size="11.00">0 rows</text>
<polygon fill="#ffffff" stroke="transparent" points="270,-254 270,-270 397,-270 397,-254 270,-254"/>
<text text-anchor="start" x="375" y="-259.2" font-family="Helvetica,sans-Serif" font-size="11.00">1 &gt;</text>
<polygon fill="black" stroke="black" points="125,-254 125,-270 125,-270 125,-254 125,-254"/>
<polygon fill="black" stroke="black" points="270,-254 270,-270 270,-270 270,-254 270,-254"/>
</a>
</g>
</g>
<!-- sia405cc_cable&#45;&gt;tdh_vl.sia405cc_cable_elevation_determination -->
<g id="edge2" class="edge">
<title>sia405cc_cable:w&#45;&gt;tdh_vl.sia405cc_cable_elevation_determination:e</title>
<path fill="none" stroke="black" d="M433.45,-282C424.42,-282 415.26,-282 406.05,-282"/>
<polygon fill="black" stroke="black" points="440,-282 448,-285.6 444,-282 448,-282 448,-282 448,-282 444,-282 448,-278.4 440,-282 440,-282"/>
<ellipse fill="none" stroke="black" cx="436.8" cy="-282" rx="3.2" ry="3.2"/>
</g>
<!-- organisation -->
<g id="node4" class="node">
<title>organisation</title>
<g id="a_node4"><a xlink:href="../../tables/organisation.html" xlink:title="organisation" target="_top">
<polygon fill="#ffffff" stroke="transparent" points="116,-37 116,-227 290,-227 290,-37 116,-37"/>
<polygon fill="#f5f5f5" stroke="transparent" points="116,-205 116,-227 290,-227 290,-205 116,-205"/>
<polygon fill="none" stroke="black" points="116,-205 116,-227 290,-227 290,-205 116,-205"/>
<text text-anchor="start" x="121" y="-214.2" font-family="Helvetica,sans-Serif" font-weight="bold" font-size="11.00">organisation</text>
<text text-anchor="start" x="248" y="-213.2" font-family="Helvetica,sans-Serif" font-size="11.00">[table]</text>
<polygon fill="none" stroke="black" points="116,-183 116,-205 290,-205 290,-183 116,-183"/>
<image xlink:href="../../images/primaryKeys.png" width="11px" height="12px" preserveAspectRatio="xMinYMin meet" x="121" y="-200"/>
<text text-anchor="start" x="136" y="-191.2" font-family="Helvetica,sans-Serif" font-size="11.00">obj_id</text>
<polygon fill="#ffffff" stroke="transparent" points="116,-161 116,-183 290,-183 290,-161 116,-161"/>
<polygon fill="none" stroke="black" points="116,-161 116,-183 290,-183 290,-161 116,-161"/>
<text text-anchor="start" x="136" y="-169.2" font-family="Helvetica,sans-Serif" font-size="11.00">identifier</text>
<polygon fill="none" stroke="black" points="116,-139 116,-161 290,-161 290,-139 116,-139"/>
<image xlink:href="../../images/foreignKeys.png" width="11px" height="12px" preserveAspectRatio="xMinYMin meet" x="121" y="-156"/>
<text text-anchor="start" x="136" y="-147.2" font-family="Helvetica,sans-Serif" font-size="11.00">organisation_type</text>
<polygon fill="none" stroke="black" points="116,-117 116,-139 290,-139 290,-117 116,-117"/>
<image xlink:href="../../images/foreignKeys.png" width="11px" height="12px" preserveAspectRatio="xMinYMin meet" x="121" y="-134"/>
<text text-anchor="start" x="136" y="-125.2" font-family="Helvetica,sans-Serif" font-size="11.00">status</text>
<polygon fill="#ffffff" stroke="transparent" points="116,-95 116,-117 290,-117 290,-95 116,-95"/>
<polygon fill="none" stroke="black" points="116,-95 116,-117 290,-117 290,-95 116,-95"/>
<image xlink:href="../../images/foreignKeys.png" width="11px" height="12px" preserveAspectRatio="xMinYMin meet" x="121" y="-112"/>
<text text-anchor="start" x="136" y="-103.2" font-family="Helvetica,sans-Serif" font-size="11.00">fk_dataowner</text>
<polygon fill="none" stroke="black" points="116,-73 116,-95 290,-95 290,-73 116,-73"/>
<image xlink:href="../../images/foreignKeys.png" width="11px" height="12px" preserveAspectRatio="xMinYMin meet" x="121" y="-90"/>
<text text-anchor="start" x="136" y="-81.2" font-family="Helvetica,sans-Serif" font-size="11.00">fk_provider</text>
<polygon fill="none" stroke="black" points="116,-55 116,-73 290,-73 290,-55 116,-55"/>
<text text-anchor="start" x="119" y="-61.2" font-family="Helvetica,sans-Serif" font-size="11.00">...</text>
<polygon fill="#ffffff" stroke="transparent" points="116,-37 116,-55 290,-55 290,-37 116,-37"/>
<polygon fill="none" stroke="black" points="116,-37 116,-55 290,-55 290,-37 116,-37"/>
<polygon fill="#ffffff" stroke="transparent" points="117,-38 117,-54 176,-54 176,-38 117,-38"/>
<text text-anchor="start" x="119" y="-43.2" font-family="Helvetica,sans-Serif" font-size="11.00">&lt; 4</text>
<polygon fill="#ffffff" stroke="transparent" points="176,-38 176,-54 223,-54 223,-38 176,-38"/>
<text text-anchor="start" x="195.5" y="-43.2" font-family="Helvetica,sans-Serif" font-size="11.00"> &#160;</text>
<polygon fill="#ffffff" stroke="transparent" points="223,-38 223,-54 289,-54 289,-38 223,-38"/>
<text text-anchor="start" x="260" y="-43.2" font-family="Helvetica,sans-Serif" font-size="11.00">33 &gt;</text>
<polygon fill="black" stroke="black" points="176,-38 176,-54 176,-54 176,-38 176,-38"/>
<polygon fill="black" stroke="black" points="223,-38 223,-54 223,-54 223,-38 223,-38"/>
</a>
</g>
</g>
<!-- sia405cc_cable&#45;&gt;organisation -->
<g id="edge3" class="edge">
<title>sia405cc_cable:w&#45;&gt;organisation:e</title>
<path fill="none" stroke="black" d="M433.54,-215.67C374.93,-212.94 356.37,-194 291,-194"/>
<polygon fill="black" stroke="black" points="440,-215.82 447.92,-219.6 444,-215.91 448,-216 448,-216 448,-216 444,-215.91 448.08,-212.4 440,-215.82 440,-215.82"/>
<ellipse fill="none" stroke="black" cx="436.8" cy="-215.75" rx="3.2" ry="3.2"/>
</g>
<!-- sia405cc_cable&#45;&gt;organisation -->
<g id="edge4" class="edge">
<title>sia405cc_cable:w&#45;&gt;organisation:e</title>
<path fill="none" stroke="black" d="M433.54,-172.33C374.93,-175.06 356.37,-194 291,-194"/>
<polygon fill="black" stroke="black" points="440,-172.18 448.08,-175.6 444,-172.09 448,-172 448,-172 448,-172 444,-172.09 447.92,-168.4 440,-172.18 440,-172.18"/>
<ellipse fill="none" stroke="black" cx="436.8" cy="-172.25" rx="3.2" ry="3.2"/>
</g>
<!-- sia405cc_cable&#45;&gt;organisation -->
<g id="edge5" class="edge">
<title>sia405cc_cable:w&#45;&gt;organisation:e</title>
<path fill="none" stroke="black" d="M433.29,-194C375.34,-194 355.6,-194 291,-194"/>
<polygon fill="black" stroke="black" points="440,-194 448,-197.6 444,-194 448,-194 448,-194 448,-194 444,-194 448,-190.4 440,-194 440,-194"/>
<ellipse fill="none" stroke="black" cx="436.8" cy="-194" rx="3.2" ry="3.2"/>
</g>
<!-- tdh_vl.sia405cc_cable_function -->
<g id="node5" class="node">
<title>tdh_vl.sia405cc_cable_function</title>
<g id="a_node5"><a xlink:href="../../../tdh_vl/tables/sia405cc_cable_function.html" xlink:title="tdh_vl.sia405cc_cable_function" target="_top">
<polygon fill="#ffffff" stroke="transparent" points="67,-578 67,-636 339,-636 339,-578 67,-578"/>
<polygon fill="#f5f5f5" stroke="transparent" points="67,-614 67,-636 339,-636 339,-614 67,-614"/>
<polygon fill="none" stroke="black" points="67,-614 67,-636 339,-636 339,-614 67,-614"/>
<text text-anchor="start" x="72" y="-623.2" font-family="Helvetica,sans-Serif" font-weight="bold" font-size="11.00">tdh_vl.sia405cc_cable_function</text>
<text text-anchor="start" x="297" y="-622.2" font-family="Helvetica,sans-Serif" font-size="11.00">[table]</text>
<polygon fill="none" stroke="black" points="67,-596 67,-614 339,-614 339,-596 67,-596"/>
<text text-anchor="start" x="70" y="-602.2" font-family="Helvetica,sans-Serif" font-size="11.00">...</text>
<polygon fill="#ffffff" stroke="transparent" points="67,-578 67,-596 339,-596 339,-578 67,-578"/>
<polygon fill="none" stroke="black" points="67,-578 67,-596 339,-596 339,-578 67,-578"/>
<polygon fill="#ffffff" stroke="transparent" points="68,-579 68,-595 145,-595 145,-579 68,-579"/>
<text text-anchor="start" x="70" y="-584.2" font-family="Helvetica,sans-Serif" font-size="11.00"> &#160;</text>
<polygon fill="#ffffff" stroke="transparent" points="145,-579 145,-595 250,-595 250,-579 145,-579"/>
<text text-anchor="start" x="179" y="-584.2" font-family="Helvetica,sans-Serif" font-size="11.00">0 rows</text>
<polygon fill="#ffffff" stroke="transparent" points="250,-579 250,-595 338,-595 338,-579 250,-579"/>
<text text-anchor="start" x="316" y="-584.2" font-family="Helvetica,sans-Serif" font-size="11.00">1 &gt;</text>
<polygon fill="black" stroke="black" points="145,-579 145,-595 145,-595 145,-579 145,-579"/>
<polygon fill="black" stroke="black" points="250,-579 250,-595 250,-595 250,-579 250,-579"/>
</a>
</g>
</g>
<!-- sia405cc_cable&#45;&gt;tdh_vl.sia405cc_cable_function -->
<g id="edge6" class="edge">
<title>sia405cc_cable:w&#45;&gt;tdh_vl.sia405cc_cable_function:e</title>
<path fill="none" stroke="black" d="M434.09,-506.07C419.34,-517.82 429.58,-551.96 406,-568 388.36,-580 367.94,-588.53 347.02,-594.55"/>
<polygon fill="black" stroke="black" points="440.32,-504.25 449.01,-505.45 444.16,-503.12 448,-502 448,-502 448,-502 444.16,-503.12 446.99,-498.55 440.32,-504.25 440.32,-504.25"/>
<ellipse fill="none" stroke="black" cx="437.25" cy="-505.15" rx="3.2" ry="3.2"/>
</g>
<!-- tdh_vl.sia405cc_cable_horizontal_positioning -->
<g id="node6" class="node">
<title>tdh_vl.sia405cc_cable_horizontal_positioning</title>
<g id="a_node6"><a xlink:href="../../../tdh_vl/tables/sia405cc_cable_horizontal_positioning.html" xlink:title="tdh_vl.sia405cc_cable_horizontal_positioning" target="_top">
<polygon fill="#ffffff" stroke="transparent" points="16,-420 16,-478 390,-478 390,-420 16,-420"/>
<polygon fill="#f5f5f5" stroke="transparent" points="16,-456 16,-478 390,-478 390,-456 16,-456"/>
<polygon fill="none" stroke="black" points="16,-456 16,-478 390,-478 390,-456 16,-456"/>
<text text-anchor="start" x="21" y="-465.2" font-family="Helvetica,sans-Serif" font-weight="bold" font-size="11.00">tdh_vl.sia405cc_cable_horizontal_positioning</text>
<text text-anchor="start" x="348" y="-464.2" font-family="Helvetica,sans-Serif" font-size="11.00">[table]</text>
<polygon fill="none" stroke="black" points="16,-438 16,-456 390,-456 390,-438 16,-438"/>
<text text-anchor="start" x="19" y="-444.2" font-family="Helvetica,sans-Serif" font-size="11.00">...</text>
<polygon fill="#ffffff" stroke="transparent" points="16,-420 16,-438 390,-438 390,-420 16,-420"/>
<polygon fill="none" stroke="black" points="16,-420 16,-438 390,-438 390,-420 16,-420"/>
<polygon fill="#ffffff" stroke="transparent" points="17,-421 17,-437 128,-437 128,-421 17,-421"/>
<text text-anchor="start" x="19" y="-426.2" font-family="Helvetica,sans-Serif" font-size="11.00"> &#160;</text>
<polygon fill="#ffffff" stroke="transparent" points="128,-421 128,-437 267,-437 267,-421 128,-421"/>
<text text-anchor="start" x="179" y="-426.2" font-family="Helvetica,sans-Serif" font-size="11.00">0 rows</text>
<polygon fill="#ffffff" stroke="transparent" points="267,-421 267,-437 389,-437 389,-421 267,-421"/>
<text text-anchor="start" x="367" y="-426.2" font-family="Helvetica,sans-Serif" font-size="11.00">1 &gt;</text>
<polygon fill="black" stroke="black" points="128,-421 128,-437 128,-437 128,-421 128,-421"/>
<polygon fill="black" stroke="black" points="267,-421 267,-437 267,-437 267,-421 267,-421"/>
</a>
</g>
</g>
<!-- sia405cc_cable&#45;&gt;tdh_vl.sia405cc_cable_horizontal_positioning -->
<g id="edge7" class="edge">
<title>sia405cc_cable:w&#45;&gt;tdh_vl.sia405cc_cable_horizontal_positioning:e</title>
<path fill="none" stroke="black" d="M433.41,-457.95C421.8,-457.87 409.96,-457.7 398.09,-457.46"/>
<polygon fill="black" stroke="black" points="440,-457.97 447.99,-461.6 444,-457.99 448,-458 448,-458 448,-458 444,-457.99 448.01,-454.4 440,-457.97 440,-457.97"/>
<ellipse fill="none" stroke="black" cx="436.8" cy="-457.96" rx="3.2" ry="3.2"/>
</g>
<!-- tdh_vl.sia405cc_cable_status -->
<g id="node7" class="node">
<title>tdh_vl.sia405cc_cable_status</title>
<g id="a_node7"><a xlink:href="../../../tdh_vl/tables/sia405cc_cable_status.html" xlink:title="tdh_vl.sia405cc_cable_status" target="_top">
<polygon fill="#ffffff" stroke="transparent" points="74.5,-341 74.5,-399 331.5,-399 331.5,-341 74.5,-341"/>
<polygon fill="#f5f5f5" stroke="transparent" points="75,-377 75,-399 332,-399 332,-377 75,-377"/>
<polygon fill="none" stroke="black" points="75,-377 75,-399 332,-399 332,-377 75,-377"/>
<text text-anchor="start" x="80" y="-386.2" font-family="Helvetica,sans-Serif" font-weight="bold" font-size="11.00">tdh_vl.sia405cc_cable_status</text>
<text text-anchor="start" x="290" y="-385.2" font-family="Helvetica,sans-Serif" font-size="11.00">[table]</text>
<polygon fill="none" stroke="black" points="75,-359 75,-377 332,-377 332,-359 75,-359"/>
<text text-anchor="start" x="78" y="-365.2" font-family="Helvetica,sans-Serif" font-size="11.00">...</text>
<polygon fill="#ffffff" stroke="transparent" points="75,-341 75,-359 332,-359 332,-341 75,-341"/>
<polygon fill="none" stroke="black" points="75,-341 75,-359 332,-359 332,-341 75,-341"/>
<polygon fill="#ffffff" stroke="transparent" points="76,-342 76,-358 148,-358 148,-342 76,-342"/>
<text text-anchor="start" x="78" y="-347.2" font-family="Helvetica,sans-Serif" font-size="11.00"> &#160;</text>
<polygon fill="#ffffff" stroke="transparent" points="148,-342 148,-358 248,-358 248,-342 148,-342"/>
<text text-anchor="start" x="179.5" y="-347.2" font-family="Helvetica,sans-Serif" font-size="11.00">0 rows</text>
<polygon fill="#ffffff" stroke="transparent" points="248,-342 248,-358 331,-358 331,-342 248,-342"/>
<text text-anchor="start" x="309" y="-347.2" font-family="Helvetica,sans-Serif" font-size="11.00">1 &gt;</text>
<polygon fill="black" stroke="black" points="148,-342 148,-358 148,-358 148,-342 148,-342"/>
<polygon fill="black" stroke="black" points="248,-342 248,-358 248,-358 248,-342 248,-342"/>
</a>
</g>
</g>
<!-- sia405cc_cable&#45;&gt;tdh_vl.sia405cc_cable_status -->
<g id="edge8" class="edge">
<title>sia405cc_cable:w&#45;&gt;tdh_vl.sia405cc_cable_status:e</title>
<path fill="none" stroke="black" d="M433.82,-432.36C424.62,-426.68 420.68,-415.78 406,-410 385.04,-401.75 362.17,-395.14 339.58,-389.86"/>
<polygon fill="black" stroke="black" points="440.25,-434.01 447.1,-439.49 444.13,-435.01 448,-436 448,-436 448,-436 444.13,-435.01 448.9,-432.51 440.25,-434.01 440.25,-434.01"/>
<ellipse fill="none" stroke="black" cx="437.15" cy="-433.21" rx="3.2" ry="3.2"/>
</g>
</g>
</svg>
