<?xml version="1.0" encoding="UTF-8" standalone="no"?>
<!DOCTYPE svg PUBLIC "-//W3C//DTD SVG 1.1//EN"
 "http://www.w3.org/Graphics/SVG/1.1/DTD/svg11.dtd">
<!-- Generated by graphviz version 2.43.0 (0)
 -->
<!-- Title: oneDegreeRelationshipsDiagram Pages: 1 -->
<svg width="1095pt" height="938pt"
 viewBox="0.00 0.00 1095.00 938.00" xmlns="http://www.w3.org/2000/svg" xmlns:xlink="http://www.w3.org/1999/xlink">
<g id="graph0" class="graph" transform="scale(1 1) rotate(0) translate(4 934)">
<title>oneDegreeRelationshipsDiagram</title>
<polygon fill="#ffffff" stroke="transparent" points="-4,4 -4,-934 1091,-934 1091,4 -4,4"/>
<text text-anchor="middle" x="79.5" y="-7.2" font-family="Helvetica,sans-Serif" font-size="11.00">Generated by SchemaSpy</text>
<!-- pipe_section -->
<g id="node1" class="node">
<title>pipe_section</title>
<g id="a_node1"><a xlink:href="../../tables/pipe_section.html" xlink:title="pipe_section" target="_top">
<polygon fill="#ffffff" stroke="transparent" points="364,-37 364,-513 550,-513 550,-37 364,-37"/>
<polygon fill="#f5f5f5" stroke="transparent" points="364,-491 364,-513 550,-513 550,-491 364,-491"/>
<polygon fill="none" stroke="black" points="364,-491 364,-513 550,-513 550,-491 364,-491"/>
<text text-anchor="start" x="369" y="-500.2" font-family="Helvetica,sans-Serif" font-weight="bold" font-size="11.00">pipe_section</text>
<text text-anchor="start" x="508" y="-499.2" font-family="Helvetica,sans-Serif" font-size="11.00">[table]</text>
<polygon fill="none" stroke="black" points="364,-469 364,-491 550,-491 550,-469 364,-469"/>
<image xlink:href="../../images/primaryKeys.png" width="11px" height="12px" preserveAspectRatio="xMinYMin meet" x="369" y="-486"/>
<text text-anchor="start" x="384" y="-477.2" font-family="Helvetica,sans-Serif" font-size="11.00">obj_id</text>
<polygon fill="#ffffff" stroke="transparent" points="364,-447 364,-469 550,-469 550,-447 364,-447"/>
<polygon fill="none" stroke="black" points="364,-447 364,-469 550,-469 550,-447 364,-447"/>
<text text-anchor="start" x="384" y="-455.2" font-family="Helvetica,sans-Serif" font-size="11.00">name_number</text>
<polygon fill="#ffffff" stroke="transparent" points="364,-425 364,-447 550,-447 550,-425 364,-425"/>
<polygon fill="none" stroke="black" points="364,-425 364,-447 550,-447 550,-425 364,-425"/>
<text text-anchor="start" x="384" y="-433.2" font-family="Helvetica,sans-Serif" font-size="11.00">geometry3d_geometry</text>
<polygon fill="none" stroke="black" points="364,-403 364,-425 550,-425 550,-403 364,-403"/>
<image xlink:href="../../images/foreignKeys.png" width="11px" height="12px" preserveAspectRatio="xMinYMin meet" x="369" y="-420"/>
<text text-anchor="start" x="384" y="-411.2" font-family="Helvetica,sans-Serif" font-size="11.00">horizontal_positioning</text>
<polygon fill="none" stroke="black" points="364,-381 364,-403 550,-403 550,-381 364,-381"/>
<image xlink:href="../../images/foreignKeys.png" width="11px" height="12px" preserveAspectRatio="xMinYMin meet" x="369" y="-398"/>
<text text-anchor="start" x="384" y="-389.2" font-family="Helvetica,sans-Serif" font-size="11.00">status</text>
<polygon fill="none" stroke="black" points="364,-359 364,-381 550,-381 550,-359 364,-359"/>
<image xlink:href="../../images/foreignKeys.png" width="11px" height="12px" preserveAspectRatio="xMinYMin meet" x="369" y="-376"/>
<text text-anchor="start" x="384" y="-367.2" font-family="Helvetica,sans-Serif" font-size="11.00">function</text>
<polygon fill="none" stroke="black" points="364,-337 364,-359 550,-359 550,-337 364,-337"/>
<image xlink:href="../../images/foreignKeys.png" width="11px" height="12px" preserveAspectRatio="xMinYMin meet" x="369" y="-354"/>
<text text-anchor="start" x="384" y="-345.2" font-family="Helvetica,sans-Serif" font-size="11.00">pipe_type</text>
<polygon fill="none" stroke="black" points="364,-315 364,-337 550,-337 550,-315 364,-315"/>
<image xlink:href="../../images/foreignKeys.png" width="11px" height="12px" preserveAspectRatio="xMinYMin meet" x="369" y="-332"/>
<text text-anchor="start" x="384" y="-323.2" font-family="Helvetica,sans-Serif" font-size="11.00">fluent</text>
<polygon fill="none" stroke="black" points="364,-293 364,-315 550,-315 550,-293 364,-293"/>
<image xlink:href="../../images/foreignKeys.png" width="11px" height="12px" preserveAspectRatio="xMinYMin meet" x="369" y="-310"/>
<text text-anchor="start" x="384" y="-301.2" font-family="Helvetica,sans-Serif" font-size="11.00">insulation_kind</text>
<polygon fill="none" stroke="black" points="364,-271 364,-293 550,-293 550,-271 364,-271"/>
<image xlink:href="../../images/foreignKeys.png" width="11px" height="12px" preserveAspectRatio="xMinYMin meet" x="369" y="-288"/>
<text text-anchor="start" x="384" y="-279.2" font-family="Helvetica,sans-Serif" font-size="11.00">coating</text>
<polygon fill="none" stroke="black" points="364,-249 364,-271 550,-271 550,-249 364,-249"/>
<image xlink:href="../../images/foreignKeys.png" width="11px" height="12px" preserveAspectRatio="xMinYMin meet" x="369" y="-266"/>
<text text-anchor="start" x="384" y="-257.2" font-family="Helvetica,sans-Serif" font-size="11.00">pipeline_quality</text>
<polygon fill="#ffffff" stroke="transparent" points="364,-227 364,-249 550,-249 550,-227 364,-227"/>
<polygon fill="none" stroke="black" points="364,-227 364,-249 550,-249 550,-227 364,-227"/>
<image xlink:href="../../images/foreignKeys.png" width="11px" height="12px" preserveAspectRatio="xMinYMin meet" x="369" y="-244"/>
<text text-anchor="start" x="384" y="-235.2" font-family="Helvetica,sans-Serif" font-size="11.00">fk_dataowner</text>
<polygon fill="none" stroke="black" points="364,-205 364,-227 550,-227 550,-205 364,-205"/>
<image xlink:href="../../images/foreignKeys.png" width="11px" height="12px" preserveAspectRatio="xMinYMin meet" x="369" y="-222"/>
<text text-anchor="start" x="384" y="-213.2" font-family="Helvetica,sans-Serif" font-size="11.00">fk_provider</text>
<polygon fill="none" stroke="black" points="364,-183 364,-205 550,-205 550,-183 364,-183"/>
<image xlink:href="../../images/foreignKeys.png" width="11px" height="12px" preserveAspectRatio="xMinYMin meet" x="369" y="-200"/>
<text text-anchor="start" x="384" y="-191.2" font-family="Helvetica,sans-Serif" font-size="11.00">fk_owner</text>
<polygon fill="none" stroke="black" points="364,-161 364,-183 550,-183 550,-161 364,-161"/>
<image xlink:href="../../images/foreignKeys.png" width="11px" height="12px" preserveAspectRatio="xMinYMin meet" x="369" y="-178"/>
<text text-anchor="start" x="384" y="-169.2" font-family="Helvetica,sans-Serif" font-size="11.00">fk_pipeline_company</text>
<polygon fill="none" stroke="black" points="364,-139 364,-161 550,-161 550,-139 364,-139"/>
<image xlink:href="../../images/foreignKeys.png" width="11px" height="12px" preserveAspectRatio="xMinYMin meet" x="369" y="-156"/>
<text text-anchor="start" x="384" y="-147.2" font-family="Helvetica,sans-Serif" font-size="11.00">mg_material</text>
<polygon fill="none" stroke="black" points="364,-117 364,-139 550,-139 550,-117 364,-117"/>
<image xlink:href="../../images/foreignKeys.png" width="11px" height="12px" preserveAspectRatio="xMinYMin meet" x="369" y="-134"/>
<text text-anchor="start" x="384" y="-125.2" font-family="Helvetica,sans-Serif" font-size="11.00">mg_diameter</text>
<polygon fill="none" stroke="black" points="364,-95 364,-117 550,-117 550,-95 364,-95"/>
<image xlink:href="../../images/foreignKeys.png" width="11px" height="12px" preserveAspectRatio="xMinYMin meet" x="369" y="-112"/>
<text text-anchor="start" x="384" y="-103.2" font-family="Helvetica,sans-Serif" font-size="11.00">mg_trench_type</text>
<polygon fill="none" stroke="black" points="364,-73 364,-95 550,-95 550,-73 364,-73"/>
<image xlink:href="../../images/foreignKeys.png" width="11px" height="12px" preserveAspectRatio="xMinYMin meet" x="369" y="-90"/>
<text text-anchor="start" x="384" y="-81.2" font-family="Helvetica,sans-Serif" font-size="11.00">mg_signaling_band</text>
<polygon fill="none" stroke="black" points="364,-55 364,-73 550,-73 550,-55 364,-55"/>
<text text-anchor="start" x="367" y="-61.2" font-family="Helvetica,sans-Serif" font-size="11.00">...</text>
<polygon fill="#ffffff" stroke="transparent" points="364,-37 364,-55 550,-55 550,-37 364,-37"/>
<polygon fill="none" stroke="black" points="364,-37 364,-55 550,-55 550,-37 364,-37"/>
<polygon fill="#ffffff" stroke="transparent" points="365,-38 365,-54 435,-54 435,-38 365,-38"/>
<text text-anchor="start" x="367" y="-43.2" font-family="Helvetica,sans-Serif" font-size="11.00">&lt; 16</text>
<polygon fill="#ffffff" stroke="transparent" points="435,-38 435,-54 486,-54 486,-38 435,-38"/>
<text text-anchor="start" x="456.5" y="-43.2" font-family="Helvetica,sans-Serif" font-size="11.00"> &#160;</text>
<polygon fill="#ffffff" stroke="transparent" points="486,-38 486,-54 549,-54 549,-38 486,-38"/>
<text text-anchor="start" x="527" y="-43.2" font-family="Helvetica,sans-Serif" font-size="11.00">1 &gt;</text>
<polygon fill="black" stroke="black" points="435,-38 435,-54 435,-54 435,-38 435,-38"/>
<polygon fill="black" stroke="black" points="486,-38 486,-54 486,-54 486,-38 486,-38"/>
</a>
</g>
</g>
<!-- organisation -->
<g id="node2" class="node">
<title>organisation</title>
<g id="a_node2"><a xlink:href="../../tables/organisation.html" xlink:title="organisation" target="_top">
<polygon fill="#ffffff" stroke="transparent" points="8,-81 8,-271 182,-271 182,-81 8,-81"/>
<polygon fill="#f5f5f5" stroke="transparent" points="8,-249 8,-271 182,-271 182,-249 8,-249"/>
<polygon fill="none" stroke="black" points="8,-249 8,-271 182,-271 182,-249 8,-249"/>
<text text-anchor="start" x="13" y="-258.2" font-family="Helvetica,sans-Serif" font-weight="bold" font-size="11.00">organisation</text>
<text text-anchor="start" x="140" y="-257.2" font-family="Helvetica,sans-Serif" font-size="11.00">[table]</text>
<polygon fill="none" stroke="black" points="8,-227 8,-249 182,-249 182,-227 8,-227"/>
<image xlink:href="../../images/primaryKeys.png" width="11px" height="12px" preserveAspectRatio="xMinYMin meet" x="13" y="-244"/>
<text text-anchor="start" x="28" y="-235.2" font-family="Helvetica,sans-Serif" font-size="11.00">obj_id</text>
<polygon fill="#ffffff" stroke="transparent" points="8,-205 8,-227 182,-227 182,-205 8,-205"/>
<polygon fill="none" stroke="black" points="8,-205 8,-227 182,-227 182,-205 8,-205"/>
<text text-anchor="start" x="28" y="-213.2" font-family="Helvetica,sans-Serif" font-size="11.00">identifier</text>
<polygon fill="none" stroke="black" points="8,-183 8,-205 182,-205 182,-183 8,-183"/>
<image xlink:href="../../images/foreignKeys.png" width="11px" height="12px" preserveAspectRatio="xMinYMin meet" x="13" y="-200"/>
<text text-anchor="start" x="28" y="-191.2" font-family="Helvetica,sans-Serif" font-size="11.00">organisation_type</text>
<polygon fill="none" stroke="black" points="8,-161 8,-183 182,-183 182,-161 8,-161"/>
<image xlink:href="../../images/foreignKeys.png" width="11px" height="12px" preserveAspectRatio="xMinYMin meet" x="13" y="-178"/>
<text text-anchor="start" x="28" y="-169.2" font-family="Helvetica,sans-Serif" font-size="11.00">status</text>
<polygon fill="#ffffff" stroke="transparent" points="8,-139 8,-161 182,-161 182,-139 8,-139"/>
<polygon fill="none" stroke="black" points="8,-139 8,-161 182,-161 182,-139 8,-139"/>
<image xlink:href="../../images/foreignKeys.png" width="11px" height="12px" preserveAspectRatio="xMinYMin meet" x="13" y="-156"/>
<text text-anchor="start" x="28" y="-147.2" font-family="Helvetica,sans-Serif" font-size="11.00">fk_dataowner</text>
<polygon fill="none" stroke="black" points="8,-117 8,-139 182,-139 182,-117 8,-117"/>
<image xlink:href="../../images/foreignKeys.png" width="11px" height="12px" preserveAspectRatio="xMinYMin meet" x="13" y="-134"/>
<text text-anchor="start" x="28" y="-125.2" font-family="Helvetica,sans-Serif" font-size="11.00">fk_provider</text>
<polygon fill="none" stroke="black" points="8,-99 8,-117 182,-117 182,-99 8,-99"/>
<text text-anchor="start" x="11" y="-105.2" font-family="Helvetica,sans-Serif" font-size="11.00">...</text>
<polygon fill="#ffffff" stroke="transparent" points="8,-81 8,-99 182,-99 182,-81 8,-81"/>
<polygon fill="none" stroke="black" points="8,-81 8,-99 182,-99 182,-81 8,-81"/>
<polygon fill="#ffffff" stroke="transparent" points="9,-82 9,-98 68,-98 68,-82 9,-82"/>
<text text-anchor="start" x="11" y="-87.2" font-family="Helvetica,sans-Serif" font-size="11.00">&lt; 4</text>
<polygon fill="#ffffff" stroke="transparent" points="68,-82 68,-98 115,-98 115,-82 68,-82"/>
<text text-anchor="start" x="87.5" y="-87.2" font-family="Helvetica,sans-Serif" font-size="11.00"> &#160;</text>
<polygon fill="#ffffff" stroke="transparent" points="115,-82 115,-98 181,-98 181,-82 115,-82"/>
<text text-anchor="start" x="152" y="-87.2" font-family="Helvetica,sans-Serif" font-size="11.00">33 &gt;</text>
<polygon fill="black" stroke="black" points="68,-82 68,-98 68,-98 68,-82 68,-82"/>
<polygon fill="black" stroke="black" points="115,-82 115,-98 115,-98 115,-82 115,-82"/>
</a>
</g>
</g>
<!-- pipe_section&#45;&gt;organisation -->
<g id="edge1" class="edge">
<title>pipe_section:w&#45;&gt;organisation:e</title>
<path fill="none" stroke="black" d="M348.25,-238C280.17,-238 257.84,-238 183,-238"/>
<polygon fill="black" stroke="black" points="355,-238 363,-241.6 359,-238 363,-238 363,-238 363,-238 359,-238 363,-234.4 355,-238 355,-238"/>
<ellipse fill="none" stroke="black" cx="351.8" cy="-238" rx="3.2" ry="3.2"/>
</g>
<!-- pipe_section&#45;&gt;organisation -->
<g id="edge2" class="edge">
<title>pipe_section:w&#45;&gt;organisation:e</title>
<path fill="none" stroke="black" d="M348.31,-194.49C278.47,-199.33 260.21,-238 183,-238"/>
<polygon fill="black" stroke="black" points="355,-194.27 363.12,-197.6 359,-194.13 363,-194 363,-194 363,-194 359,-194.13 362.88,-190.4 355,-194.27 355,-194.27"/>
<ellipse fill="none" stroke="black" cx="351.81" cy="-194.38" rx="3.2" ry="3.2"/>
</g>
<!-- pipe_section&#45;&gt;organisation -->
<g id="edge3" class="edge">
<title>pipe_section:w&#45;&gt;organisation:e</title>
<path fill="none" stroke="black" d="M348.32,-172.7C276.35,-179.75 263.05,-238 183,-238"/>
<polygon fill="black" stroke="black" points="355.01,-172.38 363.17,-175.6 359,-172.19 363,-172 363,-172 363,-172 359,-172.19 362.83,-168.4 355.01,-172.38 355.01,-172.38"/>
<ellipse fill="none" stroke="black" cx="351.81" cy="-172.53" rx="3.2" ry="3.2"/>
</g>
<!-- pipe_section&#45;&gt;organisation -->
<g id="edge4" class="edge">
<title>pipe_section:w&#45;&gt;organisation:e</title>
<path fill="none" stroke="black" d="M348.58,-216.25C279.81,-218.66 258.56,-238 183,-238"/>
<polygon fill="black" stroke="black" points="355,-216.14 363.06,-219.6 359,-216.07 363,-216 363,-216 363,-216 359,-216.07 362.94,-212.4 355,-216.14 355,-216.14"/>
<ellipse fill="none" stroke="black" cx="351.8" cy="-216.19" rx="3.2" ry="3.2"/>
</g>
<!-- sia405pt_protection_tube -->
<g id="node3" class="node">
<title>sia405pt_protection_tube</title>
<g id="a_node3"><a xlink:href="../../tables/sia405pt_protection_tube.html" xlink:title="sia405pt_protection_tube" target="_top">
<polygon fill="#ffffff" stroke="transparent" points="732,-486 732,-926 1079,-926 1079,-486 732,-486"/>
<polygon fill="#f5f5f5" stroke="transparent" points="734.5,-902 734.5,-924 1077.5,-924 1077.5,-902 734.5,-902"/>
<polygon fill="none" stroke="black" points="734.5,-902 734.5,-924 1077.5,-924 1077.5,-902 734.5,-902"/>
<text text-anchor="start" x="739.5" y="-911.2" font-family="Helvetica,sans-Serif" font-weight="bold" font-size="11.00">sia405pt_protection_tube</text>
<text text-anchor="start" x="1035.5" y="-910.2" font-family="Helvetica,sans-Serif" font-size="11.00">[table]</text>
<polygon fill="none" stroke="black" points="734.5,-880 734.5,-902 941.5,-902 941.5,-880 734.5,-880"/>
<image xlink:href="../../images/primaryKeys.png" width="11px" height="12px" preserveAspectRatio="xMinYMin meet" x="739.5" y="-897"/>
<text text-anchor="start" x="754.5" y="-888.2" font-family="Helvetica,sans-Serif" font-size="11.00">obj_id</text>
<polygon fill="none" stroke="black" points="941.5,-880 941.5,-902 1077.5,-902 1077.5,-880 941.5,-880"/>
<text text-anchor="start" x="944.5" y="-888.2" font-family="Helvetica,sans-Serif" font-size="11.00">varchar[16]</text>
<polygon fill="#ffffff" stroke="transparent" points="734.5,-858 734.5,-880 941.5,-880 941.5,-858 734.5,-858"/>
<polygon fill="none" stroke="black" points="734.5,-858 734.5,-880 941.5,-880 941.5,-858 734.5,-858"/>
<text text-anchor="start" x="754.5" y="-866.2" font-family="Helvetica,sans-Serif" font-size="11.00">name_number</text>
<polygon fill="none" stroke="black" points="941.5,-858 941.5,-880 1077.5,-880 1077.5,-858 941.5,-858"/>
<text text-anchor="start" x="944.5" y="-866.2" font-family="Helvetica,sans-Serif" font-size="11.00">text[2147483647]</text>
<polygon fill="none" stroke="black" points="734.5,-836 734.5,-858 941.5,-858 941.5,-836 734.5,-836"/>
<image xlink:href="../../images/foreignKeys.png" width="11px" height="12px" preserveAspectRatio="xMinYMin meet" x="739.5" y="-853"/>
<text text-anchor="start" x="754.5" y="-844.2" font-family="Helvetica,sans-Serif" font-size="11.00">material</text>
<polygon fill="none" stroke="black" points="941.5,-836 941.5,-858 1077.5,-858 1077.5,-836 941.5,-836"/>
<text text-anchor="start" x="944.5" y="-844.2" font-family="Helvetica,sans-Serif" font-size="11.00">int4[10]</text>
<polygon fill="none" stroke="black" points="734.5,-814 734.5,-836 941.5,-836 941.5,-814 734.5,-814"/>
<text text-anchor="start" x="754.5" y="-822.2" font-family="Helvetica,sans-Serif" font-size="11.00">nominal_diameter</text>
<polygon fill="none" stroke="black" points="941.5,-814 941.5,-836 1077.5,-836 1077.5,-814 941.5,-814"/>
<text text-anchor="start" x="944.5" y="-822.2" font-family="Helvetica,sans-Serif" font-size="11.00">text[2147483647]</text>
<polygon fill="none" stroke="black" points="734.5,-792 734.5,-814 941.5,-814 941.5,-792 734.5,-792"/>
<text text-anchor="start" x="754.5" y="-800.2" font-family="Helvetica,sans-Serif" font-size="11.00">outside_diameter</text>
<polygon fill="none" stroke="black" points="941.5,-792 941.5,-814 1077.5,-814 1077.5,-792 941.5,-792"/>
<text text-anchor="start" x="944.5" y="-800.2" font-family="Helvetica,sans-Serif" font-size="11.00">int2[5]</text>
<polygon fill="none" stroke="black" points="734.5,-770 734.5,-792 941.5,-792 941.5,-770 734.5,-770"/>
<text text-anchor="start" x="754.5" y="-778.2" font-family="Helvetica,sans-Serif" font-size="11.00">lenght</text>
<polygon fill="none" stroke="black" points="941.5,-770 941.5,-792 1077.5,-792 1077.5,-770 941.5,-770"/>
<text text-anchor="start" x="944.5" y="-778.2" font-family="Helvetica,sans-Serif" font-size="11.00">int2[5]</text>
<polygon fill="none" stroke="black" points="734.5,-748 734.5,-770 941.5,-770 941.5,-748 734.5,-748"/>
<text text-anchor="start" x="754.5" y="-756.2" font-family="Helvetica,sans-Serif" font-size="11.00">installation_year</text>
<polygon fill="none" stroke="black" points="941.5,-748 941.5,-770 1077.5,-770 1077.5,-748 941.5,-748"/>
<text text-anchor="start" x="944.5" y="-756.2" font-family="Helvetica,sans-Serif" font-size="11.00">int2[5]</text>
<polygon fill="none" stroke="black" points="734.5,-726 734.5,-748 941.5,-748 941.5,-726 734.5,-726"/>
<image xlink:href="../../images/foreignKeys.png" width="11px" height="12px" preserveAspectRatio="xMinYMin meet" x="739.5" y="-743"/>
<text text-anchor="start" x="754.5" y="-734.2" font-family="Helvetica,sans-Serif" font-size="11.00">horizontal_positioning</text>
<polygon fill="none" stroke="black" points="941.5,-726 941.5,-748 1077.5,-748 1077.5,-726 941.5,-726"/>
<text text-anchor="start" x="944.5" y="-734.2" font-family="Helvetica,sans-Serif" font-size="11.00">int4[10]</text>
<polygon fill="none" stroke="black" points="734.5,-704 734.5,-726 941.5,-726 941.5,-704 734.5,-704"/>
<image xlink:href="../../images/foreignKeys.png" width="11px" height="12px" preserveAspectRatio="xMinYMin meet" x="739.5" y="-721"/>
<text text-anchor="start" x="754.5" y="-712.2" font-family="Helvetica,sans-Serif" font-size="11.00">status</text>
<polygon fill="none" stroke="black" points="941.5,-704 941.5,-726 1077.5,-726 1077.5,-704 941.5,-704"/>
<text text-anchor="start" x="944.5" y="-712.2" font-family="Helvetica,sans-Serif" font-size="11.00">int4[10]</text>
<polygon fill="none" stroke="black" points="734.5,-682 734.5,-704 941.5,-704 941.5,-682 734.5,-682"/>
<text text-anchor="start" x="754.5" y="-690.2" font-family="Helvetica,sans-Serif" font-size="11.00">sur_plus_cover</text>
<polygon fill="none" stroke="black" points="941.5,-682 941.5,-704 1077.5,-704 1077.5,-682 941.5,-682"/>
<text text-anchor="start" x="944.5" y="-690.2" font-family="Helvetica,sans-Serif" font-size="11.00">numeric[4,1]</text>
<polygon fill="none" stroke="black" points="734.5,-660 734.5,-682 941.5,-682 941.5,-660 734.5,-660"/>
<text text-anchor="start" x="754.5" y="-668.2" font-family="Helvetica,sans-Serif" font-size="11.00">condition</text>
<polygon fill="none" stroke="black" points="941.5,-660 941.5,-682 1077.5,-682 1077.5,-660 941.5,-660"/>
<text text-anchor="start" x="944.5" y="-668.2" font-family="Helvetica,sans-Serif" font-size="11.00">text[2147483647]</text>
<polygon fill="none" stroke="black" points="734.5,-638 734.5,-660 941.5,-660 941.5,-638 734.5,-638"/>
<text text-anchor="start" x="754.5" y="-646.2" font-family="Helvetica,sans-Serif" font-size="11.00">remark</text>
<polygon fill="none" stroke="black" points="941.5,-638 941.5,-660 1077.5,-660 1077.5,-638 941.5,-638"/>
<text text-anchor="start" x="944.5" y="-646.2" font-family="Helvetica,sans-Serif" font-size="11.00">text[2147483647]</text>
<polygon fill="#ffffff" stroke="transparent" points="734.5,-616 734.5,-638 941.5,-638 941.5,-616 734.5,-616"/>
<polygon fill="none" stroke="black" points="734.5,-616 734.5,-638 941.5,-638 941.5,-616 734.5,-616"/>
<text text-anchor="start" x="754.5" y="-624.2" font-family="Helvetica,sans-Serif" font-size="11.00">geometry3d_geometry</text>
<polygon fill="none" stroke="black" points="941.5,-616 941.5,-638 1077.5,-638 1077.5,-616 941.5,-616"/>
<text text-anchor="start" x="944.5" y="-624.2" font-family="Helvetica,sans-Serif" font-size="11.00">geometry[2147483647]</text>
<polygon fill="none" stroke="black" points="734.5,-594 734.5,-616 941.5,-616 941.5,-594 734.5,-594"/>
<text text-anchor="start" x="754.5" y="-602.2" font-family="Helvetica,sans-Serif" font-size="11.00">last_modification</text>
<polygon fill="none" stroke="black" points="941.5,-594 941.5,-616 1077.5,-616 1077.5,-594 941.5,-594"/>
<text text-anchor="start" x="944.5" y="-602.2" font-family="Helvetica,sans-Serif" font-size="11.00">timestamp[29,6]</text>
<polygon fill="#ffffff" stroke="transparent" points="734.5,-572 734.5,-594 941.5,-594 941.5,-572 734.5,-572"/>
<polygon fill="none" stroke="black" points="734.5,-572 734.5,-594 941.5,-594 941.5,-572 734.5,-572"/>
<image xlink:href="../../images/foreignKeys.png" width="11px" height="12px" preserveAspectRatio="xMinYMin meet" x="739.5" y="-589"/>
<text text-anchor="start" x="754.5" y="-580.2" font-family="Helvetica,sans-Serif" font-size="11.00">fk_dataowner</text>
<polygon fill="none" stroke="black" points="941.5,-572 941.5,-594 1077.5,-594 1077.5,-572 941.5,-572"/>
<text text-anchor="start" x="944.5" y="-580.2" font-family="Helvetica,sans-Serif" font-size="11.00">varchar[16]</text>
<polygon fill="none" stroke="black" points="734.5,-550 734.5,-572 941.5,-572 941.5,-550 734.5,-550"/>
<image xlink:href="../../images/foreignKeys.png" width="11px" height="12px" preserveAspectRatio="xMinYMin meet" x="739.5" y="-567"/>
<text text-anchor="start" x="754.5" y="-558.2" font-family="Helvetica,sans-Serif" font-size="11.00">fk_provider</text>
<polygon fill="none" stroke="black" points="941.5,-550 941.5,-572 1077.5,-572 1077.5,-550 941.5,-550"/>
<text text-anchor="start" x="944.5" y="-558.2" font-family="Helvetica,sans-Serif" font-size="11.00">varchar[16]</text>
<polygon fill="none" stroke="black" points="734.5,-528 734.5,-550 941.5,-550 941.5,-528 734.5,-528"/>
<image xlink:href="../../images/foreignKeys.png" width="11px" height="12px" preserveAspectRatio="xMinYMin meet" x="739.5" y="-545"/>
<text text-anchor="start" x="754.5" y="-536.2" font-family="Helvetica,sans-Serif" font-size="11.00">fk_owner</text>
<polygon fill="none" stroke="black" points="941.5,-528 941.5,-550 1077.5,-550 1077.5,-528 941.5,-528"/>
<text text-anchor="start" x="944.5" y="-536.2" font-family="Helvetica,sans-Serif" font-size="11.00">varchar[16]</text>
<polygon fill="none" stroke="black" points="734.5,-506 734.5,-528 941.5,-528 941.5,-506 734.5,-506"/>
<image xlink:href="../../images/foreignKeys.png" width="11px" height="12px" preserveAspectRatio="xMinYMin meet" x="739.5" y="-523"/>
<text text-anchor="start" x="754.5" y="-514.2" font-family="Helvetica,sans-Serif" font-size="11.00">fk_pipe_section</text>
<polygon fill="none" stroke="black" points="941.5,-506 941.5,-528 1077.5,-528 1077.5,-506 941.5,-506"/>
<text text-anchor="start" x="944.5" y="-514.2" font-family="Helvetica,sans-Serif" font-size="11.00">varchar[16]</text>
<polygon fill="#ffffff" stroke="transparent" points="734.5,-488 734.5,-506 1077.5,-506 1077.5,-488 734.5,-488"/>
<polygon fill="none" stroke="black" points="734.5,-488 734.5,-506 1077.5,-506 1077.5,-488 734.5,-488"/>
<polygon fill="#ffffff" stroke="transparent" points="735.5,-489 735.5,-505 853.5,-505 853.5,-489 735.5,-489"/>
<text text-anchor="start" x="737.5" y="-494.2" font-family="Helvetica,sans-Serif" font-size="11.00">&lt; 7</text>
<polygon fill="#ffffff" stroke="transparent" points="853.5,-489 853.5,-505 959.5,-505 959.5,-489 853.5,-489"/>
<text text-anchor="start" x="902.5" y="-494.2" font-family="Helvetica,sans-Serif" font-size="11.00"> &#160;</text>
<polygon fill="#ffffff" stroke="transparent" points="959.5,-489 959.5,-505 1076.5,-505 1076.5,-489 959.5,-489"/>
<text text-anchor="start" x="1054.5" y="-494.2" font-family="Helvetica,sans-Serif" font-size="11.00">0 &gt;</text>
<polygon fill="black" stroke="black" points="853.5,-489 853.5,-505 853.5,-505 853.5,-489 853.5,-489"/>
<polygon fill="black" stroke="black" points="959.5,-489 959.5,-505 959.5,-505 959.5,-489 959.5,-489"/>
<polygon fill="none" stroke="black" stroke-width="2" points="733,-487 733,-925 1078,-925 1078,-487 733,-487"/>
</a>
</g>
</g>
<!-- sia405pt_protection_tube&#45;&gt;pipe_section -->
<g id="edge7" class="edge">
<title>sia405pt_protection_tube:w&#45;&gt;pipe_section:e</title>
<path fill="none" stroke="black" d="M718.72,-516.58C648.36,-512.52 628.59,-480 551,-480"/>
<polygon fill="black" stroke="black" points="725.5,-516.78 733.4,-520.6 729.5,-516.89 733.5,-517 733.5,-517 733.5,-517 729.5,-516.89 733.6,-513.4 725.5,-516.78 725.5,-516.78"/>
<ellipse fill="none" stroke="black" cx="722.3" cy="-516.69" rx="3.2" ry="3.2"/>
</g>
<!-- sia405pt_protection_tube&#45;&gt;organisation -->
<g id="edge5" class="edge">
<title>sia405pt_protection_tube:w&#45;&gt;organisation:e</title>
<path fill="none" stroke="black" d="M718.94,-583.31C595.35,-588.14 303.8,-647.04 223,-574 167.22,-523.58 258.19,-238 183,-238"/>
<polygon fill="black" stroke="black" points="725.5,-583.17 733.58,-586.6 729.5,-583.08 733.5,-583 733.5,-583 733.5,-583 729.5,-583.08 733.42,-579.4 725.5,-583.17 725.5,-583.17"/>
<ellipse fill="none" stroke="black" cx="722.3" cy="-583.24" rx="3.2" ry="3.2"/>
</g>
<!-- sia405pt_protection_tube&#45;&gt;organisation -->
<g id="edge6" class="edge">
<title>sia405pt_protection_tube:w&#45;&gt;organisation:e</title>
<path fill="none" stroke="black" d="M718.88,-539.24C626.75,-541.5 262.6,-558.53 223,-523 175.4,-480.29 246.95,-238 183,-238"/>
<polygon fill="black" stroke="black" points="725.5,-539.13 733.56,-542.6 729.5,-539.06 733.5,-539 733.5,-539 733.5,-539 729.5,-539.06 733.44,-535.4 725.5,-539.13 725.5,-539.13"/>
<ellipse fill="none" stroke="black" cx="722.3" cy="-539.18" rx="3.2" ry="3.2"/>
</g>
<!-- sia405pt_protection_tube&#45;&gt;organisation -->
<g id="edge8" class="edge">
<title>sia405pt_protection_tube:w&#45;&gt;organisation:e</title>
<path fill="none" stroke="black" d="M718.88,-561.24C626.73,-563.53 262.42,-580.73 223,-545 172.02,-498.8 251.8,-238 183,-238"/>
<polygon fill="black" stroke="black" points="725.5,-561.13 733.56,-564.6 729.5,-561.07 733.5,-561 733.5,-561 733.5,-561 729.5,-561.07 733.44,-557.4 725.5,-561.13 725.5,-561.13"/>
<ellipse fill="none" stroke="black" cx="722.3" cy="-561.18" rx="3.2" ry="3.2"/>
</g>
<!-- tdh_vl.sia405pt_protection_tube_horizontal_positioning -->
<g id="node4" class="node">
<title>tdh_vl.sia405pt_protection_tube_horizontal_positioning</title>
<g id="a_node4"><a xlink:href="../../../tdh_vl/tables/sia405pt_protection_tube_horizo_431f8400.html" xlink:title="tdh_vl.sia405pt_protection_tube_horizontal_positioning" target="_top">
<polygon fill="#ffffff" stroke="transparent" points="231,-724 231,-782 683,-782 683,-724 231,-724"/>
<polygon fill="#f5f5f5" stroke="transparent" points="231,-760 231,-782 683,-782 683,-760 231,-760"/>
<polygon fill="none" stroke="black" points="231,-760 231,-782 683,-782 683,-760 231,-760"/>
<text text-anchor="start" x="236" y="-769.2" font-family="Helvetica,sans-Serif" font-weight="bold" font-size="11.00">tdh_vl.sia405pt_protection_tube_horizontal_positioning</text>
<text text-anchor="start" x="641" y="-768.2" font-family="Helvetica,sans-Serif" font-size="11.00">[table]</text>
<polygon fill="none" stroke="black" points="231,-742 231,-760 683,-760 683,-742 231,-742"/>
<text text-anchor="start" x="234" y="-748.2" font-family="Helvetica,sans-Serif" font-size="11.00">...</text>
<polygon fill="#ffffff" stroke="transparent" points="231,-724 231,-742 683,-742 683,-724 231,-724"/>
<polygon fill="none" stroke="black" points="231,-724 231,-742 683,-742 683,-724 231,-724"/>
<polygon fill="#ffffff" stroke="transparent" points="232,-725 232,-741 369,-741 369,-725 232,-725"/>
<text text-anchor="start" x="234" y="-730.2" font-family="Helvetica,sans-Serif" font-size="11.00"> &#160;</text>
<polygon fill="#ffffff" stroke="transparent" points="369,-725 369,-741 534,-741 534,-725 369,-725"/>
<text text-anchor="start" x="433" y="-730.2" font-family="Helvetica,sans-Serif" font-size="11.00">0 rows</text>
<polygon fill="#ffffff" stroke="transparent" points="534,-725 534,-741 682,-741 682,-725 534,-725"/>
<text text-anchor="start" x="660" y="-730.2" font-family="Helvetica,sans-Serif" font-size="11.00">1 &gt;</text>
<polygon fill="black" stroke="black" points="369,-725 369,-741 369,-741 369,-725 369,-725"/>
<polygon fill="black" stroke="black" points="534,-725 534,-741 534,-741 534,-725 534,-725"/>
</a>
</g>
</g>
<!-- sia405pt_protection_tube&#45;&gt;tdh_vl.sia405pt_protection_tube_horizontal_positioning -->
<g id="edge9" class="edge">
<title>sia405pt_protection_tube:w&#45;&gt;tdh_vl.sia405pt_protection_tube_horizontal_positioning:e</title>
<path fill="none" stroke="black" d="M718.84,-737.07C709.76,-737.16 700.55,-737.33 691.29,-737.56"/>
<polygon fill="black" stroke="black" points="725.5,-737.04 733.52,-740.6 729.5,-737.02 733.5,-737 733.5,-737 733.5,-737 729.5,-737.02 733.48,-733.4 725.5,-737.04 725.5,-737.04"/>
<ellipse fill="none" stroke="black" cx="722.3" cy="-737.06" rx="3.2" ry="3.2"/>
</g>
<!-- tdh_vl.sia405pt_protection_tube_material -->
<g id="node5" class="node">
<title>tdh_vl.sia405pt_protection_tube_material</title>
<g id="a_node5"><a xlink:href="../../../tdh_vl/tables/sia405pt_protection_tube_material.html" xlink:title="tdh_vl.sia405pt_protection_tube_material" target="_top">
<polygon fill="#ffffff" stroke="transparent" points="282,-818 282,-876 632,-876 632,-818 282,-818"/>
<polygon fill="#f5f5f5" stroke="transparent" points="282,-854 282,-876 632,-876 632,-854 282,-854"/>
<polygon fill="none" stroke="black" points="282,-854 282,-876 632,-876 632,-854 282,-854"/>
<text text-anchor="start" x="287" y="-863.2" font-family="Helvetica,sans-Serif" font-weight="bold" font-size="11.00">tdh_vl.sia405pt_protection_tube_material</text>
<text text-anchor="start" x="590" y="-862.2" font-family="Helvetica,sans-Serif" font-size="11.00">[table]</text>
<polygon fill="none" stroke="black" points="282,-836 282,-854 632,-854 632,-836 282,-836"/>
<text text-anchor="start" x="285" y="-842.2" font-family="Helvetica,sans-Serif" font-size="11.00">...</text>
<polygon fill="#ffffff" stroke="transparent" points="282,-818 282,-836 632,-836 632,-818 282,-818"/>
<polygon fill="none" stroke="black" points="282,-818 282,-836 632,-836 632,-818 282,-818"/>
<polygon fill="#ffffff" stroke="transparent" points="283,-819 283,-835 386,-835 386,-819 283,-819"/>
<text text-anchor="start" x="285" y="-824.2" font-family="Helvetica,sans-Serif" font-size="11.00"> &#160;</text>
<polygon fill="#ffffff" stroke="transparent" points="386,-819 386,-835 517,-835 517,-819 386,-819"/>
<text text-anchor="start" x="433" y="-824.2" font-family="Helvetica,sans-Serif" font-size="11.00">0 rows</text>
<polygon fill="#ffffff" stroke="transparent" points="517,-819 517,-835 631,-835 631,-819 517,-819"/>
<text text-anchor="start" x="609" y="-824.2" font-family="Helvetica,sans-Serif" font-size="11.00">1 &gt;</text>
<polygon fill="black" stroke="black" points="386,-819 386,-835 386,-835 386,-819 386,-819"/>
<polygon fill="black" stroke="black" points="517,-819 517,-835 517,-835 517,-819 517,-819"/>
</a>
</g>
</g>
<!-- sia405pt_protection_tube&#45;&gt;tdh_vl.sia405pt_protection_tube_material -->
<g id="edge10" class="edge">
<title>sia405pt_protection_tube:w&#45;&gt;tdh_vl.sia405pt_protection_tube_material:e</title>
<path fill="none" stroke="black" d="M718.89,-847C693.14,-847 666.4,-847 640.28,-847"/>
<polygon fill="black" stroke="black" points="725.5,-847 733.5,-850.6 729.5,-847 733.5,-847 733.5,-847 733.5,-847 729.5,-847 733.5,-843.4 725.5,-847 725.5,-847"/>
<ellipse fill="none" stroke="black" cx="722.3" cy="-847" rx="3.2" ry="3.2"/>
</g>
<!-- tdh_vl.sia405pt_protection_tube_status -->
<g id="node6" class="node">
<title>tdh_vl.sia405pt_protection_tube_status</title>
<g id="a_node6"><a xlink:href="../../../tdh_vl/tables/sia405pt_protection_tube_status.html" xlink:title="tdh_vl.sia405pt_protection_tube_status" target="_top">
<polygon fill="#ffffff" stroke="transparent" points="289.5,-645 289.5,-703 624.5,-703 624.5,-645 289.5,-645"/>
<polygon fill="#f5f5f5" stroke="transparent" points="290,-681 290,-703 625,-703 625,-681 290,-681"/>
<polygon fill="none" stroke="black" points="290,-681 290,-703 625,-703 625,-681 290,-681"/>
<text text-anchor="start" x="295" y="-690.2" font-family="Helvetica,sans-Serif" font-weight="bold" font-size="11.00">tdh_vl.sia405pt_protection_tube_status</text>
<text text-anchor="start" x="583" y="-689.2" font-family="Helvetica,sans-Serif" font-size="11.00">[table]</text>
<polygon fill="none" stroke="black" points="290,-663 290,-681 625,-681 625,-663 290,-663"/>
<text text-anchor="start" x="293" y="-669.2" font-family="Helvetica,sans-Serif" font-size="11.00">...</text>
<polygon fill="#ffffff" stroke="transparent" points="290,-645 290,-663 625,-663 625,-645 290,-645"/>
<polygon fill="none" stroke="black" points="290,-645 290,-663 625,-663 625,-645 290,-645"/>
<polygon fill="#ffffff" stroke="transparent" points="291,-646 291,-662 389,-662 389,-646 291,-646"/>
<text text-anchor="start" x="293" y="-651.2" font-family="Helvetica,sans-Serif" font-size="11.00"> &#160;</text>
<polygon fill="#ffffff" stroke="transparent" points="389,-646 389,-662 515,-662 515,-646 389,-646"/>
<text text-anchor="start" x="433.5" y="-651.2" font-family="Helvetica,sans-Serif" font-size="11.00">0 rows</text>
<polygon fill="#ffffff" stroke="transparent" points="515,-646 515,-662 624,-662 624,-646 515,-646"/>
<text text-anchor="start" x="602" y="-651.2" font-family="Helvetica,sans-Serif" font-size="11.00">1 &gt;</text>
<polygon fill="black" stroke="black" points="389,-646 389,-662 389,-662 389,-646 389,-646"/>
<polygon fill="black" stroke="black" points="515,-646 515,-662 515,-662 515,-646 515,-646"/>
</a>
</g>
</g>
<!-- sia405pt_protection_tube&#45;&gt;tdh_vl.sia405pt_protection_tube_status -->
<g id="edge11" class="edge">
<title>sia405pt_protection_tube:w&#45;&gt;tdh_vl.sia405pt_protection_tube_status:e</title>
<path fill="none" stroke="black" d="M719.06,-714.82C688.44,-714.08 656.57,-711.09 626.05,-707.05"/>
<polygon fill="black" stroke="black" points="725.5,-714.9 733.46,-718.6 729.5,-714.95 733.5,-715 733.5,-715 733.5,-715 729.5,-714.95 733.54,-711.4 725.5,-714.9 725.5,-714.9"/>
<ellipse fill="none" stroke="black" cx="722.3" cy="-714.86" rx="3.2" ry="3.2"/>
</g>
</g>
</svg>
