<?xml version="1.0" encoding="UTF-8" standalone="no"?>
<!DOCTYPE svg PUBLIC "-//W3C//DTD SVG 1.1//EN"
 "http://www.w3.org/Graphics/SVG/1.1/DTD/svg11.dtd">
<!-- Generated by graphviz version 2.43.0 (0)
 -->
<!-- Title: oneDegreeRelationshipsDiagram Pages: 1 -->
<svg width="967pt" height="716pt"
 viewBox="0.00 0.00 967.00 716.00" xmlns="http://www.w3.org/2000/svg" xmlns:xlink="http://www.w3.org/1999/xlink">
<g id="graph0" class="graph" transform="scale(1 1) rotate(0) translate(4 712)">
<title>oneDegreeRelationshipsDiagram</title>
<polygon fill="#ffffff" stroke="transparent" points="-4,4 -4,-712 963,-712 963,4 -4,4"/>
<text text-anchor="middle" x="79.5" y="-7.2" font-family="Helvetica,sans-Serif" font-size="11.00">Generated by SchemaSpy</text>
<!-- trench -->
<g id="node1" class="node">
<title>trench</title>
<g id="a_node1"><a xlink:href="../../tables/trench.html" xlink:title="trench" target="_top">
<polygon fill="#ffffff" stroke="transparent" points="370,-125 370,-653 716,-653 716,-125 370,-125"/>
<polygon fill="#f5f5f5" stroke="transparent" points="372,-629 372,-651 714,-651 714,-629 372,-629"/>
<polygon fill="none" stroke="black" points="372,-629 372,-651 714,-651 714,-629 372,-629"/>
<text text-anchor="start" x="377" y="-638.2" font-family="Helvetica,sans-Serif" font-weight="bold" font-size="11.00">trench</text>
<text text-anchor="start" x="672" y="-637.2" font-family="Helvetica,sans-Serif" font-size="11.00">[table]</text>
<polygon fill="none" stroke="black" points="372,-607 372,-629 578,-629 578,-607 372,-607"/>
<image xlink:href="../../images/primaryKeys.png" width="11px" height="12px" preserveAspectRatio="xMinYMin meet" x="377" y="-624"/>
<text text-anchor="start" x="392" y="-615.2" font-family="Helvetica,sans-Serif" font-size="11.00">obj_id</text>
<polygon fill="none" stroke="black" points="578,-607 578,-629 714,-629 714,-607 578,-607"/>
<text text-anchor="start" x="581" y="-615.2" font-family="Helvetica,sans-Serif" font-size="11.00">varchar[16]</text>
<polygon fill="#ffffff" stroke="transparent" points="372,-585 372,-607 578,-607 578,-585 372,-585"/>
<polygon fill="none" stroke="black" points="372,-585 372,-607 578,-607 578,-585 372,-585"/>
<text text-anchor="start" x="392" y="-593.2" font-family="Helvetica,sans-Serif" font-size="11.00">name_number</text>
<polygon fill="none" stroke="black" points="578,-585 578,-607 714,-607 714,-585 578,-585"/>
<text text-anchor="start" x="581" y="-593.2" font-family="Helvetica,sans-Serif" font-size="11.00">text[2147483647]</text>
<polygon fill="#ffffff" stroke="transparent" points="372,-563 372,-585 578,-585 578,-563 372,-563"/>
<polygon fill="none" stroke="black" points="372,-563 372,-585 578,-585 578,-563 372,-563"/>
<text text-anchor="start" x="392" y="-571.2" font-family="Helvetica,sans-Serif" font-size="11.00">geometry3d_geometry</text>
<polygon fill="none" stroke="black" points="578,-563 578,-585 714,-585 714,-563 578,-563"/>
<text text-anchor="start" x="581" y="-571.2" font-family="Helvetica,sans-Serif" font-size="11.00">geometry[2147483647]</text>
<polygon fill="none" stroke="black" points="372,-541 372,-563 578,-563 578,-541 372,-541"/>
<image xlink:href="../../images/foreignKeys.png" width="11px" height="12px" preserveAspectRatio="xMinYMin meet" x="377" y="-558"/>
<text text-anchor="start" x="392" y="-549.2" font-family="Helvetica,sans-Serif" font-size="11.00">horizontal_positioning</text>
<polygon fill="none" stroke="black" points="578,-541 578,-563 714,-563 714,-541 578,-541"/>
<text text-anchor="start" x="581" y="-549.2" font-family="Helvetica,sans-Serif" font-size="11.00">int4[10]</text>
<polygon fill="none" stroke="black" points="372,-519 372,-541 578,-541 578,-519 372,-519"/>
<image xlink:href="../../images/foreignKeys.png" width="11px" height="12px" preserveAspectRatio="xMinYMin meet" x="377" y="-536"/>
<text text-anchor="start" x="392" y="-527.2" font-family="Helvetica,sans-Serif" font-size="11.00">status</text>
<polygon fill="none" stroke="black" points="578,-519 578,-541 714,-541 714,-519 578,-519"/>
<text text-anchor="start" x="581" y="-527.2" font-family="Helvetica,sans-Serif" font-size="11.00">int4[10]</text>
<polygon fill="none" stroke="black" points="372,-497 372,-519 578,-519 578,-497 372,-497"/>
<image xlink:href="../../images/foreignKeys.png" width="11px" height="12px" preserveAspectRatio="xMinYMin meet" x="377" y="-514"/>
<text text-anchor="start" x="392" y="-505.2" font-family="Helvetica,sans-Serif" font-size="11.00">trench_type</text>
<polygon fill="none" stroke="black" points="578,-497 578,-519 714,-519 714,-497 578,-497"/>
<text text-anchor="start" x="581" y="-505.2" font-family="Helvetica,sans-Serif" font-size="11.00">int4[10]</text>
<polygon fill="none" stroke="black" points="372,-475 372,-497 578,-497 578,-475 372,-475"/>
<text text-anchor="start" x="392" y="-483.2" font-family="Helvetica,sans-Serif" font-size="11.00">trench_width</text>
<polygon fill="none" stroke="black" points="578,-475 578,-497 714,-497 714,-475 578,-475"/>
<text text-anchor="start" x="581" y="-483.2" font-family="Helvetica,sans-Serif" font-size="11.00">int2[5]</text>
<polygon fill="none" stroke="black" points="372,-453 372,-475 578,-475 578,-453 372,-453"/>
<text text-anchor="start" x="392" y="-461.2" font-family="Helvetica,sans-Serif" font-size="11.00">installation_year</text>
<polygon fill="none" stroke="black" points="578,-453 578,-475 714,-475 714,-453 578,-453"/>
<text text-anchor="start" x="581" y="-461.2" font-family="Helvetica,sans-Serif" font-size="11.00">int2[5]</text>
<polygon fill="none" stroke="black" points="372,-431 372,-453 578,-453 578,-431 372,-431"/>
<image xlink:href="../../images/foreignKeys.png" width="11px" height="12px" preserveAspectRatio="xMinYMin meet" x="377" y="-448"/>
<text text-anchor="start" x="392" y="-439.2" font-family="Helvetica,sans-Serif" font-size="11.00">embedding</text>
<polygon fill="none" stroke="black" points="578,-431 578,-453 714,-453 714,-431 578,-431"/>
<text text-anchor="start" x="581" y="-439.2" font-family="Helvetica,sans-Serif" font-size="11.00">int4[10]</text>
<polygon fill="none" stroke="black" points="372,-409 372,-431 578,-431 578,-409 372,-409"/>
<image xlink:href="../../images/foreignKeys.png" width="11px" height="12px" preserveAspectRatio="xMinYMin meet" x="377" y="-426"/>
<text text-anchor="start" x="392" y="-417.2" font-family="Helvetica,sans-Serif" font-size="11.00">control_system</text>
<polygon fill="none" stroke="black" points="578,-409 578,-431 714,-431 714,-409 578,-409"/>
<text text-anchor="start" x="581" y="-417.2" font-family="Helvetica,sans-Serif" font-size="11.00">int4[10]</text>
<polygon fill="none" stroke="black" points="372,-387 372,-409 578,-409 578,-387 372,-387"/>
<image xlink:href="../../images/foreignKeys.png" width="11px" height="12px" preserveAspectRatio="xMinYMin meet" x="377" y="-404"/>
<text text-anchor="start" x="392" y="-395.2" font-family="Helvetica,sans-Serif" font-size="11.00">cable_conduits</text>
<polygon fill="none" stroke="black" points="578,-387 578,-409 714,-409 714,-387 578,-387"/>
<text text-anchor="start" x="581" y="-395.2" font-family="Helvetica,sans-Serif" font-size="11.00">int4[10]</text>
<polygon fill="none" stroke="black" points="372,-365 372,-387 578,-387 578,-365 372,-365"/>
<text text-anchor="start" x="392" y="-373.2" font-family="Helvetica,sans-Serif" font-size="11.00">construction_company</text>
<polygon fill="none" stroke="black" points="578,-365 578,-387 714,-387 714,-365 578,-365"/>
<text text-anchor="start" x="581" y="-373.2" font-family="Helvetica,sans-Serif" font-size="11.00">text[2147483647]</text>
<polygon fill="none" stroke="black" points="372,-343 372,-365 578,-365 578,-343 372,-343"/>
<text text-anchor="start" x="392" y="-351.2" font-family="Helvetica,sans-Serif" font-size="11.00">repair</text>
<polygon fill="none" stroke="black" points="578,-343 578,-365 714,-365 714,-343 578,-343"/>
<text text-anchor="start" x="581" y="-351.2" font-family="Helvetica,sans-Serif" font-size="11.00">timestamp[29,6]</text>
<polygon fill="none" stroke="black" points="372,-321 372,-343 578,-343 578,-321 372,-321"/>
<text text-anchor="start" x="392" y="-329.2" font-family="Helvetica,sans-Serif" font-size="11.00">documentation</text>
<polygon fill="none" stroke="black" points="578,-321 578,-343 714,-343 714,-321 578,-321"/>
<text text-anchor="start" x="581" y="-329.2" font-family="Helvetica,sans-Serif" font-size="11.00">text[2147483647]</text>
<polygon fill="none" stroke="black" points="372,-299 372,-321 578,-321 578,-299 372,-299"/>
<text text-anchor="start" x="392" y="-307.2" font-family="Helvetica,sans-Serif" font-size="11.00">mandate</text>
<polygon fill="none" stroke="black" points="578,-299 578,-321 714,-321 714,-299 578,-299"/>
<text text-anchor="start" x="581" y="-307.2" font-family="Helvetica,sans-Serif" font-size="11.00">text[2147483647]</text>
<polygon fill="none" stroke="black" points="372,-277 372,-299 578,-299 578,-277 372,-277"/>
<text text-anchor="start" x="392" y="-285.2" font-family="Helvetica,sans-Serif" font-size="11.00">remark</text>
<polygon fill="none" stroke="black" points="578,-277 578,-299 714,-299 714,-277 578,-277"/>
<text text-anchor="start" x="581" y="-285.2" font-family="Helvetica,sans-Serif" font-size="11.00">text[2147483647]</text>
<polygon fill="none" stroke="black" points="372,-255 372,-277 578,-277 578,-255 372,-255"/>
<text text-anchor="start" x="392" y="-263.2" font-family="Helvetica,sans-Serif" font-size="11.00">depth</text>
<polygon fill="none" stroke="black" points="578,-255 578,-277 714,-277 714,-255 578,-255"/>
<text text-anchor="start" x="581" y="-263.2" font-family="Helvetica,sans-Serif" font-size="11.00">int2[5]</text>
<polygon fill="none" stroke="black" points="372,-233 372,-255 578,-255 578,-233 372,-233"/>
<text text-anchor="start" x="392" y="-241.2" font-family="Helvetica,sans-Serif" font-size="11.00">last_modification</text>
<polygon fill="none" stroke="black" points="578,-233 578,-255 714,-255 714,-233 578,-233"/>
<text text-anchor="start" x="581" y="-241.2" font-family="Helvetica,sans-Serif" font-size="11.00">timestamp[29,6]</text>
<polygon fill="#ffffff" stroke="transparent" points="372,-211 372,-233 578,-233 578,-211 372,-211"/>
<polygon fill="none" stroke="black" points="372,-211 372,-233 578,-233 578,-211 372,-211"/>
<image xlink:href="../../images/foreignKeys.png" width="11px" height="12px" preserveAspectRatio="xMinYMin meet" x="377" y="-228"/>
<text text-anchor="start" x="392" y="-219.2" font-family="Helvetica,sans-Serif" font-size="11.00">fk_dataowner</text>
<polygon fill="none" stroke="black" points="578,-211 578,-233 714,-233 714,-211 578,-211"/>
<text text-anchor="start" x="581" y="-219.2" font-family="Helvetica,sans-Serif" font-size="11.00">varchar[16]</text>
<polygon fill="none" stroke="black" points="372,-189 372,-211 578,-211 578,-189 372,-189"/>
<image xlink:href="../../images/foreignKeys.png" width="11px" height="12px" preserveAspectRatio="xMinYMin meet" x="377" y="-206"/>
<text text-anchor="start" x="392" y="-197.2" font-family="Helvetica,sans-Serif" font-size="11.00">fk_provider</text>
<polygon fill="none" stroke="black" points="578,-189 578,-211 714,-211 714,-189 578,-189"/>
<text text-anchor="start" x="581" y="-197.2" font-family="Helvetica,sans-Serif" font-size="11.00">varchar[16]</text>
<polygon fill="none" stroke="black" points="372,-167 372,-189 578,-189 578,-167 372,-167"/>
<image xlink:href="../../images/foreignKeys.png" width="11px" height="12px" preserveAspectRatio="xMinYMin meet" x="377" y="-184"/>
<text text-anchor="start" x="392" y="-175.2" font-family="Helvetica,sans-Serif" font-size="11.00">fk_owner</text>
<polygon fill="none" stroke="black" points="578,-167 578,-189 714,-189 714,-167 578,-167"/>
<text text-anchor="start" x="581" y="-175.2" font-family="Helvetica,sans-Serif" font-size="11.00">varchar[16]</text>
<polygon fill="none" stroke="black" points="372,-145 372,-167 578,-167 578,-145 372,-145"/>
<image xlink:href="../../images/foreignKeys.png" width="11px" height="12px" preserveAspectRatio="xMinYMin meet" x="377" y="-162"/>
<text text-anchor="start" x="392" y="-153.2" font-family="Helvetica,sans-Serif" font-size="11.00">fk_construction_company</text>
<polygon fill="none" stroke="black" points="578,-145 578,-167 714,-167 714,-145 578,-145"/>
<text text-anchor="start" x="581" y="-153.2" font-family="Helvetica,sans-Serif" font-size="11.00">varchar[16]</text>
<polygon fill="#ffffff" stroke="transparent" points="372,-127 372,-145 714,-145 714,-127 372,-127"/>
<polygon fill="none" stroke="black" points="372,-127 372,-145 714,-145 714,-127 372,-127"/>
<polygon fill="#ffffff" stroke="transparent" points="373,-128 373,-144 495,-144 495,-128 373,-128"/>
<text text-anchor="start" x="375" y="-133.2" font-family="Helvetica,sans-Serif" font-size="11.00">&lt; 10</text>
<polygon fill="#ffffff" stroke="transparent" points="495,-128 495,-144 598,-144 598,-128 495,-128"/>
<text text-anchor="start" x="542.5" y="-133.2" font-family="Helvetica,sans-Serif" font-size="11.00"> &#160;</text>
<polygon fill="#ffffff" stroke="transparent" points="598,-128 598,-144 713,-144 713,-128 598,-128"/>
<text text-anchor="start" x="691" y="-133.2" font-family="Helvetica,sans-Serif" font-size="11.00">1 &gt;</text>
<polygon fill="black" stroke="black" points="495,-128 495,-144 495,-144 495,-128 495,-128"/>
<polygon fill="black" stroke="black" points="598,-128 598,-144 598,-144 598,-128 598,-128"/>
<polygon fill="none" stroke="black" stroke-width="2" points="371,-126 371,-652 715,-652 715,-126 371,-126"/>
</a>
</g>
</g>
<!-- tdh_vl.trench_cable_conduits -->
<g id="node2" class="node">
<title>tdh_vl.trench_cable_conduits</title>
<g id="a_node2"><a xlink:href="../../../tdh_vl/tables/trench_cable_conduits.html" xlink:title="tdh_vl.trench_cable_conduits" target="_top">
<polygon fill="#ffffff" stroke="transparent" points="35.5,-251 35.5,-309 293.5,-309 293.5,-251 35.5,-251"/>
<polygon fill="#f5f5f5" stroke="transparent" points="35.5,-287 35.5,-309 293.5,-309 293.5,-287 35.5,-287"/>
<polygon fill="none" stroke="black" points="35.5,-287 35.5,-309 293.5,-309 293.5,-287 35.5,-287"/>
<text text-anchor="start" x="40.5" y="-296.2" font-family="Helvetica,sans-Serif" font-weight="bold" font-size="11.00">tdh_vl.trench_cable_conduits</text>
<text text-anchor="start" x="251.5" y="-295.2" font-family="Helvetica,sans-Serif" font-size="11.00">[table]</text>
<polygon fill="none" stroke="black" points="35.5,-269 35.5,-287 293.5,-287 293.5,-269 35.5,-269"/>
<text text-anchor="start" x="38.5" y="-275.2" font-family="Helvetica,sans-Serif" font-size="11.00">...</text>
<polygon fill="#ffffff" stroke="transparent" points="35.5,-251 35.5,-269 293.5,-269 293.5,-251 35.5,-251"/>
<polygon fill="none" stroke="black" points="35.5,-251 35.5,-269 293.5,-269 293.5,-251 35.5,-251"/>
<polygon fill="#ffffff" stroke="transparent" points="36.5,-252 36.5,-268 108.5,-268 108.5,-252 36.5,-252"/>
<text text-anchor="start" x="38.5" y="-257.2" font-family="Helvetica,sans-Serif" font-size="11.00"> &#160;</text>
<polygon fill="#ffffff" stroke="transparent" points="108.5,-252 108.5,-268 209.5,-268 209.5,-252 108.5,-252"/>
<text text-anchor="start" x="140.5" y="-257.2" font-family="Helvetica,sans-Serif" font-size="11.00">0 rows</text>
<polygon fill="#ffffff" stroke="transparent" points="209.5,-252 209.5,-268 292.5,-268 292.5,-252 209.5,-252"/>
<text text-anchor="start" x="270.5" y="-257.2" font-family="Helvetica,sans-Serif" font-size="11.00">1 &gt;</text>
<polygon fill="black" stroke="black" points="108.5,-252 108.5,-268 108.5,-268 108.5,-252 108.5,-252"/>
<polygon fill="black" stroke="black" points="209.5,-252 209.5,-268 209.5,-268 209.5,-252 209.5,-252"/>
</a>
</g>
</g>
<!-- trench&#45;&gt;tdh_vl.trench_cable_conduits -->
<g id="edge1" class="edge">
<title>trench:w&#45;&gt;tdh_vl.trench_cable_conduits:e</title>
<path fill="none" stroke="black" d="M356.92,-394.32C338.89,-381.65 355.54,-339.52 329,-319 320.69,-312.57 311.48,-307.18 301.8,-302.67"/>
<polygon fill="black" stroke="black" points="363.26,-395.98 370.09,-401.48 367.13,-396.99 371,-398 371,-398 371,-398 367.13,-396.99 371.91,-394.52 363.26,-395.98 363.26,-395.98"/>
<ellipse fill="none" stroke="black" cx="360.16" cy="-395.17" rx="3.2" ry="3.2"/>
</g>
<!-- tdh_vl.trench_control_system -->
<g id="node3" class="node">
<title>tdh_vl.trench_control_system</title>
<g id="a_node3"><a xlink:href="../../../tdh_vl/tables/trench_control_system.html" xlink:title="tdh_vl.trench_control_system" target="_top">
<polygon fill="#ffffff" stroke="transparent" points="34,-330 34,-388 295,-388 295,-330 34,-330"/>
<polygon fill="#f5f5f5" stroke="transparent" points="34.5,-366 34.5,-388 295.5,-388 295.5,-366 34.5,-366"/>
<polygon fill="none" stroke="black" points="34.5,-366 34.5,-388 295.5,-388 295.5,-366 34.5,-366"/>
<text text-anchor="start" x="39.5" y="-375.2" font-family="Helvetica,sans-Serif" font-weight="bold" font-size="11.00">tdh_vl.trench_control_system</text>
<text text-anchor="start" x="253.5" y="-374.2" font-family="Helvetica,sans-Serif" font-size="11.00">[table]</text>
<polygon fill="none" stroke="black" points="34.5,-348 34.5,-366 295.5,-366 295.5,-348 34.5,-348"/>
<text text-anchor="start" x="37.5" y="-354.2" font-family="Helvetica,sans-Serif" font-size="11.00">...</text>
<polygon fill="#ffffff" stroke="transparent" points="34.5,-330 34.5,-348 295.5,-348 295.5,-330 34.5,-330"/>
<polygon fill="none" stroke="black" points="34.5,-330 34.5,-348 295.5,-348 295.5,-330 34.5,-330"/>
<polygon fill="#ffffff" stroke="transparent" points="35.5,-331 35.5,-347 108.5,-347 108.5,-331 35.5,-331"/>
<text text-anchor="start" x="37.5" y="-336.2" font-family="Helvetica,sans-Serif" font-size="11.00"> &#160;</text>
<polygon fill="#ffffff" stroke="transparent" points="108.5,-331 108.5,-347 210.5,-347 210.5,-331 108.5,-331"/>
<text text-anchor="start" x="141" y="-336.2" font-family="Helvetica,sans-Serif" font-size="11.00">0 rows</text>
<polygon fill="#ffffff" stroke="transparent" points="210.5,-331 210.5,-347 294.5,-347 294.5,-331 210.5,-331"/>
<text text-anchor="start" x="272.5" y="-336.2" font-family="Helvetica,sans-Serif" font-size="11.00">1 &gt;</text>
<polygon fill="black" stroke="black" points="108.5,-331 108.5,-347 108.5,-347 108.5,-331 108.5,-331"/>
<polygon fill="black" stroke="black" points="210.5,-331 210.5,-347 210.5,-347 210.5,-331 210.5,-331"/>
</a>
</g>
</g>
<!-- trench&#45;&gt;tdh_vl.trench_control_system -->
<g id="edge2" class="edge">
<title>trench:w&#45;&gt;tdh_vl.trench_control_system:e</title>
<path fill="none" stroke="black" d="M356.84,-417.03C347.73,-412.57 342.93,-404.11 329,-399 320.63,-395.93 311.94,-393.02 303.11,-390.28"/>
<polygon fill="black" stroke="black" points="363.17,-418.36 370.26,-423.52 367.09,-419.18 371,-420 371,-420 371,-420 367.09,-419.18 371.74,-416.48 363.17,-418.36 363.17,-418.36"/>
<ellipse fill="none" stroke="black" cx="360.04" cy="-417.7" rx="3.2" ry="3.2"/>
</g>
<!-- tdh_vl.trench_embedding -->
<g id="node4" class="node">
<title>tdh_vl.trench_embedding</title>
<g id="a_node4"><a xlink:href="../../../tdh_vl/tables/trench_embedding.html" xlink:title="tdh_vl.trench_embedding" target="_top">
<polygon fill="#ffffff" stroke="transparent" points="48.5,-409 48.5,-467 280.5,-467 280.5,-409 48.5,-409"/>
<polygon fill="#f5f5f5" stroke="transparent" points="48.5,-445 48.5,-467 280.5,-467 280.5,-445 48.5,-445"/>
<polygon fill="none" stroke="black" points="48.5,-445 48.5,-467 280.5,-467 280.5,-445 48.5,-445"/>
<text text-anchor="start" x="53.5" y="-454.2" font-family="Helvetica,sans-Serif" font-weight="bold" font-size="11.00">tdh_vl.trench_embedding</text>
<text text-anchor="start" x="238.5" y="-453.2" font-family="Helvetica,sans-Serif" font-size="11.00">[table]</text>
<polygon fill="none" stroke="black" points="48.5,-427 48.5,-445 280.5,-445 280.5,-427 48.5,-427"/>
<text text-anchor="start" x="51.5" y="-433.2" font-family="Helvetica,sans-Serif" font-size="11.00">...</text>
<polygon fill="#ffffff" stroke="transparent" points="48.5,-409 48.5,-427 280.5,-427 280.5,-409 48.5,-409"/>
<polygon fill="none" stroke="black" points="48.5,-409 48.5,-427 280.5,-427 280.5,-409 48.5,-409"/>
<polygon fill="#ffffff" stroke="transparent" points="49.5,-410 49.5,-426 112.5,-426 112.5,-410 49.5,-410"/>
<text text-anchor="start" x="51.5" y="-415.2" font-family="Helvetica,sans-Serif" font-size="11.00"> &#160;</text>
<polygon fill="#ffffff" stroke="transparent" points="112.5,-410 112.5,-426 204.5,-426 204.5,-410 112.5,-410"/>
<text text-anchor="start" x="140" y="-415.2" font-family="Helvetica,sans-Serif" font-size="11.00">0 rows</text>
<polygon fill="#ffffff" stroke="transparent" points="204.5,-410 204.5,-426 279.5,-426 279.5,-410 204.5,-410"/>
<text text-anchor="start" x="257.5" y="-415.2" font-family="Helvetica,sans-Serif" font-size="11.00">1 &gt;</text>
<polygon fill="black" stroke="black" points="112.5,-410 112.5,-426 112.5,-426 112.5,-410 112.5,-410"/>
<polygon fill="black" stroke="black" points="204.5,-410 204.5,-426 204.5,-426 204.5,-410 204.5,-410"/>
</a>
</g>
</g>
<!-- trench&#45;&gt;tdh_vl.trench_embedding -->
<g id="edge3" class="edge">
<title>trench:w&#45;&gt;tdh_vl.trench_embedding:e</title>
<path fill="none" stroke="black" d="M356.45,-441.97C334.09,-441.87 310.83,-441.57 288.56,-441.18"/>
<polygon fill="black" stroke="black" points="363,-441.98 370.99,-445.6 367,-441.99 371,-442 371,-442 371,-442 367,-441.99 371.01,-438.4 363,-441.98 363,-441.98"/>
<ellipse fill="none" stroke="black" cx="359.8" cy="-441.98" rx="3.2" ry="3.2"/>
</g>
<!-- organisation -->
<g id="node5" class="node">
<title>organisation</title>
<g id="a_node5"><a xlink:href="../../tables/organisation.html" xlink:title="organisation" target="_top">
<polygon fill="#ffffff" stroke="transparent" points="77.5,-37 77.5,-227 251.5,-227 251.5,-37 77.5,-37"/>
<polygon fill="#f5f5f5" stroke="transparent" points="77.5,-205 77.5,-227 251.5,-227 251.5,-205 77.5,-205"/>
<polygon fill="none" stroke="black" points="77.5,-205 77.5,-227 251.5,-227 251.5,-205 77.5,-205"/>
<text text-anchor="start" x="82.5" y="-214.2" font-family="Helvetica,sans-Serif" font-weight="bold" font-size="11.00">organisation</text>
<text text-anchor="start" x="209.5" y="-213.2" font-family="Helvetica,sans-Serif" font-size="11.00">[table]</text>
<polygon fill="none" stroke="black" points="77.5,-183 77.5,-205 251.5,-205 251.5,-183 77.5,-183"/>
<image xlink:href="../../images/primaryKeys.png" width="11px" height="12px" preserveAspectRatio="xMinYMin meet" x="82.5" y="-200"/>
<text text-anchor="start" x="97.5" y="-191.2" font-family="Helvetica,sans-Serif" font-size="11.00">obj_id</text>
<polygon fill="#ffffff" stroke="transparent" points="77.5,-161 77.5,-183 251.5,-183 251.5,-161 77.5,-161"/>
<polygon fill="none" stroke="black" points="77.5,-161 77.5,-183 251.5,-183 251.5,-161 77.5,-161"/>
<text text-anchor="start" x="97.5" y="-169.2" font-family="Helvetica,sans-Serif" font-size="11.00">identifier</text>
<polygon fill="none" stroke="black" points="77.5,-139 77.5,-161 251.5,-161 251.5,-139 77.5,-139"/>
<image xlink:href="../../images/foreignKeys.png" width="11px" height="12px" preserveAspectRatio="xMinYMin meet" x="82.5" y="-156"/>
<text text-anchor="start" x="97.5" y="-147.2" font-family="Helvetica,sans-Serif" font-size="11.00">organisation_type</text>
<polygon fill="none" stroke="black" points="77.5,-117 77.5,-139 251.5,-139 251.5,-117 77.5,-117"/>
<image xlink:href="../../images/foreignKeys.png" width="11px" height="12px" preserveAspectRatio="xMinYMin meet" x="82.5" y="-134"/>
<text text-anchor="start" x="97.5" y="-125.2" font-family="Helvetica,sans-Serif" font-size="11.00">status</text>
<polygon fill="#ffffff" stroke="transparent" points="77.5,-95 77.5,-117 251.5,-117 251.5,-95 77.5,-95"/>
<polygon fill="none" stroke="black" points="77.5,-95 77.5,-117 251.5,-117 251.5,-95 77.5,-95"/>
<image xlink:href="../../images/foreignKeys.png" width="11px" height="12px" preserveAspectRatio="xMinYMin meet" x="82.5" y="-112"/>
<text text-anchor="start" x="97.5" y="-103.2" font-family="Helvetica,sans-Serif" font-size="11.00">fk_dataowner</text>
<polygon fill="none" stroke="black" points="77.5,-73 77.5,-95 251.5,-95 251.5,-73 77.5,-73"/>
<image xlink:href="../../images/foreignKeys.png" width="11px" height="12px" preserveAspectRatio="xMinYMin meet" x="82.5" y="-90"/>
<text text-anchor="start" x="97.5" y="-81.2" font-family="Helvetica,sans-Serif" font-size="11.00">fk_provider</text>
<polygon fill="none" stroke="black" points="77.5,-55 77.5,-73 251.5,-73 251.5,-55 77.5,-55"/>
<text text-anchor="start" x="80.5" y="-61.2" font-family="Helvetica,sans-Serif" font-size="11.00">...</text>
<polygon fill="#ffffff" stroke="transparent" points="77.5,-37 77.5,-55 251.5,-55 251.5,-37 77.5,-37"/>
<polygon fill="none" stroke="black" points="77.5,-37 77.5,-55 251.5,-55 251.5,-37 77.5,-37"/>
<polygon fill="#ffffff" stroke="transparent" points="78.5,-38 78.5,-54 137.5,-54 137.5,-38 78.5,-38"/>
<text text-anchor="start" x="80.5" y="-43.2" font-family="Helvetica,sans-Serif" font-size="11.00">&lt; 4</text>
<polygon fill="#ffffff" stroke="transparent" points="137.5,-38 137.5,-54 184.5,-54 184.5,-38 137.5,-38"/>
<text text-anchor="start" x="157" y="-43.2" font-family="Helvetica,sans-Serif" font-size="11.00"> &#160;</text>
<polygon fill="#ffffff" stroke="transparent" points="184.5,-38 184.5,-54 250.5,-54 250.5,-38 184.5,-38"/>
<text text-anchor="start" x="221.5" y="-43.2" font-family="Helvetica,sans-Serif" font-size="11.00">33 &gt;</text>
<polygon fill="black" stroke="black" points="137.5,-38 137.5,-54 137.5,-54 137.5,-38 137.5,-38"/>
<polygon fill="black" stroke="black" points="184.5,-38 184.5,-54 184.5,-54 184.5,-38 184.5,-38"/>
</a>
</g>
</g>
<!-- trench&#45;&gt;organisation -->
<g id="edge4" class="edge">
<title>trench:w&#45;&gt;organisation:e</title>
<path fill="none" stroke="black" d="M356.62,-156.94C313.8,-162.79 302.62,-194 252.5,-194"/>
<polygon fill="black" stroke="black" points="363.02,-156.52 371.23,-159.59 367.01,-156.26 371,-156 371,-156 371,-156 367.01,-156.26 370.77,-152.41 363.02,-156.52 363.02,-156.52"/>
<ellipse fill="none" stroke="black" cx="359.82" cy="-156.73" rx="3.2" ry="3.2"/>
</g>
<!-- trench&#45;&gt;organisation -->
<g id="edge5" class="edge">
<title>trench:w&#45;&gt;organisation:e</title>
<path fill="none" stroke="black" d="M356.59,-221.28C314.52,-216.9 301.44,-194 252.5,-194"/>
<polygon fill="black" stroke="black" points="363.01,-221.6 370.82,-225.6 367,-221.8 371,-222 371,-222 371,-222 367,-221.8 371.18,-218.4 363.01,-221.6 363.01,-221.6"/>
<ellipse fill="none" stroke="black" cx="359.81" cy="-221.44" rx="3.2" ry="3.2"/>
</g>
<!-- trench&#45;&gt;organisation -->
<g id="edge6" class="edge">
<title>trench:w&#45;&gt;organisation:e</title>
<path fill="none" stroke="black" d="M356.53,-178.43C315.08,-180.97 300.45,-194 252.5,-194"/>
<polygon fill="black" stroke="black" points="363,-178.24 371.11,-181.6 367,-178.12 371,-178 371,-178 371,-178 367,-178.12 370.89,-174.4 363,-178.24 363,-178.24"/>
<ellipse fill="none" stroke="black" cx="359.8" cy="-178.33" rx="3.2" ry="3.2"/>
</g>
<!-- trench&#45;&gt;organisation -->
<g id="edge7" class="edge">
<title>trench:w&#45;&gt;organisation:e</title>
<path fill="none" stroke="black" d="M356.34,-199.83C315.28,-198.86 299.98,-194 252.5,-194"/>
<polygon fill="black" stroke="black" points="363,-199.91 370.96,-203.6 367,-199.95 371,-200 371,-200 371,-200 367,-199.95 371.04,-196.4 363,-199.91 363,-199.91"/>
<ellipse fill="none" stroke="black" cx="359.8" cy="-199.87" rx="3.2" ry="3.2"/>
</g>
<!-- tdh_vl.trench_horizontal_positioning -->
<g id="node6" class="node">
<title>tdh_vl.trench_horizontal_positioning</title>
<g id="a_node6"><a xlink:href="../../../tdh_vl/tables/trench_horizontal_positioning.html" xlink:title="tdh_vl.trench_horizontal_positioning" target="_top">
<polygon fill="#ffffff" stroke="transparent" points="8,-646 8,-704 321,-704 321,-646 8,-646"/>
<polygon fill="#f5f5f5" stroke="transparent" points="8.5,-682 8.5,-704 321.5,-704 321.5,-682 8.5,-682"/>
<polygon fill="none" stroke="black" points="8.5,-682 8.5,-704 321.5,-704 321.5,-682 8.5,-682"/>
<text text-anchor="start" x="13.5" y="-691.2" font-family="Helvetica,sans-Serif" font-weight="bold" font-size="11.00">tdh_vl.trench_horizontal_positioning</text>
<text text-anchor="start" x="279.5" y="-690.2" font-family="Helvetica,sans-Serif" font-size="11.00">[table]</text>
<polygon fill="none" stroke="black" points="8.5,-664 8.5,-682 321.5,-682 321.5,-664 8.5,-664"/>
<text text-anchor="start" x="11.5" y="-670.2" font-family="Helvetica,sans-Serif" font-size="11.00">...</text>
<polygon fill="#ffffff" stroke="transparent" points="8.5,-646 8.5,-664 321.5,-664 321.5,-646 8.5,-646"/>
<polygon fill="none" stroke="black" points="8.5,-646 8.5,-664 321.5,-664 321.5,-646 8.5,-646"/>
<polygon fill="#ffffff" stroke="transparent" points="9.5,-647 9.5,-663 99.5,-663 99.5,-647 9.5,-647"/>
<text text-anchor="start" x="11.5" y="-652.2" font-family="Helvetica,sans-Serif" font-size="11.00"> &#160;</text>
<polygon fill="#ffffff" stroke="transparent" points="99.5,-647 99.5,-663 218.5,-663 218.5,-647 99.5,-647"/>
<text text-anchor="start" x="140.5" y="-652.2" font-family="Helvetica,sans-Serif" font-size="11.00">0 rows</text>
<polygon fill="#ffffff" stroke="transparent" points="218.5,-647 218.5,-663 320.5,-663 320.5,-647 218.5,-647"/>
<text text-anchor="start" x="298.5" y="-652.2" font-family="Helvetica,sans-Serif" font-size="11.00">1 &gt;</text>
<polygon fill="black" stroke="black" points="99.5,-647 99.5,-663 99.5,-663 99.5,-647 99.5,-647"/>
<polygon fill="black" stroke="black" points="218.5,-647 218.5,-663 218.5,-663 218.5,-647 218.5,-647"/>
</a>
</g>
</g>
<!-- trench&#45;&gt;tdh_vl.trench_horizontal_positioning -->
<g id="edge8" class="edge">
<title>trench:w&#45;&gt;tdh_vl.trench_horizontal_positioning:e</title>
<path fill="none" stroke="black" d="M356.86,-555.54C337.46,-568.53 356.85,-613.91 329,-636 326.37,-638.09 323.65,-640.06 320.85,-641.94"/>
<polygon fill="black" stroke="black" points="363.24,-553.94 371.87,-555.49 367.12,-552.97 371,-552 371,-552 371,-552 367.12,-552.97 370.13,-548.51 363.24,-553.94 363.24,-553.94"/>
<ellipse fill="none" stroke="black" cx="360.14" cy="-554.72" rx="3.2" ry="3.2"/>
</g>
<!-- tdh_vl.trench_status -->
<g id="node7" class="node">
<title>tdh_vl.trench_status</title>
<g id="a_node7"><a xlink:href="../../../tdh_vl/tables/trench_status.html" xlink:title="tdh_vl.trench_status" target="_top">
<polygon fill="#ffffff" stroke="transparent" points="66.5,-567 66.5,-625 262.5,-625 262.5,-567 66.5,-567"/>
<polygon fill="#f5f5f5" stroke="transparent" points="66.5,-603 66.5,-625 262.5,-625 262.5,-603 66.5,-603"/>
<polygon fill="none" stroke="black" points="66.5,-603 66.5,-625 262.5,-625 262.5,-603 66.5,-603"/>
<text text-anchor="start" x="71.5" y="-612.2" font-family="Helvetica,sans-Serif" font-weight="bold" font-size="11.00">tdh_vl.trench_status</text>
<text text-anchor="start" x="220.5" y="-611.2" font-family="Helvetica,sans-Serif" font-size="11.00">[table]</text>
<polygon fill="none" stroke="black" points="66.5,-585 66.5,-603 262.5,-603 262.5,-585 66.5,-585"/>
<text text-anchor="start" x="69.5" y="-591.2" font-family="Helvetica,sans-Serif" font-size="11.00">...</text>
<polygon fill="#ffffff" stroke="transparent" points="66.5,-567 66.5,-585 262.5,-585 262.5,-567 66.5,-567"/>
<polygon fill="none" stroke="black" points="66.5,-567 66.5,-585 262.5,-585 262.5,-567 66.5,-567"/>
<polygon fill="#ffffff" stroke="transparent" points="67.5,-568 67.5,-584 118.5,-584 118.5,-568 67.5,-568"/>
<text text-anchor="start" x="69.5" y="-573.2" font-family="Helvetica,sans-Serif" font-size="11.00"> &#160;</text>
<polygon fill="#ffffff" stroke="transparent" points="118.5,-568 118.5,-584 198.5,-584 198.5,-568 118.5,-568"/>
<text text-anchor="start" x="140" y="-573.2" font-family="Helvetica,sans-Serif" font-size="11.00">0 rows</text>
<polygon fill="#ffffff" stroke="transparent" points="198.5,-568 198.5,-584 261.5,-584 261.5,-568 198.5,-568"/>
<text text-anchor="start" x="239.5" y="-573.2" font-family="Helvetica,sans-Serif" font-size="11.00">1 &gt;</text>
<polygon fill="black" stroke="black" points="118.5,-568 118.5,-584 118.5,-584 118.5,-568 118.5,-568"/>
<polygon fill="black" stroke="black" points="198.5,-568 198.5,-584 198.5,-584 198.5,-568 198.5,-568"/>
</a>
</g>
</g>
<!-- trench&#45;&gt;tdh_vl.trench_status -->
<g id="edge9" class="edge">
<title>trench:w&#45;&gt;tdh_vl.trench_status:e</title>
<path fill="none" stroke="black" d="M357.01,-533.53C347.57,-539.29 343.83,-550.68 329,-557 310.61,-564.83 290.36,-571.27 270.55,-576.49"/>
<polygon fill="black" stroke="black" points="363.24,-531.96 371.88,-533.49 367.12,-530.98 371,-530 371,-530 371,-530 367.12,-530.98 370.12,-526.51 363.24,-531.96 363.24,-531.96"/>
<ellipse fill="none" stroke="black" cx="360.14" cy="-532.74" rx="3.2" ry="3.2"/>
</g>
<!-- tdh_vl.trench_trench_type -->
<g id="node8" class="node">
<title>tdh_vl.trench_trench_type</title>
<g id="a_node8"><a xlink:href="../../../tdh_vl/tables/trench_trench_type.html" xlink:title="tdh_vl.trench_trench_type" target="_top">
<polygon fill="#ffffff" stroke="transparent" points="46,-488 46,-546 283,-546 283,-488 46,-488"/>
<polygon fill="#f5f5f5" stroke="transparent" points="46.5,-524 46.5,-546 283.5,-546 283.5,-524 46.5,-524"/>
<polygon fill="none" stroke="black" points="46.5,-524 46.5,-546 283.5,-546 283.5,-524 46.5,-524"/>
<text text-anchor="start" x="51.5" y="-533.2" font-family="Helvetica,sans-Serif" font-weight="bold" font-size="11.00">tdh_vl.trench_trench_type</text>
<text text-anchor="start" x="241.5" y="-532.2" font-family="Helvetica,sans-Serif" font-size="11.00">[table]</text>
<polygon fill="none" stroke="black" points="46.5,-506 46.5,-524 283.5,-524 283.5,-506 46.5,-506"/>
<text text-anchor="start" x="49.5" y="-512.2" font-family="Helvetica,sans-Serif" font-size="11.00">...</text>
<polygon fill="#ffffff" stroke="transparent" points="46.5,-488 46.5,-506 283.5,-506 283.5,-488 46.5,-488"/>
<polygon fill="none" stroke="black" points="46.5,-488 46.5,-506 283.5,-506 283.5,-488 46.5,-488"/>
<polygon fill="#ffffff" stroke="transparent" points="47.5,-489 47.5,-505 112.5,-505 112.5,-489 47.5,-489"/>
<text text-anchor="start" x="49.5" y="-494.2" font-family="Helvetica,sans-Serif" font-size="11.00"> &#160;</text>
<polygon fill="#ffffff" stroke="transparent" points="112.5,-489 112.5,-505 206.5,-505 206.5,-489 112.5,-489"/>
<text text-anchor="start" x="141" y="-494.2" font-family="Helvetica,sans-Serif" font-size="11.00">0 rows</text>
<polygon fill="#ffffff" stroke="transparent" points="206.5,-489 206.5,-505 282.5,-505 282.5,-489 206.5,-489"/>
<text text-anchor="start" x="260.5" y="-494.2" font-family="Helvetica,sans-Serif" font-size="11.00">1 &gt;</text>
<polygon fill="black" stroke="black" points="112.5,-489 112.5,-505 112.5,-505 112.5,-489 112.5,-489"/>
<polygon fill="black" stroke="black" points="206.5,-489 206.5,-505 206.5,-505 206.5,-489 206.5,-489"/>
</a>
</g>
</g>
<!-- trench&#45;&gt;tdh_vl.trench_trench_type -->
<g id="edge10" class="edge">
<title>trench:w&#45;&gt;tdh_vl.trench_trench_type:e</title>
<path fill="none" stroke="black" d="M356.32,-508.07C334.89,-508.28 312.65,-508.91 291.26,-509.75"/>
<polygon fill="black" stroke="black" points="363,-508.04 371.02,-511.6 367,-508.02 371,-508 371,-508 371,-508 367,-508.02 370.98,-504.4 363,-508.04 363,-508.04"/>
<ellipse fill="none" stroke="black" cx="359.8" cy="-508.06" rx="3.2" ry="3.2"/>
</g>
<!-- trench_line -->
<g id="node9" class="node">
<title>trench_line</title>
<g id="a_node9"><a xlink:href="../../tables/trench_line.html" xlink:title="trench_line" target="_top">
<polygon fill="#ffffff" stroke="transparent" points="765,-571 765,-695 951,-695 951,-571 765,-571"/>
<polygon fill="#f5f5f5" stroke="transparent" points="765,-673 765,-695 951,-695 951,-673 765,-673"/>
<polygon fill="none" stroke="black" points="765,-673 765,-695 951,-695 951,-673 765,-673"/>
<text text-anchor="start" x="770" y="-682.2" font-family="Helvetica,sans-Serif" font-weight="bold" font-size="11.00">trench_line</text>
<text text-anchor="start" x="909" y="-681.2" font-family="Helvetica,sans-Serif" font-size="11.00">[table]</text>
<polygon fill="none" stroke="black" points="765,-651 765,-673 951,-673 951,-651 765,-651"/>
<image xlink:href="../../images/primaryKeys.png" width="11px" height="12px" preserveAspectRatio="xMinYMin meet" x="770" y="-668"/>
<text text-anchor="start" x="785" y="-659.2" font-family="Helvetica,sans-Serif" font-size="11.00">id</text>
<polygon fill="#ffffff" stroke="transparent" points="765,-629 765,-651 951,-651 951,-629 765,-629"/>
<polygon fill="none" stroke="black" points="765,-629 765,-651 951,-651 951,-629 765,-629"/>
<text text-anchor="start" x="785" y="-637.2" font-family="Helvetica,sans-Serif" font-size="11.00">geometry3d_geometry</text>
<polygon fill="none" stroke="black" points="765,-607 765,-629 951,-629 951,-607 765,-607"/>
<image xlink:href="../../images/foreignKeys.png" width="11px" height="12px" preserveAspectRatio="xMinYMin meet" x="770" y="-624"/>
<text text-anchor="start" x="785" y="-615.2" font-family="Helvetica,sans-Serif" font-size="11.00">fk_trench</text>
<polygon fill="none" stroke="black" points="765,-589 765,-607 951,-607 951,-589 765,-589"/>
<text text-anchor="start" x="768" y="-595.2" font-family="Helvetica,sans-Serif" font-size="11.00">...</text>
<polygon fill="#ffffff" stroke="transparent" points="765,-571 765,-589 951,-589 951,-571 765,-571"/>
<polygon fill="none" stroke="black" points="765,-571 765,-589 951,-589 951,-571 765,-571"/>
<polygon fill="#ffffff" stroke="transparent" points="766,-572 766,-588 836,-588 836,-572 766,-572"/>
<text text-anchor="start" x="768" y="-577.2" font-family="Helvetica,sans-Serif" font-size="11.00">&lt; 1</text>
<polygon fill="#ffffff" stroke="transparent" points="836,-572 836,-588 893,-588 893,-572 836,-572"/>
<text text-anchor="start" x="860.5" y="-577.2" font-family="Helvetica,sans-Serif" font-size="11.00"> &#160;</text>
<polygon fill="#ffffff" stroke="transparent" points="893,-572 893,-588 950,-588 950,-572 893,-572"/>
<text text-anchor="start" x="940" y="-577.2" font-family="Helvetica,sans-Serif" font-size="11.00"> &#160;</text>
<polygon fill="black" stroke="black" points="836,-572 836,-588 836,-588 836,-572 836,-572"/>
<polygon fill="black" stroke="black" points="893,-572 893,-588 893,-588 893,-572 893,-572"/>
</a>
</g>
</g>
<!-- trench_line&#45;&gt;trench -->
<g id="edge11" class="edge">
<title>trench_line:w&#45;&gt;trench:e</title>
<path fill="none" stroke="black" d="M749.49,-618C738.18,-618 730.99,-618 715,-618"/>
<polygon fill="black" stroke="black" points="756,-618 764,-621.6 760,-618 764,-618 764,-618 764,-618 760,-618 764,-614.4 756,-618 756,-618"/>
<ellipse fill="none" stroke="black" cx="752.8" cy="-618" rx="3.2" ry="3.2"/>
</g>
</g>
</svg>
