<?xml version="1.0" encoding="UTF-8" standalone="no"?>
<!DOCTYPE svg PUBLIC "-//W3C//DTD SVG 1.1//EN"
 "http://www.w3.org/Graphics/SVG/1.1/DTD/svg11.dtd">
<!-- Generated by graphviz version 2.47.1 (20210515.0534)
 -->
<!-- Title: oneDegreeRelationshipsDiagram Pages: 1 -->
<svg width="529pt" height="461pt"
 viewBox="0.00 0.00 529.00 461.00" xmlns="http://www.w3.org/2000/svg" xmlns:xlink="http://www.w3.org/1999/xlink">
<g id="graph0" class="graph" transform="scale(1 1) rotate(0) translate(4 457)">
<title>oneDegreeRelationshipsDiagram</title>
<polygon fill="#ffffff" stroke="transparent" points="-4,4 -4,-457 525,-457 525,4 -4,4"/>
<text text-anchor="middle" x="73.5" y="-7.2" font-family="Helvetica,sans-Serif" font-size="11.00">Generated by SchemaSpy</text>
<!-- trench_line -->
<g id="node1" class="node">
<title>trench_line</title>
<g id="a_node1"><a xlink:href="../../tables/trench_line.html" xlink:title="trench_line" target="_top">
<polygon fill="#ffffff" stroke="transparent" points="231,-317 231,-449 513,-449 513,-317 231,-317"/>
<polygon fill="#f5f5f5" stroke="transparent" points="233,-425 233,-447 511,-447 511,-425 233,-425"/>
<polygon fill="none" stroke="black" points="233,-425 233,-447 511,-447 511,-425 233,-425"/>
<text text-anchor="start" x="237.5" y="-434.2" font-family="Helvetica,sans-Serif" font-weight="bold" font-size="11.00">trench_line</text>
<text text-anchor="start" x="472" y="-433.2" font-family="Helvetica,sans-Serif" font-size="11.00">[table]</text>
<polygon fill="none" stroke="black" points="233,-403 233,-425 388,-425 388,-403 233,-403"/>
<image xlink:href="../../images/primaryKeys.png" width="11px" height="12px" preserveAspectRatio="xMinYMin meet" x="238" y="-420"/>
<text text-anchor="start" x="253" y="-411.2" font-family="Helvetica,sans-Serif" font-size="11.00">id</text>
<polygon fill="none" stroke="black" points="388,-403 388,-425 511,-425 511,-403 388,-403"/>
<text text-anchor="start" x="391" y="-411.2" font-family="Helvetica,sans-Serif" font-size="11.00">uuid[2147483647]</text>
<polygon fill="#ffffff" stroke="transparent" points="233,-381 233,-403 388,-403 388,-381 233,-381"/>
<polygon fill="none" stroke="black" points="233,-381 233,-403 388,-403 388,-381 233,-381"/>
<text text-anchor="start" x="253" y="-389.2" font-family="Helvetica,sans-Serif" font-size="11.00">geometry3d_geometry</text>
<polygon fill="none" stroke="black" points="388,-381 388,-403 511,-403 511,-381 388,-381"/>
<text text-anchor="start" x="391" y="-389.2" font-family="Helvetica,sans-Serif" font-size="11.00">geometry[2147483647]</text>
<polygon fill="none" stroke="black" points="233,-359 233,-381 388,-381 388,-359 233,-359"/>
<text text-anchor="start" x="253" y="-367.2" font-family="Helvetica,sans-Serif" font-size="11.00">last_modification</text>
<polygon fill="none" stroke="black" points="388,-359 388,-381 511,-381 511,-359 388,-359"/>
<text text-anchor="start" x="391" y="-367.2" font-family="Helvetica,sans-Serif" font-size="11.00">timestamp[29,6]</text>
<polygon fill="none" stroke="black" points="233,-337 233,-359 388,-359 388,-337 233,-337"/>
<image xlink:href="../../images/foreignKeys.png" width="11px" height="12px" preserveAspectRatio="xMinYMin meet" x="238" y="-354"/>
<text text-anchor="start" x="253" y="-345.2" font-family="Helvetica,sans-Serif" font-size="11.00">fk_trench</text>
<polygon fill="none" stroke="black" points="388,-337 388,-359 511,-359 511,-337 388,-337"/>
<text text-anchor="start" x="391" y="-345.2" font-family="Helvetica,sans-Serif" font-size="11.00">varchar[16]</text>
<polygon fill="#ffffff" stroke="transparent" points="233,-319 233,-337 315,-337 315,-319 233,-319"/>
<polygon fill="none" stroke="black" points="233,-319 233,-337 315,-337 315,-319 233,-319"/>
<text text-anchor="start" x="236" y="-325.2" font-family="Helvetica,sans-Serif" font-size="11.00">&lt; 1</text>
<polygon fill="#ffffff" stroke="transparent" points="315,-319 315,-337 388,-337 388,-319 315,-319"/>
<polygon fill="none" stroke="black" points="315,-319 315,-337 388,-337 388,-319 315,-319"/>
<text text-anchor="start" x="378" y="-325.2" font-family="Helvetica,sans-Serif" font-size="11.00"> &#160;</text>
<polygon fill="#ffffff" stroke="transparent" points="388,-319 388,-337 511,-337 511,-319 388,-319"/>
<polygon fill="none" stroke="black" points="388,-319 388,-337 511,-337 511,-319 388,-319"/>
<text text-anchor="start" x="492" y="-325.2" font-family="Helvetica,sans-Serif" font-size="11.00">0 &gt;</text>
<polygon fill="none" stroke="black" stroke-width="2" points="232,-318 232,-448 512,-448 512,-318 232,-318"/>
</a>
</g>
</g>
<!-- trench -->
<g id="node2" class="node">
<title>trench</title>
<g id="a_node2"><a xlink:href="../../tables/trench.html" xlink:title="trench" target="_top">
<polygon fill="#ffffff" stroke="transparent" points="8,-37 8,-381 182,-381 182,-37 8,-37"/>
<polygon fill="#f5f5f5" stroke="transparent" points="8,-359 8,-381 182,-381 182,-359 8,-359"/>
<polygon fill="none" stroke="black" points="8,-359 8,-381 182,-381 182,-359 8,-359"/>
<text text-anchor="start" x="11.5" y="-368.2" font-family="Helvetica,sans-Serif" font-weight="bold" font-size="11.00">trench</text>
<text text-anchor="start" x="143" y="-367.2" font-family="Helvetica,sans-Serif" font-size="11.00">[table]</text>
<polygon fill="none" stroke="black" points="8,-337 8,-359 182,-359 182,-337 8,-337"/>
<image xlink:href="../../images/primaryKeys.png" width="11px" height="12px" preserveAspectRatio="xMinYMin meet" x="13" y="-354"/>
<text text-anchor="start" x="28" y="-345.2" font-family="Helvetica,sans-Serif" font-size="11.00">obj_id</text>
<polygon fill="#ffffff" stroke="transparent" points="8,-315 8,-337 182,-337 182,-315 8,-315"/>
<polygon fill="none" stroke="black" points="8,-315 8,-337 182,-337 182,-315 8,-315"/>
<text text-anchor="start" x="28" y="-323.2" font-family="Helvetica,sans-Serif" font-size="11.00">name_number</text>
<polygon fill="#ffffff" stroke="transparent" points="8,-293 8,-315 182,-315 182,-293 8,-293"/>
<polygon fill="none" stroke="black" points="8,-293 8,-315 182,-315 182,-293 8,-293"/>
<text text-anchor="start" x="28" y="-301.2" font-family="Helvetica,sans-Serif" font-size="11.00">geometry3d_geometry</text>
<polygon fill="none" stroke="black" points="8,-271 8,-293 182,-293 182,-271 8,-271"/>
<image xlink:href="../../images/foreignKeys.png" width="11px" height="12px" preserveAspectRatio="xMinYMin meet" x="13" y="-288"/>
<text text-anchor="start" x="28" y="-279.2" font-family="Helvetica,sans-Serif" font-size="11.00">horizontal_positioning</text>
<polygon fill="none" stroke="black" points="8,-249 8,-271 182,-271 182,-249 8,-249"/>
<image xlink:href="../../images/foreignKeys.png" width="11px" height="12px" preserveAspectRatio="xMinYMin meet" x="13" y="-266"/>
<text text-anchor="start" x="28" y="-257.2" font-family="Helvetica,sans-Serif" font-size="11.00">status</text>
<polygon fill="none" stroke="black" points="8,-227 8,-249 182,-249 182,-227 8,-227"/>
<image xlink:href="../../images/foreignKeys.png" width="11px" height="12px" preserveAspectRatio="xMinYMin meet" x="13" y="-244"/>
<text text-anchor="start" x="28" y="-235.2" font-family="Helvetica,sans-Serif" font-size="11.00">trench_type</text>
<polygon fill="none" stroke="black" points="8,-205 8,-227 182,-227 182,-205 8,-205"/>
<image xlink:href="../../images/foreignKeys.png" width="11px" height="12px" preserveAspectRatio="xMinYMin meet" x="13" y="-222"/>
<text text-anchor="start" x="28" y="-213.2" font-family="Helvetica,sans-Serif" font-size="11.00">embedding</text>
<polygon fill="none" stroke="black" points="8,-183 8,-205 182,-205 182,-183 8,-183"/>
<image xlink:href="../../images/foreignKeys.png" width="11px" height="12px" preserveAspectRatio="xMinYMin meet" x="13" y="-200"/>
<text text-anchor="start" x="28" y="-191.2" font-family="Helvetica,sans-Serif" font-size="11.00">control_system</text>
<polygon fill="none" stroke="black" points="8,-161 8,-183 182,-183 182,-161 8,-161"/>
<image xlink:href="../../images/foreignKeys.png" width="11px" height="12px" preserveAspectRatio="xMinYMin meet" x="13" y="-178"/>
<text text-anchor="start" x="28" y="-169.2" font-family="Helvetica,sans-Serif" font-size="11.00">cable_conduits</text>
<polygon fill="#ffffff" stroke="transparent" points="8,-139 8,-161 182,-161 182,-139 8,-139"/>
<polygon fill="none" stroke="black" points="8,-139 8,-161 182,-161 182,-139 8,-139"/>
<image xlink:href="../../images/foreignKeys.png" width="11px" height="12px" preserveAspectRatio="xMinYMin meet" x="13" y="-156"/>
<text text-anchor="start" x="28" y="-147.2" font-family="Helvetica,sans-Serif" font-size="11.00">fk_dataowner</text>
<polygon fill="none" stroke="black" points="8,-117 8,-139 182,-139 182,-117 8,-117"/>
<image xlink:href="../../images/foreignKeys.png" width="11px" height="12px" preserveAspectRatio="xMinYMin meet" x="13" y="-134"/>
<text text-anchor="start" x="28" y="-125.2" font-family="Helvetica,sans-Serif" font-size="11.00">fk_provider</text>
<polygon fill="none" stroke="black" points="8,-95 8,-117 182,-117 182,-95 8,-95"/>
<image xlink:href="../../images/foreignKeys.png" width="11px" height="12px" preserveAspectRatio="xMinYMin meet" x="13" y="-112"/>
<text text-anchor="start" x="28" y="-103.2" font-family="Helvetica,sans-Serif" font-size="11.00">fk_owner</text>
<polygon fill="none" stroke="black" points="8,-73 8,-95 182,-95 182,-73 8,-73"/>
<image xlink:href="../../images/foreignKeys.png" width="11px" height="12px" preserveAspectRatio="xMinYMin meet" x="13" y="-90"/>
<text text-anchor="start" x="28" y="-81.2" font-family="Helvetica,sans-Serif" font-size="11.00">fk_construction_company</text>
<polygon fill="none" stroke="black" points="8,-55 8,-73 182,-73 182,-55 8,-55"/>
<text text-anchor="start" x="11" y="-61.2" font-family="Helvetica,sans-Serif" font-size="11.00">...</text>
<polygon fill="#ffffff" stroke="transparent" points="8,-37 8,-55 91,-55 91,-37 8,-37"/>
<polygon fill="none" stroke="black" points="8,-37 8,-55 91,-55 91,-37 8,-37"/>
<text text-anchor="start" x="11" y="-43.2" font-family="Helvetica,sans-Serif" font-size="11.00">&lt; 10</text>
<polygon fill="#ffffff" stroke="transparent" points="91,-37 91,-55 132,-55 132,-37 91,-37"/>
<polygon fill="none" stroke="black" points="91,-37 91,-55 132,-55 132,-37 91,-37"/>
<text text-anchor="start" x="122" y="-43.2" font-family="Helvetica,sans-Serif" font-size="11.00"> &#160;</text>
<polygon fill="#ffffff" stroke="transparent" points="132,-37 132,-55 182,-55 182,-37 132,-37"/>
<polygon fill="none" stroke="black" points="132,-37 132,-55 182,-55 182,-37 132,-37"/>
<text text-anchor="start" x="163" y="-43.2" font-family="Helvetica,sans-Serif" font-size="11.00">1 &gt;</text>
</a>
</g>
</g>
<!-- trench_line&#45;&gt;trench -->
<g id="edge1" class="edge">
<title>trench_line:w&#45;&gt;trench:e</title>
<path fill="none" stroke="black" d="M217.49,-348C206.18,-348 198.99,-348 183,-348"/>
<polygon fill="black" stroke="black" points="224,-348 232,-351.6 228,-348 232,-348 232,-348 232,-348 228,-348 232,-344.4 224,-348 224,-348"/>
<ellipse fill="none" stroke="black" cx="220.8" cy="-348" rx="3.2" ry="3.2"/>
</g>
</g>
</svg>
