<?xml version="1.0" encoding="UTF-8" standalone="no"?>
<!DOCTYPE svg PUBLIC "-//W3C//DTD SVG 1.1//EN"
 "http://www.w3.org/Graphics/SVG/1.1/DTD/svg11.dtd">
<!-- Generated by graphviz version 2.47.1 (20210515.0534)
 -->
<!-- Title: orphans Pages: 1 -->
<svg width="378pt" height="1751pt"
 viewBox="0.00 0.00 378.00 1751.00" xmlns="http://www.w3.org/2000/svg" xmlns:xlink="http://www.w3.org/1999/xlink">
<g id="graph0" class="graph" transform="scale(1 1) rotate(0) translate(4 1747)">
<title>orphans</title>
<polygon fill="#ffffff" stroke="transparent" points="-4,4 -4,-1747 374,-1747 374,4 -4,4"/>
<!-- dictionary_od_field -->
<g id="node1" class="node">
<title>dictionary_od_field</title>
<g id="a_node1"><a xlink:href="../../tables/dictionary_od_field.html" xlink:title="dictionary_od_field" target="_top">
<polygon fill="#ffffff" stroke="transparent" points="8,-4 8,-708 362,-708 362,-4 8,-4"/>
<polygon fill="#f5f5f5" stroke="transparent" points="10,-684 10,-706 360,-706 360,-684 10,-684"/>
<polygon fill="none" stroke="black" points="10,-684 10,-706 360,-706 360,-684 10,-684"/>
<text text-anchor="start" x="15" y="-693.2" font-family="Helvetica,sans-Serif" font-weight="bold" font-size="11.00">dictionary_od_field</text>
<text text-anchor="start" x="321" y="-692.2" font-family="Helvetica,sans-Serif" font-size="11.00">[table]</text>
<polygon fill="none" stroke="black" points="10,-662 10,-684 179,-684 179,-662 10,-662"/>
<image xlink:href="../../images/primaryKeys.png" width="11px" height="12px" preserveAspectRatio="xMinYMin meet" x="15" y="-679"/>
<text text-anchor="start" x="30" y="-670.2" font-family="Helvetica,sans-Serif" font-size="11.00">id</text>
<polygon fill="none" stroke="black" points="179,-662 179,-684 360,-684 360,-662 179,-662"/>
<text text-anchor="start" x="182" y="-670.2" font-family="Helvetica,sans-Serif" font-size="11.00">serial[10]</text>
<polygon fill="#ffffff" stroke="transparent" points="10,-640 10,-662 179,-662 179,-640 10,-640"/>
<polygon fill="none" stroke="black" points="10,-640 10,-662 179,-662 179,-640 10,-640"/>
<text text-anchor="start" x="30" y="-648.2" font-family="Helvetica,sans-Serif" font-size="11.00">class_id</text>
<polygon fill="none" stroke="black" points="179,-640 179,-662 360,-662 360,-640 179,-640"/>
<text text-anchor="start" x="182" y="-648.2" font-family="Helvetica,sans-Serif" font-size="11.00">int4[10]</text>
<polygon fill="#ffffff" stroke="transparent" points="10,-618 10,-640 179,-640 179,-618 10,-618"/>
<polygon fill="none" stroke="black" points="10,-618 10,-640 179,-640 179,-618 10,-618"/>
<text text-anchor="start" x="30" y="-626.2" font-family="Helvetica,sans-Serif" font-size="11.00">attribute_id</text>
<polygon fill="none" stroke="black" points="179,-618 179,-640 360,-640 360,-618 179,-618"/>
<text text-anchor="start" x="182" y="-626.2" font-family="Helvetica,sans-Serif" font-size="11.00">int4[10]</text>
<polygon fill="none" stroke="black" points="10,-596 10,-618 179,-618 179,-596 10,-596"/>
<text text-anchor="start" x="30" y="-604.2" font-family="Helvetica,sans-Serif" font-size="11.00">table_name</text>
<polygon fill="none" stroke="black" points="179,-596 179,-618 360,-618 360,-596 179,-596"/>
<text text-anchor="start" x="182" y="-604.2" font-family="Helvetica,sans-Serif" font-size="11.00">varchar[80]</text>
<polygon fill="none" stroke="black" points="10,-574 10,-596 179,-596 179,-574 10,-574"/>
<text text-anchor="start" x="30" y="-582.2" font-family="Helvetica,sans-Serif" font-size="11.00">field_name</text>
<polygon fill="none" stroke="black" points="179,-574 179,-596 360,-596 360,-574 179,-574"/>
<text text-anchor="start" x="182" y="-582.2" font-family="Helvetica,sans-Serif" font-size="11.00">varchar[80]</text>
<polygon fill="none" stroke="black" points="10,-552 10,-574 179,-574 179,-552 10,-552"/>
<text text-anchor="start" x="30" y="-560.2" font-family="Helvetica,sans-Serif" font-size="11.00">field_name_en</text>
<polygon fill="none" stroke="black" points="179,-552 179,-574 360,-574 360,-552 179,-552"/>
<text text-anchor="start" x="182" y="-560.2" font-family="Helvetica,sans-Serif" font-size="11.00">varchar[80]</text>
<polygon fill="none" stroke="black" points="10,-530 10,-552 179,-552 179,-530 10,-530"/>
<text text-anchor="start" x="30" y="-538.2" font-family="Helvetica,sans-Serif" font-size="11.00">field_name_de</text>
<polygon fill="none" stroke="black" points="179,-530 179,-552 360,-552 360,-530 179,-530"/>
<text text-anchor="start" x="182" y="-538.2" font-family="Helvetica,sans-Serif" font-size="11.00">varchar[100]</text>
<polygon fill="none" stroke="black" points="10,-508 10,-530 179,-530 179,-508 10,-508"/>
<text text-anchor="start" x="30" y="-516.2" font-family="Helvetica,sans-Serif" font-size="11.00">field_name_fr</text>
<polygon fill="none" stroke="black" points="179,-508 179,-530 360,-530 360,-508 179,-508"/>
<text text-anchor="start" x="182" y="-516.2" font-family="Helvetica,sans-Serif" font-size="11.00">varchar[100]</text>
<polygon fill="none" stroke="black" points="10,-486 10,-508 179,-508 179,-486 10,-486"/>
<text text-anchor="start" x="30" y="-494.2" font-family="Helvetica,sans-Serif" font-size="11.00">field_name_it</text>
<polygon fill="none" stroke="black" points="179,-486 179,-508 360,-508 360,-486 179,-486"/>
<text text-anchor="start" x="182" y="-494.2" font-family="Helvetica,sans-Serif" font-size="11.00">varchar[100]</text>
<polygon fill="none" stroke="black" points="10,-464 10,-486 179,-486 179,-464 10,-464"/>
<text text-anchor="start" x="30" y="-472.2" font-family="Helvetica,sans-Serif" font-size="11.00">field_name_ro</text>
<polygon fill="none" stroke="black" points="179,-464 179,-486 360,-486 360,-464 179,-464"/>
<text text-anchor="start" x="182" y="-472.2" font-family="Helvetica,sans-Serif" font-size="11.00">varchar[100]</text>
<polygon fill="none" stroke="black" points="10,-442 10,-464 179,-464 179,-442 10,-442"/>
<text text-anchor="start" x="30" y="-450.2" font-family="Helvetica,sans-Serif" font-size="11.00">field_description_en</text>
<polygon fill="none" stroke="black" points="179,-442 179,-464 360,-464 360,-442 179,-442"/>
<text text-anchor="start" x="182" y="-450.2" font-family="Helvetica,sans-Serif" font-size="11.00">text[2147483647]</text>
<polygon fill="none" stroke="black" points="10,-420 10,-442 179,-442 179,-420 10,-420"/>
<text text-anchor="start" x="30" y="-428.2" font-family="Helvetica,sans-Serif" font-size="11.00">field_description_de</text>
<polygon fill="none" stroke="black" points="179,-420 179,-442 360,-442 360,-420 179,-420"/>
<text text-anchor="start" x="182" y="-428.2" font-family="Helvetica,sans-Serif" font-size="11.00">text[2147483647]</text>
<polygon fill="none" stroke="black" points="10,-398 10,-420 179,-420 179,-398 10,-398"/>
<text text-anchor="start" x="30" y="-406.2" font-family="Helvetica,sans-Serif" font-size="11.00">field_description_fr</text>
<polygon fill="none" stroke="black" points="179,-398 179,-420 360,-420 360,-398 179,-398"/>
<text text-anchor="start" x="182" y="-406.2" font-family="Helvetica,sans-Serif" font-size="11.00">text[2147483647]</text>
<polygon fill="none" stroke="black" points="10,-376 10,-398 179,-398 179,-376 10,-376"/>
<text text-anchor="start" x="30" y="-384.2" font-family="Helvetica,sans-Serif" font-size="11.00">field_description_it</text>
<polygon fill="none" stroke="black" points="179,-376 179,-398 360,-398 360,-376 179,-376"/>
<text text-anchor="start" x="182" y="-384.2" font-family="Helvetica,sans-Serif" font-size="11.00">text[2147483647]</text>
<polygon fill="none" stroke="black" points="10,-354 10,-376 179,-376 179,-354 10,-354"/>
<text text-anchor="start" x="30" y="-362.2" font-family="Helvetica,sans-Serif" font-size="11.00">field_description_ro</text>
<polygon fill="none" stroke="black" points="179,-354 179,-376 360,-376 360,-354 179,-354"/>
<text text-anchor="start" x="182" y="-362.2" font-family="Helvetica,sans-Serif" font-size="11.00">text[2147483647]</text>
<polygon fill="none" stroke="black" points="10,-332 10,-354 179,-354 179,-332 10,-332"/>
<text text-anchor="start" x="30" y="-340.2" font-family="Helvetica,sans-Serif" font-size="11.00">field_mandatory</text>
<polygon fill="none" stroke="black" points="179,-332 179,-354 360,-354 360,-332 179,-332"/>
<text text-anchor="start" x="182" y="-340.2" font-family="Helvetica,sans-Serif" font-size="11.00">&quot;tdh_od&quot;.&quot;_plantype&quot;[2147483647]</text>
<polygon fill="none" stroke="black" points="10,-310 10,-332 179,-332 179,-310 10,-310"/>
<text text-anchor="start" x="30" y="-318.2" font-family="Helvetica,sans-Serif" font-size="11.00">field_visible</text>
<polygon fill="none" stroke="black" points="179,-310 179,-332 360,-332 360,-310 179,-310"/>
<text text-anchor="start" x="182" y="-318.2" font-family="Helvetica,sans-Serif" font-size="11.00">bool[1]</text>
<polygon fill="none" stroke="black" points="10,-288 10,-310 179,-310 179,-288 10,-288"/>
<text text-anchor="start" x="30" y="-296.2" font-family="Helvetica,sans-Serif" font-size="11.00">field_datatype</text>
<polygon fill="none" stroke="black" points="179,-288 179,-310 360,-310 360,-288 179,-288"/>
<text text-anchor="start" x="182" y="-296.2" font-family="Helvetica,sans-Serif" font-size="11.00">varchar[40]</text>
<polygon fill="none" stroke="black" points="10,-266 10,-288 179,-288 179,-266 10,-266"/>
<text text-anchor="start" x="30" y="-274.2" font-family="Helvetica,sans-Serif" font-size="11.00">field_unit_de</text>
<polygon fill="none" stroke="black" points="179,-266 179,-288 360,-288 360,-266 179,-266"/>
<text text-anchor="start" x="182" y="-274.2" font-family="Helvetica,sans-Serif" font-size="11.00">varchar[20]</text>
<polygon fill="none" stroke="black" points="10,-244 10,-266 179,-266 179,-244 10,-244"/>
<text text-anchor="start" x="30" y="-252.2" font-family="Helvetica,sans-Serif" font-size="11.00">field_unit_description_de</text>
<polygon fill="none" stroke="black" points="179,-244 179,-266 360,-266 360,-244 179,-244"/>
<text text-anchor="start" x="182" y="-252.2" font-family="Helvetica,sans-Serif" font-size="11.00">varchar[90]</text>
<polygon fill="none" stroke="black" points="10,-222 10,-244 179,-244 179,-222 10,-222"/>
<text text-anchor="start" x="30" y="-230.2" font-family="Helvetica,sans-Serif" font-size="11.00">field_unit_en</text>
<polygon fill="none" stroke="black" points="179,-222 179,-244 360,-244 360,-222 179,-222"/>
<text text-anchor="start" x="182" y="-230.2" font-family="Helvetica,sans-Serif" font-size="11.00">varchar[20]</text>
<polygon fill="none" stroke="black" points="10,-200 10,-222 179,-222 179,-200 10,-200"/>
<text text-anchor="start" x="30" y="-208.2" font-family="Helvetica,sans-Serif" font-size="11.00">field_unit_description_en</text>
<polygon fill="none" stroke="black" points="179,-200 179,-222 360,-222 360,-200 179,-200"/>
<text text-anchor="start" x="182" y="-208.2" font-family="Helvetica,sans-Serif" font-size="11.00">varchar[90]</text>
<polygon fill="none" stroke="black" points="10,-178 10,-200 179,-200 179,-178 10,-178"/>
<text text-anchor="start" x="30" y="-186.2" font-family="Helvetica,sans-Serif" font-size="11.00">field_unit_fr</text>
<polygon fill="none" stroke="black" points="179,-178 179,-200 360,-200 360,-178 179,-178"/>
<text text-anchor="start" x="182" y="-186.2" font-family="Helvetica,sans-Serif" font-size="11.00">varchar[20]</text>
<polygon fill="none" stroke="black" points="10,-156 10,-178 179,-178 179,-156 10,-156"/>
<text text-anchor="start" x="30" y="-164.2" font-family="Helvetica,sans-Serif" font-size="11.00">field_unit_description_fr</text>
<polygon fill="none" stroke="black" points="179,-156 179,-178 360,-178 360,-156 179,-156"/>
<text text-anchor="start" x="182" y="-164.2" font-family="Helvetica,sans-Serif" font-size="11.00">varchar[90]</text>
<polygon fill="none" stroke="black" points="10,-134 10,-156 179,-156 179,-134 10,-134"/>
<text text-anchor="start" x="30" y="-142.2" font-family="Helvetica,sans-Serif" font-size="11.00">field_unit_it</text>
<polygon fill="none" stroke="black" points="179,-134 179,-156 360,-156 360,-134 179,-134"/>
<text text-anchor="start" x="182" y="-142.2" font-family="Helvetica,sans-Serif" font-size="11.00">varchar[20]</text>
<polygon fill="none" stroke="black" points="10,-112 10,-134 179,-134 179,-112 10,-112"/>
<text text-anchor="start" x="30" y="-120.2" font-family="Helvetica,sans-Serif" font-size="11.00">field_unit_description_it</text>
<polygon fill="none" stroke="black" points="179,-112 179,-134 360,-134 360,-112 179,-112"/>
<text text-anchor="start" x="182" y="-120.2" font-family="Helvetica,sans-Serif" font-size="11.00">varchar[90]</text>
<polygon fill="none" stroke="black" points="10,-90 10,-112 179,-112 179,-90 10,-90"/>
<text text-anchor="start" x="30" y="-98.2" font-family="Helvetica,sans-Serif" font-size="11.00">field_unit_ro</text>
<polygon fill="none" stroke="black" points="179,-90 179,-112 360,-112 360,-90 179,-90"/>
<text text-anchor="start" x="182" y="-98.2" font-family="Helvetica,sans-Serif" font-size="11.00">varchar[20]</text>
<polygon fill="none" stroke="black" points="10,-68 10,-90 179,-90 179,-68 10,-68"/>
<text text-anchor="start" x="30" y="-76.2" font-family="Helvetica,sans-Serif" font-size="11.00">field_unit_description_ro</text>
<polygon fill="none" stroke="black" points="179,-68 179,-90 360,-90 360,-68 179,-68"/>
<text text-anchor="start" x="182" y="-76.2" font-family="Helvetica,sans-Serif" font-size="11.00">varchar[90]</text>
<polygon fill="none" stroke="black" points="10,-46 10,-68 179,-68 179,-46 10,-46"/>
<text text-anchor="start" x="30" y="-54.2" font-family="Helvetica,sans-Serif" font-size="11.00">field_min</text>
<polygon fill="none" stroke="black" points="179,-46 179,-68 360,-68 360,-46 179,-46"/>
<text text-anchor="start" x="182" y="-54.2" font-family="Helvetica,sans-Serif" font-size="11.00">numeric[0]</text>
<polygon fill="none" stroke="black" points="10,-24 10,-46 179,-46 179,-24 10,-24"/>
<text text-anchor="start" x="30" y="-32.2" font-family="Helvetica,sans-Serif" font-size="11.00">field_max</text>
<polygon fill="none" stroke="black" points="179,-24 179,-46 360,-46 360,-24 179,-24"/>
<text text-anchor="start" x="182" y="-32.2" font-family="Helvetica,sans-Serif" font-size="11.00">numeric[0]</text>
<polygon fill="#ffffff" stroke="transparent" points="10,-6 10,-24 79,-24 79,-6 10,-6"/>
<polygon fill="none" stroke="black" points="10,-6 10,-24 79,-24 79,-6 10,-6"/>
<text text-anchor="start" x="13" y="-12.2" font-family="Helvetica,sans-Serif" font-size="11.00">&lt; 0</text>
<polygon fill="#ffffff" stroke="transparent" points="79,-6 79,-24 179,-24 179,-6 79,-6"/>
<polygon fill="none" stroke="black" points="79,-6 79,-24 179,-24 179,-6 79,-6"/>
<text text-anchor="start" x="130" y="-12.2" font-family="Helvetica,sans-Serif" font-size="11.00">139 rows</text>
<polygon fill="#ffffff" stroke="transparent" points="179,-6 179,-24 360,-24 360,-6 179,-6"/>
<polygon fill="none" stroke="black" points="179,-6 179,-24 360,-24 360,-6 179,-6"/>
<text text-anchor="start" x="341" y="-12.2" font-family="Helvetica,sans-Serif" font-size="11.00">0 &gt;</text>
<polygon fill="none" stroke="black" stroke-width="2" points="9,-5 9,-707 361,-707 361,-5 9,-5"/>
</a>
</g>
</g>
<!-- dictionary_od_table -->
<g id="node2" class="node">
<title>dictionary_od_table</title>
<g id="a_node2"><a xlink:href="../../tables/dictionary_od_table.html" xlink:title="dictionary_od_table" target="_top">
<polygon fill="#ffffff" stroke="transparent" points="67.5,-729 67.5,-1037 302.5,-1037 302.5,-729 67.5,-729"/>
<polygon fill="#f5f5f5" stroke="transparent" points="70,-1013 70,-1035 301,-1035 301,-1013 70,-1013"/>
<polygon fill="none" stroke="black" points="70,-1013 70,-1035 301,-1035 301,-1013 70,-1013"/>
<text text-anchor="start" x="75" y="-1022.2" font-family="Helvetica,sans-Serif" font-weight="bold" font-size="11.00">dictionary_od_table</text>
<text text-anchor="start" x="262" y="-1021.2" font-family="Helvetica,sans-Serif" font-size="11.00">[table]</text>
<polygon fill="none" stroke="black" points="70,-991 70,-1013 207,-1013 207,-991 70,-991"/>
<image xlink:href="../../images/primaryKeys.png" width="11px" height="12px" preserveAspectRatio="xMinYMin meet" x="75" y="-1008"/>
<text text-anchor="start" x="90" y="-999.2" font-family="Helvetica,sans-Serif" font-size="11.00">id</text>
<polygon fill="none" stroke="black" points="207,-991 207,-1013 301,-1013 301,-991 207,-991"/>
<text text-anchor="start" x="210" y="-999.2" font-family="Helvetica,sans-Serif" font-size="11.00">int4[10]</text>
<polygon fill="#ffffff" stroke="transparent" points="70,-969 70,-991 207,-991 207,-969 70,-969"/>
<polygon fill="none" stroke="black" points="70,-969 70,-991 207,-991 207,-969 70,-969"/>
<text text-anchor="start" x="90" y="-977.2" font-family="Helvetica,sans-Serif" font-size="11.00">tablename</text>
<polygon fill="none" stroke="black" points="207,-969 207,-991 301,-991 301,-969 207,-969"/>
<text text-anchor="start" x="210" y="-977.2" font-family="Helvetica,sans-Serif" font-size="11.00">text[2147483647]</text>
<polygon fill="#ffffff" stroke="transparent" points="70,-947 70,-969 207,-969 207,-947 70,-947"/>
<polygon fill="none" stroke="black" points="70,-947 70,-969 207,-969 207,-947 70,-947"/>
<text text-anchor="start" x="90" y="-955.2" font-family="Helvetica,sans-Serif" font-size="11.00">name_en</text>
<polygon fill="none" stroke="black" points="207,-947 207,-969 301,-969 301,-947 207,-947"/>
<text text-anchor="start" x="210" y="-955.2" font-family="Helvetica,sans-Serif" font-size="11.00">text[2147483647]</text>
<polygon fill="#ffffff" stroke="transparent" points="70,-925 70,-947 207,-947 207,-925 70,-925"/>
<polygon fill="none" stroke="black" points="70,-925 70,-947 207,-947 207,-925 70,-925"/>
<text text-anchor="start" x="90" y="-933.2" font-family="Helvetica,sans-Serif" font-size="11.00">shortcut_en</text>
<polygon fill="none" stroke="black" points="207,-925 207,-947 301,-947 301,-925 207,-925"/>
<text text-anchor="start" x="210" y="-933.2" font-family="Helvetica,sans-Serif" font-size="11.00">bpchar[2]</text>
<polygon fill="#ffffff" stroke="transparent" points="70,-903 70,-925 207,-925 207,-903 70,-903"/>
<polygon fill="none" stroke="black" points="70,-903 70,-925 207,-925 207,-903 70,-903"/>
<text text-anchor="start" x="90" y="-911.2" font-family="Helvetica,sans-Serif" font-size="11.00">name_de</text>
<polygon fill="none" stroke="black" points="207,-903 207,-925 301,-925 301,-903 207,-903"/>
<text text-anchor="start" x="210" y="-911.2" font-family="Helvetica,sans-Serif" font-size="11.00">text[2147483647]</text>
<polygon fill="none" stroke="black" points="70,-881 70,-903 207,-903 207,-881 70,-881"/>
<text text-anchor="start" x="90" y="-889.2" font-family="Helvetica,sans-Serif" font-size="11.00">shortcut_de</text>
<polygon fill="none" stroke="black" points="207,-881 207,-903 301,-903 301,-881 207,-881"/>
<text text-anchor="start" x="210" y="-889.2" font-family="Helvetica,sans-Serif" font-size="11.00">bpchar[2]</text>
<polygon fill="#ffffff" stroke="transparent" points="70,-859 70,-881 207,-881 207,-859 70,-859"/>
<polygon fill="none" stroke="black" points="70,-859 70,-881 207,-881 207,-859 70,-859"/>
<text text-anchor="start" x="90" y="-867.2" font-family="Helvetica,sans-Serif" font-size="11.00">name_fr</text>
<polygon fill="none" stroke="black" points="207,-859 207,-881 301,-881 301,-859 207,-859"/>
<text text-anchor="start" x="210" y="-867.2" font-family="Helvetica,sans-Serif" font-size="11.00">text[2147483647]</text>
<polygon fill="none" stroke="black" points="70,-837 70,-859 207,-859 207,-837 70,-837"/>
<text text-anchor="start" x="90" y="-845.2" font-family="Helvetica,sans-Serif" font-size="11.00">shortcut_fr</text>
<polygon fill="none" stroke="black" points="207,-837 207,-859 301,-859 301,-837 207,-837"/>
<text text-anchor="start" x="210" y="-845.2" font-family="Helvetica,sans-Serif" font-size="11.00">bpchar[2]</text>
<polygon fill="none" stroke="black" points="70,-815 70,-837 207,-837 207,-815 70,-815"/>
<text text-anchor="start" x="90" y="-823.2" font-family="Helvetica,sans-Serif" font-size="11.00">name_it</text>
<polygon fill="none" stroke="black" points="207,-815 207,-837 301,-837 301,-815 207,-815"/>
<text text-anchor="start" x="210" y="-823.2" font-family="Helvetica,sans-Serif" font-size="11.00">text[2147483647]</text>
<polygon fill="none" stroke="black" points="70,-793 70,-815 207,-815 207,-793 70,-793"/>
<text text-anchor="start" x="90" y="-801.2" font-family="Helvetica,sans-Serif" font-size="11.00">shortcut_it</text>
<polygon fill="none" stroke="black" points="207,-793 207,-815 301,-815 301,-793 207,-793"/>
<text text-anchor="start" x="210" y="-801.2" font-family="Helvetica,sans-Serif" font-size="11.00">bpchar[4]</text>
<polygon fill="none" stroke="black" points="70,-771 70,-793 207,-793 207,-771 70,-771"/>
<text text-anchor="start" x="90" y="-779.2" font-family="Helvetica,sans-Serif" font-size="11.00">name_ro</text>
<polygon fill="none" stroke="black" points="207,-771 207,-793 301,-793 301,-771 207,-771"/>
<text text-anchor="start" x="210" y="-779.2" font-family="Helvetica,sans-Serif" font-size="11.00">text[2147483647]</text>
<polygon fill="none" stroke="black" points="70,-749 70,-771 207,-771 207,-749 70,-749"/>
<text text-anchor="start" x="90" y="-757.2" font-family="Helvetica,sans-Serif" font-size="11.00">shortcut_ro</text>
<polygon fill="none" stroke="black" points="207,-749 207,-771 301,-771 301,-749 207,-749"/>
<text text-anchor="start" x="210" y="-757.2" font-family="Helvetica,sans-Serif" font-size="11.00">bpchar[4]</text>
<polygon fill="#ffffff" stroke="transparent" points="70,-731 70,-749 129,-749 129,-731 70,-731"/>
<polygon fill="none" stroke="black" points="70,-731 70,-749 129,-749 129,-731 70,-731"/>
<text text-anchor="start" x="73" y="-737.2" font-family="Helvetica,sans-Serif" font-size="11.00">&lt; 0</text>
<polygon fill="#ffffff" stroke="transparent" points="129,-731 129,-749 207,-749 207,-731 129,-731"/>
<polygon fill="none" stroke="black" points="129,-731 129,-749 207,-749 207,-731 129,-731"/>
<text text-anchor="start" x="170" y="-737.2" font-family="Helvetica,sans-Serif" font-size="11.00">9 rows</text>
<polygon fill="#ffffff" stroke="transparent" points="207,-731 207,-749 301,-749 301,-731 207,-731"/>
<polygon fill="none" stroke="black" points="207,-731 207,-749 301,-749 301,-731 207,-731"/>
<text text-anchor="start" x="282" y="-737.2" font-family="Helvetica,sans-Serif" font-size="11.00">0 &gt;</text>
<polygon fill="none" stroke="black" stroke-width="2" points="68.5,-730 68.5,-1036 301.5,-1036 301.5,-730 68.5,-730"/>
</a>
</g>
</g>
<!-- dictionary_od_values -->
<g id="node3" class="node">
<title>dictionary_od_values</title>
<g id="a_node3"><a xlink:href="../../tables/dictionary_od_values.html" xlink:title="dictionary_od_values" target="_top">
<polygon fill="#ffffff" stroke="transparent" points="63,-1058 63,-1586 307,-1586 307,-1058 63,-1058"/>
<polygon fill="#f5f5f5" stroke="transparent" points="65,-1562 65,-1584 305,-1584 305,-1562 65,-1562"/>
<polygon fill="none" stroke="black" points="65,-1562 65,-1584 305,-1584 305,-1562 65,-1562"/>
<text text-anchor="start" x="70" y="-1571.2" font-family="Helvetica,sans-Serif" font-weight="bold" font-size="11.00">dictionary_od_values</text>
<text text-anchor="start" x="266" y="-1570.2" font-family="Helvetica,sans-Serif" font-size="11.00">[table]</text>
<polygon fill="none" stroke="black" points="65,-1540 65,-1562 211,-1562 211,-1540 65,-1540"/>
<image xlink:href="../../images/primaryKeys.png" width="11px" height="12px" preserveAspectRatio="xMinYMin meet" x="70" y="-1557"/>
<text text-anchor="start" x="85" y="-1548.2" font-family="Helvetica,sans-Serif" font-size="11.00">id</text>
<polygon fill="none" stroke="black" points="211,-1540 211,-1562 305,-1562 305,-1540 211,-1540"/>
<text text-anchor="start" x="214" y="-1548.2" font-family="Helvetica,sans-Serif" font-size="11.00">serial[10]</text>
<polygon fill="#ffffff" stroke="transparent" points="65,-1518 65,-1540 211,-1540 211,-1518 65,-1518"/>
<polygon fill="none" stroke="black" points="65,-1518 65,-1540 211,-1540 211,-1518 65,-1518"/>
<text text-anchor="start" x="85" y="-1526.2" font-family="Helvetica,sans-Serif" font-size="11.00">class_id</text>
<polygon fill="none" stroke="black" points="211,-1518 211,-1540 305,-1540 305,-1518 211,-1518"/>
<text text-anchor="start" x="214" y="-1526.2" font-family="Helvetica,sans-Serif" font-size="11.00">int4[10]</text>
<polygon fill="#ffffff" stroke="transparent" points="65,-1496 65,-1518 211,-1518 211,-1496 65,-1496"/>
<polygon fill="none" stroke="black" points="65,-1496 65,-1518 211,-1518 211,-1496 65,-1496"/>
<text text-anchor="start" x="85" y="-1504.2" font-family="Helvetica,sans-Serif" font-size="11.00">attribute_id</text>
<polygon fill="none" stroke="black" points="211,-1496 211,-1518 305,-1518 305,-1496 211,-1496"/>
<text text-anchor="start" x="214" y="-1504.2" font-family="Helvetica,sans-Serif" font-size="11.00">int4[10]</text>
<polygon fill="#ffffff" stroke="transparent" points="65,-1474 65,-1496 211,-1496 211,-1474 65,-1474"/>
<polygon fill="none" stroke="black" points="65,-1474 65,-1496 211,-1496 211,-1474 65,-1474"/>
<text text-anchor="start" x="85" y="-1482.2" font-family="Helvetica,sans-Serif" font-size="11.00">value_id</text>
<polygon fill="none" stroke="black" points="211,-1474 211,-1496 305,-1496 305,-1474 211,-1474"/>
<text text-anchor="start" x="214" y="-1482.2" font-family="Helvetica,sans-Serif" font-size="11.00">int4[10]</text>
<polygon fill="none" stroke="black" points="65,-1452 65,-1474 211,-1474 211,-1452 65,-1452"/>
<text text-anchor="start" x="85" y="-1460.2" font-family="Helvetica,sans-Serif" font-size="11.00">table_name</text>
<polygon fill="none" stroke="black" points="211,-1452 211,-1474 305,-1474 305,-1452 211,-1452"/>
<text text-anchor="start" x="214" y="-1460.2" font-family="Helvetica,sans-Serif" font-size="11.00">varchar[80]</text>
<polygon fill="none" stroke="black" points="65,-1430 65,-1452 211,-1452 211,-1430 65,-1430"/>
<text text-anchor="start" x="85" y="-1438.2" font-family="Helvetica,sans-Serif" font-size="11.00">field_name</text>
<polygon fill="none" stroke="black" points="211,-1430 211,-1452 305,-1452 305,-1430 211,-1430"/>
<text text-anchor="start" x="214" y="-1438.2" font-family="Helvetica,sans-Serif" font-size="11.00">varchar[80]</text>
<polygon fill="none" stroke="black" points="65,-1408 65,-1430 211,-1430 211,-1408 65,-1408"/>
<text text-anchor="start" x="85" y="-1416.2" font-family="Helvetica,sans-Serif" font-size="11.00">value_name</text>
<polygon fill="none" stroke="black" points="211,-1408 211,-1430 305,-1430 305,-1408 211,-1408"/>
<text text-anchor="start" x="214" y="-1416.2" font-family="Helvetica,sans-Serif" font-size="11.00">varchar[100]</text>
<polygon fill="none" stroke="black" points="65,-1386 65,-1408 211,-1408 211,-1386 65,-1386"/>
<text text-anchor="start" x="85" y="-1394.2" font-family="Helvetica,sans-Serif" font-size="11.00">value_name_en</text>
<polygon fill="none" stroke="black" points="211,-1386 211,-1408 305,-1408 305,-1386 211,-1386"/>
<text text-anchor="start" x="214" y="-1394.2" font-family="Helvetica,sans-Serif" font-size="11.00">varchar[80]</text>
<polygon fill="none" stroke="black" points="65,-1364 65,-1386 211,-1386 211,-1364 65,-1364"/>
<text text-anchor="start" x="85" y="-1372.2" font-family="Helvetica,sans-Serif" font-size="11.00">shortcut_en</text>
<polygon fill="none" stroke="black" points="211,-1364 211,-1386 305,-1386 305,-1364 211,-1364"/>
<text text-anchor="start" x="214" y="-1372.2" font-family="Helvetica,sans-Serif" font-size="11.00">bpchar[4]</text>
<polygon fill="none" stroke="black" points="65,-1342 65,-1364 211,-1364 211,-1342 65,-1342"/>
<text text-anchor="start" x="85" y="-1350.2" font-family="Helvetica,sans-Serif" font-size="11.00">value_name_de</text>
<polygon fill="none" stroke="black" points="211,-1342 211,-1364 305,-1364 305,-1342 211,-1342"/>
<text text-anchor="start" x="214" y="-1350.2" font-family="Helvetica,sans-Serif" font-size="11.00">varchar[100]</text>
<polygon fill="none" stroke="black" points="65,-1320 65,-1342 211,-1342 211,-1320 65,-1320"/>
<text text-anchor="start" x="85" y="-1328.2" font-family="Helvetica,sans-Serif" font-size="11.00">shortcut_de</text>
<polygon fill="none" stroke="black" points="211,-1320 211,-1342 305,-1342 305,-1320 211,-1320"/>
<text text-anchor="start" x="214" y="-1328.2" font-family="Helvetica,sans-Serif" font-size="11.00">bpchar[4]</text>
<polygon fill="none" stroke="black" points="65,-1298 65,-1320 211,-1320 211,-1298 65,-1298"/>
<text text-anchor="start" x="85" y="-1306.2" font-family="Helvetica,sans-Serif" font-size="11.00">value_name_fr</text>
<polygon fill="none" stroke="black" points="211,-1298 211,-1320 305,-1320 305,-1298 211,-1298"/>
<text text-anchor="start" x="214" y="-1306.2" font-family="Helvetica,sans-Serif" font-size="11.00">varchar[100]</text>
<polygon fill="none" stroke="black" points="65,-1276 65,-1298 211,-1298 211,-1276 65,-1276"/>
<text text-anchor="start" x="85" y="-1284.2" font-family="Helvetica,sans-Serif" font-size="11.00">shortcut_fr</text>
<polygon fill="none" stroke="black" points="211,-1276 211,-1298 305,-1298 305,-1276 211,-1276"/>
<text text-anchor="start" x="214" y="-1284.2" font-family="Helvetica,sans-Serif" font-size="11.00">bpchar[4]</text>
<polygon fill="none" stroke="black" points="65,-1254 65,-1276 211,-1276 211,-1254 65,-1254"/>
<text text-anchor="start" x="85" y="-1262.2" font-family="Helvetica,sans-Serif" font-size="11.00">value_name_it</text>
<polygon fill="none" stroke="black" points="211,-1254 211,-1276 305,-1276 305,-1254 211,-1254"/>
<text text-anchor="start" x="214" y="-1262.2" font-family="Helvetica,sans-Serif" font-size="11.00">varchar[100]</text>
<polygon fill="none" stroke="black" points="65,-1232 65,-1254 211,-1254 211,-1232 65,-1232"/>
<text text-anchor="start" x="85" y="-1240.2" font-family="Helvetica,sans-Serif" font-size="11.00">shortcut_it</text>
<polygon fill="none" stroke="black" points="211,-1232 211,-1254 305,-1254 305,-1232 211,-1232"/>
<text text-anchor="start" x="214" y="-1240.2" font-family="Helvetica,sans-Serif" font-size="11.00">bpchar[4]</text>
<polygon fill="none" stroke="black" points="65,-1210 65,-1232 211,-1232 211,-1210 65,-1210"/>
<text text-anchor="start" x="85" y="-1218.2" font-family="Helvetica,sans-Serif" font-size="11.00">value_name_ro</text>
<polygon fill="none" stroke="black" points="211,-1210 211,-1232 305,-1232 305,-1210 211,-1210"/>
<text text-anchor="start" x="214" y="-1218.2" font-family="Helvetica,sans-Serif" font-size="11.00">varchar[100]</text>
<polygon fill="none" stroke="black" points="65,-1188 65,-1210 211,-1210 211,-1188 65,-1188"/>
<text text-anchor="start" x="85" y="-1196.2" font-family="Helvetica,sans-Serif" font-size="11.00">shortcut_ro</text>
<polygon fill="none" stroke="black" points="211,-1188 211,-1210 305,-1210 305,-1188 211,-1188"/>
<text text-anchor="start" x="214" y="-1196.2" font-family="Helvetica,sans-Serif" font-size="11.00">bpchar[4]</text>
<polygon fill="none" stroke="black" points="65,-1166 65,-1188 211,-1188 211,-1166 65,-1166"/>
<text text-anchor="start" x="85" y="-1174.2" font-family="Helvetica,sans-Serif" font-size="11.00">value_description_en</text>
<polygon fill="none" stroke="black" points="211,-1166 211,-1188 305,-1188 305,-1166 211,-1166"/>
<text text-anchor="start" x="214" y="-1174.2" font-family="Helvetica,sans-Serif" font-size="11.00">text[2147483647]</text>
<polygon fill="none" stroke="black" points="65,-1144 65,-1166 211,-1166 211,-1144 65,-1144"/>
<text text-anchor="start" x="85" y="-1152.2" font-family="Helvetica,sans-Serif" font-size="11.00">value_description_de</text>
<polygon fill="none" stroke="black" points="211,-1144 211,-1166 305,-1166 305,-1144 211,-1144"/>
<text text-anchor="start" x="214" y="-1152.2" font-family="Helvetica,sans-Serif" font-size="11.00">text[2147483647]</text>
<polygon fill="none" stroke="black" points="65,-1122 65,-1144 211,-1144 211,-1122 65,-1122"/>
<text text-anchor="start" x="85" y="-1130.2" font-family="Helvetica,sans-Serif" font-size="11.00">value_description_fr</text>
<polygon fill="none" stroke="black" points="211,-1122 211,-1144 305,-1144 305,-1122 211,-1122"/>
<text text-anchor="start" x="214" y="-1130.2" font-family="Helvetica,sans-Serif" font-size="11.00">text[2147483647]</text>
<polygon fill="none" stroke="black" points="65,-1100 65,-1122 211,-1122 211,-1100 65,-1100"/>
<text text-anchor="start" x="85" y="-1108.2" font-family="Helvetica,sans-Serif" font-size="11.00">value_description_it</text>
<polygon fill="none" stroke="black" points="211,-1100 211,-1122 305,-1122 305,-1100 211,-1100"/>
<text text-anchor="start" x="214" y="-1108.2" font-family="Helvetica,sans-Serif" font-size="11.00">text[2147483647]</text>
<polygon fill="none" stroke="black" points="65,-1078 65,-1100 211,-1100 211,-1078 65,-1078"/>
<text text-anchor="start" x="85" y="-1086.2" font-family="Helvetica,sans-Serif" font-size="11.00">value_description_ro</text>
<polygon fill="none" stroke="black" points="211,-1078 211,-1100 305,-1100 305,-1078 211,-1078"/>
<text text-anchor="start" x="214" y="-1086.2" font-family="Helvetica,sans-Serif" font-size="11.00">text[2147483647]</text>
<polygon fill="#ffffff" stroke="transparent" points="65,-1060 65,-1078 123,-1078 123,-1060 65,-1060"/>
<polygon fill="none" stroke="black" points="65,-1060 65,-1078 123,-1078 123,-1060 65,-1060"/>
<text text-anchor="start" x="68" y="-1066.2" font-family="Helvetica,sans-Serif" font-size="11.00">&lt; 0</text>
<polygon fill="#ffffff" stroke="transparent" points="123,-1060 123,-1078 211,-1078 211,-1060 123,-1060"/>
<polygon fill="none" stroke="black" points="123,-1060 123,-1078 211,-1078 211,-1060 123,-1060"/>
<text text-anchor="start" x="162" y="-1066.2" font-family="Helvetica,sans-Serif" font-size="11.00">196 rows</text>
<polygon fill="#ffffff" stroke="transparent" points="211,-1060 211,-1078 305,-1078 305,-1060 211,-1060"/>
<polygon fill="none" stroke="black" points="211,-1060 211,-1078 305,-1078 305,-1060 211,-1060"/>
<text text-anchor="start" x="286" y="-1066.2" font-family="Helvetica,sans-Serif" font-size="11.00">0 &gt;</text>
<polygon fill="none" stroke="black" stroke-width="2" points="64,-1059 64,-1585 306,-1585 306,-1059 64,-1059"/>
</a>
</g>
</g>
<!-- oid_prefixes -->
<g id="node4" class="node">
<title>oid_prefixes</title>
<g id="a_node4"><a xlink:href="../../tables/oid_prefixes.html" xlink:title="oid_prefixes" target="_top">
<polygon fill="#ffffff" stroke="transparent" points="88,-1607 88,-1739 282,-1739 282,-1607 88,-1607"/>
<polygon fill="#f5f5f5" stroke="transparent" points="90,-1715 90,-1737 280,-1737 280,-1715 90,-1715"/>
<polygon fill="none" stroke="black" points="90,-1715 90,-1737 280,-1737 280,-1715 90,-1715"/>
<text text-anchor="start" x="95" y="-1724.2" font-family="Helvetica,sans-Serif" font-weight="bold" font-size="11.00">oid_prefixes</text>
<text text-anchor="start" x="241" y="-1723.2" font-family="Helvetica,sans-Serif" font-size="11.00">[table]</text>
<polygon fill="none" stroke="black" points="90,-1693 90,-1715 186,-1715 186,-1693 90,-1693"/>
<image xlink:href="../../images/primaryKeys.png" width="11px" height="12px" preserveAspectRatio="xMinYMin meet" x="95" y="-1710"/>
<text text-anchor="start" x="110" y="-1701.2" font-family="Helvetica,sans-Serif" font-size="11.00">id</text>
<polygon fill="none" stroke="black" points="186,-1693 186,-1715 280,-1715 280,-1693 186,-1693"/>
<text text-anchor="start" x="189" y="-1701.2" font-family="Helvetica,sans-Serif" font-size="11.00">serial[10]</text>
<polygon fill="none" stroke="black" points="90,-1671 90,-1693 186,-1693 186,-1671 90,-1671"/>
<text text-anchor="start" x="110" y="-1679.2" font-family="Helvetica,sans-Serif" font-size="11.00">prefix</text>
<polygon fill="none" stroke="black" points="186,-1671 186,-1693 280,-1693 280,-1671 186,-1671"/>
<text text-anchor="start" x="189" y="-1679.2" font-family="Helvetica,sans-Serif" font-size="11.00">bpchar[8]</text>
<polygon fill="none" stroke="black" points="90,-1649 90,-1671 186,-1671 186,-1649 90,-1649"/>
<text text-anchor="start" x="110" y="-1657.2" font-family="Helvetica,sans-Serif" font-size="11.00">organization</text>
<polygon fill="none" stroke="black" points="186,-1649 186,-1671 280,-1671 280,-1649 186,-1649"/>
<text text-anchor="start" x="189" y="-1657.2" font-family="Helvetica,sans-Serif" font-size="11.00">text[2147483647]</text>
<polygon fill="#ffffff" stroke="transparent" points="90,-1627 90,-1649 186,-1649 186,-1627 90,-1627"/>
<polygon fill="none" stroke="black" points="90,-1627 90,-1649 186,-1649 186,-1627 90,-1627"/>
<text text-anchor="start" x="110" y="-1635.2" font-family="Helvetica,sans-Serif" font-size="11.00">active</text>
<polygon fill="none" stroke="black" points="186,-1627 186,-1649 280,-1649 280,-1627 186,-1627"/>
<text text-anchor="start" x="189" y="-1635.2" font-family="Helvetica,sans-Serif" font-size="11.00">bool[1]</text>
<polygon fill="#ffffff" stroke="transparent" points="90,-1609 90,-1627 126,-1627 126,-1609 90,-1609"/>
<polygon fill="none" stroke="black" points="90,-1609 90,-1627 126,-1627 126,-1609 90,-1609"/>
<text text-anchor="start" x="93" y="-1615.2" font-family="Helvetica,sans-Serif" font-size="11.00">&lt; 0</text>
<polygon fill="#ffffff" stroke="transparent" points="126,-1609 126,-1627 186,-1627 186,-1609 126,-1609"/>
<polygon fill="none" stroke="black" points="126,-1609 126,-1627 186,-1627 186,-1609 126,-1609"/>
<text text-anchor="start" x="143" y="-1615.2" font-family="Helvetica,sans-Serif" font-size="11.00">10 rows</text>
<polygon fill="#ffffff" stroke="transparent" points="186,-1609 186,-1627 280,-1627 280,-1609 186,-1609"/>
<polygon fill="none" stroke="black" points="186,-1609 186,-1627 280,-1627 280,-1609 186,-1609"/>
<text text-anchor="start" x="261" y="-1615.2" font-family="Helvetica,sans-Serif" font-size="11.00">0 &gt;</text>
<polygon fill="none" stroke="black" stroke-width="2" points="89,-1608 89,-1738 281,-1738 281,-1608 89,-1608"/>
</a>
</g>
</g>
</g>
</svg>
