<?xml version="1.0" encoding="UTF-8" standalone="no"?>
<!DOCTYPE svg PUBLIC "-//W3C//DTD SVG 1.1//EN"
 "http://www.w3.org/Graphics/SVG/1.1/DTD/svg11.dtd">
<!-- Generated by graphviz version 2.43.0 (0)
 -->
<!-- Title: orphans Pages: 1 -->
<svg width="806pt" height="1146pt"
 viewBox="0.00 0.00 806.00 1146.00" xmlns="http://www.w3.org/2000/svg" xmlns:xlink="http://www.w3.org/1999/xlink">
<g id="graph0" class="graph" transform="scale(1 1) rotate(0) translate(4 1142)">
<title>orphans</title>
<polygon fill="#ffffff" stroke="transparent" points="-4,4 -4,-1142 802,-1142 802,4 -4,4"/>
<!-- dictionary_od_field -->
<g id="node1" class="node">
<title>dictionary_od_field</title>
<g id="a_node1"><a xlink:href="../../tables/dictionary_od_field.html" xlink:title="dictionary_od_field" target="_top">
<polygon fill="#ffffff" stroke="transparent" points="8,-4 8,-708 413,-708 413,-4 8,-4"/>
<polygon fill="#f5f5f5" stroke="transparent" points="10.5,-684 10.5,-706 411.5,-706 411.5,-684 10.5,-684"/>
<polygon fill="none" stroke="black" points="10.5,-684 10.5,-706 411.5,-706 411.5,-684 10.5,-684"/>
<text text-anchor="start" x="15.5" y="-693.2" font-family="Helvetica,sans-Serif" font-weight="bold" font-size="11.00">dictionary_od_field</text>
<text text-anchor="start" x="369.5" y="-692.2" font-family="Helvetica,sans-Serif" font-size="11.00">[table]</text>
<polygon fill="none" stroke="black" points="10.5,-662 10.5,-684 213.5,-684 213.5,-662 10.5,-662"/>
<image xlink:href="../../images/primaryKeys.png" width="11px" height="12px" preserveAspectRatio="xMinYMin meet" x="15.5" y="-679"/>
<text text-anchor="start" x="30.5" y="-670.2" font-family="Helvetica,sans-Serif" font-size="11.00">id</text>
<polygon fill="none" stroke="black" points="213.5,-662 213.5,-684 411.5,-684 411.5,-662 213.5,-662"/>
<text text-anchor="start" x="216.5" y="-670.2" font-family="Helvetica,sans-Serif" font-size="11.00">serial[10]</text>
<polygon fill="#ffffff" stroke="transparent" points="10.5,-640 10.5,-662 213.5,-662 213.5,-640 10.5,-640"/>
<polygon fill="none" stroke="black" points="10.5,-640 10.5,-662 213.5,-662 213.5,-640 10.5,-640"/>
<text text-anchor="start" x="30.5" y="-648.2" font-family="Helvetica,sans-Serif" font-size="11.00">class_id</text>
<polygon fill="none" stroke="black" points="213.5,-640 213.5,-662 411.5,-662 411.5,-640 213.5,-640"/>
<text text-anchor="start" x="216.5" y="-648.2" font-family="Helvetica,sans-Serif" font-size="11.00">int4[10]</text>
<polygon fill="#ffffff" stroke="transparent" points="10.5,-618 10.5,-640 213.5,-640 213.5,-618 10.5,-618"/>
<polygon fill="none" stroke="black" points="10.5,-618 10.5,-640 213.5,-640 213.5,-618 10.5,-618"/>
<text text-anchor="start" x="30.5" y="-626.2" font-family="Helvetica,sans-Serif" font-size="11.00">attribute_id</text>
<polygon fill="none" stroke="black" points="213.5,-618 213.5,-640 411.5,-640 411.5,-618 213.5,-618"/>
<text text-anchor="start" x="216.5" y="-626.2" font-family="Helvetica,sans-Serif" font-size="11.00">int4[10]</text>
<polygon fill="none" stroke="black" points="10.5,-596 10.5,-618 213.5,-618 213.5,-596 10.5,-596"/>
<text text-anchor="start" x="30.5" y="-604.2" font-family="Helvetica,sans-Serif" font-size="11.00">table_name</text>
<polygon fill="none" stroke="black" points="213.5,-596 213.5,-618 411.5,-618 411.5,-596 213.5,-596"/>
<text text-anchor="start" x="216.5" y="-604.2" font-family="Helvetica,sans-Serif" font-size="11.00">varchar[80]</text>
<polygon fill="none" stroke="black" points="10.5,-574 10.5,-596 213.5,-596 213.5,-574 10.5,-574"/>
<text text-anchor="start" x="30.5" y="-582.2" font-family="Helvetica,sans-Serif" font-size="11.00">field_name</text>
<polygon fill="none" stroke="black" points="213.5,-574 213.5,-596 411.5,-596 411.5,-574 213.5,-574"/>
<text text-anchor="start" x="216.5" y="-582.2" font-family="Helvetica,sans-Serif" font-size="11.00">varchar[80]</text>
<polygon fill="none" stroke="black" points="10.5,-552 10.5,-574 213.5,-574 213.5,-552 10.5,-552"/>
<text text-anchor="start" x="30.5" y="-560.2" font-family="Helvetica,sans-Serif" font-size="11.00">field_name_en</text>
<polygon fill="none" stroke="black" points="213.5,-552 213.5,-574 411.5,-574 411.5,-552 213.5,-552"/>
<text text-anchor="start" x="216.5" y="-560.2" font-family="Helvetica,sans-Serif" font-size="11.00">varchar[80]</text>
<polygon fill="none" stroke="black" points="10.5,-530 10.5,-552 213.5,-552 213.5,-530 10.5,-530"/>
<text text-anchor="start" x="30.5" y="-538.2" font-family="Helvetica,sans-Serif" font-size="11.00">field_name_de</text>
<polygon fill="none" stroke="black" points="213.5,-530 213.5,-552 411.5,-552 411.5,-530 213.5,-530"/>
<text text-anchor="start" x="216.5" y="-538.2" font-family="Helvetica,sans-Serif" font-size="11.00">varchar[100]</text>
<polygon fill="none" stroke="black" points="10.5,-508 10.5,-530 213.5,-530 213.5,-508 10.5,-508"/>
<text text-anchor="start" x="30.5" y="-516.2" font-family="Helvetica,sans-Serif" font-size="11.00">field_name_fr</text>
<polygon fill="none" stroke="black" points="213.5,-508 213.5,-530 411.5,-530 411.5,-508 213.5,-508"/>
<text text-anchor="start" x="216.5" y="-516.2" font-family="Helvetica,sans-Serif" font-size="11.00">varchar[100]</text>
<polygon fill="none" stroke="black" points="10.5,-486 10.5,-508 213.5,-508 213.5,-486 10.5,-486"/>
<text text-anchor="start" x="30.5" y="-494.2" font-family="Helvetica,sans-Serif" font-size="11.00">field_name_it</text>
<polygon fill="none" stroke="black" points="213.5,-486 213.5,-508 411.5,-508 411.5,-486 213.5,-486"/>
<text text-anchor="start" x="216.5" y="-494.2" font-family="Helvetica,sans-Serif" font-size="11.00">varchar[100]</text>
<polygon fill="none" stroke="black" points="10.5,-464 10.5,-486 213.5,-486 213.5,-464 10.5,-464"/>
<text text-anchor="start" x="30.5" y="-472.2" font-family="Helvetica,sans-Serif" font-size="11.00">field_name_ro</text>
<polygon fill="none" stroke="black" points="213.5,-464 213.5,-486 411.5,-486 411.5,-464 213.5,-464"/>
<text text-anchor="start" x="216.5" y="-472.2" font-family="Helvetica,sans-Serif" font-size="11.00">varchar[100]</text>
<polygon fill="none" stroke="black" points="10.5,-442 10.5,-464 213.5,-464 213.5,-442 10.5,-442"/>
<text text-anchor="start" x="30.5" y="-450.2" font-family="Helvetica,sans-Serif" font-size="11.00">field_description_en</text>
<polygon fill="none" stroke="black" points="213.5,-442 213.5,-464 411.5,-464 411.5,-442 213.5,-442"/>
<text text-anchor="start" x="216.5" y="-450.2" font-family="Helvetica,sans-Serif" font-size="11.00">text[2147483647]</text>
<polygon fill="none" stroke="black" points="10.5,-420 10.5,-442 213.5,-442 213.5,-420 10.5,-420"/>
<text text-anchor="start" x="30.5" y="-428.2" font-family="Helvetica,sans-Serif" font-size="11.00">field_description_de</text>
<polygon fill="none" stroke="black" points="213.5,-420 213.5,-442 411.5,-442 411.5,-420 213.5,-420"/>
<text text-anchor="start" x="216.5" y="-428.2" font-family="Helvetica,sans-Serif" font-size="11.00">text[2147483647]</text>
<polygon fill="none" stroke="black" points="10.5,-398 10.5,-420 213.5,-420 213.5,-398 10.5,-398"/>
<text text-anchor="start" x="30.5" y="-406.2" font-family="Helvetica,sans-Serif" font-size="11.00">field_description_fr</text>
<polygon fill="none" stroke="black" points="213.5,-398 213.5,-420 411.5,-420 411.5,-398 213.5,-398"/>
<text text-anchor="start" x="216.5" y="-406.2" font-family="Helvetica,sans-Serif" font-size="11.00">text[2147483647]</text>
<polygon fill="none" stroke="black" points="10.5,-376 10.5,-398 213.5,-398 213.5,-376 10.5,-376"/>
<text text-anchor="start" x="30.5" y="-384.2" font-family="Helvetica,sans-Serif" font-size="11.00">field_description_it</text>
<polygon fill="none" stroke="black" points="213.5,-376 213.5,-398 411.5,-398 411.5,-376 213.5,-376"/>
<text text-anchor="start" x="216.5" y="-384.2" font-family="Helvetica,sans-Serif" font-size="11.00">text[2147483647]</text>
<polygon fill="none" stroke="black" points="10.5,-354 10.5,-376 213.5,-376 213.5,-354 10.5,-354"/>
<text text-anchor="start" x="30.5" y="-362.2" font-family="Helvetica,sans-Serif" font-size="11.00">field_description_ro</text>
<polygon fill="none" stroke="black" points="213.5,-354 213.5,-376 411.5,-376 411.5,-354 213.5,-354"/>
<text text-anchor="start" x="216.5" y="-362.2" font-family="Helvetica,sans-Serif" font-size="11.00">text[2147483647]</text>
<polygon fill="none" stroke="black" points="10.5,-332 10.5,-354 213.5,-354 213.5,-332 10.5,-332"/>
<text text-anchor="start" x="30.5" y="-340.2" font-family="Helvetica,sans-Serif" font-size="11.00">field_mandatory</text>
<polygon fill="none" stroke="black" points="213.5,-332 213.5,-354 411.5,-354 411.5,-332 213.5,-332"/>
<text text-anchor="start" x="216.5" y="-340.2" font-family="Helvetica,sans-Serif" font-size="11.00">&quot;tdh_od&quot;.&quot;_plantype&quot;[2147483647]</text>
<polygon fill="none" stroke="black" points="10.5,-310 10.5,-332 213.5,-332 213.5,-310 10.5,-310"/>
<text text-anchor="start" x="30.5" y="-318.2" font-family="Helvetica,sans-Serif" font-size="11.00">field_visible</text>
<polygon fill="none" stroke="black" points="213.5,-310 213.5,-332 411.5,-332 411.5,-310 213.5,-310"/>
<text text-anchor="start" x="216.5" y="-318.2" font-family="Helvetica,sans-Serif" font-size="11.00">bool[1]</text>
<polygon fill="none" stroke="black" points="10.5,-288 10.5,-310 213.5,-310 213.5,-288 10.5,-288"/>
<text text-anchor="start" x="30.5" y="-296.2" font-family="Helvetica,sans-Serif" font-size="11.00">field_datatype</text>
<polygon fill="none" stroke="black" points="213.5,-288 213.5,-310 411.5,-310 411.5,-288 213.5,-288"/>
<text text-anchor="start" x="216.5" y="-296.2" font-family="Helvetica,sans-Serif" font-size="11.00">varchar[40]</text>
<polygon fill="none" stroke="black" points="10.5,-266 10.5,-288 213.5,-288 213.5,-266 10.5,-266"/>
<text text-anchor="start" x="30.5" y="-274.2" font-family="Helvetica,sans-Serif" font-size="11.00">field_unit_de</text>
<polygon fill="none" stroke="black" points="213.5,-266 213.5,-288 411.5,-288 411.5,-266 213.5,-266"/>
<text text-anchor="start" x="216.5" y="-274.2" font-family="Helvetica,sans-Serif" font-size="11.00">varchar[20]</text>
<polygon fill="none" stroke="black" points="10.5,-244 10.5,-266 213.5,-266 213.5,-244 10.5,-244"/>
<text text-anchor="start" x="30.5" y="-252.2" font-family="Helvetica,sans-Serif" font-size="11.00">field_unit_description_de</text>
<polygon fill="none" stroke="black" points="213.5,-244 213.5,-266 411.5,-266 411.5,-244 213.5,-244"/>
<text text-anchor="start" x="216.5" y="-252.2" font-family="Helvetica,sans-Serif" font-size="11.00">varchar[90]</text>
<polygon fill="none" stroke="black" points="10.5,-222 10.5,-244 213.5,-244 213.5,-222 10.5,-222"/>
<text text-anchor="start" x="30.5" y="-230.2" font-family="Helvetica,sans-Serif" font-size="11.00">field_unit_en</text>
<polygon fill="none" stroke="black" points="213.5,-222 213.5,-244 411.5,-244 411.5,-222 213.5,-222"/>
<text text-anchor="start" x="216.5" y="-230.2" font-family="Helvetica,sans-Serif" font-size="11.00">varchar[20]</text>
<polygon fill="none" stroke="black" points="10.5,-200 10.5,-222 213.5,-222 213.5,-200 10.5,-200"/>
<text text-anchor="start" x="30.5" y="-208.2" font-family="Helvetica,sans-Serif" font-size="11.00">field_unit_description_en</text>
<polygon fill="none" stroke="black" points="213.5,-200 213.5,-222 411.5,-222 411.5,-200 213.5,-200"/>
<text text-anchor="start" x="216.5" y="-208.2" font-family="Helvetica,sans-Serif" font-size="11.00">varchar[90]</text>
<polygon fill="none" stroke="black" points="10.5,-178 10.5,-200 213.5,-200 213.5,-178 10.5,-178"/>
<text text-anchor="start" x="30.5" y="-186.2" font-family="Helvetica,sans-Serif" font-size="11.00">field_unit_fr</text>
<polygon fill="none" stroke="black" points="213.5,-178 213.5,-200 411.5,-200 411.5,-178 213.5,-178"/>
<text text-anchor="start" x="216.5" y="-186.2" font-family="Helvetica,sans-Serif" font-size="11.00">varchar[20]</text>
<polygon fill="none" stroke="black" points="10.5,-156 10.5,-178 213.5,-178 213.5,-156 10.5,-156"/>
<text text-anchor="start" x="30.5" y="-164.2" font-family="Helvetica,sans-Serif" font-size="11.00">field_unit_description_fr</text>
<polygon fill="none" stroke="black" points="213.5,-156 213.5,-178 411.5,-178 411.5,-156 213.5,-156"/>
<text text-anchor="start" x="216.5" y="-164.2" font-family="Helvetica,sans-Serif" font-size="11.00">varchar[90]</text>
<polygon fill="none" stroke="black" points="10.5,-134 10.5,-156 213.5,-156 213.5,-134 10.5,-134"/>
<text text-anchor="start" x="30.5" y="-142.2" font-family="Helvetica,sans-Serif" font-size="11.00">field_unit_it</text>
<polygon fill="none" stroke="black" points="213.5,-134 213.5,-156 411.5,-156 411.5,-134 213.5,-134"/>
<text text-anchor="start" x="216.5" y="-142.2" font-family="Helvetica,sans-Serif" font-size="11.00">varchar[20]</text>
<polygon fill="none" stroke="black" points="10.5,-112 10.5,-134 213.5,-134 213.5,-112 10.5,-112"/>
<text text-anchor="start" x="30.5" y="-120.2" font-family="Helvetica,sans-Serif" font-size="11.00">field_unit_description_it</text>
<polygon fill="none" stroke="black" points="213.5,-112 213.5,-134 411.5,-134 411.5,-112 213.5,-112"/>
<text text-anchor="start" x="216.5" y="-120.2" font-family="Helvetica,sans-Serif" font-size="11.00">varchar[90]</text>
<polygon fill="none" stroke="black" points="10.5,-90 10.5,-112 213.5,-112 213.5,-90 10.5,-90"/>
<text text-anchor="start" x="30.5" y="-98.2" font-family="Helvetica,sans-Serif" font-size="11.00">field_unit_ro</text>
<polygon fill="none" stroke="black" points="213.5,-90 213.5,-112 411.5,-112 411.5,-90 213.5,-90"/>
<text text-anchor="start" x="216.5" y="-98.2" font-family="Helvetica,sans-Serif" font-size="11.00">varchar[20]</text>
<polygon fill="none" stroke="black" points="10.5,-68 10.5,-90 213.5,-90 213.5,-68 10.5,-68"/>
<text text-anchor="start" x="30.5" y="-76.2" font-family="Helvetica,sans-Serif" font-size="11.00">field_unit_description_ro</text>
<polygon fill="none" stroke="black" points="213.5,-68 213.5,-90 411.5,-90 411.5,-68 213.5,-68"/>
<text text-anchor="start" x="216.5" y="-76.2" font-family="Helvetica,sans-Serif" font-size="11.00">varchar[90]</text>
<polygon fill="none" stroke="black" points="10.5,-46 10.5,-68 213.5,-68 213.5,-46 10.5,-46"/>
<text text-anchor="start" x="30.5" y="-54.2" font-family="Helvetica,sans-Serif" font-size="11.00">field_min</text>
<polygon fill="none" stroke="black" points="213.5,-46 213.5,-68 411.5,-68 411.5,-46 213.5,-46"/>
<text text-anchor="start" x="216.5" y="-54.2" font-family="Helvetica,sans-Serif" font-size="11.00">numeric[0]</text>
<polygon fill="none" stroke="black" points="10.5,-24 10.5,-46 213.5,-46 213.5,-24 10.5,-24"/>
<text text-anchor="start" x="30.5" y="-32.2" font-family="Helvetica,sans-Serif" font-size="11.00">field_max</text>
<polygon fill="none" stroke="black" points="213.5,-24 213.5,-46 411.5,-46 411.5,-24 213.5,-24"/>
<text text-anchor="start" x="216.5" y="-32.2" font-family="Helvetica,sans-Serif" font-size="11.00">numeric[0]</text>
<polygon fill="#ffffff" stroke="transparent" points="10.5,-6 10.5,-24 411.5,-24 411.5,-6 10.5,-6"/>
<polygon fill="none" stroke="black" points="10.5,-6 10.5,-24 411.5,-24 411.5,-6 10.5,-6"/>
<polygon fill="#ffffff" stroke="transparent" points="11.5,-7 11.5,-23 134.5,-23 134.5,-7 11.5,-7"/>
<text text-anchor="start" x="13.5" y="-12.2" font-family="Helvetica,sans-Serif" font-size="11.00">&lt; 0</text>
<polygon fill="#ffffff" stroke="transparent" points="134.5,-7 134.5,-23 288.5,-23 288.5,-7 134.5,-7"/>
<text text-anchor="start" x="186" y="-12.2" font-family="Helvetica,sans-Serif" font-size="11.00">139 rows</text>
<polygon fill="#ffffff" stroke="transparent" points="288.5,-7 288.5,-23 410.5,-23 410.5,-7 288.5,-7"/>
<text text-anchor="start" x="388.5" y="-12.2" font-family="Helvetica,sans-Serif" font-size="11.00">0 &gt;</text>
<polygon fill="black" stroke="black" points="134.5,-7 134.5,-23 134.5,-23 134.5,-7 134.5,-7"/>
<polygon fill="black" stroke="black" points="288.5,-7 288.5,-23 288.5,-23 288.5,-7 288.5,-7"/>
<polygon fill="none" stroke="black" stroke-width="2" points="9,-5 9,-707 412,-707 412,-5 9,-5"/>
</a>
</g>
</g>
<!-- dictionary_od_table -->
<g id="node2" class="node">
<title>dictionary_od_table</title>
<g id="a_node2"><a xlink:href="../../tables/dictionary_od_table.html" xlink:title="dictionary_od_table" target="_top">
<polygon fill="#ffffff" stroke="transparent" points="481,-219 481,-527 754,-527 754,-219 481,-219"/>
<polygon fill="#f5f5f5" stroke="transparent" points="483.5,-503 483.5,-525 752.5,-525 752.5,-503 483.5,-503"/>
<polygon fill="none" stroke="black" points="483.5,-503 483.5,-525 752.5,-525 752.5,-503 483.5,-503"/>
<text text-anchor="start" x="488.5" y="-512.2" font-family="Helvetica,sans-Serif" font-weight="bold" font-size="11.00">dictionary_od_table</text>
<text text-anchor="start" x="710.5" y="-511.2" font-family="Helvetica,sans-Serif" font-size="11.00">[table]</text>
<polygon fill="none" stroke="black" points="483.5,-481 483.5,-503 646.5,-503 646.5,-481 483.5,-481"/>
<image xlink:href="../../images/primaryKeys.png" width="11px" height="12px" preserveAspectRatio="xMinYMin meet" x="488.5" y="-498"/>
<text text-anchor="start" x="503.5" y="-489.2" font-family="Helvetica,sans-Serif" font-size="11.00">id</text>
<polygon fill="none" stroke="black" points="646.5,-481 646.5,-503 752.5,-503 752.5,-481 646.5,-481"/>
<text text-anchor="start" x="649.5" y="-489.2" font-family="Helvetica,sans-Serif" font-size="11.00">int4[10]</text>
<polygon fill="#ffffff" stroke="transparent" points="483.5,-459 483.5,-481 646.5,-481 646.5,-459 483.5,-459"/>
<polygon fill="none" stroke="black" points="483.5,-459 483.5,-481 646.5,-481 646.5,-459 483.5,-459"/>
<text text-anchor="start" x="503.5" y="-467.2" font-family="Helvetica,sans-Serif" font-size="11.00">tablename</text>
<polygon fill="none" stroke="black" points="646.5,-459 646.5,-481 752.5,-481 752.5,-459 646.5,-459"/>
<text text-anchor="start" x="649.5" y="-467.2" font-family="Helvetica,sans-Serif" font-size="11.00">text[2147483647]</text>
<polygon fill="#ffffff" stroke="transparent" points="483.5,-437 483.5,-459 646.5,-459 646.5,-437 483.5,-437"/>
<polygon fill="none" stroke="black" points="483.5,-437 483.5,-459 646.5,-459 646.5,-437 483.5,-437"/>
<text text-anchor="start" x="503.5" y="-445.2" font-family="Helvetica,sans-Serif" font-size="11.00">name_en</text>
<polygon fill="none" stroke="black" points="646.5,-437 646.5,-459 752.5,-459 752.5,-437 646.5,-437"/>
<text text-anchor="start" x="649.5" y="-445.2" font-family="Helvetica,sans-Serif" font-size="11.00">text[2147483647]</text>
<polygon fill="#ffffff" stroke="transparent" points="483.5,-415 483.5,-437 646.5,-437 646.5,-415 483.5,-415"/>
<polygon fill="none" stroke="black" points="483.5,-415 483.5,-437 646.5,-437 646.5,-415 483.5,-415"/>
<text text-anchor="start" x="503.5" y="-423.2" font-family="Helvetica,sans-Serif" font-size="11.00">shortcut_en</text>
<polygon fill="none" stroke="black" points="646.5,-415 646.5,-437 752.5,-437 752.5,-415 646.5,-415"/>
<text text-anchor="start" x="649.5" y="-423.2" font-family="Helvetica,sans-Serif" font-size="11.00">bpchar[2]</text>
<polygon fill="#ffffff" stroke="transparent" points="483.5,-393 483.5,-415 646.5,-415 646.5,-393 483.5,-393"/>
<polygon fill="none" stroke="black" points="483.5,-393 483.5,-415 646.5,-415 646.5,-393 483.5,-393"/>
<text text-anchor="start" x="503.5" y="-401.2" font-family="Helvetica,sans-Serif" font-size="11.00">name_de</text>
<polygon fill="none" stroke="black" points="646.5,-393 646.5,-415 752.5,-415 752.5,-393 646.5,-393"/>
<text text-anchor="start" x="649.5" y="-401.2" font-family="Helvetica,sans-Serif" font-size="11.00">text[2147483647]</text>
<polygon fill="none" stroke="black" points="483.5,-371 483.5,-393 646.5,-393 646.5,-371 483.5,-371"/>
<text text-anchor="start" x="503.5" y="-379.2" font-family="Helvetica,sans-Serif" font-size="11.00">shortcut_de</text>
<polygon fill="none" stroke="black" points="646.5,-371 646.5,-393 752.5,-393 752.5,-371 646.5,-371"/>
<text text-anchor="start" x="649.5" y="-379.2" font-family="Helvetica,sans-Serif" font-size="11.00">bpchar[2]</text>
<polygon fill="#ffffff" stroke="transparent" points="483.5,-349 483.5,-371 646.5,-371 646.5,-349 483.5,-349"/>
<polygon fill="none" stroke="black" points="483.5,-349 483.5,-371 646.5,-371 646.5,-349 483.5,-349"/>
<text text-anchor="start" x="503.5" y="-357.2" font-family="Helvetica,sans-Serif" font-size="11.00">name_fr</text>
<polygon fill="none" stroke="black" points="646.5,-349 646.5,-371 752.5,-371 752.5,-349 646.5,-349"/>
<text text-anchor="start" x="649.5" y="-357.2" font-family="Helvetica,sans-Serif" font-size="11.00">text[2147483647]</text>
<polygon fill="none" stroke="black" points="483.5,-327 483.5,-349 646.5,-349 646.5,-327 483.5,-327"/>
<text text-anchor="start" x="503.5" y="-335.2" font-family="Helvetica,sans-Serif" font-size="11.00">shortcut_fr</text>
<polygon fill="none" stroke="black" points="646.5,-327 646.5,-349 752.5,-349 752.5,-327 646.5,-327"/>
<text text-anchor="start" x="649.5" y="-335.2" font-family="Helvetica,sans-Serif" font-size="11.00">bpchar[2]</text>
<polygon fill="none" stroke="black" points="483.5,-305 483.5,-327 646.5,-327 646.5,-305 483.5,-305"/>
<text text-anchor="start" x="503.5" y="-313.2" font-family="Helvetica,sans-Serif" font-size="11.00">name_it</text>
<polygon fill="none" stroke="black" points="646.5,-305 646.5,-327 752.5,-327 752.5,-305 646.5,-305"/>
<text text-anchor="start" x="649.5" y="-313.2" font-family="Helvetica,sans-Serif" font-size="11.00">text[2147483647]</text>
<polygon fill="none" stroke="black" points="483.5,-283 483.5,-305 646.5,-305 646.5,-283 483.5,-283"/>
<text text-anchor="start" x="503.5" y="-291.2" font-family="Helvetica,sans-Serif" font-size="11.00">shortcut_it</text>
<polygon fill="none" stroke="black" points="646.5,-283 646.5,-305 752.5,-305 752.5,-283 646.5,-283"/>
<text text-anchor="start" x="649.5" y="-291.2" font-family="Helvetica,sans-Serif" font-size="11.00">bpchar[4]</text>
<polygon fill="none" stroke="black" points="483.5,-261 483.5,-283 646.5,-283 646.5,-261 483.5,-261"/>
<text text-anchor="start" x="503.5" y="-269.2" font-family="Helvetica,sans-Serif" font-size="11.00">name_ro</text>
<polygon fill="none" stroke="black" points="646.5,-261 646.5,-283 752.5,-283 752.5,-261 646.5,-261"/>
<text text-anchor="start" x="649.5" y="-269.2" font-family="Helvetica,sans-Serif" font-size="11.00">text[2147483647]</text>
<polygon fill="none" stroke="black" points="483.5,-239 483.5,-261 646.5,-261 646.5,-239 483.5,-239"/>
<text text-anchor="start" x="503.5" y="-247.2" font-family="Helvetica,sans-Serif" font-size="11.00">shortcut_ro</text>
<polygon fill="none" stroke="black" points="646.5,-239 646.5,-261 752.5,-261 752.5,-239 646.5,-239"/>
<text text-anchor="start" x="649.5" y="-247.2" font-family="Helvetica,sans-Serif" font-size="11.00">bpchar[4]</text>
<polygon fill="#ffffff" stroke="transparent" points="483.5,-221 483.5,-239 752.5,-239 752.5,-221 483.5,-221"/>
<polygon fill="none" stroke="black" points="483.5,-221 483.5,-239 752.5,-239 752.5,-221 483.5,-221"/>
<polygon fill="#ffffff" stroke="transparent" points="484.5,-222 484.5,-238 568.5,-238 568.5,-222 484.5,-222"/>
<text text-anchor="start" x="486.5" y="-227.2" font-family="Helvetica,sans-Serif" font-size="11.00">&lt; 0</text>
<polygon fill="#ffffff" stroke="transparent" points="568.5,-222 568.5,-238 668.5,-238 668.5,-222 568.5,-222"/>
<text text-anchor="start" x="600" y="-227.2" font-family="Helvetica,sans-Serif" font-size="11.00">9 rows</text>
<polygon fill="#ffffff" stroke="transparent" points="668.5,-222 668.5,-238 751.5,-238 751.5,-222 668.5,-222"/>
<text text-anchor="start" x="729.5" y="-227.2" font-family="Helvetica,sans-Serif" font-size="11.00">0 &gt;</text>
<polygon fill="black" stroke="black" points="568.5,-222 568.5,-238 568.5,-238 568.5,-222 568.5,-222"/>
<polygon fill="black" stroke="black" points="668.5,-222 668.5,-238 668.5,-238 668.5,-222 668.5,-222"/>
<polygon fill="none" stroke="black" stroke-width="2" points="482,-220 482,-526 753,-526 753,-220 482,-220"/>
</a>
</g>
</g>
<!-- dictionary_od_values -->
<g id="node3" class="node">
<title>dictionary_od_values</title>
<g id="a_node3"><a xlink:href="../../tables/dictionary_od_values.html" xlink:title="dictionary_od_values" target="_top">
<polygon fill="#ffffff" stroke="transparent" points="481,-606 481,-1134 765,-1134 765,-606 481,-606"/>
<polygon fill="#f5f5f5" stroke="transparent" points="483,-1110 483,-1132 763,-1132 763,-1110 483,-1110"/>
<polygon fill="none" stroke="black" points="483,-1110 483,-1132 763,-1132 763,-1110 483,-1110"/>
<text text-anchor="start" x="488" y="-1119.2" font-family="Helvetica,sans-Serif" font-weight="bold" font-size="11.00">dictionary_od_values</text>
<text text-anchor="start" x="721" y="-1118.2" font-family="Helvetica,sans-Serif" font-size="11.00">[table]</text>
<polygon fill="none" stroke="black" points="483,-1088 483,-1110 657,-1110 657,-1088 483,-1088"/>
<image xlink:href="../../images/primaryKeys.png" width="11px" height="12px" preserveAspectRatio="xMinYMin meet" x="488" y="-1105"/>
<text text-anchor="start" x="503" y="-1096.2" font-family="Helvetica,sans-Serif" font-size="11.00">id</text>
<polygon fill="none" stroke="black" points="657,-1088 657,-1110 763,-1110 763,-1088 657,-1088"/>
<text text-anchor="start" x="660" y="-1096.2" font-family="Helvetica,sans-Serif" font-size="11.00">serial[10]</text>
<polygon fill="#ffffff" stroke="transparent" points="483,-1066 483,-1088 657,-1088 657,-1066 483,-1066"/>
<polygon fill="none" stroke="black" points="483,-1066 483,-1088 657,-1088 657,-1066 483,-1066"/>
<text text-anchor="start" x="503" y="-1074.2" font-family="Helvetica,sans-Serif" font-size="11.00">class_id</text>
<polygon fill="none" stroke="black" points="657,-1066 657,-1088 763,-1088 763,-1066 657,-1066"/>
<text text-anchor="start" x="660" y="-1074.2" font-family="Helvetica,sans-Serif" font-size="11.00">int4[10]</text>
<polygon fill="#ffffff" stroke="transparent" points="483,-1044 483,-1066 657,-1066 657,-1044 483,-1044"/>
<polygon fill="none" stroke="black" points="483,-1044 483,-1066 657,-1066 657,-1044 483,-1044"/>
<text text-anchor="start" x="503" y="-1052.2" font-family="Helvetica,sans-Serif" font-size="11.00">attribute_id</text>
<polygon fill="none" stroke="black" points="657,-1044 657,-1066 763,-1066 763,-1044 657,-1044"/>
<text text-anchor="start" x="660" y="-1052.2" font-family="Helvetica,sans-Serif" font-size="11.00">int4[10]</text>
<polygon fill="#ffffff" stroke="transparent" points="483,-1022 483,-1044 657,-1044 657,-1022 483,-1022"/>
<polygon fill="none" stroke="black" points="483,-1022 483,-1044 657,-1044 657,-1022 483,-1022"/>
<text text-anchor="start" x="503" y="-1030.2" font-family="Helvetica,sans-Serif" font-size="11.00">value_id</text>
<polygon fill="none" stroke="black" points="657,-1022 657,-1044 763,-1044 763,-1022 657,-1022"/>
<text text-anchor="start" x="660" y="-1030.2" font-family="Helvetica,sans-Serif" font-size="11.00">int4[10]</text>
<polygon fill="none" stroke="black" points="483,-1000 483,-1022 657,-1022 657,-1000 483,-1000"/>
<text text-anchor="start" x="503" y="-1008.2" font-family="Helvetica,sans-Serif" font-size="11.00">table_name</text>
<polygon fill="none" stroke="black" points="657,-1000 657,-1022 763,-1022 763,-1000 657,-1000"/>
<text text-anchor="start" x="660" y="-1008.2" font-family="Helvetica,sans-Serif" font-size="11.00">varchar[80]</text>
<polygon fill="none" stroke="black" points="483,-978 483,-1000 657,-1000 657,-978 483,-978"/>
<text text-anchor="start" x="503" y="-986.2" font-family="Helvetica,sans-Serif" font-size="11.00">field_name</text>
<polygon fill="none" stroke="black" points="657,-978 657,-1000 763,-1000 763,-978 657,-978"/>
<text text-anchor="start" x="660" y="-986.2" font-family="Helvetica,sans-Serif" font-size="11.00">varchar[80]</text>
<polygon fill="none" stroke="black" points="483,-956 483,-978 657,-978 657,-956 483,-956"/>
<text text-anchor="start" x="503" y="-964.2" font-family="Helvetica,sans-Serif" font-size="11.00">value_name</text>
<polygon fill="none" stroke="black" points="657,-956 657,-978 763,-978 763,-956 657,-956"/>
<text text-anchor="start" x="660" y="-964.2" font-family="Helvetica,sans-Serif" font-size="11.00">varchar[100]</text>
<polygon fill="none" stroke="black" points="483,-934 483,-956 657,-956 657,-934 483,-934"/>
<text text-anchor="start" x="503" y="-942.2" font-family="Helvetica,sans-Serif" font-size="11.00">value_name_en</text>
<polygon fill="none" stroke="black" points="657,-934 657,-956 763,-956 763,-934 657,-934"/>
<text text-anchor="start" x="660" y="-942.2" font-family="Helvetica,sans-Serif" font-size="11.00">varchar[80]</text>
<polygon fill="none" stroke="black" points="483,-912 483,-934 657,-934 657,-912 483,-912"/>
<text text-anchor="start" x="503" y="-920.2" font-family="Helvetica,sans-Serif" font-size="11.00">shortcut_en</text>
<polygon fill="none" stroke="black" points="657,-912 657,-934 763,-934 763,-912 657,-912"/>
<text text-anchor="start" x="660" y="-920.2" font-family="Helvetica,sans-Serif" font-size="11.00">bpchar[4]</text>
<polygon fill="none" stroke="black" points="483,-890 483,-912 657,-912 657,-890 483,-890"/>
<text text-anchor="start" x="503" y="-898.2" font-family="Helvetica,sans-Serif" font-size="11.00">value_name_de</text>
<polygon fill="none" stroke="black" points="657,-890 657,-912 763,-912 763,-890 657,-890"/>
<text text-anchor="start" x="660" y="-898.2" font-family="Helvetica,sans-Serif" font-size="11.00">varchar[100]</text>
<polygon fill="none" stroke="black" points="483,-868 483,-890 657,-890 657,-868 483,-868"/>
<text text-anchor="start" x="503" y="-876.2" font-family="Helvetica,sans-Serif" font-size="11.00">shortcut_de</text>
<polygon fill="none" stroke="black" points="657,-868 657,-890 763,-890 763,-868 657,-868"/>
<text text-anchor="start" x="660" y="-876.2" font-family="Helvetica,sans-Serif" font-size="11.00">bpchar[4]</text>
<polygon fill="none" stroke="black" points="483,-846 483,-868 657,-868 657,-846 483,-846"/>
<text text-anchor="start" x="503" y="-854.2" font-family="Helvetica,sans-Serif" font-size="11.00">value_name_fr</text>
<polygon fill="none" stroke="black" points="657,-846 657,-868 763,-868 763,-846 657,-846"/>
<text text-anchor="start" x="660" y="-854.2" font-family="Helvetica,sans-Serif" font-size="11.00">varchar[100]</text>
<polygon fill="none" stroke="black" points="483,-824 483,-846 657,-846 657,-824 483,-824"/>
<text text-anchor="start" x="503" y="-832.2" font-family="Helvetica,sans-Serif" font-size="11.00">shortcut_fr</text>
<polygon fill="none" stroke="black" points="657,-824 657,-846 763,-846 763,-824 657,-824"/>
<text text-anchor="start" x="660" y="-832.2" font-family="Helvetica,sans-Serif" font-size="11.00">bpchar[4]</text>
<polygon fill="none" stroke="black" points="483,-802 483,-824 657,-824 657,-802 483,-802"/>
<text text-anchor="start" x="503" y="-810.2" font-family="Helvetica,sans-Serif" font-size="11.00">value_name_it</text>
<polygon fill="none" stroke="black" points="657,-802 657,-824 763,-824 763,-802 657,-802"/>
<text text-anchor="start" x="660" y="-810.2" font-family="Helvetica,sans-Serif" font-size="11.00">varchar[100]</text>
<polygon fill="none" stroke="black" points="483,-780 483,-802 657,-802 657,-780 483,-780"/>
<text text-anchor="start" x="503" y="-788.2" font-family="Helvetica,sans-Serif" font-size="11.00">shortcut_it</text>
<polygon fill="none" stroke="black" points="657,-780 657,-802 763,-802 763,-780 657,-780"/>
<text text-anchor="start" x="660" y="-788.2" font-family="Helvetica,sans-Serif" font-size="11.00">bpchar[4]</text>
<polygon fill="none" stroke="black" points="483,-758 483,-780 657,-780 657,-758 483,-758"/>
<text text-anchor="start" x="503" y="-766.2" font-family="Helvetica,sans-Serif" font-size="11.00">value_name_ro</text>
<polygon fill="none" stroke="black" points="657,-758 657,-780 763,-780 763,-758 657,-758"/>
<text text-anchor="start" x="660" y="-766.2" font-family="Helvetica,sans-Serif" font-size="11.00">varchar[100]</text>
<polygon fill="none" stroke="black" points="483,-736 483,-758 657,-758 657,-736 483,-736"/>
<text text-anchor="start" x="503" y="-744.2" font-family="Helvetica,sans-Serif" font-size="11.00">shortcut_ro</text>
<polygon fill="none" stroke="black" points="657,-736 657,-758 763,-758 763,-736 657,-736"/>
<text text-anchor="start" x="660" y="-744.2" font-family="Helvetica,sans-Serif" font-size="11.00">bpchar[4]</text>
<polygon fill="none" stroke="black" points="483,-714 483,-736 657,-736 657,-714 483,-714"/>
<text text-anchor="start" x="503" y="-722.2" font-family="Helvetica,sans-Serif" font-size="11.00">value_description_en</text>
<polygon fill="none" stroke="black" points="657,-714 657,-736 763,-736 763,-714 657,-714"/>
<text text-anchor="start" x="660" y="-722.2" font-family="Helvetica,sans-Serif" font-size="11.00">text[2147483647]</text>
<polygon fill="none" stroke="black" points="483,-692 483,-714 657,-714 657,-692 483,-692"/>
<text text-anchor="start" x="503" y="-700.2" font-family="Helvetica,sans-Serif" font-size="11.00">value_description_de</text>
<polygon fill="none" stroke="black" points="657,-692 657,-714 763,-714 763,-692 657,-692"/>
<text text-anchor="start" x="660" y="-700.2" font-family="Helvetica,sans-Serif" font-size="11.00">text[2147483647]</text>
<polygon fill="none" stroke="black" points="483,-670 483,-692 657,-692 657,-670 483,-670"/>
<text text-anchor="start" x="503" y="-678.2" font-family="Helvetica,sans-Serif" font-size="11.00">value_description_fr</text>
<polygon fill="none" stroke="black" points="657,-670 657,-692 763,-692 763,-670 657,-670"/>
<text text-anchor="start" x="660" y="-678.2" font-family="Helvetica,sans-Serif" font-size="11.00">text[2147483647]</text>
<polygon fill="none" stroke="black" points="483,-648 483,-670 657,-670 657,-648 483,-648"/>
<text text-anchor="start" x="503" y="-656.2" font-family="Helvetica,sans-Serif" font-size="11.00">value_description_it</text>
<polygon fill="none" stroke="black" points="657,-648 657,-670 763,-670 763,-648 657,-648"/>
<text text-anchor="start" x="660" y="-656.2" font-family="Helvetica,sans-Serif" font-size="11.00">text[2147483647]</text>
<polygon fill="none" stroke="black" points="483,-626 483,-648 657,-648 657,-626 483,-626"/>
<text text-anchor="start" x="503" y="-634.2" font-family="Helvetica,sans-Serif" font-size="11.00">value_description_ro</text>
<polygon fill="none" stroke="black" points="657,-626 657,-648 763,-648 763,-626 657,-626"/>
<text text-anchor="start" x="660" y="-634.2" font-family="Helvetica,sans-Serif" font-size="11.00">text[2147483647]</text>
<polygon fill="#ffffff" stroke="transparent" points="483,-608 483,-626 763,-626 763,-608 483,-608"/>
<polygon fill="none" stroke="black" points="483,-608 483,-626 763,-626 763,-608 483,-608"/>
<polygon fill="#ffffff" stroke="transparent" points="484,-609 484,-625 567,-625 567,-609 484,-609"/>
<text text-anchor="start" x="486" y="-614.2" font-family="Helvetica,sans-Serif" font-size="11.00">&lt; 0</text>
<polygon fill="#ffffff" stroke="transparent" points="567,-609 567,-625 680,-625 680,-609 567,-609"/>
<text text-anchor="start" x="598" y="-614.2" font-family="Helvetica,sans-Serif" font-size="11.00">196 rows</text>
<polygon fill="#ffffff" stroke="transparent" points="680,-609 680,-625 762,-625 762,-609 680,-609"/>
<text text-anchor="start" x="740" y="-614.2" font-family="Helvetica,sans-Serif" font-size="11.00">0 &gt;</text>
<polygon fill="black" stroke="black" points="567,-609 567,-625 567,-625 567,-609 567,-609"/>
<polygon fill="black" stroke="black" points="680,-609 680,-625 680,-625 680,-609 680,-609"/>
<polygon fill="none" stroke="black" stroke-width="2" points="482,-607 482,-1133 764,-1133 764,-607 482,-607"/>
</a>
</g>
</g>
<!-- oid_prefixes -->
<g id="node4" class="node">
<title>oid_prefixes</title>
<g id="a_node4"><a xlink:href="../../tables/oid_prefixes.html" xlink:title="oid_prefixes" target="_top">
<polygon fill="#ffffff" stroke="transparent" points="567,-4 567,-136 790,-136 790,-4 567,-4"/>
<polygon fill="#f5f5f5" stroke="transparent" points="569.5,-112 569.5,-134 788.5,-134 788.5,-112 569.5,-112"/>
<polygon fill="none" stroke="black" points="569.5,-112 569.5,-134 788.5,-134 788.5,-112 569.5,-112"/>
<text text-anchor="start" x="574.5" y="-121.2" font-family="Helvetica,sans-Serif" font-weight="bold" font-size="11.00">oid_prefixes</text>
<text text-anchor="start" x="746.5" y="-120.2" font-family="Helvetica,sans-Serif" font-size="11.00">[table]</text>
<polygon fill="none" stroke="black" points="569.5,-90 569.5,-112 682.5,-112 682.5,-90 569.5,-90"/>
<image xlink:href="../../images/primaryKeys.png" width="11px" height="12px" preserveAspectRatio="xMinYMin meet" x="574.5" y="-107"/>
<text text-anchor="start" x="589.5" y="-98.2" font-family="Helvetica,sans-Serif" font-size="11.00">id</text>
<polygon fill="none" stroke="black" points="682.5,-90 682.5,-112 788.5,-112 788.5,-90 682.5,-90"/>
<text text-anchor="start" x="685.5" y="-98.2" font-family="Helvetica,sans-Serif" font-size="11.00">serial[10]</text>
<polygon fill="none" stroke="black" points="569.5,-68 569.5,-90 682.5,-90 682.5,-68 569.5,-68"/>
<text text-anchor="start" x="589.5" y="-76.2" font-family="Helvetica,sans-Serif" font-size="11.00">prefix</text>
<polygon fill="none" stroke="black" points="682.5,-68 682.5,-90 788.5,-90 788.5,-68 682.5,-68"/>
<text text-anchor="start" x="685.5" y="-76.2" font-family="Helvetica,sans-Serif" font-size="11.00">bpchar[8]</text>
<polygon fill="none" stroke="black" points="569.5,-46 569.5,-68 682.5,-68 682.5,-46 569.5,-46"/>
<text text-anchor="start" x="589.5" y="-54.2" font-family="Helvetica,sans-Serif" font-size="11.00">organization</text>
<polygon fill="none" stroke="black" points="682.5,-46 682.5,-68 788.5,-68 788.5,-46 682.5,-46"/>
<text text-anchor="start" x="685.5" y="-54.2" font-family="Helvetica,sans-Serif" font-size="11.00">text[2147483647]</text>
<polygon fill="#ffffff" stroke="transparent" points="569.5,-24 569.5,-46 682.5,-46 682.5,-24 569.5,-24"/>
<polygon fill="none" stroke="black" points="569.5,-24 569.5,-46 682.5,-46 682.5,-24 569.5,-24"/>
<text text-anchor="start" x="589.5" y="-32.2" font-family="Helvetica,sans-Serif" font-size="11.00">active</text>
<polygon fill="none" stroke="black" points="682.5,-24 682.5,-46 788.5,-46 788.5,-24 682.5,-24"/>
<text text-anchor="start" x="685.5" y="-32.2" font-family="Helvetica,sans-Serif" font-size="11.00">bool[1]</text>
<polygon fill="#ffffff" stroke="transparent" points="569.5,-6 569.5,-24 788.5,-24 788.5,-6 569.5,-6"/>
<polygon fill="none" stroke="black" points="569.5,-6 569.5,-24 788.5,-24 788.5,-6 569.5,-6"/>
<polygon fill="#ffffff" stroke="transparent" points="570.5,-7 570.5,-23 635.5,-23 635.5,-7 570.5,-7"/>
<text text-anchor="start" x="572.5" y="-12.2" font-family="Helvetica,sans-Serif" font-size="11.00">&lt; 0</text>
<polygon fill="#ffffff" stroke="transparent" points="635.5,-7 635.5,-23 723.5,-23 723.5,-7 635.5,-7"/>
<text text-anchor="start" x="657.5" y="-12.2" font-family="Helvetica,sans-Serif" font-size="11.00">10 rows</text>
<polygon fill="#ffffff" stroke="transparent" points="723.5,-7 723.5,-23 787.5,-23 787.5,-7 723.5,-7"/>
<text text-anchor="start" x="765.5" y="-12.2" font-family="Helvetica,sans-Serif" font-size="11.00">0 &gt;</text>
<polygon fill="black" stroke="black" points="635.5,-7 635.5,-23 635.5,-23 635.5,-7 635.5,-7"/>
<polygon fill="black" stroke="black" points="723.5,-7 723.5,-23 723.5,-23 723.5,-7 723.5,-7"/>
<polygon fill="none" stroke="black" stroke-width="2" points="568,-5 568,-135 789,-135 789,-5 568,-5"/>
</a>
</g>
</g>
</g>
</svg>
