<?xml version="1.0" encoding="UTF-8" standalone="no"?>
<!DOCTYPE svg PUBLIC "-//W3C//DTD SVG 1.1//EN"
 "http://www.w3.org/Graphics/SVG/1.1/DTD/svg11.dtd">
<!-- Generated by graphviz version 2.43.0 (0)
 -->
<!-- Title: orphans Pages: 1 -->
<svg width="1115pt" height="1200pt"
 viewBox="0.00 0.00 1115.00 1200.00" xmlns="http://www.w3.org/2000/svg" xmlns:xlink="http://www.w3.org/1999/xlink">
<g id="graph0" class="graph" transform="scale(1 1) rotate(0) translate(4 1196)">
<title>orphans</title>
<polygon fill="#ffffff" stroke="transparent" points="-4,4 -4,-1196 1111,-1196 1111,4 -4,4"/>
<!-- dictionary_od_field -->
<g id="node1" class="node">
<title>dictionary_od_field</title>
<g id="a_node1"><a xlink:href="../../tables/dictionary_od_field.html" xlink:title="dictionary_od_field" target="_top">
<polygon fill="#ffffff" stroke="transparent" points="213,-4 213,-708 618,-708 618,-4 213,-4"/>
<polygon fill="#f5f5f5" stroke="transparent" points="215.5,-684 215.5,-706 616.5,-706 616.5,-684 215.5,-684"/>
<polygon fill="none" stroke="black" points="215.5,-684 215.5,-706 616.5,-706 616.5,-684 215.5,-684"/>
<text text-anchor="start" x="220.5" y="-693.2" font-family="Helvetica,sans-Serif" font-weight="bold" font-size="11.00">dictionary_od_field</text>
<text text-anchor="start" x="574.5" y="-692.2" font-family="Helvetica,sans-Serif" font-size="11.00">[table]</text>
<polygon fill="none" stroke="black" points="215.5,-662 215.5,-684 418.5,-684 418.5,-662 215.5,-662"/>
<image xlink:href="../../images/primaryKeys.png" width="11px" height="12px" preserveAspectRatio="xMinYMin meet" x="220.5" y="-679"/>
<text text-anchor="start" x="235.5" y="-670.2" font-family="Helvetica,sans-Serif" font-size="11.00">id</text>
<polygon fill="none" stroke="black" points="418.5,-662 418.5,-684 616.5,-684 616.5,-662 418.5,-662"/>
<text text-anchor="start" x="421.5" y="-670.2" font-family="Helvetica,sans-Serif" font-size="11.00">serial[10]</text>
<polygon fill="#ffffff" stroke="transparent" points="215.5,-640 215.5,-662 418.5,-662 418.5,-640 215.5,-640"/>
<polygon fill="none" stroke="black" points="215.5,-640 215.5,-662 418.5,-662 418.5,-640 215.5,-640"/>
<text text-anchor="start" x="235.5" y="-648.2" font-family="Helvetica,sans-Serif" font-size="11.00">class_id</text>
<polygon fill="none" stroke="black" points="418.5,-640 418.5,-662 616.5,-662 616.5,-640 418.5,-640"/>
<text text-anchor="start" x="421.5" y="-648.2" font-family="Helvetica,sans-Serif" font-size="11.00">int4[10]</text>
<polygon fill="#ffffff" stroke="transparent" points="215.5,-618 215.5,-640 418.5,-640 418.5,-618 215.5,-618"/>
<polygon fill="none" stroke="black" points="215.5,-618 215.5,-640 418.5,-640 418.5,-618 215.5,-618"/>
<text text-anchor="start" x="235.5" y="-626.2" font-family="Helvetica,sans-Serif" font-size="11.00">attribute_id</text>
<polygon fill="none" stroke="black" points="418.5,-618 418.5,-640 616.5,-640 616.5,-618 418.5,-618"/>
<text text-anchor="start" x="421.5" y="-626.2" font-family="Helvetica,sans-Serif" font-size="11.00">int4[10]</text>
<polygon fill="none" stroke="black" points="215.5,-596 215.5,-618 418.5,-618 418.5,-596 215.5,-596"/>
<text text-anchor="start" x="235.5" y="-604.2" font-family="Helvetica,sans-Serif" font-size="11.00">table_name</text>
<polygon fill="none" stroke="black" points="418.5,-596 418.5,-618 616.5,-618 616.5,-596 418.5,-596"/>
<text text-anchor="start" x="421.5" y="-604.2" font-family="Helvetica,sans-Serif" font-size="11.00">varchar[80]</text>
<polygon fill="none" stroke="black" points="215.5,-574 215.5,-596 418.5,-596 418.5,-574 215.5,-574"/>
<text text-anchor="start" x="235.5" y="-582.2" font-family="Helvetica,sans-Serif" font-size="11.00">field_name</text>
<polygon fill="none" stroke="black" points="418.5,-574 418.5,-596 616.5,-596 616.5,-574 418.5,-574"/>
<text text-anchor="start" x="421.5" y="-582.2" font-family="Helvetica,sans-Serif" font-size="11.00">varchar[80]</text>
<polygon fill="none" stroke="black" points="215.5,-552 215.5,-574 418.5,-574 418.5,-552 215.5,-552"/>
<text text-anchor="start" x="235.5" y="-560.2" font-family="Helvetica,sans-Serif" font-size="11.00">field_name_en</text>
<polygon fill="none" stroke="black" points="418.5,-552 418.5,-574 616.5,-574 616.5,-552 418.5,-552"/>
<text text-anchor="start" x="421.5" y="-560.2" font-family="Helvetica,sans-Serif" font-size="11.00">varchar[80]</text>
<polygon fill="none" stroke="black" points="215.5,-530 215.5,-552 418.5,-552 418.5,-530 215.5,-530"/>
<text text-anchor="start" x="235.5" y="-538.2" font-family="Helvetica,sans-Serif" font-size="11.00">field_name_de</text>
<polygon fill="none" stroke="black" points="418.5,-530 418.5,-552 616.5,-552 616.5,-530 418.5,-530"/>
<text text-anchor="start" x="421.5" y="-538.2" font-family="Helvetica,sans-Serif" font-size="11.00">varchar[100]</text>
<polygon fill="none" stroke="black" points="215.5,-508 215.5,-530 418.5,-530 418.5,-508 215.5,-508"/>
<text text-anchor="start" x="235.5" y="-516.2" font-family="Helvetica,sans-Serif" font-size="11.00">field_name_fr</text>
<polygon fill="none" stroke="black" points="418.5,-508 418.5,-530 616.5,-530 616.5,-508 418.5,-508"/>
<text text-anchor="start" x="421.5" y="-516.2" font-family="Helvetica,sans-Serif" font-size="11.00">varchar[100]</text>
<polygon fill="none" stroke="black" points="215.5,-486 215.5,-508 418.5,-508 418.5,-486 215.5,-486"/>
<text text-anchor="start" x="235.5" y="-494.2" font-family="Helvetica,sans-Serif" font-size="11.00">field_name_it</text>
<polygon fill="none" stroke="black" points="418.5,-486 418.5,-508 616.5,-508 616.5,-486 418.5,-486"/>
<text text-anchor="start" x="421.5" y="-494.2" font-family="Helvetica,sans-Serif" font-size="11.00">varchar[100]</text>
<polygon fill="none" stroke="black" points="215.5,-464 215.5,-486 418.5,-486 418.5,-464 215.5,-464"/>
<text text-anchor="start" x="235.5" y="-472.2" font-family="Helvetica,sans-Serif" font-size="11.00">field_name_ro</text>
<polygon fill="none" stroke="black" points="418.5,-464 418.5,-486 616.5,-486 616.5,-464 418.5,-464"/>
<text text-anchor="start" x="421.5" y="-472.2" font-family="Helvetica,sans-Serif" font-size="11.00">varchar[100]</text>
<polygon fill="none" stroke="black" points="215.5,-442 215.5,-464 418.5,-464 418.5,-442 215.5,-442"/>
<text text-anchor="start" x="235.5" y="-450.2" font-family="Helvetica,sans-Serif" font-size="11.00">field_description_en</text>
<polygon fill="none" stroke="black" points="418.5,-442 418.5,-464 616.5,-464 616.5,-442 418.5,-442"/>
<text text-anchor="start" x="421.5" y="-450.2" font-family="Helvetica,sans-Serif" font-size="11.00">text[2147483647]</text>
<polygon fill="none" stroke="black" points="215.5,-420 215.5,-442 418.5,-442 418.5,-420 215.5,-420"/>
<text text-anchor="start" x="235.5" y="-428.2" font-family="Helvetica,sans-Serif" font-size="11.00">field_description_de</text>
<polygon fill="none" stroke="black" points="418.5,-420 418.5,-442 616.5,-442 616.5,-420 418.5,-420"/>
<text text-anchor="start" x="421.5" y="-428.2" font-family="Helvetica,sans-Serif" font-size="11.00">text[2147483647]</text>
<polygon fill="none" stroke="black" points="215.5,-398 215.5,-420 418.5,-420 418.5,-398 215.5,-398"/>
<text text-anchor="start" x="235.5" y="-406.2" font-family="Helvetica,sans-Serif" font-size="11.00">field_description_fr</text>
<polygon fill="none" stroke="black" points="418.5,-398 418.5,-420 616.5,-420 616.5,-398 418.5,-398"/>
<text text-anchor="start" x="421.5" y="-406.2" font-family="Helvetica,sans-Serif" font-size="11.00">text[2147483647]</text>
<polygon fill="none" stroke="black" points="215.5,-376 215.5,-398 418.5,-398 418.5,-376 215.5,-376"/>
<text text-anchor="start" x="235.5" y="-384.2" font-family="Helvetica,sans-Serif" font-size="11.00">field_description_it</text>
<polygon fill="none" stroke="black" points="418.5,-376 418.5,-398 616.5,-398 616.5,-376 418.5,-376"/>
<text text-anchor="start" x="421.5" y="-384.2" font-family="Helvetica,sans-Serif" font-size="11.00">text[2147483647]</text>
<polygon fill="none" stroke="black" points="215.5,-354 215.5,-376 418.5,-376 418.5,-354 215.5,-354"/>
<text text-anchor="start" x="235.5" y="-362.2" font-family="Helvetica,sans-Serif" font-size="11.00">field_description_ro</text>
<polygon fill="none" stroke="black" points="418.5,-354 418.5,-376 616.5,-376 616.5,-354 418.5,-354"/>
<text text-anchor="start" x="421.5" y="-362.2" font-family="Helvetica,sans-Serif" font-size="11.00">text[2147483647]</text>
<polygon fill="none" stroke="black" points="215.5,-332 215.5,-354 418.5,-354 418.5,-332 215.5,-332"/>
<text text-anchor="start" x="235.5" y="-340.2" font-family="Helvetica,sans-Serif" font-size="11.00">field_mandatory</text>
<polygon fill="none" stroke="black" points="418.5,-332 418.5,-354 616.5,-354 616.5,-332 418.5,-332"/>
<text text-anchor="start" x="421.5" y="-340.2" font-family="Helvetica,sans-Serif" font-size="11.00">&quot;tdh_od&quot;.&quot;_plantype&quot;[2147483647]</text>
<polygon fill="none" stroke="black" points="215.5,-310 215.5,-332 418.5,-332 418.5,-310 215.5,-310"/>
<text text-anchor="start" x="235.5" y="-318.2" font-family="Helvetica,sans-Serif" font-size="11.00">field_visible</text>
<polygon fill="none" stroke="black" points="418.5,-310 418.5,-332 616.5,-332 616.5,-310 418.5,-310"/>
<text text-anchor="start" x="421.5" y="-318.2" font-family="Helvetica,sans-Serif" font-size="11.00">bool[1]</text>
<polygon fill="none" stroke="black" points="215.5,-288 215.5,-310 418.5,-310 418.5,-288 215.5,-288"/>
<text text-anchor="start" x="235.5" y="-296.2" font-family="Helvetica,sans-Serif" font-size="11.00">field_datatype</text>
<polygon fill="none" stroke="black" points="418.5,-288 418.5,-310 616.5,-310 616.5,-288 418.5,-288"/>
<text text-anchor="start" x="421.5" y="-296.2" font-family="Helvetica,sans-Serif" font-size="11.00">varchar[40]</text>
<polygon fill="none" stroke="black" points="215.5,-266 215.5,-288 418.5,-288 418.5,-266 215.5,-266"/>
<text text-anchor="start" x="235.5" y="-274.2" font-family="Helvetica,sans-Serif" font-size="11.00">field_unit_de</text>
<polygon fill="none" stroke="black" points="418.5,-266 418.5,-288 616.5,-288 616.5,-266 418.5,-266"/>
<text text-anchor="start" x="421.5" y="-274.2" font-family="Helvetica,sans-Serif" font-size="11.00">varchar[20]</text>
<polygon fill="none" stroke="black" points="215.5,-244 215.5,-266 418.5,-266 418.5,-244 215.5,-244"/>
<text text-anchor="start" x="235.5" y="-252.2" font-family="Helvetica,sans-Serif" font-size="11.00">field_unit_description_de</text>
<polygon fill="none" stroke="black" points="418.5,-244 418.5,-266 616.5,-266 616.5,-244 418.5,-244"/>
<text text-anchor="start" x="421.5" y="-252.2" font-family="Helvetica,sans-Serif" font-size="11.00">varchar[90]</text>
<polygon fill="none" stroke="black" points="215.5,-222 215.5,-244 418.5,-244 418.5,-222 215.5,-222"/>
<text text-anchor="start" x="235.5" y="-230.2" font-family="Helvetica,sans-Serif" font-size="11.00">field_unit_en</text>
<polygon fill="none" stroke="black" points="418.5,-222 418.5,-244 616.5,-244 616.5,-222 418.5,-222"/>
<text text-anchor="start" x="421.5" y="-230.2" font-family="Helvetica,sans-Serif" font-size="11.00">varchar[20]</text>
<polygon fill="none" stroke="black" points="215.5,-200 215.5,-222 418.5,-222 418.5,-200 215.5,-200"/>
<text text-anchor="start" x="235.5" y="-208.2" font-family="Helvetica,sans-Serif" font-size="11.00">field_unit_description_en</text>
<polygon fill="none" stroke="black" points="418.5,-200 418.5,-222 616.5,-222 616.5,-200 418.5,-200"/>
<text text-anchor="start" x="421.5" y="-208.2" font-family="Helvetica,sans-Serif" font-size="11.00">varchar[90]</text>
<polygon fill="none" stroke="black" points="215.5,-178 215.5,-200 418.5,-200 418.5,-178 215.5,-178"/>
<text text-anchor="start" x="235.5" y="-186.2" font-family="Helvetica,sans-Serif" font-size="11.00">field_unit_fr</text>
<polygon fill="none" stroke="black" points="418.5,-178 418.5,-200 616.5,-200 616.5,-178 418.5,-178"/>
<text text-anchor="start" x="421.5" y="-186.2" font-family="Helvetica,sans-Serif" font-size="11.00">varchar[20]</text>
<polygon fill="none" stroke="black" points="215.5,-156 215.5,-178 418.5,-178 418.5,-156 215.5,-156"/>
<text text-anchor="start" x="235.5" y="-164.2" font-family="Helvetica,sans-Serif" font-size="11.00">field_unit_description_fr</text>
<polygon fill="none" stroke="black" points="418.5,-156 418.5,-178 616.5,-178 616.5,-156 418.5,-156"/>
<text text-anchor="start" x="421.5" y="-164.2" font-family="Helvetica,sans-Serif" font-size="11.00">varchar[90]</text>
<polygon fill="none" stroke="black" points="215.5,-134 215.5,-156 418.5,-156 418.5,-134 215.5,-134"/>
<text text-anchor="start" x="235.5" y="-142.2" font-family="Helvetica,sans-Serif" font-size="11.00">field_unit_it</text>
<polygon fill="none" stroke="black" points="418.5,-134 418.5,-156 616.5,-156 616.5,-134 418.5,-134"/>
<text text-anchor="start" x="421.5" y="-142.2" font-family="Helvetica,sans-Serif" font-size="11.00">varchar[20]</text>
<polygon fill="none" stroke="black" points="215.5,-112 215.5,-134 418.5,-134 418.5,-112 215.5,-112"/>
<text text-anchor="start" x="235.5" y="-120.2" font-family="Helvetica,sans-Serif" font-size="11.00">field_unit_description_it</text>
<polygon fill="none" stroke="black" points="418.5,-112 418.5,-134 616.5,-134 616.5,-112 418.5,-112"/>
<text text-anchor="start" x="421.5" y="-120.2" font-family="Helvetica,sans-Serif" font-size="11.00">varchar[90]</text>
<polygon fill="none" stroke="black" points="215.5,-90 215.5,-112 418.5,-112 418.5,-90 215.5,-90"/>
<text text-anchor="start" x="235.5" y="-98.2" font-family="Helvetica,sans-Serif" font-size="11.00">field_unit_ro</text>
<polygon fill="none" stroke="black" points="418.5,-90 418.5,-112 616.5,-112 616.5,-90 418.5,-90"/>
<text text-anchor="start" x="421.5" y="-98.2" font-family="Helvetica,sans-Serif" font-size="11.00">varchar[20]</text>
<polygon fill="none" stroke="black" points="215.5,-68 215.5,-90 418.5,-90 418.5,-68 215.5,-68"/>
<text text-anchor="start" x="235.5" y="-76.2" font-family="Helvetica,sans-Serif" font-size="11.00">field_unit_description_ro</text>
<polygon fill="none" stroke="black" points="418.5,-68 418.5,-90 616.5,-90 616.5,-68 418.5,-68"/>
<text text-anchor="start" x="421.5" y="-76.2" font-family="Helvetica,sans-Serif" font-size="11.00">varchar[90]</text>
<polygon fill="none" stroke="black" points="215.5,-46 215.5,-68 418.5,-68 418.5,-46 215.5,-46"/>
<text text-anchor="start" x="235.5" y="-54.2" font-family="Helvetica,sans-Serif" font-size="11.00">field_min</text>
<polygon fill="none" stroke="black" points="418.5,-46 418.5,-68 616.5,-68 616.5,-46 418.5,-46"/>
<text text-anchor="start" x="421.5" y="-54.2" font-family="Helvetica,sans-Serif" font-size="11.00">numeric[0]</text>
<polygon fill="none" stroke="black" points="215.5,-24 215.5,-46 418.5,-46 418.5,-24 215.5,-24"/>
<text text-anchor="start" x="235.5" y="-32.2" font-family="Helvetica,sans-Serif" font-size="11.00">field_max</text>
<polygon fill="none" stroke="black" points="418.5,-24 418.5,-46 616.5,-46 616.5,-24 418.5,-24"/>
<text text-anchor="start" x="421.5" y="-32.2" font-family="Helvetica,sans-Serif" font-size="11.00">numeric[0]</text>
<polygon fill="#ffffff" stroke="transparent" points="215.5,-6 215.5,-24 616.5,-24 616.5,-6 215.5,-6"/>
<polygon fill="none" stroke="black" points="215.5,-6 215.5,-24 616.5,-24 616.5,-6 215.5,-6"/>
<polygon fill="#ffffff" stroke="transparent" points="216.5,-7 216.5,-23 339.5,-23 339.5,-7 216.5,-7"/>
<text text-anchor="start" x="218.5" y="-12.2" font-family="Helvetica,sans-Serif" font-size="11.00">&lt; 0</text>
<polygon fill="#ffffff" stroke="transparent" points="339.5,-7 339.5,-23 493.5,-23 493.5,-7 339.5,-7"/>
<text text-anchor="start" x="391" y="-12.2" font-family="Helvetica,sans-Serif" font-size="11.00">139 rows</text>
<polygon fill="#ffffff" stroke="transparent" points="493.5,-7 493.5,-23 615.5,-23 615.5,-7 493.5,-7"/>
<text text-anchor="start" x="593.5" y="-12.2" font-family="Helvetica,sans-Serif" font-size="11.00">0 &gt;</text>
<polygon fill="black" stroke="black" points="339.5,-7 339.5,-23 339.5,-23 339.5,-7 339.5,-7"/>
<polygon fill="black" stroke="black" points="493.5,-7 493.5,-23 493.5,-23 493.5,-7 493.5,-7"/>
<polygon fill="none" stroke="black" stroke-width="2" points="214,-5 214,-707 617,-707 617,-5 214,-5"/>
</a>
</g>
</g>
<!-- dictionary_od_table -->
<g id="node2" class="node">
<title>dictionary_od_table</title>
<g id="a_node2"><a xlink:href="../../tables/dictionary_od_table.html" xlink:title="dictionary_od_table" target="_top">
<polygon fill="#ffffff" stroke="transparent" points="705,-291 705,-599 978,-599 978,-291 705,-291"/>
<polygon fill="#f5f5f5" stroke="transparent" points="707.5,-575 707.5,-597 976.5,-597 976.5,-575 707.5,-575"/>
<polygon fill="none" stroke="black" points="707.5,-575 707.5,-597 976.5,-597 976.5,-575 707.5,-575"/>
<text text-anchor="start" x="712.5" y="-584.2" font-family="Helvetica,sans-Serif" font-weight="bold" font-size="11.00">dictionary_od_table</text>
<text text-anchor="start" x="934.5" y="-583.2" font-family="Helvetica,sans-Serif" font-size="11.00">[table]</text>
<polygon fill="none" stroke="black" points="707.5,-553 707.5,-575 870.5,-575 870.5,-553 707.5,-553"/>
<image xlink:href="../../images/primaryKeys.png" width="11px" height="12px" preserveAspectRatio="xMinYMin meet" x="712.5" y="-570"/>
<text text-anchor="start" x="727.5" y="-561.2" font-family="Helvetica,sans-Serif" font-size="11.00">id</text>
<polygon fill="none" stroke="black" points="870.5,-553 870.5,-575 976.5,-575 976.5,-553 870.5,-553"/>
<text text-anchor="start" x="873.5" y="-561.2" font-family="Helvetica,sans-Serif" font-size="11.00">int4[10]</text>
<polygon fill="#ffffff" stroke="transparent" points="707.5,-531 707.5,-553 870.5,-553 870.5,-531 707.5,-531"/>
<polygon fill="none" stroke="black" points="707.5,-531 707.5,-553 870.5,-553 870.5,-531 707.5,-531"/>
<text text-anchor="start" x="727.5" y="-539.2" font-family="Helvetica,sans-Serif" font-size="11.00">tablename</text>
<polygon fill="none" stroke="black" points="870.5,-531 870.5,-553 976.5,-553 976.5,-531 870.5,-531"/>
<text text-anchor="start" x="873.5" y="-539.2" font-family="Helvetica,sans-Serif" font-size="11.00">text[2147483647]</text>
<polygon fill="#ffffff" stroke="transparent" points="707.5,-509 707.5,-531 870.5,-531 870.5,-509 707.5,-509"/>
<polygon fill="none" stroke="black" points="707.5,-509 707.5,-531 870.5,-531 870.5,-509 707.5,-509"/>
<text text-anchor="start" x="727.5" y="-517.2" font-family="Helvetica,sans-Serif" font-size="11.00">name_en</text>
<polygon fill="none" stroke="black" points="870.5,-509 870.5,-531 976.5,-531 976.5,-509 870.5,-509"/>
<text text-anchor="start" x="873.5" y="-517.2" font-family="Helvetica,sans-Serif" font-size="11.00">text[2147483647]</text>
<polygon fill="#ffffff" stroke="transparent" points="707.5,-487 707.5,-509 870.5,-509 870.5,-487 707.5,-487"/>
<polygon fill="none" stroke="black" points="707.5,-487 707.5,-509 870.5,-509 870.5,-487 707.5,-487"/>
<text text-anchor="start" x="727.5" y="-495.2" font-family="Helvetica,sans-Serif" font-size="11.00">shortcut_en</text>
<polygon fill="none" stroke="black" points="870.5,-487 870.5,-509 976.5,-509 976.5,-487 870.5,-487"/>
<text text-anchor="start" x="873.5" y="-495.2" font-family="Helvetica,sans-Serif" font-size="11.00">bpchar[2]</text>
<polygon fill="#ffffff" stroke="transparent" points="707.5,-465 707.5,-487 870.5,-487 870.5,-465 707.5,-465"/>
<polygon fill="none" stroke="black" points="707.5,-465 707.5,-487 870.5,-487 870.5,-465 707.5,-465"/>
<text text-anchor="start" x="727.5" y="-473.2" font-family="Helvetica,sans-Serif" font-size="11.00">name_de</text>
<polygon fill="none" stroke="black" points="870.5,-465 870.5,-487 976.5,-487 976.5,-465 870.5,-465"/>
<text text-anchor="start" x="873.5" y="-473.2" font-family="Helvetica,sans-Serif" font-size="11.00">text[2147483647]</text>
<polygon fill="none" stroke="black" points="707.5,-443 707.5,-465 870.5,-465 870.5,-443 707.5,-443"/>
<text text-anchor="start" x="727.5" y="-451.2" font-family="Helvetica,sans-Serif" font-size="11.00">shortcut_de</text>
<polygon fill="none" stroke="black" points="870.5,-443 870.5,-465 976.5,-465 976.5,-443 870.5,-443"/>
<text text-anchor="start" x="873.5" y="-451.2" font-family="Helvetica,sans-Serif" font-size="11.00">bpchar[2]</text>
<polygon fill="#ffffff" stroke="transparent" points="707.5,-421 707.5,-443 870.5,-443 870.5,-421 707.5,-421"/>
<polygon fill="none" stroke="black" points="707.5,-421 707.5,-443 870.5,-443 870.5,-421 707.5,-421"/>
<text text-anchor="start" x="727.5" y="-429.2" font-family="Helvetica,sans-Serif" font-size="11.00">name_fr</text>
<polygon fill="none" stroke="black" points="870.5,-421 870.5,-443 976.5,-443 976.5,-421 870.5,-421"/>
<text text-anchor="start" x="873.5" y="-429.2" font-family="Helvetica,sans-Serif" font-size="11.00">text[2147483647]</text>
<polygon fill="none" stroke="black" points="707.5,-399 707.5,-421 870.5,-421 870.5,-399 707.5,-399"/>
<text text-anchor="start" x="727.5" y="-407.2" font-family="Helvetica,sans-Serif" font-size="11.00">shortcut_fr</text>
<polygon fill="none" stroke="black" points="870.5,-399 870.5,-421 976.5,-421 976.5,-399 870.5,-399"/>
<text text-anchor="start" x="873.5" y="-407.2" font-family="Helvetica,sans-Serif" font-size="11.00">bpchar[2]</text>
<polygon fill="none" stroke="black" points="707.5,-377 707.5,-399 870.5,-399 870.5,-377 707.5,-377"/>
<text text-anchor="start" x="727.5" y="-385.2" font-family="Helvetica,sans-Serif" font-size="11.00">name_it</text>
<polygon fill="none" stroke="black" points="870.5,-377 870.5,-399 976.5,-399 976.5,-377 870.5,-377"/>
<text text-anchor="start" x="873.5" y="-385.2" font-family="Helvetica,sans-Serif" font-size="11.00">text[2147483647]</text>
<polygon fill="none" stroke="black" points="707.5,-355 707.5,-377 870.5,-377 870.5,-355 707.5,-355"/>
<text text-anchor="start" x="727.5" y="-363.2" font-family="Helvetica,sans-Serif" font-size="11.00">shortcut_it</text>
<polygon fill="none" stroke="black" points="870.5,-355 870.5,-377 976.5,-377 976.5,-355 870.5,-355"/>
<text text-anchor="start" x="873.5" y="-363.2" font-family="Helvetica,sans-Serif" font-size="11.00">bpchar[4]</text>
<polygon fill="none" stroke="black" points="707.5,-333 707.5,-355 870.5,-355 870.5,-333 707.5,-333"/>
<text text-anchor="start" x="727.5" y="-341.2" font-family="Helvetica,sans-Serif" font-size="11.00">name_ro</text>
<polygon fill="none" stroke="black" points="870.5,-333 870.5,-355 976.5,-355 976.5,-333 870.5,-333"/>
<text text-anchor="start" x="873.5" y="-341.2" font-family="Helvetica,sans-Serif" font-size="11.00">text[2147483647]</text>
<polygon fill="none" stroke="black" points="707.5,-311 707.5,-333 870.5,-333 870.5,-311 707.5,-311"/>
<text text-anchor="start" x="727.5" y="-319.2" font-family="Helvetica,sans-Serif" font-size="11.00">shortcut_ro</text>
<polygon fill="none" stroke="black" points="870.5,-311 870.5,-333 976.5,-333 976.5,-311 870.5,-311"/>
<text text-anchor="start" x="873.5" y="-319.2" font-family="Helvetica,sans-Serif" font-size="11.00">bpchar[4]</text>
<polygon fill="#ffffff" stroke="transparent" points="707.5,-293 707.5,-311 976.5,-311 976.5,-293 707.5,-293"/>
<polygon fill="none" stroke="black" points="707.5,-293 707.5,-311 976.5,-311 976.5,-293 707.5,-293"/>
<polygon fill="#ffffff" stroke="transparent" points="708.5,-294 708.5,-310 792.5,-310 792.5,-294 708.5,-294"/>
<text text-anchor="start" x="710.5" y="-299.2" font-family="Helvetica,sans-Serif" font-size="11.00">&lt; 0</text>
<polygon fill="#ffffff" stroke="transparent" points="792.5,-294 792.5,-310 892.5,-310 892.5,-294 792.5,-294"/>
<text text-anchor="start" x="824" y="-299.2" font-family="Helvetica,sans-Serif" font-size="11.00">9 rows</text>
<polygon fill="#ffffff" stroke="transparent" points="892.5,-294 892.5,-310 975.5,-310 975.5,-294 892.5,-294"/>
<text text-anchor="start" x="953.5" y="-299.2" font-family="Helvetica,sans-Serif" font-size="11.00">0 &gt;</text>
<polygon fill="black" stroke="black" points="792.5,-294 792.5,-310 792.5,-310 792.5,-294 792.5,-294"/>
<polygon fill="black" stroke="black" points="892.5,-294 892.5,-310 892.5,-310 892.5,-294 892.5,-294"/>
<polygon fill="none" stroke="black" stroke-width="2" points="706,-292 706,-598 977,-598 977,-292 706,-292"/>
</a>
</g>
</g>
<!-- dictionary_od_values -->
<g id="node3" class="node">
<title>dictionary_od_values</title>
<g id="a_node3"><a xlink:href="../../tables/dictionary_od_values.html" xlink:title="dictionary_od_values" target="_top">
<polygon fill="#ffffff" stroke="transparent" points="705,-660 705,-1188 989,-1188 989,-660 705,-660"/>
<polygon fill="#f5f5f5" stroke="transparent" points="707,-1164 707,-1186 987,-1186 987,-1164 707,-1164"/>
<polygon fill="none" stroke="black" points="707,-1164 707,-1186 987,-1186 987,-1164 707,-1164"/>
<text text-anchor="start" x="712" y="-1173.2" font-family="Helvetica,sans-Serif" font-weight="bold" font-size="11.00">dictionary_od_values</text>
<text text-anchor="start" x="945" y="-1172.2" font-family="Helvetica,sans-Serif" font-size="11.00">[table]</text>
<polygon fill="none" stroke="black" points="707,-1142 707,-1164 881,-1164 881,-1142 707,-1142"/>
<image xlink:href="../../images/primaryKeys.png" width="11px" height="12px" preserveAspectRatio="xMinYMin meet" x="712" y="-1159"/>
<text text-anchor="start" x="727" y="-1150.2" font-family="Helvetica,sans-Serif" font-size="11.00">id</text>
<polygon fill="none" stroke="black" points="881,-1142 881,-1164 987,-1164 987,-1142 881,-1142"/>
<text text-anchor="start" x="884" y="-1150.2" font-family="Helvetica,sans-Serif" font-size="11.00">serial[10]</text>
<polygon fill="#ffffff" stroke="transparent" points="707,-1120 707,-1142 881,-1142 881,-1120 707,-1120"/>
<polygon fill="none" stroke="black" points="707,-1120 707,-1142 881,-1142 881,-1120 707,-1120"/>
<text text-anchor="start" x="727" y="-1128.2" font-family="Helvetica,sans-Serif" font-size="11.00">class_id</text>
<polygon fill="none" stroke="black" points="881,-1120 881,-1142 987,-1142 987,-1120 881,-1120"/>
<text text-anchor="start" x="884" y="-1128.2" font-family="Helvetica,sans-Serif" font-size="11.00">int4[10]</text>
<polygon fill="#ffffff" stroke="transparent" points="707,-1098 707,-1120 881,-1120 881,-1098 707,-1098"/>
<polygon fill="none" stroke="black" points="707,-1098 707,-1120 881,-1120 881,-1098 707,-1098"/>
<text text-anchor="start" x="727" y="-1106.2" font-family="Helvetica,sans-Serif" font-size="11.00">attribute_id</text>
<polygon fill="none" stroke="black" points="881,-1098 881,-1120 987,-1120 987,-1098 881,-1098"/>
<text text-anchor="start" x="884" y="-1106.2" font-family="Helvetica,sans-Serif" font-size="11.00">int4[10]</text>
<polygon fill="#ffffff" stroke="transparent" points="707,-1076 707,-1098 881,-1098 881,-1076 707,-1076"/>
<polygon fill="none" stroke="black" points="707,-1076 707,-1098 881,-1098 881,-1076 707,-1076"/>
<text text-anchor="start" x="727" y="-1084.2" font-family="Helvetica,sans-Serif" font-size="11.00">value_id</text>
<polygon fill="none" stroke="black" points="881,-1076 881,-1098 987,-1098 987,-1076 881,-1076"/>
<text text-anchor="start" x="884" y="-1084.2" font-family="Helvetica,sans-Serif" font-size="11.00">int4[10]</text>
<polygon fill="none" stroke="black" points="707,-1054 707,-1076 881,-1076 881,-1054 707,-1054"/>
<text text-anchor="start" x="727" y="-1062.2" font-family="Helvetica,sans-Serif" font-size="11.00">table_name</text>
<polygon fill="none" stroke="black" points="881,-1054 881,-1076 987,-1076 987,-1054 881,-1054"/>
<text text-anchor="start" x="884" y="-1062.2" font-family="Helvetica,sans-Serif" font-size="11.00">varchar[80]</text>
<polygon fill="none" stroke="black" points="707,-1032 707,-1054 881,-1054 881,-1032 707,-1032"/>
<text text-anchor="start" x="727" y="-1040.2" font-family="Helvetica,sans-Serif" font-size="11.00">field_name</text>
<polygon fill="none" stroke="black" points="881,-1032 881,-1054 987,-1054 987,-1032 881,-1032"/>
<text text-anchor="start" x="884" y="-1040.2" font-family="Helvetica,sans-Serif" font-size="11.00">varchar[80]</text>
<polygon fill="none" stroke="black" points="707,-1010 707,-1032 881,-1032 881,-1010 707,-1010"/>
<text text-anchor="start" x="727" y="-1018.2" font-family="Helvetica,sans-Serif" font-size="11.00">value_name</text>
<polygon fill="none" stroke="black" points="881,-1010 881,-1032 987,-1032 987,-1010 881,-1010"/>
<text text-anchor="start" x="884" y="-1018.2" font-family="Helvetica,sans-Serif" font-size="11.00">varchar[100]</text>
<polygon fill="none" stroke="black" points="707,-988 707,-1010 881,-1010 881,-988 707,-988"/>
<text text-anchor="start" x="727" y="-996.2" font-family="Helvetica,sans-Serif" font-size="11.00">value_name_en</text>
<polygon fill="none" stroke="black" points="881,-988 881,-1010 987,-1010 987,-988 881,-988"/>
<text text-anchor="start" x="884" y="-996.2" font-family="Helvetica,sans-Serif" font-size="11.00">varchar[80]</text>
<polygon fill="none" stroke="black" points="707,-966 707,-988 881,-988 881,-966 707,-966"/>
<text text-anchor="start" x="727" y="-974.2" font-family="Helvetica,sans-Serif" font-size="11.00">shortcut_en</text>
<polygon fill="none" stroke="black" points="881,-966 881,-988 987,-988 987,-966 881,-966"/>
<text text-anchor="start" x="884" y="-974.2" font-family="Helvetica,sans-Serif" font-size="11.00">bpchar[4]</text>
<polygon fill="none" stroke="black" points="707,-944 707,-966 881,-966 881,-944 707,-944"/>
<text text-anchor="start" x="727" y="-952.2" font-family="Helvetica,sans-Serif" font-size="11.00">value_name_de</text>
<polygon fill="none" stroke="black" points="881,-944 881,-966 987,-966 987,-944 881,-944"/>
<text text-anchor="start" x="884" y="-952.2" font-family="Helvetica,sans-Serif" font-size="11.00">varchar[100]</text>
<polygon fill="none" stroke="black" points="707,-922 707,-944 881,-944 881,-922 707,-922"/>
<text text-anchor="start" x="727" y="-930.2" font-family="Helvetica,sans-Serif" font-size="11.00">shortcut_de</text>
<polygon fill="none" stroke="black" points="881,-922 881,-944 987,-944 987,-922 881,-922"/>
<text text-anchor="start" x="884" y="-930.2" font-family="Helvetica,sans-Serif" font-size="11.00">bpchar[4]</text>
<polygon fill="none" stroke="black" points="707,-900 707,-922 881,-922 881,-900 707,-900"/>
<text text-anchor="start" x="727" y="-908.2" font-family="Helvetica,sans-Serif" font-size="11.00">value_name_fr</text>
<polygon fill="none" stroke="black" points="881,-900 881,-922 987,-922 987,-900 881,-900"/>
<text text-anchor="start" x="884" y="-908.2" font-family="Helvetica,sans-Serif" font-size="11.00">varchar[100]</text>
<polygon fill="none" stroke="black" points="707,-878 707,-900 881,-900 881,-878 707,-878"/>
<text text-anchor="start" x="727" y="-886.2" font-family="Helvetica,sans-Serif" font-size="11.00">shortcut_fr</text>
<polygon fill="none" stroke="black" points="881,-878 881,-900 987,-900 987,-878 881,-878"/>
<text text-anchor="start" x="884" y="-886.2" font-family="Helvetica,sans-Serif" font-size="11.00">bpchar[4]</text>
<polygon fill="none" stroke="black" points="707,-856 707,-878 881,-878 881,-856 707,-856"/>
<text text-anchor="start" x="727" y="-864.2" font-family="Helvetica,sans-Serif" font-size="11.00">value_name_it</text>
<polygon fill="none" stroke="black" points="881,-856 881,-878 987,-878 987,-856 881,-856"/>
<text text-anchor="start" x="884" y="-864.2" font-family="Helvetica,sans-Serif" font-size="11.00">varchar[100]</text>
<polygon fill="none" stroke="black" points="707,-834 707,-856 881,-856 881,-834 707,-834"/>
<text text-anchor="start" x="727" y="-842.2" font-family="Helvetica,sans-Serif" font-size="11.00">shortcut_it</text>
<polygon fill="none" stroke="black" points="881,-834 881,-856 987,-856 987,-834 881,-834"/>
<text text-anchor="start" x="884" y="-842.2" font-family="Helvetica,sans-Serif" font-size="11.00">bpchar[4]</text>
<polygon fill="none" stroke="black" points="707,-812 707,-834 881,-834 881,-812 707,-812"/>
<text text-anchor="start" x="727" y="-820.2" font-family="Helvetica,sans-Serif" font-size="11.00">value_name_ro</text>
<polygon fill="none" stroke="black" points="881,-812 881,-834 987,-834 987,-812 881,-812"/>
<text text-anchor="start" x="884" y="-820.2" font-family="Helvetica,sans-Serif" font-size="11.00">varchar[100]</text>
<polygon fill="none" stroke="black" points="707,-790 707,-812 881,-812 881,-790 707,-790"/>
<text text-anchor="start" x="727" y="-798.2" font-family="Helvetica,sans-Serif" font-size="11.00">shortcut_ro</text>
<polygon fill="none" stroke="black" points="881,-790 881,-812 987,-812 987,-790 881,-790"/>
<text text-anchor="start" x="884" y="-798.2" font-family="Helvetica,sans-Serif" font-size="11.00">bpchar[4]</text>
<polygon fill="none" stroke="black" points="707,-768 707,-790 881,-790 881,-768 707,-768"/>
<text text-anchor="start" x="727" y="-776.2" font-family="Helvetica,sans-Serif" font-size="11.00">value_description_en</text>
<polygon fill="none" stroke="black" points="881,-768 881,-790 987,-790 987,-768 881,-768"/>
<text text-anchor="start" x="884" y="-776.2" font-family="Helvetica,sans-Serif" font-size="11.00">text[2147483647]</text>
<polygon fill="none" stroke="black" points="707,-746 707,-768 881,-768 881,-746 707,-746"/>
<text text-anchor="start" x="727" y="-754.2" font-family="Helvetica,sans-Serif" font-size="11.00">value_description_de</text>
<polygon fill="none" stroke="black" points="881,-746 881,-768 987,-768 987,-746 881,-746"/>
<text text-anchor="start" x="884" y="-754.2" font-family="Helvetica,sans-Serif" font-size="11.00">text[2147483647]</text>
<polygon fill="none" stroke="black" points="707,-724 707,-746 881,-746 881,-724 707,-724"/>
<text text-anchor="start" x="727" y="-732.2" font-family="Helvetica,sans-Serif" font-size="11.00">value_description_fr</text>
<polygon fill="none" stroke="black" points="881,-724 881,-746 987,-746 987,-724 881,-724"/>
<text text-anchor="start" x="884" y="-732.2" font-family="Helvetica,sans-Serif" font-size="11.00">text[2147483647]</text>
<polygon fill="none" stroke="black" points="707,-702 707,-724 881,-724 881,-702 707,-702"/>
<text text-anchor="start" x="727" y="-710.2" font-family="Helvetica,sans-Serif" font-size="11.00">value_description_it</text>
<polygon fill="none" stroke="black" points="881,-702 881,-724 987,-724 987,-702 881,-702"/>
<text text-anchor="start" x="884" y="-710.2" font-family="Helvetica,sans-Serif" font-size="11.00">text[2147483647]</text>
<polygon fill="none" stroke="black" points="707,-680 707,-702 881,-702 881,-680 707,-680"/>
<text text-anchor="start" x="727" y="-688.2" font-family="Helvetica,sans-Serif" font-size="11.00">value_description_ro</text>
<polygon fill="none" stroke="black" points="881,-680 881,-702 987,-702 987,-680 881,-680"/>
<text text-anchor="start" x="884" y="-688.2" font-family="Helvetica,sans-Serif" font-size="11.00">text[2147483647]</text>
<polygon fill="#ffffff" stroke="transparent" points="707,-662 707,-680 987,-680 987,-662 707,-662"/>
<polygon fill="none" stroke="black" points="707,-662 707,-680 987,-680 987,-662 707,-662"/>
<polygon fill="#ffffff" stroke="transparent" points="708,-663 708,-679 791,-679 791,-663 708,-663"/>
<text text-anchor="start" x="710" y="-668.2" font-family="Helvetica,sans-Serif" font-size="11.00">&lt; 0</text>
<polygon fill="#ffffff" stroke="transparent" points="791,-663 791,-679 904,-679 904,-663 791,-663"/>
<text text-anchor="start" x="822" y="-668.2" font-family="Helvetica,sans-Serif" font-size="11.00">196 rows</text>
<polygon fill="#ffffff" stroke="transparent" points="904,-663 904,-679 986,-679 986,-663 904,-663"/>
<text text-anchor="start" x="964" y="-668.2" font-family="Helvetica,sans-Serif" font-size="11.00">0 &gt;</text>
<polygon fill="black" stroke="black" points="791,-663 791,-679 791,-679 791,-663 791,-663"/>
<polygon fill="black" stroke="black" points="904,-663 904,-679 904,-679 904,-663 904,-663"/>
<polygon fill="none" stroke="black" stroke-width="2" points="706,-661 706,-1187 988,-1187 988,-661 706,-661"/>
</a>
</g>
</g>
<!-- oid_prefixes -->
<g id="node4" class="node">
<title>oid_prefixes</title>
<g id="a_node4"><a xlink:href="../../tables/oid_prefixes.html" xlink:title="oid_prefixes" target="_top">
<polygon fill="#ffffff" stroke="transparent" points="8,-783 8,-915 231,-915 231,-783 8,-783"/>
<polygon fill="#f5f5f5" stroke="transparent" points="10.5,-891 10.5,-913 229.5,-913 229.5,-891 10.5,-891"/>
<polygon fill="none" stroke="black" points="10.5,-891 10.5,-913 229.5,-913 229.5,-891 10.5,-891"/>
<text text-anchor="start" x="15.5" y="-900.2" font-family="Helvetica,sans-Serif" font-weight="bold" font-size="11.00">oid_prefixes</text>
<text text-anchor="start" x="187.5" y="-899.2" font-family="Helvetica,sans-Serif" font-size="11.00">[table]</text>
<polygon fill="none" stroke="black" points="10.5,-869 10.5,-891 123.5,-891 123.5,-869 10.5,-869"/>
<image xlink:href="../../images/primaryKeys.png" width="11px" height="12px" preserveAspectRatio="xMinYMin meet" x="15.5" y="-886"/>
<text text-anchor="start" x="30.5" y="-877.2" font-family="Helvetica,sans-Serif" font-size="11.00">id</text>
<polygon fill="none" stroke="black" points="123.5,-869 123.5,-891 229.5,-891 229.5,-869 123.5,-869"/>
<text text-anchor="start" x="126.5" y="-877.2" font-family="Helvetica,sans-Serif" font-size="11.00">serial[10]</text>
<polygon fill="none" stroke="black" points="10.5,-847 10.5,-869 123.5,-869 123.5,-847 10.5,-847"/>
<text text-anchor="start" x="30.5" y="-855.2" font-family="Helvetica,sans-Serif" font-size="11.00">prefix</text>
<polygon fill="none" stroke="black" points="123.5,-847 123.5,-869 229.5,-869 229.5,-847 123.5,-847"/>
<text text-anchor="start" x="126.5" y="-855.2" font-family="Helvetica,sans-Serif" font-size="11.00">bpchar[8]</text>
<polygon fill="none" stroke="black" points="10.5,-825 10.5,-847 123.5,-847 123.5,-825 10.5,-825"/>
<text text-anchor="start" x="30.5" y="-833.2" font-family="Helvetica,sans-Serif" font-size="11.00">organization</text>
<polygon fill="none" stroke="black" points="123.5,-825 123.5,-847 229.5,-847 229.5,-825 123.5,-825"/>
<text text-anchor="start" x="126.5" y="-833.2" font-family="Helvetica,sans-Serif" font-size="11.00">text[2147483647]</text>
<polygon fill="#ffffff" stroke="transparent" points="10.5,-803 10.5,-825 123.5,-825 123.5,-803 10.5,-803"/>
<polygon fill="none" stroke="black" points="10.5,-803 10.5,-825 123.5,-825 123.5,-803 10.5,-803"/>
<text text-anchor="start" x="30.5" y="-811.2" font-family="Helvetica,sans-Serif" font-size="11.00">active</text>
<polygon fill="none" stroke="black" points="123.5,-803 123.5,-825 229.5,-825 229.5,-803 123.5,-803"/>
<text text-anchor="start" x="126.5" y="-811.2" font-family="Helvetica,sans-Serif" font-size="11.00">bool[1]</text>
<polygon fill="#ffffff" stroke="transparent" points="10.5,-785 10.5,-803 229.5,-803 229.5,-785 10.5,-785"/>
<polygon fill="none" stroke="black" points="10.5,-785 10.5,-803 229.5,-803 229.5,-785 10.5,-785"/>
<polygon fill="#ffffff" stroke="transparent" points="11.5,-786 11.5,-802 76.5,-802 76.5,-786 11.5,-786"/>
<text text-anchor="start" x="13.5" y="-791.2" font-family="Helvetica,sans-Serif" font-size="11.00">&lt; 0</text>
<polygon fill="#ffffff" stroke="transparent" points="76.5,-786 76.5,-802 164.5,-802 164.5,-786 76.5,-786"/>
<text text-anchor="start" x="98.5" y="-791.2" font-family="Helvetica,sans-Serif" font-size="11.00">10 rows</text>
<polygon fill="#ffffff" stroke="transparent" points="164.5,-786 164.5,-802 228.5,-802 228.5,-786 164.5,-786"/>
<text text-anchor="start" x="206.5" y="-791.2" font-family="Helvetica,sans-Serif" font-size="11.00">0 &gt;</text>
<polygon fill="black" stroke="black" points="76.5,-786 76.5,-802 76.5,-802 76.5,-786 76.5,-786"/>
<polygon fill="black" stroke="black" points="164.5,-786 164.5,-802 164.5,-802 164.5,-786 164.5,-786"/>
<polygon fill="none" stroke="black" stroke-width="2" points="9,-784 9,-914 230,-914 230,-784 9,-784"/>
</a>
</g>
</g>
<!-- pum_migrations -->
<g id="node5" class="node">
<title>pum_migrations</title>
<g id="a_node5"><a xlink:href="../../tables/pum_migrations.html" xlink:title="pum_migrations" target="_top">
<polygon fill="#ffffff" stroke="transparent" points="787,-4 787,-224 1099,-224 1099,-4 787,-4"/>
<polygon fill="#f5f5f5" stroke="transparent" points="789,-200 789,-222 1097,-222 1097,-200 789,-200"/>
<polygon fill="none" stroke="black" points="789,-200 789,-222 1097,-222 1097,-200 789,-200"/>
<text text-anchor="start" x="794" y="-209.2" font-family="Helvetica,sans-Serif" font-weight="bold" font-size="11.00">pum_migrations</text>
<text text-anchor="start" x="1055" y="-208.2" font-family="Helvetica,sans-Serif" font-size="11.00">[table]</text>
<polygon fill="none" stroke="black" points="789,-178 789,-200 985,-200 985,-178 789,-178"/>
<image xlink:href="../../images/primaryKeys.png" width="11px" height="12px" preserveAspectRatio="xMinYMin meet" x="794" y="-195"/>
<text text-anchor="start" x="809" y="-186.2" font-family="Helvetica,sans-Serif" font-size="11.00">id</text>
<polygon fill="none" stroke="black" points="985,-178 985,-200 1097,-200 1097,-178 985,-178"/>
<text text-anchor="start" x="988" y="-186.2" font-family="Helvetica,sans-Serif" font-size="11.00">uuid[2147483647]</text>
<polygon fill="none" stroke="black" points="789,-156 789,-178 985,-178 985,-156 789,-156"/>
<text text-anchor="start" x="809" y="-164.2" font-family="Helvetica,sans-Serif" font-size="11.00">date_installed</text>
<polygon fill="none" stroke="black" points="985,-156 985,-178 1097,-178 1097,-156 985,-156"/>
<text text-anchor="start" x="988" y="-164.2" font-family="Helvetica,sans-Serif" font-size="11.00">timestamp[29,6]</text>
<polygon fill="none" stroke="black" points="789,-134 789,-156 985,-156 985,-134 789,-134"/>
<text text-anchor="start" x="809" y="-142.2" font-family="Helvetica,sans-Serif" font-size="11.00">module</text>
<polygon fill="none" stroke="black" points="985,-134 985,-156 1097,-156 1097,-134 985,-134"/>
<text text-anchor="start" x="988" y="-142.2" font-family="Helvetica,sans-Serif" font-size="11.00">varchar[50]</text>
<polygon fill="none" stroke="black" points="789,-112 789,-134 985,-134 985,-112 789,-112"/>
<text text-anchor="start" x="809" y="-120.2" font-family="Helvetica,sans-Serif" font-size="11.00">version</text>
<polygon fill="none" stroke="black" points="985,-112 985,-134 1097,-134 1097,-112 985,-112"/>
<text text-anchor="start" x="988" y="-120.2" font-family="Helvetica,sans-Serif" font-size="11.00">varchar[50]</text>
<polygon fill="none" stroke="black" points="789,-90 789,-112 985,-112 985,-90 789,-90"/>
<text text-anchor="start" x="809" y="-98.2" font-family="Helvetica,sans-Serif" font-size="11.00">beta_testing</text>
<polygon fill="none" stroke="black" points="985,-90 985,-112 1097,-112 1097,-90 985,-90"/>
<text text-anchor="start" x="988" y="-98.2" font-family="Helvetica,sans-Serif" font-size="11.00">bool[1]</text>
<polygon fill="none" stroke="black" points="789,-68 789,-90 985,-90 985,-68 789,-68"/>
<text text-anchor="start" x="809" y="-76.2" font-family="Helvetica,sans-Serif" font-size="11.00">changelog_files</text>
<polygon fill="none" stroke="black" points="985,-68 985,-90 1097,-90 1097,-68 985,-68"/>
<text text-anchor="start" x="988" y="-76.2" font-family="Helvetica,sans-Serif" font-size="11.00">_text[2147483647]</text>
<polygon fill="none" stroke="black" points="789,-46 789,-68 985,-68 985,-46 789,-46"/>
<text text-anchor="start" x="809" y="-54.2" font-family="Helvetica,sans-Serif" font-size="11.00">parameters</text>
<polygon fill="none" stroke="black" points="985,-46 985,-68 1097,-68 1097,-46 985,-46"/>
<text text-anchor="start" x="988" y="-54.2" font-family="Helvetica,sans-Serif" font-size="11.00">jsonb[2147483647]</text>
<polygon fill="none" stroke="black" points="789,-24 789,-46 985,-46 985,-24 789,-24"/>
<text text-anchor="start" x="809" y="-32.2" font-family="Helvetica,sans-Serif" font-size="11.00">migration_table_version</text>
<polygon fill="none" stroke="black" points="985,-24 985,-46 1097,-46 1097,-24 985,-24"/>
<text text-anchor="start" x="988" y="-32.2" font-family="Helvetica,sans-Serif" font-size="11.00">varchar[50]</text>
<polygon fill="#ffffff" stroke="transparent" points="789,-6 789,-24 1097,-24 1097,-6 789,-6"/>
<polygon fill="none" stroke="black" points="789,-6 789,-24 1097,-24 1097,-6 789,-6"/>
<polygon fill="#ffffff" stroke="transparent" points="790,-7 790,-23 896,-23 896,-7 790,-7"/>
<text text-anchor="start" x="792" y="-12.2" font-family="Helvetica,sans-Serif" font-size="11.00">&lt; 0</text>
<polygon fill="#ffffff" stroke="transparent" points="896,-7 896,-23 990,-23 990,-7 896,-7"/>
<text text-anchor="start" x="939" y="-12.2" font-family="Helvetica,sans-Serif" font-size="11.00"> &#160;</text>
<polygon fill="#ffffff" stroke="transparent" points="990,-7 990,-23 1096,-23 1096,-7 990,-7"/>
<text text-anchor="start" x="1074" y="-12.2" font-family="Helvetica,sans-Serif" font-size="11.00">0 &gt;</text>
<polygon fill="black" stroke="black" points="896,-7 896,-23 896,-23 896,-7 896,-7"/>
<polygon fill="black" stroke="black" points="990,-7 990,-23 990,-23 990,-7 990,-7"/>
<polygon fill="none" stroke="black" stroke-width="2" points="788,-5 788,-223 1098,-223 1098,-5 788,-5"/>
</a>
</g>
</g>
</g>
</svg>
