<?xml version="1.0" encoding="UTF-8" standalone="no"?>
<!DOCTYPE svg PUBLIC "-//W3C//DTD SVG 1.1//EN"
 "http://www.w3.org/Graphics/SVG/1.1/DTD/svg11.dtd">
<!-- Generated by graphviz version 2.47.1 (20210515.0534)
 -->
<!-- Title: oneDegreeRelationshipsDiagram Pages: 1 -->
<svg width="889pt" height="531pt"
 viewBox="0.00 0.00 889.00 531.00" xmlns="http://www.w3.org/2000/svg" xmlns:xlink="http://www.w3.org/1999/xlink">
<g id="graph0" class="graph" transform="scale(1 1) rotate(0) translate(4 527)">
<title>oneDegreeRelationshipsDiagram</title>
<polygon fill="#ffffff" stroke="transparent" points="-4,4 -4,-527 885,-527 885,4 -4,4"/>
<text text-anchor="middle" x="73.5" y="-7.2" font-family="Helvetica,sans-Serif" font-size="11.00">Generated by SchemaSpy</text>
<!-- pipe_point -->
<g id="node1" class="node">
<title>pipe_point</title>
<g id="a_node1"><a xlink:href="../../tables/pipe_point.html" xlink:title="pipe_point" target="_top">
<polygon fill="#ffffff" stroke="transparent" points="356,-141 356,-449 652,-449 652,-141 356,-141"/>
<polygon fill="#f5f5f5" stroke="transparent" points="358,-425 358,-447 650,-447 650,-425 358,-425"/>
<polygon fill="none" stroke="black" points="358,-425 358,-447 650,-447 650,-425 358,-425"/>
<text text-anchor="start" x="363" y="-434.2" font-family="Helvetica,sans-Serif" font-weight="bold" font-size="11.00">pipe_point</text>
<text text-anchor="start" x="611" y="-433.2" font-family="Helvetica,sans-Serif" font-size="11.00">[table]</text>
<polygon fill="none" stroke="black" points="358,-403 358,-425 527,-425 527,-403 358,-403"/>
<image xlink:href="../../images/primaryKeys.png" width="11px" height="12px" preserveAspectRatio="xMinYMin meet" x="363" y="-420"/>
<text text-anchor="start" x="378" y="-411.2" font-family="Helvetica,sans-Serif" font-size="11.00">obj_id</text>
<polygon fill="none" stroke="black" points="527,-403 527,-425 650,-425 650,-403 527,-403"/>
<text text-anchor="start" x="530" y="-411.2" font-family="Helvetica,sans-Serif" font-size="11.00">varchar[16]</text>
<polygon fill="#ffffff" stroke="transparent" points="358,-381 358,-403 527,-403 527,-381 358,-381"/>
<polygon fill="none" stroke="black" points="358,-381 358,-403 527,-403 527,-381 358,-381"/>
<text text-anchor="start" x="378" y="-389.2" font-family="Helvetica,sans-Serif" font-size="11.00">geometry3d_geometry</text>
<polygon fill="none" stroke="black" points="527,-381 527,-403 650,-403 650,-381 527,-381"/>
<text text-anchor="start" x="530" y="-389.2" font-family="Helvetica,sans-Serif" font-size="11.00">geometry[2147483647]</text>
<polygon fill="none" stroke="black" points="358,-359 358,-381 527,-381 527,-359 358,-359"/>
<text text-anchor="start" x="378" y="-367.2" font-family="Helvetica,sans-Serif" font-size="11.00">symbolori</text>
<polygon fill="none" stroke="black" points="527,-359 527,-381 650,-381 650,-359 527,-359"/>
<text text-anchor="start" x="530" y="-367.2" font-family="Helvetica,sans-Serif" font-size="11.00">numeric[4,1]</text>
<polygon fill="none" stroke="black" points="358,-337 358,-359 527,-359 527,-337 358,-337"/>
<image xlink:href="../../images/foreignKeys.png" width="11px" height="12px" preserveAspectRatio="xMinYMin meet" x="363" y="-354"/>
<text text-anchor="start" x="378" y="-345.2" font-family="Helvetica,sans-Serif" font-size="11.00">horizontal_positioning</text>
<polygon fill="none" stroke="black" points="527,-337 527,-359 650,-359 650,-337 527,-337"/>
<text text-anchor="start" x="530" y="-345.2" font-family="Helvetica,sans-Serif" font-size="11.00">int4[10]</text>
<polygon fill="none" stroke="black" points="358,-315 358,-337 527,-337 527,-315 358,-315"/>
<text text-anchor="start" x="378" y="-323.2" font-family="Helvetica,sans-Serif" font-size="11.00">altitude1</text>
<polygon fill="none" stroke="black" points="527,-315 527,-337 650,-337 650,-315 527,-315"/>
<text text-anchor="start" x="530" y="-323.2" font-family="Helvetica,sans-Serif" font-size="11.00">numeric[7,3]</text>
<polygon fill="none" stroke="black" points="358,-293 358,-315 527,-315 527,-293 358,-293"/>
<text text-anchor="start" x="378" y="-301.2" font-family="Helvetica,sans-Serif" font-size="11.00">altitude2</text>
<polygon fill="none" stroke="black" points="527,-293 527,-315 650,-315 650,-293 527,-293"/>
<text text-anchor="start" x="530" y="-301.2" font-family="Helvetica,sans-Serif" font-size="11.00">numeric[7,3]</text>
<polygon fill="none" stroke="black" points="358,-271 358,-293 527,-293 527,-271 358,-271"/>
<image xlink:href="../../images/foreignKeys.png" width="11px" height="12px" preserveAspectRatio="xMinYMin meet" x="363" y="-288"/>
<text text-anchor="start" x="378" y="-279.2" font-family="Helvetica,sans-Serif" font-size="11.00">elevation_determination</text>
<polygon fill="none" stroke="black" points="527,-271 527,-293 650,-293 650,-271 527,-271"/>
<text text-anchor="start" x="530" y="-279.2" font-family="Helvetica,sans-Serif" font-size="11.00">int4[10]</text>
<polygon fill="none" stroke="black" points="358,-249 358,-271 527,-271 527,-249 358,-249"/>
<text text-anchor="start" x="378" y="-257.2" font-family="Helvetica,sans-Serif" font-size="11.00">remark</text>
<polygon fill="none" stroke="black" points="527,-249 527,-271 650,-271 650,-249 527,-249"/>
<text text-anchor="start" x="530" y="-257.2" font-family="Helvetica,sans-Serif" font-size="11.00">text[2147483647]</text>
<polygon fill="none" stroke="black" points="358,-227 358,-249 527,-249 527,-227 358,-227"/>
<text text-anchor="start" x="378" y="-235.2" font-family="Helvetica,sans-Serif" font-size="11.00">last_modification</text>
<polygon fill="none" stroke="black" points="527,-227 527,-249 650,-249 650,-227 527,-227"/>
<text text-anchor="start" x="530" y="-235.2" font-family="Helvetica,sans-Serif" font-size="11.00">timestamp[29,6]</text>
<polygon fill="none" stroke="black" points="358,-205 358,-227 527,-227 527,-205 358,-205"/>
<image xlink:href="../../images/foreignKeys.png" width="11px" height="12px" preserveAspectRatio="xMinYMin meet" x="363" y="-222"/>
<text text-anchor="start" x="378" y="-213.2" font-family="Helvetica,sans-Serif" font-size="11.00">fk_dataowner</text>
<polygon fill="none" stroke="black" points="527,-205 527,-227 650,-227 650,-205 527,-205"/>
<text text-anchor="start" x="530" y="-213.2" font-family="Helvetica,sans-Serif" font-size="11.00">varchar[16]</text>
<polygon fill="none" stroke="black" points="358,-183 358,-205 527,-205 527,-183 358,-183"/>
<image xlink:href="../../images/foreignKeys.png" width="11px" height="12px" preserveAspectRatio="xMinYMin meet" x="363" y="-200"/>
<text text-anchor="start" x="378" y="-191.2" font-family="Helvetica,sans-Serif" font-size="11.00">fk_provider</text>
<polygon fill="none" stroke="black" points="527,-183 527,-205 650,-205 650,-183 527,-183"/>
<text text-anchor="start" x="530" y="-191.2" font-family="Helvetica,sans-Serif" font-size="11.00">varchar[16]</text>
<polygon fill="none" stroke="black" points="358,-161 358,-183 527,-183 527,-161 358,-161"/>
<image xlink:href="../../images/foreignKeys.png" width="11px" height="12px" preserveAspectRatio="xMinYMin meet" x="363" y="-178"/>
<text text-anchor="start" x="378" y="-169.2" font-family="Helvetica,sans-Serif" font-size="11.00">fk_owner</text>
<polygon fill="none" stroke="black" points="527,-161 527,-183 650,-183 650,-161 527,-161"/>
<text text-anchor="start" x="530" y="-169.2" font-family="Helvetica,sans-Serif" font-size="11.00">varchar[16]</text>
<polygon fill="#ffffff" stroke="transparent" points="358,-143 358,-161 447,-161 447,-143 358,-143"/>
<polygon fill="none" stroke="black" points="358,-143 358,-161 447,-161 447,-143 358,-143"/>
<text text-anchor="start" x="361" y="-149.2" font-family="Helvetica,sans-Serif" font-size="11.00">&lt; 5</text>
<polygon fill="#ffffff" stroke="transparent" points="447,-143 447,-161 527,-161 527,-143 447,-143"/>
<polygon fill="none" stroke="black" points="447,-143 447,-161 527,-161 527,-143 447,-143"/>
<text text-anchor="start" x="517" y="-149.2" font-family="Helvetica,sans-Serif" font-size="11.00"> &#160;</text>
<polygon fill="#ffffff" stroke="transparent" points="527,-143 527,-161 650,-161 650,-143 527,-143"/>
<polygon fill="none" stroke="black" points="527,-143 527,-161 650,-161 650,-143 527,-143"/>
<text text-anchor="start" x="631" y="-149.2" font-family="Helvetica,sans-Serif" font-size="11.00">2 &gt;</text>
<polygon fill="none" stroke="black" stroke-width="2" points="357,-142 357,-448 651,-448 651,-142 357,-142"/>
</a>
</g>
</g>
<!-- tdh_vl.pipe_point_elevation_determination -->
<g id="node2" class="node">
<title>tdh_vl.pipe_point_elevation_determination</title>
<g id="a_node2"><a xlink:href="../../../tdh_vl/tables/pipe_point_elevation_determination.html" xlink:title="tdh_vl.pipe_point_elevation_determination" target="_top">
<polygon fill="#ffffff" stroke="transparent" points="8,-250 8,-308 307,-308 307,-250 8,-250"/>
<polygon fill="#f5f5f5" stroke="transparent" points="8.5,-286 8.5,-308 307.5,-308 307.5,-286 8.5,-286"/>
<polygon fill="none" stroke="black" points="8.5,-286 8.5,-308 307.5,-308 307.5,-286 8.5,-286"/>
<text text-anchor="start" x="13.5" y="-295.2" font-family="Helvetica,sans-Serif" font-weight="bold" font-size="11.00">tdh_vl.pipe_point_elevation_determination</text>
<text text-anchor="start" x="268.5" y="-294.2" font-family="Helvetica,sans-Serif" font-size="11.00">[table]</text>
<polygon fill="none" stroke="black" points="8.5,-268 8.5,-286 307.5,-286 307.5,-268 8.5,-268"/>
<text text-anchor="start" x="11.5" y="-274.2" font-family="Helvetica,sans-Serif" font-size="11.00">...</text>
<polygon fill="#ffffff" stroke="transparent" points="8.5,-250 8.5,-268 133.5,-268 133.5,-250 8.5,-250"/>
<polygon fill="none" stroke="black" points="8.5,-250 8.5,-268 133.5,-268 133.5,-250 8.5,-250"/>
<text text-anchor="start" x="11.5" y="-256.2" font-family="Helvetica,sans-Serif" font-size="11.00"> &#160;</text>
<polygon fill="#ffffff" stroke="transparent" points="133.5,-250 133.5,-268 229.5,-268 229.5,-250 133.5,-250"/>
<polygon fill="none" stroke="black" points="133.5,-250 133.5,-268 229.5,-268 229.5,-250 133.5,-250"/>
<text text-anchor="start" x="192.5" y="-256.2" font-family="Helvetica,sans-Serif" font-size="11.00">0 rows</text>
<polygon fill="#ffffff" stroke="transparent" points="229.5,-250 229.5,-268 307.5,-268 307.5,-250 229.5,-250"/>
<polygon fill="none" stroke="black" points="229.5,-250 229.5,-268 307.5,-268 307.5,-250 229.5,-250"/>
<text text-anchor="start" x="288.5" y="-256.2" font-family="Helvetica,sans-Serif" font-size="11.00">1 &gt;</text>
</a>
</g>
</g>
<!-- pipe_point&#45;&gt;tdh_vl.pipe_point_elevation_determination -->
<g id="edge1" class="edge">
<title>pipe_point:w&#45;&gt;tdh_vl.pipe_point_elevation_determination:e</title>
<path fill="none" stroke="black" d="M342.47,-281.97C333.44,-281.94 324.26,-281.89 315.07,-281.81"/>
<polygon fill="black" stroke="black" points="349,-281.99 356.99,-285.6 353,-281.99 357,-282 357,-282 357,-282 353,-281.99 357.01,-278.4 349,-281.99 349,-281.99"/>
<ellipse fill="none" stroke="black" cx="345.8" cy="-281.98" rx="3.2" ry="3.2"/>
</g>
<!-- organisation -->
<g id="node3" class="node">
<title>organisation</title>
<g id="a_node3"><a xlink:href="../../tables/organisation.html" xlink:title="organisation" target="_top">
<polygon fill="#ffffff" stroke="transparent" points="83.5,-37 83.5,-227 231.5,-227 231.5,-37 83.5,-37"/>
<polygon fill="#f5f5f5" stroke="transparent" points="83.5,-205 83.5,-227 231.5,-227 231.5,-205 83.5,-205"/>
<polygon fill="none" stroke="black" points="83.5,-205 83.5,-227 231.5,-227 231.5,-205 83.5,-205"/>
<text text-anchor="start" x="88.5" y="-214.2" font-family="Helvetica,sans-Serif" font-weight="bold" font-size="11.00">organisation</text>
<text text-anchor="start" x="192.5" y="-213.2" font-family="Helvetica,sans-Serif" font-size="11.00">[table]</text>
<polygon fill="none" stroke="black" points="83.5,-183 83.5,-205 231.5,-205 231.5,-183 83.5,-183"/>
<image xlink:href="../../images/primaryKeys.png" width="11px" height="12px" preserveAspectRatio="xMinYMin meet" x="88.5" y="-200"/>
<text text-anchor="start" x="103.5" y="-191.2" font-family="Helvetica,sans-Serif" font-size="11.00">obj_id</text>
<polygon fill="#ffffff" stroke="transparent" points="83.5,-161 83.5,-183 231.5,-183 231.5,-161 83.5,-161"/>
<polygon fill="none" stroke="black" points="83.5,-161 83.5,-183 231.5,-183 231.5,-161 83.5,-161"/>
<text text-anchor="start" x="103.5" y="-169.2" font-family="Helvetica,sans-Serif" font-size="11.00">identifier</text>
<polygon fill="none" stroke="black" points="83.5,-139 83.5,-161 231.5,-161 231.5,-139 83.5,-139"/>
<image xlink:href="../../images/foreignKeys.png" width="11px" height="12px" preserveAspectRatio="xMinYMin meet" x="88.5" y="-156"/>
<text text-anchor="start" x="103.5" y="-147.2" font-family="Helvetica,sans-Serif" font-size="11.00">organisation_type</text>
<polygon fill="none" stroke="black" points="83.5,-117 83.5,-139 231.5,-139 231.5,-117 83.5,-117"/>
<image xlink:href="../../images/foreignKeys.png" width="11px" height="12px" preserveAspectRatio="xMinYMin meet" x="88.5" y="-134"/>
<text text-anchor="start" x="103.5" y="-125.2" font-family="Helvetica,sans-Serif" font-size="11.00">status</text>
<polygon fill="#ffffff" stroke="transparent" points="83.5,-95 83.5,-117 231.5,-117 231.5,-95 83.5,-95"/>
<polygon fill="none" stroke="black" points="83.5,-95 83.5,-117 231.5,-117 231.5,-95 83.5,-95"/>
<image xlink:href="../../images/foreignKeys.png" width="11px" height="12px" preserveAspectRatio="xMinYMin meet" x="88.5" y="-112"/>
<text text-anchor="start" x="103.5" y="-103.2" font-family="Helvetica,sans-Serif" font-size="11.00">fk_dataowner</text>
<polygon fill="none" stroke="black" points="83.5,-73 83.5,-95 231.5,-95 231.5,-73 83.5,-73"/>
<image xlink:href="../../images/foreignKeys.png" width="11px" height="12px" preserveAspectRatio="xMinYMin meet" x="88.5" y="-90"/>
<text text-anchor="start" x="103.5" y="-81.2" font-family="Helvetica,sans-Serif" font-size="11.00">fk_provider</text>
<polygon fill="none" stroke="black" points="83.5,-55 83.5,-73 231.5,-73 231.5,-55 83.5,-55"/>
<text text-anchor="start" x="86.5" y="-61.2" font-family="Helvetica,sans-Serif" font-size="11.00">...</text>
<polygon fill="#ffffff" stroke="transparent" points="83.5,-37 83.5,-55 147.5,-55 147.5,-37 83.5,-37"/>
<polygon fill="none" stroke="black" points="83.5,-37 83.5,-55 147.5,-55 147.5,-37 83.5,-37"/>
<text text-anchor="start" x="86.5" y="-43.2" font-family="Helvetica,sans-Serif" font-size="11.00">&lt; 4</text>
<polygon fill="#ffffff" stroke="transparent" points="147.5,-37 147.5,-55 181.5,-55 181.5,-37 147.5,-37"/>
<polygon fill="none" stroke="black" points="147.5,-37 147.5,-55 181.5,-55 181.5,-37 147.5,-37"/>
<text text-anchor="start" x="171.5" y="-43.2" font-family="Helvetica,sans-Serif" font-size="11.00"> &#160;</text>
<polygon fill="#ffffff" stroke="transparent" points="181.5,-37 181.5,-55 231.5,-55 231.5,-37 181.5,-37"/>
<polygon fill="none" stroke="black" points="181.5,-37 181.5,-55 231.5,-55 231.5,-37 181.5,-37"/>
<text text-anchor="start" x="206.5" y="-43.2" font-family="Helvetica,sans-Serif" font-size="11.00">29 &gt;</text>
</a>
</g>
</g>
<!-- pipe_point&#45;&gt;organisation -->
<g id="edge2" class="edge">
<title>pipe_point:w&#45;&gt;organisation:e</title>
<path fill="none" stroke="black" d="M342.57,-215.48C298.21,-212.15 283.53,-194 232.5,-194"/>
<polygon fill="black" stroke="black" points="349.01,-215.71 356.87,-219.6 353,-215.86 357,-216 357,-216 357,-216 353,-215.86 357.13,-212.4 349.01,-215.71 349.01,-215.71"/>
<ellipse fill="none" stroke="black" cx="345.81" cy="-215.59" rx="3.2" ry="3.2"/>
</g>
<!-- pipe_point&#45;&gt;organisation -->
<g id="edge3" class="edge">
<title>pipe_point:w&#45;&gt;organisation:e</title>
<path fill="none" stroke="black" d="M342.57,-172.52C298.21,-175.85 283.53,-194 232.5,-194"/>
<polygon fill="black" stroke="black" points="349.01,-172.29 357.13,-175.6 353,-172.14 357,-172 357,-172 357,-172 353,-172.14 356.87,-168.4 349.01,-172.29 349.01,-172.29"/>
<ellipse fill="none" stroke="black" cx="345.81" cy="-172.41" rx="3.2" ry="3.2"/>
</g>
<!-- pipe_point&#45;&gt;organisation -->
<g id="edge4" class="edge">
<title>pipe_point:w&#45;&gt;organisation:e</title>
<path fill="none" stroke="black" d="M342.46,-194C298.71,-194 282.65,-194 232.5,-194"/>
<polygon fill="black" stroke="black" points="349,-194 357,-197.6 353,-194 357,-194 357,-194 357,-194 353,-194 357,-190.4 349,-194 349,-194"/>
<ellipse fill="none" stroke="black" cx="345.8" cy="-194" rx="3.2" ry="3.2"/>
</g>
<!-- tdh_vl.pipe_point_horizontal_positioning -->
<g id="node4" class="node">
<title>tdh_vl.pipe_point_horizontal_positioning</title>
<g id="a_node4"><a xlink:href="../../../tdh_vl/tables/pipe_point_horizontal_positioning.html" xlink:title="tdh_vl.pipe_point_horizontal_positioning" target="_top">
<polygon fill="#ffffff" stroke="transparent" points="15.5,-329 15.5,-387 299.5,-387 299.5,-329 15.5,-329"/>
<polygon fill="#f5f5f5" stroke="transparent" points="15.5,-365 15.5,-387 299.5,-387 299.5,-365 15.5,-365"/>
<polygon fill="none" stroke="black" points="15.5,-365 15.5,-387 299.5,-387 299.5,-365 15.5,-365"/>
<text text-anchor="start" x="20.5" y="-374.2" font-family="Helvetica,sans-Serif" font-weight="bold" font-size="11.00">tdh_vl.pipe_point_horizontal_positioning</text>
<text text-anchor="start" x="260.5" y="-373.2" font-family="Helvetica,sans-Serif" font-size="11.00">[table]</text>
<polygon fill="none" stroke="black" points="15.5,-347 15.5,-365 299.5,-365 299.5,-347 15.5,-347"/>
<text text-anchor="start" x="18.5" y="-353.2" font-family="Helvetica,sans-Serif" font-size="11.00">...</text>
<polygon fill="#ffffff" stroke="transparent" points="15.5,-329 15.5,-347 132.5,-347 132.5,-329 15.5,-329"/>
<polygon fill="none" stroke="black" points="15.5,-329 15.5,-347 132.5,-347 132.5,-329 15.5,-329"/>
<text text-anchor="start" x="18.5" y="-335.2" font-family="Helvetica,sans-Serif" font-size="11.00"> &#160;</text>
<polygon fill="#ffffff" stroke="transparent" points="132.5,-329 132.5,-347 224.5,-347 224.5,-329 132.5,-329"/>
<polygon fill="none" stroke="black" points="132.5,-329 132.5,-347 224.5,-347 224.5,-329 132.5,-329"/>
<text text-anchor="start" x="187.5" y="-335.2" font-family="Helvetica,sans-Serif" font-size="11.00">0 rows</text>
<polygon fill="#ffffff" stroke="transparent" points="224.5,-329 224.5,-347 299.5,-347 299.5,-329 224.5,-329"/>
<polygon fill="none" stroke="black" points="224.5,-329 224.5,-347 299.5,-347 299.5,-329 224.5,-329"/>
<text text-anchor="start" x="280.5" y="-335.2" font-family="Helvetica,sans-Serif" font-size="11.00">1 &gt;</text>
</a>
</g>
</g>
<!-- pipe_point&#45;&gt;tdh_vl.pipe_point_horizontal_positioning -->
<g id="edge5" class="edge">
<title>pipe_point:w&#45;&gt;tdh_vl.pipe_point_horizontal_positioning:e</title>
<path fill="none" stroke="black" d="M342.24,-348.09C330.89,-348.22 319.31,-348.49 307.76,-348.86"/>
<polygon fill="black" stroke="black" points="349,-348.05 357.02,-351.6 353,-348.02 357,-348 357,-348 357,-348 353,-348.02 356.98,-344.4 349,-348.05 349,-348.05"/>
<ellipse fill="none" stroke="black" cx="345.8" cy="-348.07" rx="3.2" ry="3.2"/>
</g>
<!-- pipe_point_feed -->
<g id="node5" class="node">
<title>pipe_point_feed</title>
<g id="a_node5"><a xlink:href="../../tables/pipe_point_feed.html" xlink:title="pipe_point_feed" target="_top">
<polygon fill="#ffffff" stroke="transparent" points="701,-395 701,-519 873,-519 873,-395 701,-395"/>
<polygon fill="#f5f5f5" stroke="transparent" points="701,-497 701,-519 873,-519 873,-497 701,-497"/>
<polygon fill="none" stroke="black" points="701,-497 701,-519 873,-519 873,-497 701,-497"/>
<text text-anchor="start" x="706" y="-506.2" font-family="Helvetica,sans-Serif" font-weight="bold" font-size="11.00">pipe_point_feed</text>
<text text-anchor="start" x="834" y="-505.2" font-family="Helvetica,sans-Serif" font-size="11.00">[table]</text>
<polygon fill="none" stroke="black" points="701,-475 701,-497 873,-497 873,-475 701,-475"/>
<image xlink:href="../../images/primaryKeys.png" width="11px" height="12px" preserveAspectRatio="xMinYMin meet" x="706" y="-492"/>
<text text-anchor="start" x="721" y="-483.2" font-family="Helvetica,sans-Serif" font-size="11.00">obj_id</text>
<polygon fill="none" stroke="black" points="701,-453 701,-475 873,-475 873,-453 701,-453"/>
<image xlink:href="../../images/foreignKeys.png" width="11px" height="12px" preserveAspectRatio="xMinYMin meet" x="706" y="-470"/>
<text text-anchor="start" x="721" y="-461.2" font-family="Helvetica,sans-Serif" font-size="11.00">kind</text>
<polygon fill="none" stroke="black" points="701,-431 701,-453 873,-453 873,-431 701,-431"/>
<image xlink:href="../../images/foreignKeys.png" width="11px" height="12px" preserveAspectRatio="xMinYMin meet" x="706" y="-448"/>
<text text-anchor="start" x="721" y="-439.2" font-family="Helvetica,sans-Serif" font-size="11.00">category</text>
<polygon fill="none" stroke="black" points="701,-413 701,-431 873,-431 873,-413 701,-413"/>
<text text-anchor="start" x="704" y="-419.2" font-family="Helvetica,sans-Serif" font-size="11.00">...</text>
<polygon fill="#ffffff" stroke="transparent" points="701,-395 701,-413 785,-413 785,-395 701,-395"/>
<polygon fill="none" stroke="black" points="701,-395 701,-413 785,-413 785,-395 701,-395"/>
<text text-anchor="start" x="704" y="-401.2" font-family="Helvetica,sans-Serif" font-size="11.00">&lt; 3</text>
<polygon fill="#ffffff" stroke="transparent" points="785,-395 785,-413 829,-413 829,-395 785,-395"/>
<polygon fill="none" stroke="black" points="785,-395 785,-413 829,-413 829,-395 785,-395"/>
<text text-anchor="start" x="819" y="-401.2" font-family="Helvetica,sans-Serif" font-size="11.00"> &#160;</text>
<polygon fill="#ffffff" stroke="transparent" points="829,-395 829,-413 873,-413 873,-395 829,-395"/>
<polygon fill="none" stroke="black" points="829,-395 829,-413 873,-413 873,-395 829,-395"/>
<text text-anchor="start" x="863" y="-401.2" font-family="Helvetica,sans-Serif" font-size="11.00"> &#160;</text>
</a>
</g>
</g>
<!-- pipe_point_feed&#45;&gt;pipe_point -->
<g id="edge6" class="edge">
<title>pipe_point_feed:w&#45;&gt;pipe_point:e</title>
<path fill="none" stroke="black" d="M689.84,-483.77C666.54,-471.61 685.63,-414 651,-414"/>
<polygon fill="black" stroke="black" points="700.08,-481.92 698.36,-489.74 696.8,-489.39 698.51,-481.58 700.08,-481.92"/>
<polyline fill="none" stroke="black" points="700,-486 696.09,-485.14 "/>
<ellipse fill="none" stroke="black" cx="692.97" cy="-484.45" rx="3.2" ry="3.2"/>
</g>
<!-- pipe_point_normal -->
<g id="node6" class="node">
<title>pipe_point_normal</title>
<g id="a_node6"><a xlink:href="../../tables/pipe_point_normal.html" xlink:title="pipe_point_normal" target="_top">
<polygon fill="#ffffff" stroke="transparent" points="709.5,-246 709.5,-374 864.5,-374 864.5,-246 709.5,-246"/>
<polygon fill="#f5f5f5" stroke="transparent" points="710,-352 710,-374 865,-374 865,-352 710,-352"/>
<polygon fill="none" stroke="black" points="710,-352 710,-374 865,-374 865,-352 710,-352"/>
<text text-anchor="start" x="715" y="-361.2" font-family="Helvetica,sans-Serif" font-weight="bold" font-size="11.00">pipe_point_normal</text>
<text text-anchor="start" x="826" y="-360.2" font-family="Helvetica,sans-Serif" font-size="11.00">[table]</text>
<polygon fill="none" stroke="black" points="710,-330 710,-352 865,-352 865,-330 710,-330"/>
<image xlink:href="../../images/primaryKeys.png" width="11px" height="12px" preserveAspectRatio="xMinYMin meet" x="715" y="-347"/>
<text text-anchor="start" x="742" y="-338.2" font-family="Helvetica,sans-Serif" font-size="11.00">obj_id</text>
<polygon fill="none" stroke="black" points="710,-308 710,-330 865,-330 865,-308 710,-308"/>
<image xlink:href="../../images/foreignKeys.png" width="11px" height="12px" preserveAspectRatio="xMinYMin meet" x="715" y="-325"/>
<text text-anchor="start" x="742" y="-316.2" font-family="Helvetica,sans-Serif" font-size="11.00">kind</text>
<polygon fill="none" stroke="black" points="710,-286 710,-308 865,-308 865,-286 710,-286"/>
<image xlink:href="../../images/foreignKeys.png" width="11px" height="12px" preserveAspectRatio="xMinYMin meet" x="715" y="-303"/>
<text text-anchor="start" x="742" y="-294.2" font-family="Helvetica,sans-Serif" font-size="11.00">armature_setting</text>
<polygon fill="none" stroke="black" points="710,-264 710,-286 865,-286 865,-264 710,-264"/>
<image xlink:href="../../images/foreignKeys.png" width="11px" height="12px" preserveAspectRatio="xMinYMin meet" x="715" y="-281"/>
<text text-anchor="start" x="742" y="-272.2" font-family="Helvetica,sans-Serif" font-size="11.00">material</text>
<polygon fill="#ffffff" stroke="transparent" points="710,-246 710,-264 785,-264 785,-246 710,-246"/>
<polygon fill="none" stroke="black" points="710,-246 710,-264 785,-264 785,-246 710,-246"/>
<text text-anchor="start" x="713" y="-252.2" font-family="Helvetica,sans-Serif" font-size="11.00">&lt; 4</text>
<polygon fill="#ffffff" stroke="transparent" points="785,-246 785,-264 825,-264 825,-246 785,-246"/>
<polygon fill="none" stroke="black" points="785,-246 785,-264 825,-264 825,-246 785,-246"/>
<text text-anchor="start" x="815" y="-252.2" font-family="Helvetica,sans-Serif" font-size="11.00"> &#160;</text>
<polygon fill="#ffffff" stroke="transparent" points="825,-246 825,-264 865,-264 865,-246 825,-246"/>
<polygon fill="none" stroke="black" points="825,-246 825,-264 865,-264 865,-246 825,-246"/>
<text text-anchor="start" x="855" y="-252.2" font-family="Helvetica,sans-Serif" font-size="11.00"> &#160;</text>
</a>
</g>
</g>
<!-- pipe_point_normal&#45;&gt;pipe_point -->
<g id="edge7" class="edge">
<title>pipe_point_normal:w&#45;&gt;pipe_point:e</title>
<path fill="none" stroke="black" d="M698.63,-342.95C671.79,-354.56 688.39,-414 651,-414"/>
<polygon fill="black" stroke="black" points="707.47,-337.22 708.95,-345.08 707.38,-345.38 705.9,-337.51 707.47,-337.22"/>
<polyline fill="none" stroke="black" points="709,-341 705.07,-341.74 "/>
<ellipse fill="none" stroke="black" cx="701.92" cy="-342.33" rx="3.2" ry="3.2"/>
</g>
</g>
</svg>
