<?xml version="1.0" encoding="UTF-8" standalone="no"?>
<!DOCTYPE svg PUBLIC "-//W3C//DTD SVG 1.1//EN"
 "http://www.w3.org/Graphics/SVG/1.1/DTD/svg11.dtd">
<!-- Generated by graphviz version 2.47.1 (20210515.0534)
 -->
<!-- Title: oneDegreeRelationshipsDiagram Pages: 1 -->
<svg width="651pt" height="949pt"
 viewBox="0.00 0.00 651.00 949.00" xmlns="http://www.w3.org/2000/svg" xmlns:xlink="http://www.w3.org/1999/xlink">
<g id="graph0" class="graph" transform="scale(1 1) rotate(0) translate(4 945)">
<title>oneDegreeRelationshipsDiagram</title>
<polygon fill="#ffffff" stroke="transparent" points="-4,4 -4,-945 647,-945 647,4 -4,4"/>
<text text-anchor="middle" x="73.5" y="-7.2" font-family="Helvetica,sans-Serif" font-size="11.00">Generated by SchemaSpy</text>
<!-- pipe_section -->
<g id="node1" class="node">
<title>pipe_section</title>
<g id="a_node1"><a xlink:href="../../tables/pipe_section.html" xlink:title="pipe_section" target="_top">
<polygon fill="#ffffff" stroke="transparent" points="353,-130 353,-834 635,-834 635,-130 353,-130"/>
<polygon fill="#f5f5f5" stroke="transparent" points="355,-810 355,-832 633,-832 633,-810 355,-810"/>
<polygon fill="none" stroke="black" points="355,-810 355,-832 633,-832 633,-810 355,-810"/>
<text text-anchor="start" x="360" y="-819.2" font-family="Helvetica,sans-Serif" font-weight="bold" font-size="11.00">pipe_section</text>
<text text-anchor="start" x="594" y="-818.2" font-family="Helvetica,sans-Serif" font-size="11.00">[table]</text>
<polygon fill="none" stroke="black" points="355,-788 355,-810 510,-810 510,-788 355,-788"/>
<image xlink:href="../../images/primaryKeys.png" width="11px" height="12px" preserveAspectRatio="xMinYMin meet" x="360" y="-805"/>
<text text-anchor="start" x="375" y="-796.2" font-family="Helvetica,sans-Serif" font-size="11.00">obj_id</text>
<polygon fill="none" stroke="black" points="510,-788 510,-810 633,-810 633,-788 510,-788"/>
<text text-anchor="start" x="513" y="-796.2" font-family="Helvetica,sans-Serif" font-size="11.00">varchar[16]</text>
<polygon fill="#ffffff" stroke="transparent" points="355,-766 355,-788 510,-788 510,-766 355,-766"/>
<polygon fill="none" stroke="black" points="355,-766 355,-788 510,-788 510,-766 355,-766"/>
<text text-anchor="start" x="375" y="-774.2" font-family="Helvetica,sans-Serif" font-size="11.00">name_number</text>
<polygon fill="none" stroke="black" points="510,-766 510,-788 633,-788 633,-766 510,-766"/>
<text text-anchor="start" x="513" y="-774.2" font-family="Helvetica,sans-Serif" font-size="11.00">text[2147483647]</text>
<polygon fill="#ffffff" stroke="transparent" points="355,-744 355,-766 510,-766 510,-744 355,-744"/>
<polygon fill="none" stroke="black" points="355,-744 355,-766 510,-766 510,-744 355,-744"/>
<text text-anchor="start" x="375" y="-752.2" font-family="Helvetica,sans-Serif" font-size="11.00">geometry3d_geometry</text>
<polygon fill="none" stroke="black" points="510,-744 510,-766 633,-766 633,-744 510,-744"/>
<text text-anchor="start" x="513" y="-752.2" font-family="Helvetica,sans-Serif" font-size="11.00">geometry[2147483647]</text>
<polygon fill="none" stroke="black" points="355,-722 355,-744 510,-744 510,-722 355,-722"/>
<image xlink:href="../../images/foreignKeys.png" width="11px" height="12px" preserveAspectRatio="xMinYMin meet" x="360" y="-739"/>
<text text-anchor="start" x="375" y="-730.2" font-family="Helvetica,sans-Serif" font-size="11.00">horizontal_positioning</text>
<polygon fill="none" stroke="black" points="510,-722 510,-744 633,-744 633,-722 510,-722"/>
<text text-anchor="start" x="513" y="-730.2" font-family="Helvetica,sans-Serif" font-size="11.00">int4[10]</text>
<polygon fill="none" stroke="black" points="355,-700 355,-722 510,-722 510,-700 355,-700"/>
<image xlink:href="../../images/foreignKeys.png" width="11px" height="12px" preserveAspectRatio="xMinYMin meet" x="360" y="-717"/>
<text text-anchor="start" x="375" y="-708.2" font-family="Helvetica,sans-Serif" font-size="11.00">status</text>
<polygon fill="none" stroke="black" points="510,-700 510,-722 633,-722 633,-700 510,-700"/>
<text text-anchor="start" x="513" y="-708.2" font-family="Helvetica,sans-Serif" font-size="11.00">int4[10]</text>
<polygon fill="none" stroke="black" points="355,-678 355,-700 510,-700 510,-678 355,-678"/>
<image xlink:href="../../images/foreignKeys.png" width="11px" height="12px" preserveAspectRatio="xMinYMin meet" x="360" y="-695"/>
<text text-anchor="start" x="375" y="-686.2" font-family="Helvetica,sans-Serif" font-size="11.00">function</text>
<polygon fill="none" stroke="black" points="510,-678 510,-700 633,-700 633,-678 510,-678"/>
<text text-anchor="start" x="513" y="-686.2" font-family="Helvetica,sans-Serif" font-size="11.00">int4[10]</text>
<polygon fill="none" stroke="black" points="355,-656 355,-678 510,-678 510,-656 355,-656"/>
<image xlink:href="../../images/foreignKeys.png" width="11px" height="12px" preserveAspectRatio="xMinYMin meet" x="360" y="-673"/>
<text text-anchor="start" x="375" y="-664.2" font-family="Helvetica,sans-Serif" font-size="11.00">pipe_type</text>
<polygon fill="none" stroke="black" points="510,-656 510,-678 633,-678 633,-656 510,-656"/>
<text text-anchor="start" x="513" y="-664.2" font-family="Helvetica,sans-Serif" font-size="11.00">int4[10]</text>
<polygon fill="none" stroke="black" points="355,-634 355,-656 510,-656 510,-634 355,-634"/>
<image xlink:href="../../images/foreignKeys.png" width="11px" height="12px" preserveAspectRatio="xMinYMin meet" x="360" y="-651"/>
<text text-anchor="start" x="375" y="-642.2" font-family="Helvetica,sans-Serif" font-size="11.00">fluent</text>
<polygon fill="none" stroke="black" points="510,-634 510,-656 633,-656 633,-634 510,-634"/>
<text text-anchor="start" x="513" y="-642.2" font-family="Helvetica,sans-Serif" font-size="11.00">int4[10]</text>
<polygon fill="none" stroke="black" points="355,-612 355,-634 510,-634 510,-612 355,-612"/>
<text text-anchor="start" x="375" y="-620.2" font-family="Helvetica,sans-Serif" font-size="11.00">temperature</text>
<polygon fill="none" stroke="black" points="510,-612 510,-634 633,-634 633,-612 510,-612"/>
<text text-anchor="start" x="513" y="-620.2" font-family="Helvetica,sans-Serif" font-size="11.00">int4[10]</text>
<polygon fill="none" stroke="black" points="355,-590 355,-612 510,-612 510,-590 355,-590"/>
<text text-anchor="start" x="375" y="-598.2" font-family="Helvetica,sans-Serif" font-size="11.00">nominal_pressure</text>
<polygon fill="none" stroke="black" points="510,-590 510,-612 633,-612 633,-590 510,-590"/>
<text text-anchor="start" x="513" y="-598.2" font-family="Helvetica,sans-Serif" font-size="11.00">int2[5]</text>
<polygon fill="none" stroke="black" points="355,-568 355,-590 510,-590 510,-568 355,-568"/>
<text text-anchor="start" x="375" y="-576.2" font-family="Helvetica,sans-Serif" font-size="11.00">operating_pressure</text>
<polygon fill="none" stroke="black" points="510,-568 510,-590 633,-590 633,-568 510,-568"/>
<text text-anchor="start" x="513" y="-576.2" font-family="Helvetica,sans-Serif" font-size="11.00">int2[5]</text>
<polygon fill="none" stroke="black" points="355,-546 355,-568 510,-568 510,-546 355,-546"/>
<text text-anchor="start" x="375" y="-554.2" font-family="Helvetica,sans-Serif" font-size="11.00">insulation_thickness</text>
<polygon fill="none" stroke="black" points="510,-546 510,-568 633,-568 633,-546 510,-546"/>
<text text-anchor="start" x="513" y="-554.2" font-family="Helvetica,sans-Serif" font-size="11.00">int2[5]</text>
<polygon fill="none" stroke="black" points="355,-524 355,-546 510,-546 510,-524 355,-524"/>
<image xlink:href="../../images/foreignKeys.png" width="11px" height="12px" preserveAspectRatio="xMinYMin meet" x="360" y="-541"/>
<text text-anchor="start" x="375" y="-532.2" font-family="Helvetica,sans-Serif" font-size="11.00">insulation_kind</text>
<polygon fill="none" stroke="black" points="510,-524 510,-546 633,-546 633,-524 510,-524"/>
<text text-anchor="start" x="513" y="-532.2" font-family="Helvetica,sans-Serif" font-size="11.00">int4[10]</text>
<polygon fill="none" stroke="black" points="355,-502 355,-524 510,-524 510,-502 355,-502"/>
<image xlink:href="../../images/foreignKeys.png" width="11px" height="12px" preserveAspectRatio="xMinYMin meet" x="360" y="-519"/>
<text text-anchor="start" x="375" y="-510.2" font-family="Helvetica,sans-Serif" font-size="11.00">coating</text>
<polygon fill="none" stroke="black" points="510,-502 510,-524 633,-524 633,-502 510,-502"/>
<text text-anchor="start" x="513" y="-510.2" font-family="Helvetica,sans-Serif" font-size="11.00">int4[10]</text>
<polygon fill="none" stroke="black" points="355,-480 355,-502 510,-502 510,-480 355,-480"/>
<text text-anchor="start" x="375" y="-488.2" font-family="Helvetica,sans-Serif" font-size="11.00">diameter_inner</text>
<polygon fill="none" stroke="black" points="510,-480 510,-502 633,-502 633,-480 510,-480"/>
<text text-anchor="start" x="513" y="-488.2" font-family="Helvetica,sans-Serif" font-size="11.00">int2[5]</text>
<polygon fill="none" stroke="black" points="355,-458 355,-480 510,-480 510,-458 355,-458"/>
<text text-anchor="start" x="375" y="-466.2" font-family="Helvetica,sans-Serif" font-size="11.00">diameter_outer</text>
<polygon fill="none" stroke="black" points="510,-458 510,-480 633,-480 633,-458 510,-458"/>
<text text-anchor="start" x="513" y="-466.2" font-family="Helvetica,sans-Serif" font-size="11.00">int2[5]</text>
<polygon fill="none" stroke="black" points="355,-436 355,-458 510,-458 510,-436 355,-436"/>
<text text-anchor="start" x="375" y="-444.2" font-family="Helvetica,sans-Serif" font-size="11.00">nominal_diameter</text>
<polygon fill="none" stroke="black" points="510,-436 510,-458 633,-458 633,-436 510,-436"/>
<text text-anchor="start" x="513" y="-444.2" font-family="Helvetica,sans-Serif" font-size="11.00">text[2147483647]</text>
<polygon fill="none" stroke="black" points="355,-414 355,-436 510,-436 510,-414 355,-414"/>
<text text-anchor="start" x="375" y="-422.2" font-family="Helvetica,sans-Serif" font-size="11.00">length1</text>
<polygon fill="none" stroke="black" points="510,-414 510,-436 633,-436 633,-414 510,-414"/>
<text text-anchor="start" x="513" y="-422.2" font-family="Helvetica,sans-Serif" font-size="11.00">int4[10]</text>
<polygon fill="none" stroke="black" points="355,-392 355,-414 510,-414 510,-392 355,-392"/>
<text text-anchor="start" x="375" y="-400.2" font-family="Helvetica,sans-Serif" font-size="11.00">length2</text>
<polygon fill="none" stroke="black" points="510,-392 510,-414 633,-414 633,-392 510,-392"/>
<text text-anchor="start" x="513" y="-400.2" font-family="Helvetica,sans-Serif" font-size="11.00">int4[10]</text>
<polygon fill="none" stroke="black" points="355,-370 355,-392 510,-392 510,-370 355,-370"/>
<text text-anchor="start" x="375" y="-378.2" font-family="Helvetica,sans-Serif" font-size="11.00">pipe_brand</text>
<polygon fill="none" stroke="black" points="510,-370 510,-392 633,-392 633,-370 510,-370"/>
<text text-anchor="start" x="513" y="-378.2" font-family="Helvetica,sans-Serif" font-size="11.00">text[2147483647]</text>
<polygon fill="none" stroke="black" points="355,-348 355,-370 510,-370 510,-348 355,-348"/>
<image xlink:href="../../images/foreignKeys.png" width="11px" height="12px" preserveAspectRatio="xMinYMin meet" x="360" y="-365"/>
<text text-anchor="start" x="375" y="-356.2" font-family="Helvetica,sans-Serif" font-size="11.00">pipeline_quality</text>
<polygon fill="none" stroke="black" points="510,-348 510,-370 633,-370 633,-348 510,-348"/>
<text text-anchor="start" x="513" y="-356.2" font-family="Helvetica,sans-Serif" font-size="11.00">int4[10]</text>
<polygon fill="none" stroke="black" points="355,-326 355,-348 510,-348 510,-326 355,-326"/>
<text text-anchor="start" x="375" y="-334.2" font-family="Helvetica,sans-Serif" font-size="11.00">installation_year</text>
<polygon fill="none" stroke="black" points="510,-326 510,-348 633,-348 633,-326 510,-326"/>
<text text-anchor="start" x="513" y="-334.2" font-family="Helvetica,sans-Serif" font-size="11.00">int2[5]</text>
<polygon fill="none" stroke="black" points="355,-304 355,-326 510,-326 510,-304 355,-304"/>
<text text-anchor="start" x="375" y="-312.2" font-family="Helvetica,sans-Serif" font-size="11.00">documentation</text>
<polygon fill="none" stroke="black" points="510,-304 510,-326 633,-326 633,-304 510,-304"/>
<text text-anchor="start" x="513" y="-312.2" font-family="Helvetica,sans-Serif" font-size="11.00">text[2147483647]</text>
<polygon fill="none" stroke="black" points="355,-282 355,-304 510,-304 510,-282 355,-282"/>
<text text-anchor="start" x="375" y="-290.2" font-family="Helvetica,sans-Serif" font-size="11.00">mandate</text>
<polygon fill="none" stroke="black" points="510,-282 510,-304 633,-304 633,-282 510,-282"/>
<text text-anchor="start" x="513" y="-290.2" font-family="Helvetica,sans-Serif" font-size="11.00">text[2147483647]</text>
<polygon fill="none" stroke="black" points="355,-260 355,-282 510,-282 510,-260 355,-260"/>
<text text-anchor="start" x="375" y="-268.2" font-family="Helvetica,sans-Serif" font-size="11.00">remark</text>
<polygon fill="none" stroke="black" points="510,-260 510,-282 633,-282 633,-260 510,-260"/>
<text text-anchor="start" x="513" y="-268.2" font-family="Helvetica,sans-Serif" font-size="11.00">text[2147483647]</text>
<polygon fill="none" stroke="black" points="355,-238 355,-260 510,-260 510,-238 355,-238"/>
<text text-anchor="start" x="375" y="-246.2" font-family="Helvetica,sans-Serif" font-size="11.00">last_modification</text>
<polygon fill="none" stroke="black" points="510,-238 510,-260 633,-260 633,-238 510,-238"/>
<text text-anchor="start" x="513" y="-246.2" font-family="Helvetica,sans-Serif" font-size="11.00">timestamp[29,6]</text>
<polygon fill="#ffffff" stroke="transparent" points="355,-216 355,-238 510,-238 510,-216 355,-216"/>
<polygon fill="none" stroke="black" points="355,-216 355,-238 510,-238 510,-216 355,-216"/>
<image xlink:href="../../images/foreignKeys.png" width="11px" height="12px" preserveAspectRatio="xMinYMin meet" x="360" y="-233"/>
<text text-anchor="start" x="375" y="-224.2" font-family="Helvetica,sans-Serif" font-size="11.00">fk_dataowner</text>
<polygon fill="none" stroke="black" points="510,-216 510,-238 633,-238 633,-216 510,-216"/>
<text text-anchor="start" x="513" y="-224.2" font-family="Helvetica,sans-Serif" font-size="11.00">varchar[16]</text>
<polygon fill="none" stroke="black" points="355,-194 355,-216 510,-216 510,-194 355,-194"/>
<image xlink:href="../../images/foreignKeys.png" width="11px" height="12px" preserveAspectRatio="xMinYMin meet" x="360" y="-211"/>
<text text-anchor="start" x="375" y="-202.2" font-family="Helvetica,sans-Serif" font-size="11.00">fk_provider</text>
<polygon fill="none" stroke="black" points="510,-194 510,-216 633,-216 633,-194 510,-194"/>
<text text-anchor="start" x="513" y="-202.2" font-family="Helvetica,sans-Serif" font-size="11.00">varchar[16]</text>
<polygon fill="none" stroke="black" points="355,-172 355,-194 510,-194 510,-172 355,-172"/>
<image xlink:href="../../images/foreignKeys.png" width="11px" height="12px" preserveAspectRatio="xMinYMin meet" x="360" y="-189"/>
<text text-anchor="start" x="375" y="-180.2" font-family="Helvetica,sans-Serif" font-size="11.00">fk_owner</text>
<polygon fill="none" stroke="black" points="510,-172 510,-194 633,-194 633,-172 510,-172"/>
<text text-anchor="start" x="513" y="-180.2" font-family="Helvetica,sans-Serif" font-size="11.00">varchar[16]</text>
<polygon fill="none" stroke="black" points="355,-150 355,-172 510,-172 510,-150 355,-150"/>
<image xlink:href="../../images/foreignKeys.png" width="11px" height="12px" preserveAspectRatio="xMinYMin meet" x="360" y="-167"/>
<text text-anchor="start" x="375" y="-158.2" font-family="Helvetica,sans-Serif" font-size="11.00">fk_pipeline_company</text>
<polygon fill="none" stroke="black" points="510,-150 510,-172 633,-172 633,-150 510,-150"/>
<text text-anchor="start" x="513" y="-158.2" font-family="Helvetica,sans-Serif" font-size="11.00">varchar[16]</text>
<polygon fill="#ffffff" stroke="transparent" points="355,-132 355,-150 440,-150 440,-132 355,-132"/>
<polygon fill="none" stroke="black" points="355,-132 355,-150 440,-150 440,-132 355,-132"/>
<text text-anchor="start" x="358" y="-138.2" font-family="Helvetica,sans-Serif" font-size="11.00">&lt; 12</text>
<polygon fill="#ffffff" stroke="transparent" points="440,-132 440,-150 510,-150 510,-132 440,-132"/>
<polygon fill="none" stroke="black" points="440,-132 440,-150 510,-150 510,-132 440,-132"/>
<text text-anchor="start" x="500" y="-138.2" font-family="Helvetica,sans-Serif" font-size="11.00"> &#160;</text>
<polygon fill="#ffffff" stroke="transparent" points="510,-132 510,-150 633,-150 633,-132 510,-132"/>
<polygon fill="none" stroke="black" points="510,-132 510,-150 633,-150 633,-132 510,-132"/>
<text text-anchor="start" x="614" y="-138.2" font-family="Helvetica,sans-Serif" font-size="11.00">0 &gt;</text>
<polygon fill="none" stroke="black" stroke-width="2" points="354,-131 354,-833 634,-833 634,-131 354,-131"/>
</a>
</g>
</g>
<!-- tdh_vl.pipe_section_coating -->
<g id="node2" class="node">
<title>tdh_vl.pipe_section_coating</title>
<g id="a_node2"><a xlink:href="../../../tdh_vl/tables/pipe_section_coating.html" xlink:title="tdh_vl.pipe_section_coating" target="_top">
<polygon fill="#ffffff" stroke="transparent" points="52.5,-405 52.5,-463 259.5,-463 259.5,-405 52.5,-405"/>
<polygon fill="#f5f5f5" stroke="transparent" points="53,-441 53,-463 260,-463 260,-441 53,-441"/>
<polygon fill="none" stroke="black" points="53,-441 53,-463 260,-463 260,-441 53,-441"/>
<text text-anchor="start" x="58" y="-450.2" font-family="Helvetica,sans-Serif" font-weight="bold" font-size="11.00">tdh_vl.pipe_section_coating</text>
<text text-anchor="start" x="221" y="-449.2" font-family="Helvetica,sans-Serif" font-size="11.00">[table]</text>
<polygon fill="none" stroke="black" points="53,-423 53,-441 260,-441 260,-423 53,-423"/>
<text text-anchor="start" x="56" y="-429.2" font-family="Helvetica,sans-Serif" font-size="11.00">...</text>
<polygon fill="#ffffff" stroke="transparent" points="53,-405 53,-423 132,-423 132,-405 53,-405"/>
<polygon fill="none" stroke="black" points="53,-405 53,-423 132,-423 132,-405 53,-405"/>
<text text-anchor="start" x="56" y="-411.2" font-family="Helvetica,sans-Serif" font-size="11.00"> &#160;</text>
<polygon fill="#ffffff" stroke="transparent" points="132,-405 132,-423 205,-423 205,-405 132,-405"/>
<polygon fill="none" stroke="black" points="132,-405 132,-423 205,-423 205,-405 132,-405"/>
<text text-anchor="start" x="168" y="-411.2" font-family="Helvetica,sans-Serif" font-size="11.00">0 rows</text>
<polygon fill="#ffffff" stroke="transparent" points="205,-405 205,-423 260,-423 260,-405 205,-405"/>
<polygon fill="none" stroke="black" points="205,-405 205,-423 260,-423 260,-405 205,-405"/>
<text text-anchor="start" x="241" y="-411.2" font-family="Helvetica,sans-Serif" font-size="11.00">1 &gt;</text>
</a>
</g>
</g>
<!-- pipe_section&#45;&gt;tdh_vl.pipe_section_coating -->
<g id="edge1" class="edge">
<title>pipe_section:w&#45;&gt;tdh_vl.pipe_section_coating:e</title>
<path fill="none" stroke="black" d="M340.15,-508.88C329.69,-500.88 328.94,-483.26 312,-474 298.22,-466.47 282.98,-460.31 267.58,-455.29"/>
<polygon fill="black" stroke="black" points="346.33,-510.72 352.97,-516.45 350.17,-511.86 354,-513 354,-513 354,-513 350.17,-511.86 355.03,-509.55 346.33,-510.72 346.33,-510.72"/>
<ellipse fill="none" stroke="black" cx="343.27" cy="-509.8" rx="3.2" ry="3.2"/>
</g>
<!-- organisation -->
<g id="node3" class="node">
<title>organisation</title>
<g id="a_node3"><a xlink:href="../../tables/organisation.html" xlink:title="organisation" target="_top">
<polygon fill="#ffffff" stroke="transparent" points="82,-37 82,-227 230,-227 230,-37 82,-37"/>
<polygon fill="#f5f5f5" stroke="transparent" points="82,-205 82,-227 230,-227 230,-205 82,-205"/>
<polygon fill="none" stroke="black" points="82,-205 82,-227 230,-227 230,-205 82,-205"/>
<text text-anchor="start" x="87" y="-214.2" font-family="Helvetica,sans-Serif" font-weight="bold" font-size="11.00">organisation</text>
<text text-anchor="start" x="191" y="-213.2" font-family="Helvetica,sans-Serif" font-size="11.00">[table]</text>
<polygon fill="none" stroke="black" points="82,-183 82,-205 230,-205 230,-183 82,-183"/>
<image xlink:href="../../images/primaryKeys.png" width="11px" height="12px" preserveAspectRatio="xMinYMin meet" x="87" y="-200"/>
<text text-anchor="start" x="102" y="-191.2" font-family="Helvetica,sans-Serif" font-size="11.00">obj_id</text>
<polygon fill="#ffffff" stroke="transparent" points="82,-161 82,-183 230,-183 230,-161 82,-161"/>
<polygon fill="none" stroke="black" points="82,-161 82,-183 230,-183 230,-161 82,-161"/>
<text text-anchor="start" x="102" y="-169.2" font-family="Helvetica,sans-Serif" font-size="11.00">identifier</text>
<polygon fill="none" stroke="black" points="82,-139 82,-161 230,-161 230,-139 82,-139"/>
<image xlink:href="../../images/foreignKeys.png" width="11px" height="12px" preserveAspectRatio="xMinYMin meet" x="87" y="-156"/>
<text text-anchor="start" x="102" y="-147.2" font-family="Helvetica,sans-Serif" font-size="11.00">organisation_type</text>
<polygon fill="none" stroke="black" points="82,-117 82,-139 230,-139 230,-117 82,-117"/>
<image xlink:href="../../images/foreignKeys.png" width="11px" height="12px" preserveAspectRatio="xMinYMin meet" x="87" y="-134"/>
<text text-anchor="start" x="102" y="-125.2" font-family="Helvetica,sans-Serif" font-size="11.00">status</text>
<polygon fill="#ffffff" stroke="transparent" points="82,-95 82,-117 230,-117 230,-95 82,-95"/>
<polygon fill="none" stroke="black" points="82,-95 82,-117 230,-117 230,-95 82,-95"/>
<image xlink:href="../../images/foreignKeys.png" width="11px" height="12px" preserveAspectRatio="xMinYMin meet" x="87" y="-112"/>
<text text-anchor="start" x="102" y="-103.2" font-family="Helvetica,sans-Serif" font-size="11.00">fk_dataowner</text>
<polygon fill="none" stroke="black" points="82,-73 82,-95 230,-95 230,-73 82,-73"/>
<image xlink:href="../../images/foreignKeys.png" width="11px" height="12px" preserveAspectRatio="xMinYMin meet" x="87" y="-90"/>
<text text-anchor="start" x="102" y="-81.2" font-family="Helvetica,sans-Serif" font-size="11.00">fk_provider</text>
<polygon fill="none" stroke="black" points="82,-55 82,-73 230,-73 230,-55 82,-55"/>
<text text-anchor="start" x="85" y="-61.2" font-family="Helvetica,sans-Serif" font-size="11.00">...</text>
<polygon fill="#ffffff" stroke="transparent" points="82,-37 82,-55 146,-55 146,-37 82,-37"/>
<polygon fill="none" stroke="black" points="82,-37 82,-55 146,-55 146,-37 82,-37"/>
<text text-anchor="start" x="85" y="-43.2" font-family="Helvetica,sans-Serif" font-size="11.00">&lt; 4</text>
<polygon fill="#ffffff" stroke="transparent" points="146,-37 146,-55 180,-55 180,-37 146,-37"/>
<polygon fill="none" stroke="black" points="146,-37 146,-55 180,-55 180,-37 146,-37"/>
<text text-anchor="start" x="170" y="-43.2" font-family="Helvetica,sans-Serif" font-size="11.00"> &#160;</text>
<polygon fill="#ffffff" stroke="transparent" points="180,-37 180,-55 230,-55 230,-37 180,-37"/>
<polygon fill="none" stroke="black" points="180,-37 180,-55 230,-55 230,-37 180,-37"/>
<text text-anchor="start" x="205" y="-43.2" font-family="Helvetica,sans-Serif" font-size="11.00">26 &gt;</text>
</a>
</g>
</g>
<!-- pipe_section&#45;&gt;organisation -->
<g id="edge2" class="edge">
<title>pipe_section:w&#45;&gt;organisation:e</title>
<path fill="none" stroke="black" d="M339.52,-226.22C295.21,-221.22 282.4,-194 231,-194"/>
<polygon fill="black" stroke="black" points="346.01,-226.57 353.81,-230.59 350.01,-226.78 354,-227 354,-227 354,-227 350.01,-226.78 354.19,-223.41 346.01,-226.57 346.01,-226.57"/>
<ellipse fill="none" stroke="black" cx="342.82" cy="-226.39" rx="3.2" ry="3.2"/>
</g>
<!-- pipe_section&#45;&gt;organisation -->
<g id="edge3" class="edge">
<title>pipe_section:w&#45;&gt;organisation:e</title>
<path fill="none" stroke="black" d="M339.59,-183.27C296.27,-184.97 280.74,-194 231,-194"/>
<polygon fill="black" stroke="black" points="346,-183.15 354.07,-186.6 350,-183.08 354,-183 354,-183 354,-183 350,-183.08 353.93,-179.4 346,-183.15 346,-183.15"/>
<ellipse fill="none" stroke="black" cx="342.8" cy="-183.21" rx="3.2" ry="3.2"/>
</g>
<!-- pipe_section&#45;&gt;organisation -->
<g id="edge4" class="edge">
<title>pipe_section:w&#45;&gt;organisation:e</title>
<path fill="none" stroke="black" d="M339.52,-161.78C295.21,-166.78 282.4,-194 231,-194"/>
<polygon fill="black" stroke="black" points="346.01,-161.43 354.19,-164.59 350.01,-161.22 354,-161 354,-161 354,-161 350.01,-161.22 353.81,-157.41 346.01,-161.43 346.01,-161.43"/>
<ellipse fill="none" stroke="black" cx="342.82" cy="-161.61" rx="3.2" ry="3.2"/>
</g>
<!-- pipe_section&#45;&gt;organisation -->
<g id="edge5" class="edge">
<title>pipe_section:w&#45;&gt;organisation:e</title>
<path fill="none" stroke="black" d="M339.59,-204.73C296.27,-203.03 280.74,-194 231,-194"/>
<polygon fill="black" stroke="black" points="346,-204.85 353.93,-208.6 350,-204.92 354,-205 354,-205 354,-205 350,-204.92 354.07,-201.4 346,-204.85 346,-204.85"/>
<ellipse fill="none" stroke="black" cx="342.8" cy="-204.79" rx="3.2" ry="3.2"/>
</g>
<!-- tdh_vl.pipe_section_fluent -->
<g id="node4" class="node">
<title>tdh_vl.pipe_section_fluent</title>
<g id="a_node4"><a xlink:href="../../../tdh_vl/tables/pipe_section_fluent.html" xlink:title="tdh_vl.pipe_section_fluent" target="_top">
<polygon fill="#ffffff" stroke="transparent" points="56.5,-563 56.5,-621 255.5,-621 255.5,-563 56.5,-563"/>
<polygon fill="#f5f5f5" stroke="transparent" points="57,-599 57,-621 256,-621 256,-599 57,-599"/>
<polygon fill="none" stroke="black" points="57,-599 57,-621 256,-621 256,-599 57,-599"/>
<text text-anchor="start" x="62" y="-608.2" font-family="Helvetica,sans-Serif" font-weight="bold" font-size="11.00">tdh_vl.pipe_section_fluent</text>
<text text-anchor="start" x="217" y="-607.2" font-family="Helvetica,sans-Serif" font-size="11.00">[table]</text>
<polygon fill="none" stroke="black" points="57,-581 57,-599 256,-599 256,-581 57,-581"/>
<text text-anchor="start" x="60" y="-587.2" font-family="Helvetica,sans-Serif" font-size="11.00">...</text>
<polygon fill="#ffffff" stroke="transparent" points="57,-563 57,-581 132,-581 132,-563 57,-563"/>
<polygon fill="none" stroke="black" points="57,-563 57,-581 132,-581 132,-563 57,-563"/>
<text text-anchor="start" x="60" y="-569.2" font-family="Helvetica,sans-Serif" font-size="11.00"> &#160;</text>
<polygon fill="#ffffff" stroke="transparent" points="132,-563 132,-581 203,-581 203,-563 132,-563"/>
<polygon fill="none" stroke="black" points="132,-563 132,-581 203,-581 203,-563 132,-563"/>
<text text-anchor="start" x="166" y="-569.2" font-family="Helvetica,sans-Serif" font-size="11.00">0 rows</text>
<polygon fill="#ffffff" stroke="transparent" points="203,-563 203,-581 256,-581 256,-563 203,-563"/>
<polygon fill="none" stroke="black" points="203,-563 203,-581 256,-581 256,-563 203,-563"/>
<text text-anchor="start" x="237" y="-569.2" font-family="Helvetica,sans-Serif" font-size="11.00">1 &gt;</text>
</a>
</g>
</g>
<!-- pipe_section&#45;&gt;tdh_vl.pipe_section_fluent -->
<g id="edge6" class="edge">
<title>pipe_section:w&#45;&gt;tdh_vl.pipe_section_fluent:e</title>
<path fill="none" stroke="black" d="M339.68,-643.15C330.82,-640.54 325.07,-635.71 312,-632 296.49,-627.6 280.06,-623.14 263.91,-618.88"/>
<polygon fill="black" stroke="black" points="346.07,-643.97 353.54,-648.57 350.03,-644.49 354,-645 354,-645 354,-645 350.03,-644.49 354.46,-641.43 346.07,-643.97 346.07,-643.97"/>
<ellipse fill="none" stroke="black" cx="342.89" cy="-643.56" rx="3.2" ry="3.2"/>
</g>
<!-- tdh_vl.pipe_section_function -->
<g id="node5" class="node">
<title>tdh_vl.pipe_section_function</title>
<g id="a_node5"><a xlink:href="../../../tdh_vl/tables/pipe_section_function.html" xlink:title="tdh_vl.pipe_section_function" target="_top">
<polygon fill="#ffffff" stroke="transparent" points="49.5,-721 49.5,-779 262.5,-779 262.5,-721 49.5,-721"/>
<polygon fill="#f5f5f5" stroke="transparent" points="50,-757 50,-779 263,-779 263,-757 50,-757"/>
<polygon fill="none" stroke="black" points="50,-757 50,-779 263,-779 263,-757 50,-757"/>
<text text-anchor="start" x="55" y="-766.2" font-family="Helvetica,sans-Serif" font-weight="bold" font-size="11.00">tdh_vl.pipe_section_function</text>
<text text-anchor="start" x="224" y="-765.2" font-family="Helvetica,sans-Serif" font-size="11.00">[table]</text>
<polygon fill="none" stroke="black" points="50,-739 50,-757 263,-757 263,-739 50,-739"/>
<text text-anchor="start" x="53" y="-745.2" font-family="Helvetica,sans-Serif" font-size="11.00">...</text>
<polygon fill="#ffffff" stroke="transparent" points="50,-721 50,-739 132,-739 132,-721 50,-721"/>
<polygon fill="none" stroke="black" points="50,-721 50,-739 132,-739 132,-721 50,-721"/>
<text text-anchor="start" x="53" y="-727.2" font-family="Helvetica,sans-Serif" font-size="11.00"> &#160;</text>
<polygon fill="#ffffff" stroke="transparent" points="132,-721 132,-739 206,-739 206,-721 132,-721"/>
<polygon fill="none" stroke="black" points="132,-721 132,-739 206,-739 206,-721 132,-721"/>
<text text-anchor="start" x="169" y="-727.2" font-family="Helvetica,sans-Serif" font-size="11.00">0 rows</text>
<polygon fill="#ffffff" stroke="transparent" points="206,-721 206,-739 263,-739 263,-721 206,-721"/>
<polygon fill="none" stroke="black" points="206,-721 206,-739 263,-739 263,-721 206,-721"/>
<text text-anchor="start" x="244" y="-727.2" font-family="Helvetica,sans-Serif" font-size="11.00">1 &gt;</text>
</a>
</g>
</g>
<!-- pipe_section&#45;&gt;tdh_vl.pipe_section_function -->
<g id="edge7" class="edge">
<title>pipe_section:w&#45;&gt;tdh_vl.pipe_section_function:e</title>
<path fill="none" stroke="black" d="M339.77,-692.11C330.67,-696.79 326,-705.66 312,-711 298.78,-716.04 284.67,-720.63 270.56,-724.73"/>
<polygon fill="black" stroke="black" points="346.18,-690.71 354.77,-692.52 350.09,-689.86 354,-689 354,-689 354,-689 350.09,-689.86 353.23,-685.48 346.18,-690.71 346.18,-690.71"/>
<ellipse fill="none" stroke="black" cx="343.06" cy="-691.39" rx="3.2" ry="3.2"/>
</g>
<!-- tdh_vl.pipe_section_horizontal_positioning -->
<g id="node6" class="node">
<title>tdh_vl.pipe_section_horizontal_positioning</title>
<g id="a_node6"><a xlink:href="../../../tdh_vl/tables/pipe_section_horizontal_positioning.html" xlink:title="tdh_vl.pipe_section_horizontal_positioning" target="_top">
<polygon fill="#ffffff" stroke="transparent" points="8,-879 8,-937 304,-937 304,-879 8,-879"/>
<polygon fill="#f5f5f5" stroke="transparent" points="8,-915 8,-937 304,-937 304,-915 8,-915"/>
<polygon fill="none" stroke="black" points="8,-915 8,-937 304,-937 304,-915 8,-915"/>
<text text-anchor="start" x="13" y="-924.2" font-family="Helvetica,sans-Serif" font-weight="bold" font-size="11.00">tdh_vl.pipe_section_horizontal_positioning</text>
<text text-anchor="start" x="265" y="-923.2" font-family="Helvetica,sans-Serif" font-size="11.00">[table]</text>
<polygon fill="none" stroke="black" points="8,-897 8,-915 304,-915 304,-897 8,-897"/>
<text text-anchor="start" x="11" y="-903.2" font-family="Helvetica,sans-Serif" font-size="11.00">...</text>
<polygon fill="#ffffff" stroke="transparent" points="8,-879 8,-897 131,-897 131,-879 8,-879"/>
<polygon fill="none" stroke="black" points="8,-879 8,-897 131,-897 131,-879 8,-879"/>
<text text-anchor="start" x="11" y="-885.2" font-family="Helvetica,sans-Serif" font-size="11.00"> &#160;</text>
<polygon fill="#ffffff" stroke="transparent" points="131,-879 131,-897 226,-897 226,-879 131,-879"/>
<polygon fill="none" stroke="black" points="131,-879 131,-897 226,-897 226,-879 131,-879"/>
<text text-anchor="start" x="189" y="-885.2" font-family="Helvetica,sans-Serif" font-size="11.00">0 rows</text>
<polygon fill="#ffffff" stroke="transparent" points="226,-879 226,-897 304,-897 304,-879 226,-879"/>
<polygon fill="none" stroke="black" points="226,-879 226,-897 304,-897 304,-879 226,-879"/>
<text text-anchor="start" x="285" y="-885.2" font-family="Helvetica,sans-Serif" font-size="11.00">1 &gt;</text>
</a>
</g>
</g>
<!-- pipe_section&#45;&gt;tdh_vl.pipe_section_horizontal_positioning -->
<g id="edge8" class="edge">
<title>pipe_section:w&#45;&gt;tdh_vl.pipe_section_horizontal_positioning:e</title>
<path fill="none" stroke="black" d="M339.45,-735.32C302.34,-749.91 353.6,-829.55 312,-869 309.79,-871.1 307.47,-873.09 305.08,-874.98"/>
<polygon fill="black" stroke="black" points="346.1,-734.26 354.57,-736.56 350.05,-733.63 354,-733 354,-733 354,-733 350.05,-733.63 353.43,-729.44 346.1,-734.26 346.1,-734.26"/>
<ellipse fill="none" stroke="black" cx="342.94" cy="-734.76" rx="3.2" ry="3.2"/>
</g>
<!-- tdh_vl.pipe_section_insulation_kind -->
<g id="node7" class="node">
<title>tdh_vl.pipe_section_insulation_kind</title>
<g id="a_node7"><a xlink:href="../../../tdh_vl/tables/pipe_section_insulation_kind.html" xlink:title="tdh_vl.pipe_section_insulation_kind" target="_top">
<polygon fill="#ffffff" stroke="transparent" points="29,-484 29,-542 283,-542 283,-484 29,-484"/>
<polygon fill="#f5f5f5" stroke="transparent" points="29,-520 29,-542 283,-542 283,-520 29,-520"/>
<polygon fill="none" stroke="black" points="29,-520 29,-542 283,-542 283,-520 29,-520"/>
<text text-anchor="start" x="34" y="-529.2" font-family="Helvetica,sans-Serif" font-weight="bold" font-size="11.00">tdh_vl.pipe_section_insulation_kind</text>
<text text-anchor="start" x="244" y="-528.2" font-family="Helvetica,sans-Serif" font-size="11.00">[table]</text>
<polygon fill="none" stroke="black" points="29,-502 29,-520 283,-520 283,-502 29,-502"/>
<text text-anchor="start" x="32" y="-508.2" font-family="Helvetica,sans-Serif" font-size="11.00">...</text>
<polygon fill="#ffffff" stroke="transparent" points="29,-484 29,-502 131,-502 131,-484 29,-484"/>
<polygon fill="none" stroke="black" points="29,-484 29,-502 131,-502 131,-484 29,-484"/>
<text text-anchor="start" x="32" y="-490.2" font-family="Helvetica,sans-Serif" font-size="11.00"> &#160;</text>
<polygon fill="#ffffff" stroke="transparent" points="131,-484 131,-502 216,-502 216,-484 131,-484"/>
<polygon fill="none" stroke="black" points="131,-484 131,-502 216,-502 216,-484 131,-484"/>
<text text-anchor="start" x="179" y="-490.2" font-family="Helvetica,sans-Serif" font-size="11.00">0 rows</text>
<polygon fill="#ffffff" stroke="transparent" points="216,-484 216,-502 283,-502 283,-484 216,-484"/>
<polygon fill="none" stroke="black" points="216,-484 216,-502 283,-502 283,-484 216,-484"/>
<text text-anchor="start" x="264" y="-490.2" font-family="Helvetica,sans-Serif" font-size="11.00">1 &gt;</text>
</a>
</g>
</g>
<!-- pipe_section&#45;&gt;tdh_vl.pipe_section_insulation_kind -->
<g id="edge9" class="edge">
<title>pipe_section:w&#45;&gt;tdh_vl.pipe_section_insulation_kind:e</title>
<path fill="none" stroke="black" d="M339.5,-534.81C323.56,-534.41 307.18,-533.4 291.09,-532.01"/>
<polygon fill="black" stroke="black" points="346,-534.9 353.95,-538.6 350,-534.95 354,-535 354,-535 354,-535 350,-534.95 354.05,-531.4 346,-534.9 346,-534.9"/>
<ellipse fill="none" stroke="black" cx="342.8" cy="-534.86" rx="3.2" ry="3.2"/>
</g>
<!-- tdh_vl.pipe_section_pipe_type -->
<g id="node8" class="node">
<title>tdh_vl.pipe_section_pipe_type</title>
<g id="a_node8"><a xlink:href="../../../tdh_vl/tables/pipe_section_pipe_type.html" xlink:title="tdh_vl.pipe_section_pipe_type" target="_top">
<polygon fill="#ffffff" stroke="transparent" points="46,-642 46,-700 266,-700 266,-642 46,-642"/>
<polygon fill="#f5f5f5" stroke="transparent" points="46,-678 46,-700 266,-700 266,-678 46,-678"/>
<polygon fill="none" stroke="black" points="46,-678 46,-700 266,-700 266,-678 46,-678"/>
<text text-anchor="start" x="51" y="-687.2" font-family="Helvetica,sans-Serif" font-weight="bold" font-size="11.00">tdh_vl.pipe_section_pipe_type</text>
<text text-anchor="start" x="227" y="-686.2" font-family="Helvetica,sans-Serif" font-size="11.00">[table]</text>
<polygon fill="none" stroke="black" points="46,-660 46,-678 266,-678 266,-660 46,-660"/>
<text text-anchor="start" x="49" y="-666.2" font-family="Helvetica,sans-Serif" font-size="11.00">...</text>
<polygon fill="#ffffff" stroke="transparent" points="46,-642 46,-660 131,-660 131,-642 46,-642"/>
<polygon fill="none" stroke="black" points="46,-642 46,-660 131,-660 131,-642 46,-642"/>
<text text-anchor="start" x="49" y="-648.2" font-family="Helvetica,sans-Serif" font-size="11.00"> &#160;</text>
<polygon fill="#ffffff" stroke="transparent" points="131,-642 131,-660 207,-660 207,-642 131,-642"/>
<polygon fill="none" stroke="black" points="131,-642 131,-660 207,-660 207,-642 131,-642"/>
<text text-anchor="start" x="170" y="-648.2" font-family="Helvetica,sans-Serif" font-size="11.00">0 rows</text>
<polygon fill="#ffffff" stroke="transparent" points="207,-642 207,-660 266,-660 266,-642 207,-642"/>
<polygon fill="none" stroke="black" points="207,-642 207,-660 266,-660 266,-642 207,-642"/>
<text text-anchor="start" x="247" y="-648.2" font-family="Helvetica,sans-Serif" font-size="11.00">1 &gt;</text>
</a>
</g>
</g>
<!-- pipe_section&#45;&gt;tdh_vl.pipe_section_pipe_type -->
<g id="edge10" class="edge">
<title>pipe_section:w&#45;&gt;tdh_vl.pipe_section_pipe_type:e</title>
<path fill="none" stroke="black" d="M339.29,-667.04C317.83,-667.14 295.52,-667.44 274.18,-667.84"/>
<polygon fill="black" stroke="black" points="346,-667.02 354.01,-670.6 350,-667.01 354,-667 354,-667 354,-667 350,-667.01 353.99,-663.4 346,-667.02 346,-667.02"/>
<ellipse fill="none" stroke="black" cx="342.8" cy="-667.03" rx="3.2" ry="3.2"/>
</g>
<!-- tdh_vl.pipe_section_pipeline_quality -->
<g id="node9" class="node">
<title>tdh_vl.pipe_section_pipeline_quality</title>
<g id="a_node9"><a xlink:href="../../../tdh_vl/tables/pipe_section_pipeline_quality.html" xlink:title="tdh_vl.pipe_section_pipeline_quality" target="_top">
<polygon fill="#ffffff" stroke="transparent" points="27,-326 27,-384 285,-384 285,-326 27,-326"/>
<polygon fill="#f5f5f5" stroke="transparent" points="27,-362 27,-384 285,-384 285,-362 27,-362"/>
<polygon fill="none" stroke="black" points="27,-362 27,-384 285,-384 285,-362 27,-362"/>
<text text-anchor="start" x="32" y="-371.2" font-family="Helvetica,sans-Serif" font-weight="bold" font-size="11.00">tdh_vl.pipe_section_pipeline_quality</text>
<text text-anchor="start" x="246" y="-370.2" font-family="Helvetica,sans-Serif" font-size="11.00">[table]</text>
<polygon fill="none" stroke="black" points="27,-344 27,-362 285,-362 285,-344 27,-344"/>
<text text-anchor="start" x="30" y="-350.2" font-family="Helvetica,sans-Serif" font-size="11.00">...</text>
<polygon fill="#ffffff" stroke="transparent" points="27,-326 27,-344 131,-344 131,-326 27,-326"/>
<polygon fill="none" stroke="black" points="27,-326 27,-344 131,-344 131,-326 27,-326"/>
<text text-anchor="start" x="30" y="-332.2" font-family="Helvetica,sans-Serif" font-size="11.00"> &#160;</text>
<polygon fill="#ffffff" stroke="transparent" points="131,-326 131,-344 217,-344 217,-326 131,-326"/>
<polygon fill="none" stroke="black" points="131,-326 131,-344 217,-344 217,-326 131,-326"/>
<text text-anchor="start" x="180" y="-332.2" font-family="Helvetica,sans-Serif" font-size="11.00">0 rows</text>
<polygon fill="#ffffff" stroke="transparent" points="217,-326 217,-344 285,-344 285,-326 217,-326"/>
<polygon fill="none" stroke="black" points="217,-326 217,-344 285,-344 285,-326 217,-326"/>
<text text-anchor="start" x="266" y="-332.2" font-family="Helvetica,sans-Serif" font-size="11.00">1 &gt;</text>
</a>
</g>
</g>
<!-- pipe_section&#45;&gt;tdh_vl.pipe_section_pipeline_quality -->
<g id="edge11" class="edge">
<title>pipe_section:w&#45;&gt;tdh_vl.pipe_section_pipeline_quality:e</title>
<path fill="none" stroke="black" d="M339.54,-358.97C324.29,-358.9 308.62,-358.72 293.17,-358.49"/>
<polygon fill="black" stroke="black" points="346,-358.98 353.99,-362.6 350,-358.99 354,-359 354,-359 354,-359 350,-358.99 354.01,-355.4 346,-358.98 346,-358.98"/>
<ellipse fill="none" stroke="black" cx="342.8" cy="-358.97" rx="3.2" ry="3.2"/>
</g>
<!-- tdh_vl.pipe_section_status -->
<g id="node10" class="node">
<title>tdh_vl.pipe_section_status</title>
<g id="a_node10"><a xlink:href="../../../tdh_vl/tables/pipe_section_status.html" xlink:title="tdh_vl.pipe_section_status" target="_top">
<polygon fill="#ffffff" stroke="transparent" points="56,-800 56,-858 256,-858 256,-800 56,-800"/>
<polygon fill="#f5f5f5" stroke="transparent" points="56,-836 56,-858 256,-858 256,-836 56,-836"/>
<polygon fill="none" stroke="black" points="56,-836 56,-858 256,-858 256,-836 56,-836"/>
<text text-anchor="start" x="61" y="-845.2" font-family="Helvetica,sans-Serif" font-weight="bold" font-size="11.00">tdh_vl.pipe_section_status</text>
<text text-anchor="start" x="217" y="-844.2" font-family="Helvetica,sans-Serif" font-size="11.00">[table]</text>
<polygon fill="none" stroke="black" points="56,-818 56,-836 256,-836 256,-818 56,-818"/>
<text text-anchor="start" x="59" y="-824.2" font-family="Helvetica,sans-Serif" font-size="11.00">...</text>
<polygon fill="#ffffff" stroke="transparent" points="56,-800 56,-818 131,-818 131,-800 56,-800"/>
<polygon fill="none" stroke="black" points="56,-800 56,-818 131,-818 131,-800 56,-800"/>
<text text-anchor="start" x="59" y="-806.2" font-family="Helvetica,sans-Serif" font-size="11.00"> &#160;</text>
<polygon fill="#ffffff" stroke="transparent" points="131,-800 131,-818 202,-818 202,-800 131,-800"/>
<polygon fill="none" stroke="black" points="131,-800 131,-818 202,-818 202,-800 131,-800"/>
<text text-anchor="start" x="165" y="-806.2" font-family="Helvetica,sans-Serif" font-size="11.00">0 rows</text>
<polygon fill="#ffffff" stroke="transparent" points="202,-800 202,-818 256,-818 256,-800 202,-800"/>
<polygon fill="none" stroke="black" points="202,-800 202,-818 256,-818 256,-800 202,-800"/>
<text text-anchor="start" x="237" y="-806.2" font-family="Helvetica,sans-Serif" font-size="11.00">1 &gt;</text>
</a>
</g>
</g>
<!-- pipe_section&#45;&gt;tdh_vl.pipe_section_status -->
<g id="edge12" class="edge">
<title>pipe_section:w&#45;&gt;tdh_vl.pipe_section_status:e</title>
<path fill="none" stroke="black" d="M339.91,-714.67C321.85,-727.29 338.42,-769.31 312,-790 298.02,-800.95 281.34,-808.86 264.19,-814.57"/>
<polygon fill="black" stroke="black" points="346.26,-713.02 354.91,-714.48 350.13,-712.01 354,-711 354,-711 354,-711 350.13,-712.01 353.09,-707.52 346.26,-713.02 346.26,-713.02"/>
<ellipse fill="none" stroke="black" cx="343.16" cy="-713.82" rx="3.2" ry="3.2"/>
</g>
</g>
</svg>
