<?xml version="1.0" encoding="UTF-8" standalone="no"?>
<!DOCTYPE svg PUBLIC "-//W3C//DTD SVG 1.1//EN"
 "http://www.w3.org/Graphics/SVG/1.1/DTD/svg11.dtd">
<!-- Generated by graphviz version 2.43.0 (0)
 -->
<!-- Title: oneDegreeRelationshipsDiagram Pages: 1 -->
<svg width="639pt" height="612pt"
 viewBox="0.00 0.00 639.00 612.00" xmlns="http://www.w3.org/2000/svg" xmlns:xlink="http://www.w3.org/1999/xlink">
<g id="graph0" class="graph" transform="scale(1 1) rotate(0) translate(4 608)">
<title>oneDegreeRelationshipsDiagram</title>
<polygon fill="#ffffff" stroke="transparent" points="-4,4 -4,-608 635,-608 635,4 -4,4"/>
<text text-anchor="middle" x="79.5" y="-7.2" font-family="Helvetica,sans-Serif" font-size="11.00">Generated by SchemaSpy</text>
<!-- pipe_point_feed -->
<g id="node1" class="node">
<title>pipe_point_feed</title>
<g id="a_node1"><a xlink:href="../../tables/pipe_point_feed.html" xlink:title="pipe_point_feed" target="_top">
<polygon fill="#ffffff" stroke="transparent" points="339,-37 339,-411 623,-411 623,-37 339,-37"/>
<polygon fill="#f5f5f5" stroke="transparent" points="341,-387 341,-409 621,-409 621,-387 341,-387"/>
<polygon fill="none" stroke="black" points="341,-387 341,-409 621,-409 621,-387 341,-387"/>
<text text-anchor="start" x="346" y="-396.2" font-family="Helvetica,sans-Serif" font-weight="bold" font-size="11.00">pipe_point_feed</text>
<text text-anchor="start" x="579" y="-395.2" font-family="Helvetica,sans-Serif" font-size="11.00">[table]</text>
<polygon fill="none" stroke="black" points="341,-365 341,-387 544,-387 544,-365 341,-365"/>
<image xlink:href="../../images/primaryKeys.png" width="11px" height="12px" preserveAspectRatio="xMinYMin meet" x="346" y="-382"/>
<text text-anchor="start" x="361" y="-373.2" font-family="Helvetica,sans-Serif" font-size="11.00">obj_id</text>
<polygon fill="none" stroke="black" points="544,-365 544,-387 621,-387 621,-365 544,-365"/>
<text text-anchor="start" x="547" y="-373.2" font-family="Helvetica,sans-Serif" font-size="11.00">varchar[16]</text>
<polygon fill="none" stroke="black" points="341,-343 341,-365 544,-365 544,-343 341,-343"/>
<image xlink:href="../../images/foreignKeys.png" width="11px" height="12px" preserveAspectRatio="xMinYMin meet" x="346" y="-360"/>
<text text-anchor="start" x="361" y="-351.2" font-family="Helvetica,sans-Serif" font-size="11.00">kind</text>
<polygon fill="none" stroke="black" points="544,-343 544,-365 621,-365 621,-343 544,-343"/>
<text text-anchor="start" x="547" y="-351.2" font-family="Helvetica,sans-Serif" font-size="11.00">int4[10]</text>
<polygon fill="none" stroke="black" points="341,-321 341,-343 544,-343 544,-321 341,-321"/>
<text text-anchor="start" x="361" y="-329.2" font-family="Helvetica,sans-Serif" font-size="11.00">power_output_ordered</text>
<polygon fill="none" stroke="black" points="544,-321 544,-343 621,-343 621,-321 544,-321"/>
<text text-anchor="start" x="547" y="-329.2" font-family="Helvetica,sans-Serif" font-size="11.00">int4[10]</text>
<polygon fill="none" stroke="black" points="341,-299 341,-321 544,-321 544,-299 341,-299"/>
<text text-anchor="start" x="361" y="-307.2" font-family="Helvetica,sans-Serif" font-size="11.00">power_output_installed</text>
<polygon fill="none" stroke="black" points="544,-299 544,-321 621,-321 621,-299 544,-299"/>
<text text-anchor="start" x="547" y="-307.2" font-family="Helvetica,sans-Serif" font-size="11.00">int4[10]</text>
<polygon fill="none" stroke="black" points="341,-277 341,-299 544,-299 544,-277 341,-277"/>
<text text-anchor="start" x="361" y="-285.2" font-family="Helvetica,sans-Serif" font-size="11.00">aperture_value</text>
<polygon fill="none" stroke="black" points="544,-277 544,-299 621,-299 621,-277 544,-277"/>
<text text-anchor="start" x="547" y="-285.2" font-family="Helvetica,sans-Serif" font-size="11.00">int4[10]</text>
<polygon fill="none" stroke="black" points="341,-255 341,-277 544,-277 544,-255 341,-255"/>
<text text-anchor="start" x="361" y="-263.2" font-family="Helvetica,sans-Serif" font-size="11.00">q_subscribed</text>
<polygon fill="none" stroke="black" points="544,-255 544,-277 621,-277 621,-255 544,-255"/>
<text text-anchor="start" x="547" y="-263.2" font-family="Helvetica,sans-Serif" font-size="11.00">numeric[7,3]</text>
<polygon fill="none" stroke="black" points="341,-233 341,-255 544,-255 544,-233 341,-233"/>
<image xlink:href="../../images/foreignKeys.png" width="11px" height="12px" preserveAspectRatio="xMinYMin meet" x="346" y="-250"/>
<text text-anchor="start" x="361" y="-241.2" font-family="Helvetica,sans-Serif" font-size="11.00">category</text>
<polygon fill="none" stroke="black" points="544,-233 544,-255 621,-255 621,-233 544,-233"/>
<text text-anchor="start" x="547" y="-241.2" font-family="Helvetica,sans-Serif" font-size="11.00">int4[10]</text>
<polygon fill="none" stroke="black" points="341,-211 341,-233 544,-233 544,-211 341,-211"/>
<text text-anchor="start" x="361" y="-219.2" font-family="Helvetica,sans-Serif" font-size="11.00">year_of_commissioning</text>
<polygon fill="none" stroke="black" points="544,-211 544,-233 621,-233 621,-211 544,-211"/>
<text text-anchor="start" x="547" y="-219.2" font-family="Helvetica,sans-Serif" font-size="11.00">int2[5]</text>
<polygon fill="none" stroke="black" points="341,-189 341,-211 544,-211 544,-189 341,-189"/>
<text text-anchor="start" x="361" y="-197.2" font-family="Helvetica,sans-Serif" font-size="11.00">year_of_reconstruction</text>
<polygon fill="none" stroke="black" points="544,-189 544,-211 621,-211 621,-189 544,-189"/>
<text text-anchor="start" x="547" y="-197.2" font-family="Helvetica,sans-Serif" font-size="11.00">int2[5]</text>
<polygon fill="none" stroke="black" points="341,-167 341,-189 544,-189 544,-167 341,-167"/>
<text text-anchor="start" x="361" y="-175.2" font-family="Helvetica,sans-Serif" font-size="11.00">pressure</text>
<polygon fill="none" stroke="black" points="544,-167 544,-189 621,-189 621,-167 544,-167"/>
<text text-anchor="start" x="547" y="-175.2" font-family="Helvetica,sans-Serif" font-size="11.00">int2[5]</text>
<polygon fill="none" stroke="black" points="341,-145 341,-167 544,-167 544,-145 341,-145"/>
<text text-anchor="start" x="361" y="-153.2" font-family="Helvetica,sans-Serif" font-size="11.00">flow_temperature</text>
<polygon fill="none" stroke="black" points="544,-145 544,-167 621,-167 621,-145 544,-145"/>
<text text-anchor="start" x="547" y="-153.2" font-family="Helvetica,sans-Serif" font-size="11.00">int4[10]</text>
<polygon fill="none" stroke="black" points="341,-123 341,-145 544,-145 544,-123 341,-123"/>
<text text-anchor="start" x="361" y="-131.2" font-family="Helvetica,sans-Serif" font-size="11.00">return_flow_temperature</text>
<polygon fill="none" stroke="black" points="544,-123 544,-145 621,-145 621,-123 544,-123"/>
<text text-anchor="start" x="547" y="-131.2" font-family="Helvetica,sans-Serif" font-size="11.00">int4[10]</text>
<polygon fill="none" stroke="black" points="341,-101 341,-123 544,-123 544,-101 341,-101"/>
<text text-anchor="start" x="361" y="-109.2" font-family="Helvetica,sans-Serif" font-size="11.00">heated_volume</text>
<polygon fill="none" stroke="black" points="544,-101 544,-123 621,-123 621,-101 544,-101"/>
<text text-anchor="start" x="547" y="-109.2" font-family="Helvetica,sans-Serif" font-size="11.00">int4[10]</text>
<polygon fill="none" stroke="black" points="341,-79 341,-101 544,-101 544,-79 341,-79"/>
<text text-anchor="start" x="361" y="-87.2" font-family="Helvetica,sans-Serif" font-size="11.00">heat_consumption</text>
<polygon fill="none" stroke="black" points="544,-79 544,-101 621,-101 621,-79 544,-79"/>
<text text-anchor="start" x="547" y="-87.2" font-family="Helvetica,sans-Serif" font-size="11.00">int4[10]</text>
<polygon fill="none" stroke="black" points="341,-57 341,-79 544,-79 544,-57 341,-57"/>
<text text-anchor="start" x="361" y="-65.2" font-family="Helvetica,sans-Serif" font-size="11.00">power_output</text>
<polygon fill="none" stroke="black" points="544,-57 544,-79 621,-79 621,-57 544,-57"/>
<text text-anchor="start" x="547" y="-65.2" font-family="Helvetica,sans-Serif" font-size="11.00">int4[10]</text>
<polygon fill="#ffffff" stroke="transparent" points="341,-39 341,-57 621,-57 621,-39 341,-39"/>
<polygon fill="none" stroke="black" points="341,-39 341,-57 621,-57 621,-39 341,-39"/>
<polygon fill="#ffffff" stroke="transparent" points="342,-40 342,-56 439,-56 439,-40 342,-40"/>
<text text-anchor="start" x="344" y="-45.2" font-family="Helvetica,sans-Serif" font-size="11.00">&lt; 3</text>
<polygon fill="#ffffff" stroke="transparent" points="439,-40 439,-56 524,-56 524,-40 439,-40"/>
<text text-anchor="start" x="477.5" y="-45.2" font-family="Helvetica,sans-Serif" font-size="11.00"> &#160;</text>
<polygon fill="#ffffff" stroke="transparent" points="524,-40 524,-56 620,-56 620,-40 524,-40"/>
<text text-anchor="start" x="598" y="-45.2" font-family="Helvetica,sans-Serif" font-size="11.00">0 &gt;</text>
<polygon fill="black" stroke="black" points="439,-40 439,-56 439,-56 439,-40 439,-40"/>
<polygon fill="black" stroke="black" points="524,-40 524,-56 524,-56 524,-40 524,-40"/>
<polygon fill="none" stroke="black" stroke-width="2" points="340,-38 340,-410 622,-410 622,-38 340,-38"/>
</a>
</g>
</g>
<!-- tdh_vl.pipe_point_feed_category -->
<g id="node2" class="node">
<title>tdh_vl.pipe_point_feed_category</title>
<g id="a_node2"><a xlink:href="../../../tdh_vl/tables/pipe_point_feed_category.html" xlink:title="tdh_vl.pipe_point_feed_category" target="_top">
<polygon fill="#ffffff" stroke="transparent" points="8,-215 8,-273 290,-273 290,-215 8,-215"/>
<polygon fill="#f5f5f5" stroke="transparent" points="8,-251 8,-273 290,-273 290,-251 8,-251"/>
<polygon fill="none" stroke="black" points="8,-251 8,-273 290,-273 290,-251 8,-251"/>
<text text-anchor="start" x="13" y="-260.2" font-family="Helvetica,sans-Serif" font-weight="bold" font-size="11.00">tdh_vl.pipe_point_feed_category</text>
<text text-anchor="start" x="248" y="-259.2" font-family="Helvetica,sans-Serif" font-size="11.00">[table]</text>
<polygon fill="none" stroke="black" points="8,-233 8,-251 290,-251 290,-233 8,-233"/>
<text text-anchor="start" x="11" y="-239.2" font-family="Helvetica,sans-Serif" font-size="11.00">...</text>
<polygon fill="#ffffff" stroke="transparent" points="8,-215 8,-233 290,-233 290,-215 8,-215"/>
<polygon fill="none" stroke="black" points="8,-215 8,-233 290,-233 290,-215 8,-215"/>
<polygon fill="#ffffff" stroke="transparent" points="9,-216 9,-232 89,-232 89,-216 9,-216"/>
<text text-anchor="start" x="11" y="-221.2" font-family="Helvetica,sans-Serif" font-size="11.00"> &#160;</text>
<polygon fill="#ffffff" stroke="transparent" points="89,-216 89,-232 198,-232 198,-216 89,-216"/>
<text text-anchor="start" x="125" y="-221.2" font-family="Helvetica,sans-Serif" font-size="11.00">0 rows</text>
<polygon fill="#ffffff" stroke="transparent" points="198,-216 198,-232 289,-232 289,-216 198,-216"/>
<text text-anchor="start" x="267" y="-221.2" font-family="Helvetica,sans-Serif" font-size="11.00">1 &gt;</text>
<polygon fill="black" stroke="black" points="89,-216 89,-232 89,-232 89,-216 89,-216"/>
<polygon fill="black" stroke="black" points="198,-216 198,-232 198,-232 198,-216 198,-216"/>
</a>
</g>
</g>
<!-- pipe_point_feed&#45;&gt;tdh_vl.pipe_point_feed_category -->
<g id="edge1" class="edge">
<title>pipe_point_feed:w&#45;&gt;tdh_vl.pipe_point_feed_category:e</title>
<path fill="none" stroke="black" d="M325.47,-244C316.44,-244 307.26,-244 298.07,-244"/>
<polygon fill="black" stroke="black" points="332,-244 340,-247.6 336,-244 340,-244 340,-244 340,-244 336,-244 340,-240.4 332,-244 332,-244"/>
<ellipse fill="none" stroke="black" cx="328.8" cy="-244" rx="3.2" ry="3.2"/>
</g>
<!-- tdh_vl.pipe_point_feed_kind -->
<g id="node3" class="node">
<title>tdh_vl.pipe_point_feed_kind</title>
<g id="a_node3"><a xlink:href="../../../tdh_vl/tables/pipe_point_feed_kind.html" xlink:title="tdh_vl.pipe_point_feed_kind" target="_top">
<polygon fill="#ffffff" stroke="transparent" points="24.5,-309 24.5,-367 273.5,-367 273.5,-309 24.5,-309"/>
<polygon fill="#f5f5f5" stroke="transparent" points="25,-345 25,-367 274,-367 274,-345 25,-345"/>
<polygon fill="none" stroke="black" points="25,-345 25,-367 274,-367 274,-345 25,-345"/>
<text text-anchor="start" x="30" y="-354.2" font-family="Helvetica,sans-Serif" font-weight="bold" font-size="11.00">tdh_vl.pipe_point_feed_kind</text>
<text text-anchor="start" x="232" y="-353.2" font-family="Helvetica,sans-Serif" font-size="11.00">[table]</text>
<polygon fill="none" stroke="black" points="25,-327 25,-345 274,-345 274,-327 25,-327"/>
<text text-anchor="start" x="28" y="-333.2" font-family="Helvetica,sans-Serif" font-size="11.00">...</text>
<polygon fill="#ffffff" stroke="transparent" points="25,-309 25,-327 274,-327 274,-309 25,-309"/>
<polygon fill="none" stroke="black" points="25,-309 25,-327 274,-327 274,-309 25,-309"/>
<polygon fill="#ffffff" stroke="transparent" points="26,-310 26,-326 95,-326 95,-310 26,-310"/>
<text text-anchor="start" x="28" y="-315.2" font-family="Helvetica,sans-Serif" font-size="11.00"> &#160;</text>
<polygon fill="#ffffff" stroke="transparent" points="95,-310 95,-326 193,-326 193,-310 95,-310"/>
<text text-anchor="start" x="125.5" y="-315.2" font-family="Helvetica,sans-Serif" font-size="11.00">0 rows</text>
<polygon fill="#ffffff" stroke="transparent" points="193,-310 193,-326 273,-326 273,-310 193,-310"/>
<text text-anchor="start" x="251" y="-315.2" font-family="Helvetica,sans-Serif" font-size="11.00">1 &gt;</text>
<polygon fill="black" stroke="black" points="95,-310 95,-326 95,-326 95,-310 95,-310"/>
<polygon fill="black" stroke="black" points="193,-310 193,-326 193,-326 193,-310 193,-310"/>
</a>
</g>
</g>
<!-- pipe_point_feed&#45;&gt;tdh_vl.pipe_point_feed_kind -->
<g id="edge2" class="edge">
<title>pipe_point_feed:w&#45;&gt;tdh_vl.pipe_point_feed_kind:e</title>
<path fill="none" stroke="black" d="M325.23,-353.85C310.9,-353.56 296.21,-352.89 281.73,-351.97"/>
<polygon fill="black" stroke="black" points="332,-353.92 339.96,-357.6 336,-353.96 340,-354 340,-354 340,-354 336,-353.96 340.04,-350.4 332,-353.92 332,-353.92"/>
<ellipse fill="none" stroke="black" cx="328.8" cy="-353.88" rx="3.2" ry="3.2"/>
</g>
<!-- pipe_point -->
<g id="node4" class="node">
<title>pipe_point</title>
<g id="a_node4"><a xlink:href="../../tables/pipe_point.html" xlink:title="pipe_point" target="_top">
<polygon fill="#ffffff" stroke="transparent" points="49,-388 49,-600 249,-600 249,-388 49,-388"/>
<polygon fill="#f5f5f5" stroke="transparent" points="49,-578 49,-600 249,-600 249,-578 49,-578"/>
<polygon fill="none" stroke="black" points="49,-578 49,-600 249,-600 249,-578 49,-578"/>
<text text-anchor="start" x="54" y="-587.2" font-family="Helvetica,sans-Serif" font-weight="bold" font-size="11.00">pipe_point</text>
<text text-anchor="start" x="207" y="-586.2" font-family="Helvetica,sans-Serif" font-size="11.00">[table]</text>
<polygon fill="none" stroke="black" points="49,-556 49,-578 249,-578 249,-556 49,-556"/>
<image xlink:href="../../images/primaryKeys.png" width="11px" height="12px" preserveAspectRatio="xMinYMin meet" x="54" y="-573"/>
<text text-anchor="start" x="69" y="-564.2" font-family="Helvetica,sans-Serif" font-size="11.00">obj_id</text>
<polygon fill="#ffffff" stroke="transparent" points="49,-534 49,-556 249,-556 249,-534 49,-534"/>
<polygon fill="none" stroke="black" points="49,-534 49,-556 249,-556 249,-534 49,-534"/>
<text text-anchor="start" x="69" y="-542.2" font-family="Helvetica,sans-Serif" font-size="11.00">geometry3d_geometry</text>
<polygon fill="none" stroke="black" points="49,-512 49,-534 249,-534 249,-512 49,-512"/>
<image xlink:href="../../images/foreignKeys.png" width="11px" height="12px" preserveAspectRatio="xMinYMin meet" x="54" y="-529"/>
<text text-anchor="start" x="69" y="-520.2" font-family="Helvetica,sans-Serif" font-size="11.00">horizontal_positioning</text>
<polygon fill="none" stroke="black" points="49,-490 49,-512 249,-512 249,-490 49,-490"/>
<image xlink:href="../../images/foreignKeys.png" width="11px" height="12px" preserveAspectRatio="xMinYMin meet" x="54" y="-507"/>
<text text-anchor="start" x="69" y="-498.2" font-family="Helvetica,sans-Serif" font-size="11.00">elevation_determination</text>
<polygon fill="none" stroke="black" points="49,-468 49,-490 249,-490 249,-468 49,-468"/>
<image xlink:href="../../images/foreignKeys.png" width="11px" height="12px" preserveAspectRatio="xMinYMin meet" x="54" y="-485"/>
<text text-anchor="start" x="69" y="-476.2" font-family="Helvetica,sans-Serif" font-size="11.00">fk_dataowner</text>
<polygon fill="none" stroke="black" points="49,-446 49,-468 249,-468 249,-446 49,-446"/>
<image xlink:href="../../images/foreignKeys.png" width="11px" height="12px" preserveAspectRatio="xMinYMin meet" x="54" y="-463"/>
<text text-anchor="start" x="69" y="-454.2" font-family="Helvetica,sans-Serif" font-size="11.00">fk_provider</text>
<polygon fill="none" stroke="black" points="49,-424 49,-446 249,-446 249,-424 49,-424"/>
<image xlink:href="../../images/foreignKeys.png" width="11px" height="12px" preserveAspectRatio="xMinYMin meet" x="54" y="-441"/>
<text text-anchor="start" x="69" y="-432.2" font-family="Helvetica,sans-Serif" font-size="11.00">fk_owner</text>
<polygon fill="none" stroke="black" points="49,-406 49,-424 249,-424 249,-406 49,-406"/>
<text text-anchor="start" x="52" y="-412.2" font-family="Helvetica,sans-Serif" font-size="11.00">...</text>
<polygon fill="#ffffff" stroke="transparent" points="49,-388 49,-406 249,-406 249,-388 49,-388"/>
<polygon fill="none" stroke="black" points="49,-388 49,-406 249,-406 249,-388 49,-388"/>
<polygon fill="#ffffff" stroke="transparent" points="50,-389 50,-405 120,-405 120,-389 50,-389"/>
<text text-anchor="start" x="52" y="-394.2" font-family="Helvetica,sans-Serif" font-size="11.00">&lt; 5</text>
<polygon fill="#ffffff" stroke="transparent" points="120,-389 120,-405 178,-405 178,-389 120,-389"/>
<text text-anchor="start" x="145" y="-394.2" font-family="Helvetica,sans-Serif" font-size="11.00"> &#160;</text>
<polygon fill="#ffffff" stroke="transparent" points="178,-389 178,-405 248,-405 248,-389 178,-389"/>
<text text-anchor="start" x="226" y="-394.2" font-family="Helvetica,sans-Serif" font-size="11.00">2 &gt;</text>
<polygon fill="black" stroke="black" points="120,-389 120,-405 120,-405 120,-389 120,-389"/>
<polygon fill="black" stroke="black" points="178,-389 178,-405 178,-405 178,-389 178,-389"/>
</a>
</g>
</g>
<!-- pipe_point_feed&#45;&gt;pipe_point -->
<g id="edge3" class="edge">
<title>pipe_point_feed:w&#45;&gt;pipe_point:e</title>
<path fill="none" stroke="black" d="M329.39,-376.94C253.85,-391.35 339.99,-567 250,-567"/>
<polygon fill="black" stroke="black" points="338.85,-372.09 339.56,-380.05 337.96,-380.2 337.26,-372.23 338.85,-372.09"/>
<polyline fill="none" stroke="black" points="340,-376 336.02,-376.35 "/>
<ellipse fill="none" stroke="black" cx="332.83" cy="-376.63" rx="3.2" ry="3.2"/>
</g>
</g>
</svg>
