<?xml version="1.0" encoding="UTF-8" standalone="no"?>
<!DOCTYPE svg PUBLIC "-//W3C//DTD SVG 1.1//EN"
 "http://www.w3.org/Graphics/SVG/1.1/DTD/svg11.dtd">
<!-- Generated by graphviz version 2.43.0 (0)
 -->
<!-- Title: oneDegreeRelationshipsDiagram Pages: 1 -->
<svg width="848pt" height="661pt"
 viewBox="0.00 0.00 848.00 661.00" xmlns="http://www.w3.org/2000/svg" xmlns:xlink="http://www.w3.org/1999/xlink">
<g id="graph0" class="graph" transform="scale(1 1) rotate(0) translate(4 657)">
<title>oneDegreeRelationshipsDiagram</title>
<polygon fill="#ffffff" stroke="transparent" points="-4,4 -4,-657 844,-657 844,4 -4,4"/>
<text text-anchor="middle" x="79.5" y="-7.2" font-family="Helvetica,sans-Serif" font-size="11.00">Generated by SchemaSpy</text>
<!-- sia405cc_cable_point -->
<g id="node1" class="node">
<title>sia405cc_cable_point</title>
<g id="a_node1"><a xlink:href="../../tables/sia405cc_cable_point.html" xlink:title="sia405cc_cable_point" target="_top">
<polygon fill="#ffffff" stroke="transparent" points="492,-141 492,-647 832,-647 832,-141 492,-141"/>
<polygon fill="#f5f5f5" stroke="transparent" points="494,-623 494,-645 830,-645 830,-623 494,-623"/>
<polygon fill="none" stroke="black" points="494,-623 494,-645 830,-645 830,-623 494,-623"/>
<text text-anchor="start" x="499" y="-632.2" font-family="Helvetica,sans-Serif" font-weight="bold" font-size="11.00">sia405cc_cable_point</text>
<text text-anchor="start" x="788" y="-631.2" font-family="Helvetica,sans-Serif" font-size="11.00">[table]</text>
<polygon fill="none" stroke="black" points="494,-601 494,-623 694,-623 694,-601 494,-601"/>
<image xlink:href="../../images/primaryKeys.png" width="11px" height="12px" preserveAspectRatio="xMinYMin meet" x="499" y="-618"/>
<text text-anchor="start" x="514" y="-609.2" font-family="Helvetica,sans-Serif" font-size="11.00">obj_id</text>
<polygon fill="none" stroke="black" points="694,-601 694,-623 830,-623 830,-601 694,-601"/>
<text text-anchor="start" x="697" y="-609.2" font-family="Helvetica,sans-Serif" font-size="11.00">varchar[16]</text>
<polygon fill="#ffffff" stroke="transparent" points="494,-579 494,-601 694,-601 694,-579 494,-579"/>
<polygon fill="none" stroke="black" points="494,-579 494,-601 694,-601 694,-579 494,-579"/>
<text text-anchor="start" x="514" y="-587.2" font-family="Helvetica,sans-Serif" font-size="11.00">name_number</text>
<polygon fill="none" stroke="black" points="694,-579 694,-601 830,-601 830,-579 694,-579"/>
<text text-anchor="start" x="697" y="-587.2" font-family="Helvetica,sans-Serif" font-size="11.00">text[2147483647]</text>
<polygon fill="#ffffff" stroke="transparent" points="494,-557 494,-579 694,-579 694,-557 494,-557"/>
<polygon fill="none" stroke="black" points="494,-557 494,-579 694,-579 694,-557 494,-557"/>
<text text-anchor="start" x="514" y="-565.2" font-family="Helvetica,sans-Serif" font-size="11.00">geometry3d_geometry</text>
<polygon fill="none" stroke="black" points="694,-557 694,-579 830,-579 830,-557 694,-557"/>
<text text-anchor="start" x="697" y="-565.2" font-family="Helvetica,sans-Serif" font-size="11.00">geometry[2147483647]</text>
<polygon fill="none" stroke="black" points="494,-535 494,-557 694,-557 694,-535 494,-535"/>
<image xlink:href="../../images/foreignKeys.png" width="11px" height="12px" preserveAspectRatio="xMinYMin meet" x="499" y="-552"/>
<text text-anchor="start" x="514" y="-543.2" font-family="Helvetica,sans-Serif" font-size="11.00">kind</text>
<polygon fill="none" stroke="black" points="694,-535 694,-557 830,-557 830,-535 694,-535"/>
<text text-anchor="start" x="697" y="-543.2" font-family="Helvetica,sans-Serif" font-size="11.00">int4[10]</text>
<polygon fill="none" stroke="black" points="494,-513 494,-535 694,-535 694,-513 494,-513"/>
<image xlink:href="../../images/foreignKeys.png" width="11px" height="12px" preserveAspectRatio="xMinYMin meet" x="499" y="-530"/>
<text text-anchor="start" x="514" y="-521.2" font-family="Helvetica,sans-Serif" font-size="11.00">horizontal_positioning</text>
<polygon fill="none" stroke="black" points="694,-513 694,-535 830,-535 830,-513 694,-513"/>
<text text-anchor="start" x="697" y="-521.2" font-family="Helvetica,sans-Serif" font-size="11.00">int4[10]</text>
<polygon fill="none" stroke="black" points="494,-491 494,-513 694,-513 694,-491 494,-491"/>
<text text-anchor="start" x="514" y="-499.2" font-family="Helvetica,sans-Serif" font-size="11.00">altitude</text>
<polygon fill="none" stroke="black" points="694,-491 694,-513 830,-513 830,-491 694,-491"/>
<text text-anchor="start" x="697" y="-499.2" font-family="Helvetica,sans-Serif" font-size="11.00">numeric[7,3]</text>
<polygon fill="none" stroke="black" points="494,-469 494,-491 694,-491 694,-469 494,-469"/>
<image xlink:href="../../images/foreignKeys.png" width="11px" height="12px" preserveAspectRatio="xMinYMin meet" x="499" y="-486"/>
<text text-anchor="start" x="514" y="-477.2" font-family="Helvetica,sans-Serif" font-size="11.00">elevation_determination</text>
<polygon fill="none" stroke="black" points="694,-469 694,-491 830,-491 830,-469 694,-469"/>
<text text-anchor="start" x="697" y="-477.2" font-family="Helvetica,sans-Serif" font-size="11.00">int4[10]</text>
<polygon fill="none" stroke="black" points="494,-447 494,-469 694,-469 694,-447 494,-447"/>
<image xlink:href="../../images/foreignKeys.png" width="11px" height="12px" preserveAspectRatio="xMinYMin meet" x="499" y="-464"/>
<text text-anchor="start" x="514" y="-455.2" font-family="Helvetica,sans-Serif" font-size="11.00">status</text>
<polygon fill="none" stroke="black" points="694,-447 694,-469 830,-469 830,-447 694,-447"/>
<text text-anchor="start" x="697" y="-455.2" font-family="Helvetica,sans-Serif" font-size="11.00">int4[10]</text>
<polygon fill="none" stroke="black" points="494,-425 494,-447 694,-447 694,-425 494,-425"/>
<text text-anchor="start" x="514" y="-433.2" font-family="Helvetica,sans-Serif" font-size="11.00">installation_year</text>
<polygon fill="none" stroke="black" points="694,-425 694,-447 830,-447 830,-425 694,-425"/>
<text text-anchor="start" x="697" y="-433.2" font-family="Helvetica,sans-Serif" font-size="11.00">int2[5]</text>
<polygon fill="none" stroke="black" points="494,-403 494,-425 694,-425 694,-403 494,-403"/>
<text text-anchor="start" x="514" y="-411.2" font-family="Helvetica,sans-Serif" font-size="11.00">sur_plus_cover</text>
<polygon fill="none" stroke="black" points="694,-403 694,-425 830,-425 830,-403 694,-403"/>
<text text-anchor="start" x="697" y="-411.2" font-family="Helvetica,sans-Serif" font-size="11.00">numeric[4,1]</text>
<polygon fill="none" stroke="black" points="494,-381 494,-403 694,-403 694,-381 494,-381"/>
<text text-anchor="start" x="514" y="-389.2" font-family="Helvetica,sans-Serif" font-size="11.00">condition</text>
<polygon fill="none" stroke="black" points="694,-381 694,-403 830,-403 830,-381 694,-381"/>
<text text-anchor="start" x="697" y="-389.2" font-family="Helvetica,sans-Serif" font-size="11.00">text[2147483647]</text>
<polygon fill="none" stroke="black" points="494,-359 494,-381 694,-381 694,-359 494,-359"/>
<text text-anchor="start" x="514" y="-367.2" font-family="Helvetica,sans-Serif" font-size="11.00">remark</text>
<polygon fill="none" stroke="black" points="694,-359 694,-381 830,-381 830,-359 694,-359"/>
<text text-anchor="start" x="697" y="-367.2" font-family="Helvetica,sans-Serif" font-size="11.00">text[2147483647]</text>
<polygon fill="none" stroke="black" points="494,-337 494,-359 694,-359 694,-337 494,-337"/>
<text text-anchor="start" x="514" y="-345.2" font-family="Helvetica,sans-Serif" font-size="11.00">dimension1</text>
<polygon fill="none" stroke="black" points="694,-337 694,-359 830,-359 830,-337 694,-337"/>
<text text-anchor="start" x="697" y="-345.2" font-family="Helvetica,sans-Serif" font-size="11.00">int2[5]</text>
<polygon fill="none" stroke="black" points="494,-315 494,-337 694,-337 694,-315 494,-315"/>
<text text-anchor="start" x="514" y="-323.2" font-family="Helvetica,sans-Serif" font-size="11.00">dimension2</text>
<polygon fill="none" stroke="black" points="694,-315 694,-337 830,-337 830,-315 694,-315"/>
<text text-anchor="start" x="697" y="-323.2" font-family="Helvetica,sans-Serif" font-size="11.00">int2[5]</text>
<polygon fill="none" stroke="black" points="494,-293 494,-315 694,-315 694,-293 494,-293"/>
<text text-anchor="start" x="514" y="-301.2" font-family="Helvetica,sans-Serif" font-size="11.00">altitude_lower_edge</text>
<polygon fill="none" stroke="black" points="694,-293 694,-315 830,-315 830,-293 694,-293"/>
<text text-anchor="start" x="697" y="-301.2" font-family="Helvetica,sans-Serif" font-size="11.00">numeric[7,3]</text>
<polygon fill="none" stroke="black" points="494,-271 494,-293 694,-293 694,-271 494,-271"/>
<text text-anchor="start" x="514" y="-279.2" font-family="Helvetica,sans-Serif" font-size="11.00">symbolori</text>
<polygon fill="none" stroke="black" points="694,-271 694,-293 830,-293 830,-271 694,-271"/>
<text text-anchor="start" x="697" y="-279.2" font-family="Helvetica,sans-Serif" font-size="11.00">numeric[4,1]</text>
<polygon fill="none" stroke="black" points="494,-249 494,-271 694,-271 694,-249 494,-249"/>
<text text-anchor="start" x="514" y="-257.2" font-family="Helvetica,sans-Serif" font-size="11.00">depth</text>
<polygon fill="none" stroke="black" points="694,-249 694,-271 830,-271 830,-249 694,-249"/>
<text text-anchor="start" x="697" y="-257.2" font-family="Helvetica,sans-Serif" font-size="11.00">int2[5]</text>
<polygon fill="none" stroke="black" points="494,-227 494,-249 694,-249 694,-227 494,-227"/>
<text text-anchor="start" x="514" y="-235.2" font-family="Helvetica,sans-Serif" font-size="11.00">last_modification</text>
<polygon fill="none" stroke="black" points="694,-227 694,-249 830,-249 830,-227 694,-227"/>
<text text-anchor="start" x="697" y="-235.2" font-family="Helvetica,sans-Serif" font-size="11.00">timestamp[29,6]</text>
<polygon fill="#ffffff" stroke="transparent" points="494,-205 494,-227 694,-227 694,-205 494,-205"/>
<polygon fill="none" stroke="black" points="494,-205 494,-227 694,-227 694,-205 494,-205"/>
<image xlink:href="../../images/foreignKeys.png" width="11px" height="12px" preserveAspectRatio="xMinYMin meet" x="499" y="-222"/>
<text text-anchor="start" x="514" y="-213.2" font-family="Helvetica,sans-Serif" font-size="11.00">fk_dataowner</text>
<polygon fill="none" stroke="black" points="694,-205 694,-227 830,-227 830,-205 694,-205"/>
<text text-anchor="start" x="697" y="-213.2" font-family="Helvetica,sans-Serif" font-size="11.00">varchar[16]</text>
<polygon fill="none" stroke="black" points="494,-183 494,-205 694,-205 694,-183 494,-183"/>
<image xlink:href="../../images/foreignKeys.png" width="11px" height="12px" preserveAspectRatio="xMinYMin meet" x="499" y="-200"/>
<text text-anchor="start" x="514" y="-191.2" font-family="Helvetica,sans-Serif" font-size="11.00">fk_provider</text>
<polygon fill="none" stroke="black" points="694,-183 694,-205 830,-205 830,-183 694,-183"/>
<text text-anchor="start" x="697" y="-191.2" font-family="Helvetica,sans-Serif" font-size="11.00">varchar[16]</text>
<polygon fill="none" stroke="black" points="494,-161 494,-183 694,-183 694,-161 494,-161"/>
<image xlink:href="../../images/foreignKeys.png" width="11px" height="12px" preserveAspectRatio="xMinYMin meet" x="499" y="-178"/>
<text text-anchor="start" x="514" y="-169.2" font-family="Helvetica,sans-Serif" font-size="11.00">fk_owner</text>
<polygon fill="none" stroke="black" points="694,-161 694,-183 830,-183 830,-161 694,-161"/>
<text text-anchor="start" x="697" y="-169.2" font-family="Helvetica,sans-Serif" font-size="11.00">varchar[16]</text>
<polygon fill="#ffffff" stroke="transparent" points="494,-143 494,-161 830,-161 830,-143 494,-143"/>
<polygon fill="none" stroke="black" points="494,-143 494,-161 830,-161 830,-143 494,-143"/>
<polygon fill="#ffffff" stroke="transparent" points="495,-144 495,-160 611,-160 611,-144 495,-144"/>
<text text-anchor="start" x="497" y="-149.2" font-family="Helvetica,sans-Serif" font-size="11.00">&lt; 7</text>
<polygon fill="#ffffff" stroke="transparent" points="611,-144 611,-160 714,-160 714,-144 611,-144"/>
<text text-anchor="start" x="658.5" y="-149.2" font-family="Helvetica,sans-Serif" font-size="11.00"> &#160;</text>
<polygon fill="#ffffff" stroke="transparent" points="714,-144 714,-160 829,-160 829,-144 714,-144"/>
<text text-anchor="start" x="807" y="-149.2" font-family="Helvetica,sans-Serif" font-size="11.00">0 &gt;</text>
<polygon fill="black" stroke="black" points="611,-144 611,-160 611,-160 611,-144 611,-144"/>
<polygon fill="black" stroke="black" points="714,-144 714,-160 714,-160 714,-144 714,-144"/>
<polygon fill="none" stroke="black" stroke-width="2" points="493,-142 493,-646 831,-646 831,-142 493,-142"/>
</a>
</g>
</g>
<!-- tdh_vl.sia405cc_cable_point_elevation_determination -->
<g id="node2" class="node">
<title>tdh_vl.sia405cc_cable_point_elevation_determination</title>
<g id="a_node2"><a xlink:href="../../../tdh_vl/tables/sia405cc_cable_point_elevation__6472a8ff.html" xlink:title="tdh_vl.sia405cc_cable_point_elevation_determination" target="_top">
<polygon fill="#ffffff" stroke="transparent" points="8,-433 8,-491 443,-491 443,-433 8,-433"/>
<polygon fill="#f5f5f5" stroke="transparent" points="8.5,-469 8.5,-491 443.5,-491 443.5,-469 8.5,-469"/>
<polygon fill="none" stroke="black" points="8.5,-469 8.5,-491 443.5,-491 443.5,-469 8.5,-469"/>
<text text-anchor="start" x="13.5" y="-478.2" font-family="Helvetica,sans-Serif" font-weight="bold" font-size="11.00">tdh_vl.sia405cc_cable_point_elevation_determination</text>
<text text-anchor="start" x="401.5" y="-477.2" font-family="Helvetica,sans-Serif" font-size="11.00">[table]</text>
<polygon fill="none" stroke="black" points="8.5,-451 8.5,-469 443.5,-469 443.5,-451 8.5,-451"/>
<text text-anchor="start" x="11.5" y="-457.2" font-family="Helvetica,sans-Serif" font-size="11.00">...</text>
<polygon fill="#ffffff" stroke="transparent" points="8.5,-433 8.5,-451 443.5,-451 443.5,-433 8.5,-433"/>
<polygon fill="none" stroke="black" points="8.5,-433 8.5,-451 443.5,-451 443.5,-433 8.5,-433"/>
<polygon fill="#ffffff" stroke="transparent" points="9.5,-434 9.5,-450 140.5,-450 140.5,-434 9.5,-434"/>
<text text-anchor="start" x="11.5" y="-439.2" font-family="Helvetica,sans-Serif" font-size="11.00"> &#160;</text>
<polygon fill="#ffffff" stroke="transparent" points="140.5,-434 140.5,-450 300.5,-450 300.5,-434 140.5,-434"/>
<text text-anchor="start" x="202" y="-439.2" font-family="Helvetica,sans-Serif" font-size="11.00">0 rows</text>
<polygon fill="#ffffff" stroke="transparent" points="300.5,-434 300.5,-450 442.5,-450 442.5,-434 300.5,-434"/>
<text text-anchor="start" x="420.5" y="-439.2" font-family="Helvetica,sans-Serif" font-size="11.00">1 &gt;</text>
<polygon fill="black" stroke="black" points="140.5,-434 140.5,-450 140.5,-450 140.5,-434 140.5,-434"/>
<polygon fill="black" stroke="black" points="300.5,-434 300.5,-450 300.5,-450 300.5,-434 300.5,-434"/>
</a>
</g>
</g>
<!-- sia405cc_cable_point&#45;&gt;tdh_vl.sia405cc_cable_point_elevation_determination -->
<g id="edge1" class="edge">
<title>sia405cc_cable_point:w&#45;&gt;tdh_vl.sia405cc_cable_point_elevation_determination:e</title>
<path fill="none" stroke="black" d="M478.44,-479.91C469.42,-479.81 460.27,-479.61 451.07,-479.34"/>
<polygon fill="black" stroke="black" points="485,-479.95 492.98,-483.6 489,-479.98 493,-480 493,-480 493,-480 489,-479.98 493.02,-476.4 485,-479.95 485,-479.95"/>
<ellipse fill="none" stroke="black" cx="481.8" cy="-479.93" rx="3.2" ry="3.2"/>
</g>
<!-- organisation -->
<g id="node3" class="node">
<title>organisation</title>
<g id="a_node3"><a xlink:href="../../tables/organisation.html" xlink:title="organisation" target="_top">
<polygon fill="#ffffff" stroke="transparent" points="138.5,-37 138.5,-227 312.5,-227 312.5,-37 138.5,-37"/>
<polygon fill="#f5f5f5" stroke="transparent" points="138.5,-205 138.5,-227 312.5,-227 312.5,-205 138.5,-205"/>
<polygon fill="none" stroke="black" points="138.5,-205 138.5,-227 312.5,-227 312.5,-205 138.5,-205"/>
<text text-anchor="start" x="143.5" y="-214.2" font-family="Helvetica,sans-Serif" font-weight="bold" font-size="11.00">organisation</text>
<text text-anchor="start" x="270.5" y="-213.2" font-family="Helvetica,sans-Serif" font-size="11.00">[table]</text>
<polygon fill="none" stroke="black" points="138.5,-183 138.5,-205 312.5,-205 312.5,-183 138.5,-183"/>
<image xlink:href="../../images/primaryKeys.png" width="11px" height="12px" preserveAspectRatio="xMinYMin meet" x="143.5" y="-200"/>
<text text-anchor="start" x="158.5" y="-191.2" font-family="Helvetica,sans-Serif" font-size="11.00">obj_id</text>
<polygon fill="#ffffff" stroke="transparent" points="138.5,-161 138.5,-183 312.5,-183 312.5,-161 138.5,-161"/>
<polygon fill="none" stroke="black" points="138.5,-161 138.5,-183 312.5,-183 312.5,-161 138.5,-161"/>
<text text-anchor="start" x="158.5" y="-169.2" font-family="Helvetica,sans-Serif" font-size="11.00">identifier</text>
<polygon fill="none" stroke="black" points="138.5,-139 138.5,-161 312.5,-161 312.5,-139 138.5,-139"/>
<image xlink:href="../../images/foreignKeys.png" width="11px" height="12px" preserveAspectRatio="xMinYMin meet" x="143.5" y="-156"/>
<text text-anchor="start" x="158.5" y="-147.2" font-family="Helvetica,sans-Serif" font-size="11.00">organisation_type</text>
<polygon fill="none" stroke="black" points="138.5,-117 138.5,-139 312.5,-139 312.5,-117 138.5,-117"/>
<image xlink:href="../../images/foreignKeys.png" width="11px" height="12px" preserveAspectRatio="xMinYMin meet" x="143.5" y="-134"/>
<text text-anchor="start" x="158.5" y="-125.2" font-family="Helvetica,sans-Serif" font-size="11.00">status</text>
<polygon fill="#ffffff" stroke="transparent" points="138.5,-95 138.5,-117 312.5,-117 312.5,-95 138.5,-95"/>
<polygon fill="none" stroke="black" points="138.5,-95 138.5,-117 312.5,-117 312.5,-95 138.5,-95"/>
<image xlink:href="../../images/foreignKeys.png" width="11px" height="12px" preserveAspectRatio="xMinYMin meet" x="143.5" y="-112"/>
<text text-anchor="start" x="158.5" y="-103.2" font-family="Helvetica,sans-Serif" font-size="11.00">fk_dataowner</text>
<polygon fill="none" stroke="black" points="138.5,-73 138.5,-95 312.5,-95 312.5,-73 138.5,-73"/>
<image xlink:href="../../images/foreignKeys.png" width="11px" height="12px" preserveAspectRatio="xMinYMin meet" x="143.5" y="-90"/>
<text text-anchor="start" x="158.5" y="-81.2" font-family="Helvetica,sans-Serif" font-size="11.00">fk_provider</text>
<polygon fill="none" stroke="black" points="138.5,-55 138.5,-73 312.5,-73 312.5,-55 138.5,-55"/>
<text text-anchor="start" x="141.5" y="-61.2" font-family="Helvetica,sans-Serif" font-size="11.00">...</text>
<polygon fill="#ffffff" stroke="transparent" points="138.5,-37 138.5,-55 312.5,-55 312.5,-37 138.5,-37"/>
<polygon fill="none" stroke="black" points="138.5,-37 138.5,-55 312.5,-55 312.5,-37 138.5,-37"/>
<polygon fill="#ffffff" stroke="transparent" points="139.5,-38 139.5,-54 198.5,-54 198.5,-38 139.5,-38"/>
<text text-anchor="start" x="141.5" y="-43.2" font-family="Helvetica,sans-Serif" font-size="11.00">&lt; 4</text>
<polygon fill="#ffffff" stroke="transparent" points="198.5,-38 198.5,-54 245.5,-54 245.5,-38 198.5,-38"/>
<text text-anchor="start" x="218" y="-43.2" font-family="Helvetica,sans-Serif" font-size="11.00"> &#160;</text>
<polygon fill="#ffffff" stroke="transparent" points="245.5,-38 245.5,-54 311.5,-54 311.5,-38 245.5,-38"/>
<text text-anchor="start" x="282.5" y="-43.2" font-family="Helvetica,sans-Serif" font-size="11.00">33 &gt;</text>
<polygon fill="black" stroke="black" points="198.5,-38 198.5,-54 198.5,-54 198.5,-38 198.5,-38"/>
<polygon fill="black" stroke="black" points="245.5,-38 245.5,-54 245.5,-54 245.5,-38 245.5,-38"/>
</a>
</g>
</g>
<!-- sia405cc_cable_point&#45;&gt;organisation -->
<g id="edge2" class="edge">
<title>sia405cc_cable_point:w&#45;&gt;organisation:e</title>
<path fill="none" stroke="black" d="M478.19,-215.74C409.95,-213.26 388.69,-194 313.5,-194"/>
<polygon fill="black" stroke="black" points="485,-215.86 492.94,-219.6 489,-215.93 493,-216 493,-216 493,-216 489,-215.93 493.06,-212.4 485,-215.86 485,-215.86"/>
<ellipse fill="none" stroke="black" cx="481.8" cy="-215.8" rx="3.2" ry="3.2"/>
</g>
<!-- sia405cc_cable_point&#45;&gt;organisation -->
<g id="edge3" class="edge">
<title>sia405cc_cable_point:w&#45;&gt;organisation:e</title>
<path fill="none" stroke="black" d="M478.19,-172.26C409.95,-174.74 388.69,-194 313.5,-194"/>
<polygon fill="black" stroke="black" points="485,-172.14 493.06,-175.6 489,-172.07 493,-172 493,-172 493,-172 489,-172.07 492.94,-168.4 485,-172.14 485,-172.14"/>
<ellipse fill="none" stroke="black" cx="481.8" cy="-172.2" rx="3.2" ry="3.2"/>
</g>
<!-- sia405cc_cable_point&#45;&gt;organisation -->
<g id="edge4" class="edge">
<title>sia405cc_cable_point:w&#45;&gt;organisation:e</title>
<path fill="none" stroke="black" d="M478.29,-194C410.4,-194 388.14,-194 313.5,-194"/>
<polygon fill="black" stroke="black" points="485,-194 493,-197.6 489,-194 493,-194 493,-194 493,-194 489,-194 493,-190.4 485,-194 485,-194"/>
<ellipse fill="none" stroke="black" cx="481.8" cy="-194" rx="3.2" ry="3.2"/>
</g>
<!-- tdh_vl.sia405cc_cable_point_horizontal_positioning -->
<g id="node4" class="node">
<title>tdh_vl.sia405cc_cable_point_horizontal_positioning</title>
<g id="a_node4"><a xlink:href="../../../tdh_vl/tables/sia405cc_cable_point_horizontal_dbbdef40.html" xlink:title="tdh_vl.sia405cc_cable_point_horizontal_positioning" target="_top">
<polygon fill="#ffffff" stroke="transparent" points="16,-512 16,-570 435,-570 435,-512 16,-512"/>
<polygon fill="#f5f5f5" stroke="transparent" points="16.5,-548 16.5,-570 435.5,-570 435.5,-548 16.5,-548"/>
<polygon fill="none" stroke="black" points="16.5,-548 16.5,-570 435.5,-570 435.5,-548 16.5,-548"/>
<text text-anchor="start" x="21.5" y="-557.2" font-family="Helvetica,sans-Serif" font-weight="bold" font-size="11.00">tdh_vl.sia405cc_cable_point_horizontal_positioning</text>
<text text-anchor="start" x="393.5" y="-556.2" font-family="Helvetica,sans-Serif" font-size="11.00">[table]</text>
<polygon fill="none" stroke="black" points="16.5,-530 16.5,-548 435.5,-548 435.5,-530 16.5,-530"/>
<text text-anchor="start" x="19.5" y="-536.2" font-family="Helvetica,sans-Serif" font-size="11.00">...</text>
<polygon fill="#ffffff" stroke="transparent" points="16.5,-512 16.5,-530 435.5,-530 435.5,-512 16.5,-512"/>
<polygon fill="none" stroke="black" points="16.5,-512 16.5,-530 435.5,-530 435.5,-512 16.5,-512"/>
<polygon fill="#ffffff" stroke="transparent" points="17.5,-513 17.5,-529 143.5,-529 143.5,-513 17.5,-513"/>
<text text-anchor="start" x="19.5" y="-518.2" font-family="Helvetica,sans-Serif" font-size="11.00"> &#160;</text>
<polygon fill="#ffffff" stroke="transparent" points="143.5,-513 143.5,-529 297.5,-529 297.5,-513 143.5,-513"/>
<text text-anchor="start" x="202" y="-518.2" font-family="Helvetica,sans-Serif" font-size="11.00">0 rows</text>
<polygon fill="#ffffff" stroke="transparent" points="297.5,-513 297.5,-529 434.5,-529 434.5,-513 297.5,-513"/>
<text text-anchor="start" x="412.5" y="-518.2" font-family="Helvetica,sans-Serif" font-size="11.00">1 &gt;</text>
<polygon fill="black" stroke="black" points="143.5,-513 143.5,-529 143.5,-529 143.5,-513 143.5,-513"/>
<polygon fill="black" stroke="black" points="297.5,-513 297.5,-529 297.5,-529 297.5,-513 297.5,-513"/>
</a>
</g>
</g>
<!-- sia405cc_cable_point&#45;&gt;tdh_vl.sia405cc_cable_point_horizontal_positioning -->
<g id="edge5" class="edge">
<title>sia405cc_cable_point:w&#45;&gt;tdh_vl.sia405cc_cable_point_horizontal_positioning:e</title>
<path fill="none" stroke="black" d="M478.42,-524.08C466.81,-524.21 455,-524.48 443.14,-524.87"/>
<polygon fill="black" stroke="black" points="485,-524.04 493.02,-527.6 489,-524.02 493,-524 493,-524 493,-524 489,-524.02 492.98,-520.4 485,-524.04 485,-524.04"/>
<ellipse fill="none" stroke="black" cx="481.8" cy="-524.06" rx="3.2" ry="3.2"/>
</g>
<!-- tdh_vl.sia405cc_cable_point_kind -->
<g id="node5" class="node">
<title>tdh_vl.sia405cc_cable_point_kind</title>
<g id="a_node5"><a xlink:href="../../../tdh_vl/tables/sia405cc_cable_point_kind.html" xlink:title="tdh_vl.sia405cc_cable_point_kind" target="_top">
<polygon fill="#ffffff" stroke="transparent" points="81.5,-591 81.5,-649 369.5,-649 369.5,-591 81.5,-591"/>
<polygon fill="#f5f5f5" stroke="transparent" points="81.5,-627 81.5,-649 369.5,-649 369.5,-627 81.5,-627"/>
<polygon fill="none" stroke="black" points="81.5,-627 81.5,-649 369.5,-649 369.5,-627 81.5,-627"/>
<text text-anchor="start" x="86.5" y="-636.2" font-family="Helvetica,sans-Serif" font-weight="bold" font-size="11.00">tdh_vl.sia405cc_cable_point_kind</text>
<text text-anchor="start" x="327.5" y="-635.2" font-family="Helvetica,sans-Serif" font-size="11.00">[table]</text>
<polygon fill="none" stroke="black" points="81.5,-609 81.5,-627 369.5,-627 369.5,-609 81.5,-609"/>
<text text-anchor="start" x="84.5" y="-615.2" font-family="Helvetica,sans-Serif" font-size="11.00">...</text>
<polygon fill="#ffffff" stroke="transparent" points="81.5,-591 81.5,-609 369.5,-609 369.5,-591 81.5,-591"/>
<polygon fill="none" stroke="black" points="81.5,-591 81.5,-609 369.5,-609 369.5,-591 81.5,-591"/>
<polygon fill="#ffffff" stroke="transparent" points="82.5,-592 82.5,-608 164.5,-608 164.5,-592 82.5,-592"/>
<text text-anchor="start" x="84.5" y="-597.2" font-family="Helvetica,sans-Serif" font-size="11.00"> &#160;</text>
<polygon fill="#ffffff" stroke="transparent" points="164.5,-592 164.5,-608 275.5,-608 275.5,-592 164.5,-592"/>
<text text-anchor="start" x="201.5" y="-597.2" font-family="Helvetica,sans-Serif" font-size="11.00">0 rows</text>
<polygon fill="#ffffff" stroke="transparent" points="275.5,-592 275.5,-608 368.5,-608 368.5,-592 275.5,-592"/>
<text text-anchor="start" x="346.5" y="-597.2" font-family="Helvetica,sans-Serif" font-size="11.00">1 &gt;</text>
<polygon fill="black" stroke="black" points="164.5,-592 164.5,-608 164.5,-608 164.5,-592 164.5,-592"/>
<polygon fill="black" stroke="black" points="275.5,-592 275.5,-608 275.5,-608 275.5,-592 275.5,-592"/>
</a>
</g>
</g>
<!-- sia405cc_cable_point&#45;&gt;tdh_vl.sia405cc_cable_point_kind -->
<g id="edge6" class="edge">
<title>sia405cc_cable_point:w&#45;&gt;tdh_vl.sia405cc_cable_point_kind:e</title>
<path fill="none" stroke="black" d="M478.98,-550.27C469.19,-557.82 467.37,-573.43 451,-581 428.2,-591.55 402.9,-599.26 377.74,-604.9"/>
<polygon fill="black" stroke="black" points="485.35,-548.33 494.05,-549.44 489.17,-547.16 493,-546 493,-546 493,-546 489.17,-547.16 491.95,-542.56 485.35,-548.33 485.35,-548.33"/>
<ellipse fill="none" stroke="black" cx="482.29" cy="-549.26" rx="3.2" ry="3.2"/>
</g>
<!-- tdh_vl.sia405cc_cable_point_status -->
<g id="node6" class="node">
<title>tdh_vl.sia405cc_cable_point_status</title>
<g id="a_node6"><a xlink:href="../../../tdh_vl/tables/sia405cc_cable_point_status.html" xlink:title="tdh_vl.sia405cc_cable_point_status" target="_top">
<polygon fill="#ffffff" stroke="transparent" points="74.5,-354 74.5,-412 376.5,-412 376.5,-354 74.5,-354"/>
<polygon fill="#f5f5f5" stroke="transparent" points="74.5,-390 74.5,-412 376.5,-412 376.5,-390 74.5,-390"/>
<polygon fill="none" stroke="black" points="74.5,-390 74.5,-412 376.5,-412 376.5,-390 74.5,-390"/>
<text text-anchor="start" x="79.5" y="-399.2" font-family="Helvetica,sans-Serif" font-weight="bold" font-size="11.00">tdh_vl.sia405cc_cable_point_status</text>
<text text-anchor="start" x="334.5" y="-398.2" font-family="Helvetica,sans-Serif" font-size="11.00">[table]</text>
<polygon fill="none" stroke="black" points="74.5,-372 74.5,-390 376.5,-390 376.5,-372 74.5,-372"/>
<text text-anchor="start" x="77.5" y="-378.2" font-family="Helvetica,sans-Serif" font-size="11.00">...</text>
<polygon fill="#ffffff" stroke="transparent" points="74.5,-354 74.5,-372 376.5,-372 376.5,-354 74.5,-354"/>
<polygon fill="none" stroke="black" points="74.5,-354 74.5,-372 376.5,-372 376.5,-354 74.5,-354"/>
<polygon fill="#ffffff" stroke="transparent" points="75.5,-355 75.5,-371 162.5,-371 162.5,-355 75.5,-355"/>
<text text-anchor="start" x="77.5" y="-360.2" font-family="Helvetica,sans-Serif" font-size="11.00"> &#160;</text>
<polygon fill="#ffffff" stroke="transparent" points="162.5,-355 162.5,-371 277.5,-371 277.5,-355 162.5,-355"/>
<text text-anchor="start" x="201.5" y="-360.2" font-family="Helvetica,sans-Serif" font-size="11.00">0 rows</text>
<polygon fill="#ffffff" stroke="transparent" points="277.5,-355 277.5,-371 375.5,-371 375.5,-355 277.5,-355"/>
<text text-anchor="start" x="353.5" y="-360.2" font-family="Helvetica,sans-Serif" font-size="11.00">1 &gt;</text>
<polygon fill="black" stroke="black" points="162.5,-355 162.5,-371 162.5,-371 162.5,-355 162.5,-355"/>
<polygon fill="black" stroke="black" points="277.5,-355 277.5,-371 277.5,-371 277.5,-355 277.5,-355"/>
</a>
</g>
</g>
<!-- sia405cc_cable_point&#45;&gt;tdh_vl.sia405cc_cable_point_status -->
<g id="edge7" class="edge">
<title>sia405cc_cable_point:w&#45;&gt;tdh_vl.sia405cc_cable_point_status:e</title>
<path fill="none" stroke="black" d="M478.97,-453.74C469.18,-446.2 467.35,-430.61 451,-423 430.27,-413.35 407.47,-406.02 384.59,-400.46"/>
<polygon fill="black" stroke="black" points="485.35,-455.67 491.95,-461.44 489.17,-456.84 493,-458 493,-458 493,-458 489.17,-456.84 494.05,-454.56 485.35,-455.67 485.35,-455.67"/>
<ellipse fill="none" stroke="black" cx="482.28" cy="-454.74" rx="3.2" ry="3.2"/>
</g>
</g>
</svg>
