<?xml version="1.0" encoding="UTF-8" standalone="no"?>
<!DOCTYPE svg PUBLIC "-//W3C//DTD SVG 1.1//EN"
 "http://www.w3.org/Graphics/SVG/1.1/DTD/svg11.dtd">
<!-- Generated by graphviz version 2.47.1 (20210515.0534)
 -->
<!-- Title: oneDegreeRelationshipsDiagram Pages: 1 -->
<svg width="942pt" height="894pt"
 viewBox="0.00 0.00 942.00 894.00" xmlns="http://www.w3.org/2000/svg" xmlns:xlink="http://www.w3.org/1999/xlink">
<g id="graph0" class="graph" transform="scale(1 1) rotate(0) translate(4 890)">
<title>oneDegreeRelationshipsDiagram</title>
<polygon fill="#ffffff" stroke="transparent" points="-4,4 -4,-890 938,-890 938,4 -4,4"/>
<text text-anchor="middle" x="73.5" y="-7.2" font-family="Helvetica,sans-Serif" font-size="11.00">Generated by SchemaSpy</text>
<!-- pipe_section -->
<g id="node1" class="node">
<title>pipe_section</title>
<g id="a_node1"><a xlink:href="../../tables/pipe_section.html" xlink:title="pipe_section" target="_top">
<polygon fill="#ffffff" stroke="transparent" points="314,-81 314,-469 469,-469 469,-81 314,-81"/>
<polygon fill="#f5f5f5" stroke="transparent" points="314.5,-447 314.5,-469 469.5,-469 469.5,-447 314.5,-447"/>
<polygon fill="none" stroke="black" points="314.5,-447 314.5,-469 469.5,-469 469.5,-447 314.5,-447"/>
<text text-anchor="start" x="319.5" y="-456.2" font-family="Helvetica,sans-Serif" font-weight="bold" font-size="11.00">pipe_section</text>
<text text-anchor="start" x="430.5" y="-455.2" font-family="Helvetica,sans-Serif" font-size="11.00">[table]</text>
<polygon fill="none" stroke="black" points="314.5,-425 314.5,-447 469.5,-447 469.5,-425 314.5,-425"/>
<image xlink:href="../../images/primaryKeys.png" width="11px" height="12px" preserveAspectRatio="xMinYMin meet" x="319.5" y="-442"/>
<text text-anchor="start" x="334.5" y="-433.2" font-family="Helvetica,sans-Serif" font-size="11.00">obj_id</text>
<polygon fill="#ffffff" stroke="transparent" points="314.5,-403 314.5,-425 469.5,-425 469.5,-403 314.5,-403"/>
<polygon fill="none" stroke="black" points="314.5,-403 314.5,-425 469.5,-425 469.5,-403 314.5,-403"/>
<text text-anchor="start" x="334.5" y="-411.2" font-family="Helvetica,sans-Serif" font-size="11.00">name_number</text>
<polygon fill="#ffffff" stroke="transparent" points="314.5,-381 314.5,-403 469.5,-403 469.5,-381 314.5,-381"/>
<polygon fill="none" stroke="black" points="314.5,-381 314.5,-403 469.5,-403 469.5,-381 314.5,-381"/>
<text text-anchor="start" x="334.5" y="-389.2" font-family="Helvetica,sans-Serif" font-size="11.00">geometry3d_geometry</text>
<polygon fill="none" stroke="black" points="314.5,-359 314.5,-381 469.5,-381 469.5,-359 314.5,-359"/>
<image xlink:href="../../images/foreignKeys.png" width="11px" height="12px" preserveAspectRatio="xMinYMin meet" x="319.5" y="-376"/>
<text text-anchor="start" x="334.5" y="-367.2" font-family="Helvetica,sans-Serif" font-size="11.00">horizontal_positioning</text>
<polygon fill="none" stroke="black" points="314.5,-337 314.5,-359 469.5,-359 469.5,-337 314.5,-337"/>
<image xlink:href="../../images/foreignKeys.png" width="11px" height="12px" preserveAspectRatio="xMinYMin meet" x="319.5" y="-354"/>
<text text-anchor="start" x="334.5" y="-345.2" font-family="Helvetica,sans-Serif" font-size="11.00">status</text>
<polygon fill="none" stroke="black" points="314.5,-315 314.5,-337 469.5,-337 469.5,-315 314.5,-315"/>
<image xlink:href="../../images/foreignKeys.png" width="11px" height="12px" preserveAspectRatio="xMinYMin meet" x="319.5" y="-332"/>
<text text-anchor="start" x="334.5" y="-323.2" font-family="Helvetica,sans-Serif" font-size="11.00">function</text>
<polygon fill="none" stroke="black" points="314.5,-293 314.5,-315 469.5,-315 469.5,-293 314.5,-293"/>
<image xlink:href="../../images/foreignKeys.png" width="11px" height="12px" preserveAspectRatio="xMinYMin meet" x="319.5" y="-310"/>
<text text-anchor="start" x="334.5" y="-301.2" font-family="Helvetica,sans-Serif" font-size="11.00">pipe_type</text>
<polygon fill="none" stroke="black" points="314.5,-271 314.5,-293 469.5,-293 469.5,-271 314.5,-271"/>
<image xlink:href="../../images/foreignKeys.png" width="11px" height="12px" preserveAspectRatio="xMinYMin meet" x="319.5" y="-288"/>
<text text-anchor="start" x="334.5" y="-279.2" font-family="Helvetica,sans-Serif" font-size="11.00">fluent</text>
<polygon fill="none" stroke="black" points="314.5,-249 314.5,-271 469.5,-271 469.5,-249 314.5,-249"/>
<image xlink:href="../../images/foreignKeys.png" width="11px" height="12px" preserveAspectRatio="xMinYMin meet" x="319.5" y="-266"/>
<text text-anchor="start" x="334.5" y="-257.2" font-family="Helvetica,sans-Serif" font-size="11.00">insulation_kind</text>
<polygon fill="none" stroke="black" points="314.5,-227 314.5,-249 469.5,-249 469.5,-227 314.5,-227"/>
<image xlink:href="../../images/foreignKeys.png" width="11px" height="12px" preserveAspectRatio="xMinYMin meet" x="319.5" y="-244"/>
<text text-anchor="start" x="334.5" y="-235.2" font-family="Helvetica,sans-Serif" font-size="11.00">coating</text>
<polygon fill="none" stroke="black" points="314.5,-205 314.5,-227 469.5,-227 469.5,-205 314.5,-205"/>
<image xlink:href="../../images/foreignKeys.png" width="11px" height="12px" preserveAspectRatio="xMinYMin meet" x="319.5" y="-222"/>
<text text-anchor="start" x="334.5" y="-213.2" font-family="Helvetica,sans-Serif" font-size="11.00">pipeline_quality</text>
<polygon fill="#ffffff" stroke="transparent" points="314.5,-183 314.5,-205 469.5,-205 469.5,-183 314.5,-183"/>
<polygon fill="none" stroke="black" points="314.5,-183 314.5,-205 469.5,-205 469.5,-183 314.5,-183"/>
<image xlink:href="../../images/foreignKeys.png" width="11px" height="12px" preserveAspectRatio="xMinYMin meet" x="319.5" y="-200"/>
<text text-anchor="start" x="334.5" y="-191.2" font-family="Helvetica,sans-Serif" font-size="11.00">fk_dataowner</text>
<polygon fill="none" stroke="black" points="314.5,-161 314.5,-183 469.5,-183 469.5,-161 314.5,-161"/>
<image xlink:href="../../images/foreignKeys.png" width="11px" height="12px" preserveAspectRatio="xMinYMin meet" x="319.5" y="-178"/>
<text text-anchor="start" x="334.5" y="-169.2" font-family="Helvetica,sans-Serif" font-size="11.00">fk_provider</text>
<polygon fill="none" stroke="black" points="314.5,-139 314.5,-161 469.5,-161 469.5,-139 314.5,-139"/>
<image xlink:href="../../images/foreignKeys.png" width="11px" height="12px" preserveAspectRatio="xMinYMin meet" x="319.5" y="-156"/>
<text text-anchor="start" x="334.5" y="-147.2" font-family="Helvetica,sans-Serif" font-size="11.00">fk_owner</text>
<polygon fill="none" stroke="black" points="314.5,-117 314.5,-139 469.5,-139 469.5,-117 314.5,-117"/>
<image xlink:href="../../images/foreignKeys.png" width="11px" height="12px" preserveAspectRatio="xMinYMin meet" x="319.5" y="-134"/>
<text text-anchor="start" x="334.5" y="-125.2" font-family="Helvetica,sans-Serif" font-size="11.00">fk_pipeline_company</text>
<polygon fill="none" stroke="black" points="314.5,-99 314.5,-117 469.5,-117 469.5,-99 314.5,-99"/>
<text text-anchor="start" x="317.5" y="-105.2" font-family="Helvetica,sans-Serif" font-size="11.00">...</text>
<polygon fill="#ffffff" stroke="transparent" points="314.5,-81 314.5,-99 388.5,-99 388.5,-81 314.5,-81"/>
<polygon fill="none" stroke="black" points="314.5,-81 314.5,-99 388.5,-99 388.5,-81 314.5,-81"/>
<text text-anchor="start" x="317.5" y="-87.2" font-family="Helvetica,sans-Serif" font-size="11.00">&lt; 12</text>
<polygon fill="#ffffff" stroke="transparent" points="388.5,-81 388.5,-99 424.5,-99 424.5,-81 388.5,-81"/>
<polygon fill="none" stroke="black" points="388.5,-81 388.5,-99 424.5,-99 424.5,-81 388.5,-81"/>
<text text-anchor="start" x="414.5" y="-87.2" font-family="Helvetica,sans-Serif" font-size="11.00"> &#160;</text>
<polygon fill="#ffffff" stroke="transparent" points="424.5,-81 424.5,-99 469.5,-99 469.5,-81 424.5,-81"/>
<polygon fill="none" stroke="black" points="424.5,-81 424.5,-99 469.5,-99 469.5,-81 424.5,-81"/>
<text text-anchor="start" x="450.5" y="-87.2" font-family="Helvetica,sans-Serif" font-size="11.00">1 &gt;</text>
</a>
</g>
</g>
<!-- organisation -->
<g id="node2" class="node">
<title>organisation</title>
<g id="a_node2"><a xlink:href="../../tables/organisation.html" xlink:title="organisation" target="_top">
<polygon fill="#ffffff" stroke="transparent" points="8,-37 8,-227 156,-227 156,-37 8,-37"/>
<polygon fill="#f5f5f5" stroke="transparent" points="8,-205 8,-227 156,-227 156,-205 8,-205"/>
<polygon fill="none" stroke="black" points="8,-205 8,-227 156,-227 156,-205 8,-205"/>
<text text-anchor="start" x="13" y="-214.2" font-family="Helvetica,sans-Serif" font-weight="bold" font-size="11.00">organisation</text>
<text text-anchor="start" x="117" y="-213.2" font-family="Helvetica,sans-Serif" font-size="11.00">[table]</text>
<polygon fill="none" stroke="black" points="8,-183 8,-205 156,-205 156,-183 8,-183"/>
<image xlink:href="../../images/primaryKeys.png" width="11px" height="12px" preserveAspectRatio="xMinYMin meet" x="13" y="-200"/>
<text text-anchor="start" x="28" y="-191.2" font-family="Helvetica,sans-Serif" font-size="11.00">obj_id</text>
<polygon fill="#ffffff" stroke="transparent" points="8,-161 8,-183 156,-183 156,-161 8,-161"/>
<polygon fill="none" stroke="black" points="8,-161 8,-183 156,-183 156,-161 8,-161"/>
<text text-anchor="start" x="28" y="-169.2" font-family="Helvetica,sans-Serif" font-size="11.00">identifier</text>
<polygon fill="none" stroke="black" points="8,-139 8,-161 156,-161 156,-139 8,-139"/>
<image xlink:href="../../images/foreignKeys.png" width="11px" height="12px" preserveAspectRatio="xMinYMin meet" x="13" y="-156"/>
<text text-anchor="start" x="28" y="-147.2" font-family="Helvetica,sans-Serif" font-size="11.00">organisation_type</text>
<polygon fill="none" stroke="black" points="8,-117 8,-139 156,-139 156,-117 8,-117"/>
<image xlink:href="../../images/foreignKeys.png" width="11px" height="12px" preserveAspectRatio="xMinYMin meet" x="13" y="-134"/>
<text text-anchor="start" x="28" y="-125.2" font-family="Helvetica,sans-Serif" font-size="11.00">status</text>
<polygon fill="#ffffff" stroke="transparent" points="8,-95 8,-117 156,-117 156,-95 8,-95"/>
<polygon fill="none" stroke="black" points="8,-95 8,-117 156,-117 156,-95 8,-95"/>
<image xlink:href="../../images/foreignKeys.png" width="11px" height="12px" preserveAspectRatio="xMinYMin meet" x="13" y="-112"/>
<text text-anchor="start" x="28" y="-103.2" font-family="Helvetica,sans-Serif" font-size="11.00">fk_dataowner</text>
<polygon fill="none" stroke="black" points="8,-73 8,-95 156,-95 156,-73 8,-73"/>
<image xlink:href="../../images/foreignKeys.png" width="11px" height="12px" preserveAspectRatio="xMinYMin meet" x="13" y="-90"/>
<text text-anchor="start" x="28" y="-81.2" font-family="Helvetica,sans-Serif" font-size="11.00">fk_provider</text>
<polygon fill="none" stroke="black" points="8,-55 8,-73 156,-73 156,-55 8,-55"/>
<text text-anchor="start" x="11" y="-61.2" font-family="Helvetica,sans-Serif" font-size="11.00">...</text>
<polygon fill="#ffffff" stroke="transparent" points="8,-37 8,-55 72,-55 72,-37 8,-37"/>
<polygon fill="none" stroke="black" points="8,-37 8,-55 72,-55 72,-37 8,-37"/>
<text text-anchor="start" x="11" y="-43.2" font-family="Helvetica,sans-Serif" font-size="11.00">&lt; 4</text>
<polygon fill="#ffffff" stroke="transparent" points="72,-37 72,-55 106,-55 106,-37 72,-37"/>
<polygon fill="none" stroke="black" points="72,-37 72,-55 106,-55 106,-37 72,-37"/>
<text text-anchor="start" x="96" y="-43.2" font-family="Helvetica,sans-Serif" font-size="11.00"> &#160;</text>
<polygon fill="#ffffff" stroke="transparent" points="106,-37 106,-55 156,-55 156,-37 106,-37"/>
<polygon fill="none" stroke="black" points="106,-37 106,-55 156,-55 156,-37 106,-37"/>
<text text-anchor="start" x="131" y="-43.2" font-family="Helvetica,sans-Serif" font-size="11.00">29 &gt;</text>
</a>
</g>
</g>
<!-- pipe_section&#45;&gt;organisation -->
<g id="edge1" class="edge">
<title>pipe_section:w&#45;&gt;organisation:e</title>
<path fill="none" stroke="black" d="M298.83,-194C241.08,-194 221.39,-194 157,-194"/>
<polygon fill="black" stroke="black" points="305.5,-194 313.5,-197.6 309.5,-194 313.5,-194 313.5,-194 313.5,-194 309.5,-194 313.5,-190.4 305.5,-194 305.5,-194"/>
<ellipse fill="none" stroke="black" cx="302.3" cy="-194" rx="3.2" ry="3.2"/>
</g>
<!-- pipe_section&#45;&gt;organisation -->
<g id="edge2" class="edge">
<title>pipe_section:w&#45;&gt;organisation:e</title>
<path fill="none" stroke="black" d="M299.11,-150.62C239.26,-155.97 224.17,-194 157,-194"/>
<polygon fill="black" stroke="black" points="305.51,-150.35 313.66,-153.6 309.5,-150.17 313.5,-150 313.5,-150 313.5,-150 309.5,-150.17 313.34,-146.4 305.51,-150.35 305.51,-150.35"/>
<ellipse fill="none" stroke="black" cx="302.31" cy="-150.48" rx="3.2" ry="3.2"/>
</g>
<!-- pipe_section&#45;&gt;organisation -->
<g id="edge3" class="edge">
<title>pipe_section:w&#45;&gt;organisation:e</title>
<path fill="none" stroke="black" d="M298.96,-128.88C236.93,-136.72 227.33,-194 157,-194"/>
<polygon fill="black" stroke="black" points="305.51,-128.48 313.72,-131.59 309.51,-128.24 313.5,-128 313.5,-128 313.5,-128 309.51,-128.24 313.28,-124.41 305.51,-128.48 305.51,-128.48"/>
<ellipse fill="none" stroke="black" cx="302.32" cy="-128.68" rx="3.2" ry="3.2"/>
</g>
<!-- pipe_section&#45;&gt;organisation -->
<g id="edge4" class="edge">
<title>pipe_section:w&#45;&gt;organisation:e</title>
<path fill="none" stroke="black" d="M299.08,-172.33C240.66,-175.06 222.16,-194 157,-194"/>
<polygon fill="black" stroke="black" points="305.5,-172.18 313.58,-175.6 309.5,-172.09 313.5,-172 313.5,-172 313.5,-172 309.5,-172.09 313.42,-168.4 305.5,-172.18 305.5,-172.18"/>
<ellipse fill="none" stroke="black" cx="302.3" cy="-172.25" rx="3.2" ry="3.2"/>
</g>
<!-- sia405pt_protection_tube -->
<g id="node3" class="node">
<title>sia405pt_protection_tube</title>
<g id="a_node3"><a xlink:href="../../tables/sia405pt_protection_tube.html" xlink:title="sia405pt_protection_tube" target="_top">
<polygon fill="#ffffff" stroke="transparent" points="627,-442 627,-882 926,-882 926,-442 627,-442"/>
<polygon fill="#f5f5f5" stroke="transparent" points="629.5,-858 629.5,-880 924.5,-880 924.5,-858 629.5,-858"/>
<polygon fill="none" stroke="black" points="629.5,-858 629.5,-880 924.5,-880 924.5,-858 629.5,-858"/>
<text text-anchor="start" x="634.5" y="-867.2" font-family="Helvetica,sans-Serif" font-weight="bold" font-size="11.00">sia405pt_protection_tube</text>
<text text-anchor="start" x="885.5" y="-866.2" font-family="Helvetica,sans-Serif" font-size="11.00">[table]</text>
<polygon fill="none" stroke="black" points="629.5,-836 629.5,-858 801.5,-858 801.5,-836 629.5,-836"/>
<image xlink:href="../../images/primaryKeys.png" width="11px" height="12px" preserveAspectRatio="xMinYMin meet" x="634.5" y="-853"/>
<text text-anchor="start" x="649.5" y="-844.2" font-family="Helvetica,sans-Serif" font-size="11.00">obj_id</text>
<polygon fill="none" stroke="black" points="801.5,-836 801.5,-858 924.5,-858 924.5,-836 801.5,-836"/>
<text text-anchor="start" x="804.5" y="-844.2" font-family="Helvetica,sans-Serif" font-size="11.00">varchar[16]</text>
<polygon fill="#ffffff" stroke="transparent" points="629.5,-814 629.5,-836 801.5,-836 801.5,-814 629.5,-814"/>
<polygon fill="none" stroke="black" points="629.5,-814 629.5,-836 801.5,-836 801.5,-814 629.5,-814"/>
<text text-anchor="start" x="649.5" y="-822.2" font-family="Helvetica,sans-Serif" font-size="11.00">name_number</text>
<polygon fill="none" stroke="black" points="801.5,-814 801.5,-836 924.5,-836 924.5,-814 801.5,-814"/>
<text text-anchor="start" x="804.5" y="-822.2" font-family="Helvetica,sans-Serif" font-size="11.00">text[2147483647]</text>
<polygon fill="none" stroke="black" points="629.5,-792 629.5,-814 801.5,-814 801.5,-792 629.5,-792"/>
<image xlink:href="../../images/foreignKeys.png" width="11px" height="12px" preserveAspectRatio="xMinYMin meet" x="634.5" y="-809"/>
<text text-anchor="start" x="649.5" y="-800.2" font-family="Helvetica,sans-Serif" font-size="11.00">material</text>
<polygon fill="none" stroke="black" points="801.5,-792 801.5,-814 924.5,-814 924.5,-792 801.5,-792"/>
<text text-anchor="start" x="804.5" y="-800.2" font-family="Helvetica,sans-Serif" font-size="11.00">int4[10]</text>
<polygon fill="none" stroke="black" points="629.5,-770 629.5,-792 801.5,-792 801.5,-770 629.5,-770"/>
<text text-anchor="start" x="649.5" y="-778.2" font-family="Helvetica,sans-Serif" font-size="11.00">nominal_diameter</text>
<polygon fill="none" stroke="black" points="801.5,-770 801.5,-792 924.5,-792 924.5,-770 801.5,-770"/>
<text text-anchor="start" x="804.5" y="-778.2" font-family="Helvetica,sans-Serif" font-size="11.00">text[2147483647]</text>
<polygon fill="none" stroke="black" points="629.5,-748 629.5,-770 801.5,-770 801.5,-748 629.5,-748"/>
<text text-anchor="start" x="649.5" y="-756.2" font-family="Helvetica,sans-Serif" font-size="11.00">outside_diameter</text>
<polygon fill="none" stroke="black" points="801.5,-748 801.5,-770 924.5,-770 924.5,-748 801.5,-748"/>
<text text-anchor="start" x="804.5" y="-756.2" font-family="Helvetica,sans-Serif" font-size="11.00">int2[5]</text>
<polygon fill="none" stroke="black" points="629.5,-726 629.5,-748 801.5,-748 801.5,-726 629.5,-726"/>
<text text-anchor="start" x="649.5" y="-734.2" font-family="Helvetica,sans-Serif" font-size="11.00">lenght</text>
<polygon fill="none" stroke="black" points="801.5,-726 801.5,-748 924.5,-748 924.5,-726 801.5,-726"/>
<text text-anchor="start" x="804.5" y="-734.2" font-family="Helvetica,sans-Serif" font-size="11.00">int2[5]</text>
<polygon fill="none" stroke="black" points="629.5,-704 629.5,-726 801.5,-726 801.5,-704 629.5,-704"/>
<text text-anchor="start" x="649.5" y="-712.2" font-family="Helvetica,sans-Serif" font-size="11.00">installation_year</text>
<polygon fill="none" stroke="black" points="801.5,-704 801.5,-726 924.5,-726 924.5,-704 801.5,-704"/>
<text text-anchor="start" x="804.5" y="-712.2" font-family="Helvetica,sans-Serif" font-size="11.00">int2[5]</text>
<polygon fill="none" stroke="black" points="629.5,-682 629.5,-704 801.5,-704 801.5,-682 629.5,-682"/>
<image xlink:href="../../images/foreignKeys.png" width="11px" height="12px" preserveAspectRatio="xMinYMin meet" x="634.5" y="-699"/>
<text text-anchor="start" x="649.5" y="-690.2" font-family="Helvetica,sans-Serif" font-size="11.00">horizontal_positioning</text>
<polygon fill="none" stroke="black" points="801.5,-682 801.5,-704 924.5,-704 924.5,-682 801.5,-682"/>
<text text-anchor="start" x="804.5" y="-690.2" font-family="Helvetica,sans-Serif" font-size="11.00">int4[10]</text>
<polygon fill="none" stroke="black" points="629.5,-660 629.5,-682 801.5,-682 801.5,-660 629.5,-660"/>
<image xlink:href="../../images/foreignKeys.png" width="11px" height="12px" preserveAspectRatio="xMinYMin meet" x="634.5" y="-677"/>
<text text-anchor="start" x="649.5" y="-668.2" font-family="Helvetica,sans-Serif" font-size="11.00">status</text>
<polygon fill="none" stroke="black" points="801.5,-660 801.5,-682 924.5,-682 924.5,-660 801.5,-660"/>
<text text-anchor="start" x="804.5" y="-668.2" font-family="Helvetica,sans-Serif" font-size="11.00">int4[10]</text>
<polygon fill="none" stroke="black" points="629.5,-638 629.5,-660 801.5,-660 801.5,-638 629.5,-638"/>
<text text-anchor="start" x="649.5" y="-646.2" font-family="Helvetica,sans-Serif" font-size="11.00">sur_plus_cover</text>
<polygon fill="none" stroke="black" points="801.5,-638 801.5,-660 924.5,-660 924.5,-638 801.5,-638"/>
<text text-anchor="start" x="804.5" y="-646.2" font-family="Helvetica,sans-Serif" font-size="11.00">numeric[4,1]</text>
<polygon fill="none" stroke="black" points="629.5,-616 629.5,-638 801.5,-638 801.5,-616 629.5,-616"/>
<text text-anchor="start" x="649.5" y="-624.2" font-family="Helvetica,sans-Serif" font-size="11.00">condition</text>
<polygon fill="none" stroke="black" points="801.5,-616 801.5,-638 924.5,-638 924.5,-616 801.5,-616"/>
<text text-anchor="start" x="804.5" y="-624.2" font-family="Helvetica,sans-Serif" font-size="11.00">text[2147483647]</text>
<polygon fill="none" stroke="black" points="629.5,-594 629.5,-616 801.5,-616 801.5,-594 629.5,-594"/>
<text text-anchor="start" x="649.5" y="-602.2" font-family="Helvetica,sans-Serif" font-size="11.00">remark</text>
<polygon fill="none" stroke="black" points="801.5,-594 801.5,-616 924.5,-616 924.5,-594 801.5,-594"/>
<text text-anchor="start" x="804.5" y="-602.2" font-family="Helvetica,sans-Serif" font-size="11.00">text[2147483647]</text>
<polygon fill="#ffffff" stroke="transparent" points="629.5,-572 629.5,-594 801.5,-594 801.5,-572 629.5,-572"/>
<polygon fill="none" stroke="black" points="629.5,-572 629.5,-594 801.5,-594 801.5,-572 629.5,-572"/>
<text text-anchor="start" x="649.5" y="-580.2" font-family="Helvetica,sans-Serif" font-size="11.00">geometry3d_geometry</text>
<polygon fill="none" stroke="black" points="801.5,-572 801.5,-594 924.5,-594 924.5,-572 801.5,-572"/>
<text text-anchor="start" x="804.5" y="-580.2" font-family="Helvetica,sans-Serif" font-size="11.00">geometry[2147483647]</text>
<polygon fill="none" stroke="black" points="629.5,-550 629.5,-572 801.5,-572 801.5,-550 629.5,-550"/>
<text text-anchor="start" x="649.5" y="-558.2" font-family="Helvetica,sans-Serif" font-size="11.00">last_modification</text>
<polygon fill="none" stroke="black" points="801.5,-550 801.5,-572 924.5,-572 924.5,-550 801.5,-550"/>
<text text-anchor="start" x="804.5" y="-558.2" font-family="Helvetica,sans-Serif" font-size="11.00">timestamp[29,6]</text>
<polygon fill="#ffffff" stroke="transparent" points="629.5,-528 629.5,-550 801.5,-550 801.5,-528 629.5,-528"/>
<polygon fill="none" stroke="black" points="629.5,-528 629.5,-550 801.5,-550 801.5,-528 629.5,-528"/>
<image xlink:href="../../images/foreignKeys.png" width="11px" height="12px" preserveAspectRatio="xMinYMin meet" x="634.5" y="-545"/>
<text text-anchor="start" x="649.5" y="-536.2" font-family="Helvetica,sans-Serif" font-size="11.00">fk_dataowner</text>
<polygon fill="none" stroke="black" points="801.5,-528 801.5,-550 924.5,-550 924.5,-528 801.5,-528"/>
<text text-anchor="start" x="804.5" y="-536.2" font-family="Helvetica,sans-Serif" font-size="11.00">varchar[16]</text>
<polygon fill="none" stroke="black" points="629.5,-506 629.5,-528 801.5,-528 801.5,-506 629.5,-506"/>
<image xlink:href="../../images/foreignKeys.png" width="11px" height="12px" preserveAspectRatio="xMinYMin meet" x="634.5" y="-523"/>
<text text-anchor="start" x="649.5" y="-514.2" font-family="Helvetica,sans-Serif" font-size="11.00">fk_provider</text>
<polygon fill="none" stroke="black" points="801.5,-506 801.5,-528 924.5,-528 924.5,-506 801.5,-506"/>
<text text-anchor="start" x="804.5" y="-514.2" font-family="Helvetica,sans-Serif" font-size="11.00">varchar[16]</text>
<polygon fill="none" stroke="black" points="629.5,-484 629.5,-506 801.5,-506 801.5,-484 629.5,-484"/>
<image xlink:href="../../images/foreignKeys.png" width="11px" height="12px" preserveAspectRatio="xMinYMin meet" x="634.5" y="-501"/>
<text text-anchor="start" x="649.5" y="-492.2" font-family="Helvetica,sans-Serif" font-size="11.00">fk_owner</text>
<polygon fill="none" stroke="black" points="801.5,-484 801.5,-506 924.5,-506 924.5,-484 801.5,-484"/>
<text text-anchor="start" x="804.5" y="-492.2" font-family="Helvetica,sans-Serif" font-size="11.00">varchar[16]</text>
<polygon fill="none" stroke="black" points="629.5,-462 629.5,-484 801.5,-484 801.5,-462 629.5,-462"/>
<image xlink:href="../../images/foreignKeys.png" width="11px" height="12px" preserveAspectRatio="xMinYMin meet" x="634.5" y="-479"/>
<text text-anchor="start" x="649.5" y="-470.2" font-family="Helvetica,sans-Serif" font-size="11.00">fk_pipe_section</text>
<polygon fill="none" stroke="black" points="801.5,-462 801.5,-484 924.5,-484 924.5,-462 801.5,-462"/>
<text text-anchor="start" x="804.5" y="-470.2" font-family="Helvetica,sans-Serif" font-size="11.00">varchar[16]</text>
<polygon fill="#ffffff" stroke="transparent" points="629.5,-444 629.5,-462 719.5,-462 719.5,-444 629.5,-444"/>
<polygon fill="none" stroke="black" points="629.5,-444 629.5,-462 719.5,-462 719.5,-444 629.5,-444"/>
<text text-anchor="start" x="632.5" y="-450.2" font-family="Helvetica,sans-Serif" font-size="11.00">&lt; 7</text>
<polygon fill="#ffffff" stroke="transparent" points="719.5,-444 719.5,-462 801.5,-462 801.5,-444 719.5,-444"/>
<polygon fill="none" stroke="black" points="719.5,-444 719.5,-462 801.5,-462 801.5,-444 719.5,-444"/>
<text text-anchor="start" x="791.5" y="-450.2" font-family="Helvetica,sans-Serif" font-size="11.00"> &#160;</text>
<polygon fill="#ffffff" stroke="transparent" points="801.5,-444 801.5,-462 924.5,-462 924.5,-444 801.5,-444"/>
<polygon fill="none" stroke="black" points="801.5,-444 801.5,-462 924.5,-462 924.5,-444 801.5,-444"/>
<text text-anchor="start" x="905.5" y="-450.2" font-family="Helvetica,sans-Serif" font-size="11.00">0 &gt;</text>
<polygon fill="none" stroke="black" stroke-width="2" points="628,-443 628,-881 925,-881 925,-443 628,-443"/>
</a>
</g>
</g>
<!-- sia405pt_protection_tube&#45;&gt;pipe_section -->
<g id="edge7" class="edge">
<title>sia405pt_protection_tube:w&#45;&gt;pipe_section:e</title>
<path fill="none" stroke="black" d="M613.73,-472.45C554.09,-467.85 537.41,-436 470.5,-436"/>
<polygon fill="black" stroke="black" points="620.51,-472.7 628.37,-476.6 624.5,-472.85 628.5,-473 628.5,-473 628.5,-473 624.5,-472.85 628.63,-469.4 620.51,-472.7 620.51,-472.7"/>
<ellipse fill="none" stroke="black" cx="617.31" cy="-472.58" rx="3.2" ry="3.2"/>
</g>
<!-- sia405pt_protection_tube&#45;&gt;organisation -->
<g id="edge5" class="edge">
<title>sia405pt_protection_tube:w&#45;&gt;organisation:e</title>
<path fill="none" stroke="black" d="M614.07,-539.23C431.7,-544.93 335.49,-655.58 197,-530 141.3,-479.49 232.19,-194 157,-194"/>
<polygon fill="black" stroke="black" points="620.5,-539.13 628.56,-542.6 624.5,-539.06 628.5,-539 628.5,-539 628.5,-539 624.5,-539.06 628.44,-535.4 620.5,-539.13 620.5,-539.13"/>
<ellipse fill="none" stroke="black" cx="617.3" cy="-539.18" rx="3.2" ry="3.2"/>
</g>
<!-- sia405pt_protection_tube&#45;&gt;organisation -->
<g id="edge6" class="edge">
<title>sia405pt_protection_tube:w&#45;&gt;organisation:e</title>
<path fill="none" stroke="black" d="M613.89,-495.22C532.51,-497.06 230.08,-508.85 197,-479 149.52,-436.15 220.95,-194 157,-194"/>
<polygon fill="black" stroke="black" points="620.5,-495.12 628.55,-498.6 624.5,-495.06 628.5,-495 628.5,-495 628.5,-495 624.5,-495.06 628.45,-491.4 620.5,-495.12 620.5,-495.12"/>
<ellipse fill="none" stroke="black" cx="617.3" cy="-495.17" rx="3.2" ry="3.2"/>
</g>
<!-- sia405pt_protection_tube&#45;&gt;organisation -->
<g id="edge8" class="edge">
<title>sia405pt_protection_tube:w&#45;&gt;organisation:e</title>
<path fill="none" stroke="black" d="M613.88,-517.21C532.48,-518.95 229.9,-530.05 197,-500 146.36,-453.75 225.58,-194 157,-194"/>
<polygon fill="black" stroke="black" points="620.5,-517.12 628.55,-520.6 624.5,-517.06 628.5,-517 628.5,-517 628.5,-517 624.5,-517.06 628.45,-513.4 620.5,-517.12 620.5,-517.12"/>
<ellipse fill="none" stroke="black" cx="617.3" cy="-517.16" rx="3.2" ry="3.2"/>
</g>
<!-- tdh_vl.sia405pt_protection_tube_horizontal_positioning -->
<g id="node4" class="node">
<title>tdh_vl.sia405pt_protection_tube_horizontal_positioning</title>
<g id="a_node4"><a xlink:href="../../../tdh_vl/tables/sia405pt_protection_tube_horizo_431f8400.html" xlink:title="tdh_vl.sia405pt_protection_tube_horizontal_positioning" target="_top">
<polygon fill="#ffffff" stroke="transparent" points="205,-680 205,-738 578,-738 578,-680 205,-680"/>
<polygon fill="#f5f5f5" stroke="transparent" points="205.5,-716 205.5,-738 578.5,-738 578.5,-716 205.5,-716"/>
<polygon fill="none" stroke="black" points="205.5,-716 205.5,-738 578.5,-738 578.5,-716 205.5,-716"/>
<text text-anchor="start" x="210.5" y="-725.2" font-family="Helvetica,sans-Serif" font-weight="bold" font-size="11.00">tdh_vl.sia405pt_protection_tube_horizontal_positioning</text>
<text text-anchor="start" x="539.5" y="-724.2" font-family="Helvetica,sans-Serif" font-size="11.00">[table]</text>
<polygon fill="none" stroke="black" points="205.5,-698 205.5,-716 578.5,-716 578.5,-698 205.5,-698"/>
<text text-anchor="start" x="208.5" y="-704.2" font-family="Helvetica,sans-Serif" font-size="11.00">...</text>
<polygon fill="#ffffff" stroke="transparent" points="205.5,-680 205.5,-698 367.5,-698 367.5,-680 205.5,-680"/>
<polygon fill="none" stroke="black" points="205.5,-680 205.5,-698 367.5,-698 367.5,-680 205.5,-680"/>
<text text-anchor="start" x="208.5" y="-686.2" font-family="Helvetica,sans-Serif" font-size="11.00"> &#160;</text>
<polygon fill="#ffffff" stroke="transparent" points="367.5,-680 367.5,-698 481.5,-698 481.5,-680 367.5,-680"/>
<polygon fill="none" stroke="black" points="367.5,-680 367.5,-698 481.5,-698 481.5,-680 367.5,-680"/>
<text text-anchor="start" x="444.5" y="-686.2" font-family="Helvetica,sans-Serif" font-size="11.00">0 rows</text>
<polygon fill="#ffffff" stroke="transparent" points="481.5,-680 481.5,-698 578.5,-698 578.5,-680 481.5,-680"/>
<polygon fill="none" stroke="black" points="481.5,-680 481.5,-698 578.5,-698 578.5,-680 481.5,-680"/>
<text text-anchor="start" x="559.5" y="-686.2" font-family="Helvetica,sans-Serif" font-size="11.00">1 &gt;</text>
</a>
</g>
</g>
<!-- sia405pt_protection_tube&#45;&gt;tdh_vl.sia405pt_protection_tube_horizontal_positioning -->
<g id="edge9" class="edge">
<title>sia405pt_protection_tube:w&#45;&gt;tdh_vl.sia405pt_protection_tube_horizontal_positioning:e</title>
<path fill="none" stroke="black" d="M613.84,-693.1C604.75,-693.22 595.52,-693.44 586.26,-693.75"/>
<polygon fill="black" stroke="black" points="620.5,-693.05 628.52,-696.6 624.5,-693.03 628.5,-693 628.5,-693 628.5,-693 624.5,-693.03 628.48,-689.4 620.5,-693.05 620.5,-693.05"/>
<ellipse fill="none" stroke="black" cx="617.3" cy="-693.08" rx="3.2" ry="3.2"/>
</g>
<!-- tdh_vl.sia405pt_protection_tube_material -->
<g id="node5" class="node">
<title>tdh_vl.sia405pt_protection_tube_material</title>
<g id="a_node5"><a xlink:href="../../../tdh_vl/tables/sia405pt_protection_tube_material.html" xlink:title="tdh_vl.sia405pt_protection_tube_material" target="_top">
<polygon fill="#ffffff" stroke="transparent" points="246.5,-774 246.5,-832 536.5,-832 536.5,-774 246.5,-774"/>
<polygon fill="#f5f5f5" stroke="transparent" points="246.5,-810 246.5,-832 536.5,-832 536.5,-810 246.5,-810"/>
<polygon fill="none" stroke="black" points="246.5,-810 246.5,-832 536.5,-832 536.5,-810 246.5,-810"/>
<text text-anchor="start" x="251.5" y="-819.2" font-family="Helvetica,sans-Serif" font-weight="bold" font-size="11.00">tdh_vl.sia405pt_protection_tube_material</text>
<text text-anchor="start" x="497.5" y="-818.2" font-family="Helvetica,sans-Serif" font-size="11.00">[table]</text>
<polygon fill="none" stroke="black" points="246.5,-792 246.5,-810 536.5,-810 536.5,-792 246.5,-792"/>
<text text-anchor="start" x="249.5" y="-798.2" font-family="Helvetica,sans-Serif" font-size="11.00">...</text>
<polygon fill="#ffffff" stroke="transparent" points="246.5,-774 246.5,-792 366.5,-792 366.5,-774 246.5,-774"/>
<polygon fill="none" stroke="black" points="246.5,-774 246.5,-792 366.5,-792 366.5,-774 246.5,-774"/>
<text text-anchor="start" x="249.5" y="-780.2" font-family="Helvetica,sans-Serif" font-size="11.00"> &#160;</text>
<polygon fill="#ffffff" stroke="transparent" points="366.5,-774 366.5,-792 460.5,-792 460.5,-774 366.5,-774"/>
<polygon fill="none" stroke="black" points="366.5,-774 366.5,-792 460.5,-792 460.5,-774 366.5,-774"/>
<text text-anchor="start" x="423.5" y="-780.2" font-family="Helvetica,sans-Serif" font-size="11.00">0 rows</text>
<polygon fill="#ffffff" stroke="transparent" points="460.5,-774 460.5,-792 536.5,-792 536.5,-774 460.5,-774"/>
<polygon fill="none" stroke="black" points="460.5,-774 460.5,-792 536.5,-792 536.5,-774 460.5,-774"/>
<text text-anchor="start" x="517.5" y="-780.2" font-family="Helvetica,sans-Serif" font-size="11.00">1 &gt;</text>
</a>
</g>
</g>
<!-- sia405pt_protection_tube&#45;&gt;tdh_vl.sia405pt_protection_tube_material -->
<g id="edge10" class="edge">
<title>sia405pt_protection_tube:w&#45;&gt;tdh_vl.sia405pt_protection_tube_material:e</title>
<path fill="none" stroke="black" d="M614.04,-803C591.23,-803 567.55,-803 544.53,-803"/>
<polygon fill="black" stroke="black" points="620.5,-803 628.5,-806.6 624.5,-803 628.5,-803 628.5,-803 628.5,-803 624.5,-803 628.5,-799.4 620.5,-803 620.5,-803"/>
<ellipse fill="none" stroke="black" cx="617.3" cy="-803" rx="3.2" ry="3.2"/>
</g>
<!-- tdh_vl.sia405pt_protection_tube_status -->
<g id="node6" class="node">
<title>tdh_vl.sia405pt_protection_tube_status</title>
<g id="a_node6"><a xlink:href="../../../tdh_vl/tables/sia405pt_protection_tube_status.html" xlink:title="tdh_vl.sia405pt_protection_tube_status" target="_top">
<polygon fill="#ffffff" stroke="transparent" points="253.5,-601 253.5,-659 529.5,-659 529.5,-601 253.5,-601"/>
<polygon fill="#f5f5f5" stroke="transparent" points="253.5,-637 253.5,-659 529.5,-659 529.5,-637 253.5,-637"/>
<polygon fill="none" stroke="black" points="253.5,-637 253.5,-659 529.5,-659 529.5,-637 253.5,-637"/>
<text text-anchor="start" x="258.5" y="-646.2" font-family="Helvetica,sans-Serif" font-weight="bold" font-size="11.00">tdh_vl.sia405pt_protection_tube_status</text>
<text text-anchor="start" x="490.5" y="-645.2" font-family="Helvetica,sans-Serif" font-size="11.00">[table]</text>
<polygon fill="none" stroke="black" points="253.5,-619 253.5,-637 529.5,-637 529.5,-619 253.5,-619"/>
<text text-anchor="start" x="256.5" y="-625.2" font-family="Helvetica,sans-Serif" font-size="11.00">...</text>
<polygon fill="#ffffff" stroke="transparent" points="253.5,-601 253.5,-619 366.5,-619 366.5,-601 253.5,-601"/>
<polygon fill="none" stroke="black" points="253.5,-601 253.5,-619 366.5,-619 366.5,-601 253.5,-601"/>
<text text-anchor="start" x="256.5" y="-607.2" font-family="Helvetica,sans-Serif" font-size="11.00"> &#160;</text>
<polygon fill="#ffffff" stroke="transparent" points="366.5,-601 366.5,-619 456.5,-619 456.5,-601 366.5,-601"/>
<polygon fill="none" stroke="black" points="366.5,-601 366.5,-619 456.5,-619 456.5,-601 366.5,-601"/>
<text text-anchor="start" x="419.5" y="-607.2" font-family="Helvetica,sans-Serif" font-size="11.00">0 rows</text>
<polygon fill="#ffffff" stroke="transparent" points="456.5,-601 456.5,-619 529.5,-619 529.5,-601 456.5,-601"/>
<polygon fill="none" stroke="black" points="456.5,-601 456.5,-619 529.5,-619 529.5,-601 456.5,-601"/>
<text text-anchor="start" x="510.5" y="-607.2" font-family="Helvetica,sans-Serif" font-size="11.00">1 &gt;</text>
</a>
</g>
</g>
<!-- sia405pt_protection_tube&#45;&gt;tdh_vl.sia405pt_protection_tube_status -->
<g id="edge11" class="edge">
<title>sia405pt_protection_tube:w&#45;&gt;tdh_vl.sia405pt_protection_tube_status:e</title>
<path fill="none" stroke="black" d="M613.94,-670.76C588.28,-669.92 561.72,-666.98 536.28,-663.05"/>
<polygon fill="black" stroke="black" points="620.5,-670.87 628.44,-674.6 624.5,-670.93 628.5,-671 628.5,-671 628.5,-671 624.5,-670.93 628.56,-667.4 620.5,-670.87 620.5,-670.87"/>
<ellipse fill="none" stroke="black" cx="617.3" cy="-670.81" rx="3.2" ry="3.2"/>
</g>
</g>
</svg>
