<?xml version="1.0" encoding="UTF-8" standalone="no"?>
<!DOCTYPE svg PUBLIC "-//W3C//DTD SVG 1.1//EN"
 "http://www.w3.org/Graphics/SVG/1.1/DTD/svg11.dtd">
<!-- Generated by graphviz version 2.43.0 (0)
 -->
<!-- Title: oneDegreeRelationshipsDiagram Pages: 1 -->
<svg width="1095pt" height="894pt"
 viewBox="0.00 0.00 1095.00 894.00" xmlns="http://www.w3.org/2000/svg" xmlns:xlink="http://www.w3.org/1999/xlink">
<g id="graph0" class="graph" transform="scale(1 1) rotate(0) translate(4 890)">
<title>oneDegreeRelationshipsDiagram</title>
<polygon fill="#ffffff" stroke="transparent" points="-4,4 -4,-890 1091,-890 1091,4 -4,4"/>
<text text-anchor="middle" x="79.5" y="-7.2" font-family="Helvetica,sans-Serif" font-size="11.00">Generated by SchemaSpy</text>
<!-- pipe_section -->
<g id="node1" class="node">
<title>pipe_section</title>
<g id="a_node1"><a xlink:href="../../tables/pipe_section.html" xlink:title="pipe_section" target="_top">
<polygon fill="#ffffff" stroke="transparent" points="364,-81 364,-469 550,-469 550,-81 364,-81"/>
<polygon fill="#f5f5f5" stroke="transparent" points="364,-447 364,-469 550,-469 550,-447 364,-447"/>
<polygon fill="none" stroke="black" points="364,-447 364,-469 550,-469 550,-447 364,-447"/>
<text text-anchor="start" x="369" y="-456.2" font-family="Helvetica,sans-Serif" font-weight="bold" font-size="11.00">pipe_section</text>
<text text-anchor="start" x="508" y="-455.2" font-family="Helvetica,sans-Serif" font-size="11.00">[table]</text>
<polygon fill="none" stroke="black" points="364,-425 364,-447 550,-447 550,-425 364,-425"/>
<image xlink:href="../../images/primaryKeys.png" width="11px" height="12px" preserveAspectRatio="xMinYMin meet" x="369" y="-442"/>
<text text-anchor="start" x="384" y="-433.2" font-family="Helvetica,sans-Serif" font-size="11.00">obj_id</text>
<polygon fill="#ffffff" stroke="transparent" points="364,-403 364,-425 550,-425 550,-403 364,-403"/>
<polygon fill="none" stroke="black" points="364,-403 364,-425 550,-425 550,-403 364,-403"/>
<text text-anchor="start" x="384" y="-411.2" font-family="Helvetica,sans-Serif" font-size="11.00">name_number</text>
<polygon fill="#ffffff" stroke="transparent" points="364,-381 364,-403 550,-403 550,-381 364,-381"/>
<polygon fill="none" stroke="black" points="364,-381 364,-403 550,-403 550,-381 364,-381"/>
<text text-anchor="start" x="384" y="-389.2" font-family="Helvetica,sans-Serif" font-size="11.00">geometry3d_geometry</text>
<polygon fill="none" stroke="black" points="364,-359 364,-381 550,-381 550,-359 364,-359"/>
<image xlink:href="../../images/foreignKeys.png" width="11px" height="12px" preserveAspectRatio="xMinYMin meet" x="369" y="-376"/>
<text text-anchor="start" x="384" y="-367.2" font-family="Helvetica,sans-Serif" font-size="11.00">horizontal_positioning</text>
<polygon fill="none" stroke="black" points="364,-337 364,-359 550,-359 550,-337 364,-337"/>
<image xlink:href="../../images/foreignKeys.png" width="11px" height="12px" preserveAspectRatio="xMinYMin meet" x="369" y="-354"/>
<text text-anchor="start" x="384" y="-345.2" font-family="Helvetica,sans-Serif" font-size="11.00">status</text>
<polygon fill="none" stroke="black" points="364,-315 364,-337 550,-337 550,-315 364,-315"/>
<image xlink:href="../../images/foreignKeys.png" width="11px" height="12px" preserveAspectRatio="xMinYMin meet" x="369" y="-332"/>
<text text-anchor="start" x="384" y="-323.2" font-family="Helvetica,sans-Serif" font-size="11.00">function</text>
<polygon fill="none" stroke="black" points="364,-293 364,-315 550,-315 550,-293 364,-293"/>
<image xlink:href="../../images/foreignKeys.png" width="11px" height="12px" preserveAspectRatio="xMinYMin meet" x="369" y="-310"/>
<text text-anchor="start" x="384" y="-301.2" font-family="Helvetica,sans-Serif" font-size="11.00">pipe_type</text>
<polygon fill="none" stroke="black" points="364,-271 364,-293 550,-293 550,-271 364,-271"/>
<image xlink:href="../../images/foreignKeys.png" width="11px" height="12px" preserveAspectRatio="xMinYMin meet" x="369" y="-288"/>
<text text-anchor="start" x="384" y="-279.2" font-family="Helvetica,sans-Serif" font-size="11.00">fluent</text>
<polygon fill="none" stroke="black" points="364,-249 364,-271 550,-271 550,-249 364,-249"/>
<image xlink:href="../../images/foreignKeys.png" width="11px" height="12px" preserveAspectRatio="xMinYMin meet" x="369" y="-266"/>
<text text-anchor="start" x="384" y="-257.2" font-family="Helvetica,sans-Serif" font-size="11.00">insulation_kind</text>
<polygon fill="none" stroke="black" points="364,-227 364,-249 550,-249 550,-227 364,-227"/>
<image xlink:href="../../images/foreignKeys.png" width="11px" height="12px" preserveAspectRatio="xMinYMin meet" x="369" y="-244"/>
<text text-anchor="start" x="384" y="-235.2" font-family="Helvetica,sans-Serif" font-size="11.00">coating</text>
<polygon fill="none" stroke="black" points="364,-205 364,-227 550,-227 550,-205 364,-205"/>
<image xlink:href="../../images/foreignKeys.png" width="11px" height="12px" preserveAspectRatio="xMinYMin meet" x="369" y="-222"/>
<text text-anchor="start" x="384" y="-213.2" font-family="Helvetica,sans-Serif" font-size="11.00">pipeline_quality</text>
<polygon fill="#ffffff" stroke="transparent" points="364,-183 364,-205 550,-205 550,-183 364,-183"/>
<polygon fill="none" stroke="black" points="364,-183 364,-205 550,-205 550,-183 364,-183"/>
<image xlink:href="../../images/foreignKeys.png" width="11px" height="12px" preserveAspectRatio="xMinYMin meet" x="369" y="-200"/>
<text text-anchor="start" x="384" y="-191.2" font-family="Helvetica,sans-Serif" font-size="11.00">fk_dataowner</text>
<polygon fill="none" stroke="black" points="364,-161 364,-183 550,-183 550,-161 364,-161"/>
<image xlink:href="../../images/foreignKeys.png" width="11px" height="12px" preserveAspectRatio="xMinYMin meet" x="369" y="-178"/>
<text text-anchor="start" x="384" y="-169.2" font-family="Helvetica,sans-Serif" font-size="11.00">fk_provider</text>
<polygon fill="none" stroke="black" points="364,-139 364,-161 550,-161 550,-139 364,-139"/>
<image xlink:href="../../images/foreignKeys.png" width="11px" height="12px" preserveAspectRatio="xMinYMin meet" x="369" y="-156"/>
<text text-anchor="start" x="384" y="-147.2" font-family="Helvetica,sans-Serif" font-size="11.00">fk_owner</text>
<polygon fill="none" stroke="black" points="364,-117 364,-139 550,-139 550,-117 364,-117"/>
<image xlink:href="../../images/foreignKeys.png" width="11px" height="12px" preserveAspectRatio="xMinYMin meet" x="369" y="-134"/>
<text text-anchor="start" x="384" y="-125.2" font-family="Helvetica,sans-Serif" font-size="11.00">fk_pipeline_company</text>
<polygon fill="none" stroke="black" points="364,-99 364,-117 550,-117 550,-99 364,-99"/>
<text text-anchor="start" x="367" y="-105.2" font-family="Helvetica,sans-Serif" font-size="11.00">...</text>
<polygon fill="#ffffff" stroke="transparent" points="364,-81 364,-99 550,-99 550,-81 364,-81"/>
<polygon fill="none" stroke="black" points="364,-81 364,-99 550,-99 550,-81 364,-81"/>
<polygon fill="#ffffff" stroke="transparent" points="365,-82 365,-98 435,-98 435,-82 365,-82"/>
<text text-anchor="start" x="367" y="-87.2" font-family="Helvetica,sans-Serif" font-size="11.00">&lt; 12</text>
<polygon fill="#ffffff" stroke="transparent" points="435,-82 435,-98 486,-98 486,-82 435,-82"/>
<text text-anchor="start" x="456.5" y="-87.2" font-family="Helvetica,sans-Serif" font-size="11.00"> &#160;</text>
<polygon fill="#ffffff" stroke="transparent" points="486,-82 486,-98 549,-98 549,-82 486,-82"/>
<text text-anchor="start" x="527" y="-87.2" font-family="Helvetica,sans-Serif" font-size="11.00">1 &gt;</text>
<polygon fill="black" stroke="black" points="435,-82 435,-98 435,-98 435,-82 435,-82"/>
<polygon fill="black" stroke="black" points="486,-82 486,-98 486,-98 486,-82 486,-82"/>
</a>
</g>
</g>
<!-- organisation -->
<g id="node2" class="node">
<title>organisation</title>
<g id="a_node2"><a xlink:href="../../tables/organisation.html" xlink:title="organisation" target="_top">
<polygon fill="#ffffff" stroke="transparent" points="8,-37 8,-227 182,-227 182,-37 8,-37"/>
<polygon fill="#f5f5f5" stroke="transparent" points="8,-205 8,-227 182,-227 182,-205 8,-205"/>
<polygon fill="none" stroke="black" points="8,-205 8,-227 182,-227 182,-205 8,-205"/>
<text text-anchor="start" x="13" y="-214.2" font-family="Helvetica,sans-Serif" font-weight="bold" font-size="11.00">organisation</text>
<text text-anchor="start" x="140" y="-213.2" font-family="Helvetica,sans-Serif" font-size="11.00">[table]</text>
<polygon fill="none" stroke="black" points="8,-183 8,-205 182,-205 182,-183 8,-183"/>
<image xlink:href="../../images/primaryKeys.png" width="11px" height="12px" preserveAspectRatio="xMinYMin meet" x="13" y="-200"/>
<text text-anchor="start" x="28" y="-191.2" font-family="Helvetica,sans-Serif" font-size="11.00">obj_id</text>
<polygon fill="#ffffff" stroke="transparent" points="8,-161 8,-183 182,-183 182,-161 8,-161"/>
<polygon fill="none" stroke="black" points="8,-161 8,-183 182,-183 182,-161 8,-161"/>
<text text-anchor="start" x="28" y="-169.2" font-family="Helvetica,sans-Serif" font-size="11.00">identifier</text>
<polygon fill="none" stroke="black" points="8,-139 8,-161 182,-161 182,-139 8,-139"/>
<image xlink:href="../../images/foreignKeys.png" width="11px" height="12px" preserveAspectRatio="xMinYMin meet" x="13" y="-156"/>
<text text-anchor="start" x="28" y="-147.2" font-family="Helvetica,sans-Serif" font-size="11.00">organisation_type</text>
<polygon fill="none" stroke="black" points="8,-117 8,-139 182,-139 182,-117 8,-117"/>
<image xlink:href="../../images/foreignKeys.png" width="11px" height="12px" preserveAspectRatio="xMinYMin meet" x="13" y="-134"/>
<text text-anchor="start" x="28" y="-125.2" font-family="Helvetica,sans-Serif" font-size="11.00">status</text>
<polygon fill="#ffffff" stroke="transparent" points="8,-95 8,-117 182,-117 182,-95 8,-95"/>
<polygon fill="none" stroke="black" points="8,-95 8,-117 182,-117 182,-95 8,-95"/>
<image xlink:href="../../images/foreignKeys.png" width="11px" height="12px" preserveAspectRatio="xMinYMin meet" x="13" y="-112"/>
<text text-anchor="start" x="28" y="-103.2" font-family="Helvetica,sans-Serif" font-size="11.00">fk_dataowner</text>
<polygon fill="none" stroke="black" points="8,-73 8,-95 182,-95 182,-73 8,-73"/>
<image xlink:href="../../images/foreignKeys.png" width="11px" height="12px" preserveAspectRatio="xMinYMin meet" x="13" y="-90"/>
<text text-anchor="start" x="28" y="-81.2" font-family="Helvetica,sans-Serif" font-size="11.00">fk_provider</text>
<polygon fill="none" stroke="black" points="8,-55 8,-73 182,-73 182,-55 8,-55"/>
<text text-anchor="start" x="11" y="-61.2" font-family="Helvetica,sans-Serif" font-size="11.00">...</text>
<polygon fill="#ffffff" stroke="transparent" points="8,-37 8,-55 182,-55 182,-37 8,-37"/>
<polygon fill="none" stroke="black" points="8,-37 8,-55 182,-55 182,-37 8,-37"/>
<polygon fill="#ffffff" stroke="transparent" points="9,-38 9,-54 68,-54 68,-38 9,-38"/>
<text text-anchor="start" x="11" y="-43.2" font-family="Helvetica,sans-Serif" font-size="11.00">&lt; 4</text>
<polygon fill="#ffffff" stroke="transparent" points="68,-38 68,-54 115,-54 115,-38 68,-38"/>
<text text-anchor="start" x="87.5" y="-43.2" font-family="Helvetica,sans-Serif" font-size="11.00"> &#160;</text>
<polygon fill="#ffffff" stroke="transparent" points="115,-38 115,-54 181,-54 181,-38 115,-38"/>
<text text-anchor="start" x="152" y="-43.2" font-family="Helvetica,sans-Serif" font-size="11.00">33 &gt;</text>
<polygon fill="black" stroke="black" points="68,-38 68,-54 68,-54 68,-38 68,-38"/>
<polygon fill="black" stroke="black" points="115,-38 115,-54 115,-54 115,-38 115,-38"/>
</a>
</g>
</g>
<!-- pipe_section&#45;&gt;organisation -->
<g id="edge1" class="edge">
<title>pipe_section:w&#45;&gt;organisation:e</title>
<path fill="none" stroke="black" d="M348.25,-194C280.17,-194 257.84,-194 183,-194"/>
<polygon fill="black" stroke="black" points="355,-194 363,-197.6 359,-194 363,-194 363,-194 363,-194 359,-194 363,-190.4 355,-194 355,-194"/>
<ellipse fill="none" stroke="black" cx="351.8" cy="-194" rx="3.2" ry="3.2"/>
</g>
<!-- pipe_section&#45;&gt;organisation -->
<g id="edge2" class="edge">
<title>pipe_section:w&#45;&gt;organisation:e</title>
<path fill="none" stroke="black" d="M348.31,-150.49C278.47,-155.33 260.21,-194 183,-194"/>
<polygon fill="black" stroke="black" points="355,-150.27 363.12,-153.6 359,-150.13 363,-150 363,-150 363,-150 359,-150.13 362.88,-146.4 355,-150.27 355,-150.27"/>
<ellipse fill="none" stroke="black" cx="351.81" cy="-150.38" rx="3.2" ry="3.2"/>
</g>
<!-- pipe_section&#45;&gt;organisation -->
<g id="edge3" class="edge">
<title>pipe_section:w&#45;&gt;organisation:e</title>
<path fill="none" stroke="black" d="M348.32,-128.7C276.35,-135.75 263.05,-194 183,-194"/>
<polygon fill="black" stroke="black" points="355.01,-128.38 363.17,-131.6 359,-128.19 363,-128 363,-128 363,-128 359,-128.19 362.83,-124.4 355.01,-128.38 355.01,-128.38"/>
<ellipse fill="none" stroke="black" cx="351.81" cy="-128.53" rx="3.2" ry="3.2"/>
</g>
<!-- pipe_section&#45;&gt;organisation -->
<g id="edge4" class="edge">
<title>pipe_section:w&#45;&gt;organisation:e</title>
<path fill="none" stroke="black" d="M348.58,-172.25C279.81,-174.66 258.56,-194 183,-194"/>
<polygon fill="black" stroke="black" points="355,-172.14 363.06,-175.6 359,-172.07 363,-172 363,-172 363,-172 359,-172.07 362.94,-168.4 355,-172.14 355,-172.14"/>
<ellipse fill="none" stroke="black" cx="351.8" cy="-172.19" rx="3.2" ry="3.2"/>
</g>
<!-- sia405pt_protection_tube -->
<g id="node3" class="node">
<title>sia405pt_protection_tube</title>
<g id="a_node3"><a xlink:href="../../tables/sia405pt_protection_tube.html" xlink:title="sia405pt_protection_tube" target="_top">
<polygon fill="#ffffff" stroke="transparent" points="732,-442 732,-882 1079,-882 1079,-442 732,-442"/>
<polygon fill="#f5f5f5" stroke="transparent" points="734.5,-858 734.5,-880 1077.5,-880 1077.5,-858 734.5,-858"/>
<polygon fill="none" stroke="black" points="734.5,-858 734.5,-880 1077.5,-880 1077.5,-858 734.5,-858"/>
<text text-anchor="start" x="739.5" y="-867.2" font-family="Helvetica,sans-Serif" font-weight="bold" font-size="11.00">sia405pt_protection_tube</text>
<text text-anchor="start" x="1035.5" y="-866.2" font-family="Helvetica,sans-Serif" font-size="11.00">[table]</text>
<polygon fill="none" stroke="black" points="734.5,-836 734.5,-858 941.5,-858 941.5,-836 734.5,-836"/>
<image xlink:href="../../images/primaryKeys.png" width="11px" height="12px" preserveAspectRatio="xMinYMin meet" x="739.5" y="-853"/>
<text text-anchor="start" x="754.5" y="-844.2" font-family="Helvetica,sans-Serif" font-size="11.00">obj_id</text>
<polygon fill="none" stroke="black" points="941.5,-836 941.5,-858 1077.5,-858 1077.5,-836 941.5,-836"/>
<text text-anchor="start" x="944.5" y="-844.2" font-family="Helvetica,sans-Serif" font-size="11.00">varchar[16]</text>
<polygon fill="#ffffff" stroke="transparent" points="734.5,-814 734.5,-836 941.5,-836 941.5,-814 734.5,-814"/>
<polygon fill="none" stroke="black" points="734.5,-814 734.5,-836 941.5,-836 941.5,-814 734.5,-814"/>
<text text-anchor="start" x="754.5" y="-822.2" font-family="Helvetica,sans-Serif" font-size="11.00">name_number</text>
<polygon fill="none" stroke="black" points="941.5,-814 941.5,-836 1077.5,-836 1077.5,-814 941.5,-814"/>
<text text-anchor="start" x="944.5" y="-822.2" font-family="Helvetica,sans-Serif" font-size="11.00">text[2147483647]</text>
<polygon fill="none" stroke="black" points="734.5,-792 734.5,-814 941.5,-814 941.5,-792 734.5,-792"/>
<image xlink:href="../../images/foreignKeys.png" width="11px" height="12px" preserveAspectRatio="xMinYMin meet" x="739.5" y="-809"/>
<text text-anchor="start" x="754.5" y="-800.2" font-family="Helvetica,sans-Serif" font-size="11.00">material</text>
<polygon fill="none" stroke="black" points="941.5,-792 941.5,-814 1077.5,-814 1077.5,-792 941.5,-792"/>
<text text-anchor="start" x="944.5" y="-800.2" font-family="Helvetica,sans-Serif" font-size="11.00">int4[10]</text>
<polygon fill="none" stroke="black" points="734.5,-770 734.5,-792 941.5,-792 941.5,-770 734.5,-770"/>
<text text-anchor="start" x="754.5" y="-778.2" font-family="Helvetica,sans-Serif" font-size="11.00">nominal_diameter</text>
<polygon fill="none" stroke="black" points="941.5,-770 941.5,-792 1077.5,-792 1077.5,-770 941.5,-770"/>
<text text-anchor="start" x="944.5" y="-778.2" font-family="Helvetica,sans-Serif" font-size="11.00">text[2147483647]</text>
<polygon fill="none" stroke="black" points="734.5,-748 734.5,-770 941.5,-770 941.5,-748 734.5,-748"/>
<text text-anchor="start" x="754.5" y="-756.2" font-family="Helvetica,sans-Serif" font-size="11.00">outside_diameter</text>
<polygon fill="none" stroke="black" points="941.5,-748 941.5,-770 1077.5,-770 1077.5,-748 941.5,-748"/>
<text text-anchor="start" x="944.5" y="-756.2" font-family="Helvetica,sans-Serif" font-size="11.00">int2[5]</text>
<polygon fill="none" stroke="black" points="734.5,-726 734.5,-748 941.5,-748 941.5,-726 734.5,-726"/>
<text text-anchor="start" x="754.5" y="-734.2" font-family="Helvetica,sans-Serif" font-size="11.00">lenght</text>
<polygon fill="none" stroke="black" points="941.5,-726 941.5,-748 1077.5,-748 1077.5,-726 941.5,-726"/>
<text text-anchor="start" x="944.5" y="-734.2" font-family="Helvetica,sans-Serif" font-size="11.00">int2[5]</text>
<polygon fill="none" stroke="black" points="734.5,-704 734.5,-726 941.5,-726 941.5,-704 734.5,-704"/>
<text text-anchor="start" x="754.5" y="-712.2" font-family="Helvetica,sans-Serif" font-size="11.00">installation_year</text>
<polygon fill="none" stroke="black" points="941.5,-704 941.5,-726 1077.5,-726 1077.5,-704 941.5,-704"/>
<text text-anchor="start" x="944.5" y="-712.2" font-family="Helvetica,sans-Serif" font-size="11.00">int2[5]</text>
<polygon fill="none" stroke="black" points="734.5,-682 734.5,-704 941.5,-704 941.5,-682 734.5,-682"/>
<image xlink:href="../../images/foreignKeys.png" width="11px" height="12px" preserveAspectRatio="xMinYMin meet" x="739.5" y="-699"/>
<text text-anchor="start" x="754.5" y="-690.2" font-family="Helvetica,sans-Serif" font-size="11.00">horizontal_positioning</text>
<polygon fill="none" stroke="black" points="941.5,-682 941.5,-704 1077.5,-704 1077.5,-682 941.5,-682"/>
<text text-anchor="start" x="944.5" y="-690.2" font-family="Helvetica,sans-Serif" font-size="11.00">int4[10]</text>
<polygon fill="none" stroke="black" points="734.5,-660 734.5,-682 941.5,-682 941.5,-660 734.5,-660"/>
<image xlink:href="../../images/foreignKeys.png" width="11px" height="12px" preserveAspectRatio="xMinYMin meet" x="739.5" y="-677"/>
<text text-anchor="start" x="754.5" y="-668.2" font-family="Helvetica,sans-Serif" font-size="11.00">status</text>
<polygon fill="none" stroke="black" points="941.5,-660 941.5,-682 1077.5,-682 1077.5,-660 941.5,-660"/>
<text text-anchor="start" x="944.5" y="-668.2" font-family="Helvetica,sans-Serif" font-size="11.00">int4[10]</text>
<polygon fill="none" stroke="black" points="734.5,-638 734.5,-660 941.5,-660 941.5,-638 734.5,-638"/>
<text text-anchor="start" x="754.5" y="-646.2" font-family="Helvetica,sans-Serif" font-size="11.00">sur_plus_cover</text>
<polygon fill="none" stroke="black" points="941.5,-638 941.5,-660 1077.5,-660 1077.5,-638 941.5,-638"/>
<text text-anchor="start" x="944.5" y="-646.2" font-family="Helvetica,sans-Serif" font-size="11.00">numeric[4,1]</text>
<polygon fill="none" stroke="black" points="734.5,-616 734.5,-638 941.5,-638 941.5,-616 734.5,-616"/>
<text text-anchor="start" x="754.5" y="-624.2" font-family="Helvetica,sans-Serif" font-size="11.00">condition</text>
<polygon fill="none" stroke="black" points="941.5,-616 941.5,-638 1077.5,-638 1077.5,-616 941.5,-616"/>
<text text-anchor="start" x="944.5" y="-624.2" font-family="Helvetica,sans-Serif" font-size="11.00">text[2147483647]</text>
<polygon fill="none" stroke="black" points="734.5,-594 734.5,-616 941.5,-616 941.5,-594 734.5,-594"/>
<text text-anchor="start" x="754.5" y="-602.2" font-family="Helvetica,sans-Serif" font-size="11.00">remark</text>
<polygon fill="none" stroke="black" points="941.5,-594 941.5,-616 1077.5,-616 1077.5,-594 941.5,-594"/>
<text text-anchor="start" x="944.5" y="-602.2" font-family="Helvetica,sans-Serif" font-size="11.00">text[2147483647]</text>
<polygon fill="#ffffff" stroke="transparent" points="734.5,-572 734.5,-594 941.5,-594 941.5,-572 734.5,-572"/>
<polygon fill="none" stroke="black" points="734.5,-572 734.5,-594 941.5,-594 941.5,-572 734.5,-572"/>
<text text-anchor="start" x="754.5" y="-580.2" font-family="Helvetica,sans-Serif" font-size="11.00">geometry3d_geometry</text>
<polygon fill="none" stroke="black" points="941.5,-572 941.5,-594 1077.5,-594 1077.5,-572 941.5,-572"/>
<text text-anchor="start" x="944.5" y="-580.2" font-family="Helvetica,sans-Serif" font-size="11.00">geometry[2147483647]</text>
<polygon fill="none" stroke="black" points="734.5,-550 734.5,-572 941.5,-572 941.5,-550 734.5,-550"/>
<text text-anchor="start" x="754.5" y="-558.2" font-family="Helvetica,sans-Serif" font-size="11.00">last_modification</text>
<polygon fill="none" stroke="black" points="941.5,-550 941.5,-572 1077.5,-572 1077.5,-550 941.5,-550"/>
<text text-anchor="start" x="944.5" y="-558.2" font-family="Helvetica,sans-Serif" font-size="11.00">timestamp[29,6]</text>
<polygon fill="#ffffff" stroke="transparent" points="734.5,-528 734.5,-550 941.5,-550 941.5,-528 734.5,-528"/>
<polygon fill="none" stroke="black" points="734.5,-528 734.5,-550 941.5,-550 941.5,-528 734.5,-528"/>
<image xlink:href="../../images/foreignKeys.png" width="11px" height="12px" preserveAspectRatio="xMinYMin meet" x="739.5" y="-545"/>
<text text-anchor="start" x="754.5" y="-536.2" font-family="Helvetica,sans-Serif" font-size="11.00">fk_dataowner</text>
<polygon fill="none" stroke="black" points="941.5,-528 941.5,-550 1077.5,-550 1077.5,-528 941.5,-528"/>
<text text-anchor="start" x="944.5" y="-536.2" font-family="Helvetica,sans-Serif" font-size="11.00">varchar[16]</text>
<polygon fill="none" stroke="black" points="734.5,-506 734.5,-528 941.5,-528 941.5,-506 734.5,-506"/>
<image xlink:href="../../images/foreignKeys.png" width="11px" height="12px" preserveAspectRatio="xMinYMin meet" x="739.5" y="-523"/>
<text text-anchor="start" x="754.5" y="-514.2" font-family="Helvetica,sans-Serif" font-size="11.00">fk_provider</text>
<polygon fill="none" stroke="black" points="941.5,-506 941.5,-528 1077.5,-528 1077.5,-506 941.5,-506"/>
<text text-anchor="start" x="944.5" y="-514.2" font-family="Helvetica,sans-Serif" font-size="11.00">varchar[16]</text>
<polygon fill="none" stroke="black" points="734.5,-484 734.5,-506 941.5,-506 941.5,-484 734.5,-484"/>
<image xlink:href="../../images/foreignKeys.png" width="11px" height="12px" preserveAspectRatio="xMinYMin meet" x="739.5" y="-501"/>
<text text-anchor="start" x="754.5" y="-492.2" font-family="Helvetica,sans-Serif" font-size="11.00">fk_owner</text>
<polygon fill="none" stroke="black" points="941.5,-484 941.5,-506 1077.5,-506 1077.5,-484 941.5,-484"/>
<text text-anchor="start" x="944.5" y="-492.2" font-family="Helvetica,sans-Serif" font-size="11.00">varchar[16]</text>
<polygon fill="none" stroke="black" points="734.5,-462 734.5,-484 941.5,-484 941.5,-462 734.5,-462"/>
<image xlink:href="../../images/foreignKeys.png" width="11px" height="12px" preserveAspectRatio="xMinYMin meet" x="739.5" y="-479"/>
<text text-anchor="start" x="754.5" y="-470.2" font-family="Helvetica,sans-Serif" font-size="11.00">fk_pipe_section</text>
<polygon fill="none" stroke="black" points="941.5,-462 941.5,-484 1077.5,-484 1077.5,-462 941.5,-462"/>
<text text-anchor="start" x="944.5" y="-470.2" font-family="Helvetica,sans-Serif" font-size="11.00">varchar[16]</text>
<polygon fill="#ffffff" stroke="transparent" points="734.5,-444 734.5,-462 1077.5,-462 1077.5,-444 734.5,-444"/>
<polygon fill="none" stroke="black" points="734.5,-444 734.5,-462 1077.5,-462 1077.5,-444 734.5,-444"/>
<polygon fill="#ffffff" stroke="transparent" points="735.5,-445 735.5,-461 853.5,-461 853.5,-445 735.5,-445"/>
<text text-anchor="start" x="737.5" y="-450.2" font-family="Helvetica,sans-Serif" font-size="11.00">&lt; 7</text>
<polygon fill="#ffffff" stroke="transparent" points="853.5,-445 853.5,-461 959.5,-461 959.5,-445 853.5,-445"/>
<text text-anchor="start" x="902.5" y="-450.2" font-family="Helvetica,sans-Serif" font-size="11.00"> &#160;</text>
<polygon fill="#ffffff" stroke="transparent" points="959.5,-445 959.5,-461 1076.5,-461 1076.5,-445 959.5,-445"/>
<text text-anchor="start" x="1054.5" y="-450.2" font-family="Helvetica,sans-Serif" font-size="11.00">0 &gt;</text>
<polygon fill="black" stroke="black" points="853.5,-445 853.5,-461 853.5,-461 853.5,-445 853.5,-445"/>
<polygon fill="black" stroke="black" points="959.5,-445 959.5,-461 959.5,-461 959.5,-445 959.5,-445"/>
<polygon fill="none" stroke="black" stroke-width="2" points="733,-443 733,-881 1078,-881 1078,-443 733,-443"/>
</a>
</g>
</g>
<!-- sia405pt_protection_tube&#45;&gt;pipe_section -->
<g id="edge7" class="edge">
<title>sia405pt_protection_tube:w&#45;&gt;pipe_section:e</title>
<path fill="none" stroke="black" d="M718.72,-472.58C648.36,-468.52 628.59,-436 551,-436"/>
<polygon fill="black" stroke="black" points="725.5,-472.78 733.4,-476.6 729.5,-472.89 733.5,-473 733.5,-473 733.5,-473 729.5,-472.89 733.6,-469.4 725.5,-472.78 725.5,-472.78"/>
<ellipse fill="none" stroke="black" cx="722.3" cy="-472.69" rx="3.2" ry="3.2"/>
</g>
<!-- sia405pt_protection_tube&#45;&gt;organisation -->
<g id="edge5" class="edge">
<title>sia405pt_protection_tube:w&#45;&gt;organisation:e</title>
<path fill="none" stroke="black" d="M718.94,-539.31C595.35,-544.14 303.8,-603.04 223,-530 167.22,-479.58 258.19,-194 183,-194"/>
<polygon fill="black" stroke="black" points="725.5,-539.17 733.58,-542.6 729.5,-539.08 733.5,-539 733.5,-539 733.5,-539 729.5,-539.08 733.42,-535.4 725.5,-539.17 725.5,-539.17"/>
<ellipse fill="none" stroke="black" cx="722.3" cy="-539.24" rx="3.2" ry="3.2"/>
</g>
<!-- sia405pt_protection_tube&#45;&gt;organisation -->
<g id="edge6" class="edge">
<title>sia405pt_protection_tube:w&#45;&gt;organisation:e</title>
<path fill="none" stroke="black" d="M718.88,-495.24C626.75,-497.5 262.6,-514.53 223,-479 175.4,-436.29 246.95,-194 183,-194"/>
<polygon fill="black" stroke="black" points="725.5,-495.13 733.56,-498.6 729.5,-495.06 733.5,-495 733.5,-495 733.5,-495 729.5,-495.06 733.44,-491.4 725.5,-495.13 725.5,-495.13"/>
<ellipse fill="none" stroke="black" cx="722.3" cy="-495.18" rx="3.2" ry="3.2"/>
</g>
<!-- sia405pt_protection_tube&#45;&gt;organisation -->
<g id="edge8" class="edge">
<title>sia405pt_protection_tube:w&#45;&gt;organisation:e</title>
<path fill="none" stroke="black" d="M718.88,-517.24C626.73,-519.53 262.42,-536.73 223,-501 172.02,-454.8 251.8,-194 183,-194"/>
<polygon fill="black" stroke="black" points="725.5,-517.13 733.56,-520.6 729.5,-517.07 733.5,-517 733.5,-517 733.5,-517 729.5,-517.07 733.44,-513.4 725.5,-517.13 725.5,-517.13"/>
<ellipse fill="none" stroke="black" cx="722.3" cy="-517.18" rx="3.2" ry="3.2"/>
</g>
<!-- tdh_vl.sia405pt_protection_tube_horizontal_positioning -->
<g id="node4" class="node">
<title>tdh_vl.sia405pt_protection_tube_horizontal_positioning</title>
<g id="a_node4"><a xlink:href="../../../tdh_vl/tables/sia405pt_protection_tube_horizo_431f8400.html" xlink:title="tdh_vl.sia405pt_protection_tube_horizontal_positioning" target="_top">
<polygon fill="#ffffff" stroke="transparent" points="231,-680 231,-738 683,-738 683,-680 231,-680"/>
<polygon fill="#f5f5f5" stroke="transparent" points="231,-716 231,-738 683,-738 683,-716 231,-716"/>
<polygon fill="none" stroke="black" points="231,-716 231,-738 683,-738 683,-716 231,-716"/>
<text text-anchor="start" x="236" y="-725.2" font-family="Helvetica,sans-Serif" font-weight="bold" font-size="11.00">tdh_vl.sia405pt_protection_tube_horizontal_positioning</text>
<text text-anchor="start" x="641" y="-724.2" font-family="Helvetica,sans-Serif" font-size="11.00">[table]</text>
<polygon fill="none" stroke="black" points="231,-698 231,-716 683,-716 683,-698 231,-698"/>
<text text-anchor="start" x="234" y="-704.2" font-family="Helvetica,sans-Serif" font-size="11.00">...</text>
<polygon fill="#ffffff" stroke="transparent" points="231,-680 231,-698 683,-698 683,-680 231,-680"/>
<polygon fill="none" stroke="black" points="231,-680 231,-698 683,-698 683,-680 231,-680"/>
<polygon fill="#ffffff" stroke="transparent" points="232,-681 232,-697 369,-697 369,-681 232,-681"/>
<text text-anchor="start" x="234" y="-686.2" font-family="Helvetica,sans-Serif" font-size="11.00"> &#160;</text>
<polygon fill="#ffffff" stroke="transparent" points="369,-681 369,-697 534,-697 534,-681 369,-681"/>
<text text-anchor="start" x="433" y="-686.2" font-family="Helvetica,sans-Serif" font-size="11.00">0 rows</text>
<polygon fill="#ffffff" stroke="transparent" points="534,-681 534,-697 682,-697 682,-681 534,-681"/>
<text text-anchor="start" x="660" y="-686.2" font-family="Helvetica,sans-Serif" font-size="11.00">1 &gt;</text>
<polygon fill="black" stroke="black" points="369,-681 369,-697 369,-697 369,-681 369,-681"/>
<polygon fill="black" stroke="black" points="534,-681 534,-697 534,-697 534,-681 534,-681"/>
</a>
</g>
</g>
<!-- sia405pt_protection_tube&#45;&gt;tdh_vl.sia405pt_protection_tube_horizontal_positioning -->
<g id="edge9" class="edge">
<title>sia405pt_protection_tube:w&#45;&gt;tdh_vl.sia405pt_protection_tube_horizontal_positioning:e</title>
<path fill="none" stroke="black" d="M718.84,-693.07C709.76,-693.16 700.55,-693.33 691.29,-693.56"/>
<polygon fill="black" stroke="black" points="725.5,-693.04 733.52,-696.6 729.5,-693.02 733.5,-693 733.5,-693 733.5,-693 729.5,-693.02 733.48,-689.4 725.5,-693.04 725.5,-693.04"/>
<ellipse fill="none" stroke="black" cx="722.3" cy="-693.06" rx="3.2" ry="3.2"/>
</g>
<!-- tdh_vl.sia405pt_protection_tube_material -->
<g id="node5" class="node">
<title>tdh_vl.sia405pt_protection_tube_material</title>
<g id="a_node5"><a xlink:href="../../../tdh_vl/tables/sia405pt_protection_tube_material.html" xlink:title="tdh_vl.sia405pt_protection_tube_material" target="_top">
<polygon fill="#ffffff" stroke="transparent" points="282,-774 282,-832 632,-832 632,-774 282,-774"/>
<polygon fill="#f5f5f5" stroke="transparent" points="282,-810 282,-832 632,-832 632,-810 282,-810"/>
<polygon fill="none" stroke="black" points="282,-810 282,-832 632,-832 632,-810 282,-810"/>
<text text-anchor="start" x="287" y="-819.2" font-family="Helvetica,sans-Serif" font-weight="bold" font-size="11.00">tdh_vl.sia405pt_protection_tube_material</text>
<text text-anchor="start" x="590" y="-818.2" font-family="Helvetica,sans-Serif" font-size="11.00">[table]</text>
<polygon fill="none" stroke="black" points="282,-792 282,-810 632,-810 632,-792 282,-792"/>
<text text-anchor="start" x="285" y="-798.2" font-family="Helvetica,sans-Serif" font-size="11.00">...</text>
<polygon fill="#ffffff" stroke="transparent" points="282,-774 282,-792 632,-792 632,-774 282,-774"/>
<polygon fill="none" stroke="black" points="282,-774 282,-792 632,-792 632,-774 282,-774"/>
<polygon fill="#ffffff" stroke="transparent" points="283,-775 283,-791 386,-791 386,-775 283,-775"/>
<text text-anchor="start" x="285" y="-780.2" font-family="Helvetica,sans-Serif" font-size="11.00"> &#160;</text>
<polygon fill="#ffffff" stroke="transparent" points="386,-775 386,-791 517,-791 517,-775 386,-775"/>
<text text-anchor="start" x="433" y="-780.2" font-family="Helvetica,sans-Serif" font-size="11.00">0 rows</text>
<polygon fill="#ffffff" stroke="transparent" points="517,-775 517,-791 631,-791 631,-775 517,-775"/>
<text text-anchor="start" x="609" y="-780.2" font-family="Helvetica,sans-Serif" font-size="11.00">1 &gt;</text>
<polygon fill="black" stroke="black" points="386,-775 386,-791 386,-791 386,-775 386,-775"/>
<polygon fill="black" stroke="black" points="517,-775 517,-791 517,-791 517,-775 517,-775"/>
</a>
</g>
</g>
<!-- sia405pt_protection_tube&#45;&gt;tdh_vl.sia405pt_protection_tube_material -->
<g id="edge10" class="edge">
<title>sia405pt_protection_tube:w&#45;&gt;tdh_vl.sia405pt_protection_tube_material:e</title>
<path fill="none" stroke="black" d="M718.89,-803C693.14,-803 666.4,-803 640.28,-803"/>
<polygon fill="black" stroke="black" points="725.5,-803 733.5,-806.6 729.5,-803 733.5,-803 733.5,-803 733.5,-803 729.5,-803 733.5,-799.4 725.5,-803 725.5,-803"/>
<ellipse fill="none" stroke="black" cx="722.3" cy="-803" rx="3.2" ry="3.2"/>
</g>
<!-- tdh_vl.sia405pt_protection_tube_status -->
<g id="node6" class="node">
<title>tdh_vl.sia405pt_protection_tube_status</title>
<g id="a_node6"><a xlink:href="../../../tdh_vl/tables/sia405pt_protection_tube_status.html" xlink:title="tdh_vl.sia405pt_protection_tube_status" target="_top">
<polygon fill="#ffffff" stroke="transparent" points="289.5,-601 289.5,-659 624.5,-659 624.5,-601 289.5,-601"/>
<polygon fill="#f5f5f5" stroke="transparent" points="290,-637 290,-659 625,-659 625,-637 290,-637"/>
<polygon fill="none" stroke="black" points="290,-637 290,-659 625,-659 625,-637 290,-637"/>
<text text-anchor="start" x="295" y="-646.2" font-family="Helvetica,sans-Serif" font-weight="bold" font-size="11.00">tdh_vl.sia405pt_protection_tube_status</text>
<text text-anchor="start" x="583" y="-645.2" font-family="Helvetica,sans-Serif" font-size="11.00">[table]</text>
<polygon fill="none" stroke="black" points="290,-619 290,-637 625,-637 625,-619 290,-619"/>
<text text-anchor="start" x="293" y="-625.2" font-family="Helvetica,sans-Serif" font-size="11.00">...</text>
<polygon fill="#ffffff" stroke="transparent" points="290,-601 290,-619 625,-619 625,-601 290,-601"/>
<polygon fill="none" stroke="black" points="290,-601 290,-619 625,-619 625,-601 290,-601"/>
<polygon fill="#ffffff" stroke="transparent" points="291,-602 291,-618 389,-618 389,-602 291,-602"/>
<text text-anchor="start" x="293" y="-607.2" font-family="Helvetica,sans-Serif" font-size="11.00"> &#160;</text>
<polygon fill="#ffffff" stroke="transparent" points="389,-602 389,-618 515,-618 515,-602 389,-602"/>
<text text-anchor="start" x="433.5" y="-607.2" font-family="Helvetica,sans-Serif" font-size="11.00">0 rows</text>
<polygon fill="#ffffff" stroke="transparent" points="515,-602 515,-618 624,-618 624,-602 515,-602"/>
<text text-anchor="start" x="602" y="-607.2" font-family="Helvetica,sans-Serif" font-size="11.00">1 &gt;</text>
<polygon fill="black" stroke="black" points="389,-602 389,-618 389,-618 389,-602 389,-602"/>
<polygon fill="black" stroke="black" points="515,-602 515,-618 515,-618 515,-602 515,-602"/>
</a>
</g>
</g>
<!-- sia405pt_protection_tube&#45;&gt;tdh_vl.sia405pt_protection_tube_status -->
<g id="edge11" class="edge">
<title>sia405pt_protection_tube:w&#45;&gt;tdh_vl.sia405pt_protection_tube_status:e</title>
<path fill="none" stroke="black" d="M719.06,-670.82C688.44,-670.08 656.57,-667.09 626.05,-663.05"/>
<polygon fill="black" stroke="black" points="725.5,-670.9 733.46,-674.6 729.5,-670.95 733.5,-671 733.5,-671 733.5,-671 729.5,-670.95 733.54,-667.4 725.5,-670.9 725.5,-670.9"/>
<ellipse fill="none" stroke="black" cx="722.3" cy="-670.86" rx="3.2" ry="3.2"/>
</g>
</g>
</svg>
