<?xml version="1.0" encoding="UTF-8" standalone="no"?>
<!DOCTYPE svg PUBLIC "-//W3C//DTD SVG 1.1//EN"
 "http://www.w3.org/Graphics/SVG/1.1/DTD/svg11.dtd">
<!-- Generated by graphviz version 2.47.1 (20210515.0534)
 -->
<!-- Title: oneDegreeRelationshipsDiagram Pages: 1 -->
<svg width="683pt" height="571pt"
 viewBox="0.00 0.00 683.00 571.00" xmlns="http://www.w3.org/2000/svg" xmlns:xlink="http://www.w3.org/1999/xlink">
<g id="graph0" class="graph" transform="scale(1 1) rotate(0) translate(4 567)">
<title>oneDegreeRelationshipsDiagram</title>
<polygon fill="#ffffff" stroke="transparent" points="-4,4 -4,-567 679,-567 679,4 -4,4"/>
<text text-anchor="middle" x="73.5" y="-7.2" font-family="Helvetica,sans-Serif" font-size="11.00">Generated by SchemaSpy</text>
<!-- trench_point -->
<g id="node1" class="node">
<title>trench_point</title>
<g id="a_node1"><a xlink:href="../../tables/trench_point.html" xlink:title="trench_point" target="_top">
<polygon fill="#ffffff" stroke="transparent" points="370,-141 370,-559 667,-559 667,-141 370,-141"/>
<polygon fill="#f5f5f5" stroke="transparent" points="372.5,-535 372.5,-557 665.5,-557 665.5,-535 372.5,-535"/>
<polygon fill="none" stroke="black" points="372.5,-535 372.5,-557 665.5,-557 665.5,-535 372.5,-535"/>
<text text-anchor="start" x="377.5" y="-544.2" font-family="Helvetica,sans-Serif" font-weight="bold" font-size="11.00">trench_point</text>
<text text-anchor="start" x="626.5" y="-543.2" font-family="Helvetica,sans-Serif" font-size="11.00">[table]</text>
<polygon fill="none" stroke="black" points="372.5,-513 372.5,-535 542.5,-535 542.5,-513 372.5,-513"/>
<image xlink:href="../../images/primaryKeys.png" width="11px" height="12px" preserveAspectRatio="xMinYMin meet" x="377.5" y="-530"/>
<text text-anchor="start" x="392.5" y="-521.2" font-family="Helvetica,sans-Serif" font-size="11.00">obj_id</text>
<polygon fill="none" stroke="black" points="542.5,-513 542.5,-535 665.5,-535 665.5,-513 542.5,-513"/>
<text text-anchor="start" x="545.5" y="-521.2" font-family="Helvetica,sans-Serif" font-size="11.00">varchar[16]</text>
<polygon fill="#ffffff" stroke="transparent" points="372.5,-491 372.5,-513 542.5,-513 542.5,-491 372.5,-491"/>
<polygon fill="none" stroke="black" points="372.5,-491 372.5,-513 542.5,-513 542.5,-491 372.5,-491"/>
<text text-anchor="start" x="392.5" y="-499.2" font-family="Helvetica,sans-Serif" font-size="11.00">name_number</text>
<polygon fill="none" stroke="black" points="542.5,-491 542.5,-513 665.5,-513 665.5,-491 542.5,-491"/>
<text text-anchor="start" x="545.5" y="-499.2" font-family="Helvetica,sans-Serif" font-size="11.00">text[2147483647]</text>
<polygon fill="#ffffff" stroke="transparent" points="372.5,-469 372.5,-491 542.5,-491 542.5,-469 372.5,-469"/>
<polygon fill="none" stroke="black" points="372.5,-469 372.5,-491 542.5,-491 542.5,-469 372.5,-469"/>
<text text-anchor="start" x="392.5" y="-477.2" font-family="Helvetica,sans-Serif" font-size="11.00">geometry3d_geometry</text>
<polygon fill="none" stroke="black" points="542.5,-469 542.5,-491 665.5,-491 665.5,-469 542.5,-469"/>
<text text-anchor="start" x="545.5" y="-477.2" font-family="Helvetica,sans-Serif" font-size="11.00">geometry[2147483647]</text>
<polygon fill="none" stroke="black" points="372.5,-447 372.5,-469 542.5,-469 542.5,-447 372.5,-447"/>
<image xlink:href="../../images/foreignKeys.png" width="11px" height="12px" preserveAspectRatio="xMinYMin meet" x="377.5" y="-464"/>
<text text-anchor="start" x="392.5" y="-455.2" font-family="Helvetica,sans-Serif" font-size="11.00">horizontal_positioning</text>
<polygon fill="none" stroke="black" points="542.5,-447 542.5,-469 665.5,-469 665.5,-447 542.5,-447"/>
<text text-anchor="start" x="545.5" y="-455.2" font-family="Helvetica,sans-Serif" font-size="11.00">int4[10]</text>
<polygon fill="none" stroke="black" points="372.5,-425 372.5,-447 542.5,-447 542.5,-425 372.5,-425"/>
<image xlink:href="../../images/foreignKeys.png" width="11px" height="12px" preserveAspectRatio="xMinYMin meet" x="377.5" y="-442"/>
<text text-anchor="start" x="392.5" y="-433.2" font-family="Helvetica,sans-Serif" font-size="11.00">kind</text>
<polygon fill="none" stroke="black" points="542.5,-425 542.5,-447 665.5,-447 665.5,-425 542.5,-425"/>
<text text-anchor="start" x="545.5" y="-433.2" font-family="Helvetica,sans-Serif" font-size="11.00">int4[10]</text>
<polygon fill="none" stroke="black" points="372.5,-403 372.5,-425 542.5,-425 542.5,-403 372.5,-403"/>
<text text-anchor="start" x="392.5" y="-411.2" font-family="Helvetica,sans-Serif" font-size="11.00">altitude_channel_bottom</text>
<polygon fill="none" stroke="black" points="542.5,-403 542.5,-425 665.5,-425 665.5,-403 542.5,-403"/>
<text text-anchor="start" x="545.5" y="-411.2" font-family="Helvetica,sans-Serif" font-size="11.00">numeric[7,3]</text>
<polygon fill="none" stroke="black" points="372.5,-381 372.5,-403 542.5,-403 542.5,-381 372.5,-381"/>
<text text-anchor="start" x="392.5" y="-389.2" font-family="Helvetica,sans-Serif" font-size="11.00">altitude_channel_cover</text>
<polygon fill="none" stroke="black" points="542.5,-381 542.5,-403 665.5,-403 665.5,-381 542.5,-381"/>
<text text-anchor="start" x="545.5" y="-389.2" font-family="Helvetica,sans-Serif" font-size="11.00">numeric[7,3]</text>
<polygon fill="none" stroke="black" points="372.5,-359 372.5,-381 542.5,-381 542.5,-359 372.5,-359"/>
<text text-anchor="start" x="392.5" y="-367.2" font-family="Helvetica,sans-Serif" font-size="11.00">altitude_entry_cover</text>
<polygon fill="none" stroke="black" points="542.5,-359 542.5,-381 665.5,-381 665.5,-359 542.5,-359"/>
<text text-anchor="start" x="545.5" y="-367.2" font-family="Helvetica,sans-Serif" font-size="11.00">numeric[7,3]</text>
<polygon fill="none" stroke="black" points="372.5,-337 372.5,-359 542.5,-359 542.5,-337 372.5,-337"/>
<text text-anchor="start" x="392.5" y="-345.2" font-family="Helvetica,sans-Serif" font-size="11.00">sur_plus_cover</text>
<polygon fill="none" stroke="black" points="542.5,-337 542.5,-359 665.5,-359 665.5,-337 542.5,-337"/>
<text text-anchor="start" x="545.5" y="-345.2" font-family="Helvetica,sans-Serif" font-size="11.00">numeric[4,1]</text>
<polygon fill="none" stroke="black" points="372.5,-315 372.5,-337 542.5,-337 542.5,-315 372.5,-315"/>
<image xlink:href="../../images/foreignKeys.png" width="11px" height="12px" preserveAspectRatio="xMinYMin meet" x="377.5" y="-332"/>
<text text-anchor="start" x="392.5" y="-323.2" font-family="Helvetica,sans-Serif" font-size="11.00">elevation_determination</text>
<polygon fill="none" stroke="black" points="542.5,-315 542.5,-337 665.5,-337 665.5,-315 542.5,-315"/>
<text text-anchor="start" x="545.5" y="-323.2" font-family="Helvetica,sans-Serif" font-size="11.00">int4[10]</text>
<polygon fill="none" stroke="black" points="372.5,-293 372.5,-315 542.5,-315 542.5,-293 372.5,-293"/>
<text text-anchor="start" x="392.5" y="-301.2" font-family="Helvetica,sans-Serif" font-size="11.00">remark</text>
<polygon fill="none" stroke="black" points="542.5,-293 542.5,-315 665.5,-315 665.5,-293 542.5,-293"/>
<text text-anchor="start" x="545.5" y="-301.2" font-family="Helvetica,sans-Serif" font-size="11.00">text[2147483647]</text>
<polygon fill="none" stroke="black" points="372.5,-271 372.5,-293 542.5,-293 542.5,-271 372.5,-271"/>
<text text-anchor="start" x="392.5" y="-279.2" font-family="Helvetica,sans-Serif" font-size="11.00">dimension1</text>
<polygon fill="none" stroke="black" points="542.5,-271 542.5,-293 665.5,-293 665.5,-271 542.5,-271"/>
<text text-anchor="start" x="545.5" y="-279.2" font-family="Helvetica,sans-Serif" font-size="11.00">int2[5]</text>
<polygon fill="none" stroke="black" points="372.5,-249 372.5,-271 542.5,-271 542.5,-249 372.5,-249"/>
<text text-anchor="start" x="392.5" y="-257.2" font-family="Helvetica,sans-Serif" font-size="11.00">depth</text>
<polygon fill="none" stroke="black" points="542.5,-249 542.5,-271 665.5,-271 665.5,-249 542.5,-249"/>
<text text-anchor="start" x="545.5" y="-257.2" font-family="Helvetica,sans-Serif" font-size="11.00">int2[5]</text>
<polygon fill="none" stroke="black" points="372.5,-227 372.5,-249 542.5,-249 542.5,-227 372.5,-227"/>
<text text-anchor="start" x="392.5" y="-235.2" font-family="Helvetica,sans-Serif" font-size="11.00">last_modification</text>
<polygon fill="none" stroke="black" points="542.5,-227 542.5,-249 665.5,-249 665.5,-227 542.5,-227"/>
<text text-anchor="start" x="545.5" y="-235.2" font-family="Helvetica,sans-Serif" font-size="11.00">timestamp[29,6]</text>
<polygon fill="#ffffff" stroke="transparent" points="372.5,-205 372.5,-227 542.5,-227 542.5,-205 372.5,-205"/>
<polygon fill="none" stroke="black" points="372.5,-205 372.5,-227 542.5,-227 542.5,-205 372.5,-205"/>
<image xlink:href="../../images/foreignKeys.png" width="11px" height="12px" preserveAspectRatio="xMinYMin meet" x="377.5" y="-222"/>
<text text-anchor="start" x="392.5" y="-213.2" font-family="Helvetica,sans-Serif" font-size="11.00">fk_dataowner</text>
<polygon fill="none" stroke="black" points="542.5,-205 542.5,-227 665.5,-227 665.5,-205 542.5,-205"/>
<text text-anchor="start" x="545.5" y="-213.2" font-family="Helvetica,sans-Serif" font-size="11.00">varchar[16]</text>
<polygon fill="none" stroke="black" points="372.5,-183 372.5,-205 542.5,-205 542.5,-183 372.5,-183"/>
<image xlink:href="../../images/foreignKeys.png" width="11px" height="12px" preserveAspectRatio="xMinYMin meet" x="377.5" y="-200"/>
<text text-anchor="start" x="392.5" y="-191.2" font-family="Helvetica,sans-Serif" font-size="11.00">fk_provider</text>
<polygon fill="none" stroke="black" points="542.5,-183 542.5,-205 665.5,-205 665.5,-183 542.5,-183"/>
<text text-anchor="start" x="545.5" y="-191.2" font-family="Helvetica,sans-Serif" font-size="11.00">varchar[16]</text>
<polygon fill="none" stroke="black" points="372.5,-161 372.5,-183 542.5,-183 542.5,-161 372.5,-161"/>
<image xlink:href="../../images/foreignKeys.png" width="11px" height="12px" preserveAspectRatio="xMinYMin meet" x="377.5" y="-178"/>
<text text-anchor="start" x="392.5" y="-169.2" font-family="Helvetica,sans-Serif" font-size="11.00">fk_owner</text>
<polygon fill="none" stroke="black" points="542.5,-161 542.5,-183 665.5,-183 665.5,-161 542.5,-161"/>
<text text-anchor="start" x="545.5" y="-169.2" font-family="Helvetica,sans-Serif" font-size="11.00">varchar[16]</text>
<polygon fill="#ffffff" stroke="transparent" points="372.5,-143 372.5,-161 461.5,-161 461.5,-143 372.5,-143"/>
<polygon fill="none" stroke="black" points="372.5,-143 372.5,-161 461.5,-161 461.5,-143 372.5,-143"/>
<text text-anchor="start" x="375.5" y="-149.2" font-family="Helvetica,sans-Serif" font-size="11.00">&lt; 6</text>
<polygon fill="#ffffff" stroke="transparent" points="461.5,-143 461.5,-161 542.5,-161 542.5,-143 461.5,-143"/>
<polygon fill="none" stroke="black" points="461.5,-143 461.5,-161 542.5,-161 542.5,-143 461.5,-143"/>
<text text-anchor="start" x="532.5" y="-149.2" font-family="Helvetica,sans-Serif" font-size="11.00"> &#160;</text>
<polygon fill="#ffffff" stroke="transparent" points="542.5,-143 542.5,-161 665.5,-161 665.5,-143 542.5,-143"/>
<polygon fill="none" stroke="black" points="542.5,-143 542.5,-161 665.5,-161 665.5,-143 542.5,-143"/>
<text text-anchor="start" x="646.5" y="-149.2" font-family="Helvetica,sans-Serif" font-size="11.00">0 &gt;</text>
<polygon fill="none" stroke="black" stroke-width="2" points="371,-142 371,-558 666,-558 666,-142 371,-142"/>
</a>
</g>
</g>
<!-- tdh_vl.trench_point_elevation_determination -->
<g id="node2" class="node">
<title>tdh_vl.trench_point_elevation_determination</title>
<g id="a_node2"><a xlink:href="../../../tdh_vl/tables/trench_point_elevation_determination.html" xlink:title="tdh_vl.trench_point_elevation_determination" target="_top">
<polygon fill="#ffffff" stroke="transparent" points="8,-297 8,-355 321,-355 321,-297 8,-297"/>
<polygon fill="#f5f5f5" stroke="transparent" points="8.5,-333 8.5,-355 321.5,-355 321.5,-333 8.5,-333"/>
<polygon fill="none" stroke="black" points="8.5,-333 8.5,-355 321.5,-355 321.5,-333 8.5,-333"/>
<text text-anchor="start" x="13.5" y="-342.2" font-family="Helvetica,sans-Serif" font-weight="bold" font-size="11.00">tdh_vl.trench_point_elevation_determination</text>
<text text-anchor="start" x="282.5" y="-341.2" font-family="Helvetica,sans-Serif" font-size="11.00">[table]</text>
<polygon fill="none" stroke="black" points="8.5,-315 8.5,-333 321.5,-333 321.5,-315 8.5,-315"/>
<text text-anchor="start" x="11.5" y="-321.2" font-family="Helvetica,sans-Serif" font-size="11.00">...</text>
<polygon fill="#ffffff" stroke="transparent" points="8.5,-297 8.5,-315 140.5,-315 140.5,-297 8.5,-297"/>
<polygon fill="none" stroke="black" points="8.5,-297 8.5,-315 140.5,-315 140.5,-297 8.5,-297"/>
<text text-anchor="start" x="11.5" y="-303.2" font-family="Helvetica,sans-Serif" font-size="11.00"> &#160;</text>
<polygon fill="#ffffff" stroke="transparent" points="140.5,-297 140.5,-315 239.5,-315 239.5,-297 140.5,-297"/>
<polygon fill="none" stroke="black" points="140.5,-297 140.5,-315 239.5,-315 239.5,-297 140.5,-297"/>
<text text-anchor="start" x="202.5" y="-303.2" font-family="Helvetica,sans-Serif" font-size="11.00">0 rows</text>
<polygon fill="#ffffff" stroke="transparent" points="239.5,-297 239.5,-315 321.5,-315 321.5,-297 239.5,-297"/>
<polygon fill="none" stroke="black" points="239.5,-297 239.5,-315 321.5,-315 321.5,-297 239.5,-297"/>
<text text-anchor="start" x="302.5" y="-303.2" font-family="Helvetica,sans-Serif" font-size="11.00">1 &gt;</text>
</a>
</g>
</g>
<!-- trench_point&#45;&gt;tdh_vl.trench_point_elevation_determination -->
<g id="edge1" class="edge">
<title>trench_point:w&#45;&gt;tdh_vl.trench_point_elevation_determination:e</title>
<path fill="none" stroke="black" d="M356.81,-326C347.68,-326 338.4,-326 329.11,-326"/>
<polygon fill="black" stroke="black" points="363.5,-326 371.5,-329.6 367.5,-326 371.5,-326 371.5,-326 371.5,-326 367.5,-326 371.5,-322.4 363.5,-326 363.5,-326"/>
<ellipse fill="none" stroke="black" cx="360.3" cy="-326" rx="3.2" ry="3.2"/>
</g>
<!-- organisation -->
<g id="node3" class="node">
<title>organisation</title>
<g id="a_node3"><a xlink:href="../../tables/organisation.html" xlink:title="organisation" target="_top">
<polygon fill="#ffffff" stroke="transparent" points="90.5,-37 90.5,-227 238.5,-227 238.5,-37 90.5,-37"/>
<polygon fill="#f5f5f5" stroke="transparent" points="90.5,-205 90.5,-227 238.5,-227 238.5,-205 90.5,-205"/>
<polygon fill="none" stroke="black" points="90.5,-205 90.5,-227 238.5,-227 238.5,-205 90.5,-205"/>
<text text-anchor="start" x="95.5" y="-214.2" font-family="Helvetica,sans-Serif" font-weight="bold" font-size="11.00">organisation</text>
<text text-anchor="start" x="199.5" y="-213.2" font-family="Helvetica,sans-Serif" font-size="11.00">[table]</text>
<polygon fill="none" stroke="black" points="90.5,-183 90.5,-205 238.5,-205 238.5,-183 90.5,-183"/>
<image xlink:href="../../images/primaryKeys.png" width="11px" height="12px" preserveAspectRatio="xMinYMin meet" x="95.5" y="-200"/>
<text text-anchor="start" x="110.5" y="-191.2" font-family="Helvetica,sans-Serif" font-size="11.00">obj_id</text>
<polygon fill="#ffffff" stroke="transparent" points="90.5,-161 90.5,-183 238.5,-183 238.5,-161 90.5,-161"/>
<polygon fill="none" stroke="black" points="90.5,-161 90.5,-183 238.5,-183 238.5,-161 90.5,-161"/>
<text text-anchor="start" x="110.5" y="-169.2" font-family="Helvetica,sans-Serif" font-size="11.00">identifier</text>
<polygon fill="none" stroke="black" points="90.5,-139 90.5,-161 238.5,-161 238.5,-139 90.5,-139"/>
<image xlink:href="../../images/foreignKeys.png" width="11px" height="12px" preserveAspectRatio="xMinYMin meet" x="95.5" y="-156"/>
<text text-anchor="start" x="110.5" y="-147.2" font-family="Helvetica,sans-Serif" font-size="11.00">organisation_type</text>
<polygon fill="none" stroke="black" points="90.5,-117 90.5,-139 238.5,-139 238.5,-117 90.5,-117"/>
<image xlink:href="../../images/foreignKeys.png" width="11px" height="12px" preserveAspectRatio="xMinYMin meet" x="95.5" y="-134"/>
<text text-anchor="start" x="110.5" y="-125.2" font-family="Helvetica,sans-Serif" font-size="11.00">status</text>
<polygon fill="#ffffff" stroke="transparent" points="90.5,-95 90.5,-117 238.5,-117 238.5,-95 90.5,-95"/>
<polygon fill="none" stroke="black" points="90.5,-95 90.5,-117 238.5,-117 238.5,-95 90.5,-95"/>
<image xlink:href="../../images/foreignKeys.png" width="11px" height="12px" preserveAspectRatio="xMinYMin meet" x="95.5" y="-112"/>
<text text-anchor="start" x="110.5" y="-103.2" font-family="Helvetica,sans-Serif" font-size="11.00">fk_dataowner</text>
<polygon fill="none" stroke="black" points="90.5,-73 90.5,-95 238.5,-95 238.5,-73 90.5,-73"/>
<image xlink:href="../../images/foreignKeys.png" width="11px" height="12px" preserveAspectRatio="xMinYMin meet" x="95.5" y="-90"/>
<text text-anchor="start" x="110.5" y="-81.2" font-family="Helvetica,sans-Serif" font-size="11.00">fk_provider</text>
<polygon fill="none" stroke="black" points="90.5,-55 90.5,-73 238.5,-73 238.5,-55 90.5,-55"/>
<text text-anchor="start" x="93.5" y="-61.2" font-family="Helvetica,sans-Serif" font-size="11.00">...</text>
<polygon fill="#ffffff" stroke="transparent" points="90.5,-37 90.5,-55 154.5,-55 154.5,-37 90.5,-37"/>
<polygon fill="none" stroke="black" points="90.5,-37 90.5,-55 154.5,-55 154.5,-37 90.5,-37"/>
<text text-anchor="start" x="93.5" y="-43.2" font-family="Helvetica,sans-Serif" font-size="11.00">&lt; 4</text>
<polygon fill="#ffffff" stroke="transparent" points="154.5,-37 154.5,-55 188.5,-55 188.5,-37 154.5,-37"/>
<polygon fill="none" stroke="black" points="154.5,-37 154.5,-55 188.5,-55 188.5,-37 154.5,-37"/>
<text text-anchor="start" x="178.5" y="-43.2" font-family="Helvetica,sans-Serif" font-size="11.00"> &#160;</text>
<polygon fill="#ffffff" stroke="transparent" points="188.5,-37 188.5,-55 238.5,-55 238.5,-37 188.5,-37"/>
<polygon fill="none" stroke="black" points="188.5,-37 188.5,-55 238.5,-55 238.5,-37 188.5,-37"/>
<text text-anchor="start" x="213.5" y="-43.2" font-family="Helvetica,sans-Serif" font-size="11.00">33 &gt;</text>
</a>
</g>
</g>
<!-- trench_point&#45;&gt;organisation -->
<g id="edge2" class="edge">
<title>trench_point:w&#45;&gt;organisation:e</title>
<path fill="none" stroke="black" d="M356.83,-215.52C309.37,-212.3 293.75,-194 239.5,-194"/>
<polygon fill="black" stroke="black" points="363.5,-215.74 371.38,-219.6 367.5,-215.87 371.5,-216 371.5,-216 371.5,-216 367.5,-215.87 371.62,-212.4 363.5,-215.74 363.5,-215.74"/>
<ellipse fill="none" stroke="black" cx="360.31" cy="-215.63" rx="3.2" ry="3.2"/>
</g>
<!-- trench_point&#45;&gt;organisation -->
<g id="edge3" class="edge">
<title>trench_point:w&#45;&gt;organisation:e</title>
<path fill="none" stroke="black" d="M356.83,-172.48C309.37,-175.7 293.75,-194 239.5,-194"/>
<polygon fill="black" stroke="black" points="363.5,-172.26 371.62,-175.6 367.5,-172.13 371.5,-172 371.5,-172 371.5,-172 367.5,-172.13 371.38,-168.4 363.5,-172.26 363.5,-172.26"/>
<ellipse fill="none" stroke="black" cx="360.31" cy="-172.37" rx="3.2" ry="3.2"/>
</g>
<!-- trench_point&#45;&gt;organisation -->
<g id="edge4" class="edge">
<title>trench_point:w&#45;&gt;organisation:e</title>
<path fill="none" stroke="black" d="M356.99,-194C309.92,-194 293.01,-194 239.5,-194"/>
<polygon fill="black" stroke="black" points="363.5,-194 371.5,-197.6 367.5,-194 371.5,-194 371.5,-194 371.5,-194 367.5,-194 371.5,-190.4 363.5,-194 363.5,-194"/>
<ellipse fill="none" stroke="black" cx="360.3" cy="-194" rx="3.2" ry="3.2"/>
</g>
<!-- tdh_vl.trench_point_horizontal_positioning -->
<g id="node4" class="node">
<title>tdh_vl.trench_point_horizontal_positioning</title>
<g id="a_node4"><a xlink:href="../../../tdh_vl/tables/trench_point_horizontal_positioning.html" xlink:title="tdh_vl.trench_point_horizontal_positioning" target="_top">
<polygon fill="#ffffff" stroke="transparent" points="15.5,-470 15.5,-528 313.5,-528 313.5,-470 15.5,-470"/>
<polygon fill="#f5f5f5" stroke="transparent" points="15.5,-506 15.5,-528 313.5,-528 313.5,-506 15.5,-506"/>
<polygon fill="none" stroke="black" points="15.5,-506 15.5,-528 313.5,-528 313.5,-506 15.5,-506"/>
<text text-anchor="start" x="20.5" y="-515.2" font-family="Helvetica,sans-Serif" font-weight="bold" font-size="11.00">tdh_vl.trench_point_horizontal_positioning</text>
<text text-anchor="start" x="274.5" y="-514.2" font-family="Helvetica,sans-Serif" font-size="11.00">[table]</text>
<polygon fill="none" stroke="black" points="15.5,-488 15.5,-506 313.5,-506 313.5,-488 15.5,-488"/>
<text text-anchor="start" x="18.5" y="-494.2" font-family="Helvetica,sans-Serif" font-size="11.00">...</text>
<polygon fill="#ffffff" stroke="transparent" points="15.5,-470 15.5,-488 139.5,-488 139.5,-470 15.5,-470"/>
<polygon fill="none" stroke="black" points="15.5,-470 15.5,-488 139.5,-488 139.5,-470 15.5,-470"/>
<text text-anchor="start" x="18.5" y="-476.2" font-family="Helvetica,sans-Serif" font-size="11.00"> &#160;</text>
<polygon fill="#ffffff" stroke="transparent" points="139.5,-470 139.5,-488 235.5,-488 235.5,-470 139.5,-470"/>
<polygon fill="none" stroke="black" points="139.5,-470 139.5,-488 235.5,-488 235.5,-470 139.5,-470"/>
<text text-anchor="start" x="198.5" y="-476.2" font-family="Helvetica,sans-Serif" font-size="11.00">0 rows</text>
<polygon fill="#ffffff" stroke="transparent" points="235.5,-470 235.5,-488 313.5,-488 313.5,-470 235.5,-470"/>
<polygon fill="none" stroke="black" points="235.5,-470 235.5,-488 313.5,-488 313.5,-470 235.5,-470"/>
<text text-anchor="start" x="294.5" y="-476.2" font-family="Helvetica,sans-Serif" font-size="11.00">1 &gt;</text>
</a>
</g>
</g>
<!-- trench_point&#45;&gt;tdh_vl.trench_point_horizontal_positioning -->
<g id="edge5" class="edge">
<title>trench_point:w&#45;&gt;tdh_vl.trench_point_horizontal_positioning:e</title>
<path fill="none" stroke="black" d="M356.85,-458.32C334.96,-459.25 312.41,-462.13 290.82,-465.95"/>
<polygon fill="black" stroke="black" points="363.5,-458.17 371.58,-461.6 367.5,-458.09 371.5,-458 371.5,-458 371.5,-458 367.5,-458.09 371.42,-454.4 363.5,-458.17 363.5,-458.17"/>
<ellipse fill="none" stroke="black" cx="360.3" cy="-458.24" rx="3.2" ry="3.2"/>
</g>
<!-- tdh_vl.trench_point_kind -->
<g id="node5" class="node">
<title>tdh_vl.trench_point_kind</title>
<g id="a_node5"><a xlink:href="../../../tdh_vl/tables/trench_point_kind.html" xlink:title="tdh_vl.trench_point_kind" target="_top">
<polygon fill="#ffffff" stroke="transparent" points="69,-391 69,-449 260,-449 260,-391 69,-391"/>
<polygon fill="#f5f5f5" stroke="transparent" points="69.5,-427 69.5,-449 260.5,-449 260.5,-427 69.5,-427"/>
<polygon fill="none" stroke="black" points="69.5,-427 69.5,-449 260.5,-449 260.5,-427 69.5,-427"/>
<text text-anchor="start" x="74.5" y="-436.2" font-family="Helvetica,sans-Serif" font-weight="bold" font-size="11.00">tdh_vl.trench_point_kind</text>
<text text-anchor="start" x="221.5" y="-435.2" font-family="Helvetica,sans-Serif" font-size="11.00">[table]</text>
<polygon fill="none" stroke="black" points="69.5,-409 69.5,-427 260.5,-427 260.5,-409 69.5,-409"/>
<text text-anchor="start" x="72.5" y="-415.2" font-family="Helvetica,sans-Serif" font-size="11.00">...</text>
<polygon fill="#ffffff" stroke="transparent" points="69.5,-391 69.5,-409 140.5,-409 140.5,-391 69.5,-391"/>
<polygon fill="none" stroke="black" points="69.5,-391 69.5,-409 140.5,-409 140.5,-391 69.5,-391"/>
<text text-anchor="start" x="72.5" y="-397.2" font-family="Helvetica,sans-Serif" font-size="11.00"> &#160;</text>
<polygon fill="#ffffff" stroke="transparent" points="140.5,-391 140.5,-409 209.5,-409 209.5,-391 140.5,-391"/>
<polygon fill="none" stroke="black" points="140.5,-391 140.5,-409 209.5,-409 209.5,-391 140.5,-391"/>
<text text-anchor="start" x="172.5" y="-397.2" font-family="Helvetica,sans-Serif" font-size="11.00">0 rows</text>
<polygon fill="#ffffff" stroke="transparent" points="209.5,-391 209.5,-409 260.5,-409 260.5,-391 209.5,-391"/>
<polygon fill="none" stroke="black" points="209.5,-391 209.5,-409 260.5,-409 260.5,-391 209.5,-391"/>
<text text-anchor="start" x="241.5" y="-397.2" font-family="Helvetica,sans-Serif" font-size="11.00">1 &gt;</text>
</a>
</g>
</g>
<!-- trench_point&#45;&gt;tdh_vl.trench_point_kind -->
<g id="edge6" class="edge">
<title>trench_point:w&#45;&gt;tdh_vl.trench_point_kind:e</title>
<path fill="none" stroke="black" d="M356.71,-435.87C327.24,-435.36 296.28,-433.45 268.07,-431.11"/>
<polygon fill="black" stroke="black" points="363.5,-435.93 371.47,-439.6 367.5,-435.96 371.5,-436 371.5,-436 371.5,-436 367.5,-435.96 371.53,-432.4 363.5,-435.93 363.5,-435.93"/>
<ellipse fill="none" stroke="black" cx="360.3" cy="-435.9" rx="3.2" ry="3.2"/>
</g>
</g>
</svg>
