<?xml version="1.0" encoding="UTF-8" standalone="no"?>
<!DOCTYPE svg PUBLIC "-//W3C//DTD SVG 1.1//EN"
 "http://www.w3.org/Graphics/SVG/1.1/DTD/svg11.dtd">
<!-- Generated by graphviz version 2.43.0 (0)
 -->
<!-- Title: oneDegreeRelationshipsDiagram Pages: 1 -->
<svg width="605pt" height="461pt"
 viewBox="0.00 0.00 605.00 461.00" xmlns="http://www.w3.org/2000/svg" xmlns:xlink="http://www.w3.org/1999/xlink">
<g id="graph0" class="graph" transform="scale(1 1) rotate(0) translate(4 457)">
<title>oneDegreeRelationshipsDiagram</title>
<polygon fill="#ffffff" stroke="transparent" points="-4,4 -4,-457 601,-457 601,4 -4,4"/>
<text text-anchor="middle" x="79.5" y="-7.2" font-family="Helvetica,sans-Serif" font-size="11.00">Generated by SchemaSpy</text>
<!-- trench_line -->
<g id="node1" class="node">
<title>trench_line</title>
<g id="a_node1"><a xlink:href="../../tables/trench_line.html" xlink:title="trench_line" target="_top">
<polygon fill="#ffffff" stroke="transparent" points="263,-317 263,-449 589,-449 589,-317 263,-317"/>
<polygon fill="#f5f5f5" stroke="transparent" points="265,-425 265,-447 587,-447 587,-425 265,-425"/>
<polygon fill="none" stroke="black" points="265,-425 265,-447 587,-447 587,-425 265,-425"/>
<text text-anchor="start" x="270" y="-434.2" font-family="Helvetica,sans-Serif" font-weight="bold" font-size="11.00">trench_line</text>
<text text-anchor="start" x="545" y="-433.2" font-family="Helvetica,sans-Serif" font-size="11.00">[table]</text>
<polygon fill="none" stroke="black" points="265,-403 265,-425 451,-425 451,-403 265,-403"/>
<image xlink:href="../../images/primaryKeys.png" width="11px" height="12px" preserveAspectRatio="xMinYMin meet" x="270" y="-420"/>
<text text-anchor="start" x="285" y="-411.2" font-family="Helvetica,sans-Serif" font-size="11.00">id</text>
<polygon fill="none" stroke="black" points="451,-403 451,-425 587,-425 587,-403 451,-403"/>
<text text-anchor="start" x="454" y="-411.2" font-family="Helvetica,sans-Serif" font-size="11.00">uuid[2147483647]</text>
<polygon fill="#ffffff" stroke="transparent" points="265,-381 265,-403 451,-403 451,-381 265,-381"/>
<polygon fill="none" stroke="black" points="265,-381 265,-403 451,-403 451,-381 265,-381"/>
<text text-anchor="start" x="285" y="-389.2" font-family="Helvetica,sans-Serif" font-size="11.00">geometry3d_geometry</text>
<polygon fill="none" stroke="black" points="451,-381 451,-403 587,-403 587,-381 451,-381"/>
<text text-anchor="start" x="454" y="-389.2" font-family="Helvetica,sans-Serif" font-size="11.00">geometry[2147483647]</text>
<polygon fill="none" stroke="black" points="265,-359 265,-381 451,-381 451,-359 265,-359"/>
<text text-anchor="start" x="285" y="-367.2" font-family="Helvetica,sans-Serif" font-size="11.00">last_modification</text>
<polygon fill="none" stroke="black" points="451,-359 451,-381 587,-381 587,-359 451,-359"/>
<text text-anchor="start" x="454" y="-367.2" font-family="Helvetica,sans-Serif" font-size="11.00">timestamp[29,6]</text>
<polygon fill="none" stroke="black" points="265,-337 265,-359 451,-359 451,-337 265,-337"/>
<image xlink:href="../../images/foreignKeys.png" width="11px" height="12px" preserveAspectRatio="xMinYMin meet" x="270" y="-354"/>
<text text-anchor="start" x="285" y="-345.2" font-family="Helvetica,sans-Serif" font-size="11.00">fk_trench</text>
<polygon fill="none" stroke="black" points="451,-337 451,-359 587,-359 587,-337 451,-337"/>
<text text-anchor="start" x="454" y="-345.2" font-family="Helvetica,sans-Serif" font-size="11.00">varchar[16]</text>
<polygon fill="#ffffff" stroke="transparent" points="265,-319 265,-337 587,-337 587,-319 265,-319"/>
<polygon fill="none" stroke="black" points="265,-319 265,-337 587,-337 587,-319 265,-319"/>
<polygon fill="#ffffff" stroke="transparent" points="266,-320 266,-336 377,-336 377,-320 266,-320"/>
<text text-anchor="start" x="268" y="-325.2" font-family="Helvetica,sans-Serif" font-size="11.00">&lt; 1</text>
<polygon fill="#ffffff" stroke="transparent" points="377,-320 377,-336 476,-336 476,-320 377,-320"/>
<text text-anchor="start" x="422.5" y="-325.2" font-family="Helvetica,sans-Serif" font-size="11.00"> &#160;</text>
<polygon fill="#ffffff" stroke="transparent" points="476,-320 476,-336 586,-336 586,-320 476,-320"/>
<text text-anchor="start" x="564" y="-325.2" font-family="Helvetica,sans-Serif" font-size="11.00">0 &gt;</text>
<polygon fill="black" stroke="black" points="377,-320 377,-336 377,-336 377,-320 377,-320"/>
<polygon fill="black" stroke="black" points="476,-320 476,-336 476,-336 476,-320 476,-320"/>
<polygon fill="none" stroke="black" stroke-width="2" points="264,-318 264,-448 588,-448 588,-318 264,-318"/>
</a>
</g>
</g>
<!-- trench -->
<g id="node2" class="node">
<title>trench</title>
<g id="a_node2"><a xlink:href="../../tables/trench.html" xlink:title="trench" target="_top">
<polygon fill="#ffffff" stroke="transparent" points="8,-37 8,-381 214,-381 214,-37 8,-37"/>
<polygon fill="#f5f5f5" stroke="transparent" points="8,-359 8,-381 214,-381 214,-359 8,-359"/>
<polygon fill="none" stroke="black" points="8,-359 8,-381 214,-381 214,-359 8,-359"/>
<text text-anchor="start" x="13" y="-368.2" font-family="Helvetica,sans-Serif" font-weight="bold" font-size="11.00">trench</text>
<text text-anchor="start" x="172" y="-367.2" font-family="Helvetica,sans-Serif" font-size="11.00">[table]</text>
<polygon fill="none" stroke="black" points="8,-337 8,-359 214,-359 214,-337 8,-337"/>
<image xlink:href="../../images/primaryKeys.png" width="11px" height="12px" preserveAspectRatio="xMinYMin meet" x="13" y="-354"/>
<text text-anchor="start" x="28" y="-345.2" font-family="Helvetica,sans-Serif" font-size="11.00">obj_id</text>
<polygon fill="#ffffff" stroke="transparent" points="8,-315 8,-337 214,-337 214,-315 8,-315"/>
<polygon fill="none" stroke="black" points="8,-315 8,-337 214,-337 214,-315 8,-315"/>
<text text-anchor="start" x="28" y="-323.2" font-family="Helvetica,sans-Serif" font-size="11.00">name_number</text>
<polygon fill="#ffffff" stroke="transparent" points="8,-293 8,-315 214,-315 214,-293 8,-293"/>
<polygon fill="none" stroke="black" points="8,-293 8,-315 214,-315 214,-293 8,-293"/>
<text text-anchor="start" x="28" y="-301.2" font-family="Helvetica,sans-Serif" font-size="11.00">geometry3d_geometry</text>
<polygon fill="none" stroke="black" points="8,-271 8,-293 214,-293 214,-271 8,-271"/>
<image xlink:href="../../images/foreignKeys.png" width="11px" height="12px" preserveAspectRatio="xMinYMin meet" x="13" y="-288"/>
<text text-anchor="start" x="28" y="-279.2" font-family="Helvetica,sans-Serif" font-size="11.00">horizontal_positioning</text>
<polygon fill="none" stroke="black" points="8,-249 8,-271 214,-271 214,-249 8,-249"/>
<image xlink:href="../../images/foreignKeys.png" width="11px" height="12px" preserveAspectRatio="xMinYMin meet" x="13" y="-266"/>
<text text-anchor="start" x="28" y="-257.2" font-family="Helvetica,sans-Serif" font-size="11.00">status</text>
<polygon fill="none" stroke="black" points="8,-227 8,-249 214,-249 214,-227 8,-227"/>
<image xlink:href="../../images/foreignKeys.png" width="11px" height="12px" preserveAspectRatio="xMinYMin meet" x="13" y="-244"/>
<text text-anchor="start" x="28" y="-235.2" font-family="Helvetica,sans-Serif" font-size="11.00">trench_type</text>
<polygon fill="none" stroke="black" points="8,-205 8,-227 214,-227 214,-205 8,-205"/>
<image xlink:href="../../images/foreignKeys.png" width="11px" height="12px" preserveAspectRatio="xMinYMin meet" x="13" y="-222"/>
<text text-anchor="start" x="28" y="-213.2" font-family="Helvetica,sans-Serif" font-size="11.00">embedding</text>
<polygon fill="none" stroke="black" points="8,-183 8,-205 214,-205 214,-183 8,-183"/>
<image xlink:href="../../images/foreignKeys.png" width="11px" height="12px" preserveAspectRatio="xMinYMin meet" x="13" y="-200"/>
<text text-anchor="start" x="28" y="-191.2" font-family="Helvetica,sans-Serif" font-size="11.00">control_system</text>
<polygon fill="none" stroke="black" points="8,-161 8,-183 214,-183 214,-161 8,-161"/>
<image xlink:href="../../images/foreignKeys.png" width="11px" height="12px" preserveAspectRatio="xMinYMin meet" x="13" y="-178"/>
<text text-anchor="start" x="28" y="-169.2" font-family="Helvetica,sans-Serif" font-size="11.00">cable_conduits</text>
<polygon fill="#ffffff" stroke="transparent" points="8,-139 8,-161 214,-161 214,-139 8,-139"/>
<polygon fill="none" stroke="black" points="8,-139 8,-161 214,-161 214,-139 8,-139"/>
<image xlink:href="../../images/foreignKeys.png" width="11px" height="12px" preserveAspectRatio="xMinYMin meet" x="13" y="-156"/>
<text text-anchor="start" x="28" y="-147.2" font-family="Helvetica,sans-Serif" font-size="11.00">fk_dataowner</text>
<polygon fill="none" stroke="black" points="8,-117 8,-139 214,-139 214,-117 8,-117"/>
<image xlink:href="../../images/foreignKeys.png" width="11px" height="12px" preserveAspectRatio="xMinYMin meet" x="13" y="-134"/>
<text text-anchor="start" x="28" y="-125.2" font-family="Helvetica,sans-Serif" font-size="11.00">fk_provider</text>
<polygon fill="none" stroke="black" points="8,-95 8,-117 214,-117 214,-95 8,-95"/>
<image xlink:href="../../images/foreignKeys.png" width="11px" height="12px" preserveAspectRatio="xMinYMin meet" x="13" y="-112"/>
<text text-anchor="start" x="28" y="-103.2" font-family="Helvetica,sans-Serif" font-size="11.00">fk_owner</text>
<polygon fill="none" stroke="black" points="8,-73 8,-95 214,-95 214,-73 8,-73"/>
<image xlink:href="../../images/foreignKeys.png" width="11px" height="12px" preserveAspectRatio="xMinYMin meet" x="13" y="-90"/>
<text text-anchor="start" x="28" y="-81.2" font-family="Helvetica,sans-Serif" font-size="11.00">fk_construction_company</text>
<polygon fill="none" stroke="black" points="8,-55 8,-73 214,-73 214,-55 8,-55"/>
<text text-anchor="start" x="11" y="-61.2" font-family="Helvetica,sans-Serif" font-size="11.00">...</text>
<polygon fill="#ffffff" stroke="transparent" points="8,-37 8,-55 214,-55 214,-37 8,-37"/>
<polygon fill="none" stroke="black" points="8,-37 8,-55 214,-55 214,-37 8,-37"/>
<polygon fill="#ffffff" stroke="transparent" points="9,-38 9,-54 86,-54 86,-38 9,-38"/>
<text text-anchor="start" x="11" y="-43.2" font-family="Helvetica,sans-Serif" font-size="11.00">&lt; 10</text>
<polygon fill="#ffffff" stroke="transparent" points="86,-38 86,-54 144,-54 144,-38 86,-38"/>
<text text-anchor="start" x="111" y="-43.2" font-family="Helvetica,sans-Serif" font-size="11.00"> &#160;</text>
<polygon fill="#ffffff" stroke="transparent" points="144,-38 144,-54 213,-54 213,-38 144,-38"/>
<text text-anchor="start" x="191" y="-43.2" font-family="Helvetica,sans-Serif" font-size="11.00">1 &gt;</text>
<polygon fill="black" stroke="black" points="86,-38 86,-54 86,-54 86,-38 86,-38"/>
<polygon fill="black" stroke="black" points="144,-38 144,-54 144,-54 144,-38 144,-38"/>
</a>
</g>
</g>
<!-- trench_line&#45;&gt;trench -->
<g id="edge1" class="edge">
<title>trench_line:w&#45;&gt;trench:e</title>
<path fill="none" stroke="black" d="M249.49,-348C238.18,-348 230.99,-348 215,-348"/>
<polygon fill="black" stroke="black" points="256,-348 264,-351.6 260,-348 264,-348 264,-348 264,-348 260,-348 264,-344.4 256,-348 256,-348"/>
<ellipse fill="none" stroke="black" cx="252.8" cy="-348" rx="3.2" ry="3.2"/>
</g>
</g>
</svg>
