<?xml version="1.0" encoding="UTF-8" standalone="no"?>
<!DOCTYPE svg PUBLIC "-//W3C//DTD SVG 1.1//EN"
 "http://www.w3.org/Graphics/SVG/1.1/DTD/svg11.dtd">
<!-- Generated by graphviz version 2.47.1 (20210515.0534)
 -->
<!-- Title: oneDegreeRelationshipsDiagram Pages: 1 -->
<svg width="534pt" height="421pt"
 viewBox="0.00 0.00 534.00 421.00" xmlns="http://www.w3.org/2000/svg" xmlns:xlink="http://www.w3.org/1999/xlink">
<g id="graph0" class="graph" transform="scale(1 1) rotate(0) translate(4 417)">
<title>oneDegreeRelationshipsDiagram</title>
<polygon fill="#ffffff" stroke="transparent" points="-4,4 -4,-417 530,-417 530,4 -4,4"/>
<text text-anchor="middle" x="73.5" y="-7.2" font-family="Helvetica,sans-Serif" font-size="11.00">Generated by SchemaSpy</text>
<!-- tdh_od.pipe_point_normal -->
<g id="node1" class="node">
<title>tdh_od.pipe_point_normal</title>
<g id="a_node1"><a xlink:href="../../../tdh_od/tables/pipe_point_normal.html" xlink:title="tdh_od.pipe_point_normal" target="_top">
<polygon fill="#ffffff" stroke="transparent" points="319,-285 319,-409 518,-409 518,-285 319,-285"/>
<polygon fill="#f5f5f5" stroke="transparent" points="319.5,-387 319.5,-409 518.5,-409 518.5,-387 319.5,-387"/>
<polygon fill="none" stroke="black" points="319.5,-387 319.5,-409 518.5,-409 518.5,-387 319.5,-387"/>
<text text-anchor="start" x="324.5" y="-396.2" font-family="Helvetica,sans-Serif" font-weight="bold" font-size="11.00">tdh_od.pipe_point_normal</text>
<text text-anchor="start" x="479.5" y="-395.2" font-family="Helvetica,sans-Serif" font-size="11.00">[table]</text>
<polygon fill="none" stroke="black" points="319.5,-365 319.5,-387 518.5,-387 518.5,-365 319.5,-365"/>
<image xlink:href="../../images/foreignKeys.png" width="11px" height="12px" preserveAspectRatio="xMinYMin meet" x="324.5" y="-382"/>
<text text-anchor="start" x="373.5" y="-373.2" font-family="Helvetica,sans-Serif" font-size="11.00">kind</text>
<polygon fill="none" stroke="black" points="319.5,-343 319.5,-365 518.5,-365 518.5,-343 319.5,-343"/>
<image xlink:href="../../images/foreignKeys.png" width="11px" height="12px" preserveAspectRatio="xMinYMin meet" x="324.5" y="-360"/>
<text text-anchor="start" x="373.5" y="-351.2" font-family="Helvetica,sans-Serif" font-size="11.00">armature_setting</text>
<polygon fill="none" stroke="black" points="319.5,-321 319.5,-343 518.5,-343 518.5,-321 319.5,-321"/>
<image xlink:href="../../images/foreignKeys.png" width="11px" height="12px" preserveAspectRatio="xMinYMin meet" x="324.5" y="-338"/>
<text text-anchor="start" x="373.5" y="-329.2" font-family="Helvetica,sans-Serif" font-size="11.00">material</text>
<polygon fill="none" stroke="black" points="319.5,-303 319.5,-321 518.5,-321 518.5,-303 319.5,-303"/>
<text text-anchor="start" x="322.5" y="-309.2" font-family="Helvetica,sans-Serif" font-size="11.00">...</text>
<polygon fill="#ffffff" stroke="transparent" points="319.5,-285 319.5,-303 403.5,-303 403.5,-285 319.5,-285"/>
<polygon fill="none" stroke="black" points="319.5,-285 319.5,-303 403.5,-303 403.5,-285 319.5,-285"/>
<text text-anchor="start" x="322.5" y="-291.2" font-family="Helvetica,sans-Serif" font-size="11.00">&lt; 3</text>
<polygon fill="#ffffff" stroke="transparent" points="403.5,-285 403.5,-303 474.5,-303 474.5,-285 403.5,-285"/>
<polygon fill="none" stroke="black" points="403.5,-285 403.5,-303 474.5,-303 474.5,-285 403.5,-285"/>
<text text-anchor="start" x="437.5" y="-291.2" font-family="Helvetica,sans-Serif" font-size="11.00">0 rows</text>
<polygon fill="#ffffff" stroke="transparent" points="474.5,-285 474.5,-303 518.5,-303 518.5,-285 474.5,-285"/>
<polygon fill="none" stroke="black" points="474.5,-285 474.5,-303 518.5,-303 518.5,-285 474.5,-285"/>
<text text-anchor="start" x="508.5" y="-291.2" font-family="Helvetica,sans-Serif" font-size="11.00"> &#160;</text>
</a>
</g>
</g>
<!-- pipe_point_normal_material -->
<g id="node2" class="node">
<title>pipe_point_normal_material</title>
<g id="a_node2"><a xlink:href="../../tables/pipe_point_normal_material.html" xlink:title="pipe_point_normal_material" target="_top">
<polygon fill="#ffffff" stroke="transparent" points="8,-37 8,-367 270,-367 270,-37 8,-37"/>
<polygon fill="#f5f5f5" stroke="transparent" points="10,-343 10,-365 268,-365 268,-343 10,-343"/>
<polygon fill="none" stroke="black" points="10,-343 10,-365 268,-365 268,-343 10,-343"/>
<text text-anchor="start" x="15" y="-352.2" font-family="Helvetica,sans-Serif" font-weight="bold" font-size="11.00">pipe_point_normal_material</text>
<text text-anchor="start" x="229" y="-351.2" font-family="Helvetica,sans-Serif" font-size="11.00">[table]</text>
<polygon fill="none" stroke="black" points="10,-321 10,-343 198,-343 198,-321 10,-321"/>
<image xlink:href="../../images/primaryKeys.png" width="11px" height="12px" preserveAspectRatio="xMinYMin meet" x="15" y="-338"/>
<text text-anchor="start" x="30" y="-329.2" font-family="Helvetica,sans-Serif" font-size="11.00">code</text>
<polygon fill="none" stroke="black" points="198,-321 198,-343 268,-343 268,-321 198,-321"/>
<text text-anchor="start" x="201" y="-329.2" font-family="Helvetica,sans-Serif" font-size="11.00">int4[10]</text>
<polygon fill="none" stroke="black" points="10,-299 10,-321 198,-321 198,-299 10,-299"/>
<text text-anchor="start" x="30" y="-307.2" font-family="Helvetica,sans-Serif" font-size="11.00">vsacode</text>
<polygon fill="none" stroke="black" points="198,-299 198,-321 268,-321 268,-299 198,-299"/>
<text text-anchor="start" x="201" y="-307.2" font-family="Helvetica,sans-Serif" font-size="11.00">int4[10]</text>
<polygon fill="none" stroke="black" points="10,-277 10,-299 198,-299 198,-277 10,-277"/>
<text text-anchor="start" x="30" y="-285.2" font-family="Helvetica,sans-Serif" font-size="11.00">value_en</text>
<polygon fill="none" stroke="black" points="198,-277 198,-299 268,-299 268,-277 198,-277"/>
<text text-anchor="start" x="201" y="-285.2" font-family="Helvetica,sans-Serif" font-size="11.00">varchar[100]</text>
<polygon fill="none" stroke="black" points="10,-255 10,-277 198,-277 198,-255 10,-255"/>
<text text-anchor="start" x="30" y="-263.2" font-family="Helvetica,sans-Serif" font-size="11.00">value_de</text>
<polygon fill="none" stroke="black" points="198,-255 198,-277 268,-277 268,-255 198,-255"/>
<text text-anchor="start" x="201" y="-263.2" font-family="Helvetica,sans-Serif" font-size="11.00">varchar[100]</text>
<polygon fill="none" stroke="black" points="10,-233 10,-255 198,-255 198,-233 10,-233"/>
<text text-anchor="start" x="30" y="-241.2" font-family="Helvetica,sans-Serif" font-size="11.00">value_fr</text>
<polygon fill="none" stroke="black" points="198,-233 198,-255 268,-255 268,-233 198,-233"/>
<text text-anchor="start" x="201" y="-241.2" font-family="Helvetica,sans-Serif" font-size="11.00">varchar[100]</text>
<polygon fill="none" stroke="black" points="10,-211 10,-233 198,-233 198,-211 10,-211"/>
<text text-anchor="start" x="30" y="-219.2" font-family="Helvetica,sans-Serif" font-size="11.00">value_it</text>
<polygon fill="none" stroke="black" points="198,-211 198,-233 268,-233 268,-211 198,-211"/>
<text text-anchor="start" x="201" y="-219.2" font-family="Helvetica,sans-Serif" font-size="11.00">varchar[100]</text>
<polygon fill="none" stroke="black" points="10,-189 10,-211 198,-211 198,-189 10,-189"/>
<text text-anchor="start" x="30" y="-197.2" font-family="Helvetica,sans-Serif" font-size="11.00">value_ro</text>
<polygon fill="none" stroke="black" points="198,-189 198,-211 268,-211 268,-189 198,-189"/>
<text text-anchor="start" x="201" y="-197.2" font-family="Helvetica,sans-Serif" font-size="11.00">varchar[100]</text>
<polygon fill="none" stroke="black" points="10,-167 10,-189 198,-189 198,-167 10,-167"/>
<text text-anchor="start" x="30" y="-175.2" font-family="Helvetica,sans-Serif" font-size="11.00">abbr_en</text>
<polygon fill="none" stroke="black" points="198,-167 198,-189 268,-189 268,-167 198,-167"/>
<text text-anchor="start" x="201" y="-175.2" font-family="Helvetica,sans-Serif" font-size="11.00">varchar[3]</text>
<polygon fill="none" stroke="black" points="10,-145 10,-167 198,-167 198,-145 10,-145"/>
<text text-anchor="start" x="30" y="-153.2" font-family="Helvetica,sans-Serif" font-size="11.00">abbr_de</text>
<polygon fill="none" stroke="black" points="198,-145 198,-167 268,-167 268,-145 198,-145"/>
<text text-anchor="start" x="201" y="-153.2" font-family="Helvetica,sans-Serif" font-size="11.00">varchar[3]</text>
<polygon fill="none" stroke="black" points="10,-123 10,-145 198,-145 198,-123 10,-123"/>
<text text-anchor="start" x="30" y="-131.2" font-family="Helvetica,sans-Serif" font-size="11.00">abbr_fr</text>
<polygon fill="none" stroke="black" points="198,-123 198,-145 268,-145 268,-123 198,-123"/>
<text text-anchor="start" x="201" y="-131.2" font-family="Helvetica,sans-Serif" font-size="11.00">varchar[3]</text>
<polygon fill="none" stroke="black" points="10,-101 10,-123 198,-123 198,-101 10,-101"/>
<text text-anchor="start" x="30" y="-109.2" font-family="Helvetica,sans-Serif" font-size="11.00">abbr_it</text>
<polygon fill="none" stroke="black" points="198,-101 198,-123 268,-123 268,-101 198,-101"/>
<text text-anchor="start" x="201" y="-109.2" font-family="Helvetica,sans-Serif" font-size="11.00">varchar[3]</text>
<polygon fill="none" stroke="black" points="10,-79 10,-101 198,-101 198,-79 10,-79"/>
<text text-anchor="start" x="30" y="-87.2" font-family="Helvetica,sans-Serif" font-size="11.00">abbr_ro</text>
<polygon fill="none" stroke="black" points="198,-79 198,-101 268,-101 268,-79 198,-79"/>
<text text-anchor="start" x="201" y="-87.2" font-family="Helvetica,sans-Serif" font-size="11.00">varchar[3]</text>
<polygon fill="none" stroke="black" points="10,-57 10,-79 198,-79 198,-57 10,-57"/>
<text text-anchor="start" x="30" y="-65.2" font-family="Helvetica,sans-Serif" font-size="11.00">active</text>
<polygon fill="none" stroke="black" points="198,-57 198,-79 268,-79 268,-57 198,-57"/>
<text text-anchor="start" x="201" y="-65.2" font-family="Helvetica,sans-Serif" font-size="11.00">bool[1]</text>
<polygon fill="#ffffff" stroke="transparent" points="10,-39 10,-57 108,-57 108,-39 10,-39"/>
<polygon fill="none" stroke="black" points="10,-39 10,-57 108,-57 108,-39 10,-39"/>
<text text-anchor="start" x="13" y="-45.2" font-family="Helvetica,sans-Serif" font-size="11.00">&lt; 0</text>
<polygon fill="#ffffff" stroke="transparent" points="108,-39 108,-57 198,-57 198,-39 108,-39"/>
<polygon fill="none" stroke="black" points="108,-39 108,-57 198,-57 198,-39 108,-39"/>
<text text-anchor="start" x="188" y="-45.2" font-family="Helvetica,sans-Serif" font-size="11.00"> &#160;</text>
<polygon fill="#ffffff" stroke="transparent" points="198,-39 198,-57 268,-57 268,-39 198,-39"/>
<polygon fill="none" stroke="black" points="198,-39 198,-57 268,-57 268,-39 198,-39"/>
<text text-anchor="start" x="249" y="-45.2" font-family="Helvetica,sans-Serif" font-size="11.00">1 &gt;</text>
<polygon fill="none" stroke="black" stroke-width="2" points="9,-38 9,-366 269,-366 269,-38 9,-38"/>
</a>
</g>
</g>
<!-- tdh_od.pipe_point_normal&#45;&gt;pipe_point_normal_material -->
<g id="edge1" class="edge">
<title>tdh_od.pipe_point_normal:w&#45;&gt;pipe_point_normal_material:e</title>
<path fill="none" stroke="black" d="M303.84,-332C292.41,-332 285.16,-332 269,-332"/>
<polygon fill="black" stroke="black" points="310.5,-332 318.5,-335.6 314.5,-332 318.5,-332 318.5,-332 318.5,-332 314.5,-332 318.5,-328.4 310.5,-332 310.5,-332"/>
<ellipse fill="none" stroke="black" cx="307.3" cy="-332" rx="3.2" ry="3.2"/>
</g>
</g>
</svg>
