<?xml version="1.0" encoding="UTF-8" standalone="no"?>
<!DOCTYPE svg PUBLIC "-//W3C//DTD SVG 1.1//EN"
 "http://www.w3.org/Graphics/SVG/1.1/DTD/svg11.dtd">
<!-- Generated by graphviz version 2.43.0 (0)
 -->
<!-- Title: oneDegreeRelationshipsDiagram Pages: 1 -->
<svg width="520pt" height="509pt"
 viewBox="0.00 0.00 520.00 509.00" xmlns="http://www.w3.org/2000/svg" xmlns:xlink="http://www.w3.org/1999/xlink">
<g id="graph0" class="graph" transform="scale(1 1) rotate(0) translate(4 505)">
<title>oneDegreeRelationshipsDiagram</title>
<polygon fill="#ffffff" stroke="transparent" points="-4,4 -4,-505 516,-505 516,4 -4,4"/>
<text text-anchor="middle" x="79.5" y="-7.2" font-family="Helvetica,sans-Serif" font-size="11.00">Generated by SchemaSpy</text>
<!-- tdh_od.pipe_section -->
<g id="node1" class="node">
<title>tdh_od.pipe_section</title>
<g id="a_node1"><a xlink:href="../../../tdh_od/tables/pipe_section.html" xlink:title="tdh_od.pipe_section" target="_top">
<polygon fill="#ffffff" stroke="transparent" points="312,-263 312,-497 504,-497 504,-263 312,-263"/>
<polygon fill="#f5f5f5" stroke="transparent" points="312,-475 312,-497 504,-497 504,-475 312,-475"/>
<polygon fill="none" stroke="black" points="312,-475 312,-497 504,-497 504,-475 312,-475"/>
<text text-anchor="start" x="317" y="-484.2" font-family="Helvetica,sans-Serif" font-weight="bold" font-size="11.00">tdh_od.pipe_section</text>
<text text-anchor="start" x="462" y="-483.2" font-family="Helvetica,sans-Serif" font-size="11.00">[table]</text>
<polygon fill="none" stroke="black" points="312,-453 312,-475 504,-475 504,-453 312,-453"/>
<image xlink:href="../../images/foreignKeys.png" width="11px" height="12px" preserveAspectRatio="xMinYMin meet" x="317" y="-470"/>
<text text-anchor="start" x="335" y="-461.2" font-family="Helvetica,sans-Serif" font-size="11.00">horizontal_positioning</text>
<polygon fill="none" stroke="black" points="312,-431 312,-453 504,-453 504,-431 312,-431"/>
<image xlink:href="../../images/foreignKeys.png" width="11px" height="12px" preserveAspectRatio="xMinYMin meet" x="317" y="-448"/>
<text text-anchor="start" x="335" y="-439.2" font-family="Helvetica,sans-Serif" font-size="11.00">status</text>
<polygon fill="none" stroke="black" points="312,-409 312,-431 504,-431 504,-409 312,-409"/>
<image xlink:href="../../images/foreignKeys.png" width="11px" height="12px" preserveAspectRatio="xMinYMin meet" x="317" y="-426"/>
<text text-anchor="start" x="335" y="-417.2" font-family="Helvetica,sans-Serif" font-size="11.00">function</text>
<polygon fill="none" stroke="black" points="312,-387 312,-409 504,-409 504,-387 312,-387"/>
<image xlink:href="../../images/foreignKeys.png" width="11px" height="12px" preserveAspectRatio="xMinYMin meet" x="317" y="-404"/>
<text text-anchor="start" x="335" y="-395.2" font-family="Helvetica,sans-Serif" font-size="11.00">pipe_type</text>
<polygon fill="none" stroke="black" points="312,-365 312,-387 504,-387 504,-365 312,-365"/>
<image xlink:href="../../images/foreignKeys.png" width="11px" height="12px" preserveAspectRatio="xMinYMin meet" x="317" y="-382"/>
<text text-anchor="start" x="335" y="-373.2" font-family="Helvetica,sans-Serif" font-size="11.00">fluent</text>
<polygon fill="none" stroke="black" points="312,-343 312,-365 504,-365 504,-343 312,-343"/>
<image xlink:href="../../images/foreignKeys.png" width="11px" height="12px" preserveAspectRatio="xMinYMin meet" x="317" y="-360"/>
<text text-anchor="start" x="335" y="-351.2" font-family="Helvetica,sans-Serif" font-size="11.00">insulation_kind</text>
<polygon fill="none" stroke="black" points="312,-321 312,-343 504,-343 504,-321 312,-321"/>
<image xlink:href="../../images/foreignKeys.png" width="11px" height="12px" preserveAspectRatio="xMinYMin meet" x="317" y="-338"/>
<text text-anchor="start" x="335" y="-329.2" font-family="Helvetica,sans-Serif" font-size="11.00">coating</text>
<polygon fill="none" stroke="black" points="312,-299 312,-321 504,-321 504,-299 312,-299"/>
<image xlink:href="../../images/foreignKeys.png" width="11px" height="12px" preserveAspectRatio="xMinYMin meet" x="317" y="-316"/>
<text text-anchor="start" x="335" y="-307.2" font-family="Helvetica,sans-Serif" font-size="11.00">pipeline_quality</text>
<polygon fill="none" stroke="black" points="312,-281 312,-299 504,-299 504,-281 312,-281"/>
<text text-anchor="start" x="315" y="-287.2" font-family="Helvetica,sans-Serif" font-size="11.00">...</text>
<polygon fill="#ffffff" stroke="transparent" points="312,-263 312,-281 504,-281 504,-263 312,-263"/>
<polygon fill="none" stroke="black" points="312,-263 312,-281 504,-281 504,-263 312,-263"/>
<polygon fill="#ffffff" stroke="transparent" points="313,-264 313,-280 375,-280 375,-264 313,-264"/>
<text text-anchor="start" x="315" y="-269.2" font-family="Helvetica,sans-Serif" font-size="11.00">&lt; 8</text>
<polygon fill="#ffffff" stroke="transparent" points="375,-264 375,-280 454,-280 454,-264 375,-264"/>
<text text-anchor="start" x="396" y="-269.2" font-family="Helvetica,sans-Serif" font-size="11.00">0 rows</text>
<polygon fill="#ffffff" stroke="transparent" points="454,-264 454,-280 503,-280 503,-264 454,-264"/>
<text text-anchor="start" x="493" y="-269.2" font-family="Helvetica,sans-Serif" font-size="11.00"> &#160;</text>
<polygon fill="black" stroke="black" points="375,-264 375,-280 375,-280 375,-264 375,-264"/>
<polygon fill="black" stroke="black" points="454,-264 454,-280 454,-280 454,-264 454,-264"/>
</a>
</g>
</g>
<!-- pipe_section_coating -->
<g id="node2" class="node">
<title>pipe_section_coating</title>
<g id="a_node2"><a xlink:href="../../tables/pipe_section_coating.html" xlink:title="pipe_section_coating" target="_top">
<polygon fill="#ffffff" stroke="transparent" points="8,-37 8,-367 263,-367 263,-37 8,-37"/>
<polygon fill="#f5f5f5" stroke="transparent" points="10.5,-343 10.5,-365 261.5,-365 261.5,-343 10.5,-343"/>
<polygon fill="none" stroke="black" points="10.5,-343 10.5,-365 261.5,-365 261.5,-343 10.5,-343"/>
<text text-anchor="start" x="15.5" y="-352.2" font-family="Helvetica,sans-Serif" font-weight="bold" font-size="11.00">pipe_section_coating</text>
<text text-anchor="start" x="219.5" y="-351.2" font-family="Helvetica,sans-Serif" font-size="11.00">[table]</text>
<polygon fill="none" stroke="black" points="10.5,-321 10.5,-343 183.5,-343 183.5,-321 10.5,-321"/>
<image xlink:href="../../images/primaryKeys.png" width="11px" height="12px" preserveAspectRatio="xMinYMin meet" x="15.5" y="-338"/>
<text text-anchor="start" x="30.5" y="-329.2" font-family="Helvetica,sans-Serif" font-size="11.00">code</text>
<polygon fill="none" stroke="black" points="183.5,-321 183.5,-343 261.5,-343 261.5,-321 183.5,-321"/>
<text text-anchor="start" x="186.5" y="-329.2" font-family="Helvetica,sans-Serif" font-size="11.00">int4[10]</text>
<polygon fill="none" stroke="black" points="10.5,-299 10.5,-321 183.5,-321 183.5,-299 10.5,-299"/>
<text text-anchor="start" x="30.5" y="-307.2" font-family="Helvetica,sans-Serif" font-size="11.00">vsacode</text>
<polygon fill="none" stroke="black" points="183.5,-299 183.5,-321 261.5,-321 261.5,-299 183.5,-299"/>
<text text-anchor="start" x="186.5" y="-307.2" font-family="Helvetica,sans-Serif" font-size="11.00">int4[10]</text>
<polygon fill="none" stroke="black" points="10.5,-277 10.5,-299 183.5,-299 183.5,-277 10.5,-277"/>
<text text-anchor="start" x="30.5" y="-285.2" font-family="Helvetica,sans-Serif" font-size="11.00">value_en</text>
<polygon fill="none" stroke="black" points="183.5,-277 183.5,-299 261.5,-299 261.5,-277 183.5,-277"/>
<text text-anchor="start" x="186.5" y="-285.2" font-family="Helvetica,sans-Serif" font-size="11.00">varchar[100]</text>
<polygon fill="none" stroke="black" points="10.5,-255 10.5,-277 183.5,-277 183.5,-255 10.5,-255"/>
<text text-anchor="start" x="30.5" y="-263.2" font-family="Helvetica,sans-Serif" font-size="11.00">value_de</text>
<polygon fill="none" stroke="black" points="183.5,-255 183.5,-277 261.5,-277 261.5,-255 183.5,-255"/>
<text text-anchor="start" x="186.5" y="-263.2" font-family="Helvetica,sans-Serif" font-size="11.00">varchar[100]</text>
<polygon fill="none" stroke="black" points="10.5,-233 10.5,-255 183.5,-255 183.5,-233 10.5,-233"/>
<text text-anchor="start" x="30.5" y="-241.2" font-family="Helvetica,sans-Serif" font-size="11.00">value_fr</text>
<polygon fill="none" stroke="black" points="183.5,-233 183.5,-255 261.5,-255 261.5,-233 183.5,-233"/>
<text text-anchor="start" x="186.5" y="-241.2" font-family="Helvetica,sans-Serif" font-size="11.00">varchar[100]</text>
<polygon fill="none" stroke="black" points="10.5,-211 10.5,-233 183.5,-233 183.5,-211 10.5,-211"/>
<text text-anchor="start" x="30.5" y="-219.2" font-family="Helvetica,sans-Serif" font-size="11.00">value_it</text>
<polygon fill="none" stroke="black" points="183.5,-211 183.5,-233 261.5,-233 261.5,-211 183.5,-211"/>
<text text-anchor="start" x="186.5" y="-219.2" font-family="Helvetica,sans-Serif" font-size="11.00">varchar[100]</text>
<polygon fill="none" stroke="black" points="10.5,-189 10.5,-211 183.5,-211 183.5,-189 10.5,-189"/>
<text text-anchor="start" x="30.5" y="-197.2" font-family="Helvetica,sans-Serif" font-size="11.00">value_ro</text>
<polygon fill="none" stroke="black" points="183.5,-189 183.5,-211 261.5,-211 261.5,-189 183.5,-189"/>
<text text-anchor="start" x="186.5" y="-197.2" font-family="Helvetica,sans-Serif" font-size="11.00">varchar[100]</text>
<polygon fill="none" stroke="black" points="10.5,-167 10.5,-189 183.5,-189 183.5,-167 10.5,-167"/>
<text text-anchor="start" x="30.5" y="-175.2" font-family="Helvetica,sans-Serif" font-size="11.00">abbr_en</text>
<polygon fill="none" stroke="black" points="183.5,-167 183.5,-189 261.5,-189 261.5,-167 183.5,-167"/>
<text text-anchor="start" x="186.5" y="-175.2" font-family="Helvetica,sans-Serif" font-size="11.00">varchar[3]</text>
<polygon fill="none" stroke="black" points="10.5,-145 10.5,-167 183.5,-167 183.5,-145 10.5,-145"/>
<text text-anchor="start" x="30.5" y="-153.2" font-family="Helvetica,sans-Serif" font-size="11.00">abbr_de</text>
<polygon fill="none" stroke="black" points="183.5,-145 183.5,-167 261.5,-167 261.5,-145 183.5,-145"/>
<text text-anchor="start" x="186.5" y="-153.2" font-family="Helvetica,sans-Serif" font-size="11.00">varchar[3]</text>
<polygon fill="none" stroke="black" points="10.5,-123 10.5,-145 183.5,-145 183.5,-123 10.5,-123"/>
<text text-anchor="start" x="30.5" y="-131.2" font-family="Helvetica,sans-Serif" font-size="11.00">abbr_fr</text>
<polygon fill="none" stroke="black" points="183.5,-123 183.5,-145 261.5,-145 261.5,-123 183.5,-123"/>
<text text-anchor="start" x="186.5" y="-131.2" font-family="Helvetica,sans-Serif" font-size="11.00">varchar[3]</text>
<polygon fill="none" stroke="black" points="10.5,-101 10.5,-123 183.5,-123 183.5,-101 10.5,-101"/>
<text text-anchor="start" x="30.5" y="-109.2" font-family="Helvetica,sans-Serif" font-size="11.00">abbr_it</text>
<polygon fill="none" stroke="black" points="183.5,-101 183.5,-123 261.5,-123 261.5,-101 183.5,-101"/>
<text text-anchor="start" x="186.5" y="-109.2" font-family="Helvetica,sans-Serif" font-size="11.00">varchar[3]</text>
<polygon fill="none" stroke="black" points="10.5,-79 10.5,-101 183.5,-101 183.5,-79 10.5,-79"/>
<text text-anchor="start" x="30.5" y="-87.2" font-family="Helvetica,sans-Serif" font-size="11.00">abbr_ro</text>
<polygon fill="none" stroke="black" points="183.5,-79 183.5,-101 261.5,-101 261.5,-79 183.5,-79"/>
<text text-anchor="start" x="186.5" y="-87.2" font-family="Helvetica,sans-Serif" font-size="11.00">varchar[3]</text>
<polygon fill="none" stroke="black" points="10.5,-57 10.5,-79 183.5,-79 183.5,-57 10.5,-57"/>
<text text-anchor="start" x="30.5" y="-65.2" font-family="Helvetica,sans-Serif" font-size="11.00">active</text>
<polygon fill="none" stroke="black" points="183.5,-57 183.5,-79 261.5,-79 261.5,-57 183.5,-57"/>
<text text-anchor="start" x="186.5" y="-65.2" font-family="Helvetica,sans-Serif" font-size="11.00">bool[1]</text>
<polygon fill="#ffffff" stroke="transparent" points="10.5,-39 10.5,-57 261.5,-57 261.5,-39 10.5,-39"/>
<polygon fill="none" stroke="black" points="10.5,-39 10.5,-57 261.5,-57 261.5,-39 10.5,-39"/>
<polygon fill="#ffffff" stroke="transparent" points="11.5,-40 11.5,-56 98.5,-56 98.5,-40 11.5,-40"/>
<text text-anchor="start" x="13.5" y="-45.2" font-family="Helvetica,sans-Serif" font-size="11.00">&lt; 0</text>
<polygon fill="#ffffff" stroke="transparent" points="98.5,-40 98.5,-56 173.5,-56 173.5,-40 98.5,-40"/>
<text text-anchor="start" x="132" y="-45.2" font-family="Helvetica,sans-Serif" font-size="11.00"> &#160;</text>
<polygon fill="#ffffff" stroke="transparent" points="173.5,-40 173.5,-56 260.5,-56 260.5,-40 173.5,-40"/>
<text text-anchor="start" x="238.5" y="-45.2" font-family="Helvetica,sans-Serif" font-size="11.00">1 &gt;</text>
<polygon fill="black" stroke="black" points="98.5,-40 98.5,-56 98.5,-56 98.5,-40 98.5,-40"/>
<polygon fill="black" stroke="black" points="173.5,-40 173.5,-56 173.5,-56 173.5,-40 173.5,-40"/>
<polygon fill="none" stroke="black" stroke-width="2" points="9,-38 9,-366 262,-366 262,-38 9,-38"/>
</a>
</g>
</g>
<!-- tdh_od.pipe_section&#45;&gt;pipe_section_coating -->
<g id="edge1" class="edge">
<title>tdh_od.pipe_section:w&#45;&gt;pipe_section_coating:e</title>
<path fill="none" stroke="black" d="M296.28,-332C285.29,-332 278.16,-332 262.5,-332"/>
<polygon fill="black" stroke="black" points="303,-332 311,-335.6 307,-332 311,-332 311,-332 311,-332 307,-332 311,-328.4 303,-332 303,-332"/>
<ellipse fill="none" stroke="black" cx="299.8" cy="-332" rx="3.2" ry="3.2"/>
</g>
</g>
</svg>
