<?xml version="1.0" encoding="UTF-8" standalone="no"?>
<!DOCTYPE svg PUBLIC "-//W3C//DTD SVG 1.1//EN"
 "http://www.w3.org/Graphics/SVG/1.1/DTD/svg11.dtd">
<!-- Generated by graphviz version 2.43.0 (0)
 -->
<!-- Title: oneDegreeRelationshipsDiagram Pages: 1 -->
<svg width="539pt" height="619pt"
 viewBox="0.00 0.00 539.00 619.00" xmlns="http://www.w3.org/2000/svg" xmlns:xlink="http://www.w3.org/1999/xlink">
<g id="graph0" class="graph" transform="scale(1 1) rotate(0) translate(4 615)">
<title>oneDegreeRelationshipsDiagram</title>
<polygon fill="#ffffff" stroke="transparent" points="-4,4 -4,-615 535,-615 535,4 -4,4"/>
<text text-anchor="middle" x="79.5" y="-7.2" font-family="Helvetica,sans-Serif" font-size="11.00">Generated by SchemaSpy</text>
<!-- tdh_od.pipe_section -->
<g id="node1" class="node">
<title>tdh_od.pipe_section</title>
<g id="a_node1"><a xlink:href="../../../tdh_od/tables/pipe_section.html" xlink:title="tdh_od.pipe_section" target="_top">
<polygon fill="#ffffff" stroke="transparent" points="331,-285 331,-607 523,-607 523,-285 331,-285"/>
<polygon fill="#f5f5f5" stroke="transparent" points="331,-585 331,-607 523,-607 523,-585 331,-585"/>
<polygon fill="none" stroke="black" points="331,-585 331,-607 523,-607 523,-585 331,-585"/>
<text text-anchor="start" x="336" y="-594.2" font-family="Helvetica,sans-Serif" font-weight="bold" font-size="11.00">tdh_od.pipe_section</text>
<text text-anchor="start" x="481" y="-593.2" font-family="Helvetica,sans-Serif" font-size="11.00">[table]</text>
<polygon fill="none" stroke="black" points="331,-563 331,-585 523,-585 523,-563 331,-563"/>
<image xlink:href="../../images/foreignKeys.png" width="11px" height="12px" preserveAspectRatio="xMinYMin meet" x="336" y="-580"/>
<text text-anchor="start" x="354" y="-571.2" font-family="Helvetica,sans-Serif" font-size="11.00">horizontal_positioning</text>
<polygon fill="none" stroke="black" points="331,-541 331,-563 523,-563 523,-541 331,-541"/>
<image xlink:href="../../images/foreignKeys.png" width="11px" height="12px" preserveAspectRatio="xMinYMin meet" x="336" y="-558"/>
<text text-anchor="start" x="354" y="-549.2" font-family="Helvetica,sans-Serif" font-size="11.00">status</text>
<polygon fill="none" stroke="black" points="331,-519 331,-541 523,-541 523,-519 331,-519"/>
<image xlink:href="../../images/foreignKeys.png" width="11px" height="12px" preserveAspectRatio="xMinYMin meet" x="336" y="-536"/>
<text text-anchor="start" x="354" y="-527.2" font-family="Helvetica,sans-Serif" font-size="11.00">function</text>
<polygon fill="none" stroke="black" points="331,-497 331,-519 523,-519 523,-497 331,-497"/>
<image xlink:href="../../images/foreignKeys.png" width="11px" height="12px" preserveAspectRatio="xMinYMin meet" x="336" y="-514"/>
<text text-anchor="start" x="354" y="-505.2" font-family="Helvetica,sans-Serif" font-size="11.00">pipe_type</text>
<polygon fill="none" stroke="black" points="331,-475 331,-497 523,-497 523,-475 331,-475"/>
<image xlink:href="../../images/foreignKeys.png" width="11px" height="12px" preserveAspectRatio="xMinYMin meet" x="336" y="-492"/>
<text text-anchor="start" x="354" y="-483.2" font-family="Helvetica,sans-Serif" font-size="11.00">fluent</text>
<polygon fill="none" stroke="black" points="331,-453 331,-475 523,-475 523,-453 331,-453"/>
<image xlink:href="../../images/foreignKeys.png" width="11px" height="12px" preserveAspectRatio="xMinYMin meet" x="336" y="-470"/>
<text text-anchor="start" x="354" y="-461.2" font-family="Helvetica,sans-Serif" font-size="11.00">insulation_kind</text>
<polygon fill="none" stroke="black" points="331,-431 331,-453 523,-453 523,-431 331,-431"/>
<image xlink:href="../../images/foreignKeys.png" width="11px" height="12px" preserveAspectRatio="xMinYMin meet" x="336" y="-448"/>
<text text-anchor="start" x="354" y="-439.2" font-family="Helvetica,sans-Serif" font-size="11.00">coating</text>
<polygon fill="none" stroke="black" points="331,-409 331,-431 523,-431 523,-409 331,-409"/>
<image xlink:href="../../images/foreignKeys.png" width="11px" height="12px" preserveAspectRatio="xMinYMin meet" x="336" y="-426"/>
<text text-anchor="start" x="354" y="-417.2" font-family="Helvetica,sans-Serif" font-size="11.00">pipeline_quality</text>
<polygon fill="none" stroke="black" points="331,-387 331,-409 523,-409 523,-387 331,-387"/>
<image xlink:href="../../images/foreignKeys.png" width="11px" height="12px" preserveAspectRatio="xMinYMin meet" x="336" y="-404"/>
<text text-anchor="start" x="354" y="-395.2" font-family="Helvetica,sans-Serif" font-size="11.00">mg_material</text>
<polygon fill="none" stroke="black" points="331,-365 331,-387 523,-387 523,-365 331,-365"/>
<image xlink:href="../../images/foreignKeys.png" width="11px" height="12px" preserveAspectRatio="xMinYMin meet" x="336" y="-382"/>
<text text-anchor="start" x="354" y="-373.2" font-family="Helvetica,sans-Serif" font-size="11.00">mg_diameter</text>
<polygon fill="none" stroke="black" points="331,-343 331,-365 523,-365 523,-343 331,-343"/>
<image xlink:href="../../images/foreignKeys.png" width="11px" height="12px" preserveAspectRatio="xMinYMin meet" x="336" y="-360"/>
<text text-anchor="start" x="354" y="-351.2" font-family="Helvetica,sans-Serif" font-size="11.00">mg_trench_type</text>
<polygon fill="none" stroke="black" points="331,-321 331,-343 523,-343 523,-321 331,-321"/>
<image xlink:href="../../images/foreignKeys.png" width="11px" height="12px" preserveAspectRatio="xMinYMin meet" x="336" y="-338"/>
<text text-anchor="start" x="354" y="-329.2" font-family="Helvetica,sans-Serif" font-size="11.00">mg_signaling_band</text>
<polygon fill="none" stroke="black" points="331,-303 331,-321 523,-321 523,-303 331,-303"/>
<text text-anchor="start" x="334" y="-309.2" font-family="Helvetica,sans-Serif" font-size="11.00">...</text>
<polygon fill="#ffffff" stroke="transparent" points="331,-285 331,-303 523,-303 523,-285 331,-285"/>
<polygon fill="none" stroke="black" points="331,-285 331,-303 523,-303 523,-285 331,-285"/>
<polygon fill="#ffffff" stroke="transparent" points="332,-286 332,-302 399,-302 399,-286 332,-286"/>
<text text-anchor="start" x="334" y="-291.2" font-family="Helvetica,sans-Serif" font-size="11.00">&lt; 12</text>
<polygon fill="#ffffff" stroke="transparent" points="399,-286 399,-302 475,-302 475,-286 399,-286"/>
<text text-anchor="start" x="418.5" y="-291.2" font-family="Helvetica,sans-Serif" font-size="11.00">0 rows</text>
<polygon fill="#ffffff" stroke="transparent" points="475,-286 475,-302 522,-302 522,-286 475,-286"/>
<text text-anchor="start" x="512" y="-291.2" font-family="Helvetica,sans-Serif" font-size="11.00"> &#160;</text>
<polygon fill="black" stroke="black" points="399,-286 399,-302 399,-302 399,-286 399,-286"/>
<polygon fill="black" stroke="black" points="475,-286 475,-302 475,-302 475,-286 475,-286"/>
</a>
</g>
</g>
<!-- pipe_section_status -->
<g id="node2" class="node">
<title>pipe_section_status</title>
<g id="a_node2"><a xlink:href="../../tables/pipe_section_status.html" xlink:title="pipe_section_status" target="_top">
<polygon fill="#ffffff" stroke="transparent" points="8,-37 8,-587 282,-587 282,-37 8,-37"/>
<polygon fill="#f5f5f5" stroke="transparent" points="10,-563 10,-585 280,-585 280,-563 10,-563"/>
<polygon fill="none" stroke="black" points="10,-563 10,-585 280,-585 280,-563 10,-563"/>
<text text-anchor="start" x="15" y="-572.2" font-family="Helvetica,sans-Serif" font-weight="bold" font-size="11.00">pipe_section_status</text>
<text text-anchor="start" x="238" y="-571.2" font-family="Helvetica,sans-Serif" font-size="11.00">[table]</text>
<polygon fill="none" stroke="black" points="10,-541 10,-563 174,-563 174,-541 10,-541"/>
<image xlink:href="../../images/primaryKeys.png" width="11px" height="12px" preserveAspectRatio="xMinYMin meet" x="15" y="-558"/>
<text text-anchor="start" x="30" y="-549.2" font-family="Helvetica,sans-Serif" font-size="11.00">code</text>
<polygon fill="none" stroke="black" points="174,-541 174,-563 280,-563 280,-541 174,-541"/>
<text text-anchor="start" x="177" y="-549.2" font-family="Helvetica,sans-Serif" font-size="11.00">int4[10]</text>
<polygon fill="none" stroke="black" points="10,-519 10,-541 174,-541 174,-519 10,-519"/>
<text text-anchor="start" x="30" y="-527.2" font-family="Helvetica,sans-Serif" font-size="11.00">vsacode</text>
<polygon fill="none" stroke="black" points="174,-519 174,-541 280,-541 280,-519 174,-519"/>
<text text-anchor="start" x="177" y="-527.2" font-family="Helvetica,sans-Serif" font-size="11.00">int4[10]</text>
<polygon fill="none" stroke="black" points="10,-497 10,-519 174,-519 174,-497 10,-497"/>
<text text-anchor="start" x="30" y="-505.2" font-family="Helvetica,sans-Serif" font-size="11.00">value_en</text>
<polygon fill="none" stroke="black" points="174,-497 174,-519 280,-519 280,-497 174,-497"/>
<text text-anchor="start" x="177" y="-505.2" font-family="Helvetica,sans-Serif" font-size="11.00">varchar[100]</text>
<polygon fill="none" stroke="black" points="10,-475 10,-497 174,-497 174,-475 10,-475"/>
<text text-anchor="start" x="30" y="-483.2" font-family="Helvetica,sans-Serif" font-size="11.00">value_de</text>
<polygon fill="none" stroke="black" points="174,-475 174,-497 280,-497 280,-475 174,-475"/>
<text text-anchor="start" x="177" y="-483.2" font-family="Helvetica,sans-Serif" font-size="11.00">varchar[100]</text>
<polygon fill="none" stroke="black" points="10,-453 10,-475 174,-475 174,-453 10,-453"/>
<text text-anchor="start" x="30" y="-461.2" font-family="Helvetica,sans-Serif" font-size="11.00">value_fr</text>
<polygon fill="none" stroke="black" points="174,-453 174,-475 280,-475 280,-453 174,-453"/>
<text text-anchor="start" x="177" y="-461.2" font-family="Helvetica,sans-Serif" font-size="11.00">varchar[100]</text>
<polygon fill="none" stroke="black" points="10,-431 10,-453 174,-453 174,-431 10,-431"/>
<text text-anchor="start" x="30" y="-439.2" font-family="Helvetica,sans-Serif" font-size="11.00">value_it</text>
<polygon fill="none" stroke="black" points="174,-431 174,-453 280,-453 280,-431 174,-431"/>
<text text-anchor="start" x="177" y="-439.2" font-family="Helvetica,sans-Serif" font-size="11.00">varchar[100]</text>
<polygon fill="none" stroke="black" points="10,-409 10,-431 174,-431 174,-409 10,-409"/>
<text text-anchor="start" x="30" y="-417.2" font-family="Helvetica,sans-Serif" font-size="11.00">value_ro</text>
<polygon fill="none" stroke="black" points="174,-409 174,-431 280,-431 280,-409 174,-409"/>
<text text-anchor="start" x="177" y="-417.2" font-family="Helvetica,sans-Serif" font-size="11.00">varchar[100]</text>
<polygon fill="none" stroke="black" points="10,-387 10,-409 174,-409 174,-387 10,-387"/>
<text text-anchor="start" x="30" y="-395.2" font-family="Helvetica,sans-Serif" font-size="11.00">abbr_en</text>
<polygon fill="none" stroke="black" points="174,-387 174,-409 280,-409 280,-387 174,-387"/>
<text text-anchor="start" x="177" y="-395.2" font-family="Helvetica,sans-Serif" font-size="11.00">varchar[3]</text>
<polygon fill="none" stroke="black" points="10,-365 10,-387 174,-387 174,-365 10,-365"/>
<text text-anchor="start" x="30" y="-373.2" font-family="Helvetica,sans-Serif" font-size="11.00">abbr_de</text>
<polygon fill="none" stroke="black" points="174,-365 174,-387 280,-387 280,-365 174,-365"/>
<text text-anchor="start" x="177" y="-373.2" font-family="Helvetica,sans-Serif" font-size="11.00">varchar[3]</text>
<polygon fill="none" stroke="black" points="10,-343 10,-365 174,-365 174,-343 10,-343"/>
<text text-anchor="start" x="30" y="-351.2" font-family="Helvetica,sans-Serif" font-size="11.00">abbr_fr</text>
<polygon fill="none" stroke="black" points="174,-343 174,-365 280,-365 280,-343 174,-343"/>
<text text-anchor="start" x="177" y="-351.2" font-family="Helvetica,sans-Serif" font-size="11.00">varchar[3]</text>
<polygon fill="none" stroke="black" points="10,-321 10,-343 174,-343 174,-321 10,-321"/>
<text text-anchor="start" x="30" y="-329.2" font-family="Helvetica,sans-Serif" font-size="11.00">abbr_it</text>
<polygon fill="none" stroke="black" points="174,-321 174,-343 280,-343 280,-321 174,-321"/>
<text text-anchor="start" x="177" y="-329.2" font-family="Helvetica,sans-Serif" font-size="11.00">varchar[3]</text>
<polygon fill="none" stroke="black" points="10,-299 10,-321 174,-321 174,-299 10,-299"/>
<text text-anchor="start" x="30" y="-307.2" font-family="Helvetica,sans-Serif" font-size="11.00">abbr_ro</text>
<polygon fill="none" stroke="black" points="174,-299 174,-321 280,-321 280,-299 174,-299"/>
<text text-anchor="start" x="177" y="-307.2" font-family="Helvetica,sans-Serif" font-size="11.00">varchar[3]</text>
<polygon fill="none" stroke="black" points="10,-277 10,-299 174,-299 174,-277 10,-277"/>
<text text-anchor="start" x="30" y="-285.2" font-family="Helvetica,sans-Serif" font-size="11.00">description_en</text>
<polygon fill="none" stroke="black" points="174,-277 174,-299 280,-299 280,-277 174,-277"/>
<text text-anchor="start" x="177" y="-285.2" font-family="Helvetica,sans-Serif" font-size="11.00">text[2147483647]</text>
<polygon fill="none" stroke="black" points="10,-255 10,-277 174,-277 174,-255 10,-255"/>
<text text-anchor="start" x="30" y="-263.2" font-family="Helvetica,sans-Serif" font-size="11.00">description_de</text>
<polygon fill="none" stroke="black" points="174,-255 174,-277 280,-277 280,-255 174,-255"/>
<text text-anchor="start" x="177" y="-263.2" font-family="Helvetica,sans-Serif" font-size="11.00">text[2147483647]</text>
<polygon fill="none" stroke="black" points="10,-233 10,-255 174,-255 174,-233 10,-233"/>
<text text-anchor="start" x="30" y="-241.2" font-family="Helvetica,sans-Serif" font-size="11.00">description_fr</text>
<polygon fill="none" stroke="black" points="174,-233 174,-255 280,-255 280,-233 174,-233"/>
<text text-anchor="start" x="177" y="-241.2" font-family="Helvetica,sans-Serif" font-size="11.00">text[2147483647]</text>
<polygon fill="none" stroke="black" points="10,-211 10,-233 174,-233 174,-211 10,-211"/>
<text text-anchor="start" x="30" y="-219.2" font-family="Helvetica,sans-Serif" font-size="11.00">description_it</text>
<polygon fill="none" stroke="black" points="174,-211 174,-233 280,-233 280,-211 174,-211"/>
<text text-anchor="start" x="177" y="-219.2" font-family="Helvetica,sans-Serif" font-size="11.00">text[2147483647]</text>
<polygon fill="none" stroke="black" points="10,-189 10,-211 174,-211 174,-189 10,-189"/>
<text text-anchor="start" x="30" y="-197.2" font-family="Helvetica,sans-Serif" font-size="11.00">description_ro</text>
<polygon fill="none" stroke="black" points="174,-189 174,-211 280,-211 280,-189 174,-189"/>
<text text-anchor="start" x="177" y="-197.2" font-family="Helvetica,sans-Serif" font-size="11.00">text[2147483647]</text>
<polygon fill="none" stroke="black" points="10,-167 10,-189 174,-189 174,-167 10,-167"/>
<text text-anchor="start" x="30" y="-175.2" font-family="Helvetica,sans-Serif" font-size="11.00">display_en</text>
<polygon fill="none" stroke="black" points="174,-167 174,-189 280,-189 280,-167 174,-167"/>
<text text-anchor="start" x="177" y="-175.2" font-family="Helvetica,sans-Serif" font-size="11.00">varchar[100]</text>
<polygon fill="none" stroke="black" points="10,-145 10,-167 174,-167 174,-145 10,-145"/>
<text text-anchor="start" x="30" y="-153.2" font-family="Helvetica,sans-Serif" font-size="11.00">display_de</text>
<polygon fill="none" stroke="black" points="174,-145 174,-167 280,-167 280,-145 174,-145"/>
<text text-anchor="start" x="177" y="-153.2" font-family="Helvetica,sans-Serif" font-size="11.00">varchar[100]</text>
<polygon fill="none" stroke="black" points="10,-123 10,-145 174,-145 174,-123 10,-123"/>
<text text-anchor="start" x="30" y="-131.2" font-family="Helvetica,sans-Serif" font-size="11.00">display_fr</text>
<polygon fill="none" stroke="black" points="174,-123 174,-145 280,-145 280,-123 174,-123"/>
<text text-anchor="start" x="177" y="-131.2" font-family="Helvetica,sans-Serif" font-size="11.00">varchar[100]</text>
<polygon fill="none" stroke="black" points="10,-101 10,-123 174,-123 174,-101 10,-101"/>
<text text-anchor="start" x="30" y="-109.2" font-family="Helvetica,sans-Serif" font-size="11.00">display_it</text>
<polygon fill="none" stroke="black" points="174,-101 174,-123 280,-123 280,-101 174,-101"/>
<text text-anchor="start" x="177" y="-109.2" font-family="Helvetica,sans-Serif" font-size="11.00">varchar[100]</text>
<polygon fill="none" stroke="black" points="10,-79 10,-101 174,-101 174,-79 10,-79"/>
<text text-anchor="start" x="30" y="-87.2" font-family="Helvetica,sans-Serif" font-size="11.00">display_ro</text>
<polygon fill="none" stroke="black" points="174,-79 174,-101 280,-101 280,-79 174,-79"/>
<text text-anchor="start" x="177" y="-87.2" font-family="Helvetica,sans-Serif" font-size="11.00">varchar[100]</text>
<polygon fill="none" stroke="black" points="10,-57 10,-79 174,-79 174,-57 10,-57"/>
<text text-anchor="start" x="30" y="-65.2" font-family="Helvetica,sans-Serif" font-size="11.00">active</text>
<polygon fill="none" stroke="black" points="174,-57 174,-79 280,-79 280,-57 174,-57"/>
<text text-anchor="start" x="177" y="-65.2" font-family="Helvetica,sans-Serif" font-size="11.00">bool[1]</text>
<polygon fill="#ffffff" stroke="transparent" points="10,-39 10,-57 280,-57 280,-39 10,-39"/>
<polygon fill="none" stroke="black" points="10,-39 10,-57 280,-57 280,-39 10,-39"/>
<polygon fill="#ffffff" stroke="transparent" points="11,-40 11,-56 105,-56 105,-40 11,-40"/>
<text text-anchor="start" x="13" y="-45.2" font-family="Helvetica,sans-Serif" font-size="11.00">&lt; 0</text>
<polygon fill="#ffffff" stroke="transparent" points="105,-40 105,-56 186,-56 186,-40 105,-40"/>
<text text-anchor="start" x="141.5" y="-45.2" font-family="Helvetica,sans-Serif" font-size="11.00"> &#160;</text>
<polygon fill="#ffffff" stroke="transparent" points="186,-40 186,-56 279,-56 279,-40 186,-40"/>
<text text-anchor="start" x="257" y="-45.2" font-family="Helvetica,sans-Serif" font-size="11.00">1 &gt;</text>
<polygon fill="black" stroke="black" points="105,-40 105,-56 105,-56 105,-40 105,-40"/>
<polygon fill="black" stroke="black" points="186,-40 186,-56 186,-56 186,-40 186,-40"/>
<polygon fill="none" stroke="black" stroke-width="2" points="9,-38 9,-586 281,-586 281,-38 9,-38"/>
</a>
</g>
</g>
<!-- tdh_od.pipe_section&#45;&gt;pipe_section_status -->
<g id="edge1" class="edge">
<title>tdh_od.pipe_section:w&#45;&gt;pipe_section_status:e</title>
<path fill="none" stroke="black" d="M315.49,-552C304.18,-552 296.99,-552 281,-552"/>
<polygon fill="black" stroke="black" points="322,-552 330,-555.6 326,-552 330,-552 330,-552 330,-552 326,-552 330,-548.4 322,-552 322,-552"/>
<ellipse fill="none" stroke="black" cx="318.8" cy="-552" rx="3.2" ry="3.2"/>
</g>
</g>
</svg>
