<?xml version="1.0" encoding="UTF-8" standalone="no"?>
<!DOCTYPE svg PUBLIC "-//W3C//DTD SVG 1.1//EN"
 "http://www.w3.org/Graphics/SVG/1.1/DTD/svg11.dtd">
<!-- Generated by graphviz version 2.43.0 (0)
 -->
<!-- Title: oneDegreeRelationshipsDiagram Pages: 1 -->
<svg width="554pt" height="641pt"
 viewBox="0.00 0.00 554.00 641.00" xmlns="http://www.w3.org/2000/svg" xmlns:xlink="http://www.w3.org/1999/xlink">
<g id="graph0" class="graph" transform="scale(1 1) rotate(0) translate(4 637)">
<title>oneDegreeRelationshipsDiagram</title>
<polygon fill="#ffffff" stroke="transparent" points="-4,4 -4,-637 550,-637 550,4 -4,4"/>
<text text-anchor="middle" x="79.5" y="-7.2" font-family="Helvetica,sans-Serif" font-size="11.00">Generated by SchemaSpy</text>
<!-- tdh_od.pipe_section -->
<g id="node1" class="node">
<title>tdh_od.pipe_section</title>
<g id="a_node1"><a xlink:href="../../../tdh_od/tables/pipe_section.html" xlink:title="tdh_od.pipe_section" target="_top">
<polygon fill="#ffffff" stroke="transparent" points="346,-307 346,-629 538,-629 538,-307 346,-307"/>
<polygon fill="#f5f5f5" stroke="transparent" points="346,-607 346,-629 538,-629 538,-607 346,-607"/>
<polygon fill="none" stroke="black" points="346,-607 346,-629 538,-629 538,-607 346,-607"/>
<text text-anchor="start" x="351" y="-616.2" font-family="Helvetica,sans-Serif" font-weight="bold" font-size="11.00">tdh_od.pipe_section</text>
<text text-anchor="start" x="496" y="-615.2" font-family="Helvetica,sans-Serif" font-size="11.00">[table]</text>
<polygon fill="none" stroke="black" points="346,-585 346,-607 538,-607 538,-585 346,-585"/>
<image xlink:href="../../images/foreignKeys.png" width="11px" height="12px" preserveAspectRatio="xMinYMin meet" x="351" y="-602"/>
<text text-anchor="start" x="369" y="-593.2" font-family="Helvetica,sans-Serif" font-size="11.00">horizontal_positioning</text>
<polygon fill="none" stroke="black" points="346,-563 346,-585 538,-585 538,-563 346,-563"/>
<image xlink:href="../../images/foreignKeys.png" width="11px" height="12px" preserveAspectRatio="xMinYMin meet" x="351" y="-580"/>
<text text-anchor="start" x="369" y="-571.2" font-family="Helvetica,sans-Serif" font-size="11.00">status</text>
<polygon fill="none" stroke="black" points="346,-541 346,-563 538,-563 538,-541 346,-541"/>
<image xlink:href="../../images/foreignKeys.png" width="11px" height="12px" preserveAspectRatio="xMinYMin meet" x="351" y="-558"/>
<text text-anchor="start" x="369" y="-549.2" font-family="Helvetica,sans-Serif" font-size="11.00">function</text>
<polygon fill="none" stroke="black" points="346,-519 346,-541 538,-541 538,-519 346,-519"/>
<image xlink:href="../../images/foreignKeys.png" width="11px" height="12px" preserveAspectRatio="xMinYMin meet" x="351" y="-536"/>
<text text-anchor="start" x="369" y="-527.2" font-family="Helvetica,sans-Serif" font-size="11.00">pipe_type</text>
<polygon fill="none" stroke="black" points="346,-497 346,-519 538,-519 538,-497 346,-497"/>
<image xlink:href="../../images/foreignKeys.png" width="11px" height="12px" preserveAspectRatio="xMinYMin meet" x="351" y="-514"/>
<text text-anchor="start" x="369" y="-505.2" font-family="Helvetica,sans-Serif" font-size="11.00">fluent</text>
<polygon fill="none" stroke="black" points="346,-475 346,-497 538,-497 538,-475 346,-475"/>
<image xlink:href="../../images/foreignKeys.png" width="11px" height="12px" preserveAspectRatio="xMinYMin meet" x="351" y="-492"/>
<text text-anchor="start" x="369" y="-483.2" font-family="Helvetica,sans-Serif" font-size="11.00">insulation_kind</text>
<polygon fill="none" stroke="black" points="346,-453 346,-475 538,-475 538,-453 346,-453"/>
<image xlink:href="../../images/foreignKeys.png" width="11px" height="12px" preserveAspectRatio="xMinYMin meet" x="351" y="-470"/>
<text text-anchor="start" x="369" y="-461.2" font-family="Helvetica,sans-Serif" font-size="11.00">coating</text>
<polygon fill="none" stroke="black" points="346,-431 346,-453 538,-453 538,-431 346,-431"/>
<image xlink:href="../../images/foreignKeys.png" width="11px" height="12px" preserveAspectRatio="xMinYMin meet" x="351" y="-448"/>
<text text-anchor="start" x="369" y="-439.2" font-family="Helvetica,sans-Serif" font-size="11.00">pipeline_quality</text>
<polygon fill="none" stroke="black" points="346,-409 346,-431 538,-431 538,-409 346,-409"/>
<image xlink:href="../../images/foreignKeys.png" width="11px" height="12px" preserveAspectRatio="xMinYMin meet" x="351" y="-426"/>
<text text-anchor="start" x="369" y="-417.2" font-family="Helvetica,sans-Serif" font-size="11.00">mg_material</text>
<polygon fill="none" stroke="black" points="346,-387 346,-409 538,-409 538,-387 346,-387"/>
<image xlink:href="../../images/foreignKeys.png" width="11px" height="12px" preserveAspectRatio="xMinYMin meet" x="351" y="-404"/>
<text text-anchor="start" x="369" y="-395.2" font-family="Helvetica,sans-Serif" font-size="11.00">mg_diameter</text>
<polygon fill="none" stroke="black" points="346,-365 346,-387 538,-387 538,-365 346,-365"/>
<image xlink:href="../../images/foreignKeys.png" width="11px" height="12px" preserveAspectRatio="xMinYMin meet" x="351" y="-382"/>
<text text-anchor="start" x="369" y="-373.2" font-family="Helvetica,sans-Serif" font-size="11.00">mg_trench_type</text>
<polygon fill="none" stroke="black" points="346,-343 346,-365 538,-365 538,-343 346,-343"/>
<image xlink:href="../../images/foreignKeys.png" width="11px" height="12px" preserveAspectRatio="xMinYMin meet" x="351" y="-360"/>
<text text-anchor="start" x="369" y="-351.2" font-family="Helvetica,sans-Serif" font-size="11.00">mg_signaling_band</text>
<polygon fill="none" stroke="black" points="346,-325 346,-343 538,-343 538,-325 346,-325"/>
<text text-anchor="start" x="349" y="-331.2" font-family="Helvetica,sans-Serif" font-size="11.00">...</text>
<polygon fill="#ffffff" stroke="transparent" points="346,-307 346,-325 538,-325 538,-307 346,-307"/>
<polygon fill="none" stroke="black" points="346,-307 346,-325 538,-325 538,-307 346,-307"/>
<polygon fill="#ffffff" stroke="transparent" points="347,-308 347,-324 414,-324 414,-308 347,-308"/>
<text text-anchor="start" x="349" y="-313.2" font-family="Helvetica,sans-Serif" font-size="11.00">&lt; 12</text>
<polygon fill="#ffffff" stroke="transparent" points="414,-308 414,-324 490,-324 490,-308 414,-308"/>
<text text-anchor="start" x="433.5" y="-313.2" font-family="Helvetica,sans-Serif" font-size="11.00">0 rows</text>
<polygon fill="#ffffff" stroke="transparent" points="490,-308 490,-324 537,-324 537,-308 490,-308"/>
<text text-anchor="start" x="527" y="-313.2" font-family="Helvetica,sans-Serif" font-size="11.00"> &#160;</text>
<polygon fill="black" stroke="black" points="414,-308 414,-324 414,-324 414,-308 414,-308"/>
<polygon fill="black" stroke="black" points="490,-308 490,-324 490,-324 490,-308 490,-308"/>
</a>
</g>
</g>
<!-- pipe_section_function -->
<g id="node2" class="node">
<title>pipe_section_function</title>
<g id="a_node2"><a xlink:href="../../tables/pipe_section_function.html" xlink:title="pipe_section_function" target="_top">
<polygon fill="#ffffff" stroke="transparent" points="8,-37 8,-587 297,-587 297,-37 8,-37"/>
<polygon fill="#f5f5f5" stroke="transparent" points="10.5,-563 10.5,-585 295.5,-585 295.5,-563 10.5,-563"/>
<polygon fill="none" stroke="black" points="10.5,-563 10.5,-585 295.5,-585 295.5,-563 10.5,-563"/>
<text text-anchor="start" x="15.5" y="-572.2" font-family="Helvetica,sans-Serif" font-weight="bold" font-size="11.00">pipe_section_function</text>
<text text-anchor="start" x="253.5" y="-571.2" font-family="Helvetica,sans-Serif" font-size="11.00">[table]</text>
<polygon fill="none" stroke="black" points="10.5,-541 10.5,-563 189.5,-563 189.5,-541 10.5,-541"/>
<image xlink:href="../../images/primaryKeys.png" width="11px" height="12px" preserveAspectRatio="xMinYMin meet" x="15.5" y="-558"/>
<text text-anchor="start" x="30.5" y="-549.2" font-family="Helvetica,sans-Serif" font-size="11.00">code</text>
<polygon fill="none" stroke="black" points="189.5,-541 189.5,-563 295.5,-563 295.5,-541 189.5,-541"/>
<text text-anchor="start" x="192.5" y="-549.2" font-family="Helvetica,sans-Serif" font-size="11.00">int4[10]</text>
<polygon fill="none" stroke="black" points="10.5,-519 10.5,-541 189.5,-541 189.5,-519 10.5,-519"/>
<text text-anchor="start" x="30.5" y="-527.2" font-family="Helvetica,sans-Serif" font-size="11.00">vsacode</text>
<polygon fill="none" stroke="black" points="189.5,-519 189.5,-541 295.5,-541 295.5,-519 189.5,-519"/>
<text text-anchor="start" x="192.5" y="-527.2" font-family="Helvetica,sans-Serif" font-size="11.00">int4[10]</text>
<polygon fill="none" stroke="black" points="10.5,-497 10.5,-519 189.5,-519 189.5,-497 10.5,-497"/>
<text text-anchor="start" x="30.5" y="-505.2" font-family="Helvetica,sans-Serif" font-size="11.00">value_en</text>
<polygon fill="none" stroke="black" points="189.5,-497 189.5,-519 295.5,-519 295.5,-497 189.5,-497"/>
<text text-anchor="start" x="192.5" y="-505.2" font-family="Helvetica,sans-Serif" font-size="11.00">varchar[100]</text>
<polygon fill="none" stroke="black" points="10.5,-475 10.5,-497 189.5,-497 189.5,-475 10.5,-475"/>
<text text-anchor="start" x="30.5" y="-483.2" font-family="Helvetica,sans-Serif" font-size="11.00">value_de</text>
<polygon fill="none" stroke="black" points="189.5,-475 189.5,-497 295.5,-497 295.5,-475 189.5,-475"/>
<text text-anchor="start" x="192.5" y="-483.2" font-family="Helvetica,sans-Serif" font-size="11.00">varchar[100]</text>
<polygon fill="none" stroke="black" points="10.5,-453 10.5,-475 189.5,-475 189.5,-453 10.5,-453"/>
<text text-anchor="start" x="30.5" y="-461.2" font-family="Helvetica,sans-Serif" font-size="11.00">value_fr</text>
<polygon fill="none" stroke="black" points="189.5,-453 189.5,-475 295.5,-475 295.5,-453 189.5,-453"/>
<text text-anchor="start" x="192.5" y="-461.2" font-family="Helvetica,sans-Serif" font-size="11.00">varchar[100]</text>
<polygon fill="none" stroke="black" points="10.5,-431 10.5,-453 189.5,-453 189.5,-431 10.5,-431"/>
<text text-anchor="start" x="30.5" y="-439.2" font-family="Helvetica,sans-Serif" font-size="11.00">value_it</text>
<polygon fill="none" stroke="black" points="189.5,-431 189.5,-453 295.5,-453 295.5,-431 189.5,-431"/>
<text text-anchor="start" x="192.5" y="-439.2" font-family="Helvetica,sans-Serif" font-size="11.00">varchar[100]</text>
<polygon fill="none" stroke="black" points="10.5,-409 10.5,-431 189.5,-431 189.5,-409 10.5,-409"/>
<text text-anchor="start" x="30.5" y="-417.2" font-family="Helvetica,sans-Serif" font-size="11.00">value_ro</text>
<polygon fill="none" stroke="black" points="189.5,-409 189.5,-431 295.5,-431 295.5,-409 189.5,-409"/>
<text text-anchor="start" x="192.5" y="-417.2" font-family="Helvetica,sans-Serif" font-size="11.00">varchar[100]</text>
<polygon fill="none" stroke="black" points="10.5,-387 10.5,-409 189.5,-409 189.5,-387 10.5,-387"/>
<text text-anchor="start" x="30.5" y="-395.2" font-family="Helvetica,sans-Serif" font-size="11.00">abbr_en</text>
<polygon fill="none" stroke="black" points="189.5,-387 189.5,-409 295.5,-409 295.5,-387 189.5,-387"/>
<text text-anchor="start" x="192.5" y="-395.2" font-family="Helvetica,sans-Serif" font-size="11.00">varchar[3]</text>
<polygon fill="none" stroke="black" points="10.5,-365 10.5,-387 189.5,-387 189.5,-365 10.5,-365"/>
<text text-anchor="start" x="30.5" y="-373.2" font-family="Helvetica,sans-Serif" font-size="11.00">abbr_de</text>
<polygon fill="none" stroke="black" points="189.5,-365 189.5,-387 295.5,-387 295.5,-365 189.5,-365"/>
<text text-anchor="start" x="192.5" y="-373.2" font-family="Helvetica,sans-Serif" font-size="11.00">varchar[3]</text>
<polygon fill="none" stroke="black" points="10.5,-343 10.5,-365 189.5,-365 189.5,-343 10.5,-343"/>
<text text-anchor="start" x="30.5" y="-351.2" font-family="Helvetica,sans-Serif" font-size="11.00">abbr_fr</text>
<polygon fill="none" stroke="black" points="189.5,-343 189.5,-365 295.5,-365 295.5,-343 189.5,-343"/>
<text text-anchor="start" x="192.5" y="-351.2" font-family="Helvetica,sans-Serif" font-size="11.00">varchar[3]</text>
<polygon fill="none" stroke="black" points="10.5,-321 10.5,-343 189.5,-343 189.5,-321 10.5,-321"/>
<text text-anchor="start" x="30.5" y="-329.2" font-family="Helvetica,sans-Serif" font-size="11.00">abbr_it</text>
<polygon fill="none" stroke="black" points="189.5,-321 189.5,-343 295.5,-343 295.5,-321 189.5,-321"/>
<text text-anchor="start" x="192.5" y="-329.2" font-family="Helvetica,sans-Serif" font-size="11.00">varchar[3]</text>
<polygon fill="none" stroke="black" points="10.5,-299 10.5,-321 189.5,-321 189.5,-299 10.5,-299"/>
<text text-anchor="start" x="30.5" y="-307.2" font-family="Helvetica,sans-Serif" font-size="11.00">abbr_ro</text>
<polygon fill="none" stroke="black" points="189.5,-299 189.5,-321 295.5,-321 295.5,-299 189.5,-299"/>
<text text-anchor="start" x="192.5" y="-307.2" font-family="Helvetica,sans-Serif" font-size="11.00">varchar[3]</text>
<polygon fill="none" stroke="black" points="10.5,-277 10.5,-299 189.5,-299 189.5,-277 10.5,-277"/>
<text text-anchor="start" x="30.5" y="-285.2" font-family="Helvetica,sans-Serif" font-size="11.00">description_en</text>
<polygon fill="none" stroke="black" points="189.5,-277 189.5,-299 295.5,-299 295.5,-277 189.5,-277"/>
<text text-anchor="start" x="192.5" y="-285.2" font-family="Helvetica,sans-Serif" font-size="11.00">text[2147483647]</text>
<polygon fill="none" stroke="black" points="10.5,-255 10.5,-277 189.5,-277 189.5,-255 10.5,-255"/>
<text text-anchor="start" x="30.5" y="-263.2" font-family="Helvetica,sans-Serif" font-size="11.00">description_de</text>
<polygon fill="none" stroke="black" points="189.5,-255 189.5,-277 295.5,-277 295.5,-255 189.5,-255"/>
<text text-anchor="start" x="192.5" y="-263.2" font-family="Helvetica,sans-Serif" font-size="11.00">text[2147483647]</text>
<polygon fill="none" stroke="black" points="10.5,-233 10.5,-255 189.5,-255 189.5,-233 10.5,-233"/>
<text text-anchor="start" x="30.5" y="-241.2" font-family="Helvetica,sans-Serif" font-size="11.00">description_fr</text>
<polygon fill="none" stroke="black" points="189.5,-233 189.5,-255 295.5,-255 295.5,-233 189.5,-233"/>
<text text-anchor="start" x="192.5" y="-241.2" font-family="Helvetica,sans-Serif" font-size="11.00">text[2147483647]</text>
<polygon fill="none" stroke="black" points="10.5,-211 10.5,-233 189.5,-233 189.5,-211 10.5,-211"/>
<text text-anchor="start" x="30.5" y="-219.2" font-family="Helvetica,sans-Serif" font-size="11.00">description_it</text>
<polygon fill="none" stroke="black" points="189.5,-211 189.5,-233 295.5,-233 295.5,-211 189.5,-211"/>
<text text-anchor="start" x="192.5" y="-219.2" font-family="Helvetica,sans-Serif" font-size="11.00">text[2147483647]</text>
<polygon fill="none" stroke="black" points="10.5,-189 10.5,-211 189.5,-211 189.5,-189 10.5,-189"/>
<text text-anchor="start" x="30.5" y="-197.2" font-family="Helvetica,sans-Serif" font-size="11.00">description_ro</text>
<polygon fill="none" stroke="black" points="189.5,-189 189.5,-211 295.5,-211 295.5,-189 189.5,-189"/>
<text text-anchor="start" x="192.5" y="-197.2" font-family="Helvetica,sans-Serif" font-size="11.00">text[2147483647]</text>
<polygon fill="none" stroke="black" points="10.5,-167 10.5,-189 189.5,-189 189.5,-167 10.5,-167"/>
<text text-anchor="start" x="30.5" y="-175.2" font-family="Helvetica,sans-Serif" font-size="11.00">display_en</text>
<polygon fill="none" stroke="black" points="189.5,-167 189.5,-189 295.5,-189 295.5,-167 189.5,-167"/>
<text text-anchor="start" x="192.5" y="-175.2" font-family="Helvetica,sans-Serif" font-size="11.00">varchar[100]</text>
<polygon fill="none" stroke="black" points="10.5,-145 10.5,-167 189.5,-167 189.5,-145 10.5,-145"/>
<text text-anchor="start" x="30.5" y="-153.2" font-family="Helvetica,sans-Serif" font-size="11.00">display_de</text>
<polygon fill="none" stroke="black" points="189.5,-145 189.5,-167 295.5,-167 295.5,-145 189.5,-145"/>
<text text-anchor="start" x="192.5" y="-153.2" font-family="Helvetica,sans-Serif" font-size="11.00">varchar[100]</text>
<polygon fill="none" stroke="black" points="10.5,-123 10.5,-145 189.5,-145 189.5,-123 10.5,-123"/>
<text text-anchor="start" x="30.5" y="-131.2" font-family="Helvetica,sans-Serif" font-size="11.00">display_fr</text>
<polygon fill="none" stroke="black" points="189.5,-123 189.5,-145 295.5,-145 295.5,-123 189.5,-123"/>
<text text-anchor="start" x="192.5" y="-131.2" font-family="Helvetica,sans-Serif" font-size="11.00">varchar[100]</text>
<polygon fill="none" stroke="black" points="10.5,-101 10.5,-123 189.5,-123 189.5,-101 10.5,-101"/>
<text text-anchor="start" x="30.5" y="-109.2" font-family="Helvetica,sans-Serif" font-size="11.00">display_it</text>
<polygon fill="none" stroke="black" points="189.5,-101 189.5,-123 295.5,-123 295.5,-101 189.5,-101"/>
<text text-anchor="start" x="192.5" y="-109.2" font-family="Helvetica,sans-Serif" font-size="11.00">varchar[100]</text>
<polygon fill="none" stroke="black" points="10.5,-79 10.5,-101 189.5,-101 189.5,-79 10.5,-79"/>
<text text-anchor="start" x="30.5" y="-87.2" font-family="Helvetica,sans-Serif" font-size="11.00">display_ro</text>
<polygon fill="none" stroke="black" points="189.5,-79 189.5,-101 295.5,-101 295.5,-79 189.5,-79"/>
<text text-anchor="start" x="192.5" y="-87.2" font-family="Helvetica,sans-Serif" font-size="11.00">varchar[100]</text>
<polygon fill="none" stroke="black" points="10.5,-57 10.5,-79 189.5,-79 189.5,-57 10.5,-57"/>
<text text-anchor="start" x="30.5" y="-65.2" font-family="Helvetica,sans-Serif" font-size="11.00">active</text>
<polygon fill="none" stroke="black" points="189.5,-57 189.5,-79 295.5,-79 295.5,-57 189.5,-57"/>
<text text-anchor="start" x="192.5" y="-65.2" font-family="Helvetica,sans-Serif" font-size="11.00">bool[1]</text>
<polygon fill="#ffffff" stroke="transparent" points="10.5,-39 10.5,-57 295.5,-57 295.5,-39 10.5,-39"/>
<polygon fill="none" stroke="black" points="10.5,-39 10.5,-57 295.5,-57 295.5,-39 10.5,-39"/>
<polygon fill="#ffffff" stroke="transparent" points="11.5,-40 11.5,-56 110.5,-56 110.5,-40 11.5,-40"/>
<text text-anchor="start" x="13.5" y="-45.2" font-family="Helvetica,sans-Serif" font-size="11.00">&lt; 0</text>
<polygon fill="#ffffff" stroke="transparent" points="110.5,-40 110.5,-56 196.5,-56 196.5,-40 110.5,-40"/>
<text text-anchor="start" x="149.5" y="-45.2" font-family="Helvetica,sans-Serif" font-size="11.00"> &#160;</text>
<polygon fill="#ffffff" stroke="transparent" points="196.5,-40 196.5,-56 294.5,-56 294.5,-40 196.5,-40"/>
<text text-anchor="start" x="272.5" y="-45.2" font-family="Helvetica,sans-Serif" font-size="11.00">1 &gt;</text>
<polygon fill="black" stroke="black" points="110.5,-40 110.5,-56 110.5,-56 110.5,-40 110.5,-40"/>
<polygon fill="black" stroke="black" points="196.5,-40 196.5,-56 196.5,-56 196.5,-40 196.5,-40"/>
<polygon fill="none" stroke="black" stroke-width="2" points="9,-38 9,-586 296,-586 296,-38 9,-38"/>
</a>
</g>
</g>
<!-- tdh_od.pipe_section&#45;&gt;pipe_section_function -->
<g id="edge1" class="edge">
<title>tdh_od.pipe_section:w&#45;&gt;pipe_section_function:e</title>
<path fill="none" stroke="black" d="M330.28,-552C319.29,-552 312.16,-552 296.5,-552"/>
<polygon fill="black" stroke="black" points="337,-552 345,-555.6 341,-552 345,-552 345,-552 345,-552 341,-552 345,-548.4 337,-552 337,-552"/>
<ellipse fill="none" stroke="black" cx="333.8" cy="-552" rx="3.2" ry="3.2"/>
</g>
</g>
</svg>
