<?xml version="1.0" encoding="UTF-8" standalone="no"?>
<!DOCTYPE svg PUBLIC "-//W3C//DTD SVG 1.1//EN"
 "http://www.w3.org/Graphics/SVG/1.1/DTD/svg11.dtd">
<!-- Generated by graphviz version 2.47.1 (20210515.0534)
 -->
<!-- Title: oneDegreeRelationshipsDiagram Pages: 1 -->
<svg width="587pt" height="399pt"
 viewBox="0.00 0.00 587.00 399.00" xmlns="http://www.w3.org/2000/svg" xmlns:xlink="http://www.w3.org/1999/xlink">
<g id="graph0" class="graph" transform="scale(1 1) rotate(0) translate(4 395)">
<title>oneDegreeRelationshipsDiagram</title>
<polygon fill="#ffffff" stroke="transparent" points="-4,4 -4,-395 583,-395 583,4 -4,4"/>
<text text-anchor="middle" x="73.5" y="-7.2" font-family="Helvetica,sans-Serif" font-size="11.00">Generated by SchemaSpy</text>
<!-- tdh_od.pipe_point_normal -->
<g id="node1" class="node">
<title>tdh_od.pipe_point_normal</title>
<g id="a_node1"><a xlink:href="../../../tdh_od/tables/pipe_point_normal.html" xlink:title="tdh_od.pipe_point_normal" target="_top">
<polygon fill="#ffffff" stroke="transparent" points="372,-263 372,-387 571,-387 571,-263 372,-263"/>
<polygon fill="#f5f5f5" stroke="transparent" points="372.5,-365 372.5,-387 571.5,-387 571.5,-365 372.5,-365"/>
<polygon fill="none" stroke="black" points="372.5,-365 372.5,-387 571.5,-387 571.5,-365 372.5,-365"/>
<text text-anchor="start" x="377.5" y="-374.2" font-family="Helvetica,sans-Serif" font-weight="bold" font-size="11.00">tdh_od.pipe_point_normal</text>
<text text-anchor="start" x="532.5" y="-373.2" font-family="Helvetica,sans-Serif" font-size="11.00">[table]</text>
<polygon fill="none" stroke="black" points="372.5,-343 372.5,-365 571.5,-365 571.5,-343 372.5,-343"/>
<image xlink:href="../../images/foreignKeys.png" width="11px" height="12px" preserveAspectRatio="xMinYMin meet" x="377.5" y="-360"/>
<text text-anchor="start" x="426.5" y="-351.2" font-family="Helvetica,sans-Serif" font-size="11.00">kind</text>
<polygon fill="none" stroke="black" points="372.5,-321 372.5,-343 571.5,-343 571.5,-321 372.5,-321"/>
<image xlink:href="../../images/foreignKeys.png" width="11px" height="12px" preserveAspectRatio="xMinYMin meet" x="377.5" y="-338"/>
<text text-anchor="start" x="426.5" y="-329.2" font-family="Helvetica,sans-Serif" font-size="11.00">armature_setting</text>
<polygon fill="none" stroke="black" points="372.5,-299 372.5,-321 571.5,-321 571.5,-299 372.5,-299"/>
<image xlink:href="../../images/foreignKeys.png" width="11px" height="12px" preserveAspectRatio="xMinYMin meet" x="377.5" y="-316"/>
<text text-anchor="start" x="426.5" y="-307.2" font-family="Helvetica,sans-Serif" font-size="11.00">material</text>
<polygon fill="none" stroke="black" points="372.5,-281 372.5,-299 571.5,-299 571.5,-281 372.5,-281"/>
<text text-anchor="start" x="375.5" y="-287.2" font-family="Helvetica,sans-Serif" font-size="11.00">...</text>
<polygon fill="#ffffff" stroke="transparent" points="372.5,-263 372.5,-281 456.5,-281 456.5,-263 372.5,-263"/>
<polygon fill="none" stroke="black" points="372.5,-263 372.5,-281 456.5,-281 456.5,-263 372.5,-263"/>
<text text-anchor="start" x="375.5" y="-269.2" font-family="Helvetica,sans-Serif" font-size="11.00">&lt; 3</text>
<polygon fill="#ffffff" stroke="transparent" points="456.5,-263 456.5,-281 527.5,-281 527.5,-263 456.5,-263"/>
<polygon fill="none" stroke="black" points="456.5,-263 456.5,-281 527.5,-281 527.5,-263 456.5,-263"/>
<text text-anchor="start" x="490.5" y="-269.2" font-family="Helvetica,sans-Serif" font-size="11.00">0 rows</text>
<polygon fill="#ffffff" stroke="transparent" points="527.5,-263 527.5,-281 571.5,-281 571.5,-263 527.5,-263"/>
<polygon fill="none" stroke="black" points="527.5,-263 527.5,-281 571.5,-281 571.5,-263 527.5,-263"/>
<text text-anchor="start" x="561.5" y="-269.2" font-family="Helvetica,sans-Serif" font-size="11.00"> &#160;</text>
</a>
</g>
</g>
<!-- pipe_point_normal_armature_setting -->
<g id="node2" class="node">
<title>pipe_point_normal_armature_setting</title>
<g id="a_node2"><a xlink:href="../../tables/pipe_point_normal_armature_setting.html" xlink:title="pipe_point_normal_armature_setting" target="_top">
<polygon fill="#ffffff" stroke="transparent" points="8,-37 8,-367 323,-367 323,-37 8,-37"/>
<polygon fill="#f5f5f5" stroke="transparent" points="10.5,-343 10.5,-365 321.5,-365 321.5,-343 10.5,-343"/>
<polygon fill="none" stroke="black" points="10.5,-343 10.5,-365 321.5,-365 321.5,-343 10.5,-343"/>
<text text-anchor="start" x="15.5" y="-352.2" font-family="Helvetica,sans-Serif" font-weight="bold" font-size="11.00">pipe_point_normal_armature_setting</text>
<text text-anchor="start" x="282.5" y="-351.2" font-family="Helvetica,sans-Serif" font-size="11.00">[table]</text>
<polygon fill="none" stroke="black" points="10.5,-321 10.5,-343 251.5,-343 251.5,-321 10.5,-321"/>
<image xlink:href="../../images/primaryKeys.png" width="11px" height="12px" preserveAspectRatio="xMinYMin meet" x="15.5" y="-338"/>
<text text-anchor="start" x="30.5" y="-329.2" font-family="Helvetica,sans-Serif" font-size="11.00">code</text>
<polygon fill="none" stroke="black" points="251.5,-321 251.5,-343 321.5,-343 321.5,-321 251.5,-321"/>
<text text-anchor="start" x="254.5" y="-329.2" font-family="Helvetica,sans-Serif" font-size="11.00">int4[10]</text>
<polygon fill="none" stroke="black" points="10.5,-299 10.5,-321 251.5,-321 251.5,-299 10.5,-299"/>
<text text-anchor="start" x="30.5" y="-307.2" font-family="Helvetica,sans-Serif" font-size="11.00">vsacode</text>
<polygon fill="none" stroke="black" points="251.5,-299 251.5,-321 321.5,-321 321.5,-299 251.5,-299"/>
<text text-anchor="start" x="254.5" y="-307.2" font-family="Helvetica,sans-Serif" font-size="11.00">int4[10]</text>
<polygon fill="none" stroke="black" points="10.5,-277 10.5,-299 251.5,-299 251.5,-277 10.5,-277"/>
<text text-anchor="start" x="30.5" y="-285.2" font-family="Helvetica,sans-Serif" font-size="11.00">value_en</text>
<polygon fill="none" stroke="black" points="251.5,-277 251.5,-299 321.5,-299 321.5,-277 251.5,-277"/>
<text text-anchor="start" x="254.5" y="-285.2" font-family="Helvetica,sans-Serif" font-size="11.00">varchar[100]</text>
<polygon fill="none" stroke="black" points="10.5,-255 10.5,-277 251.5,-277 251.5,-255 10.5,-255"/>
<text text-anchor="start" x="30.5" y="-263.2" font-family="Helvetica,sans-Serif" font-size="11.00">value_de</text>
<polygon fill="none" stroke="black" points="251.5,-255 251.5,-277 321.5,-277 321.5,-255 251.5,-255"/>
<text text-anchor="start" x="254.5" y="-263.2" font-family="Helvetica,sans-Serif" font-size="11.00">varchar[100]</text>
<polygon fill="none" stroke="black" points="10.5,-233 10.5,-255 251.5,-255 251.5,-233 10.5,-233"/>
<text text-anchor="start" x="30.5" y="-241.2" font-family="Helvetica,sans-Serif" font-size="11.00">value_fr</text>
<polygon fill="none" stroke="black" points="251.5,-233 251.5,-255 321.5,-255 321.5,-233 251.5,-233"/>
<text text-anchor="start" x="254.5" y="-241.2" font-family="Helvetica,sans-Serif" font-size="11.00">varchar[100]</text>
<polygon fill="none" stroke="black" points="10.5,-211 10.5,-233 251.5,-233 251.5,-211 10.5,-211"/>
<text text-anchor="start" x="30.5" y="-219.2" font-family="Helvetica,sans-Serif" font-size="11.00">value_it</text>
<polygon fill="none" stroke="black" points="251.5,-211 251.5,-233 321.5,-233 321.5,-211 251.5,-211"/>
<text text-anchor="start" x="254.5" y="-219.2" font-family="Helvetica,sans-Serif" font-size="11.00">varchar[100]</text>
<polygon fill="none" stroke="black" points="10.5,-189 10.5,-211 251.5,-211 251.5,-189 10.5,-189"/>
<text text-anchor="start" x="30.5" y="-197.2" font-family="Helvetica,sans-Serif" font-size="11.00">value_ro</text>
<polygon fill="none" stroke="black" points="251.5,-189 251.5,-211 321.5,-211 321.5,-189 251.5,-189"/>
<text text-anchor="start" x="254.5" y="-197.2" font-family="Helvetica,sans-Serif" font-size="11.00">varchar[100]</text>
<polygon fill="none" stroke="black" points="10.5,-167 10.5,-189 251.5,-189 251.5,-167 10.5,-167"/>
<text text-anchor="start" x="30.5" y="-175.2" font-family="Helvetica,sans-Serif" font-size="11.00">abbr_en</text>
<polygon fill="none" stroke="black" points="251.5,-167 251.5,-189 321.5,-189 321.5,-167 251.5,-167"/>
<text text-anchor="start" x="254.5" y="-175.2" font-family="Helvetica,sans-Serif" font-size="11.00">varchar[3]</text>
<polygon fill="none" stroke="black" points="10.5,-145 10.5,-167 251.5,-167 251.5,-145 10.5,-145"/>
<text text-anchor="start" x="30.5" y="-153.2" font-family="Helvetica,sans-Serif" font-size="11.00">abbr_de</text>
<polygon fill="none" stroke="black" points="251.5,-145 251.5,-167 321.5,-167 321.5,-145 251.5,-145"/>
<text text-anchor="start" x="254.5" y="-153.2" font-family="Helvetica,sans-Serif" font-size="11.00">varchar[3]</text>
<polygon fill="none" stroke="black" points="10.5,-123 10.5,-145 251.5,-145 251.5,-123 10.5,-123"/>
<text text-anchor="start" x="30.5" y="-131.2" font-family="Helvetica,sans-Serif" font-size="11.00">abbr_fr</text>
<polygon fill="none" stroke="black" points="251.5,-123 251.5,-145 321.5,-145 321.5,-123 251.5,-123"/>
<text text-anchor="start" x="254.5" y="-131.2" font-family="Helvetica,sans-Serif" font-size="11.00">varchar[3]</text>
<polygon fill="none" stroke="black" points="10.5,-101 10.5,-123 251.5,-123 251.5,-101 10.5,-101"/>
<text text-anchor="start" x="30.5" y="-109.2" font-family="Helvetica,sans-Serif" font-size="11.00">abbr_it</text>
<polygon fill="none" stroke="black" points="251.5,-101 251.5,-123 321.5,-123 321.5,-101 251.5,-101"/>
<text text-anchor="start" x="254.5" y="-109.2" font-family="Helvetica,sans-Serif" font-size="11.00">varchar[3]</text>
<polygon fill="none" stroke="black" points="10.5,-79 10.5,-101 251.5,-101 251.5,-79 10.5,-79"/>
<text text-anchor="start" x="30.5" y="-87.2" font-family="Helvetica,sans-Serif" font-size="11.00">abbr_ro</text>
<polygon fill="none" stroke="black" points="251.5,-79 251.5,-101 321.5,-101 321.5,-79 251.5,-79"/>
<text text-anchor="start" x="254.5" y="-87.2" font-family="Helvetica,sans-Serif" font-size="11.00">varchar[3]</text>
<polygon fill="none" stroke="black" points="10.5,-57 10.5,-79 251.5,-79 251.5,-57 10.5,-57"/>
<text text-anchor="start" x="30.5" y="-65.2" font-family="Helvetica,sans-Serif" font-size="11.00">active</text>
<polygon fill="none" stroke="black" points="251.5,-57 251.5,-79 321.5,-79 321.5,-57 251.5,-57"/>
<text text-anchor="start" x="254.5" y="-65.2" font-family="Helvetica,sans-Serif" font-size="11.00">bool[1]</text>
<polygon fill="#ffffff" stroke="transparent" points="10.5,-39 10.5,-57 135.5,-57 135.5,-39 10.5,-39"/>
<polygon fill="none" stroke="black" points="10.5,-39 10.5,-57 135.5,-57 135.5,-39 10.5,-39"/>
<text text-anchor="start" x="13.5" y="-45.2" font-family="Helvetica,sans-Serif" font-size="11.00">&lt; 0</text>
<polygon fill="#ffffff" stroke="transparent" points="135.5,-39 135.5,-57 251.5,-57 251.5,-39 135.5,-39"/>
<polygon fill="none" stroke="black" points="135.5,-39 135.5,-57 251.5,-57 251.5,-39 135.5,-39"/>
<text text-anchor="start" x="241.5" y="-45.2" font-family="Helvetica,sans-Serif" font-size="11.00"> &#160;</text>
<polygon fill="#ffffff" stroke="transparent" points="251.5,-39 251.5,-57 321.5,-57 321.5,-39 251.5,-39"/>
<polygon fill="none" stroke="black" points="251.5,-39 251.5,-57 321.5,-57 321.5,-39 251.5,-39"/>
<text text-anchor="start" x="302.5" y="-45.2" font-family="Helvetica,sans-Serif" font-size="11.00">1 &gt;</text>
<polygon fill="none" stroke="black" stroke-width="2" points="9,-38 9,-366 322,-366 322,-38 9,-38"/>
</a>
</g>
</g>
<!-- tdh_od.pipe_point_normal&#45;&gt;pipe_point_normal_armature_setting -->
<g id="edge1" class="edge">
<title>tdh_od.pipe_point_normal:w&#45;&gt;pipe_point_normal_armature_setting:e</title>
<path fill="none" stroke="black" d="M356.99,-332C345.68,-332 338.49,-332 322.5,-332"/>
<polygon fill="black" stroke="black" points="363.5,-332 371.5,-335.6 367.5,-332 371.5,-332 371.5,-332 371.5,-332 367.5,-332 371.5,-328.4 363.5,-332 363.5,-332"/>
<ellipse fill="none" stroke="black" cx="360.3" cy="-332" rx="3.2" ry="3.2"/>
</g>
</g>
</svg>
