<?xml version="1.0" encoding="UTF-8" standalone="no"?>
<!DOCTYPE svg PUBLIC "-//W3C//DTD SVG 1.1//EN"
 "http://www.w3.org/Graphics/SVG/1.1/DTD/svg11.dtd">
<!-- Generated by graphviz version 2.47.1 (20210515.0534)
 -->
<!-- Title: oneDegreeRelationshipsDiagram Pages: 1 -->
<svg width="655pt" height="421pt"
 viewBox="0.00 0.00 655.00 421.00" xmlns="http://www.w3.org/2000/svg" xmlns:xlink="http://www.w3.org/1999/xlink">
<g id="graph0" class="graph" transform="scale(1 1) rotate(0) translate(4 417)">
<title>oneDegreeRelationshipsDiagram</title>
<polygon fill="#ffffff" stroke="transparent" points="-4,4 -4,-417 651,-417 651,4 -4,4"/>
<text text-anchor="middle" x="73.5" y="-7.2" font-family="Helvetica,sans-Serif" font-size="11.00">Generated by SchemaSpy</text>
<!-- tdh_od.sia405cc_cable_point -->
<g id="node1" class="node">
<title>tdh_od.sia405cc_cable_point</title>
<g id="a_node1"><a xlink:href="../../../tdh_od/tables/sia405cc_cable_point.html" xlink:title="tdh_od.sia405cc_cable_point" target="_top">
<polygon fill="#ffffff" stroke="transparent" points="428,-263 428,-409 639,-409 639,-263 428,-263"/>
<polygon fill="#f5f5f5" stroke="transparent" points="428.5,-387 428.5,-409 639.5,-409 639.5,-387 428.5,-387"/>
<polygon fill="none" stroke="black" points="428.5,-387 428.5,-409 639.5,-409 639.5,-387 428.5,-387"/>
<text text-anchor="start" x="433.5" y="-396.2" font-family="Helvetica,sans-Serif" font-weight="bold" font-size="11.00">tdh_od.sia405cc_cable_point</text>
<text text-anchor="start" x="600.5" y="-395.2" font-family="Helvetica,sans-Serif" font-size="11.00">[table]</text>
<polygon fill="none" stroke="black" points="428.5,-365 428.5,-387 639.5,-387 639.5,-365 428.5,-365"/>
<image xlink:href="../../images/foreignKeys.png" width="11px" height="12px" preserveAspectRatio="xMinYMin meet" x="433.5" y="-382"/>
<text text-anchor="start" x="469.5" y="-373.2" font-family="Helvetica,sans-Serif" font-size="11.00">kind</text>
<polygon fill="none" stroke="black" points="428.5,-343 428.5,-365 639.5,-365 639.5,-343 428.5,-343"/>
<image xlink:href="../../images/foreignKeys.png" width="11px" height="12px" preserveAspectRatio="xMinYMin meet" x="433.5" y="-360"/>
<text text-anchor="start" x="469.5" y="-351.2" font-family="Helvetica,sans-Serif" font-size="11.00">horizontal_positioning</text>
<polygon fill="none" stroke="black" points="428.5,-321 428.5,-343 639.5,-343 639.5,-321 428.5,-321"/>
<image xlink:href="../../images/foreignKeys.png" width="11px" height="12px" preserveAspectRatio="xMinYMin meet" x="433.5" y="-338"/>
<text text-anchor="start" x="469.5" y="-329.2" font-family="Helvetica,sans-Serif" font-size="11.00">elevation_determination</text>
<polygon fill="none" stroke="black" points="428.5,-299 428.5,-321 639.5,-321 639.5,-299 428.5,-299"/>
<image xlink:href="../../images/foreignKeys.png" width="11px" height="12px" preserveAspectRatio="xMinYMin meet" x="433.5" y="-316"/>
<text text-anchor="start" x="469.5" y="-307.2" font-family="Helvetica,sans-Serif" font-size="11.00">status</text>
<polygon fill="none" stroke="black" points="428.5,-281 428.5,-299 639.5,-299 639.5,-281 428.5,-281"/>
<text text-anchor="start" x="431.5" y="-287.2" font-family="Helvetica,sans-Serif" font-size="11.00">...</text>
<polygon fill="#ffffff" stroke="transparent" points="428.5,-263 428.5,-281 518.5,-281 518.5,-263 428.5,-263"/>
<polygon fill="none" stroke="black" points="428.5,-263 428.5,-281 518.5,-281 518.5,-263 428.5,-263"/>
<text text-anchor="start" x="431.5" y="-269.2" font-family="Helvetica,sans-Serif" font-size="11.00">&lt; 4</text>
<polygon fill="#ffffff" stroke="transparent" points="518.5,-263 518.5,-281 592.5,-281 592.5,-263 518.5,-263"/>
<polygon fill="none" stroke="black" points="518.5,-263 518.5,-281 592.5,-281 592.5,-263 518.5,-263"/>
<text text-anchor="start" x="555.5" y="-269.2" font-family="Helvetica,sans-Serif" font-size="11.00">0 rows</text>
<polygon fill="#ffffff" stroke="transparent" points="592.5,-263 592.5,-281 639.5,-281 639.5,-263 592.5,-263"/>
<polygon fill="none" stroke="black" points="592.5,-263 592.5,-281 639.5,-281 639.5,-263 592.5,-263"/>
<text text-anchor="start" x="629.5" y="-269.2" font-family="Helvetica,sans-Serif" font-size="11.00"> &#160;</text>
</a>
</g>
</g>
<!-- sia405cc_cable_point_elevation_determination -->
<g id="node2" class="node">
<title>sia405cc_cable_point_elevation_determination</title>
<g id="a_node2"><a xlink:href="../../tables/sia405cc_cable_point_elevation__6472a8ff.html" xlink:title="sia405cc_cable_point_elevation_determination" target="_top">
<polygon fill="#ffffff" stroke="transparent" points="8,-37 8,-367 379,-367 379,-37 8,-37"/>
<polygon fill="#f5f5f5" stroke="transparent" points="10.5,-343 10.5,-365 377.5,-365 377.5,-343 10.5,-343"/>
<polygon fill="none" stroke="black" points="10.5,-343 10.5,-365 377.5,-365 377.5,-343 10.5,-343"/>
<text text-anchor="start" x="15.5" y="-352.2" font-family="Helvetica,sans-Serif" font-weight="bold" font-size="11.00">sia405cc_cable_point_elevation_determination</text>
<text text-anchor="start" x="338.5" y="-351.2" font-family="Helvetica,sans-Serif" font-size="11.00">[table]</text>
<polygon fill="none" stroke="black" points="10.5,-321 10.5,-343 307.5,-343 307.5,-321 10.5,-321"/>
<image xlink:href="../../images/primaryKeys.png" width="11px" height="12px" preserveAspectRatio="xMinYMin meet" x="15.5" y="-338"/>
<text text-anchor="start" x="30.5" y="-329.2" font-family="Helvetica,sans-Serif" font-size="11.00">code</text>
<polygon fill="none" stroke="black" points="307.5,-321 307.5,-343 377.5,-343 377.5,-321 307.5,-321"/>
<text text-anchor="start" x="310.5" y="-329.2" font-family="Helvetica,sans-Serif" font-size="11.00">int4[10]</text>
<polygon fill="none" stroke="black" points="10.5,-299 10.5,-321 307.5,-321 307.5,-299 10.5,-299"/>
<text text-anchor="start" x="30.5" y="-307.2" font-family="Helvetica,sans-Serif" font-size="11.00">vsacode</text>
<polygon fill="none" stroke="black" points="307.5,-299 307.5,-321 377.5,-321 377.5,-299 307.5,-299"/>
<text text-anchor="start" x="310.5" y="-307.2" font-family="Helvetica,sans-Serif" font-size="11.00">int4[10]</text>
<polygon fill="none" stroke="black" points="10.5,-277 10.5,-299 307.5,-299 307.5,-277 10.5,-277"/>
<text text-anchor="start" x="30.5" y="-285.2" font-family="Helvetica,sans-Serif" font-size="11.00">value_en</text>
<polygon fill="none" stroke="black" points="307.5,-277 307.5,-299 377.5,-299 377.5,-277 307.5,-277"/>
<text text-anchor="start" x="310.5" y="-285.2" font-family="Helvetica,sans-Serif" font-size="11.00">varchar[100]</text>
<polygon fill="none" stroke="black" points="10.5,-255 10.5,-277 307.5,-277 307.5,-255 10.5,-255"/>
<text text-anchor="start" x="30.5" y="-263.2" font-family="Helvetica,sans-Serif" font-size="11.00">value_de</text>
<polygon fill="none" stroke="black" points="307.5,-255 307.5,-277 377.5,-277 377.5,-255 307.5,-255"/>
<text text-anchor="start" x="310.5" y="-263.2" font-family="Helvetica,sans-Serif" font-size="11.00">varchar[100]</text>
<polygon fill="none" stroke="black" points="10.5,-233 10.5,-255 307.5,-255 307.5,-233 10.5,-233"/>
<text text-anchor="start" x="30.5" y="-241.2" font-family="Helvetica,sans-Serif" font-size="11.00">value_fr</text>
<polygon fill="none" stroke="black" points="307.5,-233 307.5,-255 377.5,-255 377.5,-233 307.5,-233"/>
<text text-anchor="start" x="310.5" y="-241.2" font-family="Helvetica,sans-Serif" font-size="11.00">varchar[100]</text>
<polygon fill="none" stroke="black" points="10.5,-211 10.5,-233 307.5,-233 307.5,-211 10.5,-211"/>
<text text-anchor="start" x="30.5" y="-219.2" font-family="Helvetica,sans-Serif" font-size="11.00">value_it</text>
<polygon fill="none" stroke="black" points="307.5,-211 307.5,-233 377.5,-233 377.5,-211 307.5,-211"/>
<text text-anchor="start" x="310.5" y="-219.2" font-family="Helvetica,sans-Serif" font-size="11.00">varchar[100]</text>
<polygon fill="none" stroke="black" points="10.5,-189 10.5,-211 307.5,-211 307.5,-189 10.5,-189"/>
<text text-anchor="start" x="30.5" y="-197.2" font-family="Helvetica,sans-Serif" font-size="11.00">value_ro</text>
<polygon fill="none" stroke="black" points="307.5,-189 307.5,-211 377.5,-211 377.5,-189 307.5,-189"/>
<text text-anchor="start" x="310.5" y="-197.2" font-family="Helvetica,sans-Serif" font-size="11.00">varchar[100]</text>
<polygon fill="none" stroke="black" points="10.5,-167 10.5,-189 307.5,-189 307.5,-167 10.5,-167"/>
<text text-anchor="start" x="30.5" y="-175.2" font-family="Helvetica,sans-Serif" font-size="11.00">abbr_en</text>
<polygon fill="none" stroke="black" points="307.5,-167 307.5,-189 377.5,-189 377.5,-167 307.5,-167"/>
<text text-anchor="start" x="310.5" y="-175.2" font-family="Helvetica,sans-Serif" font-size="11.00">varchar[3]</text>
<polygon fill="none" stroke="black" points="10.5,-145 10.5,-167 307.5,-167 307.5,-145 10.5,-145"/>
<text text-anchor="start" x="30.5" y="-153.2" font-family="Helvetica,sans-Serif" font-size="11.00">abbr_de</text>
<polygon fill="none" stroke="black" points="307.5,-145 307.5,-167 377.5,-167 377.5,-145 307.5,-145"/>
<text text-anchor="start" x="310.5" y="-153.2" font-family="Helvetica,sans-Serif" font-size="11.00">varchar[3]</text>
<polygon fill="none" stroke="black" points="10.5,-123 10.5,-145 307.5,-145 307.5,-123 10.5,-123"/>
<text text-anchor="start" x="30.5" y="-131.2" font-family="Helvetica,sans-Serif" font-size="11.00">abbr_fr</text>
<polygon fill="none" stroke="black" points="307.5,-123 307.5,-145 377.5,-145 377.5,-123 307.5,-123"/>
<text text-anchor="start" x="310.5" y="-131.2" font-family="Helvetica,sans-Serif" font-size="11.00">varchar[3]</text>
<polygon fill="none" stroke="black" points="10.5,-101 10.5,-123 307.5,-123 307.5,-101 10.5,-101"/>
<text text-anchor="start" x="30.5" y="-109.2" font-family="Helvetica,sans-Serif" font-size="11.00">abbr_it</text>
<polygon fill="none" stroke="black" points="307.5,-101 307.5,-123 377.5,-123 377.5,-101 307.5,-101"/>
<text text-anchor="start" x="310.5" y="-109.2" font-family="Helvetica,sans-Serif" font-size="11.00">varchar[3]</text>
<polygon fill="none" stroke="black" points="10.5,-79 10.5,-101 307.5,-101 307.5,-79 10.5,-79"/>
<text text-anchor="start" x="30.5" y="-87.2" font-family="Helvetica,sans-Serif" font-size="11.00">abbr_ro</text>
<polygon fill="none" stroke="black" points="307.5,-79 307.5,-101 377.5,-101 377.5,-79 307.5,-79"/>
<text text-anchor="start" x="310.5" y="-87.2" font-family="Helvetica,sans-Serif" font-size="11.00">varchar[3]</text>
<polygon fill="none" stroke="black" points="10.5,-57 10.5,-79 307.5,-79 307.5,-57 10.5,-57"/>
<text text-anchor="start" x="30.5" y="-65.2" font-family="Helvetica,sans-Serif" font-size="11.00">active</text>
<polygon fill="none" stroke="black" points="307.5,-57 307.5,-79 377.5,-79 377.5,-57 307.5,-57"/>
<text text-anchor="start" x="310.5" y="-65.2" font-family="Helvetica,sans-Serif" font-size="11.00">bool[1]</text>
<polygon fill="#ffffff" stroke="transparent" points="10.5,-39 10.5,-57 163.5,-57 163.5,-39 10.5,-39"/>
<polygon fill="none" stroke="black" points="10.5,-39 10.5,-57 163.5,-57 163.5,-39 10.5,-39"/>
<text text-anchor="start" x="13.5" y="-45.2" font-family="Helvetica,sans-Serif" font-size="11.00">&lt; 0</text>
<polygon fill="#ffffff" stroke="transparent" points="163.5,-39 163.5,-57 307.5,-57 307.5,-39 163.5,-39"/>
<polygon fill="none" stroke="black" points="163.5,-39 163.5,-57 307.5,-57 307.5,-39 163.5,-39"/>
<text text-anchor="start" x="297.5" y="-45.2" font-family="Helvetica,sans-Serif" font-size="11.00"> &#160;</text>
<polygon fill="#ffffff" stroke="transparent" points="307.5,-39 307.5,-57 377.5,-57 377.5,-39 307.5,-39"/>
<polygon fill="none" stroke="black" points="307.5,-39 307.5,-57 377.5,-57 377.5,-39 307.5,-39"/>
<text text-anchor="start" x="358.5" y="-45.2" font-family="Helvetica,sans-Serif" font-size="11.00">1 &gt;</text>
<polygon fill="none" stroke="black" stroke-width="2" points="9,-38 9,-366 378,-366 378,-38 9,-38"/>
</a>
</g>
</g>
<!-- tdh_od.sia405cc_cable_point&#45;&gt;sia405cc_cable_point_elevation_determination -->
<g id="edge1" class="edge">
<title>tdh_od.sia405cc_cable_point:w&#45;&gt;sia405cc_cable_point_elevation_determination:e</title>
<path fill="none" stroke="black" d="M412.99,-332C401.68,-332 394.49,-332 378.5,-332"/>
<polygon fill="black" stroke="black" points="419.5,-332 427.5,-335.6 423.5,-332 427.5,-332 427.5,-332 427.5,-332 423.5,-332 427.5,-328.4 419.5,-332 419.5,-332"/>
<ellipse fill="none" stroke="black" cx="416.3" cy="-332" rx="3.2" ry="3.2"/>
</g>
</g>
</svg>
