<?xml version="1.0" encoding="UTF-8" standalone="no"?>
<!DOCTYPE svg PUBLIC "-//W3C//DTD SVG 1.1//EN"
 "http://www.w3.org/Graphics/SVG/1.1/DTD/svg11.dtd">
<!-- Generated by graphviz version 2.47.1 (20210515.0534)
 -->
<!-- Title: oneDegreeRelationshipsDiagram Pages: 1 -->
<svg width="696pt" height="399pt"
 viewBox="0.00 0.00 696.00 399.00" xmlns="http://www.w3.org/2000/svg" xmlns:xlink="http://www.w3.org/1999/xlink">
<g id="graph0" class="graph" transform="scale(1 1) rotate(0) translate(4 395)">
<title>oneDegreeRelationshipsDiagram</title>
<polygon fill="#ffffff" stroke="transparent" points="-4,4 -4,-395 692,-395 692,4 -4,4"/>
<text text-anchor="middle" x="73.5" y="-7.2" font-family="Helvetica,sans-Serif" font-size="11.00">Generated by SchemaSpy</text>
<!-- tdh_od.sia405pt_protection_tube -->
<g id="node1" class="node">
<title>tdh_od.sia405pt_protection_tube</title>
<g id="a_node1"><a xlink:href="../../../tdh_od/tables/sia405pt_protection_tube.html" xlink:title="tdh_od.sia405pt_protection_tube" target="_top">
<polygon fill="#ffffff" stroke="transparent" points="441,-263 441,-387 680,-387 680,-263 441,-263"/>
<polygon fill="#f5f5f5" stroke="transparent" points="441.5,-365 441.5,-387 680.5,-387 680.5,-365 441.5,-365"/>
<polygon fill="none" stroke="black" points="441.5,-365 441.5,-387 680.5,-387 680.5,-365 441.5,-365"/>
<text text-anchor="start" x="446.5" y="-374.2" font-family="Helvetica,sans-Serif" font-weight="bold" font-size="11.00">tdh_od.sia405pt_protection_tube</text>
<text text-anchor="start" x="641.5" y="-373.2" font-family="Helvetica,sans-Serif" font-size="11.00">[table]</text>
<polygon fill="none" stroke="black" points="441.5,-343 441.5,-365 680.5,-365 680.5,-343 441.5,-343"/>
<image xlink:href="../../images/foreignKeys.png" width="11px" height="12px" preserveAspectRatio="xMinYMin meet" x="446.5" y="-360"/>
<text text-anchor="start" x="495.5" y="-351.2" font-family="Helvetica,sans-Serif" font-size="11.00">material</text>
<polygon fill="none" stroke="black" points="441.5,-321 441.5,-343 680.5,-343 680.5,-321 441.5,-321"/>
<image xlink:href="../../images/foreignKeys.png" width="11px" height="12px" preserveAspectRatio="xMinYMin meet" x="446.5" y="-338"/>
<text text-anchor="start" x="495.5" y="-329.2" font-family="Helvetica,sans-Serif" font-size="11.00">horizontal_positioning</text>
<polygon fill="none" stroke="black" points="441.5,-299 441.5,-321 680.5,-321 680.5,-299 441.5,-299"/>
<image xlink:href="../../images/foreignKeys.png" width="11px" height="12px" preserveAspectRatio="xMinYMin meet" x="446.5" y="-316"/>
<text text-anchor="start" x="495.5" y="-307.2" font-family="Helvetica,sans-Serif" font-size="11.00">status</text>
<polygon fill="none" stroke="black" points="441.5,-281 441.5,-299 680.5,-299 680.5,-281 441.5,-281"/>
<text text-anchor="start" x="444.5" y="-287.2" font-family="Helvetica,sans-Serif" font-size="11.00">...</text>
<polygon fill="#ffffff" stroke="transparent" points="441.5,-263 441.5,-281 545.5,-281 545.5,-263 441.5,-263"/>
<polygon fill="none" stroke="black" points="441.5,-263 441.5,-281 545.5,-281 545.5,-263 441.5,-263"/>
<text text-anchor="start" x="444.5" y="-269.2" font-family="Helvetica,sans-Serif" font-size="11.00">&lt; 3</text>
<polygon fill="#ffffff" stroke="transparent" points="545.5,-263 545.5,-281 626.5,-281 626.5,-263 545.5,-263"/>
<polygon fill="none" stroke="black" points="545.5,-263 545.5,-281 626.5,-281 626.5,-263 545.5,-263"/>
<text text-anchor="start" x="589.5" y="-269.2" font-family="Helvetica,sans-Serif" font-size="11.00">0 rows</text>
<polygon fill="#ffffff" stroke="transparent" points="626.5,-263 626.5,-281 680.5,-281 680.5,-263 626.5,-263"/>
<polygon fill="none" stroke="black" points="626.5,-263 626.5,-281 680.5,-281 680.5,-263 626.5,-263"/>
<text text-anchor="start" x="670.5" y="-269.2" font-family="Helvetica,sans-Serif" font-size="11.00"> &#160;</text>
</a>
</g>
</g>
<!-- sia405pt_protection_tube_horizontal_positioning -->
<g id="node2" class="node">
<title>sia405pt_protection_tube_horizontal_positioning</title>
<g id="a_node2"><a xlink:href="../../tables/sia405pt_protection_tube_horizo_431f8400.html" xlink:title="sia405pt_protection_tube_horizontal_positioning" target="_top">
<polygon fill="#ffffff" stroke="transparent" points="8,-37 8,-367 392,-367 392,-37 8,-37"/>
<polygon fill="#f5f5f5" stroke="transparent" points="10,-343 10,-365 390,-365 390,-343 10,-343"/>
<polygon fill="none" stroke="black" points="10,-343 10,-365 390,-365 390,-343 10,-343"/>
<text text-anchor="start" x="15" y="-352.2" font-family="Helvetica,sans-Serif" font-weight="bold" font-size="11.00">sia405pt_protection_tube_horizontal_positioning</text>
<text text-anchor="start" x="351" y="-351.2" font-family="Helvetica,sans-Serif" font-size="11.00">[table]</text>
<polygon fill="none" stroke="black" points="10,-321 10,-343 320,-343 320,-321 10,-321"/>
<image xlink:href="../../images/primaryKeys.png" width="11px" height="12px" preserveAspectRatio="xMinYMin meet" x="15" y="-338"/>
<text text-anchor="start" x="30" y="-329.2" font-family="Helvetica,sans-Serif" font-size="11.00">code</text>
<polygon fill="none" stroke="black" points="320,-321 320,-343 390,-343 390,-321 320,-321"/>
<text text-anchor="start" x="323" y="-329.2" font-family="Helvetica,sans-Serif" font-size="11.00">int4[10]</text>
<polygon fill="none" stroke="black" points="10,-299 10,-321 320,-321 320,-299 10,-299"/>
<text text-anchor="start" x="30" y="-307.2" font-family="Helvetica,sans-Serif" font-size="11.00">vsacode</text>
<polygon fill="none" stroke="black" points="320,-299 320,-321 390,-321 390,-299 320,-299"/>
<text text-anchor="start" x="323" y="-307.2" font-family="Helvetica,sans-Serif" font-size="11.00">int4[10]</text>
<polygon fill="none" stroke="black" points="10,-277 10,-299 320,-299 320,-277 10,-277"/>
<text text-anchor="start" x="30" y="-285.2" font-family="Helvetica,sans-Serif" font-size="11.00">value_en</text>
<polygon fill="none" stroke="black" points="320,-277 320,-299 390,-299 390,-277 320,-277"/>
<text text-anchor="start" x="323" y="-285.2" font-family="Helvetica,sans-Serif" font-size="11.00">varchar[100]</text>
<polygon fill="none" stroke="black" points="10,-255 10,-277 320,-277 320,-255 10,-255"/>
<text text-anchor="start" x="30" y="-263.2" font-family="Helvetica,sans-Serif" font-size="11.00">value_de</text>
<polygon fill="none" stroke="black" points="320,-255 320,-277 390,-277 390,-255 320,-255"/>
<text text-anchor="start" x="323" y="-263.2" font-family="Helvetica,sans-Serif" font-size="11.00">varchar[100]</text>
<polygon fill="none" stroke="black" points="10,-233 10,-255 320,-255 320,-233 10,-233"/>
<text text-anchor="start" x="30" y="-241.2" font-family="Helvetica,sans-Serif" font-size="11.00">value_fr</text>
<polygon fill="none" stroke="black" points="320,-233 320,-255 390,-255 390,-233 320,-233"/>
<text text-anchor="start" x="323" y="-241.2" font-family="Helvetica,sans-Serif" font-size="11.00">varchar[100]</text>
<polygon fill="none" stroke="black" points="10,-211 10,-233 320,-233 320,-211 10,-211"/>
<text text-anchor="start" x="30" y="-219.2" font-family="Helvetica,sans-Serif" font-size="11.00">value_it</text>
<polygon fill="none" stroke="black" points="320,-211 320,-233 390,-233 390,-211 320,-211"/>
<text text-anchor="start" x="323" y="-219.2" font-family="Helvetica,sans-Serif" font-size="11.00">varchar[100]</text>
<polygon fill="none" stroke="black" points="10,-189 10,-211 320,-211 320,-189 10,-189"/>
<text text-anchor="start" x="30" y="-197.2" font-family="Helvetica,sans-Serif" font-size="11.00">value_ro</text>
<polygon fill="none" stroke="black" points="320,-189 320,-211 390,-211 390,-189 320,-189"/>
<text text-anchor="start" x="323" y="-197.2" font-family="Helvetica,sans-Serif" font-size="11.00">varchar[100]</text>
<polygon fill="none" stroke="black" points="10,-167 10,-189 320,-189 320,-167 10,-167"/>
<text text-anchor="start" x="30" y="-175.2" font-family="Helvetica,sans-Serif" font-size="11.00">abbr_en</text>
<polygon fill="none" stroke="black" points="320,-167 320,-189 390,-189 390,-167 320,-167"/>
<text text-anchor="start" x="323" y="-175.2" font-family="Helvetica,sans-Serif" font-size="11.00">varchar[3]</text>
<polygon fill="none" stroke="black" points="10,-145 10,-167 320,-167 320,-145 10,-145"/>
<text text-anchor="start" x="30" y="-153.2" font-family="Helvetica,sans-Serif" font-size="11.00">abbr_de</text>
<polygon fill="none" stroke="black" points="320,-145 320,-167 390,-167 390,-145 320,-145"/>
<text text-anchor="start" x="323" y="-153.2" font-family="Helvetica,sans-Serif" font-size="11.00">varchar[3]</text>
<polygon fill="none" stroke="black" points="10,-123 10,-145 320,-145 320,-123 10,-123"/>
<text text-anchor="start" x="30" y="-131.2" font-family="Helvetica,sans-Serif" font-size="11.00">abbr_fr</text>
<polygon fill="none" stroke="black" points="320,-123 320,-145 390,-145 390,-123 320,-123"/>
<text text-anchor="start" x="323" y="-131.2" font-family="Helvetica,sans-Serif" font-size="11.00">varchar[3]</text>
<polygon fill="none" stroke="black" points="10,-101 10,-123 320,-123 320,-101 10,-101"/>
<text text-anchor="start" x="30" y="-109.2" font-family="Helvetica,sans-Serif" font-size="11.00">abbr_it</text>
<polygon fill="none" stroke="black" points="320,-101 320,-123 390,-123 390,-101 320,-101"/>
<text text-anchor="start" x="323" y="-109.2" font-family="Helvetica,sans-Serif" font-size="11.00">varchar[3]</text>
<polygon fill="none" stroke="black" points="10,-79 10,-101 320,-101 320,-79 10,-79"/>
<text text-anchor="start" x="30" y="-87.2" font-family="Helvetica,sans-Serif" font-size="11.00">abbr_ro</text>
<polygon fill="none" stroke="black" points="320,-79 320,-101 390,-101 390,-79 320,-79"/>
<text text-anchor="start" x="323" y="-87.2" font-family="Helvetica,sans-Serif" font-size="11.00">varchar[3]</text>
<polygon fill="none" stroke="black" points="10,-57 10,-79 320,-79 320,-57 10,-57"/>
<text text-anchor="start" x="30" y="-65.2" font-family="Helvetica,sans-Serif" font-size="11.00">active</text>
<polygon fill="none" stroke="black" points="320,-57 320,-79 390,-79 390,-57 320,-57"/>
<text text-anchor="start" x="323" y="-65.2" font-family="Helvetica,sans-Serif" font-size="11.00">bool[1]</text>
<polygon fill="#ffffff" stroke="transparent" points="10,-39 10,-57 169,-57 169,-39 10,-39"/>
<polygon fill="none" stroke="black" points="10,-39 10,-57 169,-57 169,-39 10,-39"/>
<text text-anchor="start" x="13" y="-45.2" font-family="Helvetica,sans-Serif" font-size="11.00">&lt; 0</text>
<polygon fill="#ffffff" stroke="transparent" points="169,-39 169,-57 320,-57 320,-39 169,-39"/>
<polygon fill="none" stroke="black" points="169,-39 169,-57 320,-57 320,-39 169,-39"/>
<text text-anchor="start" x="310" y="-45.2" font-family="Helvetica,sans-Serif" font-size="11.00"> &#160;</text>
<polygon fill="#ffffff" stroke="transparent" points="320,-39 320,-57 390,-57 390,-39 320,-39"/>
<polygon fill="none" stroke="black" points="320,-39 320,-57 390,-57 390,-39 320,-39"/>
<text text-anchor="start" x="371" y="-45.2" font-family="Helvetica,sans-Serif" font-size="11.00">1 &gt;</text>
<polygon fill="none" stroke="black" stroke-width="2" points="9,-38 9,-366 391,-366 391,-38 9,-38"/>
</a>
</g>
</g>
<!-- tdh_od.sia405pt_protection_tube&#45;&gt;sia405pt_protection_tube_horizontal_positioning -->
<g id="edge1" class="edge">
<title>tdh_od.sia405pt_protection_tube:w&#45;&gt;sia405pt_protection_tube_horizontal_positioning:e</title>
<path fill="none" stroke="black" d="M425.84,-332C414.41,-332 407.16,-332 391,-332"/>
<polygon fill="black" stroke="black" points="432.5,-332 440.5,-335.6 436.5,-332 440.5,-332 440.5,-332 440.5,-332 436.5,-332 440.5,-328.4 432.5,-332 432.5,-332"/>
<ellipse fill="none" stroke="black" cx="429.3" cy="-332" rx="3.2" ry="3.2"/>
</g>
</g>
</svg>
