<?xml version="1.0" encoding="UTF-8" standalone="no"?>
<!DOCTYPE svg PUBLIC "-//W3C//DTD SVG 1.1//EN"
 "http://www.w3.org/Graphics/SVG/1.1/DTD/svg11.dtd">
<!-- Generated by graphviz version 2.43.0 (0)
 -->
<!-- Title: oneDegreeRelationshipsDiagram Pages: 1 -->
<svg width="798pt" height="641pt"
 viewBox="0.00 0.00 798.00 641.00" xmlns="http://www.w3.org/2000/svg" xmlns:xlink="http://www.w3.org/1999/xlink">
<g id="graph0" class="graph" transform="scale(1 1) rotate(0) translate(4 637)">
<title>oneDegreeRelationshipsDiagram</title>
<polygon fill="#ffffff" stroke="transparent" points="-4,4 -4,-637 794,-637 794,4 -4,4"/>
<text text-anchor="middle" x="79.5" y="-7.2" font-family="Helvetica,sans-Serif" font-size="11.00">Generated by SchemaSpy</text>
<!-- tdh_od.sia405cc_cable_point -->
<g id="node1" class="node">
<title>tdh_od.sia405cc_cable_point</title>
<g id="a_node1"><a xlink:href="../../../tdh_od/tables/sia405cc_cable_point.html" xlink:title="tdh_od.sia405cc_cable_point" target="_top">
<polygon fill="#ffffff" stroke="transparent" points="527,-483 527,-629 782,-629 782,-483 527,-483"/>
<polygon fill="#f5f5f5" stroke="transparent" points="527.5,-607 527.5,-629 782.5,-629 782.5,-607 527.5,-607"/>
<polygon fill="none" stroke="black" points="527.5,-607 527.5,-629 782.5,-629 782.5,-607 527.5,-607"/>
<text text-anchor="start" x="532.5" y="-616.2" font-family="Helvetica,sans-Serif" font-weight="bold" font-size="11.00">tdh_od.sia405cc_cable_point</text>
<text text-anchor="start" x="740.5" y="-615.2" font-family="Helvetica,sans-Serif" font-size="11.00">[table]</text>
<polygon fill="none" stroke="black" points="527.5,-585 527.5,-607 782.5,-607 782.5,-585 527.5,-585"/>
<image xlink:href="../../images/foreignKeys.png" width="11px" height="12px" preserveAspectRatio="xMinYMin meet" x="532.5" y="-602"/>
<text text-anchor="start" x="575.5" y="-593.2" font-family="Helvetica,sans-Serif" font-size="11.00">kind</text>
<polygon fill="none" stroke="black" points="527.5,-563 527.5,-585 782.5,-585 782.5,-563 527.5,-563"/>
<image xlink:href="../../images/foreignKeys.png" width="11px" height="12px" preserveAspectRatio="xMinYMin meet" x="532.5" y="-580"/>
<text text-anchor="start" x="575.5" y="-571.2" font-family="Helvetica,sans-Serif" font-size="11.00">horizontal_positioning</text>
<polygon fill="none" stroke="black" points="527.5,-541 527.5,-563 782.5,-563 782.5,-541 527.5,-541"/>
<image xlink:href="../../images/foreignKeys.png" width="11px" height="12px" preserveAspectRatio="xMinYMin meet" x="532.5" y="-558"/>
<text text-anchor="start" x="575.5" y="-549.2" font-family="Helvetica,sans-Serif" font-size="11.00">elevation_determination</text>
<polygon fill="none" stroke="black" points="527.5,-519 527.5,-541 782.5,-541 782.5,-519 527.5,-519"/>
<image xlink:href="../../images/foreignKeys.png" width="11px" height="12px" preserveAspectRatio="xMinYMin meet" x="532.5" y="-536"/>
<text text-anchor="start" x="575.5" y="-527.2" font-family="Helvetica,sans-Serif" font-size="11.00">status</text>
<polygon fill="none" stroke="black" points="527.5,-501 527.5,-519 782.5,-519 782.5,-501 527.5,-501"/>
<text text-anchor="start" x="530.5" y="-507.2" font-family="Helvetica,sans-Serif" font-size="11.00">...</text>
<polygon fill="#ffffff" stroke="transparent" points="527.5,-483 527.5,-501 782.5,-501 782.5,-483 527.5,-483"/>
<polygon fill="none" stroke="black" points="527.5,-483 527.5,-501 782.5,-501 782.5,-483 527.5,-483"/>
<polygon fill="#ffffff" stroke="transparent" points="528.5,-484 528.5,-500 611.5,-500 611.5,-484 528.5,-484"/>
<text text-anchor="start" x="530.5" y="-489.2" font-family="Helvetica,sans-Serif" font-size="11.00">&lt; 4</text>
<polygon fill="#ffffff" stroke="transparent" points="611.5,-484 611.5,-500 711.5,-500 711.5,-484 611.5,-484"/>
<text text-anchor="start" x="643" y="-489.2" font-family="Helvetica,sans-Serif" font-size="11.00">0 rows</text>
<polygon fill="#ffffff" stroke="transparent" points="711.5,-484 711.5,-500 781.5,-500 781.5,-484 711.5,-484"/>
<text text-anchor="start" x="771.5" y="-489.2" font-family="Helvetica,sans-Serif" font-size="11.00"> &#160;</text>
<polygon fill="black" stroke="black" points="611.5,-484 611.5,-500 611.5,-500 611.5,-484 611.5,-484"/>
<polygon fill="black" stroke="black" points="711.5,-484 711.5,-500 711.5,-500 711.5,-484 711.5,-484"/>
</a>
</g>
</g>
<!-- sia405cc_cable_point_elevation_determination -->
<g id="node2" class="node">
<title>sia405cc_cable_point_elevation_determination</title>
<g id="a_node2"><a xlink:href="../../tables/sia405cc_cable_point_elevation__6472a8ff.html" xlink:title="sia405cc_cable_point_elevation_determination" target="_top">
<polygon fill="#ffffff" stroke="transparent" points="8,-37 8,-587 478,-587 478,-37 8,-37"/>
<polygon fill="#f5f5f5" stroke="transparent" points="10,-563 10,-585 476,-585 476,-563 10,-563"/>
<polygon fill="none" stroke="black" points="10,-563 10,-585 476,-585 476,-563 10,-563"/>
<text text-anchor="start" x="15" y="-572.2" font-family="Helvetica,sans-Serif" font-weight="bold" font-size="11.00">sia405cc_cable_point_elevation_determination</text>
<text text-anchor="start" x="434" y="-571.2" font-family="Helvetica,sans-Serif" font-size="11.00">[table]</text>
<polygon fill="none" stroke="black" points="10,-541 10,-563 370,-563 370,-541 10,-541"/>
<image xlink:href="../../images/primaryKeys.png" width="11px" height="12px" preserveAspectRatio="xMinYMin meet" x="15" y="-558"/>
<text text-anchor="start" x="30" y="-549.2" font-family="Helvetica,sans-Serif" font-size="11.00">code</text>
<polygon fill="none" stroke="black" points="370,-541 370,-563 476,-563 476,-541 370,-541"/>
<text text-anchor="start" x="373" y="-549.2" font-family="Helvetica,sans-Serif" font-size="11.00">int4[10]</text>
<polygon fill="none" stroke="black" points="10,-519 10,-541 370,-541 370,-519 10,-519"/>
<text text-anchor="start" x="30" y="-527.2" font-family="Helvetica,sans-Serif" font-size="11.00">vsacode</text>
<polygon fill="none" stroke="black" points="370,-519 370,-541 476,-541 476,-519 370,-519"/>
<text text-anchor="start" x="373" y="-527.2" font-family="Helvetica,sans-Serif" font-size="11.00">int4[10]</text>
<polygon fill="none" stroke="black" points="10,-497 10,-519 370,-519 370,-497 10,-497"/>
<text text-anchor="start" x="30" y="-505.2" font-family="Helvetica,sans-Serif" font-size="11.00">value_en</text>
<polygon fill="none" stroke="black" points="370,-497 370,-519 476,-519 476,-497 370,-497"/>
<text text-anchor="start" x="373" y="-505.2" font-family="Helvetica,sans-Serif" font-size="11.00">varchar[100]</text>
<polygon fill="none" stroke="black" points="10,-475 10,-497 370,-497 370,-475 10,-475"/>
<text text-anchor="start" x="30" y="-483.2" font-family="Helvetica,sans-Serif" font-size="11.00">value_de</text>
<polygon fill="none" stroke="black" points="370,-475 370,-497 476,-497 476,-475 370,-475"/>
<text text-anchor="start" x="373" y="-483.2" font-family="Helvetica,sans-Serif" font-size="11.00">varchar[100]</text>
<polygon fill="none" stroke="black" points="10,-453 10,-475 370,-475 370,-453 10,-453"/>
<text text-anchor="start" x="30" y="-461.2" font-family="Helvetica,sans-Serif" font-size="11.00">value_fr</text>
<polygon fill="none" stroke="black" points="370,-453 370,-475 476,-475 476,-453 370,-453"/>
<text text-anchor="start" x="373" y="-461.2" font-family="Helvetica,sans-Serif" font-size="11.00">varchar[100]</text>
<polygon fill="none" stroke="black" points="10,-431 10,-453 370,-453 370,-431 10,-431"/>
<text text-anchor="start" x="30" y="-439.2" font-family="Helvetica,sans-Serif" font-size="11.00">value_it</text>
<polygon fill="none" stroke="black" points="370,-431 370,-453 476,-453 476,-431 370,-431"/>
<text text-anchor="start" x="373" y="-439.2" font-family="Helvetica,sans-Serif" font-size="11.00">varchar[100]</text>
<polygon fill="none" stroke="black" points="10,-409 10,-431 370,-431 370,-409 10,-409"/>
<text text-anchor="start" x="30" y="-417.2" font-family="Helvetica,sans-Serif" font-size="11.00">value_ro</text>
<polygon fill="none" stroke="black" points="370,-409 370,-431 476,-431 476,-409 370,-409"/>
<text text-anchor="start" x="373" y="-417.2" font-family="Helvetica,sans-Serif" font-size="11.00">varchar[100]</text>
<polygon fill="none" stroke="black" points="10,-387 10,-409 370,-409 370,-387 10,-387"/>
<text text-anchor="start" x="30" y="-395.2" font-family="Helvetica,sans-Serif" font-size="11.00">abbr_en</text>
<polygon fill="none" stroke="black" points="370,-387 370,-409 476,-409 476,-387 370,-387"/>
<text text-anchor="start" x="373" y="-395.2" font-family="Helvetica,sans-Serif" font-size="11.00">varchar[3]</text>
<polygon fill="none" stroke="black" points="10,-365 10,-387 370,-387 370,-365 10,-365"/>
<text text-anchor="start" x="30" y="-373.2" font-family="Helvetica,sans-Serif" font-size="11.00">abbr_de</text>
<polygon fill="none" stroke="black" points="370,-365 370,-387 476,-387 476,-365 370,-365"/>
<text text-anchor="start" x="373" y="-373.2" font-family="Helvetica,sans-Serif" font-size="11.00">varchar[3]</text>
<polygon fill="none" stroke="black" points="10,-343 10,-365 370,-365 370,-343 10,-343"/>
<text text-anchor="start" x="30" y="-351.2" font-family="Helvetica,sans-Serif" font-size="11.00">abbr_fr</text>
<polygon fill="none" stroke="black" points="370,-343 370,-365 476,-365 476,-343 370,-343"/>
<text text-anchor="start" x="373" y="-351.2" font-family="Helvetica,sans-Serif" font-size="11.00">varchar[3]</text>
<polygon fill="none" stroke="black" points="10,-321 10,-343 370,-343 370,-321 10,-321"/>
<text text-anchor="start" x="30" y="-329.2" font-family="Helvetica,sans-Serif" font-size="11.00">abbr_it</text>
<polygon fill="none" stroke="black" points="370,-321 370,-343 476,-343 476,-321 370,-321"/>
<text text-anchor="start" x="373" y="-329.2" font-family="Helvetica,sans-Serif" font-size="11.00">varchar[3]</text>
<polygon fill="none" stroke="black" points="10,-299 10,-321 370,-321 370,-299 10,-299"/>
<text text-anchor="start" x="30" y="-307.2" font-family="Helvetica,sans-Serif" font-size="11.00">abbr_ro</text>
<polygon fill="none" stroke="black" points="370,-299 370,-321 476,-321 476,-299 370,-299"/>
<text text-anchor="start" x="373" y="-307.2" font-family="Helvetica,sans-Serif" font-size="11.00">varchar[3]</text>
<polygon fill="none" stroke="black" points="10,-277 10,-299 370,-299 370,-277 10,-277"/>
<text text-anchor="start" x="30" y="-285.2" font-family="Helvetica,sans-Serif" font-size="11.00">description_en</text>
<polygon fill="none" stroke="black" points="370,-277 370,-299 476,-299 476,-277 370,-277"/>
<text text-anchor="start" x="373" y="-285.2" font-family="Helvetica,sans-Serif" font-size="11.00">text[2147483647]</text>
<polygon fill="none" stroke="black" points="10,-255 10,-277 370,-277 370,-255 10,-255"/>
<text text-anchor="start" x="30" y="-263.2" font-family="Helvetica,sans-Serif" font-size="11.00">description_de</text>
<polygon fill="none" stroke="black" points="370,-255 370,-277 476,-277 476,-255 370,-255"/>
<text text-anchor="start" x="373" y="-263.2" font-family="Helvetica,sans-Serif" font-size="11.00">text[2147483647]</text>
<polygon fill="none" stroke="black" points="10,-233 10,-255 370,-255 370,-233 10,-233"/>
<text text-anchor="start" x="30" y="-241.2" font-family="Helvetica,sans-Serif" font-size="11.00">description_fr</text>
<polygon fill="none" stroke="black" points="370,-233 370,-255 476,-255 476,-233 370,-233"/>
<text text-anchor="start" x="373" y="-241.2" font-family="Helvetica,sans-Serif" font-size="11.00">text[2147483647]</text>
<polygon fill="none" stroke="black" points="10,-211 10,-233 370,-233 370,-211 10,-211"/>
<text text-anchor="start" x="30" y="-219.2" font-family="Helvetica,sans-Serif" font-size="11.00">description_it</text>
<polygon fill="none" stroke="black" points="370,-211 370,-233 476,-233 476,-211 370,-211"/>
<text text-anchor="start" x="373" y="-219.2" font-family="Helvetica,sans-Serif" font-size="11.00">text[2147483647]</text>
<polygon fill="none" stroke="black" points="10,-189 10,-211 370,-211 370,-189 10,-189"/>
<text text-anchor="start" x="30" y="-197.2" font-family="Helvetica,sans-Serif" font-size="11.00">description_ro</text>
<polygon fill="none" stroke="black" points="370,-189 370,-211 476,-211 476,-189 370,-189"/>
<text text-anchor="start" x="373" y="-197.2" font-family="Helvetica,sans-Serif" font-size="11.00">text[2147483647]</text>
<polygon fill="none" stroke="black" points="10,-167 10,-189 370,-189 370,-167 10,-167"/>
<text text-anchor="start" x="30" y="-175.2" font-family="Helvetica,sans-Serif" font-size="11.00">display_en</text>
<polygon fill="none" stroke="black" points="370,-167 370,-189 476,-189 476,-167 370,-167"/>
<text text-anchor="start" x="373" y="-175.2" font-family="Helvetica,sans-Serif" font-size="11.00">varchar[100]</text>
<polygon fill="none" stroke="black" points="10,-145 10,-167 370,-167 370,-145 10,-145"/>
<text text-anchor="start" x="30" y="-153.2" font-family="Helvetica,sans-Serif" font-size="11.00">display_de</text>
<polygon fill="none" stroke="black" points="370,-145 370,-167 476,-167 476,-145 370,-145"/>
<text text-anchor="start" x="373" y="-153.2" font-family="Helvetica,sans-Serif" font-size="11.00">varchar[100]</text>
<polygon fill="none" stroke="black" points="10,-123 10,-145 370,-145 370,-123 10,-123"/>
<text text-anchor="start" x="30" y="-131.2" font-family="Helvetica,sans-Serif" font-size="11.00">display_fr</text>
<polygon fill="none" stroke="black" points="370,-123 370,-145 476,-145 476,-123 370,-123"/>
<text text-anchor="start" x="373" y="-131.2" font-family="Helvetica,sans-Serif" font-size="11.00">varchar[100]</text>
<polygon fill="none" stroke="black" points="10,-101 10,-123 370,-123 370,-101 10,-101"/>
<text text-anchor="start" x="30" y="-109.2" font-family="Helvetica,sans-Serif" font-size="11.00">display_it</text>
<polygon fill="none" stroke="black" points="370,-101 370,-123 476,-123 476,-101 370,-101"/>
<text text-anchor="start" x="373" y="-109.2" font-family="Helvetica,sans-Serif" font-size="11.00">varchar[100]</text>
<polygon fill="none" stroke="black" points="10,-79 10,-101 370,-101 370,-79 10,-79"/>
<text text-anchor="start" x="30" y="-87.2" font-family="Helvetica,sans-Serif" font-size="11.00">display_ro</text>
<polygon fill="none" stroke="black" points="370,-79 370,-101 476,-101 476,-79 370,-79"/>
<text text-anchor="start" x="373" y="-87.2" font-family="Helvetica,sans-Serif" font-size="11.00">varchar[100]</text>
<polygon fill="none" stroke="black" points="10,-57 10,-79 370,-79 370,-57 10,-57"/>
<text text-anchor="start" x="30" y="-65.2" font-family="Helvetica,sans-Serif" font-size="11.00">active</text>
<polygon fill="none" stroke="black" points="370,-57 370,-79 476,-79 476,-57 370,-57"/>
<text text-anchor="start" x="373" y="-65.2" font-family="Helvetica,sans-Serif" font-size="11.00">bool[1]</text>
<polygon fill="#ffffff" stroke="transparent" points="10,-39 10,-57 476,-57 476,-39 10,-39"/>
<polygon fill="none" stroke="black" points="10,-39 10,-57 476,-57 476,-39 10,-39"/>
<polygon fill="#ffffff" stroke="transparent" points="11,-40 11,-56 170,-56 170,-40 11,-40"/>
<text text-anchor="start" x="13" y="-45.2" font-family="Helvetica,sans-Serif" font-size="11.00">&lt; 0</text>
<polygon fill="#ffffff" stroke="transparent" points="170,-40 170,-56 317,-56 317,-40 170,-40"/>
<text text-anchor="start" x="239.5" y="-45.2" font-family="Helvetica,sans-Serif" font-size="11.00"> &#160;</text>
<polygon fill="#ffffff" stroke="transparent" points="317,-40 317,-56 475,-56 475,-40 317,-40"/>
<text text-anchor="start" x="453" y="-45.2" font-family="Helvetica,sans-Serif" font-size="11.00">1 &gt;</text>
<polygon fill="black" stroke="black" points="170,-40 170,-56 170,-56 170,-40 170,-40"/>
<polygon fill="black" stroke="black" points="317,-40 317,-56 317,-56 317,-40 317,-40"/>
<polygon fill="none" stroke="black" stroke-width="2" points="9,-38 9,-586 477,-586 477,-38 9,-38"/>
</a>
</g>
</g>
<!-- tdh_od.sia405cc_cable_point&#45;&gt;sia405cc_cable_point_elevation_determination -->
<g id="edge1" class="edge">
<title>tdh_od.sia405cc_cable_point:w&#45;&gt;sia405cc_cable_point_elevation_determination:e</title>
<path fill="none" stroke="black" d="M511.84,-552C500.41,-552 493.16,-552 477,-552"/>
<polygon fill="black" stroke="black" points="518.5,-552 526.5,-555.6 522.5,-552 526.5,-552 526.5,-552 526.5,-552 522.5,-552 526.5,-548.4 518.5,-552 518.5,-552"/>
<ellipse fill="none" stroke="black" cx="515.3" cy="-552" rx="3.2" ry="3.2"/>
</g>
</g>
</svg>
