<?xml version="1.0" encoding="UTF-8" standalone="no"?>
<!DOCTYPE svg PUBLIC "-//W3C//DTD SVG 1.1//EN"
 "http://www.w3.org/Graphics/SVG/1.1/DTD/svg11.dtd">
<!-- Generated by graphviz version 2.43.0 (0)
 -->
<!-- Title: oneDegreeRelationshipsDiagram Pages: 1 -->
<svg width="502pt" height="399pt"
 viewBox="0.00 0.00 502.00 399.00" xmlns="http://www.w3.org/2000/svg" xmlns:xlink="http://www.w3.org/1999/xlink">
<g id="graph0" class="graph" transform="scale(1 1) rotate(0) translate(4 395)">
<title>oneDegreeRelationshipsDiagram</title>
<polygon fill="#ffffff" stroke="transparent" points="-4,4 -4,-395 498,-395 498,4 -4,4"/>
<text text-anchor="middle" x="79.5" y="-7.2" font-family="Helvetica,sans-Serif" font-size="11.00">Generated by SchemaSpy</text>
<!-- tdh_od.structure -->
<g id="node1" class="node">
<title>tdh_od.structure</title>
<g id="a_node1"><a xlink:href="../../../tdh_od/tables/structure.html" xlink:title="tdh_od.structure" target="_top">
<polygon fill="#ffffff" stroke="transparent" points="280,-109 280,-387 486,-387 486,-109 280,-109"/>
<polygon fill="#f5f5f5" stroke="transparent" points="280,-365 280,-387 486,-387 486,-365 280,-365"/>
<polygon fill="none" stroke="black" points="280,-365 280,-387 486,-387 486,-365 280,-365"/>
<text text-anchor="start" x="285" y="-374.2" font-family="Helvetica,sans-Serif" font-weight="bold" font-size="11.00">tdh_od.structure</text>
<text text-anchor="start" x="444" y="-373.2" font-family="Helvetica,sans-Serif" font-size="11.00">[table]</text>
<polygon fill="none" stroke="black" points="280,-343 280,-365 486,-365 486,-343 280,-343"/>
<image xlink:href="../../images/foreignKeys.png" width="11px" height="12px" preserveAspectRatio="xMinYMin meet" x="285" y="-360"/>
<text text-anchor="start" x="300" y="-351.2" font-family="Helvetica,sans-Serif" font-size="11.00">horizontal_positioning</text>
<polygon fill="none" stroke="black" points="280,-321 280,-343 486,-343 486,-321 280,-321"/>
<image xlink:href="../../images/foreignKeys.png" width="11px" height="12px" preserveAspectRatio="xMinYMin meet" x="285" y="-338"/>
<text text-anchor="start" x="300" y="-329.2" font-family="Helvetica,sans-Serif" font-size="11.00">status</text>
<polygon fill="none" stroke="black" points="280,-299 280,-321 486,-321 486,-299 280,-299"/>
<image xlink:href="../../images/foreignKeys.png" width="11px" height="12px" preserveAspectRatio="xMinYMin meet" x="285" y="-316"/>
<text text-anchor="start" x="300" y="-307.2" font-family="Helvetica,sans-Serif" font-size="11.00">kind</text>
<polygon fill="none" stroke="black" points="280,-277 280,-299 486,-299 486,-277 280,-277"/>
<image xlink:href="../../images/foreignKeys.png" width="11px" height="12px" preserveAspectRatio="xMinYMin meet" x="285" y="-294"/>
<text text-anchor="start" x="300" y="-285.2" font-family="Helvetica,sans-Serif" font-size="11.00">venting</text>
<polygon fill="none" stroke="black" points="280,-255 280,-277 486,-277 486,-255 280,-255"/>
<image xlink:href="../../images/foreignKeys.png" width="11px" height="12px" preserveAspectRatio="xMinYMin meet" x="285" y="-272"/>
<text text-anchor="start" x="300" y="-263.2" font-family="Helvetica,sans-Serif" font-size="11.00">discharge_type</text>
<polygon fill="none" stroke="black" points="280,-233 280,-255 486,-255 486,-233 280,-233"/>
<image xlink:href="../../images/foreignKeys.png" width="11px" height="12px" preserveAspectRatio="xMinYMin meet" x="285" y="-250"/>
<text text-anchor="start" x="300" y="-241.2" font-family="Helvetica,sans-Serif" font-size="11.00">grid_type</text>
<polygon fill="none" stroke="black" points="280,-211 280,-233 486,-233 486,-211 280,-211"/>
<image xlink:href="../../images/foreignKeys.png" width="11px" height="12px" preserveAspectRatio="xMinYMin meet" x="285" y="-228"/>
<text text-anchor="start" x="300" y="-219.2" font-family="Helvetica,sans-Serif" font-size="11.00">drainage_pump</text>
<polygon fill="none" stroke="black" points="280,-189 280,-211 486,-211 486,-189 280,-189"/>
<image xlink:href="../../images/foreignKeys.png" width="11px" height="12px" preserveAspectRatio="xMinYMin meet" x="285" y="-206"/>
<text text-anchor="start" x="300" y="-197.2" font-family="Helvetica,sans-Serif" font-size="11.00">power_connection</text>
<polygon fill="none" stroke="black" points="280,-167 280,-189 486,-189 486,-167 280,-167"/>
<image xlink:href="../../images/foreignKeys.png" width="11px" height="12px" preserveAspectRatio="xMinYMin meet" x="285" y="-184"/>
<text text-anchor="start" x="300" y="-175.2" font-family="Helvetica,sans-Serif" font-size="11.00">measuring_system</text>
<polygon fill="none" stroke="black" points="280,-145 280,-167 486,-167 486,-145 280,-145"/>
<image xlink:href="../../images/foreignKeys.png" width="11px" height="12px" preserveAspectRatio="xMinYMin meet" x="285" y="-162"/>
<text text-anchor="start" x="300" y="-153.2" font-family="Helvetica,sans-Serif" font-size="11.00">condition</text>
<polygon fill="none" stroke="black" points="280,-127 280,-145 486,-145 486,-127 280,-127"/>
<text text-anchor="start" x="283" y="-133.2" font-family="Helvetica,sans-Serif" font-size="11.00">...</text>
<polygon fill="#ffffff" stroke="transparent" points="280,-109 280,-127 486,-127 486,-109 280,-109"/>
<polygon fill="none" stroke="black" points="280,-109 280,-127 486,-127 486,-109 280,-109"/>
<polygon fill="#ffffff" stroke="transparent" points="281,-110 281,-126 352,-126 352,-110 281,-110"/>
<text text-anchor="start" x="283" y="-115.2" font-family="Helvetica,sans-Serif" font-size="11.00">&lt; 10</text>
<polygon fill="#ffffff" stroke="transparent" points="352,-110 352,-126 433,-126 433,-110 352,-110"/>
<text text-anchor="start" x="374" y="-115.2" font-family="Helvetica,sans-Serif" font-size="11.00">0 rows</text>
<polygon fill="#ffffff" stroke="transparent" points="433,-110 433,-126 485,-126 485,-110 433,-110"/>
<text text-anchor="start" x="475" y="-115.2" font-family="Helvetica,sans-Serif" font-size="11.00"> &#160;</text>
<polygon fill="black" stroke="black" points="352,-110 352,-126 352,-126 352,-110 352,-110"/>
<polygon fill="black" stroke="black" points="433,-110 433,-126 433,-126 433,-110 433,-110"/>
</a>
</g>
</g>
<!-- structure_status -->
<g id="node2" class="node">
<title>structure_status</title>
<g id="a_node2"><a xlink:href="../../tables/structure_status.html" xlink:title="structure_status" target="_top">
<polygon fill="#ffffff" stroke="transparent" points="8,-37 8,-367 231,-367 231,-37 8,-37"/>
<polygon fill="#f5f5f5" stroke="transparent" points="10.5,-343 10.5,-365 229.5,-365 229.5,-343 10.5,-343"/>
<polygon fill="none" stroke="black" points="10.5,-343 10.5,-365 229.5,-365 229.5,-343 10.5,-343"/>
<text text-anchor="start" x="15.5" y="-352.2" font-family="Helvetica,sans-Serif" font-weight="bold" font-size="11.00">structure_status</text>
<text text-anchor="start" x="187.5" y="-351.2" font-family="Helvetica,sans-Serif" font-size="11.00">[table]</text>
<polygon fill="none" stroke="black" points="10.5,-321 10.5,-343 151.5,-343 151.5,-321 10.5,-321"/>
<image xlink:href="../../images/primaryKeys.png" width="11px" height="12px" preserveAspectRatio="xMinYMin meet" x="15.5" y="-338"/>
<text text-anchor="start" x="30.5" y="-329.2" font-family="Helvetica,sans-Serif" font-size="11.00">code</text>
<polygon fill="none" stroke="black" points="151.5,-321 151.5,-343 229.5,-343 229.5,-321 151.5,-321"/>
<text text-anchor="start" x="154.5" y="-329.2" font-family="Helvetica,sans-Serif" font-size="11.00">int4[10]</text>
<polygon fill="none" stroke="black" points="10.5,-299 10.5,-321 151.5,-321 151.5,-299 10.5,-299"/>
<text text-anchor="start" x="30.5" y="-307.2" font-family="Helvetica,sans-Serif" font-size="11.00">vsacode</text>
<polygon fill="none" stroke="black" points="151.5,-299 151.5,-321 229.5,-321 229.5,-299 151.5,-299"/>
<text text-anchor="start" x="154.5" y="-307.2" font-family="Helvetica,sans-Serif" font-size="11.00">int4[10]</text>
<polygon fill="none" stroke="black" points="10.5,-277 10.5,-299 151.5,-299 151.5,-277 10.5,-277"/>
<text text-anchor="start" x="30.5" y="-285.2" font-family="Helvetica,sans-Serif" font-size="11.00">value_en</text>
<polygon fill="none" stroke="black" points="151.5,-277 151.5,-299 229.5,-299 229.5,-277 151.5,-277"/>
<text text-anchor="start" x="154.5" y="-285.2" font-family="Helvetica,sans-Serif" font-size="11.00">varchar[100]</text>
<polygon fill="none" stroke="black" points="10.5,-255 10.5,-277 151.5,-277 151.5,-255 10.5,-255"/>
<text text-anchor="start" x="30.5" y="-263.2" font-family="Helvetica,sans-Serif" font-size="11.00">value_de</text>
<polygon fill="none" stroke="black" points="151.5,-255 151.5,-277 229.5,-277 229.5,-255 151.5,-255"/>
<text text-anchor="start" x="154.5" y="-263.2" font-family="Helvetica,sans-Serif" font-size="11.00">varchar[100]</text>
<polygon fill="none" stroke="black" points="10.5,-233 10.5,-255 151.5,-255 151.5,-233 10.5,-233"/>
<text text-anchor="start" x="30.5" y="-241.2" font-family="Helvetica,sans-Serif" font-size="11.00">value_fr</text>
<polygon fill="none" stroke="black" points="151.5,-233 151.5,-255 229.5,-255 229.5,-233 151.5,-233"/>
<text text-anchor="start" x="154.5" y="-241.2" font-family="Helvetica,sans-Serif" font-size="11.00">varchar[100]</text>
<polygon fill="none" stroke="black" points="10.5,-211 10.5,-233 151.5,-233 151.5,-211 10.5,-211"/>
<text text-anchor="start" x="30.5" y="-219.2" font-family="Helvetica,sans-Serif" font-size="11.00">value_it</text>
<polygon fill="none" stroke="black" points="151.5,-211 151.5,-233 229.5,-233 229.5,-211 151.5,-211"/>
<text text-anchor="start" x="154.5" y="-219.2" font-family="Helvetica,sans-Serif" font-size="11.00">varchar[100]</text>
<polygon fill="none" stroke="black" points="10.5,-189 10.5,-211 151.5,-211 151.5,-189 10.5,-189"/>
<text text-anchor="start" x="30.5" y="-197.2" font-family="Helvetica,sans-Serif" font-size="11.00">value_ro</text>
<polygon fill="none" stroke="black" points="151.5,-189 151.5,-211 229.5,-211 229.5,-189 151.5,-189"/>
<text text-anchor="start" x="154.5" y="-197.2" font-family="Helvetica,sans-Serif" font-size="11.00">varchar[100]</text>
<polygon fill="none" stroke="black" points="10.5,-167 10.5,-189 151.5,-189 151.5,-167 10.5,-167"/>
<text text-anchor="start" x="30.5" y="-175.2" font-family="Helvetica,sans-Serif" font-size="11.00">abbr_en</text>
<polygon fill="none" stroke="black" points="151.5,-167 151.5,-189 229.5,-189 229.5,-167 151.5,-167"/>
<text text-anchor="start" x="154.5" y="-175.2" font-family="Helvetica,sans-Serif" font-size="11.00">varchar[3]</text>
<polygon fill="none" stroke="black" points="10.5,-145 10.5,-167 151.5,-167 151.5,-145 10.5,-145"/>
<text text-anchor="start" x="30.5" y="-153.2" font-family="Helvetica,sans-Serif" font-size="11.00">abbr_de</text>
<polygon fill="none" stroke="black" points="151.5,-145 151.5,-167 229.5,-167 229.5,-145 151.5,-145"/>
<text text-anchor="start" x="154.5" y="-153.2" font-family="Helvetica,sans-Serif" font-size="11.00">varchar[3]</text>
<polygon fill="none" stroke="black" points="10.5,-123 10.5,-145 151.5,-145 151.5,-123 10.5,-123"/>
<text text-anchor="start" x="30.5" y="-131.2" font-family="Helvetica,sans-Serif" font-size="11.00">abbr_fr</text>
<polygon fill="none" stroke="black" points="151.5,-123 151.5,-145 229.5,-145 229.5,-123 151.5,-123"/>
<text text-anchor="start" x="154.5" y="-131.2" font-family="Helvetica,sans-Serif" font-size="11.00">varchar[3]</text>
<polygon fill="none" stroke="black" points="10.5,-101 10.5,-123 151.5,-123 151.5,-101 10.5,-101"/>
<text text-anchor="start" x="30.5" y="-109.2" font-family="Helvetica,sans-Serif" font-size="11.00">abbr_it</text>
<polygon fill="none" stroke="black" points="151.5,-101 151.5,-123 229.5,-123 229.5,-101 151.5,-101"/>
<text text-anchor="start" x="154.5" y="-109.2" font-family="Helvetica,sans-Serif" font-size="11.00">varchar[3]</text>
<polygon fill="none" stroke="black" points="10.5,-79 10.5,-101 151.5,-101 151.5,-79 10.5,-79"/>
<text text-anchor="start" x="30.5" y="-87.2" font-family="Helvetica,sans-Serif" font-size="11.00">abbr_ro</text>
<polygon fill="none" stroke="black" points="151.5,-79 151.5,-101 229.5,-101 229.5,-79 151.5,-79"/>
<text text-anchor="start" x="154.5" y="-87.2" font-family="Helvetica,sans-Serif" font-size="11.00">varchar[3]</text>
<polygon fill="none" stroke="black" points="10.5,-57 10.5,-79 151.5,-79 151.5,-57 10.5,-57"/>
<text text-anchor="start" x="30.5" y="-65.2" font-family="Helvetica,sans-Serif" font-size="11.00">active</text>
<polygon fill="none" stroke="black" points="151.5,-57 151.5,-79 229.5,-79 229.5,-57 151.5,-57"/>
<text text-anchor="start" x="154.5" y="-65.2" font-family="Helvetica,sans-Serif" font-size="11.00">bool[1]</text>
<polygon fill="#ffffff" stroke="transparent" points="10.5,-39 10.5,-57 229.5,-57 229.5,-39 10.5,-39"/>
<polygon fill="none" stroke="black" points="10.5,-39 10.5,-57 229.5,-57 229.5,-39 10.5,-39"/>
<polygon fill="#ffffff" stroke="transparent" points="11.5,-40 11.5,-56 88.5,-56 88.5,-40 11.5,-40"/>
<text text-anchor="start" x="13.5" y="-45.2" font-family="Helvetica,sans-Serif" font-size="11.00">&lt; 0</text>
<polygon fill="#ffffff" stroke="transparent" points="88.5,-40 88.5,-56 152.5,-56 152.5,-40 88.5,-40"/>
<text text-anchor="start" x="116.5" y="-45.2" font-family="Helvetica,sans-Serif" font-size="11.00"> &#160;</text>
<polygon fill="#ffffff" stroke="transparent" points="152.5,-40 152.5,-56 228.5,-56 228.5,-40 152.5,-40"/>
<text text-anchor="start" x="206.5" y="-45.2" font-family="Helvetica,sans-Serif" font-size="11.00">1 &gt;</text>
<polygon fill="black" stroke="black" points="88.5,-40 88.5,-56 88.5,-56 88.5,-40 88.5,-40"/>
<polygon fill="black" stroke="black" points="152.5,-40 152.5,-56 152.5,-56 152.5,-40 152.5,-40"/>
<polygon fill="none" stroke="black" stroke-width="2" points="9,-38 9,-366 230,-366 230,-38 9,-38"/>
</a>
</g>
</g>
<!-- tdh_od.structure&#45;&gt;structure_status -->
<g id="edge1" class="edge">
<title>tdh_od.structure:w&#45;&gt;structure_status:e</title>
<path fill="none" stroke="black" d="M264.28,-332C253.29,-332 246.16,-332 230.5,-332"/>
<polygon fill="black" stroke="black" points="271,-332 279,-335.6 275,-332 279,-332 279,-332 279,-332 275,-332 279,-328.4 271,-332 271,-332"/>
<ellipse fill="none" stroke="black" cx="267.8" cy="-332" rx="3.2" ry="3.2"/>
</g>
</g>
</svg>
