<?xml version="1.0" encoding="UTF-8" standalone="no"?>
<!DOCTYPE svg PUBLIC "-//W3C//DTD SVG 1.1//EN"
 "http://www.w3.org/Graphics/SVG/1.1/DTD/svg11.dtd">
<!-- Generated by graphviz version 2.43.0 (0)
 -->
<!-- Title: oneDegreeRelationshipsDiagram Pages: 1 -->
<svg width="617pt" height="751pt"
 viewBox="0.00 0.00 617.00 751.00" xmlns="http://www.w3.org/2000/svg" xmlns:xlink="http://www.w3.org/1999/xlink">
<g id="graph0" class="graph" transform="scale(1 1) rotate(0) translate(4 747)">
<title>oneDegreeRelationshipsDiagram</title>
<polygon fill="#ffffff" stroke="transparent" points="-4,4 -4,-747 613,-747 613,4 -4,4"/>
<text text-anchor="middle" x="79.5" y="-7.2" font-family="Helvetica,sans-Serif" font-size="11.00">Generated by SchemaSpy</text>
<!-- tdh_od.structure -->
<g id="node1" class="node">
<title>tdh_od.structure</title>
<g id="a_node1"><a xlink:href="../../../tdh_od/tables/structure.html" xlink:title="tdh_od.structure" target="_top">
<polygon fill="#ffffff" stroke="transparent" points="395,-461 395,-739 601,-739 601,-461 395,-461"/>
<polygon fill="#f5f5f5" stroke="transparent" points="395,-717 395,-739 601,-739 601,-717 395,-717"/>
<polygon fill="none" stroke="black" points="395,-717 395,-739 601,-739 601,-717 395,-717"/>
<text text-anchor="start" x="400" y="-726.2" font-family="Helvetica,sans-Serif" font-weight="bold" font-size="11.00">tdh_od.structure</text>
<text text-anchor="start" x="559" y="-725.2" font-family="Helvetica,sans-Serif" font-size="11.00">[table]</text>
<polygon fill="none" stroke="black" points="395,-695 395,-717 601,-717 601,-695 395,-695"/>
<image xlink:href="../../images/foreignKeys.png" width="11px" height="12px" preserveAspectRatio="xMinYMin meet" x="400" y="-712"/>
<text text-anchor="start" x="415" y="-703.2" font-family="Helvetica,sans-Serif" font-size="11.00">horizontal_positioning</text>
<polygon fill="none" stroke="black" points="395,-673 395,-695 601,-695 601,-673 395,-673"/>
<image xlink:href="../../images/foreignKeys.png" width="11px" height="12px" preserveAspectRatio="xMinYMin meet" x="400" y="-690"/>
<text text-anchor="start" x="415" y="-681.2" font-family="Helvetica,sans-Serif" font-size="11.00">status</text>
<polygon fill="none" stroke="black" points="395,-651 395,-673 601,-673 601,-651 395,-651"/>
<image xlink:href="../../images/foreignKeys.png" width="11px" height="12px" preserveAspectRatio="xMinYMin meet" x="400" y="-668"/>
<text text-anchor="start" x="415" y="-659.2" font-family="Helvetica,sans-Serif" font-size="11.00">kind</text>
<polygon fill="none" stroke="black" points="395,-629 395,-651 601,-651 601,-629 395,-629"/>
<image xlink:href="../../images/foreignKeys.png" width="11px" height="12px" preserveAspectRatio="xMinYMin meet" x="400" y="-646"/>
<text text-anchor="start" x="415" y="-637.2" font-family="Helvetica,sans-Serif" font-size="11.00">venting</text>
<polygon fill="none" stroke="black" points="395,-607 395,-629 601,-629 601,-607 395,-607"/>
<image xlink:href="../../images/foreignKeys.png" width="11px" height="12px" preserveAspectRatio="xMinYMin meet" x="400" y="-624"/>
<text text-anchor="start" x="415" y="-615.2" font-family="Helvetica,sans-Serif" font-size="11.00">discharge_type</text>
<polygon fill="none" stroke="black" points="395,-585 395,-607 601,-607 601,-585 395,-585"/>
<image xlink:href="../../images/foreignKeys.png" width="11px" height="12px" preserveAspectRatio="xMinYMin meet" x="400" y="-602"/>
<text text-anchor="start" x="415" y="-593.2" font-family="Helvetica,sans-Serif" font-size="11.00">grid_type</text>
<polygon fill="none" stroke="black" points="395,-563 395,-585 601,-585 601,-563 395,-563"/>
<image xlink:href="../../images/foreignKeys.png" width="11px" height="12px" preserveAspectRatio="xMinYMin meet" x="400" y="-580"/>
<text text-anchor="start" x="415" y="-571.2" font-family="Helvetica,sans-Serif" font-size="11.00">drainage_pump</text>
<polygon fill="none" stroke="black" points="395,-541 395,-563 601,-563 601,-541 395,-541"/>
<image xlink:href="../../images/foreignKeys.png" width="11px" height="12px" preserveAspectRatio="xMinYMin meet" x="400" y="-558"/>
<text text-anchor="start" x="415" y="-549.2" font-family="Helvetica,sans-Serif" font-size="11.00">power_connection</text>
<polygon fill="none" stroke="black" points="395,-519 395,-541 601,-541 601,-519 395,-519"/>
<image xlink:href="../../images/foreignKeys.png" width="11px" height="12px" preserveAspectRatio="xMinYMin meet" x="400" y="-536"/>
<text text-anchor="start" x="415" y="-527.2" font-family="Helvetica,sans-Serif" font-size="11.00">measuring_system</text>
<polygon fill="none" stroke="black" points="395,-497 395,-519 601,-519 601,-497 395,-497"/>
<image xlink:href="../../images/foreignKeys.png" width="11px" height="12px" preserveAspectRatio="xMinYMin meet" x="400" y="-514"/>
<text text-anchor="start" x="415" y="-505.2" font-family="Helvetica,sans-Serif" font-size="11.00">condition</text>
<polygon fill="none" stroke="black" points="395,-479 395,-497 601,-497 601,-479 395,-479"/>
<text text-anchor="start" x="398" y="-485.2" font-family="Helvetica,sans-Serif" font-size="11.00">...</text>
<polygon fill="#ffffff" stroke="transparent" points="395,-461 395,-479 601,-479 601,-461 395,-461"/>
<polygon fill="none" stroke="black" points="395,-461 395,-479 601,-479 601,-461 395,-461"/>
<polygon fill="#ffffff" stroke="transparent" points="396,-462 396,-478 467,-478 467,-462 396,-462"/>
<text text-anchor="start" x="398" y="-467.2" font-family="Helvetica,sans-Serif" font-size="11.00">&lt; 10</text>
<polygon fill="#ffffff" stroke="transparent" points="467,-462 467,-478 548,-478 548,-462 467,-462"/>
<text text-anchor="start" x="489" y="-467.2" font-family="Helvetica,sans-Serif" font-size="11.00">0 rows</text>
<polygon fill="#ffffff" stroke="transparent" points="548,-462 548,-478 600,-478 600,-462 548,-462"/>
<text text-anchor="start" x="590" y="-467.2" font-family="Helvetica,sans-Serif" font-size="11.00"> &#160;</text>
<polygon fill="black" stroke="black" points="467,-462 467,-478 467,-478 467,-462 467,-462"/>
<polygon fill="black" stroke="black" points="548,-462 548,-478 548,-478 548,-462 548,-462"/>
</a>
</g>
</g>
<!-- structure_power_connection -->
<g id="node2" class="node">
<title>structure_power_connection</title>
<g id="a_node2"><a xlink:href="../../tables/structure_power_connection.html" xlink:title="structure_power_connection" target="_top">
<polygon fill="#ffffff" stroke="transparent" points="8,-37 8,-587 346,-587 346,-37 8,-37"/>
<polygon fill="#f5f5f5" stroke="transparent" points="10,-563 10,-585 344,-585 344,-563 10,-563"/>
<polygon fill="none" stroke="black" points="10,-563 10,-585 344,-585 344,-563 10,-563"/>
<text text-anchor="start" x="15" y="-572.2" font-family="Helvetica,sans-Serif" font-weight="bold" font-size="11.00">structure_power_connection</text>
<text text-anchor="start" x="302" y="-571.2" font-family="Helvetica,sans-Serif" font-size="11.00">[table]</text>
<polygon fill="none" stroke="black" points="10,-541 10,-563 238,-563 238,-541 10,-541"/>
<image xlink:href="../../images/primaryKeys.png" width="11px" height="12px" preserveAspectRatio="xMinYMin meet" x="15" y="-558"/>
<text text-anchor="start" x="30" y="-549.2" font-family="Helvetica,sans-Serif" font-size="11.00">code</text>
<polygon fill="none" stroke="black" points="238,-541 238,-563 344,-563 344,-541 238,-541"/>
<text text-anchor="start" x="241" y="-549.2" font-family="Helvetica,sans-Serif" font-size="11.00">int4[10]</text>
<polygon fill="none" stroke="black" points="10,-519 10,-541 238,-541 238,-519 10,-519"/>
<text text-anchor="start" x="30" y="-527.2" font-family="Helvetica,sans-Serif" font-size="11.00">vsacode</text>
<polygon fill="none" stroke="black" points="238,-519 238,-541 344,-541 344,-519 238,-519"/>
<text text-anchor="start" x="241" y="-527.2" font-family="Helvetica,sans-Serif" font-size="11.00">int4[10]</text>
<polygon fill="none" stroke="black" points="10,-497 10,-519 238,-519 238,-497 10,-497"/>
<text text-anchor="start" x="30" y="-505.2" font-family="Helvetica,sans-Serif" font-size="11.00">value_en</text>
<polygon fill="none" stroke="black" points="238,-497 238,-519 344,-519 344,-497 238,-497"/>
<text text-anchor="start" x="241" y="-505.2" font-family="Helvetica,sans-Serif" font-size="11.00">varchar[100]</text>
<polygon fill="none" stroke="black" points="10,-475 10,-497 238,-497 238,-475 10,-475"/>
<text text-anchor="start" x="30" y="-483.2" font-family="Helvetica,sans-Serif" font-size="11.00">value_de</text>
<polygon fill="none" stroke="black" points="238,-475 238,-497 344,-497 344,-475 238,-475"/>
<text text-anchor="start" x="241" y="-483.2" font-family="Helvetica,sans-Serif" font-size="11.00">varchar[100]</text>
<polygon fill="none" stroke="black" points="10,-453 10,-475 238,-475 238,-453 10,-453"/>
<text text-anchor="start" x="30" y="-461.2" font-family="Helvetica,sans-Serif" font-size="11.00">value_fr</text>
<polygon fill="none" stroke="black" points="238,-453 238,-475 344,-475 344,-453 238,-453"/>
<text text-anchor="start" x="241" y="-461.2" font-family="Helvetica,sans-Serif" font-size="11.00">varchar[100]</text>
<polygon fill="none" stroke="black" points="10,-431 10,-453 238,-453 238,-431 10,-431"/>
<text text-anchor="start" x="30" y="-439.2" font-family="Helvetica,sans-Serif" font-size="11.00">value_it</text>
<polygon fill="none" stroke="black" points="238,-431 238,-453 344,-453 344,-431 238,-431"/>
<text text-anchor="start" x="241" y="-439.2" font-family="Helvetica,sans-Serif" font-size="11.00">varchar[100]</text>
<polygon fill="none" stroke="black" points="10,-409 10,-431 238,-431 238,-409 10,-409"/>
<text text-anchor="start" x="30" y="-417.2" font-family="Helvetica,sans-Serif" font-size="11.00">value_ro</text>
<polygon fill="none" stroke="black" points="238,-409 238,-431 344,-431 344,-409 238,-409"/>
<text text-anchor="start" x="241" y="-417.2" font-family="Helvetica,sans-Serif" font-size="11.00">varchar[100]</text>
<polygon fill="none" stroke="black" points="10,-387 10,-409 238,-409 238,-387 10,-387"/>
<text text-anchor="start" x="30" y="-395.2" font-family="Helvetica,sans-Serif" font-size="11.00">abbr_en</text>
<polygon fill="none" stroke="black" points="238,-387 238,-409 344,-409 344,-387 238,-387"/>
<text text-anchor="start" x="241" y="-395.2" font-family="Helvetica,sans-Serif" font-size="11.00">varchar[3]</text>
<polygon fill="none" stroke="black" points="10,-365 10,-387 238,-387 238,-365 10,-365"/>
<text text-anchor="start" x="30" y="-373.2" font-family="Helvetica,sans-Serif" font-size="11.00">abbr_de</text>
<polygon fill="none" stroke="black" points="238,-365 238,-387 344,-387 344,-365 238,-365"/>
<text text-anchor="start" x="241" y="-373.2" font-family="Helvetica,sans-Serif" font-size="11.00">varchar[3]</text>
<polygon fill="none" stroke="black" points="10,-343 10,-365 238,-365 238,-343 10,-343"/>
<text text-anchor="start" x="30" y="-351.2" font-family="Helvetica,sans-Serif" font-size="11.00">abbr_fr</text>
<polygon fill="none" stroke="black" points="238,-343 238,-365 344,-365 344,-343 238,-343"/>
<text text-anchor="start" x="241" y="-351.2" font-family="Helvetica,sans-Serif" font-size="11.00">varchar[3]</text>
<polygon fill="none" stroke="black" points="10,-321 10,-343 238,-343 238,-321 10,-321"/>
<text text-anchor="start" x="30" y="-329.2" font-family="Helvetica,sans-Serif" font-size="11.00">abbr_it</text>
<polygon fill="none" stroke="black" points="238,-321 238,-343 344,-343 344,-321 238,-321"/>
<text text-anchor="start" x="241" y="-329.2" font-family="Helvetica,sans-Serif" font-size="11.00">varchar[3]</text>
<polygon fill="none" stroke="black" points="10,-299 10,-321 238,-321 238,-299 10,-299"/>
<text text-anchor="start" x="30" y="-307.2" font-family="Helvetica,sans-Serif" font-size="11.00">abbr_ro</text>
<polygon fill="none" stroke="black" points="238,-299 238,-321 344,-321 344,-299 238,-299"/>
<text text-anchor="start" x="241" y="-307.2" font-family="Helvetica,sans-Serif" font-size="11.00">varchar[3]</text>
<polygon fill="none" stroke="black" points="10,-277 10,-299 238,-299 238,-277 10,-277"/>
<text text-anchor="start" x="30" y="-285.2" font-family="Helvetica,sans-Serif" font-size="11.00">description_en</text>
<polygon fill="none" stroke="black" points="238,-277 238,-299 344,-299 344,-277 238,-277"/>
<text text-anchor="start" x="241" y="-285.2" font-family="Helvetica,sans-Serif" font-size="11.00">text[2147483647]</text>
<polygon fill="none" stroke="black" points="10,-255 10,-277 238,-277 238,-255 10,-255"/>
<text text-anchor="start" x="30" y="-263.2" font-family="Helvetica,sans-Serif" font-size="11.00">description_de</text>
<polygon fill="none" stroke="black" points="238,-255 238,-277 344,-277 344,-255 238,-255"/>
<text text-anchor="start" x="241" y="-263.2" font-family="Helvetica,sans-Serif" font-size="11.00">text[2147483647]</text>
<polygon fill="none" stroke="black" points="10,-233 10,-255 238,-255 238,-233 10,-233"/>
<text text-anchor="start" x="30" y="-241.2" font-family="Helvetica,sans-Serif" font-size="11.00">description_fr</text>
<polygon fill="none" stroke="black" points="238,-233 238,-255 344,-255 344,-233 238,-233"/>
<text text-anchor="start" x="241" y="-241.2" font-family="Helvetica,sans-Serif" font-size="11.00">text[2147483647]</text>
<polygon fill="none" stroke="black" points="10,-211 10,-233 238,-233 238,-211 10,-211"/>
<text text-anchor="start" x="30" y="-219.2" font-family="Helvetica,sans-Serif" font-size="11.00">description_it</text>
<polygon fill="none" stroke="black" points="238,-211 238,-233 344,-233 344,-211 238,-211"/>
<text text-anchor="start" x="241" y="-219.2" font-family="Helvetica,sans-Serif" font-size="11.00">text[2147483647]</text>
<polygon fill="none" stroke="black" points="10,-189 10,-211 238,-211 238,-189 10,-189"/>
<text text-anchor="start" x="30" y="-197.2" font-family="Helvetica,sans-Serif" font-size="11.00">description_ro</text>
<polygon fill="none" stroke="black" points="238,-189 238,-211 344,-211 344,-189 238,-189"/>
<text text-anchor="start" x="241" y="-197.2" font-family="Helvetica,sans-Serif" font-size="11.00">text[2147483647]</text>
<polygon fill="none" stroke="black" points="10,-167 10,-189 238,-189 238,-167 10,-167"/>
<text text-anchor="start" x="30" y="-175.2" font-family="Helvetica,sans-Serif" font-size="11.00">display_en</text>
<polygon fill="none" stroke="black" points="238,-167 238,-189 344,-189 344,-167 238,-167"/>
<text text-anchor="start" x="241" y="-175.2" font-family="Helvetica,sans-Serif" font-size="11.00">varchar[100]</text>
<polygon fill="none" stroke="black" points="10,-145 10,-167 238,-167 238,-145 10,-145"/>
<text text-anchor="start" x="30" y="-153.2" font-family="Helvetica,sans-Serif" font-size="11.00">display_de</text>
<polygon fill="none" stroke="black" points="238,-145 238,-167 344,-167 344,-145 238,-145"/>
<text text-anchor="start" x="241" y="-153.2" font-family="Helvetica,sans-Serif" font-size="11.00">varchar[100]</text>
<polygon fill="none" stroke="black" points="10,-123 10,-145 238,-145 238,-123 10,-123"/>
<text text-anchor="start" x="30" y="-131.2" font-family="Helvetica,sans-Serif" font-size="11.00">display_fr</text>
<polygon fill="none" stroke="black" points="238,-123 238,-145 344,-145 344,-123 238,-123"/>
<text text-anchor="start" x="241" y="-131.2" font-family="Helvetica,sans-Serif" font-size="11.00">varchar[100]</text>
<polygon fill="none" stroke="black" points="10,-101 10,-123 238,-123 238,-101 10,-101"/>
<text text-anchor="start" x="30" y="-109.2" font-family="Helvetica,sans-Serif" font-size="11.00">display_it</text>
<polygon fill="none" stroke="black" points="238,-101 238,-123 344,-123 344,-101 238,-101"/>
<text text-anchor="start" x="241" y="-109.2" font-family="Helvetica,sans-Serif" font-size="11.00">varchar[100]</text>
<polygon fill="none" stroke="black" points="10,-79 10,-101 238,-101 238,-79 10,-79"/>
<text text-anchor="start" x="30" y="-87.2" font-family="Helvetica,sans-Serif" font-size="11.00">display_ro</text>
<polygon fill="none" stroke="black" points="238,-79 238,-101 344,-101 344,-79 238,-79"/>
<text text-anchor="start" x="241" y="-87.2" font-family="Helvetica,sans-Serif" font-size="11.00">varchar[100]</text>
<polygon fill="none" stroke="black" points="10,-57 10,-79 238,-79 238,-57 10,-57"/>
<text text-anchor="start" x="30" y="-65.2" font-family="Helvetica,sans-Serif" font-size="11.00">active</text>
<polygon fill="none" stroke="black" points="238,-57 238,-79 344,-79 344,-57 238,-57"/>
<text text-anchor="start" x="241" y="-65.2" font-family="Helvetica,sans-Serif" font-size="11.00">bool[1]</text>
<polygon fill="#ffffff" stroke="transparent" points="10,-39 10,-57 344,-57 344,-39 10,-39"/>
<polygon fill="none" stroke="black" points="10,-39 10,-57 344,-57 344,-39 10,-39"/>
<polygon fill="#ffffff" stroke="transparent" points="11,-40 11,-56 126,-56 126,-40 11,-40"/>
<text text-anchor="start" x="13" y="-45.2" font-family="Helvetica,sans-Serif" font-size="11.00">&lt; 0</text>
<polygon fill="#ffffff" stroke="transparent" points="126,-40 126,-56 229,-56 229,-40 126,-40"/>
<text text-anchor="start" x="173.5" y="-45.2" font-family="Helvetica,sans-Serif" font-size="11.00"> &#160;</text>
<polygon fill="#ffffff" stroke="transparent" points="229,-40 229,-56 343,-56 343,-40 229,-40"/>
<text text-anchor="start" x="321" y="-45.2" font-family="Helvetica,sans-Serif" font-size="11.00">1 &gt;</text>
<polygon fill="black" stroke="black" points="126,-40 126,-56 126,-56 126,-40 126,-40"/>
<polygon fill="black" stroke="black" points="229,-40 229,-56 229,-56 229,-40 229,-40"/>
<polygon fill="none" stroke="black" stroke-width="2" points="9,-38 9,-586 345,-586 345,-38 9,-38"/>
</a>
</g>
</g>
<!-- tdh_od.structure&#45;&gt;structure_power_connection -->
<g id="edge1" class="edge">
<title>tdh_od.structure:w&#45;&gt;structure_power_connection:e</title>
<path fill="none" stroke="black" d="M379.49,-552C368.18,-552 360.99,-552 345,-552"/>
<polygon fill="black" stroke="black" points="386,-552 394,-555.6 390,-552 394,-552 394,-552 394,-552 390,-552 394,-548.4 386,-552 386,-552"/>
<ellipse fill="none" stroke="black" cx="382.8" cy="-552" rx="3.2" ry="3.2"/>
</g>
</g>
</svg>
