<?xml version="1.0" encoding="UTF-8" standalone="no"?>
<!DOCTYPE svg PUBLIC "-//W3C//DTD SVG 1.1//EN"
 "http://www.w3.org/Graphics/SVG/1.1/DTD/svg11.dtd">
<!-- Generated by graphviz version 2.43.0 (0)
 -->
<!-- Title: oneDegreeRelationshipsDiagram Pages: 1 -->
<svg width="619pt" height="379pt"
 viewBox="0.00 0.00 619.00 379.00" xmlns="http://www.w3.org/2000/svg" xmlns:xlink="http://www.w3.org/1999/xlink">
<g id="graph0" class="graph" transform="scale(1 1) rotate(0) translate(4 375)">
<title>oneDegreeRelationshipsDiagram</title>
<polygon fill="#ffffff" stroke="transparent" points="-4,4 -4,-375 615,-375 615,4 -4,4"/>
<text text-anchor="middle" x="79.5" y="-7.2" font-family="Helvetica,sans-Serif" font-size="11.00">Generated by SchemaSpy</text>
<!-- tdh_od.structure -->
<g id="node1" class="node">
<title>tdh_od.structure</title>
<g id="a_node1"><a xlink:href="../../../tdh_od/tables/structure.html" xlink:title="tdh_od.structure" target="_top">
<polygon fill="#ffffff" stroke="transparent" points="397,-87 397,-365 603,-365 603,-87 397,-87"/>
<polygon fill="#f5f5f5" stroke="transparent" points="397,-343 397,-365 603,-365 603,-343 397,-343"/>
<polygon fill="none" stroke="black" points="397,-343 397,-365 603,-365 603,-343 397,-343"/>
<text text-anchor="start" x="402" y="-352.2" font-family="Helvetica,sans-Serif" font-weight="bold" font-size="11.00">tdh_od.structure</text>
<text text-anchor="start" x="561" y="-351.2" font-family="Helvetica,sans-Serif" font-size="11.00">[table]</text>
<polygon fill="none" stroke="black" points="397,-321 397,-343 603,-343 603,-321 397,-321"/>
<image xlink:href="../../images/foreignKeys.png" width="11px" height="12px" preserveAspectRatio="xMinYMin meet" x="402" y="-338"/>
<text text-anchor="start" x="417" y="-329.2" font-family="Helvetica,sans-Serif" font-size="11.00">horizontal_positioning</text>
<polygon fill="none" stroke="black" points="397,-299 397,-321 603,-321 603,-299 397,-299"/>
<image xlink:href="../../images/foreignKeys.png" width="11px" height="12px" preserveAspectRatio="xMinYMin meet" x="402" y="-316"/>
<text text-anchor="start" x="417" y="-307.2" font-family="Helvetica,sans-Serif" font-size="11.00">status</text>
<polygon fill="none" stroke="black" points="397,-277 397,-299 603,-299 603,-277 397,-277"/>
<image xlink:href="../../images/foreignKeys.png" width="11px" height="12px" preserveAspectRatio="xMinYMin meet" x="402" y="-294"/>
<text text-anchor="start" x="417" y="-285.2" font-family="Helvetica,sans-Serif" font-size="11.00">kind</text>
<polygon fill="none" stroke="black" points="397,-255 397,-277 603,-277 603,-255 397,-255"/>
<image xlink:href="../../images/foreignKeys.png" width="11px" height="12px" preserveAspectRatio="xMinYMin meet" x="402" y="-272"/>
<text text-anchor="start" x="417" y="-263.2" font-family="Helvetica,sans-Serif" font-size="11.00">venting</text>
<polygon fill="none" stroke="black" points="397,-233 397,-255 603,-255 603,-233 397,-233"/>
<image xlink:href="../../images/foreignKeys.png" width="11px" height="12px" preserveAspectRatio="xMinYMin meet" x="402" y="-250"/>
<text text-anchor="start" x="417" y="-241.2" font-family="Helvetica,sans-Serif" font-size="11.00">discharge_type</text>
<polygon fill="none" stroke="black" points="397,-211 397,-233 603,-233 603,-211 397,-211"/>
<image xlink:href="../../images/foreignKeys.png" width="11px" height="12px" preserveAspectRatio="xMinYMin meet" x="402" y="-228"/>
<text text-anchor="start" x="417" y="-219.2" font-family="Helvetica,sans-Serif" font-size="11.00">grid_type</text>
<polygon fill="none" stroke="black" points="397,-189 397,-211 603,-211 603,-189 397,-189"/>
<image xlink:href="../../images/foreignKeys.png" width="11px" height="12px" preserveAspectRatio="xMinYMin meet" x="402" y="-206"/>
<text text-anchor="start" x="417" y="-197.2" font-family="Helvetica,sans-Serif" font-size="11.00">drainage_pump</text>
<polygon fill="none" stroke="black" points="397,-167 397,-189 603,-189 603,-167 397,-167"/>
<image xlink:href="../../images/foreignKeys.png" width="11px" height="12px" preserveAspectRatio="xMinYMin meet" x="402" y="-184"/>
<text text-anchor="start" x="417" y="-175.2" font-family="Helvetica,sans-Serif" font-size="11.00">power_connection</text>
<polygon fill="none" stroke="black" points="397,-145 397,-167 603,-167 603,-145 397,-145"/>
<image xlink:href="../../images/foreignKeys.png" width="11px" height="12px" preserveAspectRatio="xMinYMin meet" x="402" y="-162"/>
<text text-anchor="start" x="417" y="-153.2" font-family="Helvetica,sans-Serif" font-size="11.00">measuring_system</text>
<polygon fill="none" stroke="black" points="397,-123 397,-145 603,-145 603,-123 397,-123"/>
<image xlink:href="../../images/foreignKeys.png" width="11px" height="12px" preserveAspectRatio="xMinYMin meet" x="402" y="-140"/>
<text text-anchor="start" x="417" y="-131.2" font-family="Helvetica,sans-Serif" font-size="11.00">condition</text>
<polygon fill="none" stroke="black" points="397,-105 397,-123 603,-123 603,-105 397,-105"/>
<text text-anchor="start" x="400" y="-111.2" font-family="Helvetica,sans-Serif" font-size="11.00">...</text>
<polygon fill="#ffffff" stroke="transparent" points="397,-87 397,-105 603,-105 603,-87 397,-87"/>
<polygon fill="none" stroke="black" points="397,-87 397,-105 603,-105 603,-87 397,-87"/>
<polygon fill="#ffffff" stroke="transparent" points="398,-88 398,-104 469,-104 469,-88 398,-88"/>
<text text-anchor="start" x="400" y="-93.2" font-family="Helvetica,sans-Serif" font-size="11.00">&lt; 10</text>
<polygon fill="#ffffff" stroke="transparent" points="469,-88 469,-104 550,-104 550,-88 469,-88"/>
<text text-anchor="start" x="491" y="-93.2" font-family="Helvetica,sans-Serif" font-size="11.00">0 rows</text>
<polygon fill="#ffffff" stroke="transparent" points="550,-88 550,-104 602,-104 602,-88 550,-88"/>
<text text-anchor="start" x="592" y="-93.2" font-family="Helvetica,sans-Serif" font-size="11.00"> &#160;</text>
<polygon fill="black" stroke="black" points="469,-88 469,-104 469,-104 469,-88 469,-88"/>
<polygon fill="black" stroke="black" points="550,-88 550,-104 550,-104 550,-88 550,-88"/>
</a>
</g>
</g>
<!-- structure_horizontal_positioning -->
<g id="node2" class="node">
<title>structure_horizontal_positioning</title>
<g id="a_node2"><a xlink:href="../../tables/structure_horizontal_positioning.html" xlink:title="structure_horizontal_positioning" target="_top">
<polygon fill="#ffffff" stroke="transparent" points="8,-37 8,-367 348,-367 348,-37 8,-37"/>
<polygon fill="#f5f5f5" stroke="transparent" points="10,-343 10,-365 346,-365 346,-343 10,-343"/>
<polygon fill="none" stroke="black" points="10,-343 10,-365 346,-365 346,-343 10,-343"/>
<text text-anchor="start" x="15" y="-352.2" font-family="Helvetica,sans-Serif" font-weight="bold" font-size="11.00">structure_horizontal_positioning</text>
<text text-anchor="start" x="304" y="-351.2" font-family="Helvetica,sans-Serif" font-size="11.00">[table]</text>
<polygon fill="none" stroke="black" points="10,-321 10,-343 268,-343 268,-321 10,-321"/>
<image xlink:href="../../images/primaryKeys.png" width="11px" height="12px" preserveAspectRatio="xMinYMin meet" x="15" y="-338"/>
<text text-anchor="start" x="30" y="-329.2" font-family="Helvetica,sans-Serif" font-size="11.00">code</text>
<polygon fill="none" stroke="black" points="268,-321 268,-343 346,-343 346,-321 268,-321"/>
<text text-anchor="start" x="271" y="-329.2" font-family="Helvetica,sans-Serif" font-size="11.00">int4[10]</text>
<polygon fill="none" stroke="black" points="10,-299 10,-321 268,-321 268,-299 10,-299"/>
<text text-anchor="start" x="30" y="-307.2" font-family="Helvetica,sans-Serif" font-size="11.00">vsacode</text>
<polygon fill="none" stroke="black" points="268,-299 268,-321 346,-321 346,-299 268,-299"/>
<text text-anchor="start" x="271" y="-307.2" font-family="Helvetica,sans-Serif" font-size="11.00">int4[10]</text>
<polygon fill="none" stroke="black" points="10,-277 10,-299 268,-299 268,-277 10,-277"/>
<text text-anchor="start" x="30" y="-285.2" font-family="Helvetica,sans-Serif" font-size="11.00">value_en</text>
<polygon fill="none" stroke="black" points="268,-277 268,-299 346,-299 346,-277 268,-277"/>
<text text-anchor="start" x="271" y="-285.2" font-family="Helvetica,sans-Serif" font-size="11.00">varchar[100]</text>
<polygon fill="none" stroke="black" points="10,-255 10,-277 268,-277 268,-255 10,-255"/>
<text text-anchor="start" x="30" y="-263.2" font-family="Helvetica,sans-Serif" font-size="11.00">value_de</text>
<polygon fill="none" stroke="black" points="268,-255 268,-277 346,-277 346,-255 268,-255"/>
<text text-anchor="start" x="271" y="-263.2" font-family="Helvetica,sans-Serif" font-size="11.00">varchar[100]</text>
<polygon fill="none" stroke="black" points="10,-233 10,-255 268,-255 268,-233 10,-233"/>
<text text-anchor="start" x="30" y="-241.2" font-family="Helvetica,sans-Serif" font-size="11.00">value_fr</text>
<polygon fill="none" stroke="black" points="268,-233 268,-255 346,-255 346,-233 268,-233"/>
<text text-anchor="start" x="271" y="-241.2" font-family="Helvetica,sans-Serif" font-size="11.00">varchar[100]</text>
<polygon fill="none" stroke="black" points="10,-211 10,-233 268,-233 268,-211 10,-211"/>
<text text-anchor="start" x="30" y="-219.2" font-family="Helvetica,sans-Serif" font-size="11.00">value_it</text>
<polygon fill="none" stroke="black" points="268,-211 268,-233 346,-233 346,-211 268,-211"/>
<text text-anchor="start" x="271" y="-219.2" font-family="Helvetica,sans-Serif" font-size="11.00">varchar[100]</text>
<polygon fill="none" stroke="black" points="10,-189 10,-211 268,-211 268,-189 10,-189"/>
<text text-anchor="start" x="30" y="-197.2" font-family="Helvetica,sans-Serif" font-size="11.00">value_ro</text>
<polygon fill="none" stroke="black" points="268,-189 268,-211 346,-211 346,-189 268,-189"/>
<text text-anchor="start" x="271" y="-197.2" font-family="Helvetica,sans-Serif" font-size="11.00">varchar[100]</text>
<polygon fill="none" stroke="black" points="10,-167 10,-189 268,-189 268,-167 10,-167"/>
<text text-anchor="start" x="30" y="-175.2" font-family="Helvetica,sans-Serif" font-size="11.00">abbr_en</text>
<polygon fill="none" stroke="black" points="268,-167 268,-189 346,-189 346,-167 268,-167"/>
<text text-anchor="start" x="271" y="-175.2" font-family="Helvetica,sans-Serif" font-size="11.00">varchar[3]</text>
<polygon fill="none" stroke="black" points="10,-145 10,-167 268,-167 268,-145 10,-145"/>
<text text-anchor="start" x="30" y="-153.2" font-family="Helvetica,sans-Serif" font-size="11.00">abbr_de</text>
<polygon fill="none" stroke="black" points="268,-145 268,-167 346,-167 346,-145 268,-145"/>
<text text-anchor="start" x="271" y="-153.2" font-family="Helvetica,sans-Serif" font-size="11.00">varchar[3]</text>
<polygon fill="none" stroke="black" points="10,-123 10,-145 268,-145 268,-123 10,-123"/>
<text text-anchor="start" x="30" y="-131.2" font-family="Helvetica,sans-Serif" font-size="11.00">abbr_fr</text>
<polygon fill="none" stroke="black" points="268,-123 268,-145 346,-145 346,-123 268,-123"/>
<text text-anchor="start" x="271" y="-131.2" font-family="Helvetica,sans-Serif" font-size="11.00">varchar[3]</text>
<polygon fill="none" stroke="black" points="10,-101 10,-123 268,-123 268,-101 10,-101"/>
<text text-anchor="start" x="30" y="-109.2" font-family="Helvetica,sans-Serif" font-size="11.00">abbr_it</text>
<polygon fill="none" stroke="black" points="268,-101 268,-123 346,-123 346,-101 268,-101"/>
<text text-anchor="start" x="271" y="-109.2" font-family="Helvetica,sans-Serif" font-size="11.00">varchar[3]</text>
<polygon fill="none" stroke="black" points="10,-79 10,-101 268,-101 268,-79 10,-79"/>
<text text-anchor="start" x="30" y="-87.2" font-family="Helvetica,sans-Serif" font-size="11.00">abbr_ro</text>
<polygon fill="none" stroke="black" points="268,-79 268,-101 346,-101 346,-79 268,-79"/>
<text text-anchor="start" x="271" y="-87.2" font-family="Helvetica,sans-Serif" font-size="11.00">varchar[3]</text>
<polygon fill="none" stroke="black" points="10,-57 10,-79 268,-79 268,-57 10,-57"/>
<text text-anchor="start" x="30" y="-65.2" font-family="Helvetica,sans-Serif" font-size="11.00">active</text>
<polygon fill="none" stroke="black" points="268,-57 268,-79 346,-79 346,-57 268,-57"/>
<text text-anchor="start" x="271" y="-65.2" font-family="Helvetica,sans-Serif" font-size="11.00">bool[1]</text>
<polygon fill="#ffffff" stroke="transparent" points="10,-39 10,-57 346,-57 346,-39 10,-39"/>
<polygon fill="none" stroke="black" points="10,-39 10,-57 346,-57 346,-39 10,-39"/>
<polygon fill="#ffffff" stroke="transparent" points="11,-40 11,-56 127,-56 127,-40 11,-40"/>
<text text-anchor="start" x="13" y="-45.2" font-family="Helvetica,sans-Serif" font-size="11.00">&lt; 0</text>
<polygon fill="#ffffff" stroke="transparent" points="127,-40 127,-56 230,-56 230,-40 127,-40"/>
<text text-anchor="start" x="174.5" y="-45.2" font-family="Helvetica,sans-Serif" font-size="11.00"> &#160;</text>
<polygon fill="#ffffff" stroke="transparent" points="230,-40 230,-56 345,-56 345,-40 230,-40"/>
<text text-anchor="start" x="323" y="-45.2" font-family="Helvetica,sans-Serif" font-size="11.00">1 &gt;</text>
<polygon fill="black" stroke="black" points="127,-40 127,-56 127,-56 127,-40 127,-40"/>
<polygon fill="black" stroke="black" points="230,-40 230,-56 230,-56 230,-40 230,-40"/>
<polygon fill="none" stroke="black" stroke-width="2" points="9,-38 9,-366 347,-366 347,-38 9,-38"/>
</a>
</g>
</g>
<!-- tdh_od.structure&#45;&gt;structure_horizontal_positioning -->
<g id="edge1" class="edge">
<title>tdh_od.structure:w&#45;&gt;structure_horizontal_positioning:e</title>
<path fill="none" stroke="black" d="M381.49,-332C370.18,-332 362.99,-332 347,-332"/>
<polygon fill="black" stroke="black" points="388,-332 396,-335.6 392,-332 396,-332 396,-332 396,-332 392,-332 396,-328.4 388,-332 388,-332"/>
<ellipse fill="none" stroke="black" cx="384.8" cy="-332" rx="3.2" ry="3.2"/>
</g>
</g>
</svg>
