<?xml version="1.0" encoding="UTF-8" standalone="no"?>
<!DOCTYPE svg PUBLIC "-//W3C//DTD SVG 1.1//EN"
 "http://www.w3.org/Graphics/SVG/1.1/DTD/svg11.dtd">
<!-- Generated by graphviz version 2.43.0 (0)
 -->
<!-- Title: oneDegreeRelationshipsDiagram Pages: 1 -->
<svg width="530pt" height="619pt"
 viewBox="0.00 0.00 530.00 619.00" xmlns="http://www.w3.org/2000/svg" xmlns:xlink="http://www.w3.org/1999/xlink">
<g id="graph0" class="graph" transform="scale(1 1) rotate(0) translate(4 615)">
<title>oneDegreeRelationshipsDiagram</title>
<polygon fill="#ffffff" stroke="transparent" points="-4,4 -4,-615 526,-615 526,4 -4,4"/>
<text text-anchor="middle" x="79.5" y="-7.2" font-family="Helvetica,sans-Serif" font-size="11.00">Generated by SchemaSpy</text>
<!-- tdh_od.structure -->
<g id="node1" class="node">
<title>tdh_od.structure</title>
<g id="a_node1"><a xlink:href="../../../tdh_od/tables/structure.html" xlink:title="tdh_od.structure" target="_top">
<polygon fill="#ffffff" stroke="transparent" points="308,-329 308,-607 514,-607 514,-329 308,-329"/>
<polygon fill="#f5f5f5" stroke="transparent" points="308,-585 308,-607 514,-607 514,-585 308,-585"/>
<polygon fill="none" stroke="black" points="308,-585 308,-607 514,-607 514,-585 308,-585"/>
<text text-anchor="start" x="313" y="-594.2" font-family="Helvetica,sans-Serif" font-weight="bold" font-size="11.00">tdh_od.structure</text>
<text text-anchor="start" x="472" y="-593.2" font-family="Helvetica,sans-Serif" font-size="11.00">[table]</text>
<polygon fill="none" stroke="black" points="308,-563 308,-585 514,-585 514,-563 308,-563"/>
<image xlink:href="../../images/foreignKeys.png" width="11px" height="12px" preserveAspectRatio="xMinYMin meet" x="313" y="-580"/>
<text text-anchor="start" x="328" y="-571.2" font-family="Helvetica,sans-Serif" font-size="11.00">horizontal_positioning</text>
<polygon fill="none" stroke="black" points="308,-541 308,-563 514,-563 514,-541 308,-541"/>
<image xlink:href="../../images/foreignKeys.png" width="11px" height="12px" preserveAspectRatio="xMinYMin meet" x="313" y="-558"/>
<text text-anchor="start" x="328" y="-549.2" font-family="Helvetica,sans-Serif" font-size="11.00">status</text>
<polygon fill="none" stroke="black" points="308,-519 308,-541 514,-541 514,-519 308,-519"/>
<image xlink:href="../../images/foreignKeys.png" width="11px" height="12px" preserveAspectRatio="xMinYMin meet" x="313" y="-536"/>
<text text-anchor="start" x="328" y="-527.2" font-family="Helvetica,sans-Serif" font-size="11.00">kind</text>
<polygon fill="none" stroke="black" points="308,-497 308,-519 514,-519 514,-497 308,-497"/>
<image xlink:href="../../images/foreignKeys.png" width="11px" height="12px" preserveAspectRatio="xMinYMin meet" x="313" y="-514"/>
<text text-anchor="start" x="328" y="-505.2" font-family="Helvetica,sans-Serif" font-size="11.00">venting</text>
<polygon fill="none" stroke="black" points="308,-475 308,-497 514,-497 514,-475 308,-475"/>
<image xlink:href="../../images/foreignKeys.png" width="11px" height="12px" preserveAspectRatio="xMinYMin meet" x="313" y="-492"/>
<text text-anchor="start" x="328" y="-483.2" font-family="Helvetica,sans-Serif" font-size="11.00">discharge_type</text>
<polygon fill="none" stroke="black" points="308,-453 308,-475 514,-475 514,-453 308,-453"/>
<image xlink:href="../../images/foreignKeys.png" width="11px" height="12px" preserveAspectRatio="xMinYMin meet" x="313" y="-470"/>
<text text-anchor="start" x="328" y="-461.2" font-family="Helvetica,sans-Serif" font-size="11.00">grid_type</text>
<polygon fill="none" stroke="black" points="308,-431 308,-453 514,-453 514,-431 308,-431"/>
<image xlink:href="../../images/foreignKeys.png" width="11px" height="12px" preserveAspectRatio="xMinYMin meet" x="313" y="-448"/>
<text text-anchor="start" x="328" y="-439.2" font-family="Helvetica,sans-Serif" font-size="11.00">drainage_pump</text>
<polygon fill="none" stroke="black" points="308,-409 308,-431 514,-431 514,-409 308,-409"/>
<image xlink:href="../../images/foreignKeys.png" width="11px" height="12px" preserveAspectRatio="xMinYMin meet" x="313" y="-426"/>
<text text-anchor="start" x="328" y="-417.2" font-family="Helvetica,sans-Serif" font-size="11.00">power_connection</text>
<polygon fill="none" stroke="black" points="308,-387 308,-409 514,-409 514,-387 308,-387"/>
<image xlink:href="../../images/foreignKeys.png" width="11px" height="12px" preserveAspectRatio="xMinYMin meet" x="313" y="-404"/>
<text text-anchor="start" x="328" y="-395.2" font-family="Helvetica,sans-Serif" font-size="11.00">measuring_system</text>
<polygon fill="none" stroke="black" points="308,-365 308,-387 514,-387 514,-365 308,-365"/>
<image xlink:href="../../images/foreignKeys.png" width="11px" height="12px" preserveAspectRatio="xMinYMin meet" x="313" y="-382"/>
<text text-anchor="start" x="328" y="-373.2" font-family="Helvetica,sans-Serif" font-size="11.00">condition</text>
<polygon fill="none" stroke="black" points="308,-347 308,-365 514,-365 514,-347 308,-347"/>
<text text-anchor="start" x="311" y="-353.2" font-family="Helvetica,sans-Serif" font-size="11.00">...</text>
<polygon fill="#ffffff" stroke="transparent" points="308,-329 308,-347 514,-347 514,-329 308,-329"/>
<polygon fill="none" stroke="black" points="308,-329 308,-347 514,-347 514,-329 308,-329"/>
<polygon fill="#ffffff" stroke="transparent" points="309,-330 309,-346 380,-346 380,-330 309,-330"/>
<text text-anchor="start" x="311" y="-335.2" font-family="Helvetica,sans-Serif" font-size="11.00">&lt; 10</text>
<polygon fill="#ffffff" stroke="transparent" points="380,-330 380,-346 461,-346 461,-330 380,-330"/>
<text text-anchor="start" x="402" y="-335.2" font-family="Helvetica,sans-Serif" font-size="11.00">0 rows</text>
<polygon fill="#ffffff" stroke="transparent" points="461,-330 461,-346 513,-346 513,-330 461,-330"/>
<text text-anchor="start" x="503" y="-335.2" font-family="Helvetica,sans-Serif" font-size="11.00"> &#160;</text>
<polygon fill="black" stroke="black" points="380,-330 380,-346 380,-346 380,-330 380,-330"/>
<polygon fill="black" stroke="black" points="461,-330 461,-346 461,-346 461,-330 461,-330"/>
</a>
</g>
</g>
<!-- structure_status -->
<g id="node2" class="node">
<title>structure_status</title>
<g id="a_node2"><a xlink:href="../../tables/structure_status.html" xlink:title="structure_status" target="_top">
<polygon fill="#ffffff" stroke="transparent" points="8,-37 8,-587 259,-587 259,-37 8,-37"/>
<polygon fill="#f5f5f5" stroke="transparent" points="10.5,-563 10.5,-585 257.5,-585 257.5,-563 10.5,-563"/>
<polygon fill="none" stroke="black" points="10.5,-563 10.5,-585 257.5,-585 257.5,-563 10.5,-563"/>
<text text-anchor="start" x="15.5" y="-572.2" font-family="Helvetica,sans-Serif" font-weight="bold" font-size="11.00">structure_status</text>
<text text-anchor="start" x="215.5" y="-571.2" font-family="Helvetica,sans-Serif" font-size="11.00">[table]</text>
<polygon fill="none" stroke="black" points="10.5,-541 10.5,-563 151.5,-563 151.5,-541 10.5,-541"/>
<image xlink:href="../../images/primaryKeys.png" width="11px" height="12px" preserveAspectRatio="xMinYMin meet" x="15.5" y="-558"/>
<text text-anchor="start" x="30.5" y="-549.2" font-family="Helvetica,sans-Serif" font-size="11.00">code</text>
<polygon fill="none" stroke="black" points="151.5,-541 151.5,-563 257.5,-563 257.5,-541 151.5,-541"/>
<text text-anchor="start" x="154.5" y="-549.2" font-family="Helvetica,sans-Serif" font-size="11.00">int4[10]</text>
<polygon fill="none" stroke="black" points="10.5,-519 10.5,-541 151.5,-541 151.5,-519 10.5,-519"/>
<text text-anchor="start" x="30.5" y="-527.2" font-family="Helvetica,sans-Serif" font-size="11.00">vsacode</text>
<polygon fill="none" stroke="black" points="151.5,-519 151.5,-541 257.5,-541 257.5,-519 151.5,-519"/>
<text text-anchor="start" x="154.5" y="-527.2" font-family="Helvetica,sans-Serif" font-size="11.00">int4[10]</text>
<polygon fill="none" stroke="black" points="10.5,-497 10.5,-519 151.5,-519 151.5,-497 10.5,-497"/>
<text text-anchor="start" x="30.5" y="-505.2" font-family="Helvetica,sans-Serif" font-size="11.00">value_en</text>
<polygon fill="none" stroke="black" points="151.5,-497 151.5,-519 257.5,-519 257.5,-497 151.5,-497"/>
<text text-anchor="start" x="154.5" y="-505.2" font-family="Helvetica,sans-Serif" font-size="11.00">varchar[100]</text>
<polygon fill="none" stroke="black" points="10.5,-475 10.5,-497 151.5,-497 151.5,-475 10.5,-475"/>
<text text-anchor="start" x="30.5" y="-483.2" font-family="Helvetica,sans-Serif" font-size="11.00">value_de</text>
<polygon fill="none" stroke="black" points="151.5,-475 151.5,-497 257.5,-497 257.5,-475 151.5,-475"/>
<text text-anchor="start" x="154.5" y="-483.2" font-family="Helvetica,sans-Serif" font-size="11.00">varchar[100]</text>
<polygon fill="none" stroke="black" points="10.5,-453 10.5,-475 151.5,-475 151.5,-453 10.5,-453"/>
<text text-anchor="start" x="30.5" y="-461.2" font-family="Helvetica,sans-Serif" font-size="11.00">value_fr</text>
<polygon fill="none" stroke="black" points="151.5,-453 151.5,-475 257.5,-475 257.5,-453 151.5,-453"/>
<text text-anchor="start" x="154.5" y="-461.2" font-family="Helvetica,sans-Serif" font-size="11.00">varchar[100]</text>
<polygon fill="none" stroke="black" points="10.5,-431 10.5,-453 151.5,-453 151.5,-431 10.5,-431"/>
<text text-anchor="start" x="30.5" y="-439.2" font-family="Helvetica,sans-Serif" font-size="11.00">value_it</text>
<polygon fill="none" stroke="black" points="151.5,-431 151.5,-453 257.5,-453 257.5,-431 151.5,-431"/>
<text text-anchor="start" x="154.5" y="-439.2" font-family="Helvetica,sans-Serif" font-size="11.00">varchar[100]</text>
<polygon fill="none" stroke="black" points="10.5,-409 10.5,-431 151.5,-431 151.5,-409 10.5,-409"/>
<text text-anchor="start" x="30.5" y="-417.2" font-family="Helvetica,sans-Serif" font-size="11.00">value_ro</text>
<polygon fill="none" stroke="black" points="151.5,-409 151.5,-431 257.5,-431 257.5,-409 151.5,-409"/>
<text text-anchor="start" x="154.5" y="-417.2" font-family="Helvetica,sans-Serif" font-size="11.00">varchar[100]</text>
<polygon fill="none" stroke="black" points="10.5,-387 10.5,-409 151.5,-409 151.5,-387 10.5,-387"/>
<text text-anchor="start" x="30.5" y="-395.2" font-family="Helvetica,sans-Serif" font-size="11.00">abbr_en</text>
<polygon fill="none" stroke="black" points="151.5,-387 151.5,-409 257.5,-409 257.5,-387 151.5,-387"/>
<text text-anchor="start" x="154.5" y="-395.2" font-family="Helvetica,sans-Serif" font-size="11.00">varchar[3]</text>
<polygon fill="none" stroke="black" points="10.5,-365 10.5,-387 151.5,-387 151.5,-365 10.5,-365"/>
<text text-anchor="start" x="30.5" y="-373.2" font-family="Helvetica,sans-Serif" font-size="11.00">abbr_de</text>
<polygon fill="none" stroke="black" points="151.5,-365 151.5,-387 257.5,-387 257.5,-365 151.5,-365"/>
<text text-anchor="start" x="154.5" y="-373.2" font-family="Helvetica,sans-Serif" font-size="11.00">varchar[3]</text>
<polygon fill="none" stroke="black" points="10.5,-343 10.5,-365 151.5,-365 151.5,-343 10.5,-343"/>
<text text-anchor="start" x="30.5" y="-351.2" font-family="Helvetica,sans-Serif" font-size="11.00">abbr_fr</text>
<polygon fill="none" stroke="black" points="151.5,-343 151.5,-365 257.5,-365 257.5,-343 151.5,-343"/>
<text text-anchor="start" x="154.5" y="-351.2" font-family="Helvetica,sans-Serif" font-size="11.00">varchar[3]</text>
<polygon fill="none" stroke="black" points="10.5,-321 10.5,-343 151.5,-343 151.5,-321 10.5,-321"/>
<text text-anchor="start" x="30.5" y="-329.2" font-family="Helvetica,sans-Serif" font-size="11.00">abbr_it</text>
<polygon fill="none" stroke="black" points="151.5,-321 151.5,-343 257.5,-343 257.5,-321 151.5,-321"/>
<text text-anchor="start" x="154.5" y="-329.2" font-family="Helvetica,sans-Serif" font-size="11.00">varchar[3]</text>
<polygon fill="none" stroke="black" points="10.5,-299 10.5,-321 151.5,-321 151.5,-299 10.5,-299"/>
<text text-anchor="start" x="30.5" y="-307.2" font-family="Helvetica,sans-Serif" font-size="11.00">abbr_ro</text>
<polygon fill="none" stroke="black" points="151.5,-299 151.5,-321 257.5,-321 257.5,-299 151.5,-299"/>
<text text-anchor="start" x="154.5" y="-307.2" font-family="Helvetica,sans-Serif" font-size="11.00">varchar[3]</text>
<polygon fill="none" stroke="black" points="10.5,-277 10.5,-299 151.5,-299 151.5,-277 10.5,-277"/>
<text text-anchor="start" x="30.5" y="-285.2" font-family="Helvetica,sans-Serif" font-size="11.00">description_en</text>
<polygon fill="none" stroke="black" points="151.5,-277 151.5,-299 257.5,-299 257.5,-277 151.5,-277"/>
<text text-anchor="start" x="154.5" y="-285.2" font-family="Helvetica,sans-Serif" font-size="11.00">text[2147483647]</text>
<polygon fill="none" stroke="black" points="10.5,-255 10.5,-277 151.5,-277 151.5,-255 10.5,-255"/>
<text text-anchor="start" x="30.5" y="-263.2" font-family="Helvetica,sans-Serif" font-size="11.00">description_de</text>
<polygon fill="none" stroke="black" points="151.5,-255 151.5,-277 257.5,-277 257.5,-255 151.5,-255"/>
<text text-anchor="start" x="154.5" y="-263.2" font-family="Helvetica,sans-Serif" font-size="11.00">text[2147483647]</text>
<polygon fill="none" stroke="black" points="10.5,-233 10.5,-255 151.5,-255 151.5,-233 10.5,-233"/>
<text text-anchor="start" x="30.5" y="-241.2" font-family="Helvetica,sans-Serif" font-size="11.00">description_fr</text>
<polygon fill="none" stroke="black" points="151.5,-233 151.5,-255 257.5,-255 257.5,-233 151.5,-233"/>
<text text-anchor="start" x="154.5" y="-241.2" font-family="Helvetica,sans-Serif" font-size="11.00">text[2147483647]</text>
<polygon fill="none" stroke="black" points="10.5,-211 10.5,-233 151.5,-233 151.5,-211 10.5,-211"/>
<text text-anchor="start" x="30.5" y="-219.2" font-family="Helvetica,sans-Serif" font-size="11.00">description_it</text>
<polygon fill="none" stroke="black" points="151.5,-211 151.5,-233 257.5,-233 257.5,-211 151.5,-211"/>
<text text-anchor="start" x="154.5" y="-219.2" font-family="Helvetica,sans-Serif" font-size="11.00">text[2147483647]</text>
<polygon fill="none" stroke="black" points="10.5,-189 10.5,-211 151.5,-211 151.5,-189 10.5,-189"/>
<text text-anchor="start" x="30.5" y="-197.2" font-family="Helvetica,sans-Serif" font-size="11.00">description_ro</text>
<polygon fill="none" stroke="black" points="151.5,-189 151.5,-211 257.5,-211 257.5,-189 151.5,-189"/>
<text text-anchor="start" x="154.5" y="-197.2" font-family="Helvetica,sans-Serif" font-size="11.00">text[2147483647]</text>
<polygon fill="none" stroke="black" points="10.5,-167 10.5,-189 151.5,-189 151.5,-167 10.5,-167"/>
<text text-anchor="start" x="30.5" y="-175.2" font-family="Helvetica,sans-Serif" font-size="11.00">display_en</text>
<polygon fill="none" stroke="black" points="151.5,-167 151.5,-189 257.5,-189 257.5,-167 151.5,-167"/>
<text text-anchor="start" x="154.5" y="-175.2" font-family="Helvetica,sans-Serif" font-size="11.00">varchar[100]</text>
<polygon fill="none" stroke="black" points="10.5,-145 10.5,-167 151.5,-167 151.5,-145 10.5,-145"/>
<text text-anchor="start" x="30.5" y="-153.2" font-family="Helvetica,sans-Serif" font-size="11.00">display_de</text>
<polygon fill="none" stroke="black" points="151.5,-145 151.5,-167 257.5,-167 257.5,-145 151.5,-145"/>
<text text-anchor="start" x="154.5" y="-153.2" font-family="Helvetica,sans-Serif" font-size="11.00">varchar[100]</text>
<polygon fill="none" stroke="black" points="10.5,-123 10.5,-145 151.5,-145 151.5,-123 10.5,-123"/>
<text text-anchor="start" x="30.5" y="-131.2" font-family="Helvetica,sans-Serif" font-size="11.00">display_fr</text>
<polygon fill="none" stroke="black" points="151.5,-123 151.5,-145 257.5,-145 257.5,-123 151.5,-123"/>
<text text-anchor="start" x="154.5" y="-131.2" font-family="Helvetica,sans-Serif" font-size="11.00">varchar[100]</text>
<polygon fill="none" stroke="black" points="10.5,-101 10.5,-123 151.5,-123 151.5,-101 10.5,-101"/>
<text text-anchor="start" x="30.5" y="-109.2" font-family="Helvetica,sans-Serif" font-size="11.00">display_it</text>
<polygon fill="none" stroke="black" points="151.5,-101 151.5,-123 257.5,-123 257.5,-101 151.5,-101"/>
<text text-anchor="start" x="154.5" y="-109.2" font-family="Helvetica,sans-Serif" font-size="11.00">varchar[100]</text>
<polygon fill="none" stroke="black" points="10.5,-79 10.5,-101 151.5,-101 151.5,-79 10.5,-79"/>
<text text-anchor="start" x="30.5" y="-87.2" font-family="Helvetica,sans-Serif" font-size="11.00">display_ro</text>
<polygon fill="none" stroke="black" points="151.5,-79 151.5,-101 257.5,-101 257.5,-79 151.5,-79"/>
<text text-anchor="start" x="154.5" y="-87.2" font-family="Helvetica,sans-Serif" font-size="11.00">varchar[100]</text>
<polygon fill="none" stroke="black" points="10.5,-57 10.5,-79 151.5,-79 151.5,-57 10.5,-57"/>
<text text-anchor="start" x="30.5" y="-65.2" font-family="Helvetica,sans-Serif" font-size="11.00">active</text>
<polygon fill="none" stroke="black" points="151.5,-57 151.5,-79 257.5,-79 257.5,-57 151.5,-57"/>
<text text-anchor="start" x="154.5" y="-65.2" font-family="Helvetica,sans-Serif" font-size="11.00">bool[1]</text>
<polygon fill="#ffffff" stroke="transparent" points="10.5,-39 10.5,-57 257.5,-57 257.5,-39 10.5,-39"/>
<polygon fill="none" stroke="black" points="10.5,-39 10.5,-57 257.5,-57 257.5,-39 10.5,-39"/>
<polygon fill="#ffffff" stroke="transparent" points="11.5,-40 11.5,-56 97.5,-56 97.5,-40 11.5,-40"/>
<text text-anchor="start" x="13.5" y="-45.2" font-family="Helvetica,sans-Serif" font-size="11.00">&lt; 0</text>
<polygon fill="#ffffff" stroke="transparent" points="97.5,-40 97.5,-56 171.5,-56 171.5,-40 97.5,-40"/>
<text text-anchor="start" x="130.5" y="-45.2" font-family="Helvetica,sans-Serif" font-size="11.00"> &#160;</text>
<polygon fill="#ffffff" stroke="transparent" points="171.5,-40 171.5,-56 256.5,-56 256.5,-40 171.5,-40"/>
<text text-anchor="start" x="234.5" y="-45.2" font-family="Helvetica,sans-Serif" font-size="11.00">1 &gt;</text>
<polygon fill="black" stroke="black" points="97.5,-40 97.5,-56 97.5,-56 97.5,-40 97.5,-40"/>
<polygon fill="black" stroke="black" points="171.5,-40 171.5,-56 171.5,-56 171.5,-40 171.5,-40"/>
<polygon fill="none" stroke="black" stroke-width="2" points="9,-38 9,-586 258,-586 258,-38 9,-38"/>
</a>
</g>
</g>
<!-- tdh_od.structure&#45;&gt;structure_status -->
<g id="edge1" class="edge">
<title>tdh_od.structure:w&#45;&gt;structure_status:e</title>
<path fill="none" stroke="black" d="M292.28,-552C281.29,-552 274.16,-552 258.5,-552"/>
<polygon fill="black" stroke="black" points="299,-552 307,-555.6 303,-552 307,-552 307,-552 307,-552 303,-552 307,-548.4 299,-552 299,-552"/>
<ellipse fill="none" stroke="black" cx="295.8" cy="-552" rx="3.2" ry="3.2"/>
</g>
</g>
</svg>
