<?xml version="1.0" encoding="UTF-8" standalone="no"?>
<!DOCTYPE svg PUBLIC "-//W3C//DTD SVG 1.1//EN"
 "http://www.w3.org/Graphics/SVG/1.1/DTD/svg11.dtd">
<!-- Generated by graphviz version 2.47.1 (20210515.0534)
 -->
<!-- Title: oneDegreeRelationshipsDiagram Pages: 1 -->
<svg width="429pt" height="421pt"
 viewBox="0.00 0.00 429.00 421.00" xmlns="http://www.w3.org/2000/svg" xmlns:xlink="http://www.w3.org/1999/xlink">
<g id="graph0" class="graph" transform="scale(1 1) rotate(0) translate(4 417)">
<title>oneDegreeRelationshipsDiagram</title>
<polygon fill="#ffffff" stroke="transparent" points="-4,4 -4,-417 425,-417 425,4 -4,4"/>
<text text-anchor="middle" x="73.5" y="-7.2" font-family="Helvetica,sans-Serif" font-size="11.00">Generated by SchemaSpy</text>
<!-- tdh_od.structure -->
<g id="node1" class="node">
<title>tdh_od.structure</title>
<g id="a_node1"><a xlink:href="../../../tdh_od/tables/structure.html" xlink:title="tdh_od.structure" target="_top">
<polygon fill="#ffffff" stroke="transparent" points="239,-131 239,-409 413,-409 413,-131 239,-131"/>
<polygon fill="#f5f5f5" stroke="transparent" points="239,-387 239,-409 413,-409 413,-387 239,-387"/>
<polygon fill="none" stroke="black" points="239,-387 239,-409 413,-409 413,-387 239,-387"/>
<text text-anchor="start" x="244" y="-396.2" font-family="Helvetica,sans-Serif" font-weight="bold" font-size="11.00">tdh_od.structure</text>
<text text-anchor="start" x="374" y="-395.2" font-family="Helvetica,sans-Serif" font-size="11.00">[table]</text>
<polygon fill="none" stroke="black" points="239,-365 239,-387 413,-387 413,-365 239,-365"/>
<image xlink:href="../../images/foreignKeys.png" width="11px" height="12px" preserveAspectRatio="xMinYMin meet" x="244" y="-382"/>
<text text-anchor="start" x="259" y="-373.2" font-family="Helvetica,sans-Serif" font-size="11.00">horizontal_positioning</text>
<polygon fill="none" stroke="black" points="239,-343 239,-365 413,-365 413,-343 239,-343"/>
<image xlink:href="../../images/foreignKeys.png" width="11px" height="12px" preserveAspectRatio="xMinYMin meet" x="244" y="-360"/>
<text text-anchor="start" x="259" y="-351.2" font-family="Helvetica,sans-Serif" font-size="11.00">status</text>
<polygon fill="none" stroke="black" points="239,-321 239,-343 413,-343 413,-321 239,-321"/>
<image xlink:href="../../images/foreignKeys.png" width="11px" height="12px" preserveAspectRatio="xMinYMin meet" x="244" y="-338"/>
<text text-anchor="start" x="259" y="-329.2" font-family="Helvetica,sans-Serif" font-size="11.00">kind</text>
<polygon fill="none" stroke="black" points="239,-299 239,-321 413,-321 413,-299 239,-299"/>
<image xlink:href="../../images/foreignKeys.png" width="11px" height="12px" preserveAspectRatio="xMinYMin meet" x="244" y="-316"/>
<text text-anchor="start" x="259" y="-307.2" font-family="Helvetica,sans-Serif" font-size="11.00">venting</text>
<polygon fill="none" stroke="black" points="239,-277 239,-299 413,-299 413,-277 239,-277"/>
<image xlink:href="../../images/foreignKeys.png" width="11px" height="12px" preserveAspectRatio="xMinYMin meet" x="244" y="-294"/>
<text text-anchor="start" x="259" y="-285.2" font-family="Helvetica,sans-Serif" font-size="11.00">discharge_type</text>
<polygon fill="none" stroke="black" points="239,-255 239,-277 413,-277 413,-255 239,-255"/>
<image xlink:href="../../images/foreignKeys.png" width="11px" height="12px" preserveAspectRatio="xMinYMin meet" x="244" y="-272"/>
<text text-anchor="start" x="259" y="-263.2" font-family="Helvetica,sans-Serif" font-size="11.00">grid_type</text>
<polygon fill="none" stroke="black" points="239,-233 239,-255 413,-255 413,-233 239,-233"/>
<image xlink:href="../../images/foreignKeys.png" width="11px" height="12px" preserveAspectRatio="xMinYMin meet" x="244" y="-250"/>
<text text-anchor="start" x="259" y="-241.2" font-family="Helvetica,sans-Serif" font-size="11.00">drainage_pump</text>
<polygon fill="none" stroke="black" points="239,-211 239,-233 413,-233 413,-211 239,-211"/>
<image xlink:href="../../images/foreignKeys.png" width="11px" height="12px" preserveAspectRatio="xMinYMin meet" x="244" y="-228"/>
<text text-anchor="start" x="259" y="-219.2" font-family="Helvetica,sans-Serif" font-size="11.00">power_connection</text>
<polygon fill="none" stroke="black" points="239,-189 239,-211 413,-211 413,-189 239,-189"/>
<image xlink:href="../../images/foreignKeys.png" width="11px" height="12px" preserveAspectRatio="xMinYMin meet" x="244" y="-206"/>
<text text-anchor="start" x="259" y="-197.2" font-family="Helvetica,sans-Serif" font-size="11.00">measuring_system</text>
<polygon fill="none" stroke="black" points="239,-167 239,-189 413,-189 413,-167 239,-167"/>
<image xlink:href="../../images/foreignKeys.png" width="11px" height="12px" preserveAspectRatio="xMinYMin meet" x="244" y="-184"/>
<text text-anchor="start" x="259" y="-175.2" font-family="Helvetica,sans-Serif" font-size="11.00">condition</text>
<polygon fill="none" stroke="black" points="239,-149 239,-167 413,-167 413,-149 239,-149"/>
<text text-anchor="start" x="242" y="-155.2" font-family="Helvetica,sans-Serif" font-size="11.00">...</text>
<polygon fill="#ffffff" stroke="transparent" points="239,-131 239,-149 313,-149 313,-131 239,-131"/>
<polygon fill="none" stroke="black" points="239,-131 239,-149 313,-149 313,-131 239,-131"/>
<text text-anchor="start" x="242" y="-137.2" font-family="Helvetica,sans-Serif" font-size="11.00">&lt; 10</text>
<polygon fill="#ffffff" stroke="transparent" points="313,-131 313,-149 376,-149 376,-131 313,-131"/>
<polygon fill="none" stroke="black" points="313,-131 313,-149 376,-149 376,-131 313,-131"/>
<text text-anchor="start" x="339" y="-137.2" font-family="Helvetica,sans-Serif" font-size="11.00">0 rows</text>
<polygon fill="#ffffff" stroke="transparent" points="376,-131 376,-149 413,-149 413,-131 376,-131"/>
<polygon fill="none" stroke="black" points="376,-131 376,-149 413,-149 413,-131 376,-131"/>
<text text-anchor="start" x="403" y="-137.2" font-family="Helvetica,sans-Serif" font-size="11.00"> &#160;</text>
</a>
</g>
</g>
<!-- structure_kind -->
<g id="node2" class="node">
<title>structure_kind</title>
<g id="a_node2"><a xlink:href="../../tables/structure_kind.html" xlink:title="structure_kind" target="_top">
<polygon fill="#ffffff" stroke="transparent" points="8,-37 8,-367 190,-367 190,-37 8,-37"/>
<polygon fill="#f5f5f5" stroke="transparent" points="10,-343 10,-365 188,-365 188,-343 10,-343"/>
<polygon fill="none" stroke="black" points="10,-343 10,-365 188,-365 188,-343 10,-343"/>
<text text-anchor="start" x="15" y="-352.2" font-family="Helvetica,sans-Serif" font-weight="bold" font-size="11.00">structure_kind</text>
<text text-anchor="start" x="149" y="-351.2" font-family="Helvetica,sans-Serif" font-size="11.00">[table]</text>
<polygon fill="none" stroke="black" points="10,-321 10,-343 118,-343 118,-321 10,-321"/>
<image xlink:href="../../images/primaryKeys.png" width="11px" height="12px" preserveAspectRatio="xMinYMin meet" x="15" y="-338"/>
<text text-anchor="start" x="30" y="-329.2" font-family="Helvetica,sans-Serif" font-size="11.00">code</text>
<polygon fill="none" stroke="black" points="118,-321 118,-343 188,-343 188,-321 118,-321"/>
<text text-anchor="start" x="121" y="-329.2" font-family="Helvetica,sans-Serif" font-size="11.00">int4[10]</text>
<polygon fill="none" stroke="black" points="10,-299 10,-321 118,-321 118,-299 10,-299"/>
<text text-anchor="start" x="30" y="-307.2" font-family="Helvetica,sans-Serif" font-size="11.00">vsacode</text>
<polygon fill="none" stroke="black" points="118,-299 118,-321 188,-321 188,-299 118,-299"/>
<text text-anchor="start" x="121" y="-307.2" font-family="Helvetica,sans-Serif" font-size="11.00">int4[10]</text>
<polygon fill="none" stroke="black" points="10,-277 10,-299 118,-299 118,-277 10,-277"/>
<text text-anchor="start" x="30" y="-285.2" font-family="Helvetica,sans-Serif" font-size="11.00">value_en</text>
<polygon fill="none" stroke="black" points="118,-277 118,-299 188,-299 188,-277 118,-277"/>
<text text-anchor="start" x="121" y="-285.2" font-family="Helvetica,sans-Serif" font-size="11.00">varchar[100]</text>
<polygon fill="none" stroke="black" points="10,-255 10,-277 118,-277 118,-255 10,-255"/>
<text text-anchor="start" x="30" y="-263.2" font-family="Helvetica,sans-Serif" font-size="11.00">value_de</text>
<polygon fill="none" stroke="black" points="118,-255 118,-277 188,-277 188,-255 118,-255"/>
<text text-anchor="start" x="121" y="-263.2" font-family="Helvetica,sans-Serif" font-size="11.00">varchar[100]</text>
<polygon fill="none" stroke="black" points="10,-233 10,-255 118,-255 118,-233 10,-233"/>
<text text-anchor="start" x="30" y="-241.2" font-family="Helvetica,sans-Serif" font-size="11.00">value_fr</text>
<polygon fill="none" stroke="black" points="118,-233 118,-255 188,-255 188,-233 118,-233"/>
<text text-anchor="start" x="121" y="-241.2" font-family="Helvetica,sans-Serif" font-size="11.00">varchar[100]</text>
<polygon fill="none" stroke="black" points="10,-211 10,-233 118,-233 118,-211 10,-211"/>
<text text-anchor="start" x="30" y="-219.2" font-family="Helvetica,sans-Serif" font-size="11.00">value_it</text>
<polygon fill="none" stroke="black" points="118,-211 118,-233 188,-233 188,-211 118,-211"/>
<text text-anchor="start" x="121" y="-219.2" font-family="Helvetica,sans-Serif" font-size="11.00">varchar[100]</text>
<polygon fill="none" stroke="black" points="10,-189 10,-211 118,-211 118,-189 10,-189"/>
<text text-anchor="start" x="30" y="-197.2" font-family="Helvetica,sans-Serif" font-size="11.00">value_ro</text>
<polygon fill="none" stroke="black" points="118,-189 118,-211 188,-211 188,-189 118,-189"/>
<text text-anchor="start" x="121" y="-197.2" font-family="Helvetica,sans-Serif" font-size="11.00">varchar[100]</text>
<polygon fill="none" stroke="black" points="10,-167 10,-189 118,-189 118,-167 10,-167"/>
<text text-anchor="start" x="30" y="-175.2" font-family="Helvetica,sans-Serif" font-size="11.00">abbr_en</text>
<polygon fill="none" stroke="black" points="118,-167 118,-189 188,-189 188,-167 118,-167"/>
<text text-anchor="start" x="121" y="-175.2" font-family="Helvetica,sans-Serif" font-size="11.00">varchar[3]</text>
<polygon fill="none" stroke="black" points="10,-145 10,-167 118,-167 118,-145 10,-145"/>
<text text-anchor="start" x="30" y="-153.2" font-family="Helvetica,sans-Serif" font-size="11.00">abbr_de</text>
<polygon fill="none" stroke="black" points="118,-145 118,-167 188,-167 188,-145 118,-145"/>
<text text-anchor="start" x="121" y="-153.2" font-family="Helvetica,sans-Serif" font-size="11.00">varchar[3]</text>
<polygon fill="none" stroke="black" points="10,-123 10,-145 118,-145 118,-123 10,-123"/>
<text text-anchor="start" x="30" y="-131.2" font-family="Helvetica,sans-Serif" font-size="11.00">abbr_fr</text>
<polygon fill="none" stroke="black" points="118,-123 118,-145 188,-145 188,-123 118,-123"/>
<text text-anchor="start" x="121" y="-131.2" font-family="Helvetica,sans-Serif" font-size="11.00">varchar[3]</text>
<polygon fill="none" stroke="black" points="10,-101 10,-123 118,-123 118,-101 10,-101"/>
<text text-anchor="start" x="30" y="-109.2" font-family="Helvetica,sans-Serif" font-size="11.00">abbr_it</text>
<polygon fill="none" stroke="black" points="118,-101 118,-123 188,-123 188,-101 118,-101"/>
<text text-anchor="start" x="121" y="-109.2" font-family="Helvetica,sans-Serif" font-size="11.00">varchar[3]</text>
<polygon fill="none" stroke="black" points="10,-79 10,-101 118,-101 118,-79 10,-79"/>
<text text-anchor="start" x="30" y="-87.2" font-family="Helvetica,sans-Serif" font-size="11.00">abbr_ro</text>
<polygon fill="none" stroke="black" points="118,-79 118,-101 188,-101 188,-79 118,-79"/>
<text text-anchor="start" x="121" y="-87.2" font-family="Helvetica,sans-Serif" font-size="11.00">varchar[3]</text>
<polygon fill="none" stroke="black" points="10,-57 10,-79 118,-79 118,-57 10,-57"/>
<text text-anchor="start" x="30" y="-65.2" font-family="Helvetica,sans-Serif" font-size="11.00">active</text>
<polygon fill="none" stroke="black" points="118,-57 118,-79 188,-79 188,-57 118,-57"/>
<text text-anchor="start" x="121" y="-65.2" font-family="Helvetica,sans-Serif" font-size="11.00">bool[1]</text>
<polygon fill="#ffffff" stroke="transparent" points="10,-39 10,-57 68,-57 68,-39 10,-39"/>
<polygon fill="none" stroke="black" points="10,-39 10,-57 68,-57 68,-39 10,-39"/>
<text text-anchor="start" x="13" y="-45.2" font-family="Helvetica,sans-Serif" font-size="11.00">&lt; 0</text>
<polygon fill="#ffffff" stroke="transparent" points="68,-39 68,-57 118,-57 118,-39 68,-39"/>
<polygon fill="none" stroke="black" points="68,-39 68,-57 118,-57 118,-39 68,-39"/>
<text text-anchor="start" x="108" y="-45.2" font-family="Helvetica,sans-Serif" font-size="11.00"> &#160;</text>
<polygon fill="#ffffff" stroke="transparent" points="118,-39 118,-57 188,-57 188,-39 118,-39"/>
<polygon fill="none" stroke="black" points="118,-39 118,-57 188,-57 188,-39 118,-39"/>
<text text-anchor="start" x="169" y="-45.2" font-family="Helvetica,sans-Serif" font-size="11.00">1 &gt;</text>
<polygon fill="none" stroke="black" stroke-width="2" points="9,-38 9,-366 189,-366 189,-38 9,-38"/>
</a>
</g>
</g>
<!-- tdh_od.structure&#45;&gt;structure_kind -->
<g id="edge1" class="edge">
<title>tdh_od.structure:w&#45;&gt;structure_kind:e</title>
<path fill="none" stroke="black" d="M223.49,-332C212.18,-332 204.99,-332 189,-332"/>
<polygon fill="black" stroke="black" points="230,-332 238,-335.6 234,-332 238,-332 238,-332 238,-332 234,-332 238,-328.4 230,-332 230,-332"/>
<ellipse fill="none" stroke="black" cx="226.8" cy="-332" rx="3.2" ry="3.2"/>
</g>
</g>
</svg>
