<?xml version="1.0" encoding="UTF-8" standalone="no"?>
<!DOCTYPE svg PUBLIC "-//W3C//DTD SVG 1.1//EN"
 "http://www.w3.org/Graphics/SVG/1.1/DTD/svg11.dtd">
<!-- Generated by graphviz version 2.43.0 (0)
 -->
<!-- Title: oneDegreeRelationshipsDiagram Pages: 1 -->
<svg width="569pt" height="509pt"
 viewBox="0.00 0.00 569.00 509.00" xmlns="http://www.w3.org/2000/svg" xmlns:xlink="http://www.w3.org/1999/xlink">
<g id="graph0" class="graph" transform="scale(1 1) rotate(0) translate(4 505)">
<title>oneDegreeRelationshipsDiagram</title>
<polygon fill="#ffffff" stroke="transparent" points="-4,4 -4,-505 565,-505 565,4 -4,4"/>
<text text-anchor="middle" x="79.5" y="-7.2" font-family="Helvetica,sans-Serif" font-size="11.00">Generated by SchemaSpy</text>
<!-- tdh_od.structure -->
<g id="node1" class="node">
<title>tdh_od.structure</title>
<g id="a_node1"><a xlink:href="../../../tdh_od/tables/structure.html" xlink:title="tdh_od.structure" target="_top">
<polygon fill="#ffffff" stroke="transparent" points="347,-219 347,-497 553,-497 553,-219 347,-219"/>
<polygon fill="#f5f5f5" stroke="transparent" points="347,-475 347,-497 553,-497 553,-475 347,-475"/>
<polygon fill="none" stroke="black" points="347,-475 347,-497 553,-497 553,-475 347,-475"/>
<text text-anchor="start" x="352" y="-484.2" font-family="Helvetica,sans-Serif" font-weight="bold" font-size="11.00">tdh_od.structure</text>
<text text-anchor="start" x="511" y="-483.2" font-family="Helvetica,sans-Serif" font-size="11.00">[table]</text>
<polygon fill="none" stroke="black" points="347,-453 347,-475 553,-475 553,-453 347,-453"/>
<image xlink:href="../../images/foreignKeys.png" width="11px" height="12px" preserveAspectRatio="xMinYMin meet" x="352" y="-470"/>
<text text-anchor="start" x="367" y="-461.2" font-family="Helvetica,sans-Serif" font-size="11.00">horizontal_positioning</text>
<polygon fill="none" stroke="black" points="347,-431 347,-453 553,-453 553,-431 347,-431"/>
<image xlink:href="../../images/foreignKeys.png" width="11px" height="12px" preserveAspectRatio="xMinYMin meet" x="352" y="-448"/>
<text text-anchor="start" x="367" y="-439.2" font-family="Helvetica,sans-Serif" font-size="11.00">status</text>
<polygon fill="none" stroke="black" points="347,-409 347,-431 553,-431 553,-409 347,-409"/>
<image xlink:href="../../images/foreignKeys.png" width="11px" height="12px" preserveAspectRatio="xMinYMin meet" x="352" y="-426"/>
<text text-anchor="start" x="367" y="-417.2" font-family="Helvetica,sans-Serif" font-size="11.00">kind</text>
<polygon fill="none" stroke="black" points="347,-387 347,-409 553,-409 553,-387 347,-387"/>
<image xlink:href="../../images/foreignKeys.png" width="11px" height="12px" preserveAspectRatio="xMinYMin meet" x="352" y="-404"/>
<text text-anchor="start" x="367" y="-395.2" font-family="Helvetica,sans-Serif" font-size="11.00">venting</text>
<polygon fill="none" stroke="black" points="347,-365 347,-387 553,-387 553,-365 347,-365"/>
<image xlink:href="../../images/foreignKeys.png" width="11px" height="12px" preserveAspectRatio="xMinYMin meet" x="352" y="-382"/>
<text text-anchor="start" x="367" y="-373.2" font-family="Helvetica,sans-Serif" font-size="11.00">discharge_type</text>
<polygon fill="none" stroke="black" points="347,-343 347,-365 553,-365 553,-343 347,-343"/>
<image xlink:href="../../images/foreignKeys.png" width="11px" height="12px" preserveAspectRatio="xMinYMin meet" x="352" y="-360"/>
<text text-anchor="start" x="367" y="-351.2" font-family="Helvetica,sans-Serif" font-size="11.00">grid_type</text>
<polygon fill="none" stroke="black" points="347,-321 347,-343 553,-343 553,-321 347,-321"/>
<image xlink:href="../../images/foreignKeys.png" width="11px" height="12px" preserveAspectRatio="xMinYMin meet" x="352" y="-338"/>
<text text-anchor="start" x="367" y="-329.2" font-family="Helvetica,sans-Serif" font-size="11.00">drainage_pump</text>
<polygon fill="none" stroke="black" points="347,-299 347,-321 553,-321 553,-299 347,-299"/>
<image xlink:href="../../images/foreignKeys.png" width="11px" height="12px" preserveAspectRatio="xMinYMin meet" x="352" y="-316"/>
<text text-anchor="start" x="367" y="-307.2" font-family="Helvetica,sans-Serif" font-size="11.00">power_connection</text>
<polygon fill="none" stroke="black" points="347,-277 347,-299 553,-299 553,-277 347,-277"/>
<image xlink:href="../../images/foreignKeys.png" width="11px" height="12px" preserveAspectRatio="xMinYMin meet" x="352" y="-294"/>
<text text-anchor="start" x="367" y="-285.2" font-family="Helvetica,sans-Serif" font-size="11.00">measuring_system</text>
<polygon fill="none" stroke="black" points="347,-255 347,-277 553,-277 553,-255 347,-255"/>
<image xlink:href="../../images/foreignKeys.png" width="11px" height="12px" preserveAspectRatio="xMinYMin meet" x="352" y="-272"/>
<text text-anchor="start" x="367" y="-263.2" font-family="Helvetica,sans-Serif" font-size="11.00">condition</text>
<polygon fill="none" stroke="black" points="347,-237 347,-255 553,-255 553,-237 347,-237"/>
<text text-anchor="start" x="350" y="-243.2" font-family="Helvetica,sans-Serif" font-size="11.00">...</text>
<polygon fill="#ffffff" stroke="transparent" points="347,-219 347,-237 553,-237 553,-219 347,-219"/>
<polygon fill="none" stroke="black" points="347,-219 347,-237 553,-237 553,-219 347,-219"/>
<polygon fill="#ffffff" stroke="transparent" points="348,-220 348,-236 419,-236 419,-220 348,-220"/>
<text text-anchor="start" x="350" y="-225.2" font-family="Helvetica,sans-Serif" font-size="11.00">&lt; 10</text>
<polygon fill="#ffffff" stroke="transparent" points="419,-220 419,-236 500,-236 500,-220 419,-220"/>
<text text-anchor="start" x="441" y="-225.2" font-family="Helvetica,sans-Serif" font-size="11.00">0 rows</text>
<polygon fill="#ffffff" stroke="transparent" points="500,-220 500,-236 552,-236 552,-220 500,-220"/>
<text text-anchor="start" x="542" y="-225.2" font-family="Helvetica,sans-Serif" font-size="11.00"> &#160;</text>
<polygon fill="black" stroke="black" points="419,-220 419,-236 419,-236 419,-220 419,-220"/>
<polygon fill="black" stroke="black" points="500,-220 500,-236 500,-236 500,-220 500,-220"/>
</a>
</g>
</g>
<!-- structure_drainage_pump -->
<g id="node2" class="node">
<title>structure_drainage_pump</title>
<g id="a_node2"><a xlink:href="../../tables/structure_drainage_pump.html" xlink:title="structure_drainage_pump" target="_top">
<polygon fill="#ffffff" stroke="transparent" points="8,-37 8,-367 298,-367 298,-37 8,-37"/>
<polygon fill="#f5f5f5" stroke="transparent" points="10,-343 10,-365 296,-365 296,-343 10,-343"/>
<polygon fill="none" stroke="black" points="10,-343 10,-365 296,-365 296,-343 10,-343"/>
<text text-anchor="start" x="15" y="-352.2" font-family="Helvetica,sans-Serif" font-weight="bold" font-size="11.00">structure_drainage_pump</text>
<text text-anchor="start" x="254" y="-351.2" font-family="Helvetica,sans-Serif" font-size="11.00">[table]</text>
<polygon fill="none" stroke="black" points="10,-321 10,-343 218,-343 218,-321 10,-321"/>
<image xlink:href="../../images/primaryKeys.png" width="11px" height="12px" preserveAspectRatio="xMinYMin meet" x="15" y="-338"/>
<text text-anchor="start" x="30" y="-329.2" font-family="Helvetica,sans-Serif" font-size="11.00">code</text>
<polygon fill="none" stroke="black" points="218,-321 218,-343 296,-343 296,-321 218,-321"/>
<text text-anchor="start" x="221" y="-329.2" font-family="Helvetica,sans-Serif" font-size="11.00">int4[10]</text>
<polygon fill="none" stroke="black" points="10,-299 10,-321 218,-321 218,-299 10,-299"/>
<text text-anchor="start" x="30" y="-307.2" font-family="Helvetica,sans-Serif" font-size="11.00">vsacode</text>
<polygon fill="none" stroke="black" points="218,-299 218,-321 296,-321 296,-299 218,-299"/>
<text text-anchor="start" x="221" y="-307.2" font-family="Helvetica,sans-Serif" font-size="11.00">int4[10]</text>
<polygon fill="none" stroke="black" points="10,-277 10,-299 218,-299 218,-277 10,-277"/>
<text text-anchor="start" x="30" y="-285.2" font-family="Helvetica,sans-Serif" font-size="11.00">value_en</text>
<polygon fill="none" stroke="black" points="218,-277 218,-299 296,-299 296,-277 218,-277"/>
<text text-anchor="start" x="221" y="-285.2" font-family="Helvetica,sans-Serif" font-size="11.00">varchar[100]</text>
<polygon fill="none" stroke="black" points="10,-255 10,-277 218,-277 218,-255 10,-255"/>
<text text-anchor="start" x="30" y="-263.2" font-family="Helvetica,sans-Serif" font-size="11.00">value_de</text>
<polygon fill="none" stroke="black" points="218,-255 218,-277 296,-277 296,-255 218,-255"/>
<text text-anchor="start" x="221" y="-263.2" font-family="Helvetica,sans-Serif" font-size="11.00">varchar[100]</text>
<polygon fill="none" stroke="black" points="10,-233 10,-255 218,-255 218,-233 10,-233"/>
<text text-anchor="start" x="30" y="-241.2" font-family="Helvetica,sans-Serif" font-size="11.00">value_fr</text>
<polygon fill="none" stroke="black" points="218,-233 218,-255 296,-255 296,-233 218,-233"/>
<text text-anchor="start" x="221" y="-241.2" font-family="Helvetica,sans-Serif" font-size="11.00">varchar[100]</text>
<polygon fill="none" stroke="black" points="10,-211 10,-233 218,-233 218,-211 10,-211"/>
<text text-anchor="start" x="30" y="-219.2" font-family="Helvetica,sans-Serif" font-size="11.00">value_it</text>
<polygon fill="none" stroke="black" points="218,-211 218,-233 296,-233 296,-211 218,-211"/>
<text text-anchor="start" x="221" y="-219.2" font-family="Helvetica,sans-Serif" font-size="11.00">varchar[100]</text>
<polygon fill="none" stroke="black" points="10,-189 10,-211 218,-211 218,-189 10,-189"/>
<text text-anchor="start" x="30" y="-197.2" font-family="Helvetica,sans-Serif" font-size="11.00">value_ro</text>
<polygon fill="none" stroke="black" points="218,-189 218,-211 296,-211 296,-189 218,-189"/>
<text text-anchor="start" x="221" y="-197.2" font-family="Helvetica,sans-Serif" font-size="11.00">varchar[100]</text>
<polygon fill="none" stroke="black" points="10,-167 10,-189 218,-189 218,-167 10,-167"/>
<text text-anchor="start" x="30" y="-175.2" font-family="Helvetica,sans-Serif" font-size="11.00">abbr_en</text>
<polygon fill="none" stroke="black" points="218,-167 218,-189 296,-189 296,-167 218,-167"/>
<text text-anchor="start" x="221" y="-175.2" font-family="Helvetica,sans-Serif" font-size="11.00">varchar[3]</text>
<polygon fill="none" stroke="black" points="10,-145 10,-167 218,-167 218,-145 10,-145"/>
<text text-anchor="start" x="30" y="-153.2" font-family="Helvetica,sans-Serif" font-size="11.00">abbr_de</text>
<polygon fill="none" stroke="black" points="218,-145 218,-167 296,-167 296,-145 218,-145"/>
<text text-anchor="start" x="221" y="-153.2" font-family="Helvetica,sans-Serif" font-size="11.00">varchar[3]</text>
<polygon fill="none" stroke="black" points="10,-123 10,-145 218,-145 218,-123 10,-123"/>
<text text-anchor="start" x="30" y="-131.2" font-family="Helvetica,sans-Serif" font-size="11.00">abbr_fr</text>
<polygon fill="none" stroke="black" points="218,-123 218,-145 296,-145 296,-123 218,-123"/>
<text text-anchor="start" x="221" y="-131.2" font-family="Helvetica,sans-Serif" font-size="11.00">varchar[3]</text>
<polygon fill="none" stroke="black" points="10,-101 10,-123 218,-123 218,-101 10,-101"/>
<text text-anchor="start" x="30" y="-109.2" font-family="Helvetica,sans-Serif" font-size="11.00">abbr_it</text>
<polygon fill="none" stroke="black" points="218,-101 218,-123 296,-123 296,-101 218,-101"/>
<text text-anchor="start" x="221" y="-109.2" font-family="Helvetica,sans-Serif" font-size="11.00">varchar[3]</text>
<polygon fill="none" stroke="black" points="10,-79 10,-101 218,-101 218,-79 10,-79"/>
<text text-anchor="start" x="30" y="-87.2" font-family="Helvetica,sans-Serif" font-size="11.00">abbr_ro</text>
<polygon fill="none" stroke="black" points="218,-79 218,-101 296,-101 296,-79 218,-79"/>
<text text-anchor="start" x="221" y="-87.2" font-family="Helvetica,sans-Serif" font-size="11.00">varchar[3]</text>
<polygon fill="none" stroke="black" points="10,-57 10,-79 218,-79 218,-57 10,-57"/>
<text text-anchor="start" x="30" y="-65.2" font-family="Helvetica,sans-Serif" font-size="11.00">active</text>
<polygon fill="none" stroke="black" points="218,-57 218,-79 296,-79 296,-57 218,-57"/>
<text text-anchor="start" x="221" y="-65.2" font-family="Helvetica,sans-Serif" font-size="11.00">bool[1]</text>
<polygon fill="#ffffff" stroke="transparent" points="10,-39 10,-57 296,-57 296,-39 10,-39"/>
<polygon fill="none" stroke="black" points="10,-39 10,-57 296,-57 296,-39 10,-39"/>
<polygon fill="#ffffff" stroke="transparent" points="11,-40 11,-56 110,-56 110,-40 11,-40"/>
<text text-anchor="start" x="13" y="-45.2" font-family="Helvetica,sans-Serif" font-size="11.00">&lt; 0</text>
<polygon fill="#ffffff" stroke="transparent" points="110,-40 110,-56 197,-56 197,-40 110,-40"/>
<text text-anchor="start" x="149.5" y="-45.2" font-family="Helvetica,sans-Serif" font-size="11.00"> &#160;</text>
<polygon fill="#ffffff" stroke="transparent" points="197,-40 197,-56 295,-56 295,-40 197,-40"/>
<text text-anchor="start" x="273" y="-45.2" font-family="Helvetica,sans-Serif" font-size="11.00">1 &gt;</text>
<polygon fill="black" stroke="black" points="110,-40 110,-56 110,-56 110,-40 110,-40"/>
<polygon fill="black" stroke="black" points="197,-40 197,-56 197,-56 197,-40 197,-40"/>
<polygon fill="none" stroke="black" stroke-width="2" points="9,-38 9,-366 297,-366 297,-38 9,-38"/>
</a>
</g>
</g>
<!-- tdh_od.structure&#45;&gt;structure_drainage_pump -->
<g id="edge1" class="edge">
<title>tdh_od.structure:w&#45;&gt;structure_drainage_pump:e</title>
<path fill="none" stroke="black" d="M331.49,-332C320.18,-332 312.99,-332 297,-332"/>
<polygon fill="black" stroke="black" points="338,-332 346,-335.6 342,-332 346,-332 346,-332 346,-332 342,-332 346,-328.4 338,-332 338,-332"/>
<ellipse fill="none" stroke="black" cx="334.8" cy="-332" rx="3.2" ry="3.2"/>
</g>
</g>
</svg>
