<?xml version="1.0" encoding="UTF-8" standalone="no"?>
<!DOCTYPE svg PUBLIC "-//W3C//DTD SVG 1.1//EN"
 "http://www.w3.org/Graphics/SVG/1.1/DTD/svg11.dtd">
<!-- Generated by graphviz version 2.43.0 (0)
 -->
<!-- Title: oneDegreeRelationshipsDiagram Pages: 1 -->
<svg width="547pt" height="465pt"
 viewBox="0.00 0.00 547.00 465.00" xmlns="http://www.w3.org/2000/svg" xmlns:xlink="http://www.w3.org/1999/xlink">
<g id="graph0" class="graph" transform="scale(1 1) rotate(0) translate(4 461)">
<title>oneDegreeRelationshipsDiagram</title>
<polygon fill="#ffffff" stroke="transparent" points="-4,4 -4,-461 543,-461 543,4 -4,4"/>
<text text-anchor="middle" x="79.5" y="-7.2" font-family="Helvetica,sans-Serif" font-size="11.00">Generated by SchemaSpy</text>
<!-- tdh_od.trench -->
<g id="node1" class="node">
<title>tdh_od.trench</title>
<g id="a_node1"><a xlink:href="../../../tdh_od/tables/trench.html" xlink:title="tdh_od.trench" target="_top">
<polygon fill="#ffffff" stroke="transparent" points="325,-263 325,-453 531,-453 531,-263 325,-263"/>
<polygon fill="#f5f5f5" stroke="transparent" points="325,-431 325,-453 531,-453 531,-431 325,-431"/>
<polygon fill="none" stroke="black" points="325,-431 325,-453 531,-453 531,-431 325,-431"/>
<text text-anchor="start" x="330" y="-440.2" font-family="Helvetica,sans-Serif" font-weight="bold" font-size="11.00">tdh_od.trench</text>
<text text-anchor="start" x="489" y="-439.2" font-family="Helvetica,sans-Serif" font-size="11.00">[table]</text>
<polygon fill="none" stroke="black" points="325,-409 325,-431 531,-431 531,-409 325,-409"/>
<image xlink:href="../../images/foreignKeys.png" width="11px" height="12px" preserveAspectRatio="xMinYMin meet" x="330" y="-426"/>
<text text-anchor="start" x="345" y="-417.2" font-family="Helvetica,sans-Serif" font-size="11.00">horizontal_positioning</text>
<polygon fill="none" stroke="black" points="325,-387 325,-409 531,-409 531,-387 325,-387"/>
<image xlink:href="../../images/foreignKeys.png" width="11px" height="12px" preserveAspectRatio="xMinYMin meet" x="330" y="-404"/>
<text text-anchor="start" x="345" y="-395.2" font-family="Helvetica,sans-Serif" font-size="11.00">status</text>
<polygon fill="none" stroke="black" points="325,-365 325,-387 531,-387 531,-365 325,-365"/>
<image xlink:href="../../images/foreignKeys.png" width="11px" height="12px" preserveAspectRatio="xMinYMin meet" x="330" y="-382"/>
<text text-anchor="start" x="345" y="-373.2" font-family="Helvetica,sans-Serif" font-size="11.00">trench_type</text>
<polygon fill="none" stroke="black" points="325,-343 325,-365 531,-365 531,-343 325,-343"/>
<image xlink:href="../../images/foreignKeys.png" width="11px" height="12px" preserveAspectRatio="xMinYMin meet" x="330" y="-360"/>
<text text-anchor="start" x="345" y="-351.2" font-family="Helvetica,sans-Serif" font-size="11.00">embedding</text>
<polygon fill="none" stroke="black" points="325,-321 325,-343 531,-343 531,-321 325,-321"/>
<image xlink:href="../../images/foreignKeys.png" width="11px" height="12px" preserveAspectRatio="xMinYMin meet" x="330" y="-338"/>
<text text-anchor="start" x="345" y="-329.2" font-family="Helvetica,sans-Serif" font-size="11.00">control_system</text>
<polygon fill="none" stroke="black" points="325,-299 325,-321 531,-321 531,-299 325,-299"/>
<image xlink:href="../../images/foreignKeys.png" width="11px" height="12px" preserveAspectRatio="xMinYMin meet" x="330" y="-316"/>
<text text-anchor="start" x="345" y="-307.2" font-family="Helvetica,sans-Serif" font-size="11.00">cable_conduits</text>
<polygon fill="none" stroke="black" points="325,-281 325,-299 531,-299 531,-281 325,-281"/>
<text text-anchor="start" x="328" y="-287.2" font-family="Helvetica,sans-Serif" font-size="11.00">...</text>
<polygon fill="#ffffff" stroke="transparent" points="325,-263 325,-281 531,-281 531,-263 325,-263"/>
<polygon fill="none" stroke="black" points="325,-263 325,-281 531,-281 531,-263 325,-263"/>
<polygon fill="#ffffff" stroke="transparent" points="326,-264 326,-280 393,-280 393,-264 326,-264"/>
<text text-anchor="start" x="328" y="-269.2" font-family="Helvetica,sans-Serif" font-size="11.00">&lt; 6</text>
<polygon fill="#ffffff" stroke="transparent" points="393,-264 393,-280 476,-280 476,-264 393,-264"/>
<text text-anchor="start" x="416" y="-269.2" font-family="Helvetica,sans-Serif" font-size="11.00">0 rows</text>
<polygon fill="#ffffff" stroke="transparent" points="476,-264 476,-280 530,-280 530,-264 476,-264"/>
<text text-anchor="start" x="520" y="-269.2" font-family="Helvetica,sans-Serif" font-size="11.00"> &#160;</text>
<polygon fill="black" stroke="black" points="393,-264 393,-280 393,-280 393,-264 393,-264"/>
<polygon fill="black" stroke="black" points="476,-264 476,-280 476,-280 476,-264 476,-264"/>
</a>
</g>
</g>
<!-- trench_control_system -->
<g id="node2" class="node">
<title>trench_control_system</title>
<g id="a_node2"><a xlink:href="../../tables/trench_control_system.html" xlink:title="trench_control_system" target="_top">
<polygon fill="#ffffff" stroke="transparent" points="8,-37 8,-367 276,-367 276,-37 8,-37"/>
<polygon fill="#f5f5f5" stroke="transparent" points="10,-343 10,-365 274,-365 274,-343 10,-343"/>
<polygon fill="none" stroke="black" points="10,-343 10,-365 274,-365 274,-343 10,-343"/>
<text text-anchor="start" x="15" y="-352.2" font-family="Helvetica,sans-Serif" font-weight="bold" font-size="11.00">trench_control_system</text>
<text text-anchor="start" x="232" y="-351.2" font-family="Helvetica,sans-Serif" font-size="11.00">[table]</text>
<polygon fill="none" stroke="black" points="10,-321 10,-343 196,-343 196,-321 10,-321"/>
<image xlink:href="../../images/primaryKeys.png" width="11px" height="12px" preserveAspectRatio="xMinYMin meet" x="15" y="-338"/>
<text text-anchor="start" x="30" y="-329.2" font-family="Helvetica,sans-Serif" font-size="11.00">code</text>
<polygon fill="none" stroke="black" points="196,-321 196,-343 274,-343 274,-321 196,-321"/>
<text text-anchor="start" x="199" y="-329.2" font-family="Helvetica,sans-Serif" font-size="11.00">int4[10]</text>
<polygon fill="none" stroke="black" points="10,-299 10,-321 196,-321 196,-299 10,-299"/>
<text text-anchor="start" x="30" y="-307.2" font-family="Helvetica,sans-Serif" font-size="11.00">vsacode</text>
<polygon fill="none" stroke="black" points="196,-299 196,-321 274,-321 274,-299 196,-299"/>
<text text-anchor="start" x="199" y="-307.2" font-family="Helvetica,sans-Serif" font-size="11.00">int4[10]</text>
<polygon fill="none" stroke="black" points="10,-277 10,-299 196,-299 196,-277 10,-277"/>
<text text-anchor="start" x="30" y="-285.2" font-family="Helvetica,sans-Serif" font-size="11.00">value_en</text>
<polygon fill="none" stroke="black" points="196,-277 196,-299 274,-299 274,-277 196,-277"/>
<text text-anchor="start" x="199" y="-285.2" font-family="Helvetica,sans-Serif" font-size="11.00">varchar[100]</text>
<polygon fill="none" stroke="black" points="10,-255 10,-277 196,-277 196,-255 10,-255"/>
<text text-anchor="start" x="30" y="-263.2" font-family="Helvetica,sans-Serif" font-size="11.00">value_de</text>
<polygon fill="none" stroke="black" points="196,-255 196,-277 274,-277 274,-255 196,-255"/>
<text text-anchor="start" x="199" y="-263.2" font-family="Helvetica,sans-Serif" font-size="11.00">varchar[100]</text>
<polygon fill="none" stroke="black" points="10,-233 10,-255 196,-255 196,-233 10,-233"/>
<text text-anchor="start" x="30" y="-241.2" font-family="Helvetica,sans-Serif" font-size="11.00">value_fr</text>
<polygon fill="none" stroke="black" points="196,-233 196,-255 274,-255 274,-233 196,-233"/>
<text text-anchor="start" x="199" y="-241.2" font-family="Helvetica,sans-Serif" font-size="11.00">varchar[100]</text>
<polygon fill="none" stroke="black" points="10,-211 10,-233 196,-233 196,-211 10,-211"/>
<text text-anchor="start" x="30" y="-219.2" font-family="Helvetica,sans-Serif" font-size="11.00">value_it</text>
<polygon fill="none" stroke="black" points="196,-211 196,-233 274,-233 274,-211 196,-211"/>
<text text-anchor="start" x="199" y="-219.2" font-family="Helvetica,sans-Serif" font-size="11.00">varchar[100]</text>
<polygon fill="none" stroke="black" points="10,-189 10,-211 196,-211 196,-189 10,-189"/>
<text text-anchor="start" x="30" y="-197.2" font-family="Helvetica,sans-Serif" font-size="11.00">value_ro</text>
<polygon fill="none" stroke="black" points="196,-189 196,-211 274,-211 274,-189 196,-189"/>
<text text-anchor="start" x="199" y="-197.2" font-family="Helvetica,sans-Serif" font-size="11.00">varchar[100]</text>
<polygon fill="none" stroke="black" points="10,-167 10,-189 196,-189 196,-167 10,-167"/>
<text text-anchor="start" x="30" y="-175.2" font-family="Helvetica,sans-Serif" font-size="11.00">abbr_en</text>
<polygon fill="none" stroke="black" points="196,-167 196,-189 274,-189 274,-167 196,-167"/>
<text text-anchor="start" x="199" y="-175.2" font-family="Helvetica,sans-Serif" font-size="11.00">varchar[3]</text>
<polygon fill="none" stroke="black" points="10,-145 10,-167 196,-167 196,-145 10,-145"/>
<text text-anchor="start" x="30" y="-153.2" font-family="Helvetica,sans-Serif" font-size="11.00">abbr_de</text>
<polygon fill="none" stroke="black" points="196,-145 196,-167 274,-167 274,-145 196,-145"/>
<text text-anchor="start" x="199" y="-153.2" font-family="Helvetica,sans-Serif" font-size="11.00">varchar[3]</text>
<polygon fill="none" stroke="black" points="10,-123 10,-145 196,-145 196,-123 10,-123"/>
<text text-anchor="start" x="30" y="-131.2" font-family="Helvetica,sans-Serif" font-size="11.00">abbr_fr</text>
<polygon fill="none" stroke="black" points="196,-123 196,-145 274,-145 274,-123 196,-123"/>
<text text-anchor="start" x="199" y="-131.2" font-family="Helvetica,sans-Serif" font-size="11.00">varchar[3]</text>
<polygon fill="none" stroke="black" points="10,-101 10,-123 196,-123 196,-101 10,-101"/>
<text text-anchor="start" x="30" y="-109.2" font-family="Helvetica,sans-Serif" font-size="11.00">abbr_it</text>
<polygon fill="none" stroke="black" points="196,-101 196,-123 274,-123 274,-101 196,-101"/>
<text text-anchor="start" x="199" y="-109.2" font-family="Helvetica,sans-Serif" font-size="11.00">varchar[3]</text>
<polygon fill="none" stroke="black" points="10,-79 10,-101 196,-101 196,-79 10,-79"/>
<text text-anchor="start" x="30" y="-87.2" font-family="Helvetica,sans-Serif" font-size="11.00">abbr_ro</text>
<polygon fill="none" stroke="black" points="196,-79 196,-101 274,-101 274,-79 196,-79"/>
<text text-anchor="start" x="199" y="-87.2" font-family="Helvetica,sans-Serif" font-size="11.00">varchar[3]</text>
<polygon fill="none" stroke="black" points="10,-57 10,-79 196,-79 196,-57 10,-57"/>
<text text-anchor="start" x="30" y="-65.2" font-family="Helvetica,sans-Serif" font-size="11.00">active</text>
<polygon fill="none" stroke="black" points="196,-57 196,-79 274,-79 274,-57 196,-57"/>
<text text-anchor="start" x="199" y="-65.2" font-family="Helvetica,sans-Serif" font-size="11.00">bool[1]</text>
<polygon fill="#ffffff" stroke="transparent" points="10,-39 10,-57 274,-57 274,-39 10,-39"/>
<polygon fill="none" stroke="black" points="10,-39 10,-57 274,-57 274,-39 10,-39"/>
<polygon fill="#ffffff" stroke="transparent" points="11,-40 11,-56 103,-56 103,-40 11,-40"/>
<text text-anchor="start" x="13" y="-45.2" font-family="Helvetica,sans-Serif" font-size="11.00">&lt; 0</text>
<polygon fill="#ffffff" stroke="transparent" points="103,-40 103,-56 182,-56 182,-40 103,-40"/>
<text text-anchor="start" x="138.5" y="-45.2" font-family="Helvetica,sans-Serif" font-size="11.00"> &#160;</text>
<polygon fill="#ffffff" stroke="transparent" points="182,-40 182,-56 273,-56 273,-40 182,-40"/>
<text text-anchor="start" x="251" y="-45.2" font-family="Helvetica,sans-Serif" font-size="11.00">1 &gt;</text>
<polygon fill="black" stroke="black" points="103,-40 103,-56 103,-56 103,-40 103,-40"/>
<polygon fill="black" stroke="black" points="182,-40 182,-56 182,-56 182,-40 182,-40"/>
<polygon fill="none" stroke="black" stroke-width="2" points="9,-38 9,-366 275,-366 275,-38 9,-38"/>
</a>
</g>
</g>
<!-- tdh_od.trench&#45;&gt;trench_control_system -->
<g id="edge1" class="edge">
<title>tdh_od.trench:w&#45;&gt;trench_control_system:e</title>
<path fill="none" stroke="black" d="M309.49,-332C298.18,-332 290.99,-332 275,-332"/>
<polygon fill="black" stroke="black" points="316,-332 324,-335.6 320,-332 324,-332 324,-332 324,-332 320,-332 324,-328.4 316,-332 316,-332"/>
<ellipse fill="none" stroke="black" cx="312.8" cy="-332" rx="3.2" ry="3.2"/>
</g>
</g>
</svg>
