<?xml version="1.0" encoding="UTF-8" standalone="no"?>
<!DOCTYPE svg PUBLIC "-//W3C//DTD SVG 1.1//EN"
 "http://www.w3.org/Graphics/SVG/1.1/DTD/svg11.dtd">
<!-- Generated by graphviz version 2.43.0 (0)
 -->
<!-- Title: oneDegreeRelationshipsDiagram Pages: 1 -->
<svg width="655pt" height="421pt"
 viewBox="0.00 0.00 655.00 421.00" xmlns="http://www.w3.org/2000/svg" xmlns:xlink="http://www.w3.org/1999/xlink">
<g id="graph0" class="graph" transform="scale(1 1) rotate(0) translate(4 417)">
<title>oneDegreeRelationshipsDiagram</title>
<polygon fill="#ffffff" stroke="transparent" points="-4,4 -4,-417 651,-417 651,4 -4,4"/>
<text text-anchor="middle" x="79.5" y="-7.2" font-family="Helvetica,sans-Serif" font-size="11.00">Generated by SchemaSpy</text>
<!-- tdh_od.trench_point -->
<g id="node1" class="node">
<title>tdh_od.trench_point</title>
<g id="a_node1"><a xlink:href="../../../tdh_od/tables/trench_point.html" xlink:title="tdh_od.trench_point" target="_top">
<polygon fill="#ffffff" stroke="transparent" points="437,-285 437,-409 639,-409 639,-285 437,-285"/>
<polygon fill="#f5f5f5" stroke="transparent" points="437,-387 437,-409 639,-409 639,-387 437,-387"/>
<polygon fill="none" stroke="black" points="437,-387 437,-409 639,-409 639,-387 437,-387"/>
<text text-anchor="start" x="442" y="-396.2" font-family="Helvetica,sans-Serif" font-weight="bold" font-size="11.00">tdh_od.trench_point</text>
<text text-anchor="start" x="597" y="-395.2" font-family="Helvetica,sans-Serif" font-size="11.00">[table]</text>
<polygon fill="none" stroke="black" points="437,-365 437,-387 639,-387 639,-365 437,-365"/>
<image xlink:href="../../images/foreignKeys.png" width="11px" height="12px" preserveAspectRatio="xMinYMin meet" x="442" y="-382"/>
<text text-anchor="start" x="457" y="-373.2" font-family="Helvetica,sans-Serif" font-size="11.00">horizontal_positioning</text>
<polygon fill="none" stroke="black" points="437,-343 437,-365 639,-365 639,-343 437,-343"/>
<image xlink:href="../../images/foreignKeys.png" width="11px" height="12px" preserveAspectRatio="xMinYMin meet" x="442" y="-360"/>
<text text-anchor="start" x="457" y="-351.2" font-family="Helvetica,sans-Serif" font-size="11.00">kind</text>
<polygon fill="none" stroke="black" points="437,-321 437,-343 639,-343 639,-321 437,-321"/>
<image xlink:href="../../images/foreignKeys.png" width="11px" height="12px" preserveAspectRatio="xMinYMin meet" x="442" y="-338"/>
<text text-anchor="start" x="457" y="-329.2" font-family="Helvetica,sans-Serif" font-size="11.00">elevation_determination</text>
<polygon fill="none" stroke="black" points="437,-303 437,-321 639,-321 639,-303 437,-303"/>
<text text-anchor="start" x="440" y="-309.2" font-family="Helvetica,sans-Serif" font-size="11.00">...</text>
<polygon fill="#ffffff" stroke="transparent" points="437,-285 437,-303 639,-303 639,-285 437,-285"/>
<polygon fill="none" stroke="black" points="437,-285 437,-303 639,-303 639,-285 437,-285"/>
<polygon fill="#ffffff" stroke="transparent" points="438,-286 438,-302 503,-302 503,-286 438,-286"/>
<text text-anchor="start" x="440" y="-291.2" font-family="Helvetica,sans-Serif" font-size="11.00">&lt; 3</text>
<polygon fill="#ffffff" stroke="transparent" points="503,-286 503,-302 585,-302 585,-286 503,-286"/>
<text text-anchor="start" x="525.5" y="-291.2" font-family="Helvetica,sans-Serif" font-size="11.00">0 rows</text>
<polygon fill="#ffffff" stroke="transparent" points="585,-286 585,-302 638,-302 638,-286 585,-286"/>
<text text-anchor="start" x="628" y="-291.2" font-family="Helvetica,sans-Serif" font-size="11.00"> &#160;</text>
<polygon fill="black" stroke="black" points="503,-286 503,-302 503,-302 503,-286 503,-286"/>
<polygon fill="black" stroke="black" points="585,-286 585,-302 585,-302 585,-286 585,-286"/>
</a>
</g>
</g>
<!-- trench_point_elevation_determination -->
<g id="node2" class="node">
<title>trench_point_elevation_determination</title>
<g id="a_node2"><a xlink:href="../../tables/trench_point_elevation_determination.html" xlink:title="trench_point_elevation_determination" target="_top">
<polygon fill="#ffffff" stroke="transparent" points="8,-37 8,-367 388,-367 388,-37 8,-37"/>
<polygon fill="#f5f5f5" stroke="transparent" points="10,-343 10,-365 386,-365 386,-343 10,-343"/>
<polygon fill="none" stroke="black" points="10,-343 10,-365 386,-365 386,-343 10,-343"/>
<text text-anchor="start" x="15" y="-352.2" font-family="Helvetica,sans-Serif" font-weight="bold" font-size="11.00">trench_point_elevation_determination</text>
<text text-anchor="start" x="344" y="-351.2" font-family="Helvetica,sans-Serif" font-size="11.00">[table]</text>
<polygon fill="none" stroke="black" points="10,-321 10,-343 308,-343 308,-321 10,-321"/>
<image xlink:href="../../images/primaryKeys.png" width="11px" height="12px" preserveAspectRatio="xMinYMin meet" x="15" y="-338"/>
<text text-anchor="start" x="30" y="-329.2" font-family="Helvetica,sans-Serif" font-size="11.00">code</text>
<polygon fill="none" stroke="black" points="308,-321 308,-343 386,-343 386,-321 308,-321"/>
<text text-anchor="start" x="311" y="-329.2" font-family="Helvetica,sans-Serif" font-size="11.00">int4[10]</text>
<polygon fill="none" stroke="black" points="10,-299 10,-321 308,-321 308,-299 10,-299"/>
<text text-anchor="start" x="30" y="-307.2" font-family="Helvetica,sans-Serif" font-size="11.00">vsacode</text>
<polygon fill="none" stroke="black" points="308,-299 308,-321 386,-321 386,-299 308,-299"/>
<text text-anchor="start" x="311" y="-307.2" font-family="Helvetica,sans-Serif" font-size="11.00">int4[10]</text>
<polygon fill="none" stroke="black" points="10,-277 10,-299 308,-299 308,-277 10,-277"/>
<text text-anchor="start" x="30" y="-285.2" font-family="Helvetica,sans-Serif" font-size="11.00">value_en</text>
<polygon fill="none" stroke="black" points="308,-277 308,-299 386,-299 386,-277 308,-277"/>
<text text-anchor="start" x="311" y="-285.2" font-family="Helvetica,sans-Serif" font-size="11.00">varchar[100]</text>
<polygon fill="none" stroke="black" points="10,-255 10,-277 308,-277 308,-255 10,-255"/>
<text text-anchor="start" x="30" y="-263.2" font-family="Helvetica,sans-Serif" font-size="11.00">value_de</text>
<polygon fill="none" stroke="black" points="308,-255 308,-277 386,-277 386,-255 308,-255"/>
<text text-anchor="start" x="311" y="-263.2" font-family="Helvetica,sans-Serif" font-size="11.00">varchar[100]</text>
<polygon fill="none" stroke="black" points="10,-233 10,-255 308,-255 308,-233 10,-233"/>
<text text-anchor="start" x="30" y="-241.2" font-family="Helvetica,sans-Serif" font-size="11.00">value_fr</text>
<polygon fill="none" stroke="black" points="308,-233 308,-255 386,-255 386,-233 308,-233"/>
<text text-anchor="start" x="311" y="-241.2" font-family="Helvetica,sans-Serif" font-size="11.00">varchar[100]</text>
<polygon fill="none" stroke="black" points="10,-211 10,-233 308,-233 308,-211 10,-211"/>
<text text-anchor="start" x="30" y="-219.2" font-family="Helvetica,sans-Serif" font-size="11.00">value_it</text>
<polygon fill="none" stroke="black" points="308,-211 308,-233 386,-233 386,-211 308,-211"/>
<text text-anchor="start" x="311" y="-219.2" font-family="Helvetica,sans-Serif" font-size="11.00">varchar[100]</text>
<polygon fill="none" stroke="black" points="10,-189 10,-211 308,-211 308,-189 10,-189"/>
<text text-anchor="start" x="30" y="-197.2" font-family="Helvetica,sans-Serif" font-size="11.00">value_ro</text>
<polygon fill="none" stroke="black" points="308,-189 308,-211 386,-211 386,-189 308,-189"/>
<text text-anchor="start" x="311" y="-197.2" font-family="Helvetica,sans-Serif" font-size="11.00">varchar[100]</text>
<polygon fill="none" stroke="black" points="10,-167 10,-189 308,-189 308,-167 10,-167"/>
<text text-anchor="start" x="30" y="-175.2" font-family="Helvetica,sans-Serif" font-size="11.00">abbr_en</text>
<polygon fill="none" stroke="black" points="308,-167 308,-189 386,-189 386,-167 308,-167"/>
<text text-anchor="start" x="311" y="-175.2" font-family="Helvetica,sans-Serif" font-size="11.00">varchar[3]</text>
<polygon fill="none" stroke="black" points="10,-145 10,-167 308,-167 308,-145 10,-145"/>
<text text-anchor="start" x="30" y="-153.2" font-family="Helvetica,sans-Serif" font-size="11.00">abbr_de</text>
<polygon fill="none" stroke="black" points="308,-145 308,-167 386,-167 386,-145 308,-145"/>
<text text-anchor="start" x="311" y="-153.2" font-family="Helvetica,sans-Serif" font-size="11.00">varchar[3]</text>
<polygon fill="none" stroke="black" points="10,-123 10,-145 308,-145 308,-123 10,-123"/>
<text text-anchor="start" x="30" y="-131.2" font-family="Helvetica,sans-Serif" font-size="11.00">abbr_fr</text>
<polygon fill="none" stroke="black" points="308,-123 308,-145 386,-145 386,-123 308,-123"/>
<text text-anchor="start" x="311" y="-131.2" font-family="Helvetica,sans-Serif" font-size="11.00">varchar[3]</text>
<polygon fill="none" stroke="black" points="10,-101 10,-123 308,-123 308,-101 10,-101"/>
<text text-anchor="start" x="30" y="-109.2" font-family="Helvetica,sans-Serif" font-size="11.00">abbr_it</text>
<polygon fill="none" stroke="black" points="308,-101 308,-123 386,-123 386,-101 308,-101"/>
<text text-anchor="start" x="311" y="-109.2" font-family="Helvetica,sans-Serif" font-size="11.00">varchar[3]</text>
<polygon fill="none" stroke="black" points="10,-79 10,-101 308,-101 308,-79 10,-79"/>
<text text-anchor="start" x="30" y="-87.2" font-family="Helvetica,sans-Serif" font-size="11.00">abbr_ro</text>
<polygon fill="none" stroke="black" points="308,-79 308,-101 386,-101 386,-79 308,-79"/>
<text text-anchor="start" x="311" y="-87.2" font-family="Helvetica,sans-Serif" font-size="11.00">varchar[3]</text>
<polygon fill="none" stroke="black" points="10,-57 10,-79 308,-79 308,-57 10,-57"/>
<text text-anchor="start" x="30" y="-65.2" font-family="Helvetica,sans-Serif" font-size="11.00">active</text>
<polygon fill="none" stroke="black" points="308,-57 308,-79 386,-79 386,-57 308,-57"/>
<text text-anchor="start" x="311" y="-65.2" font-family="Helvetica,sans-Serif" font-size="11.00">bool[1]</text>
<polygon fill="#ffffff" stroke="transparent" points="10,-39 10,-57 386,-57 386,-39 10,-39"/>
<polygon fill="none" stroke="black" points="10,-39 10,-57 386,-57 386,-39 10,-39"/>
<polygon fill="#ffffff" stroke="transparent" points="11,-40 11,-56 140,-56 140,-40 11,-40"/>
<text text-anchor="start" x="13" y="-45.2" font-family="Helvetica,sans-Serif" font-size="11.00">&lt; 0</text>
<polygon fill="#ffffff" stroke="transparent" points="140,-40 140,-56 257,-56 257,-40 140,-40"/>
<text text-anchor="start" x="194.5" y="-45.2" font-family="Helvetica,sans-Serif" font-size="11.00"> &#160;</text>
<polygon fill="#ffffff" stroke="transparent" points="257,-40 257,-56 385,-56 385,-40 257,-40"/>
<text text-anchor="start" x="363" y="-45.2" font-family="Helvetica,sans-Serif" font-size="11.00">1 &gt;</text>
<polygon fill="black" stroke="black" points="140,-40 140,-56 140,-56 140,-40 140,-40"/>
<polygon fill="black" stroke="black" points="257,-40 257,-56 257,-56 257,-40 257,-40"/>
<polygon fill="none" stroke="black" stroke-width="2" points="9,-38 9,-366 387,-366 387,-38 9,-38"/>
</a>
</g>
</g>
<!-- tdh_od.trench_point&#45;&gt;trench_point_elevation_determination -->
<g id="edge1" class="edge">
<title>tdh_od.trench_point:w&#45;&gt;trench_point_elevation_determination:e</title>
<path fill="none" stroke="black" d="M421.49,-332C410.18,-332 402.99,-332 387,-332"/>
<polygon fill="black" stroke="black" points="428,-332 436,-335.6 432,-332 436,-332 436,-332 436,-332 432,-332 436,-328.4 428,-332 428,-332"/>
<ellipse fill="none" stroke="black" cx="424.8" cy="-332" rx="3.2" ry="3.2"/>
</g>
</g>
</svg>
