<?xml version="1.0" encoding="UTF-8" standalone="no"?>
<!DOCTYPE svg PUBLIC "-//W3C//DTD SVG 1.1//EN"
 "http://www.w3.org/Graphics/SVG/1.1/DTD/svg11.dtd">
<!-- Generated by graphviz version 2.43.0 (0)
 -->
<!-- Title: oneDegreeRelationshipsDiagram Pages: 1 -->
<svg width="599pt" height="379pt"
 viewBox="0.00 0.00 599.00 379.00" xmlns="http://www.w3.org/2000/svg" xmlns:xlink="http://www.w3.org/1999/xlink">
<g id="graph0" class="graph" transform="scale(1 1) rotate(0) translate(4 375)">
<title>oneDegreeRelationshipsDiagram</title>
<polygon fill="#ffffff" stroke="transparent" points="-4,4 -4,-375 595,-375 595,4 -4,4"/>
<text text-anchor="middle" x="79.5" y="-7.2" font-family="Helvetica,sans-Serif" font-size="11.00">Generated by SchemaSpy</text>
<!-- tdh_od.trench -->
<g id="node1" class="node">
<title>tdh_od.trench</title>
<g id="a_node1"><a xlink:href="../../../tdh_od/tables/trench.html" xlink:title="tdh_od.trench" target="_top">
<polygon fill="#ffffff" stroke="transparent" points="377,-175 377,-365 583,-365 583,-175 377,-175"/>
<polygon fill="#f5f5f5" stroke="transparent" points="377,-343 377,-365 583,-365 583,-343 377,-343"/>
<polygon fill="none" stroke="black" points="377,-343 377,-365 583,-365 583,-343 377,-343"/>
<text text-anchor="start" x="382" y="-352.2" font-family="Helvetica,sans-Serif" font-weight="bold" font-size="11.00">tdh_od.trench</text>
<text text-anchor="start" x="541" y="-351.2" font-family="Helvetica,sans-Serif" font-size="11.00">[table]</text>
<polygon fill="none" stroke="black" points="377,-321 377,-343 583,-343 583,-321 377,-321"/>
<image xlink:href="../../images/foreignKeys.png" width="11px" height="12px" preserveAspectRatio="xMinYMin meet" x="382" y="-338"/>
<text text-anchor="start" x="397" y="-329.2" font-family="Helvetica,sans-Serif" font-size="11.00">horizontal_positioning</text>
<polygon fill="none" stroke="black" points="377,-299 377,-321 583,-321 583,-299 377,-299"/>
<image xlink:href="../../images/foreignKeys.png" width="11px" height="12px" preserveAspectRatio="xMinYMin meet" x="382" y="-316"/>
<text text-anchor="start" x="397" y="-307.2" font-family="Helvetica,sans-Serif" font-size="11.00">status</text>
<polygon fill="none" stroke="black" points="377,-277 377,-299 583,-299 583,-277 377,-277"/>
<image xlink:href="../../images/foreignKeys.png" width="11px" height="12px" preserveAspectRatio="xMinYMin meet" x="382" y="-294"/>
<text text-anchor="start" x="397" y="-285.2" font-family="Helvetica,sans-Serif" font-size="11.00">trench_type</text>
<polygon fill="none" stroke="black" points="377,-255 377,-277 583,-277 583,-255 377,-255"/>
<image xlink:href="../../images/foreignKeys.png" width="11px" height="12px" preserveAspectRatio="xMinYMin meet" x="382" y="-272"/>
<text text-anchor="start" x="397" y="-263.2" font-family="Helvetica,sans-Serif" font-size="11.00">embedding</text>
<polygon fill="none" stroke="black" points="377,-233 377,-255 583,-255 583,-233 377,-233"/>
<image xlink:href="../../images/foreignKeys.png" width="11px" height="12px" preserveAspectRatio="xMinYMin meet" x="382" y="-250"/>
<text text-anchor="start" x="397" y="-241.2" font-family="Helvetica,sans-Serif" font-size="11.00">control_system</text>
<polygon fill="none" stroke="black" points="377,-211 377,-233 583,-233 583,-211 377,-211"/>
<image xlink:href="../../images/foreignKeys.png" width="11px" height="12px" preserveAspectRatio="xMinYMin meet" x="382" y="-228"/>
<text text-anchor="start" x="397" y="-219.2" font-family="Helvetica,sans-Serif" font-size="11.00">cable_conduits</text>
<polygon fill="none" stroke="black" points="377,-193 377,-211 583,-211 583,-193 377,-193"/>
<text text-anchor="start" x="380" y="-199.2" font-family="Helvetica,sans-Serif" font-size="11.00">...</text>
<polygon fill="#ffffff" stroke="transparent" points="377,-175 377,-193 583,-193 583,-175 377,-175"/>
<polygon fill="none" stroke="black" points="377,-175 377,-193 583,-193 583,-175 377,-175"/>
<polygon fill="#ffffff" stroke="transparent" points="378,-176 378,-192 445,-192 445,-176 378,-176"/>
<text text-anchor="start" x="380" y="-181.2" font-family="Helvetica,sans-Serif" font-size="11.00">&lt; 6</text>
<polygon fill="#ffffff" stroke="transparent" points="445,-176 445,-192 528,-192 528,-176 445,-176"/>
<text text-anchor="start" x="468" y="-181.2" font-family="Helvetica,sans-Serif" font-size="11.00">0 rows</text>
<polygon fill="#ffffff" stroke="transparent" points="528,-176 528,-192 582,-192 582,-176 528,-176"/>
<text text-anchor="start" x="572" y="-181.2" font-family="Helvetica,sans-Serif" font-size="11.00"> &#160;</text>
<polygon fill="black" stroke="black" points="445,-176 445,-192 445,-192 445,-176 445,-176"/>
<polygon fill="black" stroke="black" points="528,-176 528,-192 528,-192 528,-176 528,-176"/>
</a>
</g>
</g>
<!-- trench_horizontal_positioning -->
<g id="node2" class="node">
<title>trench_horizontal_positioning</title>
<g id="a_node2"><a xlink:href="../../tables/trench_horizontal_positioning.html" xlink:title="trench_horizontal_positioning" target="_top">
<polygon fill="#ffffff" stroke="transparent" points="8,-37 8,-367 328,-367 328,-37 8,-37"/>
<polygon fill="#f5f5f5" stroke="transparent" points="10,-343 10,-365 326,-365 326,-343 10,-343"/>
<polygon fill="none" stroke="black" points="10,-343 10,-365 326,-365 326,-343 10,-343"/>
<text text-anchor="start" x="15" y="-352.2" font-family="Helvetica,sans-Serif" font-weight="bold" font-size="11.00">trench_horizontal_positioning</text>
<text text-anchor="start" x="284" y="-351.2" font-family="Helvetica,sans-Serif" font-size="11.00">[table]</text>
<polygon fill="none" stroke="black" points="10,-321 10,-343 248,-343 248,-321 10,-321"/>
<image xlink:href="../../images/primaryKeys.png" width="11px" height="12px" preserveAspectRatio="xMinYMin meet" x="15" y="-338"/>
<text text-anchor="start" x="30" y="-329.2" font-family="Helvetica,sans-Serif" font-size="11.00">code</text>
<polygon fill="none" stroke="black" points="248,-321 248,-343 326,-343 326,-321 248,-321"/>
<text text-anchor="start" x="251" y="-329.2" font-family="Helvetica,sans-Serif" font-size="11.00">int4[10]</text>
<polygon fill="none" stroke="black" points="10,-299 10,-321 248,-321 248,-299 10,-299"/>
<text text-anchor="start" x="30" y="-307.2" font-family="Helvetica,sans-Serif" font-size="11.00">vsacode</text>
<polygon fill="none" stroke="black" points="248,-299 248,-321 326,-321 326,-299 248,-299"/>
<text text-anchor="start" x="251" y="-307.2" font-family="Helvetica,sans-Serif" font-size="11.00">int4[10]</text>
<polygon fill="none" stroke="black" points="10,-277 10,-299 248,-299 248,-277 10,-277"/>
<text text-anchor="start" x="30" y="-285.2" font-family="Helvetica,sans-Serif" font-size="11.00">value_en</text>
<polygon fill="none" stroke="black" points="248,-277 248,-299 326,-299 326,-277 248,-277"/>
<text text-anchor="start" x="251" y="-285.2" font-family="Helvetica,sans-Serif" font-size="11.00">varchar[100]</text>
<polygon fill="none" stroke="black" points="10,-255 10,-277 248,-277 248,-255 10,-255"/>
<text text-anchor="start" x="30" y="-263.2" font-family="Helvetica,sans-Serif" font-size="11.00">value_de</text>
<polygon fill="none" stroke="black" points="248,-255 248,-277 326,-277 326,-255 248,-255"/>
<text text-anchor="start" x="251" y="-263.2" font-family="Helvetica,sans-Serif" font-size="11.00">varchar[100]</text>
<polygon fill="none" stroke="black" points="10,-233 10,-255 248,-255 248,-233 10,-233"/>
<text text-anchor="start" x="30" y="-241.2" font-family="Helvetica,sans-Serif" font-size="11.00">value_fr</text>
<polygon fill="none" stroke="black" points="248,-233 248,-255 326,-255 326,-233 248,-233"/>
<text text-anchor="start" x="251" y="-241.2" font-family="Helvetica,sans-Serif" font-size="11.00">varchar[100]</text>
<polygon fill="none" stroke="black" points="10,-211 10,-233 248,-233 248,-211 10,-211"/>
<text text-anchor="start" x="30" y="-219.2" font-family="Helvetica,sans-Serif" font-size="11.00">value_it</text>
<polygon fill="none" stroke="black" points="248,-211 248,-233 326,-233 326,-211 248,-211"/>
<text text-anchor="start" x="251" y="-219.2" font-family="Helvetica,sans-Serif" font-size="11.00">varchar[100]</text>
<polygon fill="none" stroke="black" points="10,-189 10,-211 248,-211 248,-189 10,-189"/>
<text text-anchor="start" x="30" y="-197.2" font-family="Helvetica,sans-Serif" font-size="11.00">value_ro</text>
<polygon fill="none" stroke="black" points="248,-189 248,-211 326,-211 326,-189 248,-189"/>
<text text-anchor="start" x="251" y="-197.2" font-family="Helvetica,sans-Serif" font-size="11.00">varchar[100]</text>
<polygon fill="none" stroke="black" points="10,-167 10,-189 248,-189 248,-167 10,-167"/>
<text text-anchor="start" x="30" y="-175.2" font-family="Helvetica,sans-Serif" font-size="11.00">abbr_en</text>
<polygon fill="none" stroke="black" points="248,-167 248,-189 326,-189 326,-167 248,-167"/>
<text text-anchor="start" x="251" y="-175.2" font-family="Helvetica,sans-Serif" font-size="11.00">varchar[3]</text>
<polygon fill="none" stroke="black" points="10,-145 10,-167 248,-167 248,-145 10,-145"/>
<text text-anchor="start" x="30" y="-153.2" font-family="Helvetica,sans-Serif" font-size="11.00">abbr_de</text>
<polygon fill="none" stroke="black" points="248,-145 248,-167 326,-167 326,-145 248,-145"/>
<text text-anchor="start" x="251" y="-153.2" font-family="Helvetica,sans-Serif" font-size="11.00">varchar[3]</text>
<polygon fill="none" stroke="black" points="10,-123 10,-145 248,-145 248,-123 10,-123"/>
<text text-anchor="start" x="30" y="-131.2" font-family="Helvetica,sans-Serif" font-size="11.00">abbr_fr</text>
<polygon fill="none" stroke="black" points="248,-123 248,-145 326,-145 326,-123 248,-123"/>
<text text-anchor="start" x="251" y="-131.2" font-family="Helvetica,sans-Serif" font-size="11.00">varchar[3]</text>
<polygon fill="none" stroke="black" points="10,-101 10,-123 248,-123 248,-101 10,-101"/>
<text text-anchor="start" x="30" y="-109.2" font-family="Helvetica,sans-Serif" font-size="11.00">abbr_it</text>
<polygon fill="none" stroke="black" points="248,-101 248,-123 326,-123 326,-101 248,-101"/>
<text text-anchor="start" x="251" y="-109.2" font-family="Helvetica,sans-Serif" font-size="11.00">varchar[3]</text>
<polygon fill="none" stroke="black" points="10,-79 10,-101 248,-101 248,-79 10,-79"/>
<text text-anchor="start" x="30" y="-87.2" font-family="Helvetica,sans-Serif" font-size="11.00">abbr_ro</text>
<polygon fill="none" stroke="black" points="248,-79 248,-101 326,-101 326,-79 248,-79"/>
<text text-anchor="start" x="251" y="-87.2" font-family="Helvetica,sans-Serif" font-size="11.00">varchar[3]</text>
<polygon fill="none" stroke="black" points="10,-57 10,-79 248,-79 248,-57 10,-57"/>
<text text-anchor="start" x="30" y="-65.2" font-family="Helvetica,sans-Serif" font-size="11.00">active</text>
<polygon fill="none" stroke="black" points="248,-57 248,-79 326,-79 326,-57 248,-57"/>
<text text-anchor="start" x="251" y="-65.2" font-family="Helvetica,sans-Serif" font-size="11.00">bool[1]</text>
<polygon fill="#ffffff" stroke="transparent" points="10,-39 10,-57 326,-57 326,-39 10,-39"/>
<polygon fill="none" stroke="black" points="10,-39 10,-57 326,-57 326,-39 10,-39"/>
<polygon fill="#ffffff" stroke="transparent" points="11,-40 11,-56 120,-56 120,-40 11,-40"/>
<text text-anchor="start" x="13" y="-45.2" font-family="Helvetica,sans-Serif" font-size="11.00">&lt; 0</text>
<polygon fill="#ffffff" stroke="transparent" points="120,-40 120,-56 217,-56 217,-40 120,-40"/>
<text text-anchor="start" x="164.5" y="-45.2" font-family="Helvetica,sans-Serif" font-size="11.00"> &#160;</text>
<polygon fill="#ffffff" stroke="transparent" points="217,-40 217,-56 325,-56 325,-40 217,-40"/>
<text text-anchor="start" x="303" y="-45.2" font-family="Helvetica,sans-Serif" font-size="11.00">1 &gt;</text>
<polygon fill="black" stroke="black" points="120,-40 120,-56 120,-56 120,-40 120,-40"/>
<polygon fill="black" stroke="black" points="217,-40 217,-56 217,-56 217,-40 217,-40"/>
<polygon fill="none" stroke="black" stroke-width="2" points="9,-38 9,-366 327,-366 327,-38 9,-38"/>
</a>
</g>
</g>
<!-- tdh_od.trench&#45;&gt;trench_horizontal_positioning -->
<g id="edge1" class="edge">
<title>tdh_od.trench:w&#45;&gt;trench_horizontal_positioning:e</title>
<path fill="none" stroke="black" d="M361.49,-332C350.18,-332 342.99,-332 327,-332"/>
<polygon fill="black" stroke="black" points="368,-332 376,-335.6 372,-332 376,-332 376,-332 376,-332 372,-332 376,-328.4 368,-332 368,-332"/>
<ellipse fill="none" stroke="black" cx="364.8" cy="-332" rx="3.2" ry="3.2"/>
</g>
</g>
</svg>
