<?xml version="1.0" encoding="UTF-8" standalone="no"?>
<!DOCTYPE svg PUBLIC "-//W3C//DTD SVG 1.1//EN"
 "http://www.w3.org/Graphics/SVG/1.1/DTD/svg11.dtd">
<!-- Generated by graphviz version 2.47.1 (20210515.0534)
 -->
<!-- Title: oneDegreeRelationshipsDiagram Pages: 1 -->
<svg width="520pt" height="379pt"
 viewBox="0.00 0.00 520.00 379.00" xmlns="http://www.w3.org/2000/svg" xmlns:xlink="http://www.w3.org/1999/xlink">
<g id="graph0" class="graph" transform="scale(1 1) rotate(0) translate(4 375)">
<title>oneDegreeRelationshipsDiagram</title>
<polygon fill="#ffffff" stroke="transparent" points="-4,4 -4,-375 516,-375 516,4 -4,4"/>
<text text-anchor="middle" x="73.5" y="-7.2" font-family="Helvetica,sans-Serif" font-size="11.00">Generated by SchemaSpy</text>
<!-- tdh_od.trench -->
<g id="node1" class="node">
<title>tdh_od.trench</title>
<g id="a_node1"><a xlink:href="../../../tdh_od/tables/trench.html" xlink:title="tdh_od.trench" target="_top">
<polygon fill="#ffffff" stroke="transparent" points="330,-175 330,-365 504,-365 504,-175 330,-175"/>
<polygon fill="#f5f5f5" stroke="transparent" points="330,-343 330,-365 504,-365 504,-343 330,-343"/>
<polygon fill="none" stroke="black" points="330,-343 330,-365 504,-365 504,-343 330,-343"/>
<text text-anchor="start" x="335" y="-352.2" font-family="Helvetica,sans-Serif" font-weight="bold" font-size="11.00">tdh_od.trench</text>
<text text-anchor="start" x="465" y="-351.2" font-family="Helvetica,sans-Serif" font-size="11.00">[table]</text>
<polygon fill="none" stroke="black" points="330,-321 330,-343 504,-343 504,-321 330,-321"/>
<image xlink:href="../../images/foreignKeys.png" width="11px" height="12px" preserveAspectRatio="xMinYMin meet" x="335" y="-338"/>
<text text-anchor="start" x="350" y="-329.2" font-family="Helvetica,sans-Serif" font-size="11.00">horizontal_positioning</text>
<polygon fill="none" stroke="black" points="330,-299 330,-321 504,-321 504,-299 330,-299"/>
<image xlink:href="../../images/foreignKeys.png" width="11px" height="12px" preserveAspectRatio="xMinYMin meet" x="335" y="-316"/>
<text text-anchor="start" x="350" y="-307.2" font-family="Helvetica,sans-Serif" font-size="11.00">status</text>
<polygon fill="none" stroke="black" points="330,-277 330,-299 504,-299 504,-277 330,-277"/>
<image xlink:href="../../images/foreignKeys.png" width="11px" height="12px" preserveAspectRatio="xMinYMin meet" x="335" y="-294"/>
<text text-anchor="start" x="350" y="-285.2" font-family="Helvetica,sans-Serif" font-size="11.00">trench_type</text>
<polygon fill="none" stroke="black" points="330,-255 330,-277 504,-277 504,-255 330,-255"/>
<image xlink:href="../../images/foreignKeys.png" width="11px" height="12px" preserveAspectRatio="xMinYMin meet" x="335" y="-272"/>
<text text-anchor="start" x="350" y="-263.2" font-family="Helvetica,sans-Serif" font-size="11.00">embedding</text>
<polygon fill="none" stroke="black" points="330,-233 330,-255 504,-255 504,-233 330,-233"/>
<image xlink:href="../../images/foreignKeys.png" width="11px" height="12px" preserveAspectRatio="xMinYMin meet" x="335" y="-250"/>
<text text-anchor="start" x="350" y="-241.2" font-family="Helvetica,sans-Serif" font-size="11.00">control_system</text>
<polygon fill="none" stroke="black" points="330,-211 330,-233 504,-233 504,-211 330,-211"/>
<image xlink:href="../../images/foreignKeys.png" width="11px" height="12px" preserveAspectRatio="xMinYMin meet" x="335" y="-228"/>
<text text-anchor="start" x="350" y="-219.2" font-family="Helvetica,sans-Serif" font-size="11.00">cable_conduits</text>
<polygon fill="none" stroke="black" points="330,-193 330,-211 504,-211 504,-193 330,-193"/>
<text text-anchor="start" x="333" y="-199.2" font-family="Helvetica,sans-Serif" font-size="11.00">...</text>
<polygon fill="#ffffff" stroke="transparent" points="330,-175 330,-193 401,-193 401,-175 330,-175"/>
<polygon fill="none" stroke="black" points="330,-175 330,-193 401,-193 401,-175 330,-175"/>
<text text-anchor="start" x="333" y="-181.2" font-family="Helvetica,sans-Serif" font-size="11.00">&lt; 6</text>
<polygon fill="#ffffff" stroke="transparent" points="401,-175 401,-193 466,-193 466,-175 401,-175"/>
<polygon fill="none" stroke="black" points="401,-175 401,-193 466,-193 466,-175 401,-175"/>
<text text-anchor="start" x="429" y="-181.2" font-family="Helvetica,sans-Serif" font-size="11.00">0 rows</text>
<polygon fill="#ffffff" stroke="transparent" points="466,-175 466,-193 504,-193 504,-175 466,-175"/>
<polygon fill="none" stroke="black" points="466,-175 466,-193 504,-193 504,-175 466,-175"/>
<text text-anchor="start" x="494" y="-181.2" font-family="Helvetica,sans-Serif" font-size="11.00"> &#160;</text>
</a>
</g>
</g>
<!-- trench_horizontal_positioning -->
<g id="node2" class="node">
<title>trench_horizontal_positioning</title>
<g id="a_node2"><a xlink:href="../../tables/trench_horizontal_positioning.html" xlink:title="trench_horizontal_positioning" target="_top">
<polygon fill="#ffffff" stroke="transparent" points="8,-37 8,-367 281,-367 281,-37 8,-37"/>
<polygon fill="#f5f5f5" stroke="transparent" points="10.5,-343 10.5,-365 279.5,-365 279.5,-343 10.5,-343"/>
<polygon fill="none" stroke="black" points="10.5,-343 10.5,-365 279.5,-365 279.5,-343 10.5,-343"/>
<text text-anchor="start" x="15.5" y="-352.2" font-family="Helvetica,sans-Serif" font-weight="bold" font-size="11.00">trench_horizontal_positioning</text>
<text text-anchor="start" x="240.5" y="-351.2" font-family="Helvetica,sans-Serif" font-size="11.00">[table]</text>
<polygon fill="none" stroke="black" points="10.5,-321 10.5,-343 209.5,-343 209.5,-321 10.5,-321"/>
<image xlink:href="../../images/primaryKeys.png" width="11px" height="12px" preserveAspectRatio="xMinYMin meet" x="15.5" y="-338"/>
<text text-anchor="start" x="30.5" y="-329.2" font-family="Helvetica,sans-Serif" font-size="11.00">code</text>
<polygon fill="none" stroke="black" points="209.5,-321 209.5,-343 279.5,-343 279.5,-321 209.5,-321"/>
<text text-anchor="start" x="212.5" y="-329.2" font-family="Helvetica,sans-Serif" font-size="11.00">int4[10]</text>
<polygon fill="none" stroke="black" points="10.5,-299 10.5,-321 209.5,-321 209.5,-299 10.5,-299"/>
<text text-anchor="start" x="30.5" y="-307.2" font-family="Helvetica,sans-Serif" font-size="11.00">vsacode</text>
<polygon fill="none" stroke="black" points="209.5,-299 209.5,-321 279.5,-321 279.5,-299 209.5,-299"/>
<text text-anchor="start" x="212.5" y="-307.2" font-family="Helvetica,sans-Serif" font-size="11.00">int4[10]</text>
<polygon fill="none" stroke="black" points="10.5,-277 10.5,-299 209.5,-299 209.5,-277 10.5,-277"/>
<text text-anchor="start" x="30.5" y="-285.2" font-family="Helvetica,sans-Serif" font-size="11.00">value_en</text>
<polygon fill="none" stroke="black" points="209.5,-277 209.5,-299 279.5,-299 279.5,-277 209.5,-277"/>
<text text-anchor="start" x="212.5" y="-285.2" font-family="Helvetica,sans-Serif" font-size="11.00">varchar[100]</text>
<polygon fill="none" stroke="black" points="10.5,-255 10.5,-277 209.5,-277 209.5,-255 10.5,-255"/>
<text text-anchor="start" x="30.5" y="-263.2" font-family="Helvetica,sans-Serif" font-size="11.00">value_de</text>
<polygon fill="none" stroke="black" points="209.5,-255 209.5,-277 279.5,-277 279.5,-255 209.5,-255"/>
<text text-anchor="start" x="212.5" y="-263.2" font-family="Helvetica,sans-Serif" font-size="11.00">varchar[100]</text>
<polygon fill="none" stroke="black" points="10.5,-233 10.5,-255 209.5,-255 209.5,-233 10.5,-233"/>
<text text-anchor="start" x="30.5" y="-241.2" font-family="Helvetica,sans-Serif" font-size="11.00">value_fr</text>
<polygon fill="none" stroke="black" points="209.5,-233 209.5,-255 279.5,-255 279.5,-233 209.5,-233"/>
<text text-anchor="start" x="212.5" y="-241.2" font-family="Helvetica,sans-Serif" font-size="11.00">varchar[100]</text>
<polygon fill="none" stroke="black" points="10.5,-211 10.5,-233 209.5,-233 209.5,-211 10.5,-211"/>
<text text-anchor="start" x="30.5" y="-219.2" font-family="Helvetica,sans-Serif" font-size="11.00">value_it</text>
<polygon fill="none" stroke="black" points="209.5,-211 209.5,-233 279.5,-233 279.5,-211 209.5,-211"/>
<text text-anchor="start" x="212.5" y="-219.2" font-family="Helvetica,sans-Serif" font-size="11.00">varchar[100]</text>
<polygon fill="none" stroke="black" points="10.5,-189 10.5,-211 209.5,-211 209.5,-189 10.5,-189"/>
<text text-anchor="start" x="30.5" y="-197.2" font-family="Helvetica,sans-Serif" font-size="11.00">value_ro</text>
<polygon fill="none" stroke="black" points="209.5,-189 209.5,-211 279.5,-211 279.5,-189 209.5,-189"/>
<text text-anchor="start" x="212.5" y="-197.2" font-family="Helvetica,sans-Serif" font-size="11.00">varchar[100]</text>
<polygon fill="none" stroke="black" points="10.5,-167 10.5,-189 209.5,-189 209.5,-167 10.5,-167"/>
<text text-anchor="start" x="30.5" y="-175.2" font-family="Helvetica,sans-Serif" font-size="11.00">abbr_en</text>
<polygon fill="none" stroke="black" points="209.5,-167 209.5,-189 279.5,-189 279.5,-167 209.5,-167"/>
<text text-anchor="start" x="212.5" y="-175.2" font-family="Helvetica,sans-Serif" font-size="11.00">varchar[3]</text>
<polygon fill="none" stroke="black" points="10.5,-145 10.5,-167 209.5,-167 209.5,-145 10.5,-145"/>
<text text-anchor="start" x="30.5" y="-153.2" font-family="Helvetica,sans-Serif" font-size="11.00">abbr_de</text>
<polygon fill="none" stroke="black" points="209.5,-145 209.5,-167 279.5,-167 279.5,-145 209.5,-145"/>
<text text-anchor="start" x="212.5" y="-153.2" font-family="Helvetica,sans-Serif" font-size="11.00">varchar[3]</text>
<polygon fill="none" stroke="black" points="10.5,-123 10.5,-145 209.5,-145 209.5,-123 10.5,-123"/>
<text text-anchor="start" x="30.5" y="-131.2" font-family="Helvetica,sans-Serif" font-size="11.00">abbr_fr</text>
<polygon fill="none" stroke="black" points="209.5,-123 209.5,-145 279.5,-145 279.5,-123 209.5,-123"/>
<text text-anchor="start" x="212.5" y="-131.2" font-family="Helvetica,sans-Serif" font-size="11.00">varchar[3]</text>
<polygon fill="none" stroke="black" points="10.5,-101 10.5,-123 209.5,-123 209.5,-101 10.5,-101"/>
<text text-anchor="start" x="30.5" y="-109.2" font-family="Helvetica,sans-Serif" font-size="11.00">abbr_it</text>
<polygon fill="none" stroke="black" points="209.5,-101 209.5,-123 279.5,-123 279.5,-101 209.5,-101"/>
<text text-anchor="start" x="212.5" y="-109.2" font-family="Helvetica,sans-Serif" font-size="11.00">varchar[3]</text>
<polygon fill="none" stroke="black" points="10.5,-79 10.5,-101 209.5,-101 209.5,-79 10.5,-79"/>
<text text-anchor="start" x="30.5" y="-87.2" font-family="Helvetica,sans-Serif" font-size="11.00">abbr_ro</text>
<polygon fill="none" stroke="black" points="209.5,-79 209.5,-101 279.5,-101 279.5,-79 209.5,-79"/>
<text text-anchor="start" x="212.5" y="-87.2" font-family="Helvetica,sans-Serif" font-size="11.00">varchar[3]</text>
<polygon fill="none" stroke="black" points="10.5,-57 10.5,-79 209.5,-79 209.5,-57 10.5,-57"/>
<text text-anchor="start" x="30.5" y="-65.2" font-family="Helvetica,sans-Serif" font-size="11.00">active</text>
<polygon fill="none" stroke="black" points="209.5,-57 209.5,-79 279.5,-79 279.5,-57 209.5,-57"/>
<text text-anchor="start" x="212.5" y="-65.2" font-family="Helvetica,sans-Serif" font-size="11.00">bool[1]</text>
<polygon fill="#ffffff" stroke="transparent" points="10.5,-39 10.5,-57 114.5,-57 114.5,-39 10.5,-39"/>
<polygon fill="none" stroke="black" points="10.5,-39 10.5,-57 114.5,-57 114.5,-39 10.5,-39"/>
<text text-anchor="start" x="13.5" y="-45.2" font-family="Helvetica,sans-Serif" font-size="11.00">&lt; 0</text>
<polygon fill="#ffffff" stroke="transparent" points="114.5,-39 114.5,-57 209.5,-57 209.5,-39 114.5,-39"/>
<polygon fill="none" stroke="black" points="114.5,-39 114.5,-57 209.5,-57 209.5,-39 114.5,-39"/>
<text text-anchor="start" x="199.5" y="-45.2" font-family="Helvetica,sans-Serif" font-size="11.00"> &#160;</text>
<polygon fill="#ffffff" stroke="transparent" points="209.5,-39 209.5,-57 279.5,-57 279.5,-39 209.5,-39"/>
<polygon fill="none" stroke="black" points="209.5,-39 209.5,-57 279.5,-57 279.5,-39 209.5,-39"/>
<text text-anchor="start" x="260.5" y="-45.2" font-family="Helvetica,sans-Serif" font-size="11.00">1 &gt;</text>
<polygon fill="none" stroke="black" stroke-width="2" points="9,-38 9,-366 280,-366 280,-38 9,-38"/>
</a>
</g>
</g>
<!-- tdh_od.trench&#45;&gt;trench_horizontal_positioning -->
<g id="edge1" class="edge">
<title>tdh_od.trench:w&#45;&gt;trench_horizontal_positioning:e</title>
<path fill="none" stroke="black" d="M314.28,-332C303.29,-332 296.16,-332 280.5,-332"/>
<polygon fill="black" stroke="black" points="321,-332 329,-335.6 325,-332 329,-332 329,-332 329,-332 325,-332 329,-328.4 321,-332 321,-332"/>
<ellipse fill="none" stroke="black" cx="317.8" cy="-332" rx="3.2" ry="3.2"/>
</g>
</g>
</svg>
