<?xml version="1.0" encoding="UTF-8" standalone="no"?>
<!DOCTYPE svg PUBLIC "-//W3C//DTD SVG 1.1//EN"
 "http://www.w3.org/Graphics/SVG/1.1/DTD/svg11.dtd">
<!-- Generated by graphviz version 2.47.1 (20210515.0534)
 -->
<!-- Title: oneDegreeRelationshipsDiagram Pages: 1 -->
<svg width="445pt" height="399pt"
 viewBox="0.00 0.00 445.00 399.00" xmlns="http://www.w3.org/2000/svg" xmlns:xlink="http://www.w3.org/1999/xlink">
<g id="graph0" class="graph" transform="scale(1 1) rotate(0) translate(4 395)">
<title>oneDegreeRelationshipsDiagram</title>
<polygon fill="#ffffff" stroke="transparent" points="-4,4 -4,-395 441,-395 441,4 -4,4"/>
<text text-anchor="middle" x="73.5" y="-7.2" font-family="Helvetica,sans-Serif" font-size="11.00">Generated by SchemaSpy</text>
<!-- tdh_od.trench_point -->
<g id="node1" class="node">
<title>tdh_od.trench_point</title>
<g id="a_node1"><a xlink:href="../../../tdh_od/tables/trench_point.html" xlink:title="tdh_od.trench_point" target="_top">
<polygon fill="#ffffff" stroke="transparent" points="259,-263 259,-387 429,-387 429,-263 259,-263"/>
<polygon fill="#f5f5f5" stroke="transparent" points="259,-365 259,-387 429,-387 429,-365 259,-365"/>
<polygon fill="none" stroke="black" points="259,-365 259,-387 429,-387 429,-365 259,-365"/>
<text text-anchor="start" x="264" y="-374.2" font-family="Helvetica,sans-Serif" font-weight="bold" font-size="11.00">tdh_od.trench_point</text>
<text text-anchor="start" x="390" y="-373.2" font-family="Helvetica,sans-Serif" font-size="11.00">[table]</text>
<polygon fill="none" stroke="black" points="259,-343 259,-365 429,-365 429,-343 259,-343"/>
<image xlink:href="../../images/foreignKeys.png" width="11px" height="12px" preserveAspectRatio="xMinYMin meet" x="264" y="-360"/>
<text text-anchor="start" x="279" y="-351.2" font-family="Helvetica,sans-Serif" font-size="11.00">horizontal_positioning</text>
<polygon fill="none" stroke="black" points="259,-321 259,-343 429,-343 429,-321 259,-321"/>
<image xlink:href="../../images/foreignKeys.png" width="11px" height="12px" preserveAspectRatio="xMinYMin meet" x="264" y="-338"/>
<text text-anchor="start" x="279" y="-329.2" font-family="Helvetica,sans-Serif" font-size="11.00">kind</text>
<polygon fill="none" stroke="black" points="259,-299 259,-321 429,-321 429,-299 259,-299"/>
<image xlink:href="../../images/foreignKeys.png" width="11px" height="12px" preserveAspectRatio="xMinYMin meet" x="264" y="-316"/>
<text text-anchor="start" x="279" y="-307.2" font-family="Helvetica,sans-Serif" font-size="11.00">elevation_determination</text>
<polygon fill="none" stroke="black" points="259,-281 259,-299 429,-299 429,-281 259,-281"/>
<text text-anchor="start" x="262" y="-287.2" font-family="Helvetica,sans-Serif" font-size="11.00">...</text>
<polygon fill="#ffffff" stroke="transparent" points="259,-263 259,-281 328,-281 328,-263 259,-263"/>
<polygon fill="none" stroke="black" points="259,-263 259,-281 328,-281 328,-263 259,-263"/>
<text text-anchor="start" x="262" y="-269.2" font-family="Helvetica,sans-Serif" font-size="11.00">&lt; 3</text>
<polygon fill="#ffffff" stroke="transparent" points="328,-263 328,-281 392,-281 392,-263 328,-263"/>
<polygon fill="none" stroke="black" points="328,-263 328,-281 392,-281 392,-263 328,-263"/>
<text text-anchor="start" x="355" y="-269.2" font-family="Helvetica,sans-Serif" font-size="11.00">0 rows</text>
<polygon fill="#ffffff" stroke="transparent" points="392,-263 392,-281 429,-281 429,-263 392,-263"/>
<polygon fill="none" stroke="black" points="392,-263 392,-281 429,-281 429,-263 392,-263"/>
<text text-anchor="start" x="419" y="-269.2" font-family="Helvetica,sans-Serif" font-size="11.00"> &#160;</text>
</a>
</g>
</g>
<!-- trench_point_kind -->
<g id="node2" class="node">
<title>trench_point_kind</title>
<g id="a_node2"><a xlink:href="../../tables/trench_point_kind.html" xlink:title="trench_point_kind" target="_top">
<polygon fill="#ffffff" stroke="transparent" points="8,-37 8,-367 210,-367 210,-37 8,-37"/>
<polygon fill="#f5f5f5" stroke="transparent" points="10,-343 10,-365 208,-365 208,-343 10,-343"/>
<polygon fill="none" stroke="black" points="10,-343 10,-365 208,-365 208,-343 10,-343"/>
<text text-anchor="start" x="15" y="-352.2" font-family="Helvetica,sans-Serif" font-weight="bold" font-size="11.00">trench_point_kind</text>
<text text-anchor="start" x="169" y="-351.2" font-family="Helvetica,sans-Serif" font-size="11.00">[table]</text>
<polygon fill="none" stroke="black" points="10,-321 10,-343 138,-343 138,-321 10,-321"/>
<image xlink:href="../../images/primaryKeys.png" width="11px" height="12px" preserveAspectRatio="xMinYMin meet" x="15" y="-338"/>
<text text-anchor="start" x="30" y="-329.2" font-family="Helvetica,sans-Serif" font-size="11.00">code</text>
<polygon fill="none" stroke="black" points="138,-321 138,-343 208,-343 208,-321 138,-321"/>
<text text-anchor="start" x="141" y="-329.2" font-family="Helvetica,sans-Serif" font-size="11.00">int4[10]</text>
<polygon fill="none" stroke="black" points="10,-299 10,-321 138,-321 138,-299 10,-299"/>
<text text-anchor="start" x="30" y="-307.2" font-family="Helvetica,sans-Serif" font-size="11.00">vsacode</text>
<polygon fill="none" stroke="black" points="138,-299 138,-321 208,-321 208,-299 138,-299"/>
<text text-anchor="start" x="141" y="-307.2" font-family="Helvetica,sans-Serif" font-size="11.00">int4[10]</text>
<polygon fill="none" stroke="black" points="10,-277 10,-299 138,-299 138,-277 10,-277"/>
<text text-anchor="start" x="30" y="-285.2" font-family="Helvetica,sans-Serif" font-size="11.00">value_en</text>
<polygon fill="none" stroke="black" points="138,-277 138,-299 208,-299 208,-277 138,-277"/>
<text text-anchor="start" x="141" y="-285.2" font-family="Helvetica,sans-Serif" font-size="11.00">varchar[100]</text>
<polygon fill="none" stroke="black" points="10,-255 10,-277 138,-277 138,-255 10,-255"/>
<text text-anchor="start" x="30" y="-263.2" font-family="Helvetica,sans-Serif" font-size="11.00">value_de</text>
<polygon fill="none" stroke="black" points="138,-255 138,-277 208,-277 208,-255 138,-255"/>
<text text-anchor="start" x="141" y="-263.2" font-family="Helvetica,sans-Serif" font-size="11.00">varchar[100]</text>
<polygon fill="none" stroke="black" points="10,-233 10,-255 138,-255 138,-233 10,-233"/>
<text text-anchor="start" x="30" y="-241.2" font-family="Helvetica,sans-Serif" font-size="11.00">value_fr</text>
<polygon fill="none" stroke="black" points="138,-233 138,-255 208,-255 208,-233 138,-233"/>
<text text-anchor="start" x="141" y="-241.2" font-family="Helvetica,sans-Serif" font-size="11.00">varchar[100]</text>
<polygon fill="none" stroke="black" points="10,-211 10,-233 138,-233 138,-211 10,-211"/>
<text text-anchor="start" x="30" y="-219.2" font-family="Helvetica,sans-Serif" font-size="11.00">value_it</text>
<polygon fill="none" stroke="black" points="138,-211 138,-233 208,-233 208,-211 138,-211"/>
<text text-anchor="start" x="141" y="-219.2" font-family="Helvetica,sans-Serif" font-size="11.00">varchar[100]</text>
<polygon fill="none" stroke="black" points="10,-189 10,-211 138,-211 138,-189 10,-189"/>
<text text-anchor="start" x="30" y="-197.2" font-family="Helvetica,sans-Serif" font-size="11.00">value_ro</text>
<polygon fill="none" stroke="black" points="138,-189 138,-211 208,-211 208,-189 138,-189"/>
<text text-anchor="start" x="141" y="-197.2" font-family="Helvetica,sans-Serif" font-size="11.00">varchar[100]</text>
<polygon fill="none" stroke="black" points="10,-167 10,-189 138,-189 138,-167 10,-167"/>
<text text-anchor="start" x="30" y="-175.2" font-family="Helvetica,sans-Serif" font-size="11.00">abbr_en</text>
<polygon fill="none" stroke="black" points="138,-167 138,-189 208,-189 208,-167 138,-167"/>
<text text-anchor="start" x="141" y="-175.2" font-family="Helvetica,sans-Serif" font-size="11.00">varchar[3]</text>
<polygon fill="none" stroke="black" points="10,-145 10,-167 138,-167 138,-145 10,-145"/>
<text text-anchor="start" x="30" y="-153.2" font-family="Helvetica,sans-Serif" font-size="11.00">abbr_de</text>
<polygon fill="none" stroke="black" points="138,-145 138,-167 208,-167 208,-145 138,-145"/>
<text text-anchor="start" x="141" y="-153.2" font-family="Helvetica,sans-Serif" font-size="11.00">varchar[3]</text>
<polygon fill="none" stroke="black" points="10,-123 10,-145 138,-145 138,-123 10,-123"/>
<text text-anchor="start" x="30" y="-131.2" font-family="Helvetica,sans-Serif" font-size="11.00">abbr_fr</text>
<polygon fill="none" stroke="black" points="138,-123 138,-145 208,-145 208,-123 138,-123"/>
<text text-anchor="start" x="141" y="-131.2" font-family="Helvetica,sans-Serif" font-size="11.00">varchar[3]</text>
<polygon fill="none" stroke="black" points="10,-101 10,-123 138,-123 138,-101 10,-101"/>
<text text-anchor="start" x="30" y="-109.2" font-family="Helvetica,sans-Serif" font-size="11.00">abbr_it</text>
<polygon fill="none" stroke="black" points="138,-101 138,-123 208,-123 208,-101 138,-101"/>
<text text-anchor="start" x="141" y="-109.2" font-family="Helvetica,sans-Serif" font-size="11.00">varchar[3]</text>
<polygon fill="none" stroke="black" points="10,-79 10,-101 138,-101 138,-79 10,-79"/>
<text text-anchor="start" x="30" y="-87.2" font-family="Helvetica,sans-Serif" font-size="11.00">abbr_ro</text>
<polygon fill="none" stroke="black" points="138,-79 138,-101 208,-101 208,-79 138,-79"/>
<text text-anchor="start" x="141" y="-87.2" font-family="Helvetica,sans-Serif" font-size="11.00">varchar[3]</text>
<polygon fill="none" stroke="black" points="10,-57 10,-79 138,-79 138,-57 10,-57"/>
<text text-anchor="start" x="30" y="-65.2" font-family="Helvetica,sans-Serif" font-size="11.00">active</text>
<polygon fill="none" stroke="black" points="138,-57 138,-79 208,-79 208,-57 138,-57"/>
<text text-anchor="start" x="141" y="-65.2" font-family="Helvetica,sans-Serif" font-size="11.00">bool[1]</text>
<polygon fill="#ffffff" stroke="transparent" points="10,-39 10,-57 78,-57 78,-39 10,-39"/>
<polygon fill="none" stroke="black" points="10,-39 10,-57 78,-57 78,-39 10,-39"/>
<text text-anchor="start" x="13" y="-45.2" font-family="Helvetica,sans-Serif" font-size="11.00">&lt; 0</text>
<polygon fill="#ffffff" stroke="transparent" points="78,-39 78,-57 138,-57 138,-39 78,-39"/>
<polygon fill="none" stroke="black" points="78,-39 78,-57 138,-57 138,-39 78,-39"/>
<text text-anchor="start" x="128" y="-45.2" font-family="Helvetica,sans-Serif" font-size="11.00"> &#160;</text>
<polygon fill="#ffffff" stroke="transparent" points="138,-39 138,-57 208,-57 208,-39 138,-39"/>
<polygon fill="none" stroke="black" points="138,-39 138,-57 208,-57 208,-39 138,-39"/>
<text text-anchor="start" x="189" y="-45.2" font-family="Helvetica,sans-Serif" font-size="11.00">1 &gt;</text>
<polygon fill="none" stroke="black" stroke-width="2" points="9,-38 9,-366 209,-366 209,-38 9,-38"/>
</a>
</g>
</g>
<!-- tdh_od.trench_point&#45;&gt;trench_point_kind -->
<g id="edge1" class="edge">
<title>tdh_od.trench_point:w&#45;&gt;trench_point_kind:e</title>
<path fill="none" stroke="black" d="M243.49,-332C232.18,-332 224.99,-332 209,-332"/>
<polygon fill="black" stroke="black" points="250,-332 258,-335.6 254,-332 258,-332 258,-332 258,-332 254,-332 258,-328.4 250,-332 250,-332"/>
<ellipse fill="none" stroke="black" cx="246.8" cy="-332" rx="3.2" ry="3.2"/>
</g>
</g>
</svg>
