<?xml version="1.0" encoding="UTF-8" standalone="no"?>
<!DOCTYPE svg PUBLIC "-//W3C//DTD SVG 1.1//EN"
 "http://www.w3.org/Graphics/SVG/1.1/DTD/svg11.dtd">
<!-- Generated by graphviz version 2.43.0 (0)
 -->
<!-- Title: oneDegreeRelationshipsDiagram Pages: 1 -->
<svg width="517pt" height="619pt"
 viewBox="0.00 0.00 517.00 619.00" xmlns="http://www.w3.org/2000/svg" xmlns:xlink="http://www.w3.org/1999/xlink">
<g id="graph0" class="graph" transform="scale(1 1) rotate(0) translate(4 615)">
<title>oneDegreeRelationshipsDiagram</title>
<polygon fill="#ffffff" stroke="transparent" points="-4,4 -4,-615 513,-615 513,4 -4,4"/>
<text text-anchor="middle" x="79.5" y="-7.2" font-family="Helvetica,sans-Serif" font-size="11.00">Generated by SchemaSpy</text>
<!-- tdh_od.trench -->
<g id="node1" class="node">
<title>tdh_od.trench</title>
<g id="a_node1"><a xlink:href="../../../tdh_od/tables/trench.html" xlink:title="tdh_od.trench" target="_top">
<polygon fill="#ffffff" stroke="transparent" points="295,-417 295,-607 501,-607 501,-417 295,-417"/>
<polygon fill="#f5f5f5" stroke="transparent" points="295,-585 295,-607 501,-607 501,-585 295,-585"/>
<polygon fill="none" stroke="black" points="295,-585 295,-607 501,-607 501,-585 295,-585"/>
<text text-anchor="start" x="300" y="-594.2" font-family="Helvetica,sans-Serif" font-weight="bold" font-size="11.00">tdh_od.trench</text>
<text text-anchor="start" x="459" y="-593.2" font-family="Helvetica,sans-Serif" font-size="11.00">[table]</text>
<polygon fill="none" stroke="black" points="295,-563 295,-585 501,-585 501,-563 295,-563"/>
<image xlink:href="../../images/foreignKeys.png" width="11px" height="12px" preserveAspectRatio="xMinYMin meet" x="300" y="-580"/>
<text text-anchor="start" x="315" y="-571.2" font-family="Helvetica,sans-Serif" font-size="11.00">horizontal_positioning</text>
<polygon fill="none" stroke="black" points="295,-541 295,-563 501,-563 501,-541 295,-541"/>
<image xlink:href="../../images/foreignKeys.png" width="11px" height="12px" preserveAspectRatio="xMinYMin meet" x="300" y="-558"/>
<text text-anchor="start" x="315" y="-549.2" font-family="Helvetica,sans-Serif" font-size="11.00">status</text>
<polygon fill="none" stroke="black" points="295,-519 295,-541 501,-541 501,-519 295,-519"/>
<image xlink:href="../../images/foreignKeys.png" width="11px" height="12px" preserveAspectRatio="xMinYMin meet" x="300" y="-536"/>
<text text-anchor="start" x="315" y="-527.2" font-family="Helvetica,sans-Serif" font-size="11.00">trench_type</text>
<polygon fill="none" stroke="black" points="295,-497 295,-519 501,-519 501,-497 295,-497"/>
<image xlink:href="../../images/foreignKeys.png" width="11px" height="12px" preserveAspectRatio="xMinYMin meet" x="300" y="-514"/>
<text text-anchor="start" x="315" y="-505.2" font-family="Helvetica,sans-Serif" font-size="11.00">embedding</text>
<polygon fill="none" stroke="black" points="295,-475 295,-497 501,-497 501,-475 295,-475"/>
<image xlink:href="../../images/foreignKeys.png" width="11px" height="12px" preserveAspectRatio="xMinYMin meet" x="300" y="-492"/>
<text text-anchor="start" x="315" y="-483.2" font-family="Helvetica,sans-Serif" font-size="11.00">control_system</text>
<polygon fill="none" stroke="black" points="295,-453 295,-475 501,-475 501,-453 295,-453"/>
<image xlink:href="../../images/foreignKeys.png" width="11px" height="12px" preserveAspectRatio="xMinYMin meet" x="300" y="-470"/>
<text text-anchor="start" x="315" y="-461.2" font-family="Helvetica,sans-Serif" font-size="11.00">cable_conduits</text>
<polygon fill="none" stroke="black" points="295,-435 295,-453 501,-453 501,-435 295,-435"/>
<text text-anchor="start" x="298" y="-441.2" font-family="Helvetica,sans-Serif" font-size="11.00">...</text>
<polygon fill="#ffffff" stroke="transparent" points="295,-417 295,-435 501,-435 501,-417 295,-417"/>
<polygon fill="none" stroke="black" points="295,-417 295,-435 501,-435 501,-417 295,-417"/>
<polygon fill="#ffffff" stroke="transparent" points="296,-418 296,-434 363,-434 363,-418 296,-418"/>
<text text-anchor="start" x="298" y="-423.2" font-family="Helvetica,sans-Serif" font-size="11.00">&lt; 6</text>
<polygon fill="#ffffff" stroke="transparent" points="363,-418 363,-434 446,-434 446,-418 363,-418"/>
<text text-anchor="start" x="386" y="-423.2" font-family="Helvetica,sans-Serif" font-size="11.00">0 rows</text>
<polygon fill="#ffffff" stroke="transparent" points="446,-418 446,-434 500,-434 500,-418 446,-418"/>
<text text-anchor="start" x="490" y="-423.2" font-family="Helvetica,sans-Serif" font-size="11.00"> &#160;</text>
<polygon fill="black" stroke="black" points="363,-418 363,-434 363,-434 363,-418 363,-418"/>
<polygon fill="black" stroke="black" points="446,-418 446,-434 446,-434 446,-418 446,-418"/>
</a>
</g>
</g>
<!-- trench_status -->
<g id="node2" class="node">
<title>trench_status</title>
<g id="a_node2"><a xlink:href="../../tables/trench_status.html" xlink:title="trench_status" target="_top">
<polygon fill="#ffffff" stroke="transparent" points="8,-37 8,-587 246,-587 246,-37 8,-37"/>
<polygon fill="#f5f5f5" stroke="transparent" points="10,-563 10,-585 244,-585 244,-563 10,-563"/>
<polygon fill="none" stroke="black" points="10,-563 10,-585 244,-585 244,-563 10,-563"/>
<text text-anchor="start" x="15" y="-572.2" font-family="Helvetica,sans-Serif" font-weight="bold" font-size="11.00">trench_status</text>
<text text-anchor="start" x="202" y="-571.2" font-family="Helvetica,sans-Serif" font-size="11.00">[table]</text>
<polygon fill="none" stroke="black" points="10,-541 10,-563 138,-563 138,-541 10,-541"/>
<image xlink:href="../../images/primaryKeys.png" width="11px" height="12px" preserveAspectRatio="xMinYMin meet" x="15" y="-558"/>
<text text-anchor="start" x="30" y="-549.2" font-family="Helvetica,sans-Serif" font-size="11.00">code</text>
<polygon fill="none" stroke="black" points="138,-541 138,-563 244,-563 244,-541 138,-541"/>
<text text-anchor="start" x="141" y="-549.2" font-family="Helvetica,sans-Serif" font-size="11.00">int4[10]</text>
<polygon fill="none" stroke="black" points="10,-519 10,-541 138,-541 138,-519 10,-519"/>
<text text-anchor="start" x="30" y="-527.2" font-family="Helvetica,sans-Serif" font-size="11.00">vsacode</text>
<polygon fill="none" stroke="black" points="138,-519 138,-541 244,-541 244,-519 138,-519"/>
<text text-anchor="start" x="141" y="-527.2" font-family="Helvetica,sans-Serif" font-size="11.00">int4[10]</text>
<polygon fill="none" stroke="black" points="10,-497 10,-519 138,-519 138,-497 10,-497"/>
<text text-anchor="start" x="30" y="-505.2" font-family="Helvetica,sans-Serif" font-size="11.00">value_en</text>
<polygon fill="none" stroke="black" points="138,-497 138,-519 244,-519 244,-497 138,-497"/>
<text text-anchor="start" x="141" y="-505.2" font-family="Helvetica,sans-Serif" font-size="11.00">varchar[100]</text>
<polygon fill="none" stroke="black" points="10,-475 10,-497 138,-497 138,-475 10,-475"/>
<text text-anchor="start" x="30" y="-483.2" font-family="Helvetica,sans-Serif" font-size="11.00">value_de</text>
<polygon fill="none" stroke="black" points="138,-475 138,-497 244,-497 244,-475 138,-475"/>
<text text-anchor="start" x="141" y="-483.2" font-family="Helvetica,sans-Serif" font-size="11.00">varchar[100]</text>
<polygon fill="none" stroke="black" points="10,-453 10,-475 138,-475 138,-453 10,-453"/>
<text text-anchor="start" x="30" y="-461.2" font-family="Helvetica,sans-Serif" font-size="11.00">value_fr</text>
<polygon fill="none" stroke="black" points="138,-453 138,-475 244,-475 244,-453 138,-453"/>
<text text-anchor="start" x="141" y="-461.2" font-family="Helvetica,sans-Serif" font-size="11.00">varchar[100]</text>
<polygon fill="none" stroke="black" points="10,-431 10,-453 138,-453 138,-431 10,-431"/>
<text text-anchor="start" x="30" y="-439.2" font-family="Helvetica,sans-Serif" font-size="11.00">value_it</text>
<polygon fill="none" stroke="black" points="138,-431 138,-453 244,-453 244,-431 138,-431"/>
<text text-anchor="start" x="141" y="-439.2" font-family="Helvetica,sans-Serif" font-size="11.00">varchar[100]</text>
<polygon fill="none" stroke="black" points="10,-409 10,-431 138,-431 138,-409 10,-409"/>
<text text-anchor="start" x="30" y="-417.2" font-family="Helvetica,sans-Serif" font-size="11.00">value_ro</text>
<polygon fill="none" stroke="black" points="138,-409 138,-431 244,-431 244,-409 138,-409"/>
<text text-anchor="start" x="141" y="-417.2" font-family="Helvetica,sans-Serif" font-size="11.00">varchar[100]</text>
<polygon fill="none" stroke="black" points="10,-387 10,-409 138,-409 138,-387 10,-387"/>
<text text-anchor="start" x="30" y="-395.2" font-family="Helvetica,sans-Serif" font-size="11.00">abbr_en</text>
<polygon fill="none" stroke="black" points="138,-387 138,-409 244,-409 244,-387 138,-387"/>
<text text-anchor="start" x="141" y="-395.2" font-family="Helvetica,sans-Serif" font-size="11.00">varchar[3]</text>
<polygon fill="none" stroke="black" points="10,-365 10,-387 138,-387 138,-365 10,-365"/>
<text text-anchor="start" x="30" y="-373.2" font-family="Helvetica,sans-Serif" font-size="11.00">abbr_de</text>
<polygon fill="none" stroke="black" points="138,-365 138,-387 244,-387 244,-365 138,-365"/>
<text text-anchor="start" x="141" y="-373.2" font-family="Helvetica,sans-Serif" font-size="11.00">varchar[3]</text>
<polygon fill="none" stroke="black" points="10,-343 10,-365 138,-365 138,-343 10,-343"/>
<text text-anchor="start" x="30" y="-351.2" font-family="Helvetica,sans-Serif" font-size="11.00">abbr_fr</text>
<polygon fill="none" stroke="black" points="138,-343 138,-365 244,-365 244,-343 138,-343"/>
<text text-anchor="start" x="141" y="-351.2" font-family="Helvetica,sans-Serif" font-size="11.00">varchar[3]</text>
<polygon fill="none" stroke="black" points="10,-321 10,-343 138,-343 138,-321 10,-321"/>
<text text-anchor="start" x="30" y="-329.2" font-family="Helvetica,sans-Serif" font-size="11.00">abbr_it</text>
<polygon fill="none" stroke="black" points="138,-321 138,-343 244,-343 244,-321 138,-321"/>
<text text-anchor="start" x="141" y="-329.2" font-family="Helvetica,sans-Serif" font-size="11.00">varchar[3]</text>
<polygon fill="none" stroke="black" points="10,-299 10,-321 138,-321 138,-299 10,-299"/>
<text text-anchor="start" x="30" y="-307.2" font-family="Helvetica,sans-Serif" font-size="11.00">abbr_ro</text>
<polygon fill="none" stroke="black" points="138,-299 138,-321 244,-321 244,-299 138,-299"/>
<text text-anchor="start" x="141" y="-307.2" font-family="Helvetica,sans-Serif" font-size="11.00">varchar[3]</text>
<polygon fill="none" stroke="black" points="10,-277 10,-299 138,-299 138,-277 10,-277"/>
<text text-anchor="start" x="30" y="-285.2" font-family="Helvetica,sans-Serif" font-size="11.00">description_en</text>
<polygon fill="none" stroke="black" points="138,-277 138,-299 244,-299 244,-277 138,-277"/>
<text text-anchor="start" x="141" y="-285.2" font-family="Helvetica,sans-Serif" font-size="11.00">text[2147483647]</text>
<polygon fill="none" stroke="black" points="10,-255 10,-277 138,-277 138,-255 10,-255"/>
<text text-anchor="start" x="30" y="-263.2" font-family="Helvetica,sans-Serif" font-size="11.00">description_de</text>
<polygon fill="none" stroke="black" points="138,-255 138,-277 244,-277 244,-255 138,-255"/>
<text text-anchor="start" x="141" y="-263.2" font-family="Helvetica,sans-Serif" font-size="11.00">text[2147483647]</text>
<polygon fill="none" stroke="black" points="10,-233 10,-255 138,-255 138,-233 10,-233"/>
<text text-anchor="start" x="30" y="-241.2" font-family="Helvetica,sans-Serif" font-size="11.00">description_fr</text>
<polygon fill="none" stroke="black" points="138,-233 138,-255 244,-255 244,-233 138,-233"/>
<text text-anchor="start" x="141" y="-241.2" font-family="Helvetica,sans-Serif" font-size="11.00">text[2147483647]</text>
<polygon fill="none" stroke="black" points="10,-211 10,-233 138,-233 138,-211 10,-211"/>
<text text-anchor="start" x="30" y="-219.2" font-family="Helvetica,sans-Serif" font-size="11.00">description_it</text>
<polygon fill="none" stroke="black" points="138,-211 138,-233 244,-233 244,-211 138,-211"/>
<text text-anchor="start" x="141" y="-219.2" font-family="Helvetica,sans-Serif" font-size="11.00">text[2147483647]</text>
<polygon fill="none" stroke="black" points="10,-189 10,-211 138,-211 138,-189 10,-189"/>
<text text-anchor="start" x="30" y="-197.2" font-family="Helvetica,sans-Serif" font-size="11.00">description_ro</text>
<polygon fill="none" stroke="black" points="138,-189 138,-211 244,-211 244,-189 138,-189"/>
<text text-anchor="start" x="141" y="-197.2" font-family="Helvetica,sans-Serif" font-size="11.00">text[2147483647]</text>
<polygon fill="none" stroke="black" points="10,-167 10,-189 138,-189 138,-167 10,-167"/>
<text text-anchor="start" x="30" y="-175.2" font-family="Helvetica,sans-Serif" font-size="11.00">display_en</text>
<polygon fill="none" stroke="black" points="138,-167 138,-189 244,-189 244,-167 138,-167"/>
<text text-anchor="start" x="141" y="-175.2" font-family="Helvetica,sans-Serif" font-size="11.00">varchar[100]</text>
<polygon fill="none" stroke="black" points="10,-145 10,-167 138,-167 138,-145 10,-145"/>
<text text-anchor="start" x="30" y="-153.2" font-family="Helvetica,sans-Serif" font-size="11.00">display_de</text>
<polygon fill="none" stroke="black" points="138,-145 138,-167 244,-167 244,-145 138,-145"/>
<text text-anchor="start" x="141" y="-153.2" font-family="Helvetica,sans-Serif" font-size="11.00">varchar[100]</text>
<polygon fill="none" stroke="black" points="10,-123 10,-145 138,-145 138,-123 10,-123"/>
<text text-anchor="start" x="30" y="-131.2" font-family="Helvetica,sans-Serif" font-size="11.00">display_fr</text>
<polygon fill="none" stroke="black" points="138,-123 138,-145 244,-145 244,-123 138,-123"/>
<text text-anchor="start" x="141" y="-131.2" font-family="Helvetica,sans-Serif" font-size="11.00">varchar[100]</text>
<polygon fill="none" stroke="black" points="10,-101 10,-123 138,-123 138,-101 10,-101"/>
<text text-anchor="start" x="30" y="-109.2" font-family="Helvetica,sans-Serif" font-size="11.00">display_it</text>
<polygon fill="none" stroke="black" points="138,-101 138,-123 244,-123 244,-101 138,-101"/>
<text text-anchor="start" x="141" y="-109.2" font-family="Helvetica,sans-Serif" font-size="11.00">varchar[100]</text>
<polygon fill="none" stroke="black" points="10,-79 10,-101 138,-101 138,-79 10,-79"/>
<text text-anchor="start" x="30" y="-87.2" font-family="Helvetica,sans-Serif" font-size="11.00">display_ro</text>
<polygon fill="none" stroke="black" points="138,-79 138,-101 244,-101 244,-79 138,-79"/>
<text text-anchor="start" x="141" y="-87.2" font-family="Helvetica,sans-Serif" font-size="11.00">varchar[100]</text>
<polygon fill="none" stroke="black" points="10,-57 10,-79 138,-79 138,-57 10,-57"/>
<text text-anchor="start" x="30" y="-65.2" font-family="Helvetica,sans-Serif" font-size="11.00">active</text>
<polygon fill="none" stroke="black" points="138,-57 138,-79 244,-79 244,-57 138,-57"/>
<text text-anchor="start" x="141" y="-65.2" font-family="Helvetica,sans-Serif" font-size="11.00">bool[1]</text>
<polygon fill="#ffffff" stroke="transparent" points="10,-39 10,-57 244,-57 244,-39 10,-39"/>
<polygon fill="none" stroke="black" points="10,-39 10,-57 244,-57 244,-39 10,-39"/>
<polygon fill="#ffffff" stroke="transparent" points="11,-40 11,-56 93,-56 93,-40 11,-40"/>
<text text-anchor="start" x="13" y="-45.2" font-family="Helvetica,sans-Serif" font-size="11.00">&lt; 0</text>
<polygon fill="#ffffff" stroke="transparent" points="93,-40 93,-56 162,-56 162,-40 93,-40"/>
<text text-anchor="start" x="123.5" y="-45.2" font-family="Helvetica,sans-Serif" font-size="11.00"> &#160;</text>
<polygon fill="#ffffff" stroke="transparent" points="162,-40 162,-56 243,-56 243,-40 162,-40"/>
<text text-anchor="start" x="221" y="-45.2" font-family="Helvetica,sans-Serif" font-size="11.00">1 &gt;</text>
<polygon fill="black" stroke="black" points="93,-40 93,-56 93,-56 93,-40 93,-40"/>
<polygon fill="black" stroke="black" points="162,-40 162,-56 162,-56 162,-40 162,-40"/>
<polygon fill="none" stroke="black" stroke-width="2" points="9,-38 9,-586 245,-586 245,-38 9,-38"/>
</a>
</g>
</g>
<!-- tdh_od.trench&#45;&gt;trench_status -->
<g id="edge1" class="edge">
<title>tdh_od.trench:w&#45;&gt;trench_status:e</title>
<path fill="none" stroke="black" d="M279.49,-552C268.18,-552 260.99,-552 245,-552"/>
<polygon fill="black" stroke="black" points="286,-552 294,-555.6 290,-552 294,-552 294,-552 294,-552 290,-552 294,-548.4 286,-552 286,-552"/>
<ellipse fill="none" stroke="black" cx="282.8" cy="-552" rx="3.2" ry="3.2"/>
</g>
</g>
</svg>
