<?xml version="1.0" encoding="UTF-8" standalone="no"?>
<!DOCTYPE svg PUBLIC "-//W3C//DTD SVG 1.1//EN"
 "http://www.w3.org/Graphics/SVG/1.1/DTD/svg11.dtd">
<!-- Generated by graphviz version 2.43.0 (0)
 -->
<!-- Title: oneDegreeRelationshipsDiagram Pages: 1 -->
<svg width="364pt" height="405pt"
 viewBox="0.00 0.00 364.00 405.00" xmlns="http://www.w3.org/2000/svg" xmlns:xlink="http://www.w3.org/1999/xlink">
<g id="graph0" class="graph" transform="scale(1 1) rotate(0) translate(4 401)">
<title>oneDegreeRelationshipsDiagram</title>
<polygon fill="#ffffff" stroke="transparent" points="-4,4 -4,-401 360,-401 360,4 -4,4"/>
<text text-anchor="middle" x="79.5" y="-7.2" font-family="Helvetica,sans-Serif" font-size="11.00">Generated by SchemaSpy</text>
<!-- vw_pipe_point_normal -->
<g id="node1" class="node">
<title>vw_pipe_point_normal</title>
<g id="a_node1"><a xlink:href="../../tables/vw_pipe_point_normal.html" xlink:title="vw_pipe_point_normal" target="_top">
<polygon fill="#ffffff" stroke="transparent" points="8,-37 8,-393 348,-393 348,-37 8,-37"/>
<polygon fill="#f5f5f5" stroke="transparent" points="10,-369 10,-391 346,-391 346,-369 10,-369"/>
<polygon fill="none" stroke="black" points="10,-369 10,-391 346,-391 346,-369 10,-369"/>
<text text-anchor="start" x="15" y="-378.2" font-family="Helvetica,sans-Serif" font-weight="bold" font-size="11.00">vw_pipe_point_normal</text>
<text text-anchor="start" x="306" y="-377.2" font-family="Helvetica,sans-Serif" font-size="11.00">[view]</text>
<polygon fill="none" stroke="black" points="10,-347 10,-369 210,-369 210,-347 10,-347"/>
<text text-anchor="start" x="30" y="-355.2" font-family="Helvetica,sans-Serif" font-size="11.00">obj_id</text>
<polygon fill="none" stroke="black" points="210,-347 210,-369 346,-369 346,-347 210,-347"/>
<text text-anchor="start" x="213" y="-355.2" font-family="Helvetica,sans-Serif" font-size="11.00">varchar[16]</text>
<polygon fill="none" stroke="black" points="10,-325 10,-347 210,-347 210,-325 10,-325"/>
<text text-anchor="start" x="30" y="-333.2" font-family="Helvetica,sans-Serif" font-size="11.00">armature_setting</text>
<polygon fill="none" stroke="black" points="210,-325 210,-347 346,-347 346,-325 210,-325"/>
<text text-anchor="start" x="213" y="-333.2" font-family="Helvetica,sans-Serif" font-size="11.00">int4[10]</text>
<polygon fill="none" stroke="black" points="10,-303 10,-325 210,-325 210,-303 10,-303"/>
<text text-anchor="start" x="30" y="-311.2" font-family="Helvetica,sans-Serif" font-size="11.00">kind</text>
<polygon fill="none" stroke="black" points="210,-303 210,-325 346,-325 346,-303 210,-303"/>
<text text-anchor="start" x="213" y="-311.2" font-family="Helvetica,sans-Serif" font-size="11.00">int4[10]</text>
<polygon fill="none" stroke="black" points="10,-281 10,-303 210,-303 210,-281 10,-281"/>
<text text-anchor="start" x="30" y="-289.2" font-family="Helvetica,sans-Serif" font-size="11.00">material</text>
<polygon fill="none" stroke="black" points="210,-281 210,-303 346,-303 346,-281 210,-281"/>
<text text-anchor="start" x="213" y="-289.2" font-family="Helvetica,sans-Serif" font-size="11.00">int4[10]</text>
<polygon fill="none" stroke="black" points="10,-259 10,-281 210,-281 210,-259 10,-259"/>
<text text-anchor="start" x="30" y="-267.2" font-family="Helvetica,sans-Serif" font-size="11.00">altitude1</text>
<polygon fill="none" stroke="black" points="210,-259 210,-281 346,-281 346,-259 210,-259"/>
<text text-anchor="start" x="213" y="-267.2" font-family="Helvetica,sans-Serif" font-size="11.00">numeric[7,3]</text>
<polygon fill="none" stroke="black" points="10,-237 10,-259 210,-259 210,-237 10,-237"/>
<text text-anchor="start" x="30" y="-245.2" font-family="Helvetica,sans-Serif" font-size="11.00">altitude2</text>
<polygon fill="none" stroke="black" points="210,-237 210,-259 346,-259 346,-237 210,-237"/>
<text text-anchor="start" x="213" y="-245.2" font-family="Helvetica,sans-Serif" font-size="11.00">numeric[7,3]</text>
<polygon fill="none" stroke="black" points="10,-215 10,-237 210,-237 210,-215 10,-215"/>
<text text-anchor="start" x="30" y="-223.2" font-family="Helvetica,sans-Serif" font-size="11.00">elevation_determination</text>
<polygon fill="none" stroke="black" points="210,-215 210,-237 346,-237 346,-215 210,-215"/>
<text text-anchor="start" x="213" y="-223.2" font-family="Helvetica,sans-Serif" font-size="11.00">int4[10]</text>
<polygon fill="none" stroke="black" points="10,-193 10,-215 210,-215 210,-193 10,-193"/>
<text text-anchor="start" x="30" y="-201.2" font-family="Helvetica,sans-Serif" font-size="11.00">fk_dataowner</text>
<polygon fill="none" stroke="black" points="210,-193 210,-215 346,-215 346,-193 210,-193"/>
<text text-anchor="start" x="213" y="-201.2" font-family="Helvetica,sans-Serif" font-size="11.00">varchar[16]</text>
<polygon fill="none" stroke="black" points="10,-171 10,-193 210,-193 210,-171 10,-171"/>
<text text-anchor="start" x="30" y="-179.2" font-family="Helvetica,sans-Serif" font-size="11.00">fk_owner</text>
<polygon fill="none" stroke="black" points="210,-171 210,-193 346,-193 346,-171 210,-171"/>
<text text-anchor="start" x="213" y="-179.2" font-family="Helvetica,sans-Serif" font-size="11.00">varchar[16]</text>
<polygon fill="none" stroke="black" points="10,-149 10,-171 210,-171 210,-149 10,-149"/>
<text text-anchor="start" x="30" y="-157.2" font-family="Helvetica,sans-Serif" font-size="11.00">fk_provider</text>
<polygon fill="none" stroke="black" points="210,-149 210,-171 346,-171 346,-149 210,-149"/>
<text text-anchor="start" x="213" y="-157.2" font-family="Helvetica,sans-Serif" font-size="11.00">varchar[16]</text>
<polygon fill="none" stroke="black" points="10,-127 10,-149 210,-149 210,-127 10,-127"/>
<text text-anchor="start" x="30" y="-135.2" font-family="Helvetica,sans-Serif" font-size="11.00">geometry3d_geometry</text>
<polygon fill="none" stroke="black" points="210,-127 210,-149 346,-149 346,-127 210,-127"/>
<text text-anchor="start" x="213" y="-135.2" font-family="Helvetica,sans-Serif" font-size="11.00">geometry[2147483647]</text>
<polygon fill="none" stroke="black" points="10,-105 10,-127 210,-127 210,-105 10,-105"/>
<text text-anchor="start" x="30" y="-113.2" font-family="Helvetica,sans-Serif" font-size="11.00">horizontal_positioning</text>
<polygon fill="none" stroke="black" points="210,-105 210,-127 346,-127 346,-105 210,-105"/>
<text text-anchor="start" x="213" y="-113.2" font-family="Helvetica,sans-Serif" font-size="11.00">int4[10]</text>
<polygon fill="none" stroke="black" points="10,-83 10,-105 210,-105 210,-83 10,-83"/>
<text text-anchor="start" x="30" y="-91.2" font-family="Helvetica,sans-Serif" font-size="11.00">last_modification</text>
<polygon fill="none" stroke="black" points="210,-83 210,-105 346,-105 346,-83 210,-83"/>
<text text-anchor="start" x="213" y="-91.2" font-family="Helvetica,sans-Serif" font-size="11.00">timestamp[29,6]</text>
<polygon fill="none" stroke="black" points="10,-61 10,-83 210,-83 210,-61 10,-61"/>
<text text-anchor="start" x="30" y="-69.2" font-family="Helvetica,sans-Serif" font-size="11.00">remark</text>
<polygon fill="none" stroke="black" points="210,-61 210,-83 346,-83 346,-61 210,-61"/>
<text text-anchor="start" x="213" y="-69.2" font-family="Helvetica,sans-Serif" font-size="11.00">text[2147483647]</text>
<polygon fill="none" stroke="black" points="10,-39 10,-61 210,-61 210,-39 10,-39"/>
<text text-anchor="start" x="30" y="-47.2" font-family="Helvetica,sans-Serif" font-size="11.00">symbolori</text>
<polygon fill="none" stroke="black" points="210,-39 210,-61 346,-61 346,-39 210,-39"/>
<text text-anchor="start" x="213" y="-47.2" font-family="Helvetica,sans-Serif" font-size="11.00">numeric[4,1]</text>
<polygon fill="none" stroke="black" stroke-width="2" points="9,-38 9,-392 347,-392 347,-38 9,-38"/>
</a>
</g>
</g>
</g>
</svg>
