<?xml version="1.0" encoding="UTF-8" standalone="no"?>
<!DOCTYPE svg PUBLIC "-//W3C//DTD SVG 1.1//EN"
 "http://www.w3.org/Graphics/SVG/1.1/DTD/svg11.dtd">
<!-- Generated by graphviz version 2.47.1 (20210515.0534)
 -->
<!-- Title: oneDegreeRelationshipsDiagram Pages: 1 -->
<svg width="323pt" height="647pt"
 viewBox="0.00 0.00 323.00 647.00" xmlns="http://www.w3.org/2000/svg" xmlns:xlink="http://www.w3.org/1999/xlink">
<g id="graph0" class="graph" transform="scale(1 1) rotate(0) translate(4 643)">
<title>oneDegreeRelationshipsDiagram</title>
<polygon fill="#ffffff" stroke="transparent" points="-4,4 -4,-643 319,-643 319,4 -4,4"/>
<text text-anchor="middle" x="73.5" y="-7.2" font-family="Helvetica,sans-Serif" font-size="11.00">Generated by SchemaSpy</text>
<!-- vw_pipe_point_feed -->
<g id="node1" class="node">
<title>vw_pipe_point_feed</title>
<g id="a_node1"><a xlink:href="../../tables/vw_pipe_point_feed.html" xlink:title="vw_pipe_point_feed" target="_top">
<polygon fill="#ffffff" stroke="transparent" points="8,-37 8,-635 307,-635 307,-37 8,-37"/>
<polygon fill="#f5f5f5" stroke="transparent" points="10.5,-611 10.5,-633 305.5,-633 305.5,-611 10.5,-611"/>
<polygon fill="none" stroke="black" points="10.5,-611 10.5,-633 305.5,-633 305.5,-611 10.5,-611"/>
<text text-anchor="start" x="15.5" y="-620.2" font-family="Helvetica,sans-Serif" font-weight="bold" font-size="11.00">vw_pipe_point_feed</text>
<text text-anchor="start" x="269.5" y="-619.2" font-family="Helvetica,sans-Serif" font-size="11.00">[view]</text>
<polygon fill="none" stroke="black" points="10.5,-589 10.5,-611 182.5,-611 182.5,-589 10.5,-589"/>
<text text-anchor="start" x="30.5" y="-597.2" font-family="Helvetica,sans-Serif" font-size="11.00">obj_id</text>
<polygon fill="none" stroke="black" points="182.5,-589 182.5,-611 305.5,-611 305.5,-589 182.5,-589"/>
<text text-anchor="start" x="185.5" y="-597.2" font-family="Helvetica,sans-Serif" font-size="11.00">varchar[16]</text>
<polygon fill="none" stroke="black" points="10.5,-567 10.5,-589 182.5,-589 182.5,-567 10.5,-567"/>
<text text-anchor="start" x="30.5" y="-575.2" font-family="Helvetica,sans-Serif" font-size="11.00">aperture_value</text>
<polygon fill="none" stroke="black" points="182.5,-567 182.5,-589 305.5,-589 305.5,-567 182.5,-567"/>
<text text-anchor="start" x="185.5" y="-575.2" font-family="Helvetica,sans-Serif" font-size="11.00">int4[10]</text>
<polygon fill="none" stroke="black" points="10.5,-545 10.5,-567 182.5,-567 182.5,-545 10.5,-545"/>
<text text-anchor="start" x="30.5" y="-553.2" font-family="Helvetica,sans-Serif" font-size="11.00">category</text>
<polygon fill="none" stroke="black" points="182.5,-545 182.5,-567 305.5,-567 305.5,-545 182.5,-545"/>
<text text-anchor="start" x="185.5" y="-553.2" font-family="Helvetica,sans-Serif" font-size="11.00">int4[10]</text>
<polygon fill="none" stroke="black" points="10.5,-523 10.5,-545 182.5,-545 182.5,-523 10.5,-523"/>
<text text-anchor="start" x="30.5" y="-531.2" font-family="Helvetica,sans-Serif" font-size="11.00">flow_temperature</text>
<polygon fill="none" stroke="black" points="182.5,-523 182.5,-545 305.5,-545 305.5,-523 182.5,-523"/>
<text text-anchor="start" x="185.5" y="-531.2" font-family="Helvetica,sans-Serif" font-size="11.00">int4[10]</text>
<polygon fill="none" stroke="black" points="10.5,-501 10.5,-523 182.5,-523 182.5,-501 10.5,-501"/>
<text text-anchor="start" x="30.5" y="-509.2" font-family="Helvetica,sans-Serif" font-size="11.00">heat_consumption</text>
<polygon fill="none" stroke="black" points="182.5,-501 182.5,-523 305.5,-523 305.5,-501 182.5,-501"/>
<text text-anchor="start" x="185.5" y="-509.2" font-family="Helvetica,sans-Serif" font-size="11.00">int4[10]</text>
<polygon fill="none" stroke="black" points="10.5,-479 10.5,-501 182.5,-501 182.5,-479 10.5,-479"/>
<text text-anchor="start" x="30.5" y="-487.2" font-family="Helvetica,sans-Serif" font-size="11.00">heated_volume</text>
<polygon fill="none" stroke="black" points="182.5,-479 182.5,-501 305.5,-501 305.5,-479 182.5,-479"/>
<text text-anchor="start" x="185.5" y="-487.2" font-family="Helvetica,sans-Serif" font-size="11.00">int4[10]</text>
<polygon fill="none" stroke="black" points="10.5,-457 10.5,-479 182.5,-479 182.5,-457 10.5,-457"/>
<text text-anchor="start" x="30.5" y="-465.2" font-family="Helvetica,sans-Serif" font-size="11.00">kind</text>
<polygon fill="none" stroke="black" points="182.5,-457 182.5,-479 305.5,-479 305.5,-457 182.5,-457"/>
<text text-anchor="start" x="185.5" y="-465.2" font-family="Helvetica,sans-Serif" font-size="11.00">int4[10]</text>
<polygon fill="none" stroke="black" points="10.5,-435 10.5,-457 182.5,-457 182.5,-435 10.5,-435"/>
<text text-anchor="start" x="30.5" y="-443.2" font-family="Helvetica,sans-Serif" font-size="11.00">power_output</text>
<polygon fill="none" stroke="black" points="182.5,-435 182.5,-457 305.5,-457 305.5,-435 182.5,-435"/>
<text text-anchor="start" x="185.5" y="-443.2" font-family="Helvetica,sans-Serif" font-size="11.00">int4[10]</text>
<polygon fill="none" stroke="black" points="10.5,-413 10.5,-435 182.5,-435 182.5,-413 10.5,-413"/>
<text text-anchor="start" x="30.5" y="-421.2" font-family="Helvetica,sans-Serif" font-size="11.00">power_output_installed</text>
<polygon fill="none" stroke="black" points="182.5,-413 182.5,-435 305.5,-435 305.5,-413 182.5,-413"/>
<text text-anchor="start" x="185.5" y="-421.2" font-family="Helvetica,sans-Serif" font-size="11.00">int4[10]</text>
<polygon fill="none" stroke="black" points="10.5,-391 10.5,-413 182.5,-413 182.5,-391 10.5,-391"/>
<text text-anchor="start" x="30.5" y="-399.2" font-family="Helvetica,sans-Serif" font-size="11.00">power_output_ordered</text>
<polygon fill="none" stroke="black" points="182.5,-391 182.5,-413 305.5,-413 305.5,-391 182.5,-391"/>
<text text-anchor="start" x="185.5" y="-399.2" font-family="Helvetica,sans-Serif" font-size="11.00">int4[10]</text>
<polygon fill="none" stroke="black" points="10.5,-369 10.5,-391 182.5,-391 182.5,-369 10.5,-369"/>
<text text-anchor="start" x="30.5" y="-377.2" font-family="Helvetica,sans-Serif" font-size="11.00">pressure</text>
<polygon fill="none" stroke="black" points="182.5,-369 182.5,-391 305.5,-391 305.5,-369 182.5,-369"/>
<text text-anchor="start" x="185.5" y="-377.2" font-family="Helvetica,sans-Serif" font-size="11.00">int2[5]</text>
<polygon fill="none" stroke="black" points="10.5,-347 10.5,-369 182.5,-369 182.5,-347 10.5,-347"/>
<text text-anchor="start" x="30.5" y="-355.2" font-family="Helvetica,sans-Serif" font-size="11.00">q_subscribed</text>
<polygon fill="none" stroke="black" points="182.5,-347 182.5,-369 305.5,-369 305.5,-347 182.5,-347"/>
<text text-anchor="start" x="185.5" y="-355.2" font-family="Helvetica,sans-Serif" font-size="11.00">numeric[7,3]</text>
<polygon fill="none" stroke="black" points="10.5,-325 10.5,-347 182.5,-347 182.5,-325 10.5,-325"/>
<text text-anchor="start" x="30.5" y="-333.2" font-family="Helvetica,sans-Serif" font-size="11.00">return_flow_temperature</text>
<polygon fill="none" stroke="black" points="182.5,-325 182.5,-347 305.5,-347 305.5,-325 182.5,-325"/>
<text text-anchor="start" x="185.5" y="-333.2" font-family="Helvetica,sans-Serif" font-size="11.00">int4[10]</text>
<polygon fill="none" stroke="black" points="10.5,-303 10.5,-325 182.5,-325 182.5,-303 10.5,-303"/>
<text text-anchor="start" x="30.5" y="-311.2" font-family="Helvetica,sans-Serif" font-size="11.00">year_of_commissioning</text>
<polygon fill="none" stroke="black" points="182.5,-303 182.5,-325 305.5,-325 305.5,-303 182.5,-303"/>
<text text-anchor="start" x="185.5" y="-311.2" font-family="Helvetica,sans-Serif" font-size="11.00">int2[5]</text>
<polygon fill="none" stroke="black" points="10.5,-281 10.5,-303 182.5,-303 182.5,-281 10.5,-281"/>
<text text-anchor="start" x="30.5" y="-289.2" font-family="Helvetica,sans-Serif" font-size="11.00">year_of_reconstruction</text>
<polygon fill="none" stroke="black" points="182.5,-281 182.5,-303 305.5,-303 305.5,-281 182.5,-281"/>
<text text-anchor="start" x="185.5" y="-289.2" font-family="Helvetica,sans-Serif" font-size="11.00">int2[5]</text>
<polygon fill="none" stroke="black" points="10.5,-259 10.5,-281 182.5,-281 182.5,-259 10.5,-259"/>
<text text-anchor="start" x="30.5" y="-267.2" font-family="Helvetica,sans-Serif" font-size="11.00">altitude1</text>
<polygon fill="none" stroke="black" points="182.5,-259 182.5,-281 305.5,-281 305.5,-259 182.5,-259"/>
<text text-anchor="start" x="185.5" y="-267.2" font-family="Helvetica,sans-Serif" font-size="11.00">numeric[7,3]</text>
<polygon fill="none" stroke="black" points="10.5,-237 10.5,-259 182.5,-259 182.5,-237 10.5,-237"/>
<text text-anchor="start" x="30.5" y="-245.2" font-family="Helvetica,sans-Serif" font-size="11.00">altitude2</text>
<polygon fill="none" stroke="black" points="182.5,-237 182.5,-259 305.5,-259 305.5,-237 182.5,-237"/>
<text text-anchor="start" x="185.5" y="-245.2" font-family="Helvetica,sans-Serif" font-size="11.00">numeric[7,3]</text>
<polygon fill="none" stroke="black" points="10.5,-215 10.5,-237 182.5,-237 182.5,-215 10.5,-215"/>
<text text-anchor="start" x="30.5" y="-223.2" font-family="Helvetica,sans-Serif" font-size="11.00">elevation_determination</text>
<polygon fill="none" stroke="black" points="182.5,-215 182.5,-237 305.5,-237 305.5,-215 182.5,-215"/>
<text text-anchor="start" x="185.5" y="-223.2" font-family="Helvetica,sans-Serif" font-size="11.00">int4[10]</text>
<polygon fill="none" stroke="black" points="10.5,-193 10.5,-215 182.5,-215 182.5,-193 10.5,-193"/>
<text text-anchor="start" x="30.5" y="-201.2" font-family="Helvetica,sans-Serif" font-size="11.00">fk_dataowner</text>
<polygon fill="none" stroke="black" points="182.5,-193 182.5,-215 305.5,-215 305.5,-193 182.5,-193"/>
<text text-anchor="start" x="185.5" y="-201.2" font-family="Helvetica,sans-Serif" font-size="11.00">varchar[16]</text>
<polygon fill="none" stroke="black" points="10.5,-171 10.5,-193 182.5,-193 182.5,-171 10.5,-171"/>
<text text-anchor="start" x="30.5" y="-179.2" font-family="Helvetica,sans-Serif" font-size="11.00">fk_owner</text>
<polygon fill="none" stroke="black" points="182.5,-171 182.5,-193 305.5,-193 305.5,-171 182.5,-171"/>
<text text-anchor="start" x="185.5" y="-179.2" font-family="Helvetica,sans-Serif" font-size="11.00">varchar[16]</text>
<polygon fill="none" stroke="black" points="10.5,-149 10.5,-171 182.5,-171 182.5,-149 10.5,-149"/>
<text text-anchor="start" x="30.5" y="-157.2" font-family="Helvetica,sans-Serif" font-size="11.00">fk_provider</text>
<polygon fill="none" stroke="black" points="182.5,-149 182.5,-171 305.5,-171 305.5,-149 182.5,-149"/>
<text text-anchor="start" x="185.5" y="-157.2" font-family="Helvetica,sans-Serif" font-size="11.00">varchar[16]</text>
<polygon fill="none" stroke="black" points="10.5,-127 10.5,-149 182.5,-149 182.5,-127 10.5,-127"/>
<text text-anchor="start" x="30.5" y="-135.2" font-family="Helvetica,sans-Serif" font-size="11.00">geometry3d_geometry</text>
<polygon fill="none" stroke="black" points="182.5,-127 182.5,-149 305.5,-149 305.5,-127 182.5,-127"/>
<text text-anchor="start" x="185.5" y="-135.2" font-family="Helvetica,sans-Serif" font-size="11.00">geometry[2147483647]</text>
<polygon fill="none" stroke="black" points="10.5,-105 10.5,-127 182.5,-127 182.5,-105 10.5,-105"/>
<text text-anchor="start" x="30.5" y="-113.2" font-family="Helvetica,sans-Serif" font-size="11.00">horizontal_positioning</text>
<polygon fill="none" stroke="black" points="182.5,-105 182.5,-127 305.5,-127 305.5,-105 182.5,-105"/>
<text text-anchor="start" x="185.5" y="-113.2" font-family="Helvetica,sans-Serif" font-size="11.00">int4[10]</text>
<polygon fill="none" stroke="black" points="10.5,-83 10.5,-105 182.5,-105 182.5,-83 10.5,-83"/>
<text text-anchor="start" x="30.5" y="-91.2" font-family="Helvetica,sans-Serif" font-size="11.00">last_modification</text>
<polygon fill="none" stroke="black" points="182.5,-83 182.5,-105 305.5,-105 305.5,-83 182.5,-83"/>
<text text-anchor="start" x="185.5" y="-91.2" font-family="Helvetica,sans-Serif" font-size="11.00">timestamp[29,6]</text>
<polygon fill="none" stroke="black" points="10.5,-61 10.5,-83 182.5,-83 182.5,-61 10.5,-61"/>
<text text-anchor="start" x="30.5" y="-69.2" font-family="Helvetica,sans-Serif" font-size="11.00">remark</text>
<polygon fill="none" stroke="black" points="182.5,-61 182.5,-83 305.5,-83 305.5,-61 182.5,-61"/>
<text text-anchor="start" x="185.5" y="-69.2" font-family="Helvetica,sans-Serif" font-size="11.00">text[2147483647]</text>
<polygon fill="none" stroke="black" points="10.5,-39 10.5,-61 182.5,-61 182.5,-39 10.5,-39"/>
<text text-anchor="start" x="30.5" y="-47.2" font-family="Helvetica,sans-Serif" font-size="11.00">symbolori</text>
<polygon fill="none" stroke="black" points="182.5,-39 182.5,-61 305.5,-61 305.5,-39 182.5,-39"/>
<text text-anchor="start" x="185.5" y="-47.2" font-family="Helvetica,sans-Serif" font-size="11.00">numeric[4,1]</text>
<polygon fill="none" stroke="black" stroke-width="2" points="9,-38 9,-634 306,-634 306,-38 9,-38"/>
</a>
</g>
</g>
</g>
</svg>
