<?xml version="1.0" encoding="UTF-8" standalone="no"?>
<!DOCTYPE svg PUBLIC "-//W3C//DTD SVG 1.1//EN"
 "http://www.w3.org/Graphics/SVG/1.1/DTD/svg11.dtd">
<!-- Generated by graphviz version 2.43.0 (0)
 -->
<!-- Title: oneDegreeRelationshipsDiagram Pages: 1 -->
<svg width="389pt" height="735pt"
 viewBox="0.00 0.00 389.00 735.00" xmlns="http://www.w3.org/2000/svg" xmlns:xlink="http://www.w3.org/1999/xlink">
<g id="graph0" class="graph" transform="scale(1 1) rotate(0) translate(4 731)">
<title>oneDegreeRelationshipsDiagram</title>
<polygon fill="#ffffff" stroke="transparent" points="-4,4 -4,-731 385,-731 385,4 -4,4"/>
<text text-anchor="middle" x="79.5" y="-7.2" font-family="Helvetica,sans-Serif" font-size="11.00">Generated by SchemaSpy</text>
<!-- vw_tdh_pipe_point -->
<g id="node1" class="node">
<title>vw_tdh_pipe_point</title>
<g id="a_node1"><a xlink:href="../../tables/vw_tdh_pipe_point.html" xlink:title="vw_tdh_pipe_point" target="_top">
<polygon fill="#ffffff" stroke="transparent" points="8,-37 8,-723 373,-723 373,-37 8,-37"/>
<polygon fill="#f5f5f5" stroke="transparent" points="10.5,-699 10.5,-721 371.5,-721 371.5,-699 10.5,-699"/>
<polygon fill="none" stroke="black" points="10.5,-699 10.5,-721 371.5,-721 371.5,-699 10.5,-699"/>
<text text-anchor="start" x="15.5" y="-708.2" font-family="Helvetica,sans-Serif" font-weight="bold" font-size="11.00">vw_tdh_pipe_point</text>
<text text-anchor="start" x="331.5" y="-707.2" font-family="Helvetica,sans-Serif" font-size="11.00">[view]</text>
<polygon fill="none" stroke="black" points="10.5,-677 10.5,-699 235.5,-699 235.5,-677 10.5,-677"/>
<text text-anchor="start" x="30.5" y="-685.2" font-family="Helvetica,sans-Serif" font-size="11.00">pp_type</text>
<polygon fill="none" stroke="black" points="235.5,-677 235.5,-699 371.5,-699 371.5,-677 235.5,-677"/>
<text text-anchor="start" x="238.5" y="-685.2" font-family="Helvetica,sans-Serif" font-size="11.00">text[2147483647]</text>
<polygon fill="none" stroke="black" points="10.5,-655 10.5,-677 235.5,-677 235.5,-655 10.5,-655"/>
<text text-anchor="start" x="30.5" y="-663.2" font-family="Helvetica,sans-Serif" font-size="11.00">pn_kind</text>
<polygon fill="none" stroke="black" points="235.5,-655 235.5,-677 371.5,-677 371.5,-655 235.5,-655"/>
<text text-anchor="start" x="238.5" y="-663.2" font-family="Helvetica,sans-Serif" font-size="11.00">int4[10]</text>
<polygon fill="none" stroke="black" points="10.5,-633 10.5,-655 235.5,-655 235.5,-633 10.5,-633"/>
<text text-anchor="start" x="30.5" y="-641.2" font-family="Helvetica,sans-Serif" font-size="11.00">pf_kind</text>
<polygon fill="none" stroke="black" points="235.5,-633 235.5,-655 371.5,-655 371.5,-633 235.5,-633"/>
<text text-anchor="start" x="238.5" y="-641.2" font-family="Helvetica,sans-Serif" font-size="11.00">int4[10]</text>
<polygon fill="none" stroke="black" points="10.5,-611 10.5,-633 235.5,-633 235.5,-611 10.5,-611"/>
<text text-anchor="start" x="30.5" y="-619.2" font-family="Helvetica,sans-Serif" font-size="11.00">fk_owner</text>
<polygon fill="none" stroke="black" points="235.5,-611 235.5,-633 371.5,-633 371.5,-611 235.5,-611"/>
<text text-anchor="start" x="238.5" y="-619.2" font-family="Helvetica,sans-Serif" font-size="11.00">varchar[16]</text>
<polygon fill="none" stroke="black" points="10.5,-589 10.5,-611 235.5,-611 235.5,-589 10.5,-589"/>
<text text-anchor="start" x="30.5" y="-597.2" font-family="Helvetica,sans-Serif" font-size="11.00">obj_id</text>
<polygon fill="none" stroke="black" points="235.5,-589 235.5,-611 371.5,-611 371.5,-589 235.5,-589"/>
<text text-anchor="start" x="238.5" y="-597.2" font-family="Helvetica,sans-Serif" font-size="11.00">varchar[16]</text>
<polygon fill="none" stroke="black" points="10.5,-567 10.5,-589 235.5,-589 235.5,-567 10.5,-567"/>
<text text-anchor="start" x="30.5" y="-575.2" font-family="Helvetica,sans-Serif" font-size="11.00">altitude1</text>
<polygon fill="none" stroke="black" points="235.5,-567 235.5,-589 371.5,-589 371.5,-567 235.5,-567"/>
<text text-anchor="start" x="238.5" y="-575.2" font-family="Helvetica,sans-Serif" font-size="11.00">numeric[7,3]</text>
<polygon fill="none" stroke="black" points="10.5,-545 10.5,-567 235.5,-567 235.5,-545 10.5,-545"/>
<text text-anchor="start" x="30.5" y="-553.2" font-family="Helvetica,sans-Serif" font-size="11.00">altitude2</text>
<polygon fill="none" stroke="black" points="235.5,-545 235.5,-567 371.5,-567 371.5,-545 235.5,-545"/>
<text text-anchor="start" x="238.5" y="-553.2" font-family="Helvetica,sans-Serif" font-size="11.00">numeric[7,3]</text>
<polygon fill="none" stroke="black" points="10.5,-523 10.5,-545 235.5,-545 235.5,-523 10.5,-523"/>
<text text-anchor="start" x="30.5" y="-531.2" font-family="Helvetica,sans-Serif" font-size="11.00">elevation_determination</text>
<polygon fill="none" stroke="black" points="235.5,-523 235.5,-545 371.5,-545 371.5,-523 235.5,-523"/>
<text text-anchor="start" x="238.5" y="-531.2" font-family="Helvetica,sans-Serif" font-size="11.00">int4[10]</text>
<polygon fill="none" stroke="black" points="10.5,-501 10.5,-523 235.5,-523 235.5,-501 10.5,-501"/>
<text text-anchor="start" x="30.5" y="-509.2" font-family="Helvetica,sans-Serif" font-size="11.00">fk_dataowner</text>
<polygon fill="none" stroke="black" points="235.5,-501 235.5,-523 371.5,-523 371.5,-501 235.5,-501"/>
<text text-anchor="start" x="238.5" y="-509.2" font-family="Helvetica,sans-Serif" font-size="11.00">varchar[16]</text>
<polygon fill="none" stroke="black" points="10.5,-479 10.5,-501 235.5,-501 235.5,-479 10.5,-479"/>
<text text-anchor="start" x="30.5" y="-487.2" font-family="Helvetica,sans-Serif" font-size="11.00">fk_provider</text>
<polygon fill="none" stroke="black" points="235.5,-479 235.5,-501 371.5,-501 371.5,-479 235.5,-479"/>
<text text-anchor="start" x="238.5" y="-487.2" font-family="Helvetica,sans-Serif" font-size="11.00">varchar[16]</text>
<polygon fill="none" stroke="black" points="10.5,-457 10.5,-479 235.5,-479 235.5,-457 10.5,-457"/>
<text text-anchor="start" x="30.5" y="-465.2" font-family="Helvetica,sans-Serif" font-size="11.00">horizontal_positioning</text>
<polygon fill="none" stroke="black" points="235.5,-457 235.5,-479 371.5,-479 371.5,-457 235.5,-457"/>
<text text-anchor="start" x="238.5" y="-465.2" font-family="Helvetica,sans-Serif" font-size="11.00">int4[10]</text>
<polygon fill="none" stroke="black" points="10.5,-435 10.5,-457 235.5,-457 235.5,-435 10.5,-435"/>
<text text-anchor="start" x="30.5" y="-443.2" font-family="Helvetica,sans-Serif" font-size="11.00">last_modification</text>
<polygon fill="none" stroke="black" points="235.5,-435 235.5,-457 371.5,-457 371.5,-435 235.5,-435"/>
<text text-anchor="start" x="238.5" y="-443.2" font-family="Helvetica,sans-Serif" font-size="11.00">timestamp[29,6]</text>
<polygon fill="none" stroke="black" points="10.5,-413 10.5,-435 235.5,-435 235.5,-413 10.5,-413"/>
<text text-anchor="start" x="30.5" y="-421.2" font-family="Helvetica,sans-Serif" font-size="11.00">remark</text>
<polygon fill="none" stroke="black" points="235.5,-413 235.5,-435 371.5,-435 371.5,-413 235.5,-413"/>
<text text-anchor="start" x="238.5" y="-421.2" font-family="Helvetica,sans-Serif" font-size="11.00">text[2147483647]</text>
<polygon fill="none" stroke="black" points="10.5,-391 10.5,-413 235.5,-413 235.5,-391 10.5,-391"/>
<text text-anchor="start" x="30.5" y="-399.2" font-family="Helvetica,sans-Serif" font-size="11.00">symbolori</text>
<polygon fill="none" stroke="black" points="235.5,-391 235.5,-413 371.5,-413 371.5,-391 235.5,-391"/>
<text text-anchor="start" x="238.5" y="-399.2" font-family="Helvetica,sans-Serif" font-size="11.00">numeric[4,1]</text>
<polygon fill="none" stroke="black" points="10.5,-369 10.5,-391 235.5,-391 235.5,-369 10.5,-369"/>
<text text-anchor="start" x="30.5" y="-377.2" font-family="Helvetica,sans-Serif" font-size="11.00">situation3d_geometry</text>
<polygon fill="none" stroke="black" points="235.5,-369 235.5,-391 371.5,-391 371.5,-369 235.5,-369"/>
<text text-anchor="start" x="238.5" y="-377.2" font-family="Helvetica,sans-Serif" font-size="11.00">geometry[2147483647]</text>
<polygon fill="none" stroke="black" points="10.5,-347 10.5,-369 235.5,-369 235.5,-347 10.5,-347"/>
<text text-anchor="start" x="30.5" y="-355.2" font-family="Helvetica,sans-Serif" font-size="11.00">pn_armature_setting</text>
<polygon fill="none" stroke="black" points="235.5,-347 235.5,-369 371.5,-369 371.5,-347 235.5,-347"/>
<text text-anchor="start" x="238.5" y="-355.2" font-family="Helvetica,sans-Serif" font-size="11.00">int4[10]</text>
<polygon fill="none" stroke="black" points="10.5,-325 10.5,-347 235.5,-347 235.5,-325 10.5,-325"/>
<text text-anchor="start" x="30.5" y="-333.2" font-family="Helvetica,sans-Serif" font-size="11.00">pn_material</text>
<polygon fill="none" stroke="black" points="235.5,-325 235.5,-347 371.5,-347 371.5,-325 235.5,-325"/>
<text text-anchor="start" x="238.5" y="-333.2" font-family="Helvetica,sans-Serif" font-size="11.00">int4[10]</text>
<polygon fill="none" stroke="black" points="10.5,-303 10.5,-325 235.5,-325 235.5,-303 10.5,-303"/>
<text text-anchor="start" x="30.5" y="-311.2" font-family="Helvetica,sans-Serif" font-size="11.00">pf_aperture_value</text>
<polygon fill="none" stroke="black" points="235.5,-303 235.5,-325 371.5,-325 371.5,-303 235.5,-303"/>
<text text-anchor="start" x="238.5" y="-311.2" font-family="Helvetica,sans-Serif" font-size="11.00">int4[10]</text>
<polygon fill="none" stroke="black" points="10.5,-281 10.5,-303 235.5,-303 235.5,-281 10.5,-281"/>
<text text-anchor="start" x="30.5" y="-289.2" font-family="Helvetica,sans-Serif" font-size="11.00">pf_category</text>
<polygon fill="none" stroke="black" points="235.5,-281 235.5,-303 371.5,-303 371.5,-281 235.5,-281"/>
<text text-anchor="start" x="238.5" y="-289.2" font-family="Helvetica,sans-Serif" font-size="11.00">int4[10]</text>
<polygon fill="none" stroke="black" points="10.5,-259 10.5,-281 235.5,-281 235.5,-259 10.5,-259"/>
<text text-anchor="start" x="30.5" y="-267.2" font-family="Helvetica,sans-Serif" font-size="11.00">pf_flow_temperature</text>
<polygon fill="none" stroke="black" points="235.5,-259 235.5,-281 371.5,-281 371.5,-259 235.5,-259"/>
<text text-anchor="start" x="238.5" y="-267.2" font-family="Helvetica,sans-Serif" font-size="11.00">int4[10]</text>
<polygon fill="none" stroke="black" points="10.5,-237 10.5,-259 235.5,-259 235.5,-237 10.5,-237"/>
<text text-anchor="start" x="30.5" y="-245.2" font-family="Helvetica,sans-Serif" font-size="11.00">pf_heat_consumption</text>
<polygon fill="none" stroke="black" points="235.5,-237 235.5,-259 371.5,-259 371.5,-237 235.5,-237"/>
<text text-anchor="start" x="238.5" y="-245.2" font-family="Helvetica,sans-Serif" font-size="11.00">int4[10]</text>
<polygon fill="none" stroke="black" points="10.5,-215 10.5,-237 235.5,-237 235.5,-215 10.5,-215"/>
<text text-anchor="start" x="30.5" y="-223.2" font-family="Helvetica,sans-Serif" font-size="11.00">pf_heated_volume</text>
<polygon fill="none" stroke="black" points="235.5,-215 235.5,-237 371.5,-237 371.5,-215 235.5,-215"/>
<text text-anchor="start" x="238.5" y="-223.2" font-family="Helvetica,sans-Serif" font-size="11.00">int4[10]</text>
<polygon fill="none" stroke="black" points="10.5,-193 10.5,-215 235.5,-215 235.5,-193 10.5,-193"/>
<text text-anchor="start" x="30.5" y="-201.2" font-family="Helvetica,sans-Serif" font-size="11.00">pf_power_output</text>
<polygon fill="none" stroke="black" points="235.5,-193 235.5,-215 371.5,-215 371.5,-193 235.5,-193"/>
<text text-anchor="start" x="238.5" y="-201.2" font-family="Helvetica,sans-Serif" font-size="11.00">int4[10]</text>
<polygon fill="none" stroke="black" points="10.5,-171 10.5,-193 235.5,-193 235.5,-171 10.5,-171"/>
<text text-anchor="start" x="30.5" y="-179.2" font-family="Helvetica,sans-Serif" font-size="11.00">pf_power_output_installed</text>
<polygon fill="none" stroke="black" points="235.5,-171 235.5,-193 371.5,-193 371.5,-171 235.5,-171"/>
<text text-anchor="start" x="238.5" y="-179.2" font-family="Helvetica,sans-Serif" font-size="11.00">int4[10]</text>
<polygon fill="none" stroke="black" points="10.5,-149 10.5,-171 235.5,-171 235.5,-149 10.5,-149"/>
<text text-anchor="start" x="30.5" y="-157.2" font-family="Helvetica,sans-Serif" font-size="11.00">pf_power_output_ordered</text>
<polygon fill="none" stroke="black" points="235.5,-149 235.5,-171 371.5,-171 371.5,-149 235.5,-149"/>
<text text-anchor="start" x="238.5" y="-157.2" font-family="Helvetica,sans-Serif" font-size="11.00">int4[10]</text>
<polygon fill="none" stroke="black" points="10.5,-127 10.5,-149 235.5,-149 235.5,-127 10.5,-127"/>
<text text-anchor="start" x="30.5" y="-135.2" font-family="Helvetica,sans-Serif" font-size="11.00">pf_pressure</text>
<polygon fill="none" stroke="black" points="235.5,-127 235.5,-149 371.5,-149 371.5,-127 235.5,-127"/>
<text text-anchor="start" x="238.5" y="-135.2" font-family="Helvetica,sans-Serif" font-size="11.00">int2[5]</text>
<polygon fill="none" stroke="black" points="10.5,-105 10.5,-127 235.5,-127 235.5,-105 10.5,-105"/>
<text text-anchor="start" x="30.5" y="-113.2" font-family="Helvetica,sans-Serif" font-size="11.00">pf_q_subscribed</text>
<polygon fill="none" stroke="black" points="235.5,-105 235.5,-127 371.5,-127 371.5,-105 235.5,-105"/>
<text text-anchor="start" x="238.5" y="-113.2" font-family="Helvetica,sans-Serif" font-size="11.00">numeric[7,3]</text>
<polygon fill="none" stroke="black" points="10.5,-83 10.5,-105 235.5,-105 235.5,-83 10.5,-83"/>
<text text-anchor="start" x="30.5" y="-91.2" font-family="Helvetica,sans-Serif" font-size="11.00">pf_return_flow_temperature</text>
<polygon fill="none" stroke="black" points="235.5,-83 235.5,-105 371.5,-105 371.5,-83 235.5,-83"/>
<text text-anchor="start" x="238.5" y="-91.2" font-family="Helvetica,sans-Serif" font-size="11.00">int4[10]</text>
<polygon fill="none" stroke="black" points="10.5,-61 10.5,-83 235.5,-83 235.5,-61 10.5,-61"/>
<text text-anchor="start" x="30.5" y="-69.2" font-family="Helvetica,sans-Serif" font-size="11.00">pf_year_of_commissioning</text>
<polygon fill="none" stroke="black" points="235.5,-61 235.5,-83 371.5,-83 371.5,-61 235.5,-61"/>
<text text-anchor="start" x="238.5" y="-69.2" font-family="Helvetica,sans-Serif" font-size="11.00">int2[5]</text>
<polygon fill="none" stroke="black" points="10.5,-39 10.5,-61 235.5,-61 235.5,-39 10.5,-39"/>
<text text-anchor="start" x="30.5" y="-47.2" font-family="Helvetica,sans-Serif" font-size="11.00">pf_year_of_reconstruction</text>
<polygon fill="none" stroke="black" points="235.5,-39 235.5,-61 371.5,-61 371.5,-39 235.5,-39"/>
<text text-anchor="start" x="238.5" y="-47.2" font-family="Helvetica,sans-Serif" font-size="11.00">int2[5]</text>
<polygon fill="none" stroke="black" stroke-width="2" points="9,-38 9,-722 372,-722 372,-38 9,-38"/>
</a>
</g>
</g>
</g>
</svg>
