<?xml version="1.0" encoding="UTF-8" standalone="no"?>
<!DOCTYPE svg PUBLIC "-//W3C//DTD SVG 1.1//EN"
 "http://www.w3.org/Graphics/SVG/1.1/DTD/svg11.dtd">
<!-- Generated by graphviz version 2.43.0 (0)
 -->
<!-- Title: orphans Pages: 1 -->
<svg width="261pt" height="126pt"
 viewBox="0.00 0.00 261.00 126.00" xmlns="http://www.w3.org/2000/svg" xmlns:xlink="http://www.w3.org/1999/xlink">
<g id="graph0" class="graph" transform="scale(1 1) rotate(0) translate(4 122)">
<title>orphans</title>
<polygon fill="#ffffff" stroke="transparent" points="-4,4 -4,-122 257,-122 257,4 -4,4"/>
<!-- default_values -->
<g id="node1" class="node">
<title>default_values</title>
<g id="a_node1"><a xlink:href="../../tables/default_values.html" xlink:title="default_values" target="_top">
<polygon fill="#ffffff" stroke="transparent" points="8,-4 8,-114 245,-114 245,-4 8,-4"/>
<polygon fill="#f5f5f5" stroke="transparent" points="10.5,-90 10.5,-112 243.5,-112 243.5,-90 10.5,-90"/>
<polygon fill="none" stroke="black" points="10.5,-90 10.5,-112 243.5,-112 243.5,-90 10.5,-90"/>
<text text-anchor="start" x="15.5" y="-99.2" font-family="Helvetica,sans-Serif" font-weight="bold" font-size="11.00">default_values</text>
<text text-anchor="start" x="201.5" y="-98.2" font-family="Helvetica,sans-Serif" font-size="11.00">[table]</text>
<polygon fill="none" stroke="black" points="10.5,-68 10.5,-90 137.5,-90 137.5,-68 10.5,-68"/>
<image xlink:href="../../images/primaryKeys.png" width="11px" height="12px" preserveAspectRatio="xMinYMin meet" x="15.5" y="-85"/>
<text text-anchor="start" x="30.5" y="-76.2" font-family="Helvetica,sans-Serif" font-size="11.00">id</text>
<polygon fill="none" stroke="black" points="137.5,-68 137.5,-90 243.5,-90 243.5,-68 137.5,-68"/>
<text text-anchor="start" x="140.5" y="-76.2" font-family="Helvetica,sans-Serif" font-size="11.00">serial[10]</text>
<polygon fill="#ffffff" stroke="transparent" points="10.5,-46 10.5,-68 137.5,-68 137.5,-46 10.5,-46"/>
<polygon fill="none" stroke="black" points="10.5,-46 10.5,-68 137.5,-68 137.5,-46 10.5,-46"/>
<text text-anchor="start" x="30.5" y="-54.2" font-family="Helvetica,sans-Serif" font-size="11.00">fieldname</text>
<polygon fill="none" stroke="black" points="137.5,-46 137.5,-68 243.5,-68 243.5,-46 137.5,-46"/>
<text text-anchor="start" x="140.5" y="-54.2" font-family="Helvetica,sans-Serif" font-size="11.00">text[2147483647]</text>
<polygon fill="none" stroke="black" points="10.5,-24 10.5,-46 137.5,-46 137.5,-24 10.5,-24"/>
<text text-anchor="start" x="30.5" y="-32.2" font-family="Helvetica,sans-Serif" font-size="11.00">value_obj_id</text>
<polygon fill="none" stroke="black" points="137.5,-24 137.5,-46 243.5,-46 243.5,-24 137.5,-24"/>
<text text-anchor="start" x="140.5" y="-32.2" font-family="Helvetica,sans-Serif" font-size="11.00">varchar[16]</text>
<polygon fill="#ffffff" stroke="transparent" points="10.5,-6 10.5,-24 243.5,-24 243.5,-6 10.5,-6"/>
<polygon fill="none" stroke="black" points="10.5,-6 10.5,-24 243.5,-24 243.5,-6 10.5,-6"/>
<polygon fill="#ffffff" stroke="transparent" points="11.5,-7 11.5,-23 92.5,-23 92.5,-7 11.5,-7"/>
<text text-anchor="start" x="13.5" y="-12.2" font-family="Helvetica,sans-Serif" font-size="11.00">&lt; 0</text>
<polygon fill="#ffffff" stroke="transparent" points="92.5,-7 92.5,-23 161.5,-23 161.5,-7 92.5,-7"/>
<text text-anchor="start" x="123" y="-12.2" font-family="Helvetica,sans-Serif" font-size="11.00"> &#160;</text>
<polygon fill="#ffffff" stroke="transparent" points="161.5,-7 161.5,-23 242.5,-23 242.5,-7 161.5,-7"/>
<text text-anchor="start" x="220.5" y="-12.2" font-family="Helvetica,sans-Serif" font-size="11.00">0 &gt;</text>
<polygon fill="black" stroke="black" points="92.5,-7 92.5,-23 92.5,-23 92.5,-7 92.5,-7"/>
<polygon fill="black" stroke="black" points="161.5,-7 161.5,-23 161.5,-23 161.5,-7 161.5,-7"/>
<polygon fill="none" stroke="black" stroke-width="2" points="9,-5 9,-113 244,-113 244,-5 9,-5"/>
</a>
</g>
</g>
</g>
</svg>
